<svg width="98" height="26" viewBox="0 0 98 26" fill="none" xmlns="http://www.w3.org/2000/svg">
<rect width="98" height="26" fill="#565656"/>
<g id="Desktop">
<path d="M-1116 -1290C-1116 -1291.1 -1115.1 -1292 -1114 -1292H14556C14557.1 -1292 14558 -1291.1 14558 -1290V6575C14558 6576.1 14557.1 6577 14556 6577H-1114C-1115.1 6577 -1116 6576.1 -1116 6575V-1290Z" fill="#444444"/>
<path d="M-1114 -1291H14556V-1293H-1114V-1291ZM14557 -1290V6575H14559V-1290H14557ZM14556 6576H-1114V6578H14556V6576ZM-1115 6575V-1290H-1117V6575H-1115ZM-1114 6576C-1114.55 6576 -1115 6575.55 -1115 6575H-1117C-1117 6576.66 -1115.66 6578 -1114 6578V6576ZM14557 6575C14557 6575.55 14556.6 6576 14556 6576V6578C14557.7 6578 14559 6576.66 14559 6575H14557ZM14556 -1291C14556.6 -1291 14557 -1290.55 14557 -1290H14559C14559 -1291.66 14557.7 -1293 14556 -1293V-1291ZM-1114 -1293C-1115.66 -1293 -1117 -1291.66 -1117 -1290H-1115C-1115 -1290.55 -1114.55 -1291 -1114 -1291V-1293Z" fill="white" fill-opacity="0.1"/>
<g id="Home">
<g clip-path="url(#clip0_0_1)">
<rect x="-80" y="-37" width="1440" height="5645" rx="24" fill="#0C0C0F"/>
<g id="Group 278310">
<g id="Vector 517" filter="url(#filter0_f_0_1)">
<path d="M-76 423.5V66.5V-19H1254.5C1266.9 -19 1319.67 3 1344.5 14L1364.5 423.5C1355 435.167 1330.3 459.4 1307.5 463C1279 467.5 1250 478.5 1199.5 524.5C1173 544 1131.5 544.5 1096 557.5C1060.5 570.5 1067.5 564 1028 588.5C988.5 613 924 612 904.5 612C794.786 612 629.291 499.642 587.5 505C571.9 507 475 615 435.5 649C396 683 395.898 694.742 335.5 685C320 682.5 276 665.5 258.5 656.5C244.5 649.3 167.667 608.167 131 588.5C100.167 562.833 36.3 510.2 27.5 505C18.7 499.8 -14.1667 485.167 -29.5 478.5L-76 423.5Z" fill="#0C0C0F"/>
</g>
</g>
<g id="Navbar">
<g id="Frame 1000004238">
<g id="Logo">
<g id="Group 278262">
<path id="Path 24869" d="M18.5261 20.5228L15.2812 14.7066L15.2036 14.5675L11.221 7.47759L9.45156 4.33157H6.40609C6.32027 4.51246 6.19273 4.66375 6.03698 4.76943C5.88123 4.87512 5.70307 4.93124 5.52137 4.93187C5.38874 4.93157 5.25746 4.90177 5.13503 4.84416C5.0126 4.78656 4.90143 4.70229 4.80784 4.59615C4.71424 4.49002 4.64006 4.3641 4.58955 4.2256C4.53905 4.08709 4.51319 3.93871 4.51346 3.78891C4.51328 3.48666 4.61931 3.19668 4.80829 2.98267C4.99727 2.76865 5.25375 2.6481 5.52137 2.64749C5.70296 2.64781 5.88109 2.70363 6.03686 2.80905C6.19262 2.91447 6.32021 3.06555 6.40609 3.24626H8.84045L7.29965 0.501465H0L3.91868 7.47759L5.15862 9.68357H8.32663C8.41256 9.50279 8.54013 9.35159 8.69586 9.24592C8.85159 9.14026 9.02968 9.08406 9.21134 9.08327C9.34397 9.08357 9.47526 9.11338 9.59769 9.17098C9.72012 9.22858 9.83129 9.31285 9.92488 9.41899C10.0185 9.52512 10.0927 9.65103 10.1432 9.78954C10.1937 9.92805 10.2195 10.0764 10.2193 10.2262C10.2199 10.4224 10.1751 10.6153 10.0892 10.7858L14.5353 18.7558C14.7168 18.7414 14.8984 18.783 15.0606 18.8761C15.2228 18.9693 15.3595 19.1105 15.4561 19.2846C15.5992 19.5407 15.6466 19.8504 15.5879 20.1459C15.5293 20.4413 15.3693 20.6985 15.1431 20.861C15.0312 20.9412 14.9065 20.9955 14.776 21.021C14.6454 21.0465 14.5117 21.0427 14.3826 21.0097C14.2534 20.9767 14.1312 20.9152 14.0231 20.8288C13.915 20.7423 13.8231 20.6326 13.7527 20.5059C13.6554 20.3316 13.6015 20.1309 13.5967 19.9249C13.5919 19.7188 13.6364 19.5152 13.7255 19.3353L9.28482 11.3646C9.26228 11.3682 9.23955 11.37 9.21678 11.37C9.03502 11.3692 8.85681 11.313 8.70105 11.2072C8.54529 11.1014 8.4178 10.9499 8.33207 10.7689H5.77043L13.8691 25.1885H16.4048L18.5145 21.6174C18.4356 21.4483 18.3954 21.2596 18.3974 21.0685C18.3995 20.8773 18.4437 20.6898 18.5261 20.5228Z" fill="white"/>
<path id="Path 24870" d="M24.1756 19.8438L21.1648 25.1882H17.5538L19.3069 22.2281C19.5287 22.2537 19.7516 22.1936 19.9391 22.0575C20.165 21.8964 20.3251 21.6405 20.384 21.3462C20.443 21.0519 20.396 20.7432 20.2535 20.488C20.1565 20.3142 20.0197 20.1734 19.8576 20.0803C19.6956 19.9872 19.5142 19.9453 19.3328 19.9591L18.0771 17.7163L20.5272 13.3696L24.1756 19.8438Z" fill="white"/>
<path id="Path 24871" d="M27.919 8.53516L29.2713 10.9356L27.8156 13.5197L25.1614 8.56898L25.1438 8.53516H27.919Z" fill="white"/>
<path id="Path 24872" d="M21.1015 4.26009L19.5484 6.62825L16.0953 0.501465H31.3397L30.0685 2.64672C29.8877 2.62701 29.7056 2.66307 29.5415 2.75106C29.3774 2.83904 29.2375 2.97565 29.1368 3.14634C29.1189 3.17574 29.1026 3.20628 29.0878 3.2378H22.9036C22.8174 3.05749 22.6897 2.90682 22.534 2.80169C22.3783 2.69657 22.2003 2.6409 22.0189 2.64057C21.7515 2.64057 21.4952 2.76035 21.3059 2.97362C21.1167 3.1869 21.0102 3.47624 21.0096 3.77815C21.0083 3.9445 21.0396 4.10911 21.1015 4.26009Z" fill="white"/>
<path id="Path 24873" d="M23.2874 7.99522C23.2874 8.29713 23.3936 8.58668 23.5826 8.80016C23.7716 9.01364 24.028 9.13357 24.2953 9.13357C24.3118 9.13497 24.3284 9.13497 24.345 9.13357L27.2407 14.5409L25.6231 17.4118L21.9732 10.9383L20.0983 7.60937L21.8725 4.90762C21.9196 4.91614 21.9671 4.92051 22.0148 4.92069C22.1962 4.9202 22.3742 4.86438 22.5299 4.75913C22.6857 4.65388 22.8133 4.50309 22.8995 4.32269H29.0823C29.16 4.48627 29.2722 4.62568 29.409 4.72853C29.6316 4.89641 29.9041 4.95768 30.1667 4.89889C30.4293 4.84009 30.6605 4.66604 30.8096 4.41492C30.9108 4.24419 30.9691 4.04561 30.9782 3.84038C30.9873 3.63515 30.9469 3.43099 30.8613 3.24968L32.4885 0.504883H35.1474L31.2315 7.45641H25.1814C25.0953 7.27596 24.9676 7.12512 24.8119 7.01986C24.6562 6.9146 24.4781 6.85882 24.2966 6.85841C24.1643 6.85821 24.0332 6.88746 23.9108 6.94448C23.7885 7.0015 23.6773 7.08518 23.5836 7.19074C23.4898 7.2963 23.4155 7.42168 23.3646 7.55971C23.3138 7.69775 23.2876 7.84573 23.2874 7.99522Z" fill="white"/>
<path id="Path 24874" d="M40.7149 4.39928C40.6292 4.58006 40.5016 4.73116 40.3458 4.83648C40.19 4.94179 40.0118 4.99737 39.8302 4.99727C39.8016 4.99727 39.773 4.99727 39.7438 4.99266L38.2704 7.52916C38.3568 7.71011 38.3983 7.91412 38.3904 8.11955C38.3825 8.32497 38.3254 8.52414 38.2254 8.69594C38.1529 8.82104 38.0592 8.92876 37.9498 9.01296C37.8404 9.09716 37.7174 9.15618 37.5877 9.18666C37.4581 9.21714 37.3244 9.21847 37.1944 9.19059C37.0643 9.16271 36.9403 9.10615 36.8296 9.02415C36.6891 8.92092 36.5738 8.77953 36.4941 8.61293H33.4629L30.7244 13.4753L27.0746 19.9534L24.1243 25.187H27.2937L33.827 13.5914C33.738 13.4124 33.6937 13.2094 33.6989 13.0042C33.704 12.799 33.7584 12.5992 33.8563 12.4261C33.9272 12.2996 34.0196 12.1902 34.1281 12.1041C34.2366 12.0181 34.3591 11.9571 34.4886 11.9247C34.618 11.8922 34.7519 11.889 34.8825 11.9152C35.013 11.9414 35.1377 11.9964 35.2494 12.0772C35.4746 12.2396 35.6337 12.4963 35.6916 12.7909C35.7495 13.0856 35.7016 13.3942 35.5584 13.649C35.4605 13.8224 35.3229 13.9627 35.1602 14.055C34.9975 14.1473 34.8157 14.1881 34.6341 14.1732L28.4289 25.187H31.4233L34.3735 19.9534L41.3703 7.533L43.1397 4.39697L40.7149 4.39928Z" fill="white"/>
<path id="Path 24875" d="M45.292 0.501536L43.7506 3.23711H40.718C40.6321 3.05652 40.5045 2.90562 40.3487 2.80045C40.1929 2.69529 40.0148 2.63979 39.8333 2.63988C39.5661 2.64008 39.31 2.75997 39.121 2.97324C38.9321 3.18652 38.8258 3.47574 38.8254 3.77746C38.8247 3.96697 38.8664 4.15361 38.9465 4.32011L37.4718 6.85661C37.2905 6.83938 37.1085 6.87769 36.9449 6.96752C36.7812 7.05734 36.6421 7.19534 36.5421 7.36698C36.5259 7.3943 36.5109 7.42252 36.4972 7.45153H34.0765L37.9931 0.5L45.292 0.501536Z" fill="white"/>
<path id="Path 24860" d="M65.2792 20.5264L64.2032 23.8558L63.1443 20.5264H62.2385L61.1863 23.8558L60.1274 20.5264H59.2127L60.81 25.4979H61.579L62.6985 21.9839L63.8262 25.4979H64.5871L66.1932 20.5264H65.2792Z" fill="white"/>
<path id="Path 24861" d="M71.2373 20.5264H68.3313C68.1597 20.5323 67.9909 20.5771 67.835 20.6582C67.679 20.7393 67.5391 20.8551 67.4236 20.9985C67.3081 21.142 67.2193 21.3102 67.1626 21.4933C67.1059 21.6763 67.0823 21.8704 67.0934 22.0639V25.5002H67.9475V22.0639C67.9475 21.7264 68.0836 21.495 68.332 21.495H71.238C71.4768 21.495 71.63 21.7256 71.63 22.0639V22.8549H68.5879V23.8197H71.63V25.5002H72.4854V22.0639C72.4945 21.8699 72.4694 21.6758 72.4113 21.493C72.3532 21.3101 72.2634 21.1422 72.1472 20.999C72.031 20.8558 71.8906 20.7403 71.7344 20.6591C71.5781 20.578 71.4091 20.5328 71.2373 20.5264Z" fill="white"/>
<path id="Path 24862" d="M76.2607 23.0171L78.4385 20.5264H77.2502L75.0895 23.0171L77.3952 25.4979H78.5828L76.2607 23.0171ZM73.8516 20.5264V25.4979H74.7063V20.5264H73.8516Z" fill="white"/>
<path id="Path 24863" d="M81.1496 22.5259V23.4884H84.1053V22.5259H81.1496ZM84.3483 21.4927V20.5264H79.6524V25.4979H84.3435V24.5316H80.5072V21.4896L84.3483 21.4927Z" fill="white"/>
<path id="Path 24864" d="M90.6746 22.9779C90.8217 22.8526 90.9398 22.6889 91.0186 22.5008C91.0974 22.3126 91.1347 22.1057 91.1272 21.8978C91.1326 21.7145 91.1044 21.532 91.0443 21.3616C90.9842 21.1913 90.8936 21.0368 90.778 20.908C90.6625 20.7792 90.5246 20.6787 90.3731 20.6131C90.2215 20.5474 90.0596 20.5178 89.8974 20.5263H85.7106V25.4979H89.9736C90.136 25.5058 90.2982 25.476 90.45 25.4102C90.6018 25.3445 90.74 25.2442 90.856 25.1156C90.9721 24.987 91.0636 24.8328 91.1247 24.6627C91.1859 24.4925 91.2154 24.31 91.2116 24.1264C91.2224 23.898 91.1781 23.6706 91.0836 23.4683C90.989 23.2661 90.8477 23.0966 90.6746 22.9779ZM89.9743 24.5315H86.5647V21.4896H89.8994C90.1213 21.4896 90.2737 21.6718 90.2737 22.0192C90.2737 22.3667 90.1213 22.5228 89.8994 22.5228H87.2038V23.4883H89.9722C90.203 23.4883 90.3561 23.6513 90.3561 24.0088C90.3561 24.3663 90.2064 24.5315 89.9757 24.5315H89.9743Z" fill="white"/>
<path id="Path 24865" d="M52.735 18.8251V22.8804H56.3977V18.8251H52.735ZM62.8752 14.091C62.6715 14.0913 62.4725 14.0213 62.3049 13.8904C62.1698 13.7864 62.0592 13.6467 61.9828 13.4834C61.9065 13.3201 61.8666 13.1382 61.8667 12.9535C61.8666 12.7687 61.9065 12.5866 61.9828 12.4232C62.0592 12.2598 62.1698 12.1199 62.3049 12.0157V8.46387H58.6381V13.5261H50.4565V8.46387H46.7923V17.7897H63.3618V13.9504C63.2134 14.0427 63.0467 14.0911 62.8773 14.091H62.8752Z" fill="white"/>
<path id="Path 24866" d="M67.12 8.3426V6.27344H63.3804V11.9306C63.542 12.0348 63.6746 12.1882 63.7628 12.3733H78.6262C78.7125 12.1932 78.8403 12.0427 78.996 11.9378C79.1517 11.8328 79.3296 11.7772 79.5109 11.7769C79.6434 11.7768 79.7745 11.8061 79.8969 11.8633C80.0193 11.9204 80.1306 12.0042 80.2243 12.11C80.318 12.2157 80.3924 12.3412 80.4431 12.4793C80.4939 12.6175 80.5201 12.7656 80.5201 12.9152C80.5198 13.2172 80.4133 13.5066 80.224 13.72C80.0348 13.9333 79.7783 14.053 79.5109 14.0528C79.3304 14.0532 79.1531 13.9989 78.9975 13.8956C78.8419 13.7924 78.7137 13.6438 78.6262 13.4655H63.7547C63.6625 13.6543 63.5243 13.8093 63.3566 13.9121C63.2082 14.0045 63.0415 14.0529 62.872 14.0528C62.668 14.0532 62.4688 13.9832 62.301 13.8522V17.7507H83.8882V8.3426H67.12Z" fill="white"/>
<path id="Path 24867" d="M85.0321 0.57373V17.7204H88.6975V0.57373H85.0321Z" fill="white"/>
<path id="Path 24868" d="M97.9912 17.8624V8.56885H89.7244L89.734 8.65263V17.8117H93.3232V14.2706C93.1634 14.1733 93.0299 14.0292 92.9367 13.8533C92.8435 13.6774 92.7941 13.4763 92.7937 13.2713C92.7937 13.1218 92.8198 12.9737 92.8705 12.8355C92.9212 12.6974 92.9955 12.5719 93.0892 12.4661C93.1829 12.3604 93.2941 12.2766 93.4164 12.2194C93.5388 12.1623 93.6699 12.1329 93.8023 12.133C94.0696 12.133 94.326 12.2529 94.515 12.4664C94.704 12.6799 94.8102 12.9694 94.8102 13.2713C94.8099 13.4763 94.7605 13.6774 94.6673 13.8533C94.5741 14.0292 94.4405 14.1733 94.2808 14.2706V22.8508H98V20.5196L97.9912 17.8624Z" fill="white"/>
</g>
</g>
</g>
</g>
</g>
</g>
</g>
<defs>
<filter id="filter0_f_0_1" x="-276" y="-219" width="1840.5" height="1107.3" filterUnits="userSpaceOnUse" color-interpolation-filters="sRGB">
<feFlood flood-opacity="0" result="BackgroundImageFix"/>
<feBlend mode="normal" in="SourceGraphic" in2="BackgroundImageFix" result="shape"/>
<feGaussianBlur stdDeviation="100" result="effect1_foregroundBlur_0_1"/>
</filter>
<clipPath id="clip0_0_1">
<rect x="-80" y="-37" width="1440" height="5645" rx="24" fill="white"/>
</clipPath>
</defs>
</svg>
