<svg width="32" height="36" viewBox="0 0 32 36" fill="none" xmlns="http://www.w3.org/2000/svg">
<path d="M30.1021 12.6364V11.8242C31.1385 11.5818 31.9203 10.6545 31.9203 9.54545C31.9203 8.2606 30.8658 7.20605 29.5749 7.20605C28.29 7.20605 27.2355 8.2606 27.2355 9.54545C27.2355 10.6121 27.9506 11.503 28.9264 11.7818V12.6364C28.9264 13.2182 28.4476 13.697 27.8658 13.697H21.3203V14.8727H27.8658C29.0961 14.8727 30.1021 13.8667 30.1021 12.6364Z" fill="currentColor"/>
<path d="M25.6355 7.15129V6.33917C26.6718 6.09675 27.4536 5.16947 27.4536 4.06038C27.4536 2.77554 26.3991 1.72705 25.1082 1.72705C23.8233 1.72705 22.7688 2.77554 22.7688 4.06038C22.7688 5.12705 23.4839 6.01796 24.4597 6.29675V7.15129C24.4597 7.73311 23.9809 8.2119 23.3991 8.2119H21.3203V9.38766H23.3991C24.6294 9.38766 25.6355 8.3816 25.6355 7.15129Z" fill="currentColor"/>
<path d="M30.0961 27.3632V26.5511C30.0961 25.3208 29.09 24.3208 27.8658 24.3208H21.3203V25.4966H27.8658C28.4476 25.4966 28.9264 25.9753 28.9264 26.5572V27.4117C27.9506 27.6966 27.2355 28.5875 27.2355 29.6481C27.2355 30.9329 28.29 31.9875 29.5749 31.9875C30.8658 31.9875 31.9203 30.9329 31.9203 29.6481C31.9082 28.5329 31.1264 27.6056 30.0961 27.3632Z" fill="currentColor"/>
<path d="M24.6415 31.2788V30.4666C24.6415 29.2303 23.6415 28.2363 22.4112 28.2363H21.3203V29.4121H22.4112C22.993 29.4121 23.4718 29.8848 23.4718 30.4727V31.3212C22.5021 31.6121 21.787 32.4969 21.787 33.5636C21.787 34.8485 22.8355 35.8969 24.1203 35.8969C25.4112 35.8969 26.4658 34.8485 26.4658 33.5636C26.4536 32.4485 25.6779 31.5212 24.6415 31.2788Z" fill="currentColor"/>
<path d="M29.5021 21.9332C30.793 21.9332 31.8476 20.8786 31.8476 19.5877C31.8476 18.3029 30.793 17.2544 29.5021 17.2544C28.4233 17.2544 27.5082 17.9998 27.2536 19.0059H21.3203V20.1817H27.2536C27.5143 21.1877 28.4173 21.9332 29.5021 21.9332Z" fill="currentColor"/>
<path d="M15.021 0.108887C12.221 0.108887 9.94829 2.38161 9.94829 5.2301C9.94829 5.52101 9.99678 5.81192 10.0453 6.09677C9.51193 5.90283 8.93617 5.80586 8.30587 5.80586C5.50587 5.80586 3.23314 8.07858 3.23314 10.9271C3.23314 11.2301 3.26345 11.521 3.31799 11.8119C3.32405 11.818 3.33617 11.824 3.34223 11.8301C4.20284 12.7392 5.37254 13.2362 6.63314 13.2362C6.96042 13.2362 7.22102 13.4968 7.22102 13.824C7.22102 14.1513 6.96042 14.4119 6.63314 14.4119C5.32405 14.4119 4.09375 13.9756 3.08769 13.1816C1.31799 13.9695 0.09375 15.7392 0.09375 17.7937C0.09375 20.1634 1.73617 22.1877 3.96042 22.721C3.47557 23.4968 3.23314 24.3634 3.23314 25.3271C3.23314 28.0786 5.50587 30.3998 8.30587 30.3998C8.56042 30.3998 8.81496 30.3756 9.06951 30.3392C9.65739 28.5574 11.0816 27.1877 12.8937 26.6846C12.1725 25.9937 11.6392 25.1089 11.3665 24.1149C10.8392 24.5513 10.1968 24.8665 9.46951 25.0059C9.43314 25.0119 9.39678 25.018 9.36042 25.018C9.08163 25.018 8.8392 24.824 8.78466 24.5392C8.72405 24.218 8.93011 23.9149 9.25133 23.8483C10.0816 23.6907 10.7604 23.2059 11.1968 22.5574C11.221 22.4665 11.2634 22.3877 11.3301 22.321C11.6513 21.7392 11.7907 21.0483 11.6695 20.3271C11.615 20.0059 11.8331 19.7028 12.1544 19.6483C12.4756 19.5937 12.7786 19.8119 12.8331 20.1331C13.0028 21.1392 12.815 22.1089 12.3604 22.9271C12.5241 25.2725 14.4634 27.0786 16.8634 27.0786C17.1907 27.0786 17.4513 27.3392 17.4513 27.6665C17.4513 27.9937 17.1907 28.2543 16.8634 28.2543C15.9301 28.2543 15.0513 28.0362 14.2756 27.6483C12.1422 27.721 10.4271 29.2543 10.0392 31.2907C10.4634 33.6665 12.5301 35.4725 15.0271 35.4725C17.8271 35.4725 20.1483 33.1998 20.1483 30.3998V17.4543C20.0028 17.4665 19.8574 17.4846 19.718 17.4846C18.9422 17.4846 18.1786 17.2786 17.4877 16.8846C16.6756 16.4119 16.0453 15.7089 15.6634 14.8604C14.9847 15.2543 14.221 15.4604 13.421 15.4604C13.3422 15.4604 13.2634 15.4604 13.1847 15.4543C12.8574 15.4362 12.6089 15.1634 12.6271 14.8362C12.6453 14.5089 12.9241 14.2665 13.2453 14.2786C14.1241 14.321 14.9725 14.024 15.6271 13.4422C16.2877 12.8543 16.6756 12.0362 16.718 11.1453C16.7362 10.818 17.021 10.5695 17.3362 10.5877C17.6574 10.6059 17.9119 10.8786 17.8937 11.2059C17.8392 12.3089 17.3907 13.321 16.6392 14.0968C16.8998 14.8422 17.3968 15.4665 18.0816 15.8604C18.7119 16.224 19.4331 16.3574 20.1544 16.2604V5.2301C20.1422 2.37555 17.821 0.108887 15.021 0.108887Z" fill="currentColor"/>
</svg>
