<svg width="38" height="38" viewBox="0 0 38 38" fill="none" xmlns="http://www.w3.org/2000/svg">
<path d="M37.3838 7.38371L33.6338 11.1337C33.3994 11.3681 33.0814 11.4999 32.75 11.4999H28.2676L19.8838 19.8837C19.6397 20.1278 19.3198 20.2499 19 20.2499C18.6802 20.2499 18.3604 20.1278 18.1162 19.8837C17.6279 19.3954 17.6279 18.6044 18.1162 18.1161L26.5 9.73234V5.24992C26.5 4.9185 26.6318 4.60051 26.8662 4.36613L30.6162 0.616132C30.9745 0.257856 31.5104 0.151044 31.9785 0.345136C32.4454 0.538618 32.75 0.99455 32.75 1.49992V5.24992H36.5C37.0054 5.24992 37.4613 5.55449 37.6548 6.02141C37.8483 6.48893 37.7415 7.02604 37.3838 7.38371ZM27.2373 16.0623L21.6501 21.6501C20.9373 22.3623 19.9998 22.7499 19 22.7499C18.0002 22.7499 17.0627 22.3623 16.3499 21.6501C14.8875 20.1877 14.8875 17.8122 16.3499 16.3498L21.9376 10.7626C21.0251 10.4251 20.0376 10.2499 19 10.2499C14.1752 10.2499 10.25 14.1751 10.25 18.9999C10.25 23.8247 14.1752 27.7499 19 27.7499C23.8248 27.7499 27.75 23.8247 27.75 18.9999C27.75 17.9623 27.5748 16.9748 27.2373 16.0623ZM37.75 18.9999C37.75 29.3374 29.3375 37.7499 19 37.7499C8.66248 37.7499 0.25 29.3374 0.25 18.9999C0.25 8.6624 8.66248 0.249921 19 0.249921C21.4377 0.249921 23.8248 0.724775 26.0502 1.65007L25.0999 2.59977C24.3876 3.31267 24 4.25016 24 5.24992V8.69963L23.8499 8.84977C22.3752 8.1497 20.7377 7.74992 19 7.74992C12.8 7.74992 7.75 12.8 7.75 18.9999C7.75 25.1999 12.8 30.2499 19 30.2499C25.2 30.2499 30.25 25.1999 30.25 18.9999C30.25 17.2622 29.8502 15.6247 29.1501 14.1501L29.3003 13.9999H32.75C33.7498 13.9999 34.6873 13.6123 35.4002 12.9001L36.3499 11.9497C37.2752 14.1751 37.75 16.5622 37.75 18.9999Z" fill="currentColor"/>
</svg>
