<svg width="40" height="40" viewBox="0 0 40 40" fill="none" xmlns="http://www.w3.org/2000/svg">
<path d="M27.5795 2.54525L27.2622 2.86227L26.3121 3.81182L27.5795 2.54525ZM27.5795 2.54525L27.1654 2.37306M27.5795 2.54525L27.1654 2.37306M27.1654 2.37306C24.9032 1.43245 22.4769 0.949921 20 0.949921C9.49679 0.949921 0.95 9.49671 0.95 19.9999C0.95 30.5031 9.49679 39.0499 20 39.0499C30.5032 39.0499 39.05 30.5031 39.05 19.9999C39.05 17.523 38.5675 15.0968 37.6269 12.8346L37.4547 12.4205L37.1377 12.7377L36.1881 13.6878L27.1654 2.37306ZM25.3 9.82389L25.2121 9.91176L25.062 10.0619L24.9124 10.2115L24.7212 10.1208C23.2847 9.43881 21.6909 9.04992 20 9.04992C13.9657 9.04992 9.05 13.9657 9.05 19.9999C9.05 26.0342 13.9657 30.9499 20 30.9499C26.0343 30.9499 30.95 26.0342 30.95 19.9999C30.95 18.309 30.5611 16.7152 29.8791 15.2787L29.7884 15.0876L29.938 14.9379L30.0882 14.7878L30.176 14.6999H30.3003H33.75C34.6699 14.6999 35.5312 14.3441 36.188 13.688L25.3 9.82389ZM25.3 9.82389V9.69963M25.3 9.82389V9.69963M25.3 9.69963V6.24992C25.3 5.32999 25.6558 4.46876 26.3119 3.81198L25.3 9.69963ZM38.932 6.90669L38.9319 6.90656C38.692 6.32755 38.1267 5.94992 37.5 5.94992H34.05V2.49992C34.05 1.87325 33.6724 1.30795 33.0934 1.06801C32.513 0.827381 31.8481 0.959996 31.4041 1.404L27.6541 5.154C27.3635 5.44458 27.2 5.83886 27.2 6.24992V10.6081L18.9041 18.904C18.2986 19.5094 18.2986 20.4904 18.9041 21.0958C19.2067 21.3985 19.6038 21.5499 20 21.5499C20.3962 21.5499 20.7933 21.3985 21.0959 21.0958L29.3918 12.7999H33.75C34.1611 12.7999 34.5553 12.6364 34.8459 12.3458L38.5959 8.59584C39.0394 8.15234 39.1718 7.48623 38.932 6.90669ZM28.5187 16.9582L28.3562 16.5191L28.0252 16.8502L22.4381 22.4378C21.7813 23.0941 20.92 23.4499 20 23.4499C19.08 23.4499 18.2187 23.0941 17.5619 22.4378C16.2167 21.0926 16.2168 18.9071 17.562 17.5619C17.562 17.5619 17.562 17.5619 17.562 17.5619L23.1497 11.9748L23.4809 11.6437L23.0417 11.4812C22.0945 11.1309 21.0716 10.9499 20 10.9499C15.0095 10.9499 10.95 15.0094 10.95 19.9999C10.95 24.9904 15.0095 29.0499 20 29.0499C24.9905 29.0499 29.05 24.9904 29.05 19.9999C29.05 18.9283 28.869 17.9054 28.5187 16.9582Z" fill="currentColor" stroke="currentColor" stroke-width="0.6"/>
</svg>
