<svg width="134" height="36" viewBox="0 0 134 36" fill="none" xmlns="http://www.w3.org/2000/svg">
<path d="M14.6087 0H0V34.4155L14.6087 0Z" fill="#FA0C00"/>
<path d="M24.8867 0H39.4764V34.4155L24.8867 0Z" fill="#FA0C00"/>
<path d="M19.7473 12.6843L29.0455 34.4155H22.945L20.166 27.4967H13.3613L19.7473 12.6843Z" fill="#FA0C00"/>
<path d="M63.3107 21.8858L65.0335 26.7515C65.0905 26.8734 65.1762 26.9296 65.3285 26.9296H68.6403C68.8213 26.9296 68.8498 26.8451 68.8213 26.667L61.9785 7.94522C61.9498 7.79522 61.9212 7.76709 61.769 7.76709H57.6576C57.5436 7.76709 57.4768 7.85145 57.4768 7.97335C57.4198 8.95771 57.3341 9.25771 57.2103 9.54835L51.1099 26.6389C51.0814 26.8451 51.1481 26.9296 51.3194 26.9296H54.2791C54.4599 26.9296 54.5456 26.8734 54.6122 26.6951L56.2396 21.8858H63.3107ZM57.1818 18.7077C58.0764 16.0452 59.2566 12.6327 59.7324 10.6827H59.7609C60.351 12.7264 61.7405 16.7764 62.3686 18.7077H57.1818Z" fill="#FA0C00"/>
<path d="M77.6166 27.2203C79.3964 27.2203 81.2902 26.9016 83.2127 26.0858C83.365 26.0297 83.3935 25.9642 83.3935 25.8235C83.3365 25.2984 83.2697 24.539 83.2697 23.9578V6.33281C83.2697 6.22032 83.2697 6.16406 83.127 6.16406H79.9007C79.777 6.16406 79.72 6.22032 79.72 6.37032V12.3422C79.2156 12.2859 78.8633 12.2578 78.4448 12.2578C73.2387 12.2578 70.041 15.6422 70.041 19.8703C70.041 24.7735 73.3245 27.2203 77.6166 27.2203ZM79.72 23.9578C79.1869 24.1265 78.597 24.1922 77.9974 24.1922C75.6371 24.1922 73.7051 22.8797 73.7051 19.6922C73.7051 16.8703 75.6941 15.2016 78.3305 15.2016C78.8633 15.2016 79.3296 15.2578 79.72 15.4078V23.9578Z" fill="#FA0C00"/>
<path d="M93.687 12.2578C89.2426 12.2578 86.4922 15.6141 86.4922 19.7578C86.4922 23.4609 88.681 27.2203 93.6205 27.2203C97.7984 27.2203 100.73 24.1922 100.73 19.6641C100.73 15.6703 98.2457 12.2578 93.687 12.2578ZM93.5062 15.2016C96.0186 15.2016 97.0845 17.3297 97.0845 19.7578C97.0845 22.7578 95.5143 24.2484 93.687 24.2484C91.4314 24.2484 90.0992 22.3828 90.0992 19.6922C90.0992 16.9266 91.5172 15.2016 93.5062 15.2016Z" fill="#FA0C00"/>
<path d="M104.065 6.16406C103.941 6.16406 103.855 6.22032 103.855 6.37032V26.3203C103.855 26.4048 103.941 26.5548 104.065 26.5829C105.483 27.0142 106.968 27.2203 108.5 27.2203C112.887 27.2203 117.151 24.539 117.151 19.1391C117.151 15.2297 114.429 12.2578 110.165 12.2578C109.185 12.2578 108.271 12.4078 107.472 12.6703L107.434 6.39845C107.434 6.19219 107.377 6.16406 107.167 6.16406H104.065ZM113.506 19.4953C113.506 22.7297 111.26 24.2484 108.833 24.2484C108.329 24.2484 107.881 24.2203 107.472 24.0984V15.5859C107.938 15.4078 108.5 15.2578 109.537 15.2578C111.878 15.2578 113.506 16.7203 113.506 19.4953Z" fill="#FA0C00"/>
<path d="M129.192 20.5453C130.639 20.5453 131.828 20.5172 132.238 20.4234C132.39 20.3953 132.447 20.3391 132.475 20.2172C132.561 19.8985 132.599 19.2328 132.599 18.4172C132.599 15.6422 130.905 12.2578 126.527 12.2578C122.054 12.2578 119.57 15.8484 119.57 19.8984C119.57 23.4891 121.493 27.2203 126.879 27.2203C128.897 27.2203 130.201 26.9016 131.324 26.3765C131.438 26.3203 131.495 26.2265 131.495 26.0578V23.6297C131.495 23.4891 131.41 23.4609 131.324 23.5172C130.201 23.9859 128.983 24.2203 127.651 24.2203C124.634 24.2203 123.263 22.5797 123.177 20.5453H129.192ZM123.177 18.0328C123.415 16.6078 124.329 15.0609 126.375 15.0609C128.631 15.0609 129.221 16.9266 129.221 17.7703C129.221 17.7984 129.221 17.9203 129.221 18.0047C129.097 18.0328 128.716 18.0328 127.593 18.0328H123.177Z" fill="#FA0C00"/>
</svg>
