<svg width="41" height="40" viewBox="0 0 41 40" fill="none" xmlns="http://www.w3.org/2000/svg">
<path d="M34.7662 14.6364V13.8242C35.8026 13.5818 36.5844 12.6545 36.5844 11.5454C36.5844 10.2606 35.5298 9.20605 34.2389 9.20605C32.9541 9.20605 31.8995 10.2606 31.8995 11.5454C31.8995 12.6121 32.6147 13.503 33.5904 13.7818V14.6364C33.5904 15.2182 33.1116 15.697 32.5298 15.697H25.9844V16.8727H32.5298C33.7601 16.8727 34.7662 15.8667 34.7662 14.6364Z" fill="currentColor"/>
<path d="M30.2995 9.15129V8.33917C31.3359 8.09675 32.1177 7.16947 32.1177 6.06038C32.1177 4.77554 31.0632 3.72705 29.7723 3.72705C28.4874 3.72705 27.4329 4.77554 27.4329 6.06038C27.4329 7.12705 28.148 8.01796 29.1238 8.29675V9.15129C29.1238 9.73311 28.645 10.2119 28.0632 10.2119H25.9844V11.3877H28.0632C29.2935 11.3877 30.2995 10.3816 30.2995 9.15129Z" fill="currentColor"/>
<path d="M34.7601 29.3632V28.5511C34.7601 27.3208 33.7541 26.3208 32.5298 26.3208H25.9844V27.4966H32.5298C33.1116 27.4966 33.5904 27.9753 33.5904 28.5572V29.4117C32.6147 29.6966 31.8995 30.5875 31.8995 31.6481C31.8995 32.9329 32.9541 33.9875 34.2389 33.9875C35.5298 33.9875 36.5844 32.9329 36.5844 31.6481C36.5723 30.5329 35.7904 29.6056 34.7601 29.3632Z" fill="currentColor"/>
<path d="M29.3056 33.2788V32.4666C29.3056 31.2303 28.3056 30.2363 27.0753 30.2363H25.9844V31.4121H27.0753C27.6571 31.4121 28.1359 31.8848 28.1359 32.4727V33.3212C27.1662 33.6121 26.451 34.4969 26.451 35.5636C26.451 36.8485 27.4995 37.8969 28.7844 37.8969C30.0753 37.8969 31.1298 36.8485 31.1298 35.5636C31.1177 34.4485 30.342 33.5212 29.3056 33.2788Z" fill="currentColor"/>
<path d="M34.1662 23.9332C35.4571 23.9332 36.5116 22.8786 36.5116 21.5877C36.5116 20.3029 35.4571 19.2544 34.1662 19.2544C33.0874 19.2544 32.1723 19.9998 31.9177 21.0059H25.9844V22.1817H31.9177C32.1783 23.1877 33.0813 23.9332 34.1662 23.9332Z" fill="currentColor"/>
<path d="M19.6851 2.10889C16.8851 2.10889 14.6124 4.38161 14.6124 7.2301C14.6124 7.52101 14.6608 7.81192 14.7093 8.09677C14.176 7.90283 13.6002 7.80586 12.9699 7.80586C10.1699 7.80586 7.89721 10.0786 7.89721 12.9271C7.89721 13.2301 7.92751 13.521 7.98205 13.8119C7.98812 13.818 8.00024 13.824 8.0063 13.8301C8.8669 14.7392 10.0366 15.2362 11.2972 15.2362C11.6245 15.2362 11.8851 15.4968 11.8851 15.824C11.8851 16.1513 11.6245 16.4119 11.2972 16.4119C9.98812 16.4119 8.75781 15.9756 7.75175 15.1816C5.98205 15.9695 4.75781 17.7392 4.75781 19.7937C4.75781 22.1634 6.40024 24.1877 8.62448 24.721C8.13963 25.4968 7.89721 26.3634 7.89721 27.3271C7.89721 30.0786 10.1699 32.3998 12.9699 32.3998C13.2245 32.3998 13.479 32.3756 13.7336 32.3392C14.3214 30.5574 15.7457 29.1877 17.5578 28.6846C16.8366 27.9937 16.3033 27.1089 16.0305 26.1149C15.5033 26.5513 14.8608 26.8665 14.1336 27.0059C14.0972 27.0119 14.0608 27.018 14.0245 27.018C13.7457 27.018 13.5033 26.824 13.4487 26.5392C13.3881 26.218 13.5942 25.9149 13.9154 25.8483C14.7457 25.6907 15.4245 25.2059 15.8608 24.5574C15.8851 24.4665 15.9275 24.3877 15.9942 24.321C16.3154 23.7392 16.4548 23.0483 16.3336 22.3271C16.279 22.0059 16.4972 21.7028 16.8184 21.6483C17.1396 21.5937 17.4427 21.8119 17.4972 22.1331C17.6669 23.1392 17.479 24.1089 17.0245 24.9271C17.1881 27.2725 19.1275 29.0786 21.5275 29.0786C21.8548 29.0786 22.1154 29.3392 22.1154 29.6665C22.1154 29.9937 21.8548 30.2543 21.5275 30.2543C20.5942 30.2543 19.7154 30.0362 18.9396 29.6483C16.8063 29.721 15.0911 31.2543 14.7033 33.2907C15.1275 35.6665 17.1942 37.4725 19.6911 37.4725C22.4911 37.4725 24.8124 35.1998 24.8124 32.3998V19.4543C24.6669 19.4665 24.5214 19.4846 24.3821 19.4846C23.6063 19.4846 22.8427 19.2786 22.1518 18.8846C21.3396 18.4119 20.7093 17.7089 20.3275 16.8604C19.6487 17.2543 18.8851 17.4604 18.0851 17.4604C18.0063 17.4604 17.9275 17.4604 17.8487 17.4543C17.5214 17.4362 17.273 17.1634 17.2911 16.8362C17.3093 16.5089 17.5881 16.2665 17.9093 16.2786C18.7881 16.321 19.6366 16.024 20.2911 15.4422C20.9518 14.8543 21.3396 14.0362 21.3821 13.1453C21.4002 12.818 21.6851 12.5695 22.0002 12.5877C22.3214 12.6059 22.576 12.8786 22.5578 13.2059C22.5033 14.3089 22.0548 15.321 21.3033 16.0968C21.5639 16.8422 22.0608 17.4665 22.7457 17.8604C23.376 18.224 24.0972 18.3574 24.8184 18.2604V7.2301C24.8063 4.37555 22.4851 2.10889 19.6851 2.10889Z" fill="currentColor"/>
</svg>
