<svg width="41" height="40" viewBox="0 0 41 40" fill="none" xmlns="http://www.w3.org/2000/svg">
<g clip-path="url(#clip0_1539_38152)">
<path d="M36.9718 18.1365C36.0517 18.1365 35.3052 17.39 35.3052 16.4699C35.3052 11.7949 33.4851 7.40163 30.1801 4.09474C29.5285 3.44319 29.5285 2.39003 30.1801 1.73817C30.8316 1.08662 31.8851 1.08662 32.5366 1.73817C36.4719 5.67311 38.6383 10.905 38.6383 16.4699C38.6383 17.39 37.8919 18.1365 36.9718 18.1365Z" fill="currentColor"/>
<path d="M3.63922 18.1365C2.71942 18.1365 1.97266 17.39 1.97266 16.4699C1.97266 10.905 4.1394 5.67311 8.07434 1.73817C8.72589 1.08662 9.77936 1.08662 10.4309 1.73817C11.0828 2.39003 11.0828 3.44319 10.4309 4.09474C7.12585 7.3998 5.30609 11.7949 5.30609 16.4699C5.30609 17.39 4.55933 18.1365 3.63922 18.1365Z" fill="currentColor"/>
<path d="M35.9392 28.1885C33.4191 26.0583 31.9741 22.9449 31.9741 19.6466V15C31.9741 9.13513 27.6174 4.28009 21.9741 3.4668V1.66656C21.9741 0.744934 21.2273 0 20.3075 0C19.3874 0 18.6406 0.744934 18.6406 1.66656V3.4668C12.9958 4.28009 8.64062 9.13513 8.64062 15V19.6466C8.64062 22.9449 7.19562 26.0583 4.66083 28.2016C4.01233 28.7567 3.64062 29.5633 3.64062 30.4166C3.64062 32.0251 4.94891 33.3334 6.5575 33.3334H34.0575C35.6658 33.3334 36.9741 32.0251 36.9741 30.4166C36.9741 29.5633 36.6024 28.7567 35.9392 28.1885Z" fill="currentColor"/>
<path d="M20.3069 40C23.3251 40 25.8502 37.8482 26.4303 35H14.1836C14.7634 37.8482 17.2885 40 20.3069 40Z" fill="currentColor"/>
</g>
<defs>
<clipPath id="clip0_1539_38152">
<rect width="40" height="40" fill="currentColor" transform="translate(0.332031)"/>
</clipPath>
</defs>
</svg>
