<svg width="40" height="40" viewBox="0 0 40 40" fill="none" xmlns="http://www.w3.org/2000/svg">
<g clip-path="url(#clip0_1539_45626)">
<path d="M10.0767 8.06247L13.5454 9.96091C13.9908 10.2031 14.1548 10.7578 13.9126 11.2031C13.8267 11.3593 13.7017 11.4843 13.5454 11.5703L10.0767 13.4609C9.92044 13.5468 9.79544 13.6718 9.7095 13.8281L7.81107 17.2968C7.56888 17.7422 7.01419 17.9062 6.56888 17.664C6.41263 17.5781 6.28763 17.4531 6.20169 17.2968L4.31107 13.8281C4.22513 13.6718 4.10013 13.5468 3.94388 13.4609L0.475129 11.5703C0.0298162 11.3281 -0.134246 10.7734 0.107941 10.3281C0.193879 10.1718 0.318879 10.0468 0.475129 9.96091L3.94388 8.06247C4.10013 7.97653 4.22513 7.85153 4.31107 7.69528L6.2095 4.23434C6.45169 3.78903 7.01419 3.62497 7.4595 3.87497C7.60794 3.96091 7.73294 4.08591 7.81888 4.23434L9.71732 7.69528C9.79544 7.85153 9.92044 7.97653 10.0767 8.06247Z" fill="currentColor"/>
<path d="M35.897 26.5782L39.3658 28.4766C39.8111 28.7188 39.9751 29.2735 39.7329 29.7188C39.647 29.875 39.522 30 39.3658 30.086L35.897 31.9844C35.7408 32.0703 35.6158 32.1953 35.5298 32.3516L33.6314 35.8203C33.3892 36.2657 32.8267 36.4297 32.3814 36.1875C32.2251 36.1016 32.1001 35.9766 32.0142 35.8203L30.1314 32.3438C30.0454 32.1875 29.9204 32.0625 29.7642 31.9766L26.2954 30.0782C25.8501 29.836 25.6861 29.2735 25.9283 28.8282C26.0142 28.6719 26.1392 28.5469 26.2954 28.461L29.7642 26.5625C29.9204 26.4766 30.0454 26.3516 30.1314 26.1953L32.0298 22.7344C32.272 22.2891 32.8345 22.125 33.2798 22.3672C33.4361 22.4532 33.5611 22.5782 33.647 22.7344L35.5454 26.2032C35.6158 26.3672 35.7408 26.4922 35.897 26.5782Z" fill="currentColor"/>
<path d="M20.8799 4.09375L23.1533 5.33594C23.4424 5.5 23.5518 5.86719 23.3955 6.15625C23.3408 6.25782 23.2549 6.33594 23.1533 6.39844L20.8799 7.64063C20.7783 7.69532 20.6924 7.78125 20.6377 7.88282L19.3955 10.1563C19.2314 10.4453 18.8643 10.5547 18.5752 10.3984C18.4736 10.3438 18.3955 10.2578 18.333 10.1563L17.0908 7.88282C17.0361 7.78125 16.9502 7.69532 16.8486 7.64063L14.5752 6.39844C14.2861 6.24219 14.1768 5.875 14.333 5.57813C14.3877 5.47657 14.4736 5.39063 14.5752 5.33594L16.8486 4.09375C16.9502 4.03907 17.0361 3.95313 17.0908 3.85157L18.333 1.57813C18.4971 1.28907 18.8643 1.17969 19.1533 1.33594C19.2549 1.39063 19.333 1.47657 19.3955 1.57813L20.6377 3.85157C20.6924 3.95313 20.7783 4.03907 20.8799 4.09375Z" fill="currentColor"/>
<path d="M39.1084 5.13282L35.8975 1.92188C34.71 0.734385 32.7803 0.726572 31.585 1.91407C31.585 1.91407 31.585 1.91407 31.5772 1.92188L2.95215 30.5547C1.76465 31.7422 1.75684 33.6719 2.95215 34.8672L6.16309 38.0781C7.35059 39.2656 9.28028 39.2734 10.4756 38.0781L39.1084 9.44532C40.2959 8.25782 40.2959 6.32814 39.1084 5.13282ZM27.9443 15.9609L25.0693 13.0859L33.5459 4.60157L36.4209 7.47657L27.9443 15.9609Z" fill="currentColor"/>
</g>
<defs>
<clipPath id="clip0_1539_45626">
<rect width="40" height="40" fill="currentColor"/>
</clipPath>
</defs>
</svg>
