<svg width="40" height="40" viewBox="0 0 40 40" fill="none" xmlns="http://www.w3.org/2000/svg">
<path d="M16.36 13.7099C15.86 13.4299 15.24 13.4199 14.71 13.6699L12.32 14.8599H11C10.31 14.8599 9.75 15.4199 9.75 16.1099V20.1099C9.75 20.7999 10.31 21.3599 11 21.3599H12.32L14.72 22.5599C14.97 22.6799 15.24 22.7399 15.5 22.7399C15.82 22.7399 16.14 22.6499 16.43 22.4699C16.95 22.1499 17.25 21.5999 17.25 20.9899V15.2199C17.25 14.5999 16.92 14.0199 16.36 13.6899V13.7099Z" fill="currentColor"/>
<path d="M21.0003 21.8699C20.8403 21.8699 20.6903 21.8199 20.5503 21.7199C20.2203 21.4699 20.1503 20.9999 20.4003 20.6699C20.9603 19.9299 21.2503 19.0499 21.2503 18.1199C21.2503 17.1899 20.9603 16.3099 20.4003 15.5699C20.1503 15.2399 20.2203 14.7699 20.5503 14.5199C20.8803 14.2699 21.3503 14.3399 21.6003 14.6699C22.3503 15.6699 22.7503 16.8699 22.7503 18.1199C22.7503 19.3699 22.3503 20.5699 21.6003 21.5699C21.4503 21.7699 21.2303 21.8699 21.0003 21.8699Z" fill="currentColor"/>
<path d="M18.7812 20.36C18.5712 20.36 18.3712 20.27 18.2212 20.11C17.9512 19.8 17.9712 19.33 18.2812 19.05C18.5912 18.77 18.5412 18.76 18.5412 18.12C18.5412 17.48 18.2412 17.14 18.2312 17.12C17.9512 16.82 17.9612 16.35 18.2512 16.07C18.5412 15.79 19.0012 15.78 19.2912 16.06C19.3712 16.14 20.0512 16.83 20.0512 18.12C20.0512 19.41 19.3612 20.1 19.2812 20.17C19.1412 20.3 18.9612 20.36 18.7812 20.36Z" fill="currentColor"/>
<path d="M8.75 20.12V16.12C8.75 14.88 9.76 13.87 11 13.87H12.09L14.27 12.78C15.07 12.39 15.98 12.41 16.75 12.8V6C16.75 5.8 16.67 5.61 16.53 5.47L12.53 1.47C12.39 1.33 12.2 1.25 12 1.25H3.5C2.26 1.25 1.25 2.26 1.25 3.5V18.5C1.25 19.74 2.26 20.75 3.5 20.75H8.85C8.79 20.55 8.75 20.34 8.75 20.12ZM11.75 2.81L15.19 6.25H12C11.86 6.25 11.75 6.14 11.75 6V2.81ZM5 6.25H8C8.41 6.25 8.75 6.59 8.75 7C8.75 7.41 8.41 7.75 8 7.75H5C4.59 7.75 4.25 7.41 4.25 7C4.25 6.59 4.59 6.25 5 6.25ZM5 10.25H13C13.41 10.25 13.75 10.59 13.75 11C13.75 11.41 13.41 11.75 13 11.75H5C4.59 11.75 4.25 11.41 4.25 11C4.25 10.59 4.59 10.25 5 10.25ZM8 15.75H5C4.59 15.75 4.25 15.41 4.25 15C4.25 14.59 4.59 14.25 5 14.25H8C8.41 14.25 8.75 14.59 8.75 15C8.75 15.41 8.41 15.75 8 15.75Z" fill="currentColor"/>
</svg>
