<svg width="105" height="30" viewBox="0 0 105 30" fill="none" xmlns="http://www.w3.org/2000/svg">
<g clip-path="url(#clip0_973_47059)">
<path d="M0.198676 -0.000462984H26.7945C26.828 -0.000992691 26.861 0.00680421 26.8904 0.0221841C26.9199 0.0375641 26.9447 0.0600134 26.9626 0.0873911C26.9807 0.114769 26.9911 0.146162 26.993 0.178572C26.9949 0.210984 26.9883 0.243334 26.9736 0.272536C24.6809 4.77023 21.2248 8.61233 16.9442 11.4225C10.0296 15.9546 3.06662 16.4226 0.200735 16.4475C0.174571 16.448 0.14856 16.4436 0.124229 16.4342C0.099896 16.4249 0.0777314 16.4108 0.0590353 16.3931C0.0403394 16.3753 0.0254884 16.3541 0.015351 16.3305C0.00521356 16.3071 -5.73487e-06 16.2819 4.72867e-09 16.2565V0.190538C-1.4204e-06 0.165286 0.0051515 0.140284 0.015161 0.116979C0.0251705 0.0936749 0.0398381 0.0725301 0.0583144 0.0547677C0.0767907 0.0370053 0.0987089 0.022979 0.122802 0.0134988C0.146895 0.00401861 0.172683 -0.000727399 0.198676 -0.000462984Z" fill="#FF6250"/>
<path d="M5.93868 29.9992C9.21852 29.9992 11.8774 27.4163 11.8774 24.2302C11.8774 21.0441 9.21852 18.4612 5.93868 18.4612C2.65883 18.4612 0 21.0441 0 24.2302C0 27.4163 2.65883 29.9992 5.93868 29.9992Z" fill="#FFDF90"/>
<path d="M18.0781 29.6574C16.3981 29.0344 15.5045 27.2385 16.0739 25.6485L20.5569 13.2204C21.1313 11.6304 22.9585 10.8474 24.6385 11.4704C26.3185 12.0945 27.212 13.8894 26.6428 15.4804L22.1597 27.9084C21.5853 29.4984 19.7581 30.2824 18.0781 29.6574Z" fill="#3366FF"/>
<path d="M41.9848 21.9863C40.9245 21.9863 39.9942 21.7443 39.194 21.2603C38.3802 20.7593 37.7359 20.037 37.3411 19.1833C36.9047 18.2833 36.6875 17.2259 36.6895 16.0113C36.6916 14.7966 36.9132 13.7316 37.3545 12.8163C37.7563 11.9483 38.4031 11.2088 39.2198 10.6833C40.0439 10.1684 41.0071 9.90313 41.9869 9.92128C43.0472 9.92128 43.9541 10.1709 44.7076 10.6703C45.4612 11.1696 45.971 11.8816 46.2373 12.8063L45.9532 12.9903V10.1983H48.328V21.8292H45.9542V18.9903L46.2383 19.1063C45.9686 20.029 45.4583 20.74 44.7076 21.2393C43.9568 21.7386 43.0493 21.9876 41.9848 21.9863ZM42.554 20.1403C43.6322 20.1403 44.4674 19.7787 45.0597 19.0553C45.6519 18.3319 45.9484 17.3013 45.9491 15.9633C45.9491 14.6253 45.6526 13.5946 45.0597 12.8713C44.4668 12.148 43.6314 11.7863 42.554 11.7863C41.4621 11.7863 40.6109 12.1589 40.0001 12.9042C39.3893 13.6497 39.0846 14.683 39.0859 16.0043C39.0859 17.3283 39.3907 18.3479 40.0001 19.0632C40.6095 19.7787 41.4608 20.1376 42.554 20.1403Z" fill="currentColor"/>
<path d="M51.8183 21.8239V13.4699C51.8183 12.9308 51.808 12.3848 51.7823 11.8309C51.7565 11.2769 51.7061 10.7309 51.6289 10.1929H53.909L54.1232 12.5468L53.8854 12.6848C54.2333 11.7769 54.7913 11.0889 55.5592 10.6209C56.3543 10.1455 57.2735 9.90244 58.2068 9.9209C61.0727 9.9209 62.506 11.4826 62.5067 14.6059V21.829H60.1071V14.6948C60.1071 13.6949 59.9013 12.9642 59.4895 12.5029C59.0777 12.0415 58.4443 11.8106 57.5892 11.8099C56.5598 11.8099 55.7407 12.1176 55.132 12.7328C54.5233 13.3482 54.2186 14.1715 54.2178 15.2029V21.826H51.8183V21.8239Z" fill="currentColor"/>
<path d="M65.7402 5.11694H68.5195V7.56294H65.7402V5.11694ZM65.9059 21.825V10.1939H68.3054V21.825H65.9059Z" fill="currentColor"/>
<path d="M71.7987 21.8247V13.4707C71.7987 12.9317 71.7884 12.3857 71.7648 11.8317C71.7412 11.2835 71.6893 10.7368 71.6094 10.1937H73.8895L74.1036 12.5477L73.8658 12.6397C74.165 11.7777 74.6639 11.1084 75.3626 10.6317C76.0611 10.155 76.8926 9.9167 77.8568 9.9167C78.9967 9.9167 79.8888 10.1894 80.5333 10.7347C81.1777 11.28 81.5919 12.121 81.7757 13.2577L81.2065 12.8657C81.4506 11.9924 82.0012 11.2294 82.763 10.7087C83.5323 10.1754 84.4385 9.90869 85.4816 9.90869C86.8124 9.90869 87.8101 10.2967 88.4752 11.0727C89.1402 11.8487 89.4727 13.0213 89.4727 14.5907V21.8147H87.0741V14.6917C87.0741 13.6917 86.894 12.9607 86.5399 12.4987C86.1857 12.0367 85.6134 11.8067 84.8166 11.8067C83.8991 11.8067 83.1751 12.1144 82.6446 12.7297C82.1141 13.345 81.8485 14.1837 81.8479 15.2457V21.8227H79.4483V14.6917C79.4483 13.6917 79.2661 12.9607 78.9017 12.4987C78.5373 12.0367 77.9673 11.806 77.1918 11.8067C76.2564 11.8067 75.5241 12.1144 74.9951 12.7297C74.4659 13.345 74.2003 14.1837 74.1983 15.2457V21.8227H71.7987V21.8247Z" fill="currentColor"/>
<path d="M97.526 21.9858C96.4656 21.9858 95.5358 21.7438 94.7362 21.2598C93.9223 20.7588 93.278 20.0366 92.8832 19.1828C92.4468 18.2828 92.2285 17.2255 92.2285 16.0108C92.2285 14.7961 92.4502 13.7311 92.8936 12.8158C93.2959 11.9485 93.9421 11.2092 94.7578 10.6828C95.5822 10.1677 96.5459 9.90247 97.526 9.92081C98.5868 9.92081 99.4934 10.1705 100.246 10.6698C100.998 11.1691 101.508 11.8812 101.776 12.8058L101.491 12.9898V10.1978H103.867V21.8288H101.491V18.9898L101.776 19.1058C101.507 20.0285 100.996 20.7395 100.246 21.2388C99.4949 21.7381 98.5883 21.9871 97.526 21.9858ZM98.0942 20.1398C99.1722 20.1398 100.008 19.7782 100.602 19.0548C101.195 18.3314 101.492 17.3008 101.491 15.9628C101.491 14.6248 101.195 13.5942 100.602 12.8708C100.009 12.1475 99.173 11.7858 98.0942 11.7858C97.0023 11.7858 96.1506 12.1585 95.5391 12.9038C94.9276 13.6492 94.6233 14.6825 94.6261 16.0038C94.6261 17.3278 94.9305 18.3475 95.5391 19.0628C96.1479 19.7782 96.9996 20.1372 98.0942 20.1398Z" fill="currentColor"/>
</g>
<defs>
<clipPath id="clip0_973_47059">
<rect width="105" height="30" fill="currentColor"/>
</clipPath>
</defs>
</svg>
