<svg width="40" height="40" viewBox="0 0 40 40" fill="none" xmlns="http://www.w3.org/2000/svg">
<path d="M32.2205 7.80355C32.2193 6.74727 31.7991 5.73461 31.0521 4.98782C30.3051 4.24102 29.2923 3.8211 28.236 3.82022H26.8038V2.22244C26.8038 1.92775 26.6868 1.64514 26.4784 1.43676C26.27 1.22839 25.9874 1.11133 25.6927 1.11133C25.398 1.11133 25.1154 1.22839 24.907 1.43676C24.6987 1.64514 24.5816 1.92775 24.5816 2.22244V3.82022H17.776V2.22244C17.776 1.92775 17.659 1.64514 17.4506 1.43676C17.2422 1.22839 16.9596 1.11133 16.6649 1.11133C16.3702 1.11133 16.0876 1.22839 15.8793 1.43676C15.6709 1.64514 15.5538 1.92775 15.5538 2.22244V3.82022H8.74827V2.22244C8.74827 1.92775 8.6312 1.64514 8.42283 1.43676C8.21445 1.22839 7.93184 1.11133 7.63715 1.11133C7.34247 1.11133 7.05985 1.22839 6.85148 1.43676C6.64311 1.64514 6.52604 1.92775 6.52604 2.22244V3.82022H5.09382C4.03754 3.8211 3.02476 4.24102 2.27776 4.98782C1.53075 5.73461 1.11055 6.74727 1.10938 7.80355V10.0002H32.2205V7.80355Z" fill="currentColor"/>
<path d="M31.1094 21.1115C31.4807 21.1126 31.8516 21.1345 32.2205 21.1771V12.2227H1.10938V27.0438C1.11084 28.1222 1.53989 29.156 2.30242 29.9185C3.06496 30.681 4.09876 31.1101 5.17715 31.1115H21.1094C21.1126 28.4604 22.1672 25.9187 24.0419 24.044C25.9165 22.1694 28.4582 21.1148 31.1094 21.1115ZM11.1094 24.9315C11.1094 25.0135 11.0932 25.0947 11.0618 25.1705C11.0305 25.2463 10.9845 25.3151 10.9265 25.3731C10.8685 25.4311 10.7997 25.4771 10.7239 25.5085C10.6481 25.5398 10.5669 25.556 10.4849 25.556H8.40049C8.31848 25.556 8.23728 25.5398 8.16152 25.5085C8.08576 25.4771 8.01692 25.4311 7.95894 25.3731C7.90095 25.3151 7.85496 25.2463 7.82358 25.1705C7.79219 25.0947 7.77604 25.0135 7.77604 24.9315V22.8471C7.77604 22.7651 7.79219 22.6839 7.82358 22.6081C7.85496 22.5324 7.90095 22.4635 7.95894 22.4056C8.01692 22.3476 8.08576 22.3016 8.16152 22.2702C8.23728 22.2388 8.31848 22.2227 8.40049 22.2227H10.4849C10.5669 22.2227 10.6481 22.2388 10.7239 22.2702C10.7997 22.3016 10.8685 22.3476 10.9265 22.4056C10.9845 22.4635 11.0305 22.5324 11.0618 22.6081C11.0932 22.6839 11.1094 22.7651 11.1094 22.8471V24.9315ZM11.1094 18.2649C11.1094 18.4305 11.0436 18.5893 10.9265 18.7064C10.8094 18.8235 10.6505 18.8893 10.4849 18.8893H8.40049C8.23487 18.8893 8.07604 18.8235 7.95894 18.7064C7.84183 18.5893 7.77604 18.4305 7.77604 18.2649V16.1804C7.77604 16.0148 7.84183 15.856 7.95894 15.7389C8.07604 15.6218 8.23487 15.556 8.40049 15.556H10.4849C10.6505 15.556 10.8094 15.6218 10.9265 15.7389C11.0436 15.856 11.1094 16.0148 11.1094 16.1804V18.2649ZM17.776 24.9315C17.776 25.0135 17.7599 25.0947 17.7285 25.1705C17.6971 25.2463 17.6511 25.3151 17.5931 25.3731C17.5352 25.4311 17.4663 25.4771 17.3906 25.5085C17.3148 25.5398 17.2336 25.556 17.1516 25.556H15.0672C14.9852 25.556 14.904 25.5398 14.8282 25.5085C14.7524 25.4771 14.6836 25.4311 14.6256 25.3731C14.5676 25.3151 14.5216 25.2463 14.4902 25.1705C14.4589 25.0947 14.4427 25.0135 14.4427 24.9315V22.8471C14.4427 22.7651 14.4589 22.6839 14.4902 22.6081C14.5216 22.5324 14.5676 22.4635 14.6256 22.4056C14.6836 22.3476 14.7524 22.3016 14.8282 22.2702C14.904 22.2388 14.9852 22.2227 15.0672 22.2227H17.1516C17.2336 22.2227 17.3148 22.2388 17.3906 22.2702C17.4663 22.3016 17.5352 22.3476 17.5931 22.4056C17.6511 22.4635 17.6971 22.5324 17.7285 22.6081C17.7599 22.6839 17.776 22.7651 17.776 22.8471V24.9315ZM17.776 18.2649C17.776 18.4305 17.7103 18.5893 17.5931 18.7064C17.476 18.8235 17.3172 18.8893 17.1516 18.8893H15.0672C14.9015 18.8893 14.7427 18.8235 14.6256 18.7064C14.5085 18.5893 14.4427 18.4305 14.4427 18.2649V16.1804C14.4427 16.0148 14.5085 15.856 14.6256 15.7389C14.7427 15.6218 14.9015 15.556 15.0672 15.556H17.1516C17.3172 15.556 17.476 15.6218 17.5931 15.7389C17.7103 15.856 17.776 16.0148 17.776 16.1804V18.2649ZM21.7338 18.8893C21.5682 18.8893 21.4094 18.8235 21.2923 18.7064C21.1752 18.5893 21.1094 18.4305 21.1094 18.2649V16.1804C21.1094 16.0148 21.1752 15.856 21.2923 15.7389C21.4094 15.6218 21.5682 15.556 21.7338 15.556H23.8183C23.9839 15.556 24.1427 15.6218 24.2598 15.7389C24.3769 15.856 24.4427 16.0148 24.4427 16.1804V18.2649C24.4427 18.4305 24.3769 18.5893 24.2598 18.7064C24.1427 18.8235 23.9839 18.8893 23.8183 18.8893H21.7338Z" fill="currentColor"/>
<path d="M31.1098 23.3335C29.5715 23.3335 28.0678 23.7897 26.7887 24.6443C25.5097 25.4989 24.5128 26.7136 23.9241 28.1348C23.3354 29.5561 23.1814 31.1199 23.4815 32.6286C23.7816 34.1374 24.5224 35.5233 25.6101 36.611C26.6978 37.6987 28.0837 38.4395 29.5924 38.7396C31.1012 39.0397 32.665 38.8857 34.0862 38.297C35.5074 37.7083 36.7222 36.7114 37.5768 35.4324C38.4314 34.1533 38.8876 32.6496 38.8876 31.1113C38.8852 29.0492 38.065 27.0723 36.6069 25.6142C35.1488 24.156 33.1719 23.3358 31.1098 23.3335ZM34.1176 34.1191C33.9092 34.3274 33.6267 34.4444 33.332 34.4444C33.0374 34.4444 32.7548 34.3274 32.5465 34.1191L30.3243 31.8968C30.1159 31.6885 29.9988 31.4059 29.9987 31.1113V26.6668C29.9987 26.3721 30.1158 26.0895 30.3241 25.8812C30.5325 25.6728 30.8151 25.5557 31.1098 25.5557C31.4045 25.5557 31.6871 25.6728 31.8955 25.8812C32.1039 26.0895 32.2209 26.3721 32.2209 26.6668V30.6513L34.1176 32.5479C34.3259 32.7563 34.4429 33.0389 34.4429 33.3335C34.4429 33.6281 34.3259 33.9107 34.1176 34.1191Z" fill="currentColor"/>
</svg>
