<svg width="20" height="20" viewBox="0 0 20 20" fill="none" xmlns="http://www.w3.org/2000/svg">
<path d="M17.7778 2.77783H2.22222C1.63285 2.77783 1.06762 3.01196 0.650874 3.42871C0.234126 3.84545 0 4.41068 0 5.00005L0 15.0001C0 15.5894 0.234126 16.1547 0.650874 16.5714C1.06762 16.9882 1.63285 17.2223 2.22222 17.2223H17.7778C18.3671 17.2223 18.9324 16.9882 19.3491 16.5714C19.7659 16.1547 20 15.5894 20 15.0001V5.00005C20 4.41068 19.7659 3.84545 19.3491 3.42871C18.9324 3.01196 18.3671 2.77783 17.7778 2.77783Z" fill="#006C35"/>
<path d="M4.95502 7.80569C5.30613 7.83903 5.11224 7.2118 5.23946 7.09791C5.26335 7.0418 5.3078 7.04125 5.31113 7.11236V7.64458C5.3078 7.81791 5.42169 7.86847 5.51002 7.90458C5.60224 7.89736 5.66335 7.90069 5.69946 7.99014L5.7428 8.91125C5.7428 8.91125 5.95613 8.97236 5.96613 8.39291C5.97669 8.05291 5.89835 7.76847 5.94446 7.70236C5.94613 7.63736 6.02891 7.63347 6.08669 7.66514C6.17835 7.72958 6.21946 7.80958 6.36169 7.77791C6.57891 7.71847 6.70891 7.61291 6.71224 7.44625C6.69946 7.28791 6.68169 7.12958 6.61335 6.97125C6.6228 6.94236 6.57169 6.86791 6.58113 6.83903C6.62002 6.90014 6.67946 6.89514 6.6928 6.83903C6.65613 6.71736 6.59891 6.60069 6.50558 6.55014C6.42891 6.48236 6.31669 6.49625 6.27557 6.63736C6.25669 6.79958 6.33446 6.99291 6.45224 7.15014C6.47724 7.2118 6.5128 7.31403 6.49724 7.40625C6.43446 7.4418 6.37113 7.42736 6.31891 7.3718C6.31891 7.3718 6.14613 7.24236 6.14613 7.21347C6.19224 6.92014 6.15669 6.8868 6.13113 6.80569C6.11335 6.69347 6.06002 6.65736 6.01669 6.58069C5.97335 6.53514 5.91502 6.53514 5.88724 6.58069C5.81058 6.71291 5.84613 6.99736 5.90169 7.12458C5.94113 7.24125 6.00224 7.31514 5.97335 7.31514C5.94946 7.38125 5.90058 7.36569 5.86502 7.28958C5.81391 7.1318 5.80391 6.8968 5.80391 6.79069C5.78835 6.65958 5.77169 6.37903 5.68558 6.30791C5.6328 6.23625 5.55446 6.27069 5.52724 6.3368C5.52169 6.4668 5.52058 6.59736 5.53558 6.71791C5.59446 6.92847 5.61335 7.11403 5.64224 7.33014C5.65002 7.61958 5.47502 7.45569 5.4828 7.31236C5.52335 7.12625 5.5128 6.83291 5.47669 6.75847C5.44835 6.68458 5.41446 6.66569 5.34558 6.67791C5.29113 6.67347 5.15002 6.82791 5.11002 7.08347C5.11002 7.08347 5.07613 7.21514 5.06169 7.33236C5.04224 7.46458 4.95558 7.55791 4.89446 7.31403C4.84169 7.1368 4.80946 6.69958 4.72113 6.8018C4.69558 7.14347 4.66502 7.74458 4.95502 7.80569Z" fill="white"/>
<path d="M5.48334 8.05518C5.19445 8.06073 4.77168 8.43462 4.76001 8.64184C5.06445 8.49518 5.3639 8.35407 5.6739 8.20295C5.6239 8.12795 5.67112 8.06073 5.48334 8.05518Z" fill="white"/>
<path d="M7.07609 9.17551C7.20998 8.7294 7.05442 8.40051 7.1272 8.40217C7.28109 8.56829 7.49664 8.4244 7.54386 8.36662C7.56442 8.33773 7.61497 8.31884 7.65053 8.35662C7.77109 8.44329 7.98331 8.40217 8.0272 8.24995C8.055 8.09707 8.07208 7.94244 8.07831 7.78717C7.97998 7.81773 7.90664 7.83829 7.89998 7.87884L7.87942 8.01106C7.87109 8.05384 7.78609 8.05551 7.78275 8.00106C7.74553 7.83162 7.59109 7.8094 7.49775 8.07217C7.43498 8.12329 7.32164 8.13329 7.30942 8.05717C7.32442 7.88106 7.25331 7.85717 7.11109 7.93995C7.06553 7.59051 7.01942 7.25662 6.97386 6.90717C7.03331 6.90551 7.08775 6.9494 7.14164 6.88162C7.0822 6.69662 6.95664 6.31884 6.8872 6.29162C6.85331 6.25051 6.82442 6.27606 6.78053 6.28662C6.70609 6.31051 6.63664 6.37495 6.65831 6.49995C6.74664 7.03606 6.80442 7.4444 6.8922 7.98051C6.90553 8.04329 6.85331 8.12606 6.78553 8.11773C6.67053 8.03995 6.64164 7.88217 6.44497 7.88884C6.3022 7.89051 6.13942 8.04495 6.11942 8.1944C6.09553 8.31273 6.0872 8.44162 6.11942 8.54551C6.21942 8.66551 6.33997 8.65384 6.44497 8.62662C6.53109 8.59106 6.60275 8.5044 6.63275 8.52495C6.65331 8.54995 6.63775 8.83495 6.22609 9.05384C5.97664 9.16551 5.77831 9.19106 5.67164 8.98773C5.60553 8.86051 5.67664 8.37717 5.51386 8.4894C5.0322 9.73106 6.64164 9.90329 6.82164 8.54051C6.83886 8.4844 6.90664 8.42829 6.91831 8.51995C6.88109 9.7544 5.67331 9.8394 5.46831 9.45106C5.4172 9.3594 5.4022 9.15606 5.3972 9.03384C5.36664 8.79106 5.23942 8.8844 5.21942 9.12495C5.19886 9.25884 5.20442 9.29662 5.20442 9.42495C5.26831 10.4 6.82386 9.98106 7.07609 9.17551ZM6.47609 8.33217C6.46609 8.35106 6.4222 8.34329 6.38997 8.34329C6.35331 8.34162 6.33609 8.33551 6.31386 8.30606C6.30386 8.27273 6.33498 8.24106 6.34886 8.21606C6.36609 8.18662 6.45886 8.15606 6.49164 8.23829C6.49759 8.25391 6.49929 8.27084 6.49655 8.28733C6.49382 8.30383 6.48676 8.3193 6.47609 8.33217Z" fill="white"/>
<path d="M7.55666 7.22726C7.65333 7.19171 8.11166 6.66782 8.11166 6.66782C8.08777 6.64726 8.06666 6.63226 8.04277 6.61171C8.01722 6.58949 8.01999 6.56726 8.04277 6.5456C8.1561 6.47949 8.11999 6.33449 8.06055 6.26838C8.02204 6.24972 7.97974 6.24022 7.93695 6.2406C7.89417 6.24099 7.85205 6.25125 7.81388 6.2706C7.73444 6.34671 7.71555 6.46893 7.77833 6.5456C7.83944 6.57449 7.90055 6.63615 7.85999 6.67004C7.67277 6.87004 7.15944 7.21504 7.21888 7.22726C7.23166 7.24393 7.54666 7.24338 7.55666 7.22726ZM7.8961 6.40449C7.92555 6.39726 7.96333 6.42338 7.9811 6.46226C7.99888 6.50115 7.98944 6.53838 7.96055 6.5456H7.95944C7.93055 6.55282 7.89277 6.52671 7.87499 6.48782C7.85777 6.44838 7.86722 6.41171 7.8961 6.40449ZM4.92333 9.58782C4.84777 9.74171 4.8161 9.63615 4.80944 9.55004C4.80096 9.40542 4.80823 9.26031 4.8311 9.11726C4.84999 8.99504 4.8311 9.03226 4.79222 9.08171C4.62055 9.35504 4.60555 9.76393 4.70055 9.8856C4.75055 9.94338 4.83333 9.96893 4.89499 9.95004C5.00277 9.90338 5.04999 9.68449 5.02444 9.60504C4.98777 9.54893 4.95944 9.54004 4.92333 9.58782ZM10.5794 6.69449C10.7772 6.96004 10.965 7.2306 11.1489 7.50615C11.1852 7.7443 11.2111 7.97893 11.2267 8.21004C11.2572 8.65671 11.2661 9.14004 11.2383 9.6106C11.3217 9.61393 11.4567 9.47504 11.5033 9.27226C11.5339 8.99171 11.4922 8.49226 11.4894 8.32671C11.4858 8.22295 11.4808 8.11923 11.4744 8.0156C11.6933 8.37338 11.9067 8.74782 12.115 9.16393C12.1911 9.12838 12.1744 8.70282 12.13 8.64282C11.9633 8.2856 11.7339 7.93226 11.6605 7.79671C11.6333 7.74671 11.5405 7.60449 11.43 7.44171C11.4201 7.31183 11.4046 7.18244 11.3833 7.05393C11.3489 6.81615 11.4817 7.08004 11.4633 6.94171C11.4205 6.70393 11.2883 6.54338 11.1339 6.3256C11.0839 6.25504 11.0855 6.2406 11.0083 6.34282C10.9816 6.40423 10.969 6.47089 10.9717 6.53782C10.9473 6.50258 10.9215 6.4683 10.8944 6.43504L10.6417 6.21949C10.5855 6.17949 10.4489 6.10726 10.4244 6.22726C10.4137 6.3114 10.4178 6.39678 10.4367 6.47949C10.4511 6.53893 10.5372 6.63782 10.5794 6.69449ZM10.9905 6.68115C11.0011 6.72726 11.0122 6.77338 11.0194 6.8206L11.0278 6.8656C11.0044 6.8331 10.9801 6.80123 10.955 6.77004C10.8639 6.66226 10.9394 6.6856 10.9905 6.68115Z" fill="white"/>
<path d="M12.1772 9.2742C11.9839 9.47586 11.705 9.72419 11.4017 9.83919C11.3689 9.87586 11.4828 10.0331 11.6294 10.0331C11.8755 10.0042 12.0922 9.86586 12.2928 9.50197C12.3467 9.41753 12.4411 9.23586 12.4433 9.09475C12.4617 8.2692 12.4022 7.62642 12.2783 7.02975C12.27 6.98187 12.2723 6.93277 12.285 6.88586C12.3005 6.86697 12.355 6.88586 12.3839 6.8392C12.4255 6.79586 12.2722 6.44031 12.1844 6.30364C12.1533 6.24253 12.1428 6.20142 12.0911 6.31086C12.0367 6.39975 12.0005 6.55475 12.005 6.69919C12.1222 7.51197 12.1583 8.22364 12.235 9.03642C12.2411 9.11475 12.2294 9.2292 12.1772 9.2742ZM15.4161 7.21308C15.4078 7.15531 15.3822 7.02086 15.3922 7.00364C15.4078 6.96253 15.4883 7.00808 15.5172 6.96086C15.5594 6.91808 15.3094 6.59697 15.2222 6.46031C15.1905 6.39919 15.18 6.35808 15.1283 6.46753C15.0739 6.55642 15.055 6.71586 15.0767 6.85586C15.2072 7.73864 15.3044 8.40197 15.3244 9.18475C15.3128 9.25919 15.3105 9.2992 15.2755 9.39253C15.1983 9.49142 15.1133 9.61475 15.0328 9.67475C14.9528 9.73419 14.7822 9.79142 14.7261 9.83531C14.55 9.93808 14.5494 10.0553 14.6928 10.0592C14.9383 10.0303 15.2294 10.0103 15.43 9.70697C15.4839 9.62253 15.5478 9.39308 15.5505 9.25197C15.5689 8.42642 15.54 7.80975 15.4161 7.21308ZM13.5544 7.90031C13.5567 7.78697 13.5672 7.63697 13.5733 7.54308C13.5761 7.50808 13.5844 7.46864 13.6178 7.45975C13.6517 7.45086 13.7117 7.4942 13.7122 7.45753C13.7055 7.38586 13.6911 7.27919 13.6505 7.22864C13.595 7.14642 13.4478 7.16642 13.4217 7.29531C13.4222 7.34308 13.4439 7.36864 13.44 7.41197C13.4333 7.43642 13.4078 7.45308 13.3472 7.42419C13.3572 7.41531 13.3078 7.34697 13.3078 7.34697C13.2605 7.31808 13.1972 7.34864 13.1567 7.37475C13.1421 7.40281 13.1335 7.43353 13.1312 7.46505C13.1289 7.49656 13.133 7.52821 13.1433 7.55808C13.21 7.6842 13.4428 7.89808 13.5544 7.90031Z" fill="white"/>
<path d="M13.4761 6.9341L13.9723 7.54132C14.0084 8.00021 14.0178 8.37577 14.0534 8.83466C14.0484 9.0291 13.9884 9.19854 13.9311 9.22299C13.9311 9.22299 13.845 9.27299 13.7873 9.21799C13.745 9.20077 13.5767 8.93743 13.5767 8.93743C13.4906 8.85854 13.4339 8.88077 13.3728 8.93743C13.2039 9.10021 13.1278 9.40577 13.0134 9.61577C12.9834 9.66299 12.9 9.70299 12.8073 9.61243C12.5723 9.29077 12.71 8.83354 12.6811 8.95132C12.4717 9.18743 12.5639 9.57799 12.6111 9.66243C12.68 9.80021 12.7361 9.8891 12.8706 9.95743C12.9928 10.0474 13.0884 9.99077 13.1406 9.92799C13.2639 9.79966 13.2656 9.47466 13.3234 9.4091C13.3634 9.29077 13.4661 9.31077 13.5156 9.36354C13.5612 9.4271 13.6212 9.47905 13.6906 9.51521C13.8056 9.61688 13.9428 9.63521 14.0778 9.54243C14.17 9.49077 14.2306 9.42354 14.2845 9.29077C14.3445 9.13077 14.3117 8.39521 14.2995 7.9541C14.3856 8.06521 14.4695 8.18132 14.5545 8.29743C14.5917 8.66577 14.6128 9.03243 14.6006 9.40688C14.5917 9.48188 14.8617 9.18466 14.8595 9.04354V8.7291C14.9895 8.92466 15.1161 9.12632 15.235 9.33966C15.3095 9.30077 15.285 8.88132 15.2378 8.82354C15.1006 8.59354 14.9178 8.3541 14.7917 8.18299C14.7834 8.16132 14.7789 8.13688 14.7689 8.11632C14.7184 7.9991 14.75 7.90466 14.7261 7.78021C14.7028 7.65521 14.7089 7.46854 14.6728 7.32021C14.6628 7.26243 14.6328 7.07688 14.6417 7.05966C14.6561 7.01799 14.7117 7.06077 14.7389 7.01299C14.7795 6.96854 14.5984 6.4991 14.5061 6.36466C14.4728 6.30466 14.4128 6.32521 14.3384 6.42299C14.27 6.48743 14.2956 6.6341 14.3217 6.77354C14.3867 7.11132 14.4411 7.43521 14.4878 7.75577C14.3879 7.62295 14.287 7.49091 14.185 7.35966L14.1806 7.33521C14.1806 7.3291 14.1656 7.0441 14.1523 6.97632C14.15 6.9491 14.1434 6.94077 14.1723 6.9441C14.2028 6.96966 14.2067 6.97132 14.2261 6.98021C14.2573 6.98577 14.2845 6.93299 14.2661 6.88466L13.9789 6.35577C13.9561 6.33299 13.9261 6.30854 13.89 6.36188C13.8675 6.38136 13.8495 6.40552 13.8372 6.43267C13.8249 6.45981 13.8187 6.48931 13.8189 6.5191C13.8278 6.6441 13.8495 6.77188 13.8578 6.89743L13.87 6.96521C13.8573 6.95021 13.8417 6.93132 13.835 6.92466C13.5911 6.66799 13.9473 6.88299 13.7884 6.68466C13.6539 6.53688 13.615 6.49077 13.4995 6.40188C13.4417 6.36466 13.4067 6.29354 13.3878 6.41466C13.3789 6.52089 13.3761 6.62755 13.3795 6.7341C13.3795 6.78521 13.4311 6.87854 13.4761 6.9341ZM8.53114 7.53354C8.67114 7.59132 8.76058 7.32466 8.81836 7.03243C8.85725 6.95021 8.88725 6.94132 8.90725 6.98354C8.90225 7.37243 8.93503 7.45854 9.03503 7.57688C9.25781 7.7491 9.44225 7.59854 9.45725 7.5841L9.63058 7.41077C9.66892 7.37021 9.72058 7.36743 9.77503 7.40354C9.82836 7.45132 9.82114 7.53466 9.93447 7.59243C10.03 7.63077 10.2345 7.60132 10.2817 7.5191C10.3456 7.41021 10.3611 7.37243 10.39 7.33132C10.4356 7.27077 10.5134 7.29799 10.5134 7.31688C10.5061 7.35077 10.4606 7.38466 10.4917 7.44521C10.5461 7.48577 10.5584 7.45966 10.5906 7.45077C10.7039 7.39632 10.7884 7.15077 10.7884 7.15077C10.7934 7.0591 10.7422 7.06688 10.7089 7.08577C10.6656 7.11188 10.6628 7.12077 10.6195 7.14743C10.5639 7.15577 10.4567 7.19243 10.4039 7.11021C10.3495 7.01132 10.3484 6.87354 10.3073 6.7741C10.3073 6.76688 10.235 6.61688 10.3023 6.60743C10.3361 6.61354 10.4078 6.63243 10.4195 6.57243C10.4545 6.51354 10.3434 6.34577 10.2678 6.26077C10.2017 6.18854 10.11 6.17966 10.0217 6.25354C9.95947 6.31077 9.96836 6.3741 9.95614 6.43466C9.94569 6.47737 9.94553 6.52195 9.95567 6.56474C9.96581 6.60752 9.98596 6.64729 10.0145 6.68077C10.0761 6.80243 10.1889 6.95966 10.1517 7.17966C10.1517 7.17966 10.0861 7.2841 9.97114 7.27077C9.92336 7.26021 9.84558 7.23966 9.80447 6.9341C9.77336 6.70243 9.81225 6.37854 9.71392 6.22688C9.67836 6.13521 9.65281 6.04688 9.56614 6.20354C9.54281 6.26521 9.44281 6.35854 9.51558 6.55132C9.57503 6.67299 9.59892 6.87132 9.57225 7.09243C9.53114 7.15521 9.52225 7.17632 9.46836 7.2391C9.39281 7.32021 9.31114 7.29966 9.24836 7.2691C9.18947 7.22966 9.14392 7.2091 9.11725 7.08354C9.12225 6.88354 9.13336 6.55577 9.09669 6.48632C9.04281 6.37854 8.95392 6.41743 8.91558 6.45021C8.73281 6.61743 8.64281 6.8991 8.58781 7.12299C8.53725 7.28632 8.48336 7.23966 8.44558 7.17354C8.35336 7.08688 8.34725 6.41077 8.23558 6.52243C8.05614 7.03021 8.33669 7.58799 8.53114 7.53354Z" fill="white"/>
<path d="M11.1872 8.62469L11.1339 8.59414L10.0889 8.58914C10.035 8.56858 10.0511 8.5508 10.0889 8.53636C10.3383 8.50247 10.7822 8.43025 10.8116 8.00414C10.8066 7.78247 10.7161 7.63691 10.4439 7.59691C10.2444 7.61247 10.1016 7.80636 10.1244 8.01914C10.115 8.07691 10.1433 8.18914 10.085 8.20191C9.70109 8.23691 9.28276 8.47691 9.26887 8.64914C9.24554 8.66525 9.19331 8.61858 9.19998 8.54525C9.18137 8.23158 9.09109 7.92635 8.93609 7.65303C8.81498 7.53191 8.85276 7.57191 8.77165 7.62914C8.71943 7.68914 8.70998 7.73025 8.71276 7.84969C8.71276 7.85414 8.81054 8.12691 8.89331 8.31803C8.94831 8.51414 8.99998 8.73803 8.96276 8.94969C8.83387 9.22969 8.57443 9.4808 8.32443 9.61691C8.19554 9.65858 8.08498 9.64358 8.05776 9.61469C7.97832 9.56136 7.9822 9.46303 7.98832 9.46136C8.19887 9.31414 8.43998 9.1958 8.62887 8.79969C8.68443 8.64858 8.70109 8.55691 8.64609 8.32303C8.63121 8.24047 8.59327 8.16381 8.53665 8.10191C8.57054 8.07969 8.66776 8.15358 8.68276 8.10969C8.65468 7.98164 8.59093 7.86414 8.49887 7.7708C8.42387 7.70247 8.3422 7.69469 8.27332 7.75747C8.19554 7.8008 8.17887 7.95525 8.21609 8.0908C8.2572 8.19303 8.36887 8.21025 8.44887 8.41525C8.44887 8.41969 8.47776 8.56858 8.43665 8.62691C8.40387 8.72914 7.97887 9.06303 7.95554 9.07803C7.94387 9.09247 7.94887 9.0708 7.9472 9.01525C7.94443 8.94747 7.97443 8.78747 7.96609 8.78636C7.82776 8.8758 7.78165 9.14969 7.75665 9.2308C7.40665 9.47247 7.01054 9.65247 6.78165 9.89803C6.6622 10.0841 7.60276 9.68414 7.7122 9.6358C7.73665 9.65358 7.73387 9.73747 7.79943 9.81247C7.8972 9.94469 8.10387 10.0264 8.30665 9.9758C8.64554 9.85303 8.84165 9.62191 9.04054 9.3658C9.06887 9.32414 9.11332 9.29247 9.15443 9.32414C9.29109 9.63025 9.68609 9.84691 10.1955 9.86969C10.3139 9.7258 10.2566 9.65636 10.2089 9.62636C10.2089 9.62191 9.9572 9.52636 9.91887 9.4308C9.89554 9.34414 9.9522 9.26803 10.0655 9.21025C10.3928 9.1708 10.7144 9.12691 11.0261 9.02691C11.0294 8.92247 11.09 8.7658 11.1316 8.69803C11.1716 8.62914 11.1933 8.64969 11.1872 8.62469ZM10.3278 7.97358C10.3433 7.94747 10.395 7.94858 10.4433 7.97691C10.4916 8.00525 10.5189 8.04914 10.5028 8.07525C10.4872 8.10191 10.435 8.10025 10.3866 8.07191C10.3383 8.04358 10.3122 8.00025 10.3278 7.97358ZM9.9072 9.02914C9.79498 9.06747 9.6872 9.09747 9.6872 9.25969C9.72887 9.48525 9.62998 9.40803 9.57165 9.37691C9.50276 9.32747 9.30887 9.20803 9.28109 8.95025C9.27665 8.88858 9.32498 8.83691 9.4022 8.83691C9.51831 8.86858 9.68998 8.8708 9.83887 8.88636C9.96054 8.89414 10.0211 8.98969 9.9072 9.02914ZM6.03665 6.52636C6.15665 6.58414 6.38332 6.55969 6.37332 6.36525C6.37332 6.34803 6.36887 6.29025 6.3672 6.27469C6.34276 6.21747 6.27609 6.23136 6.26054 6.2908C6.25554 6.31025 6.26887 6.34136 6.25165 6.35136C6.24165 6.36136 6.20332 6.35525 6.20498 6.30191C6.20498 6.28469 6.1922 6.26636 6.18498 6.2558C6.1772 6.2508 6.17276 6.24914 6.15887 6.24914C6.1422 6.24969 6.1422 6.25414 6.13332 6.26858C6.12943 6.28247 6.12387 6.29691 6.12387 6.31303C6.12165 6.33191 6.11443 6.33858 6.10054 6.34191C6.08498 6.34191 6.08832 6.34358 6.07609 6.33525C6.06832 6.32691 6.05887 6.32358 6.05887 6.30969C6.05862 6.29347 6.056 6.27738 6.05109 6.26191C6.04406 6.25377 6.03424 6.2484 6.02165 6.2458C5.95609 6.2458 5.95165 6.3208 5.95554 6.34969C5.94943 6.35469 5.9472 6.48914 6.03665 6.52636Z" fill="white"/>
<path d="M9.72891 7.7929C9.72891 7.77567 9.71613 7.7579 9.70891 7.74678C9.70113 7.74178 9.69669 7.74012 9.6828 7.74012C9.66613 7.74067 9.66669 7.74512 9.65724 7.75956C9.65336 7.77401 9.6478 7.7879 9.6478 7.80401C9.64613 7.82345 9.63836 7.83012 9.62447 7.8329C9.60891 7.8329 9.61224 7.83456 9.59947 7.82678C9.59169 7.81845 9.58224 7.81512 9.58224 7.80123C9.58199 7.78501 9.57937 7.76891 9.57447 7.75345C9.56743 7.7453 9.55761 7.74012 9.54502 7.7379C9.47947 7.7379 9.47502 7.8129 9.47836 7.84123C9.47336 7.84678 9.47058 7.98067 9.56002 8.01845C9.68058 8.07567 9.96669 8.04234 9.89669 7.85734C9.89548 7.82692 9.89345 7.79654 9.89058 7.76623C9.86613 7.70901 9.79891 7.72345 9.78391 7.78234C9.77947 7.80178 9.7928 7.8329 9.77502 7.8429C9.76613 7.8529 9.72724 7.84678 9.72891 7.7929ZM11.6161 7.40012C11.7361 7.4579 11.9622 7.43345 11.9522 7.23956C11.951 7.20914 11.949 7.17876 11.9461 7.14845C11.9217 7.09123 11.855 7.10567 11.84 7.16456C11.835 7.18401 11.8484 7.21512 11.8306 7.22512C11.8206 7.23512 11.7822 7.22956 11.7839 7.17567C11.7839 7.15845 11.7711 7.14012 11.7639 7.12956C11.7561 7.12456 11.7517 7.1229 11.7372 7.1229C11.7206 7.12401 11.7211 7.1279 11.7117 7.14234C11.7078 7.15678 11.7022 7.17067 11.7022 7.18678C11.7 7.20623 11.6928 7.2129 11.6789 7.21567C11.6634 7.21567 11.6667 7.21734 11.6539 7.20956C11.6461 7.20123 11.6372 7.1979 11.6372 7.18401C11.637 7.1676 11.6344 7.15131 11.6295 7.13567C11.6221 7.12752 11.6121 7.12234 11.5995 7.12012C11.5339 7.12012 11.5295 7.19512 11.5334 7.22345C11.5295 7.22901 11.5267 7.3629 11.6161 7.40012ZM11.6972 6.64901C11.74 6.76901 11.6645 6.88345 11.7095 6.90012C11.75 6.91901 11.8078 6.77623 11.8289 6.64456C11.8539 6.5379 11.7778 6.31956 11.67 6.27456C11.6045 6.25901 11.5111 6.2979 11.5411 6.38567C11.5261 6.4279 11.6734 6.57123 11.6972 6.64901ZM12.8056 9.46234C12.8895 9.46289 12.9861 9.27067 13.0272 9.08012C13.05 8.8179 13.0117 8.65845 13.005 8.50401C12.9984 8.34956 12.8311 7.17512 12.7967 7.05845C12.7561 6.8379 12.9595 7.02901 12.9372 6.90067C12.8667 6.73901 12.6917 6.50401 12.6361 6.36345C12.6028 6.30345 12.6172 6.25012 12.5428 6.3479C12.4745 6.5729 12.4506 6.75623 12.4767 6.89623C12.6534 7.81845 12.8345 8.58512 12.8056 9.46234ZM14.8922 7.05123C14.9117 7.11123 14.8628 7.30512 14.9034 7.3229C14.9406 7.3429 14.9928 7.18901 15.0122 7.04623C15.0228 6.9679 14.9656 6.69456 14.8672 6.64567C14.8072 6.62901 14.7222 6.67067 14.75 6.76623C14.7361 6.81234 14.8706 6.96678 14.8922 7.05123ZM7.60391 9.08234C7.64002 9.09734 7.68947 8.98401 7.70836 8.87901C7.71891 8.82123 7.66336 8.62067 7.56947 8.58456C7.51169 8.57234 7.4328 8.5879 7.45724 8.67345C7.45447 8.71956 7.58502 8.77512 7.5928 8.88234C7.61169 8.92678 7.56502 9.06956 7.60391 9.08234ZM5.0728 6.51845C5.09113 6.56456 5.05447 6.71178 5.0928 6.72567C5.1278 6.74123 5.17724 6.62345 5.19558 6.51512C5.20613 6.45512 5.1978 6.25178 5.05891 6.21012C5.00169 6.19734 4.92224 6.22901 4.94836 6.30178C4.93502 6.33623 5.05224 6.45401 5.0728 6.51845ZM7.79613 7.17012C7.69002 7.2279 7.64836 7.39901 7.71502 7.49845C7.77669 7.58678 7.87447 7.55401 7.8878 7.55401C7.99224 7.56678 8.05391 7.35845 8.05391 7.35845C8.05391 7.35845 8.05724 7.30012 7.93336 7.41067C7.88113 7.42067 7.87447 7.40123 7.86169 7.37123C7.84921 7.31685 7.85486 7.25987 7.8778 7.20901C7.89558 7.15734 7.85558 7.13456 7.79613 7.17012ZM8.59724 6.52956C8.6143 6.5189 8.62894 6.5048 8.64023 6.48815C8.65152 6.4715 8.65921 6.45268 8.6628 6.4329C8.67891 6.35178 8.57669 6.47123 8.56391 6.38067C8.54113 6.29678 8.60669 6.26234 8.66891 6.18123C8.67113 6.12512 8.67002 6.08567 8.59391 6.13123C8.54058 6.16734 8.43391 6.27734 8.43058 6.40401C8.42724 6.47567 8.41391 6.47512 8.46113 6.52067C8.49502 6.57012 8.52891 6.56512 8.59724 6.52956ZM9.31891 6.5729C9.3878 6.38623 9.3878 6.30734 9.3928 6.2279C9.37169 6.10734 9.29002 6.11123 9.23613 6.24512C9.2128 6.29567 9.18558 6.56178 9.19002 6.56178C9.17169 6.64123 9.2728 6.67512 9.31891 6.5729ZM13.8578 7.89678C13.8578 7.89678 13.3006 8.2929 13.2872 8.30678C13.2317 8.35567 13.2595 8.52901 13.2872 8.50901C13.3267 8.52456 13.8872 8.14401 13.8761 8.09956C13.9022 8.10067 13.915 7.87678 13.8578 7.89678ZM13.7895 8.97123C13.8267 8.99123 13.925 8.86956 13.9211 8.7179C13.9322 8.63956 13.8928 8.35234 13.795 8.30345C13.735 8.28678 13.655 8.3379 13.6828 8.4329C13.6689 8.47845 13.7517 8.6379 13.7734 8.72234C13.7928 8.7829 13.7489 8.95345 13.7895 8.97123ZM10.6339 9.80234C10.6339 9.80734 10.6811 9.84789 10.7367 9.81567C10.8534 9.77067 10.9267 9.72734 11.09 9.69123C11.1328 9.69067 11.13 9.57567 11.0622 9.57178C10.9739 9.57623 10.8917 9.58067 10.8034 9.65067C10.7489 9.6629 10.74 9.63012 10.7278 9.60012C10.7145 9.52623 10.7584 9.47512 10.7489 9.42012C10.7522 9.42345 10.6984 9.37401 10.6434 9.40178C10.6406 9.40178 10.5206 9.48289 10.4822 9.53956C10.4584 9.55789 10.4611 9.57345 10.4684 9.60401C10.4867 9.64623 10.5195 9.63345 10.5561 9.61345C10.605 9.60678 10.6284 9.63901 10.6245 9.69734C10.6011 9.77123 10.6339 9.79845 10.6339 9.80234ZM14.2734 9.89456C14.255 9.92623 14.2428 9.97401 14.2995 9.98901C14.4039 10.0185 14.6445 9.86178 14.6445 9.85901C14.6834 9.82956 14.6706 9.77456 14.6672 9.77456C14.6445 9.74845 14.5934 9.76345 14.5589 9.75956C14.5428 9.75956 14.4884 9.75123 14.5145 9.70345C14.5328 9.67769 14.5474 9.64944 14.5578 9.61956C14.5739 9.58345 14.56 9.55956 14.5011 9.54012C14.4417 9.52901 14.4178 9.53456 14.3517 9.54012C14.3161 9.5479 14.3039 9.56345 14.2972 9.60678C14.3 9.67234 14.3395 9.66901 14.3806 9.69512C14.4045 9.72567 14.42 9.75345 14.3789 9.8029C14.34 9.83901 14.3128 9.85901 14.2734 9.89456ZM14.1667 12.7779H13.3334V12.5001C13.3334 12.4264 13.3041 12.3558 13.252 12.3037C13.1999 12.2516 13.1292 12.2223 13.0556 12.2223C12.9819 12.2223 12.9113 12.2516 12.8592 12.3037C12.8071 12.3558 12.7778 12.4264 12.7778 12.5001V12.7779H6.11113C6.11113 12.7779 6.11113 13.3335 7.7778 13.3335H12.7778V13.6112C12.7778 13.6849 12.8071 13.7556 12.8592 13.8076C12.9113 13.8597 12.9819 13.889 13.0556 13.889C13.1292 13.889 13.1999 13.8597 13.252 13.8076C13.3041 13.7556 13.3334 13.6849 13.3334 13.6112V13.3335H13.8889V13.6112C13.8889 13.6849 13.9182 13.7556 13.9703 13.8076C14.0224 13.8597 14.093 13.889 14.1667 13.889C14.2404 13.889 14.311 13.8597 14.3631 13.8076C14.4152 13.7556 14.4445 13.6849 14.4445 13.6112V13.0557C14.4445 12.982 14.4152 12.9113 14.3631 12.8593C14.311 12.8072 14.2404 12.7779 14.1667 12.7779Z" fill="white"/>
</svg>
