<svg xmlns="http://www.w3.org/2000/svg" width="22" height="18" viewBox="0 0 22 18" fill="none">
    <path d="M1 8.29041H0.25V9.79041H1V8.29041ZM21 9.79041C21.4142 9.79041 21.75 9.45462 21.75 9.04041C21.75 8.62619 21.4142 8.29041 21 8.29041V9.79041ZM14.0577 1V0.25H12.5577V1H14.0577ZM20.5512 9.61115C20.9111 9.8163 21.3691 9.6909 21.5742 9.33105C21.7794 8.97121 21.654 8.5132 21.2941 8.30804L20.5512 9.61115ZM12.5576 17V17.75H14.0576V17H12.5576ZM1 9.79041H20.9226V8.29041H1V9.79041ZM20.9226 9.79041H21V8.29041H20.9226V9.79041ZM12.5577 1C12.5577 2.15417 13.1555 3.26837 13.906 4.23121C14.6694 5.21052 15.67 6.13343 16.6439 6.92007C17.622 7.71005 18.5965 8.38111 19.3244 8.85375C19.6891 9.09051 19.9935 9.27856 20.2077 9.40795C20.3148 9.47267 20.3995 9.52279 20.458 9.55705C20.4872 9.57419 20.5099 9.58736 20.5256 9.59643C20.5335 9.60096 20.5396 9.60447 20.5439 9.60693C20.546 9.60816 20.5477 9.60913 20.5489 9.60983C20.5495 9.61018 20.55 9.61047 20.5504 9.61069C20.5506 9.6108 20.5508 9.61091 20.5509 9.61097C20.5511 9.61106 20.5512 9.61115 20.9227 8.9596C21.2941 8.30804 21.2942 8.30809 21.2943 8.30813C21.2943 8.30811 21.2943 8.30813 21.2943 8.30811C21.2942 8.30806 21.294 8.30795 21.2937 8.30778C21.2931 8.30743 21.292 8.30681 21.2905 8.30594C21.2874 8.3042 21.2826 8.30142 21.2761 8.29763C21.2629 8.29005 21.2429 8.27841 21.2163 8.26286C21.1633 8.23176 21.0843 8.18507 20.9833 8.12401C20.781 8.00186 20.4905 7.82246 20.1413 7.59568C19.4414 7.14124 18.5121 6.50081 17.5864 5.75316C16.6566 5.00218 15.7535 4.16132 15.089 3.30901C14.4118 2.44021 14.0577 1.65492 14.0577 1H12.5577ZM20.9226 9.04041C20.6308 8.3495 20.6306 8.34959 20.6304 8.34969C20.6303 8.34974 20.63 8.34985 20.6298 8.34995C20.6293 8.35015 20.6287 8.3504 20.628 8.3507C20.6266 8.35129 20.6247 8.35209 20.6224 8.35308C20.6178 8.35506 20.6113 8.35782 20.6031 8.36137C20.5867 8.36847 20.5633 8.37869 20.5333 8.39198C20.4733 8.41857 20.387 8.45747 20.2782 8.50827C20.0606 8.60983 19.7524 8.75926 19.3836 8.95332C18.6478 9.34046 17.6619 9.90995 16.6714 10.6367C14.7494 12.0472 12.5576 14.2344 12.5576 17H14.0576C14.0576 15.0221 15.6734 13.2296 17.5588 11.8461C18.4721 11.1759 19.39 10.6449 20.082 10.2808C20.4271 10.0992 20.7138 9.96031 20.9127 9.86746C21.0121 9.82106 21.0894 9.78622 21.1409 9.76338C21.1667 9.75196 21.186 9.74354 21.1984 9.73818C21.2046 9.7355 21.2091 9.73358 21.2118 9.73243C21.2131 9.73186 21.214 9.73148 21.2145 9.73129C21.2147 9.7312 21.2148 9.73115 21.2148 9.73116C21.2148 9.73116 21.2147 9.7312 21.2147 9.7312C21.2146 9.73125 21.2144 9.73131 20.9226 9.04041Z" fill="white"/>
</svg>