<svg xmlns="http://www.w3.org/2000/svg" width="22" height="18" viewBox="0 0 22 18" fill="none">
    <path d="M21 8.29041H21.75V9.79041H21V8.29041ZM1 9.79041C0.585787 9.79041 0.25 9.45462 0.25 9.04041C0.25 8.62619 0.585787 8.29041 1 8.29041V9.79041ZM7.94231 1V0.25H9.44231V1H7.94231ZM1.44877 9.61115C1.08893 9.8163 0.630913 9.6909 0.425762 9.33105C0.220612 8.97121 0.346012 8.5132 0.705854 8.30804L1.44877 9.61115ZM9.44237 17V17.75H7.94237V17H9.44237ZM21 9.79041H1.07737V8.29041H21V9.79041ZM1.07737 9.79041H1V8.29041H1.07737V9.79041ZM9.44231 1C9.44231 2.15417 8.84454 3.26837 8.09398 4.23121C7.33057 5.21052 6.33001 6.13343 5.35606 6.92007C4.37798 7.71005 3.4035 8.38111 2.67559 8.85375C2.31094 9.09051 2.00652 9.27856 1.7923 9.40795C1.68516 9.47267 1.60048 9.52279 1.542 9.55705C1.51276 9.57419 1.49006 9.58736 1.47437 9.59643C1.46652 9.60096 1.46042 9.60447 1.45614 9.60693C1.454 9.60816 1.45231 9.60913 1.45108 9.60983C1.45046 9.61018 1.44996 9.61047 1.44958 9.61069C1.44938 9.6108 1.44918 9.61091 1.44909 9.61097C1.44891 9.61106 1.44877 9.61115 1.07731 8.9596C0.705854 8.30804 0.705769 8.30809 0.705713 8.30813C0.705732 8.30811 0.705706 8.30813 0.705744 8.30811C0.705822 8.30806 0.706017 8.30795 0.706322 8.30778C0.706936 8.30743 0.708006 8.30681 0.709524 8.30594C0.712559 8.3042 0.717386 8.30142 0.723949 8.29763C0.737074 8.29005 0.757133 8.27841 0.783667 8.26286C0.836735 8.23176 0.915657 8.18507 1.01674 8.12401C1.21897 8.00186 1.50946 7.82246 1.85872 7.59568C2.55862 7.14124 3.48789 6.50081 4.41356 5.75316C5.34336 5.00218 6.24654 4.16132 6.91095 3.30901C7.5882 2.44021 7.94231 1.65492 7.94231 1H9.44231ZM1.07737 9.04041C1.36917 8.3495 1.36938 8.34959 1.36962 8.34969C1.36974 8.34974 1.37 8.34985 1.37024 8.34995C1.37071 8.35015 1.3713 8.3504 1.372 8.3507C1.3734 8.35129 1.37527 8.35209 1.37758 8.35308C1.38222 8.35506 1.38867 8.35782 1.39688 8.36137C1.41329 8.36847 1.43673 8.37869 1.46673 8.39198C1.52673 8.41857 1.61301 8.45747 1.72184 8.50827C1.93939 8.60983 2.24764 8.75926 2.61645 8.95332C3.35224 9.34046 4.33812 9.90995 5.32858 10.6367C7.25065 12.0472 9.44237 14.2344 9.44237 17H7.94237C7.94237 15.0221 6.32659 13.2296 4.44117 11.8461C3.52788 11.1759 2.61001 10.6449 1.91799 10.2808C1.57289 10.0992 1.28621 9.96031 1.08732 9.86746C0.987926 9.82106 0.910608 9.78622 0.859055 9.76338C0.833282 9.75196 0.813963 9.74354 0.801558 9.73818C0.795357 9.7355 0.790884 9.73358 0.7882 9.73243C0.786858 9.73186 0.785963 9.73148 0.785522 9.73129C0.785303 9.7312 0.785196 9.73115 0.785204 9.73116C0.785208 9.73116 0.785299 9.7312 0.785301 9.7312C0.785423 9.73125 0.785572 9.73131 1.07737 9.04041Z" fill="white"/>
</svg>