<svg width="123" height="17" viewBox="0 0 123 17" fill="none" xmlns="http://www.w3.org/2000/svg">
<path id="Ellipse 79" d="M0.76936 15.5564C0.524352 15.6838 0.428994 15.9856 0.556372 16.2306C0.683751 16.4756 0.985631 16.571 1.23064 16.4436L0.76936 15.5564ZM123 16L119.839 11.1687L117.235 16.3218L123 16ZM1.23064 16.4436C2.16519 15.9578 3.10529 15.4828 4.05081 15.0188L3.61026 14.121C2.65777 14.5884 1.71076 15.0669 0.76936 15.5564L1.23064 16.4436ZM9.78685 12.3685C11.7181 11.5306 13.6699 10.7379 15.6411 9.99146L15.287 9.05626C13.3009 9.80833 11.3345 10.607 9.38885 11.4511L9.78685 12.3685ZM21.6015 7.89566C23.6016 7.24574 25.6199 6.64285 27.6554 6.08814L27.3925 5.12333C25.3414 5.68227 23.3077 6.28975 21.2925 6.94462L21.6015 7.89566ZM33.7895 4.57487C35.8407 4.12123 37.9078 3.71609 39.9898 3.36059L39.8215 2.37486C37.7235 2.73309 35.6405 3.14134 33.5735 3.59847L33.7895 4.57487ZM46.2412 2.44874C48.3241 2.19638 50.4206 1.99346 52.5296 1.84107L52.4575 0.843669C50.3324 0.997228 48.2199 1.2017 46.1209 1.456L46.2412 2.44874ZM58.8401 1.53782C59.8907 1.51265 60.944 1.5 62 1.5V0.5C60.936 0.5 59.8747 0.512746 58.8162 0.538107L58.8401 1.53782ZM62 1.5C63.056 1.5 64.1093 1.51265 65.1599 1.53782L65.1838 0.538107C64.1253 0.512746 63.064 0.5 62 0.5V1.5ZM71.4705 1.84107C73.5794 1.99346 75.6759 2.19638 77.7588 2.44874L77.8791 1.456C75.7802 1.20171 73.6676 0.997229 71.5425 0.84367L71.4705 1.84107ZM84.0102 3.36059C86.0922 3.71609 88.1593 4.12123 90.2105 4.57487L90.4265 3.59847C88.3595 3.14134 86.2765 2.73309 84.1786 2.37486L84.0102 3.36059ZM96.3446 6.08814C98.3801 6.64285 100.398 7.24574 102.398 7.89566L102.708 6.94461C100.692 6.28975 98.6586 5.68227 96.6075 5.12333L96.3446 6.08814ZM108.359 9.99146C110.33 10.7379 112.282 11.5306 114.213 12.3685L114.611 11.4511C112.666 10.607 110.699 9.80833 108.713 9.05626L108.359 9.99146ZM0.76936 15.5564C0.524352 15.6838 0.428994 15.9856 0.556372 16.2306C0.683751 16.4756 0.985631 16.571 1.23064 16.4436L0.76936 15.5564ZM123 16L119.839 11.1687L117.235 16.3218L123 16ZM1.23064 16.4436C2.16519 15.9578 3.10529 15.4828 4.05081 15.0188L3.61026 14.121C2.65777 14.5884 1.71076 15.0669 0.76936 15.5564L1.23064 16.4436ZM9.78685 12.3685C11.7181 11.5306 13.6699 10.7379 15.6411 9.99146L15.287 9.05626C13.3009 9.80833 11.3345 10.607 9.38885 11.4511L9.78685 12.3685ZM21.6015 7.89566C23.6016 7.24574 25.6199 6.64285 27.6554 6.08814L27.3925 5.12333C25.3414 5.68227 23.3077 6.28975 21.2925 6.94462L21.6015 7.89566ZM33.7895 4.57487C35.8407 4.12123 37.9078 3.71609 39.9898 3.36059L39.8215 2.37486C37.7235 2.73309 35.6405 3.14134 33.5735 3.59847L33.7895 4.57487ZM46.2412 2.44874C48.3241 2.19638 50.4206 1.99346 52.5296 1.84107L52.4575 0.843669C50.3324 0.997228 48.2199 1.2017 46.1209 1.456L46.2412 2.44874ZM58.8401 1.53782C59.8907 1.51265 60.944 1.5 62 1.5V0.5C60.936 0.5 59.8747 0.512746 58.8162 0.538107L58.8401 1.53782ZM62 1.5C63.056 1.5 64.1093 1.51265 65.1599 1.53782L65.1838 0.538107C64.1253 0.512746 63.064 0.5 62 0.5V1.5ZM71.4705 1.84107C73.5794 1.99346 75.6759 2.19638 77.7588 2.44874L77.8791 1.456C75.7802 1.20171 73.6676 0.997229 71.5425 0.84367L71.4705 1.84107ZM84.0102 3.36059C86.0922 3.71609 88.1593 4.12123 90.2105 4.57487L90.4265 3.59847C88.3595 3.14134 86.2765 2.73309 84.1786 2.37486L84.0102 3.36059ZM96.3446 6.08814C98.3801 6.64285 100.398 7.24574 102.398 7.89566L102.708 6.94461C100.692 6.28975 98.6586 5.68227 96.6075 5.12333L96.3446 6.08814ZM108.359 9.99146C110.33 10.7379 112.282 11.5306 114.213 12.3685L114.611 11.4511C112.666 10.607 110.699 9.80833 108.713 9.05626L108.359 9.99146Z" fill="#A0A0A0"/>
</svg>
