<svg width="127" height="24" viewBox="0 0 127 24" fill="none" xmlns="http://www.w3.org/2000/svg">
<path fill-rule="evenodd" clip-rule="evenodd" d="M122.693 18.2209C122.769 19.0557 123.463 20.1182 124.666 20.1182H125.369C125.642 20.1182 125.866 19.9032 125.866 19.6406V4.75519H125.862C125.849 4.50441 125.633 4.30357 125.369 4.30357H123.19C122.925 4.30357 122.71 4.50441 122.696 4.75519H122.693V5.96472C121.357 4.3808 119.251 3.72339 117.14 3.72339C112.34 3.72339 108.449 7.46974 108.449 12.0913C108.449 16.7133 112.34 20.4597 117.14 20.4597V20.4601C119.251 20.4601 121.553 19.6713 122.693 18.2191V18.2209ZM117.148 17.531C114.095 17.531 111.621 15.0958 111.621 12.0913C111.621 9.08748 114.095 6.65216 117.148 6.65216C120.202 6.65216 122.676 9.08748 122.676 12.0913C122.676 15.0958 120.202 17.531 117.148 17.531Z" fill="currentColor"/>
<path fill-rule="evenodd" clip-rule="evenodd" d="M105.694 18.7329L105.693 11.0304H105.693C105.693 6.68841 102.848 3.75928 98.311 3.75928C96.1453 3.75928 94.37 4.965 93.743 6.00075C93.6075 5.19088 93.1609 4.33959 91.7761 4.33959H91.0702C90.7971 4.33959 90.5742 4.55479 90.5742 4.81738V18.2583C90.5742 18.2587 90.5742 18.2597 90.5742 18.2604V19.7042H90.5769C90.5912 19.9545 90.8068 20.1556 91.0704 20.1556H93.2504C93.2837 20.1556 93.3165 20.1518 93.3481 20.1459C93.3625 20.1432 93.3759 20.1377 93.39 20.1339C93.4062 20.1291 93.4231 20.1254 93.4385 20.1193C93.4579 20.1115 93.4755 20.1012 93.4935 20.0915C93.5024 20.0862 93.5117 20.0826 93.5202 20.0772C93.5419 20.0636 93.5619 20.0474 93.5812 20.0308C93.5843 20.0277 93.5881 20.0257 93.5913 20.0228C93.6129 20.0027 93.6328 19.9804 93.6502 19.9573C93.6505 19.9569 93.6505 19.9569 93.6505 19.9569C93.705 19.8848 93.7381 19.7979 93.7435 19.7042H93.7464V10.9109C93.7464 8.57899 95.71 6.6884 98.1322 6.6884C100.554 6.6884 102.518 8.57899 102.518 10.9109L102.52 18.2609L102.52 18.2583C102.52 18.2648 102.522 18.2715 102.522 18.2785V19.7042H102.524C102.539 19.9545 102.754 20.1556 103.018 20.1556H105.198C105.231 20.1556 105.264 20.1518 105.295 20.1459C105.308 20.1436 105.32 20.1386 105.333 20.1352C105.351 20.1302 105.369 20.1259 105.386 20.1193C105.404 20.1122 105.42 20.1023 105.437 20.0931C105.448 20.0875 105.458 20.0835 105.468 20.0772C105.488 20.0644 105.507 20.049 105.525 20.0339C105.529 20.0297 105.535 20.0267 105.539 20.0225C105.56 20.0033 105.578 19.9826 105.595 19.9609C105.596 19.9592 105.597 19.9579 105.599 19.9563C105.652 19.8848 105.685 19.7985 105.691 19.7054C105.691 19.7047 105.691 19.7042 105.691 19.7042H105.694V18.7332L105.694 18.7329Z" fill="currentColor"/>
<path fill-rule="evenodd" clip-rule="evenodd" d="M82.9903 18.2209C83.0665 19.0557 83.7605 20.1182 84.963 20.1182H85.6665C85.9392 20.1182 86.1624 19.9032 86.1624 19.6406V4.75519H86.1596C86.1454 4.50441 85.9298 4.30357 85.6665 4.30357H83.4865C83.2228 4.30357 83.0075 4.50441 82.9928 4.75519H82.9903V5.96472C81.6545 4.3808 79.5487 3.72339 77.437 3.72339C72.6371 3.72339 68.7461 7.46973 68.7461 12.0914C68.7461 16.7133 72.6371 20.4598 77.437 20.4598V20.4601C79.5487 20.4601 81.8501 19.6714 82.99 18.2191L82.9903 18.2209ZM77.4455 17.531C74.3929 17.531 71.918 15.0959 71.918 12.0914C71.918 9.08748 74.3929 6.65216 77.4455 6.65216C80.4984 6.65216 82.9728 9.08748 82.9728 12.0914C82.9728 15.0959 80.4984 17.531 77.4455 17.531Z" fill="currentColor"/>
<path fill-rule="evenodd" clip-rule="evenodd" d="M55.8544 16.089C57.3097 17.0597 58.8982 17.5312 60.4247 17.5312C61.879 17.5312 63.3824 16.8053 63.3824 15.5418C63.3824 13.855 60.1064 13.5926 58.0481 12.919C55.9893 12.2455 54.2162 10.8532 54.2162 8.59836C54.2162 5.14813 57.4092 3.72314 60.3894 3.72314C62.2777 3.72314 64.2259 4.32264 65.4889 5.18142C65.9239 5.49876 65.659 5.86311 65.659 5.86311L64.4533 7.52108C64.3178 7.70782 64.0808 7.86917 63.7408 7.66704C63.4006 7.46506 62.2076 6.65201 60.3894 6.65201C58.5711 6.65201 57.4758 7.46048 57.4758 8.46256C57.4758 9.66421 58.8993 10.0421 60.5667 10.4517C63.4724 11.2058 66.642 12.1122 66.642 15.5418C66.642 18.5817 63.6887 20.4604 60.4247 20.4604C57.9513 20.4604 55.8453 19.7815 54.0791 18.5336C53.7112 18.1791 53.9681 17.8498 53.9681 17.8498L55.1679 16.2003C55.4121 15.8919 55.7198 15.9994 55.8544 16.089Z" fill="currentColor"/>
<path fill-rule="evenodd" clip-rule="evenodd" d="M47.4728 18.2209C47.549 19.0557 48.2431 20.1182 49.4454 20.1182H50.149C50.4217 20.1182 50.6452 19.9032 50.6452 19.6406V4.75519H50.6421C50.6279 4.50441 50.4125 4.30357 50.149 4.30357H47.969C47.7054 4.30357 47.4901 4.50441 47.4754 4.75519H47.4728V5.96472C46.1372 4.3808 44.0313 3.72339 41.9196 3.72339C37.1197 3.72339 33.2285 7.46973 33.2285 12.0914C33.2285 16.7133 37.1197 20.4598 41.9196 20.4598V20.4601C44.0313 20.4601 46.3326 19.6714 47.4725 18.2191L47.4728 18.2209ZM41.9281 17.531C38.8754 17.531 36.4006 15.0959 36.4006 12.0914C36.4006 9.08748 38.8754 6.65216 41.9281 6.65216C44.9808 6.65216 47.4554 9.08748 47.4554 12.0914C47.4554 15.0959 44.9808 17.531 41.9281 17.531Z" fill="currentColor"/>
<path fill-rule="evenodd" clip-rule="evenodd" d="M21.0444 12.6605C17.8142 12.6605 15.1955 15.1798 15.1955 18.2877C15.1955 21.3953 17.8142 23.9146 21.0444 23.9146C24.2746 23.9146 26.8932 21.3953 26.8932 18.2877C26.8932 15.1798 24.2746 12.6605 21.0444 12.6605ZM5.84878 12.6611C2.61862 12.6611 0 15.1798 0 18.2877C0 21.3953 2.61862 23.9146 5.84878 23.9146C9.07908 23.9146 11.6978 21.3953 11.6978 18.2877C11.6978 15.1798 9.07908 12.6611 5.84878 12.6611ZM19.2953 5.62677C19.2953 8.73465 16.6768 11.2541 13.4466 11.2541C10.2163 11.2541 7.59782 8.73465 7.59782 5.62677C7.59782 2.51952 10.2163 0 13.4466 0C16.6768 0 19.2953 2.51952 19.2953 5.62677Z" fill="#F06A6A"/>
</svg>
