<svg width="41" height="40" viewBox="0 0 41 40" fill="none" xmlns="http://www.w3.org/2000/svg">
<path d="M3.83281 16.8374C3.65551 16.8376 3.48552 16.9081 3.36015 17.0335C3.23478 17.1589 3.16426 17.3288 3.16406 17.5062V25.2749C3.16427 25.4522 3.23479 25.6222 3.36016 25.7476C3.48553 25.8729 3.65551 25.9434 3.83281 25.9437H5.30156C4.77683 24.9384 4.50239 23.8214 4.50156 22.6874C4.49276 20.8792 4.34302 18.4085 5.30156 16.8374H3.83281Z" fill="currentColor"/>
<path d="M29.7248 12.9999C31.2508 13.0007 32.7355 13.4964 33.956 14.4124V14.3187C33.9555 13.5624 33.6553 12.8371 33.1211 12.3017C32.5869 11.7664 31.8623 11.4646 31.106 11.4624H10.2185C9.83619 11.4639 9.45805 11.542 9.10639 11.6921C8.75474 11.8421 8.4367 12.0611 8.17105 12.336C7.90541 12.611 7.69753 12.9364 7.5597 13.293C7.42186 13.6496 7.35686 14.0303 7.36852 14.4124C8.58906 13.4964 10.0737 13.0007 11.5998 12.9999H29.7248Z" fill="currentColor"/>
<path d="M29.725 14.25H11.6C10.0491 14.252 8.56228 14.869 7.46562 15.9656C6.36896 17.0623 5.75198 18.5491 5.75 20.1V22.6875C5.75198 24.2384 6.36896 25.7252 7.46562 26.8219C8.56228 27.9185 10.0491 28.5355 11.6 28.5375H15.1875C15.2991 28.5363 15.4088 28.5077 15.5068 28.4544C15.6049 28.401 15.6884 28.3244 15.75 28.2312L18.4562 24.1062C19.0571 23.1804 20.4069 23.362 21.35 23.3562C21.644 23.3545 21.9344 23.4214 22.1981 23.5516C22.4617 23.6818 22.6914 23.8717 22.8687 24.1062L25.5812 28.2312C25.6416 28.3242 25.7239 28.4007 25.8209 28.4542C25.918 28.5076 26.0267 28.5362 26.1375 28.5375H29.725C31.2759 28.5355 32.7627 27.9185 33.8594 26.8219C34.956 25.7252 35.573 24.2384 35.575 22.6875V20.1C35.573 18.5491 34.956 17.0623 33.8594 15.9656C32.7627 14.869 31.2759 14.252 29.725 14.25Z" fill="currentColor"/>
<path d="M37.4922 16.8374H36.0234C36.5482 17.8449 36.8226 18.9639 36.8233 20.0999C36.8322 21.9065 36.9824 24.3745 36.0234 25.9437H37.4922C37.6695 25.9435 37.8395 25.873 37.9649 25.7476C38.0902 25.6222 38.1607 25.4522 38.1609 25.2749V17.5062C38.1607 17.3288 38.0902 17.1589 37.9648 17.0335C37.8395 16.9081 37.6695 16.8376 37.4922 16.8374Z" fill="currentColor"/>
</svg>
