<svg width="40" height="40" viewBox="0 0 40 40" fill="none" xmlns="http://www.w3.org/2000/svg">
<g clip-path="url(#clip0_1539_45366)">
<path fill-rule="evenodd" clip-rule="evenodd" d="M27.706 11.8681C27.4724 14.8984 26.895 17.6928 25.7068 20.13C25.2556 21.0638 24.7043 21.9458 24.0625 22.7605L22.8652 20.6824C22.5749 20.1797 22.1574 19.7623 21.6547 19.4721C21.1519 19.1819 20.5817 19.0291 20.0012 19.0291C19.4207 19.0291 18.8504 19.1819 18.3477 19.4721C17.845 19.7623 17.4275 20.1797 17.1371 20.6824L15.9375 22.7605C15.2974 21.9447 14.7462 21.0629 14.2933 20.13C13.1072 17.6925 12.53 14.8984 12.2964 11.8681C13.6508 11.3991 14.973 10.8416 16.2543 10.1992C17.5504 9.54872 18.8021 8.81332 20.0011 7.99775C21.2002 8.81333 22.4519 9.54874 23.748 10.1992C25.0294 10.8416 26.3515 11.3991 27.706 11.8681ZM2.94535 16.1743C2.64463 16.1743 2.34968 16.2569 2.09266 16.413C1.83565 16.5691 1.62645 16.7929 1.48788 17.0597C1.34931 17.3266 1.28668 17.6265 1.30684 17.9265C1.327 18.2265 1.42916 18.5153 1.60219 18.7613C1.77522 19.0072 2.01247 19.2009 2.28805 19.3213C2.56364 19.4416 2.86699 19.484 3.165 19.4438C3.46302 19.4035 3.74426 19.2822 3.97806 19.0931C4.21186 18.9039 4.38922 18.6542 4.49082 18.3712H9.60941C9.50387 18.005 9.40504 17.6368 9.31511 17.2618H4.49043C4.37622 16.9435 4.16652 16.6682 3.88997 16.4736C3.61343 16.2789 3.28353 16.1744 2.94535 16.1743ZM15.3446 23.7893C14.5347 22.8193 13.8474 21.7533 13.2982 20.6153C11.9908 17.9331 11.3866 14.8625 11.1641 11.5467C11.1484 11.4197 11.1771 11.2912 11.2455 11.1831C11.3139 11.075 11.4176 10.9939 11.5391 10.9537C12.9866 10.476 14.3973 9.8935 15.7601 9.21072C17.1187 8.52608 18.427 7.74613 19.6754 6.87674C19.7687 6.80944 19.8805 6.77267 19.9956 6.77147C20.1106 6.77026 20.2232 6.80469 20.3179 6.87002C21.5684 7.7429 22.8799 8.52513 24.2422 9.21072C25.6044 9.89313 27.0144 10.4757 28.461 10.9538C28.5772 10.992 28.6774 11.0676 28.7461 11.1688C28.8148 11.27 28.848 11.3911 28.8406 11.5131C28.6204 14.8444 28.0162 17.9241 26.7043 20.6152C26.1543 21.7527 25.467 22.8187 24.658 23.7892L25.4824 25.2178C29.0673 21.2263 30.2891 15.9138 30.4735 9.93635C26.6211 8.88283 23.1688 7.14197 20.0011 4.71143C16.8339 7.14197 13.379 8.8826 9.5266 9.93635C9.71308 15.9137 10.935 21.2263 14.5201 25.2176L15.3446 23.7893ZM1.64207 12.4836C1.98028 12.4836 2.31023 12.3792 2.58685 12.1846C2.86347 11.99 3.07326 11.7147 3.18754 11.3964H5.99097L7.13207 14.4607C7.1651 14.5777 7.23541 14.6806 7.33232 14.754C7.42922 14.8273 7.54742 14.867 7.66894 14.867H8.84863C8.79254 14.5008 8.74074 14.1326 8.6959 13.7596H8.05082L6.89168 10.6482C6.85211 10.5426 6.78121 10.4515 6.68847 10.3873C6.59573 10.3231 6.48558 10.2887 6.37277 10.2888V10.2866H3.18754C3.08593 10.0036 2.90856 9.75389 2.67478 9.56478C2.44099 9.37567 2.15976 9.25438 1.86177 9.21416C1.56377 9.17393 1.26045 9.2163 0.984888 9.33665C0.709325 9.457 0.472099 9.65071 0.299085 9.89664C0.126072 10.1426 0.0239128 10.4313 0.00375121 10.7313C-0.0164104 11.0314 0.0461994 11.3311 0.184752 11.598C0.323304 11.8649 0.532479 12.0886 0.789463 12.2447C1.04645 12.4009 1.34137 12.4835 1.64207 12.4835V12.4836ZM35.5119 18.3712C35.6425 18.7351 35.8974 19.0413 36.2316 19.2358C36.5658 19.4302 36.958 19.5005 37.3389 19.4342C37.7199 19.3679 38.0652 19.1693 38.3141 18.8734C38.563 18.5775 38.6995 18.2032 38.6995 17.8165C38.6995 17.4298 38.563 17.0556 38.3141 16.7596C38.0652 16.4637 37.7199 16.2651 37.3389 16.1988C36.958 16.1325 36.5658 16.2028 36.2316 16.3972C35.8974 16.5917 35.6425 16.8979 35.5119 17.2618H30.6846C30.5947 17.6368 30.4982 18.0053 30.3925 18.3712H35.5119ZM32.868 14.4607L34.0114 11.3967H36.8125C36.9432 11.7607 37.198 12.0669 37.5323 12.2613C37.8665 12.4558 38.2586 12.5261 38.6396 12.4598C39.0205 12.3935 39.3658 12.1949 39.6147 11.8989C39.8636 11.603 40.0001 11.2287 40.0001 10.8421C40.0001 10.4554 39.8636 10.0811 39.6147 9.78516C39.3658 9.48923 39.0205 9.29062 38.6396 9.22433C38.2586 9.15804 37.8665 9.22831 37.5323 9.42278C37.198 9.61724 36.9432 9.92342 36.8125 10.2874H33.6273V10.2896C33.5148 10.2899 33.4051 10.3244 33.3128 10.3886C33.2205 10.4528 33.1499 10.5437 33.1106 10.649L31.9515 13.7602H31.3047C31.2598 14.1331 31.2104 14.5014 31.1542 14.8676H32.3339C32.4552 14.8678 32.5732 14.828 32.6697 14.7545C32.7663 14.681 32.8359 14.5777 32.868 14.4607ZM6.37277 25.3435C6.48558 25.3436 6.59573 25.3093 6.68847 25.2451C6.78121 25.1808 6.85211 25.0898 6.89168 24.9842L8.05082 21.873H10.9463C10.7689 21.5092 10.6025 21.1407 10.4453 20.7636H7.66894C7.54706 20.7637 7.42856 20.8037 7.33159 20.8775C7.23462 20.9514 7.16453 21.055 7.13207 21.1724L5.99097 24.2363H3.18754C3.05692 23.8724 2.80204 23.5662 2.46782 23.3718C2.1336 23.1773 1.74147 23.107 1.36052 23.1733C0.979566 23.2396 0.634229 23.4382 0.385346 23.7341C0.136462 24.0301 0 24.4044 0 24.791C0 25.1777 0.136462 25.552 0.385346 25.8479C0.634229 26.1439 0.979566 26.3425 1.36052 26.4088C1.74147 26.475 2.1336 26.4048 2.46782 26.2103C2.80204 26.0158 3.05692 25.7097 3.18754 25.3457H6.37277V25.3435ZM38.3579 23.1488C38.0198 23.1492 37.6899 23.2538 37.4134 23.4484C37.1368 23.643 36.927 23.9182 36.8125 24.2363H34.0114L32.868 21.1724C32.8363 21.0549 32.7668 20.9511 32.6701 20.8772C32.5735 20.8032 32.4551 20.7633 32.3334 20.7635H29.557C29.3997 21.1409 29.2335 21.5093 29.0561 21.8729H31.9515L33.1106 24.9842C33.1499 25.0895 33.2205 25.1803 33.3128 25.2446C33.4051 25.3088 33.5148 25.3433 33.6273 25.3435V25.3458H36.8125C36.9142 25.6288 37.0915 25.8785 37.3253 26.0676C37.5591 26.2567 37.8404 26.3779 38.1384 26.4182C38.4363 26.4584 38.7397 26.416 39.0152 26.2956C39.2908 26.1753 39.528 25.9816 39.701 25.7356C39.874 25.4897 39.9762 25.2009 39.9963 24.9009C40.0164 24.6009 39.9538 24.3011 39.8153 24.0342C39.6767 23.7674 39.4675 23.5437 39.2105 23.3875C38.9536 23.2314 38.6586 23.1488 38.3579 23.1488ZM33.1443 29.6968C33.0264 29.6641 32.905 29.6453 32.7827 29.6407L31.6932 26.1795C31.6667 26.0938 31.6197 26.0158 31.5563 25.9524C31.4929 25.889 31.4149 25.842 31.3293 25.8155L27.4207 24.5889C27.1893 24.9056 26.9467 25.2178 26.6929 25.5211L30.7228 26.7858L31.7266 29.9756C31.4316 30.1999 31.2213 30.5175 31.1299 30.8766C31.0384 31.2357 31.0713 31.6151 31.2231 31.9532C31.3749 32.2912 31.6367 32.5679 31.9658 32.7381C32.295 32.9083 32.672 32.9621 33.0356 32.8906C33.3992 32.8192 33.7279 32.6267 33.9681 32.3445C34.2083 32.0624 34.346 31.7072 34.3585 31.3369C34.3711 30.9666 34.2579 30.6029 34.0373 30.3051C33.8168 30.0073 33.5019 29.793 33.144 29.6971L33.1443 29.6968ZM13.3094 25.5212C13.0533 25.2179 12.813 24.9057 12.5816 24.589L8.67082 25.8156C8.58501 25.8425 8.50705 25.89 8.44366 25.9538C8.38026 26.0176 8.33333 26.0958 8.30691 26.1818L7.21965 29.641C7.09731 29.6453 6.97592 29.6641 6.85801 29.6971C6.54432 29.7812 6.26262 29.9564 6.04856 30.2006C5.83449 30.4449 5.69767 30.7471 5.65541 31.0691C5.61314 31.3911 5.66733 31.7184 5.81112 32.0096C5.95491 32.3008 6.18184 32.5428 6.4632 32.705C6.74456 32.8673 7.0677 32.9424 7.39176 32.9209C7.71581 32.8994 8.02622 32.7823 8.2837 32.5844C8.54119 32.3864 8.73418 32.1166 8.83827 31.809C8.94236 31.5013 8.95288 31.1697 8.86847 30.8561C8.77454 30.5047 8.56579 30.1948 8.27543 29.9756L9.2773 26.7859L13.3094 25.5212ZM28.1125 31.9928C28.3054 32.3268 28.4069 32.7056 28.4069 33.0913C28.4069 33.4769 28.3053 33.8558 28.1125 34.1897C27.9197 34.5237 27.6424 34.801 27.3084 34.9938C26.9744 35.1866 26.5956 35.2882 26.21 35.2881H13.7924C13.4067 35.2882 13.0279 35.1867 12.6939 34.9939C12.3599 34.8011 12.0826 34.5237 11.8898 34.1898C11.6969 33.8558 11.5954 33.4769 11.5954 33.0913C11.5954 32.7057 11.6969 32.3268 11.8897 31.9928L14.9942 26.6152L18.0986 21.2375C18.2914 20.9035 18.5687 20.6262 18.9027 20.4334C19.2367 20.2406 19.6155 20.139 20.0012 20.139C20.3868 20.139 20.7657 20.2406 21.0996 20.4334C21.4336 20.6262 21.711 20.9035 21.9038 21.2375L25.0079 26.6152L28.1125 31.9928ZM20.8974 32.4017C20.8974 32.2244 20.8448 32.0511 20.7463 31.9037C20.6479 31.7563 20.5079 31.6415 20.3441 31.5736C20.1803 31.5058 20.0001 31.4881 19.8263 31.5226C19.6524 31.5572 19.4927 31.6426 19.3674 31.7679C19.242 31.8933 19.1567 32.053 19.1221 32.2268C19.0875 32.4007 19.1053 32.5809 19.1731 32.7446C19.2409 32.9084 19.3558 33.0484 19.5032 33.1469C19.6506 33.2453 19.8239 33.2979 20.0011 33.2979C20.2387 33.2975 20.4664 33.203 20.6344 33.035C20.8024 32.867 20.897 32.6392 20.8974 32.4017ZM21.0996 24.0319C21.099 23.9809 21.0882 23.9305 21.068 23.8837C21.0477 23.8369 21.0183 23.7945 20.9815 23.7592C20.9447 23.7239 20.9012 23.6962 20.8536 23.6779C20.806 23.6595 20.7553 23.6508 20.7043 23.6523H19.298C19.2469 23.6504 19.196 23.6588 19.1482 23.6771C19.1004 23.6953 19.0568 23.7229 19.0199 23.7583C18.983 23.7937 18.9536 23.8362 18.9335 23.8832C18.9133 23.9302 18.9028 23.9808 18.9026 24.0319L19.1969 29.8813C19.2007 29.9834 19.2441 30.0801 19.3179 30.151C19.3916 30.2218 19.49 30.2612 19.5922 30.2609H20.41C20.5121 30.2608 20.6102 30.2213 20.6839 30.1505C20.7576 30.0798 20.8011 29.9833 20.8053 29.8813L21.0996 24.0319Z" fill="currentColor"/>
</g>
<defs>
<clipPath id="clip0_1539_45366">
<rect width="40" height="40" fill="currentColor"/>
</clipPath>
</defs>
</svg>
