<svg width="32" height="34" viewBox="0 0 32 34" fill="none" xmlns="http://www.w3.org/2000/svg">
<path d="M13.696 0.333496C9.46718 0.333496 6.03906 3.76161 6.03906 7.99041C6.03906 12.2192 9.46718 15.6473 13.696 15.6473C17.9248 15.6473 21.3528 12.2192 21.3528 7.99041C21.3528 3.76161 17.9248 0.333496 13.696 0.333496Z" fill="currentColor"/>
<path d="M13.8057 19.0435C14.0954 18.5416 13.7089 17.8076 13.1294 17.8076H11.5362C5.32028 17.8076 0.28125 22.8466 0.28125 29.0624C0.28125 31.6053 2.34258 33.6666 4.88535 33.6666H15.9387C16.5054 33.6666 16.4542 33.1193 15.9466 32.8678C15.2187 32.5071 14.5857 31.9351 14.1492 31.179L13.0911 29.3461C12.3489 28.0608 12.3514 26.5501 12.9646 25.3131C13.1196 25.0005 13.1196 24.6279 12.9646 24.3151C12.3512 23.0781 12.3487 21.5673 13.0907 20.2818L13.8057 19.0435Z" fill="currentColor"/>
<path fill-rule="evenodd" clip-rule="evenodd" d="M22.0004 16.4741C21.0559 16.4741 20.2901 17.24 20.2901 18.1845V18.1988C20.2901 18.5275 20.0944 18.8215 19.8061 18.9795C19.7437 19.0138 19.6821 19.0488 19.6209 19.085C19.3414 19.2501 18.9937 19.27 18.7126 19.1076L18.7022 19.1016C17.8841 18.6293 16.8381 18.9096 16.3657 19.7276L15.3076 21.5605C14.8352 22.3786 15.1156 23.4246 15.9336 23.897C16.2064 24.0545 16.3576 24.357 16.3511 24.672C16.3501 24.7188 16.3496 24.7658 16.3496 24.813C16.3496 24.8608 16.3501 24.9085 16.3511 24.9561C16.3577 25.271 16.2066 25.5736 15.9337 25.731C15.1157 26.2033 14.8354 27.2495 15.3077 28.0675L16.3659 29.9003C16.8382 30.7183 17.8844 30.9986 18.7024 30.5263L18.7144 30.5195C18.9956 30.3571 19.3431 30.377 19.6226 30.542C19.6831 30.5776 19.7442 30.6125 19.8061 30.6465C20.0944 30.8045 20.2901 31.0985 20.2901 31.4273V31.4435C20.2901 32.388 21.0559 33.1538 22.0004 33.1538H24.1169C25.0614 33.1538 25.8272 32.388 25.8272 31.4435V31.3595C25.8272 31.0368 26.0159 30.7471 26.2961 30.5868C26.3396 30.5618 26.3829 30.5363 26.4261 30.5105C26.7066 30.3411 27.0577 30.3195 27.3414 30.4833L27.4161 30.5263C28.2342 30.9986 29.2802 30.7183 29.7526 29.9003L30.8107 28.0675C31.2831 27.2495 31.0027 26.2033 30.1847 25.731L30.0802 25.6708C29.7996 25.5086 29.6429 25.1986 29.6459 24.8745C29.6461 24.854 29.6461 24.8335 29.6461 24.813C29.6461 24.7931 29.6461 24.7731 29.6459 24.7533C29.6431 24.4293 29.7997 24.1193 30.0802 23.9573L30.1849 23.897C31.0029 23.4246 31.2832 22.3786 30.8109 21.5605L29.7527 19.7276C29.2804 18.9096 28.2344 18.6293 27.4164 19.1016L27.3432 19.1438C27.0594 19.3076 26.7082 19.2858 26.4276 19.1165C26.3841 19.0903 26.3402 19.0645 26.2961 19.0391C26.0159 18.8788 25.8272 18.5891 25.8272 18.2665V18.1845C25.8272 17.24 25.0614 16.4741 24.1169 16.4741H22.0004ZM26.5089 24.814C26.5089 26.719 24.9646 28.2635 23.0594 28.2635C21.1544 28.2635 19.6101 26.719 19.6101 24.814C19.6101 22.909 21.1544 21.3645 23.0594 21.3645C24.9646 21.3645 26.5089 22.909 26.5089 24.814Z" fill="currentColor"/>
</svg>
