<svg width="41" height="40" viewBox="0 0 41 40" fill="none" xmlns="http://www.w3.org/2000/svg">
<g clip-path="url(#clip0_1539_23826)">
<mask id="path-1-inside-1_1539_23826" fill="currentColor">
<path d="M24.418 0H5.2513C2.71797 0 0.667969 2.05 0.667969 4.58333V30.4167C0.667969 32.95 2.71797 35 5.2513 35H18.818C17.3513 33 16.5013 30.5667 16.5013 27.9167C16.5013 21.25 21.918 15.8333 28.5846 15.8333C28.718 15.8333 28.868 15.8333 29.0013 15.85V4.58333C29.0013 2.05 26.9513 0 24.418 0ZM7.33464 6.66667H14.0013C14.918 6.66667 15.668 7.41667 15.668 8.33333C15.668 9.25 14.918 10 14.0013 10H7.33464C6.41797 10 5.66797 9.25 5.66797 8.33333C5.66797 7.41667 6.41797 6.66667 7.33464 6.66667ZM15.668 23.3333H7.33464C6.41797 23.3333 5.66797 22.5833 5.66797 21.6667C5.66797 20.75 6.41797 20 7.33464 20H15.668C16.5846 20 17.3346 20.75 17.3346 21.6667C17.3346 22.5833 16.5846 23.3333 15.668 23.3333ZM22.3346 16.6667H7.33464C6.41797 16.6667 5.66797 15.9167 5.66797 15C5.66797 14.0833 6.41797 13.3333 7.33464 13.3333H22.3346C23.2513 13.3333 24.0013 14.0833 24.0013 15C24.0013 15.9167 23.2513 16.6667 22.3346 16.6667Z"/>
</mask>
<path d="M24.418 0H5.2513C2.71797 0 0.667969 2.05 0.667969 4.58333V30.4167C0.667969 32.95 2.71797 35 5.2513 35H18.818C17.3513 33 16.5013 30.5667 16.5013 27.9167C16.5013 21.25 21.918 15.8333 28.5846 15.8333C28.718 15.8333 28.868 15.8333 29.0013 15.85V4.58333C29.0013 2.05 26.9513 0 24.418 0ZM7.33464 6.66667H14.0013C14.918 6.66667 15.668 7.41667 15.668 8.33333C15.668 9.25 14.918 10 14.0013 10H7.33464C6.41797 10 5.66797 9.25 5.66797 8.33333C5.66797 7.41667 6.41797 6.66667 7.33464 6.66667ZM15.668 23.3333H7.33464C6.41797 23.3333 5.66797 22.5833 5.66797 21.6667C5.66797 20.75 6.41797 20 7.33464 20H15.668C16.5846 20 17.3346 20.75 17.3346 21.6667C17.3346 22.5833 16.5846 23.3333 15.668 23.3333ZM22.3346 16.6667H7.33464C6.41797 16.6667 5.66797 15.9167 5.66797 15C5.66797 14.0833 6.41797 13.3333 7.33464 13.3333H22.3346C23.2513 13.3333 24.0013 14.0833 24.0013 15C24.0013 15.9167 23.2513 16.6667 22.3346 16.6667Z" fill="currentColor"/>
<path d="M18.818 35V56.3333H60.9173L36.0213 22.3842L18.818 35ZM29.0013 15.85L26.3552 37.0186L50.3346 40.016V15.85H29.0013ZM24.418 -21.3333H5.2513V21.3333H24.418V-21.3333ZM5.2513 -21.3333C-9.06411 -21.3333 -20.6654 -9.73208 -20.6654 4.58333H22.0013C22.0013 13.8321 14.5 21.3333 5.2513 21.3333V-21.3333ZM-20.6654 4.58333V30.4167H22.0013V4.58333H-20.6654ZM-20.6654 30.4167C-20.6654 44.7321 -9.06411 56.3333 5.2513 56.3333V13.6667C14.5 13.6667 22.0013 21.1679 22.0013 30.4167H-20.6654ZM5.2513 56.3333H18.818V13.6667H5.2513V56.3333ZM36.0213 22.3842C37.1514 23.9253 37.8346 25.8851 37.8346 27.9167H-4.83203C-4.83203 35.2482 -2.4488 42.0747 1.61466 47.6158L36.0213 22.3842ZM37.8346 27.9167C37.8346 33.0321 33.7 37.1667 28.5846 37.1667V-5.5C10.1359 -5.5 -4.83203 9.46792 -4.83203 27.9167H37.8346ZM28.5846 37.1667C28.6988 37.1667 28.4591 37.1682 28.1658 37.1595C27.8698 37.1508 27.2074 37.1251 26.3552 37.0186L31.6474 -5.3186C30.6619 -5.44178 29.8578 -5.47582 29.4202 -5.4887C28.9852 -5.50149 28.6038 -5.5 28.5846 -5.5V37.1667ZM50.3346 15.85V4.58333H7.66797V15.85H50.3346ZM50.3346 4.58333C50.3346 -9.73208 38.7334 -21.3333 24.418 -21.3333V21.3333C15.1692 21.3333 7.66797 13.8321 7.66797 4.58333H50.3346ZM7.33464 28H14.0013V-14.6667H7.33464V28ZM14.0013 28C3.1359 28 -5.66536 19.1987 -5.66536 8.33333H37.0013C37.0013 -4.36541 26.7 -14.6667 14.0013 -14.6667V28ZM-5.66536 8.33333C-5.66536 -2.53208 3.1359 -11.3333 14.0013 -11.3333V31.3333C26.7 31.3333 37.0013 21.0321 37.0013 8.33333H-5.66536ZM14.0013 -11.3333H7.33464V31.3333H14.0013V-11.3333ZM7.33464 -11.3333C18.2 -11.3333 27.0013 -2.53208 27.0013 8.33333H-15.6654C-15.6654 21.0321 -5.3641 31.3333 7.33464 31.3333V-11.3333ZM27.0013 8.33333C27.0013 19.1987 18.2 28 7.33464 28V-14.6667C-5.3641 -14.6667 -15.6654 -4.36541 -15.6654 8.33333H27.0013ZM15.668 2H7.33464V44.6667H15.668V2ZM7.33464 2C18.2 2 27.0013 10.8013 27.0013 21.6667H-15.6654C-15.6654 34.3654 -5.3641 44.6667 7.33464 44.6667V2ZM27.0013 21.6667C27.0013 32.5321 18.2 41.3333 7.33464 41.3333V-1.33333C-5.3641 -1.33333 -15.6654 8.96792 -15.6654 21.6667H27.0013ZM7.33464 41.3333H15.668V-1.33333H7.33464V41.3333ZM15.668 41.3333C4.80256 41.3333 -3.9987 32.5321 -3.9987 21.6667H38.668C38.668 8.96792 28.3667 -1.33333 15.668 -1.33333V41.3333ZM-3.9987 21.6667C-3.9987 10.8013 4.80256 2 15.668 2V44.6667C28.3667 44.6667 38.668 34.3654 38.668 21.6667H-3.9987ZM22.3346 -4.66667H7.33464V38H22.3346V-4.66667ZM7.33464 -4.66667C18.2 -4.66667 27.0013 4.13459 27.0013 15H-15.6654C-15.6654 27.6987 -5.3641 38 7.33464 38V-4.66667ZM27.0013 15C27.0013 25.8654 18.2 34.6667 7.33464 34.6667V-8C-5.3641 -8 -15.6654 2.30126 -15.6654 15H27.0013ZM7.33464 34.6667H22.3346V-8H7.33464V34.6667ZM22.3346 34.6667C11.4692 34.6667 2.66797 25.8654 2.66797 15H45.3346C45.3346 2.30126 35.0334 -8 22.3346 -8V34.6667ZM2.66797 15C2.66797 4.13459 11.4692 -4.66667 22.3346 -4.66667V38C35.0334 38 45.3346 27.6987 45.3346 15H2.66797Z" fill="currentColor" mask="url(#path-1-inside-1_1539_23826)"/>
<mask id="path-3-inside-2_1539_23826" fill="currentColor">
<path d="M28.5859 36.6665C23.7609 36.6665 19.8359 32.7415 19.8359 27.9165C19.8359 23.0915 23.7609 19.1665 28.5859 19.1665C33.4109 19.1665 37.3359 23.0915 37.3359 27.9165C37.3359 32.7415 33.4109 36.6665 28.5859 36.6665ZM28.5859 22.4998C25.5993 22.4998 23.1693 24.9298 23.1693 27.9165C23.1693 30.9032 25.5993 33.3332 28.5859 33.3332C31.5726 33.3332 34.0026 30.9032 34.0026 27.9165C34.0026 24.9298 31.5726 22.4998 28.5859 22.4998Z"/>
</mask>
<path d="M28.5859 36.6665C23.7609 36.6665 19.8359 32.7415 19.8359 27.9165C19.8359 23.0915 23.7609 19.1665 28.5859 19.1665C33.4109 19.1665 37.3359 23.0915 37.3359 27.9165C37.3359 32.7415 33.4109 36.6665 28.5859 36.6665ZM28.5859 22.4998C25.5993 22.4998 23.1693 24.9298 23.1693 27.9165C23.1693 30.9032 25.5993 33.3332 28.5859 33.3332C31.5726 33.3332 34.0026 30.9032 34.0026 27.9165C34.0026 24.9298 31.5726 22.4998 28.5859 22.4998Z" fill="currentColor"/>
<path d="M28.5859 15.3332C35.543 15.3332 41.1693 20.9594 41.1693 27.9165H-1.4974C-1.4974 44.5236 11.9789 57.9998 28.5859 57.9998V15.3332ZM41.1693 27.9165C41.1693 34.8736 35.543 40.4998 28.5859 40.4998V-2.16683C11.9789 -2.16683 -1.4974 11.3094 -1.4974 27.9165H41.1693ZM28.5859 40.4998C21.6289 40.4998 16.0026 34.8736 16.0026 27.9165H58.6693C58.6693 11.3094 45.193 -2.16683 28.5859 -2.16683V40.4998ZM16.0026 27.9165C16.0026 20.9594 21.6289 15.3332 28.5859 15.3332V57.9998C45.193 57.9998 58.6693 44.5236 58.6693 27.9165H16.0026ZM28.5859 1.1665C13.8172 1.1665 1.83594 13.1478 1.83594 27.9165H44.5026C44.5026 36.7119 37.3813 43.8332 28.5859 43.8332V1.1665ZM1.83594 27.9165C1.83594 42.6852 13.8172 54.6665 28.5859 54.6665V11.9998C37.3813 11.9998 44.5026 19.1211 44.5026 27.9165H1.83594ZM28.5859 54.6665C43.3547 54.6665 55.3359 42.6852 55.3359 27.9165H12.6693C12.6693 19.1211 19.7905 11.9998 28.5859 11.9998V54.6665ZM55.3359 27.9165C55.3359 13.1478 43.3547 1.1665 28.5859 1.1665V43.8332C19.7905 43.8332 12.6693 36.7119 12.6693 27.9165H55.3359Z" fill="currentColor" mask="url(#path-3-inside-2_1539_23826)"/>
<path d="M33.4415 31.2557C33.9142 31.215 34.4009 31.3758 34.7634 31.7383L39.0017 35.9766L40.1801 37.1549C40.5428 37.5177 40.7036 38.0049 40.6625 38.478C40.4435 38.7561 40.2057 39.0242 39.9492 39.2807C39.6929 39.5371 39.4249 39.7747 39.147 39.9936C39.0987 39.9978 39.0502 39.9999 39.0017 39.9999C38.5751 39.9999 38.1484 39.8366 37.8234 39.5116L32.4067 34.0949C32.044 33.7322 31.8831 33.245 31.9242 32.7719C32.1433 32.4938 32.3811 32.2256 32.6376 31.9691C32.894 31.7127 33.1626 31.4749 33.4415 31.2557Z" fill="currentColor" stroke="currentColor" stroke-width="21.3333"/>
</g>
<defs>
<clipPath id="clip0_1539_23826">
<rect width="40" height="40" fill="currentColor" transform="translate(0.667969)"/>
</clipPath>
</defs>
</svg>
