<svg width="40" height="40" viewBox="0 0 40 40" fill="none" xmlns="http://www.w3.org/2000/svg">
<path fill-rule="evenodd" clip-rule="evenodd" d="M4.14706 17.4275C3.65918 17.4275 3.27309 17.0101 3.34046 16.527C4.29274 9.6956 9.69966 4.29055 16.5319 3.3411C17.0149 3.27397 17.4321 3.66 17.4321 4.14775V5.26089C17.4321 5.95415 17.9941 6.51615 18.6874 6.51615C19.3806 6.51615 19.9426 5.95415 19.9426 5.26089V4.1487C19.9426 3.66082 20.3599 3.27472 20.8431 3.3421C28.3774 4.39272 34.1766 10.8619 34.1766 18.6855C34.1766 18.7611 34.1761 18.8366 34.1749 18.9121C34.1663 19.5203 33.5003 19.8666 32.9393 19.6313C31.7301 19.124 30.4021 18.8436 29.0088 18.8436C23.3938 18.8436 18.8421 23.3953 18.8421 29.0103C18.8421 30.4036 19.1224 31.7316 19.6298 32.9408C19.8651 33.5018 19.5189 34.1678 18.9106 34.1765C18.8353 34.1776 18.7596 34.1781 18.6839 34.1781C10.8581 34.1781 4.38744 28.3756 3.33964 20.8383C3.27249 20.3551 3.65854 19.938 4.14629 19.938H5.26553C5.95879 19.938 6.52079 19.376 6.52079 18.6828C6.52079 17.9895 5.95879 17.4275 5.26553 17.4275H4.14706ZM19.9401 12.4524C19.9401 11.7591 19.3781 11.1971 18.6849 11.1971C17.9916 11.1971 17.4296 11.7591 17.4296 12.4524V18.204C17.4296 18.4346 17.3343 18.655 17.1661 18.813L13.9863 21.8003C13.4811 22.275 13.4563 23.0693 13.9309 23.5746C14.4056 24.0798 15.2 24.1046 15.7053 23.63L19.2804 20.2713C19.7014 19.8758 19.9401 19.324 19.9401 18.7465V12.4524Z" fill="currentColor"/>
<path fill-rule="evenodd" clip-rule="evenodd" d="M29.0077 36.6667C33.2361 36.6667 36.6639 33.239 36.6639 29.0105C36.6639 24.7822 33.2361 21.3545 29.0077 21.3545C24.7794 21.3545 21.3516 24.7822 21.3516 29.0105C21.3516 33.239 24.7794 36.6667 29.0077 36.6667ZM33.0771 27.9623C33.5182 27.4275 33.4421 26.6363 32.9072 26.1952C32.3724 25.7542 31.5812 25.8302 31.1402 26.365L29.1812 28.7407C28.8772 29.1095 28.3262 29.1485 27.9732 28.8263L27.3099 28.2208C26.7979 27.7535 26.0039 27.7898 25.5366 28.3018C25.0692 28.8138 25.1056 29.6078 25.6176 30.0752L27.3349 31.6425C28.1372 32.3748 29.4727 32.3332 30.1982 31.4535L33.0771 27.9623Z" fill="currentColor"/>
</svg>
