<svg width="22" height="22" viewBox="0 0 22 22" fill="none" xmlns="http://www.w3.org/2000/svg">
<path d="M7.21017 17.699L6.40918 18.5H4.8618C4.55121 17.6289 3.72646 17 2.75 17C1.50928 17 0.5 18.0093 0.5 19.25C0.5 20.4907 1.50928 21.5 2.75 21.5C3.72646 21.5 4.55121 20.8711 4.8618 20H6.71973C6.91895 20 7.10938 19.9209 7.25 19.7803L8.63451 18.3958C8.11536 18.2696 7.63109 18.0283 7.21017 17.699Z" fill="currentColor"/>
<path d="M20 17.1384V15.5002C20 15.3014 19.9209 15.1106 19.7803 14.9699L18.2937 13.4834C17.9563 13.8626 17.5503 14.1785 17.0856 14.3964L18.5 15.8108V17.1384C17.6289 17.449 17 18.2738 17 19.2502C17 20.4909 18.0093 21.5002 19.25 21.5002C20.4907 21.5002 21.5 20.4909 21.5 19.2502C21.5 18.2738 20.8711 17.449 20 17.1384Z" fill="currentColor"/>
<path d="M19.25 0.5C18.0093 0.5 17 1.50928 17 2.75C17 3.72646 17.6289 4.55116 18.5 4.86176V6.875L17.3348 7.74905C17.7859 8.00485 18.1765 8.34721 18.4867 8.75961L19.6997 7.84985C19.8887 7.7085 20 7.48621 20 7.25V4.8618C20.8711 4.55121 21.5 3.72646 21.5 2.75C21.5 1.50928 20.4907 0.5 19.25 0.5Z" fill="currentColor"/>
<path d="M4.8618 3.5H6.40918L7.21017 4.30099C7.63109 3.97168 8.11536 3.73039 8.63451 3.60423L7.25 2.21973C7.10938 2.0791 6.91895 2 6.71973 2H4.8618C4.55121 1.12888 3.72646 0.5 2.75 0.5C1.50928 0.5 0.5 1.50928 0.5 2.75C0.5 3.99072 1.50928 5 2.75 5C3.72646 5 4.55121 4.37112 4.8618 3.5Z" fill="currentColor"/>
<path d="M15.5 8H15.2367C14.8137 7.11638 13.9182 6.5 12.875 6.5C12.7151 6.5 12.5602 6.51968 12.4082 6.5472C12.0899 5.23259 10.9114 4.25 9.5 4.25C8.39441 4.25 7.43759 4.85768 6.91725 5.75H6.5C4.96608 5.75 3.71231 6.91107 3.53561 8.39789C2.62389 8.91319 2 9.88013 2 11C2 12.1199 2.62389 13.0868 3.53561 13.6021C3.71231 15.0889 4.96608 16.25 6.5 16.25H6.91725C7.43759 17.1423 8.39441 17.75 9.5 17.75C10.9114 17.75 12.0899 16.7674 12.4082 15.4528C12.5602 15.4803 12.7151 15.5 12.875 15.5C13.9182 15.5 14.8137 14.8836 15.2367 14H15.5C17.1545 14 18.5 12.6542 18.5 11C18.5 9.34583 17.1545 8 15.5 8ZM6.125 6.5C6.33228 6.5 6.5 6.66772 6.5 6.875C6.5 7.08228 6.33228 7.25 6.125 7.25C5.50464 7.25 5 7.75464 5 8.375C5 8.58228 4.83228 8.75 4.625 8.75C4.41772 8.75 4.25 8.58228 4.25 8.375C4.25 7.34119 5.09082 6.5 6.125 6.5ZM5.75 12.875C5.75 13.4954 6.25464 14 6.875 14C7.08228 14 7.25 14.1677 7.25 14.375C7.25 14.5823 7.08228 14.75 6.875 14.75C5.84082 14.75 5 13.9088 5 12.875C5 12.8618 5.00618 12.8506 5.00751 12.8378C4.14897 12.6664 3.5 11.908 3.5 11C3.5 10.7927 3.66772 10.625 3.875 10.625C4.08228 10.625 4.25 10.7927 4.25 11C4.25 11.6204 4.75464 12.125 5.375 12.125C5.99536 12.125 6.5 11.6204 6.5 11C6.5 10.7927 6.66772 10.625 6.875 10.625C7.08228 10.625 7.25 10.7927 7.25 11C7.25 11.908 6.60103 12.6664 5.74249 12.8378C5.74382 12.8506 5.75 12.8618 5.75 12.875ZM11.375 7.625C10.7546 7.625 10.25 8.12964 10.25 8.75C10.25 8.95728 10.0823 9.125 9.875 9.125C9.66772 9.125 9.5 8.95728 9.5 8.75C9.5 7.84198 10.149 7.08356 11.0075 6.91217C11.0062 6.89935 11 6.88818 11 6.875C11 6.25464 10.4954 5.75 9.875 5.75C9.66772 5.75 9.5 5.58228 9.5 5.375C9.5 5.16772 9.66772 5 9.875 5C10.9092 5 11.75 5.84119 11.75 6.875C11.75 6.88818 11.7438 6.89935 11.7425 6.91217C12.601 7.08356 13.25 7.84198 13.25 8.75C13.25 8.95728 13.0823 9.125 12.875 9.125C12.6677 9.125 12.5 8.95728 12.5 8.75C12.5 8.12964 11.9954 7.625 11.375 7.625ZM14.7156 13.2155C14.5546 14.0868 13.7925 14.75 12.875 14.75C12.6677 14.75 12.5 14.5823 12.5 14.375C12.5 14.1677 12.6677 14 12.875 14C13.383 14 13.8084 13.6595 13.9476 13.1963C13.1197 13.0018 12.5 12.2612 12.5 11.375C12.5 11.1677 12.6677 11 12.875 11C13.0823 11 13.25 11.1677 13.25 11.375C13.25 11.9954 13.7546 12.5 14.375 12.5C14.9954 12.5 15.5 11.9954 15.5 11.375C15.5 11.1677 15.6677 11 15.875 11C16.0823 11 16.25 11.1677 16.25 11.375C16.25 12.2922 15.5872 13.0545 14.7156 13.2155Z" fill="currentColor"/>
</svg>
