<svg width="30" height="36" viewBox="0 0 30 36" fill="none" xmlns="http://www.w3.org/2000/svg">
<path d="M28.5555 5.4375L24.3555 1.2375C23.8805 0.7625 23.243 0.5 22.5805 0.5H22.1055V6.45C22.1055 7.1375 22.6555 7.7 23.3555 7.7H29.2805V7.2125C29.2805 6.55 29.018 5.9125 28.5555 5.4375Z" fill="currentColor"/>
<path d="M19.607 6.45V0.5H6.89453C5.51953 0.5 4.39453 1.625 4.39453 3V21.0563C4.80078 20.0463 5.77578 19.3675 6.86953 19.3675C7.99453 19.3675 9.00703 20.0788 9.38953 21.1388L10.0183 22.8825C10.4645 24.1225 11.432 25.09 12.6708 25.535L14.4158 26.1638C15.4708 26.5413 16.1858 27.5538 16.1858 28.6838C16.1858 29.2838 15.9745 29.8425 15.6258 30.3H26.7833C28.1583 30.3 29.2833 29.175 29.2833 27.8V10.2H23.3583C21.282 10.2 19.607 8.5125 19.607 6.45Z" fill="currentColor"/>
<path d="M11.8214 27.8875C9.88515 27.19 8.36141 25.6663 7.66391 23.73L7.03516 21.9863C6.97891 21.8288 6.75516 21.8288 6.69891 21.9863L6.07016 23.73C5.37266 25.6663 3.84891 27.19 1.91266 27.8875L0.168906 28.5163C0.0114063 28.5725 0.0114063 28.7963 0.168906 28.8525L1.91266 29.4813C3.84891 30.1788 5.37266 31.7025 6.07016 33.6388L6.69891 35.3825C6.75516 35.54 6.97891 35.54 7.03516 35.3825L7.66391 33.6388C8.36141 31.7025 9.88515 30.1788 11.8214 29.4813L13.5652 28.8525C13.7227 28.7963 13.7227 28.5725 13.5652 28.5163L11.8214 27.8875Z" fill="currentColor"/>
</svg>
