<svg width="170" height="32" viewBox="0 0 170 32" fill="none" xmlns="http://www.w3.org/2000/svg">
<g clip-path="url(#clip0_973_47060)">
<path d="M45.0924 15.0296C46.6057 14.6385 47.586 13.6608 47.586 11.9227C47.586 9.46764 45.945 8.03369 41.8314 8.03369H36.6523V23.2421H42.6626C46.6909 23.2421 48.396 21.3953 48.396 18.8751C48.396 16.8328 47.309 15.4641 45.0924 15.0296ZM42.0659 10.4019C43.771 10.4019 44.6874 10.8799 44.6874 12.2486C44.6874 13.6391 43.707 14.1823 42.4282 14.1823H39.4657V10.4019H42.0659ZM42.7905 20.874H39.4657V16.3331H42.7479C44.0054 16.3331 45.4334 16.7242 45.4334 18.6796C45.4334 20.1787 44.3251 20.874 42.7905 20.874Z" fill="currentColor"/>
<path d="M54.8079 11.4666C51.2912 11.4666 49.373 13.9868 49.373 17.4847C49.373 20.9392 51.4404 23.5463 54.9784 23.5463C57.3229 23.5463 58.9853 22.5687 60.0083 20.874L57.7917 19.7226C57.3015 20.6568 56.4277 21.3302 55.1063 21.3302C53.316 21.3302 52.2502 20.2439 52.165 18.1364H60.0936V17.5716C60.0936 14.0302 58.1754 11.4666 54.8079 11.4666ZM54.7866 13.5957C56.2572 13.5957 57.1736 14.4648 57.3015 16.2463H52.1864C52.3355 14.5082 53.2946 13.5957 54.7866 13.5957Z" fill="currentColor"/>
<path d="M65.0498 8.90283L62.3217 9.96497V11.901H60.7871V13.9433H62.3217V20.2657C62.3217 22.2428 63.1955 23.5464 65.7318 23.5464C66.6482 23.5464 67.4368 23.3943 68.0763 23.177V21.0044C67.5861 21.1347 67.0105 21.2651 66.3925 21.2651C65.3695 21.2651 65.0498 20.8088 65.0498 19.8529V13.9433H67.8417V11.901H65.0498V8.90283Z" fill="currentColor"/>
<path d="M72.6885 8.90283L69.9603 9.96497V11.901H68.4258V13.9433H69.9603V20.2657C69.9603 22.2428 70.8342 23.5464 73.3705 23.5464C74.2869 23.5464 75.0756 23.3943 75.7149 23.177V21.0044C75.2247 21.1347 74.6493 21.2651 74.0312 21.2651C73.0081 21.2651 72.6885 20.8088 72.6885 19.8529V13.9433H75.4805V11.901H72.6885V8.90283Z" fill="currentColor"/>
<path d="M81.802 11.4666C78.2854 11.4666 76.3672 13.9868 76.3672 17.4847C76.3672 20.9392 78.4345 23.5463 81.9725 23.5463C84.317 23.5463 85.9795 22.5687 87.0025 20.874L84.7858 19.7226C84.2957 20.6568 83.4218 21.3302 82.1004 21.3302C80.3101 21.3302 79.2445 20.2439 79.1592 18.1364H87.0877V17.5716C87.0877 14.0302 85.1695 11.4666 81.802 11.4666ZM81.7808 13.5957C83.2513 13.5957 84.1678 14.4648 84.2957 16.2463H79.1805C79.3297 14.5082 80.2889 13.5957 81.7808 13.5957Z" fill="currentColor"/>
<path d="M94.6666 11.4666C93.4517 11.4666 92.3434 12.1617 91.5762 13.6609V11.7924H88.8906V23.2421H91.6188V18.2669C91.6188 15.1166 92.9828 14.2692 94.7519 14.2692C94.901 14.2692 95.0715 14.2692 95.4338 14.291V11.5317C95.1994 11.4882 94.9223 11.4666 94.6666 11.4666Z" fill="currentColor"/>
<path d="M113.229 8.03369H110.394V17.7237C110.394 20.0701 109.371 21.1999 107.304 21.1999C105.216 21.1999 104.193 20.157 104.193 17.7237V8.03369H101.379V17.7888C101.379 20.7436 102.786 23.6549 107.283 23.6549C111.673 23.6549 113.229 20.787 113.229 17.7888V8.03369Z" fill="currentColor"/>
<path d="M121.644 11.4666C120.451 11.4666 119.257 11.9011 118.405 13.0091V11.7924H115.74V26.827H118.469V22.0907C119.151 23.0249 120.259 23.5463 121.602 23.5463C124.672 23.5463 126.589 20.9392 126.589 17.463C126.589 13.9433 124.608 11.4666 121.644 11.4666ZM121.027 13.7478C122.775 13.7478 123.755 15.1382 123.755 17.463C123.755 19.9398 122.626 21.2868 121.005 21.2868C119.492 21.2868 118.321 20.1136 118.321 17.4847C118.321 14.9861 119.471 13.7478 121.027 13.7478Z" fill="currentColor"/>
<path d="M131.59 8.90283L128.863 9.96497V11.901H127.328V13.9433H128.863V20.2657C128.863 22.2428 129.736 23.5464 132.272 23.5464C133.189 23.5464 133.977 23.3943 134.617 23.177V21.0044C134.127 21.1347 133.551 21.2651 132.933 21.2651C131.91 21.2651 131.59 20.8088 131.59 19.8529V13.9433H134.382V11.901H131.59V8.90283Z" fill="currentColor"/>
<path d="M137.439 6.64331C136.543 6.64331 135.775 7.38199 135.775 8.2945C135.775 9.20703 136.543 9.94572 137.439 9.94572C138.333 9.94572 139.101 9.20703 139.101 8.2945C139.101 7.38199 138.333 6.64331 137.439 6.64331ZM138.803 11.7924H136.075V23.2422H138.803V11.7924Z" fill="currentColor"/>
<path d="M153.767 11.4666C152.403 11.4666 151.061 12.0097 150.209 13.3567C149.676 12.1617 148.63 11.4666 147.075 11.4666C145.818 11.4666 144.795 11.9662 143.985 13.096V11.7924H141.299V23.2421H144.028V16.7895C144.028 15.0296 144.987 13.8347 146.286 13.8347C147.757 13.8347 147.991 14.8775 147.991 17.0284V23.2421H150.72V16.7895C150.72 15.0296 151.658 13.8347 152.957 13.8347C154.406 13.8347 154.684 14.8775 154.684 17.0284V23.2421H157.412V15.877C157.412 13.096 156.197 11.4666 153.767 11.4666Z" fill="currentColor"/>
<path d="M164.62 11.4666C161.103 11.4666 159.186 13.9868 159.186 17.4847C159.186 20.9392 161.253 23.5463 164.79 23.5463C167.134 23.5463 168.797 22.5687 169.82 20.874L167.604 19.7226C167.114 20.6568 166.239 21.3302 164.917 21.3302C163.128 21.3302 162.062 20.2439 161.977 18.1364H169.906V17.5716C169.906 14.0302 167.987 11.4666 164.62 11.4666ZM164.598 13.5957C166.069 13.5957 166.986 14.4648 167.114 16.2463H161.998C162.147 14.5082 163.106 13.5957 164.598 13.5957Z" fill="currentColor"/>
<path d="M14.154 15.9999V1.29437C14.154 0.157979 12.754 -0.348734 12.051 0.533237L0.329832 15.2388C-0.29888 16.0276 0.251778 17.207 1.24881 17.207H12.9699C13.6239 17.207 14.154 16.6666 14.154 15.9999Z" fill="url(#paint0_linear_973_47060)"/>
<path d="M24.6922 14.793H12.9711C12.3171 14.793 11.7871 15.3334 11.7871 16V30.7056C11.7871 31.842 13.1871 32.3487 13.8901 31.4667L25.6112 16.7612C26.24 15.9722 25.6892 14.793 24.6922 14.793Z" fill="currentColor"/>
</g>
<defs>
<linearGradient id="paint0_linear_973_47060" x1="5.86554" y1="2.11928" x2="16.2346" y2="21.2667" gradientUnits="userSpaceOnUse">
<stop stop-color="#BCBECD"/>
<stop offset="1" stop-color="#BCBECD" stop-opacity="0"/>
</linearGradient>
<clipPath id="clip0_973_47060">
<rect width="170" height="32" fill="currentColor"/>
</clipPath>
</defs>
</svg>
