<svg width="145" height="32" viewBox="0 0 145 32" fill="none" xmlns="http://www.w3.org/2000/svg">
<g clip-path="url(#clip0_973_47302)">
<path fill-rule="evenodd" clip-rule="evenodd" d="M16.8377 0.31428C13.8986 1.13268 11.5179 2.94325 9.98376 5.52693L9.50566 6.33203L8.09642 6.60611C5.60093 7.09125 3.48614 8.38693 2.08499 10.2895C0.719007 12.1442 0.0898438 14.0468 0.0898438 16.3218C0.0898438 18.0494 0.335659 19.1018 1.13409 20.7901C2.24197 23.1331 4.35972 24.9637 7.0013 25.8619C7.78915 26.1298 8.71578 26.157 18.6937 26.2043C28.0941 26.2491 29.6694 26.2227 30.5795 26.0058C35.5204 24.8272 38.0865 19.2456 35.8126 14.6231C34.9278 12.8245 33.1887 11.2434 31.4366 10.645C30.6985 10.3928 30.6864 10.3776 30.5834 9.57909C30.5259 9.13349 30.2765 8.19861 30.0291 7.50165C28.8632 4.21619 26.2521 1.65507 22.8704 0.48004C21.3839 -0.0366 18.3925 -0.11868 16.8377 0.31428ZM45.5161 0.35748C45.3018 0.67188 45.2738 2.15317 45.2738 13.1575C45.2738 25.3885 45.2791 25.6072 45.585 25.9218C45.7561 26.0978 46.0362 26.2418 46.2073 26.2418C46.3785 26.2418 46.6585 26.0978 46.8296 25.9218C47.0969 25.6469 47.1408 25.3885 47.1408 24.0869V22.572L48.3529 23.8371C49.7698 25.316 51.1712 26.1024 52.9349 26.4083C57.2572 27.1581 61.5672 24.076 62.6203 19.4824C62.9186 18.1814 62.9178 15.6856 62.6186 14.4754C61.5845 10.2914 58.2129 7.51637 54.1731 7.52373C51.7318 7.52821 49.5597 8.65733 47.8566 10.8074L47.1408 11.7111V6.21203C47.1408 1.49396 47.1064 0.66244 46.8986 0.35748C46.574 -0.11916 45.8406 -0.11916 45.5161 0.35748ZM21.3924 2.32243C24.4391 2.98035 27.1016 5.35941 28.1019 8.31797C28.3008 8.90581 28.5279 9.97957 28.6068 10.7044C28.6855 11.429 28.786 12.0589 28.83 12.104C28.8739 12.1493 29.4054 12.3173 30.0109 12.4775C31.9726 12.9965 33.2416 14.0471 34.0511 15.8226C34.4038 16.5963 34.4611 16.9338 34.4611 18.2418C34.4611 19.5974 34.4119 19.8646 34.0069 20.7131C33.4285 21.9246 32.4309 22.9504 31.3022 23.4946L30.416 23.9218L19.4477 23.9651C8.79357 24.0072 8.44943 23.999 7.43537 23.6824C5.35465 23.0326 3.44149 21.2062 2.62874 19.0936C2.32769 18.3112 2.27013 17.8666 2.27013 16.3218C2.27013 14.777 2.32769 14.3324 2.62874 13.55C3.43713 11.4488 5.33971 9.62483 7.40814 8.96771C8.78657 8.52995 11.1551 8.51795 12.0677 8.94419C14.9259 10.2794 15.5439 14.1631 13.2231 16.2059C12.1508 17.1498 11.3281 17.2797 9.01014 16.8712C8.33741 16.7526 7.93478 17.081 7.93478 17.7483C7.93478 18.3398 8.2937 18.6379 9.40204 18.9672C11.9254 19.7168 14.779 18.2422 15.9912 15.5623C16.3583 14.7506 16.408 14.4434 16.4108 12.9618C16.4136 11.477 16.3663 11.1773 16.0039 10.3826C15.2769 8.78789 14.1362 7.70517 12.5682 7.12133L11.6522 6.78021L12.361 5.78963C14.3674 2.98691 18.0037 1.59076 21.3924 2.32243ZM80.6316 7.76851C78.4938 8.36051 76.3574 10.2228 75.3839 12.3424C74.532 14.1973 74.3201 15.2965 74.4013 17.4376C74.5095 20.2875 75.3511 22.3387 77.1379 24.1078C80.4108 27.3483 85.9967 27.3342 89.2639 24.0773C89.7988 23.5442 90.2363 23.0211 90.2363 22.9149C90.2363 22.6251 89.6521 22.0818 89.3406 22.0818C89.1903 22.0818 88.69 22.4 88.2289 22.7891C86.5825 24.1779 84.9814 24.8018 83.0633 24.8018C79.6641 24.8018 76.7574 22.1285 76.2998 18.5814L76.194 17.7618H83.2151C90.1588 17.7618 90.2399 17.7581 90.5658 17.4229C90.8622 17.1181 90.8846 16.973 90.7892 15.9772C90.3824 11.7312 88.1234 8.68195 84.7067 7.76675C83.5832 7.46579 81.7214 7.46659 80.6316 7.76851ZM99.3674 7.76195C97.9736 8.15603 96.8834 8.83011 95.7607 9.99219C92.9154 12.9376 92.2227 17.6232 94.0483 21.5765C94.7598 23.1171 96.4084 24.8474 97.8597 25.5762C100.771 27.0386 104.26 26.7992 106.944 24.9528C108.755 23.7072 109.253 22.9341 108.621 22.3466C108.184 21.9394 107.885 22.0211 106.95 22.804C102.441 26.5806 96.4148 24.7344 95.1433 19.1869C95.014 18.623 94.9073 18.0718 94.906 17.9618C94.9041 17.8046 96.4172 17.7618 101.958 17.7618C108.595 17.7618 109.028 17.7445 109.271 17.4691C109.841 16.8205 109.425 14.1096 108.439 12.0519C107.386 9.85365 105.646 8.35795 103.44 7.75427C102.415 7.47347 100.374 7.47731 99.3674 7.76195ZM71.7984 8.05619C70.1222 8.69731 68.5963 10.0061 67.4965 11.7466L66.8994 12.6914V10.6223C66.8994 8.29365 66.7502 7.84179 65.9812 7.84179C65.0032 7.84179 65.0324 7.55973 65.0324 16.9787C65.0324 24.4598 65.0628 25.575 65.2747 25.8861C65.5511 26.2922 66.0779 26.3467 66.5196 26.0149C66.8037 25.8014 66.8264 25.5018 66.903 20.9349C66.9818 16.2262 66.9961 16.048 67.3849 14.9455C68.4009 12.0647 70.3574 10.2981 73.1375 9.75171C73.6854 9.64403 74.2555 9.49219 74.4042 9.41427C74.8081 9.20259 74.9113 8.54707 74.6141 8.08067C74.3955 7.73747 74.2466 7.68291 73.5468 7.69011C73.0995 7.69475 72.3128 7.85939 71.7984 8.05619ZM111.585 8.09091C111.166 8.39299 111.137 8.97701 111.524 9.33701C111.778 9.57349 112.429 9.60179 117.592 9.60179C120.772 9.60179 123.375 9.63605 123.375 9.67797C123.375 9.71989 120.574 13.1812 117.152 17.3698C113.729 21.5584 110.928 25.113 110.928 25.2688C110.928 25.4246 111.056 25.6714 111.213 25.817C111.469 26.0554 112.213 26.0818 118.657 26.0818C125.395 26.0818 125.831 26.0645 126.073 25.7891C126.407 25.4094 126.399 25.0752 126.048 24.7485C125.798 24.5155 125.069 24.4808 119.658 24.4437L113.55 24.4018L116.947 20.2418C125.741 9.47381 126.02 9.11971 126.02 8.72883C126.02 7.85363 125.92 7.84179 118.63 7.84179C112.819 7.84179 111.885 7.87475 111.585 8.09091ZM128.54 8.03381C128.437 8.13941 128.353 8.41845 128.353 8.65381C128.353 8.88917 130.14 12.8799 132.323 17.5221L136.292 25.9624L135.902 26.8394C134.707 29.5248 133.167 30.507 130.835 30.0717C128.832 29.6978 128.708 29.6982 128.509 30.0811C128.409 30.2739 128.367 30.5957 128.416 30.7965C128.65 31.7546 132.08 32.1994 133.883 31.5054C134.97 31.0874 136.2 29.8659 136.96 28.4517C137.611 27.2387 145 9.11491 145 8.73011C145 8.16771 144.691 7.84179 144.158 7.84179C143.872 7.84179 143.571 7.93187 143.489 8.04179C143.406 8.15187 141.953 11.7895 140.258 16.1254C138.563 20.4614 137.158 23.9894 137.135 23.9654C137.112 23.9414 135.505 20.3938 133.564 16.0818C131.623 11.7698 129.963 8.15187 129.875 8.04179C129.672 7.78707 128.785 7.78165 128.54 8.03381ZM83.8888 9.30165C86.2493 9.81685 87.9115 11.5634 88.61 14.2628C88.7323 14.7352 88.8333 15.3559 88.8342 15.6418L88.8361 16.1618H82.514H76.1918L76.2867 15.4495C76.6872 12.4455 78.685 10.009 81.2905 9.34675C82.2972 9.09075 82.8764 9.08085 83.8888 9.30165ZM102.539 9.28419C105 9.76403 106.757 11.7093 107.408 14.6733C107.547 15.3068 107.661 15.9007 107.661 15.9933C107.661 16.1085 105.644 16.1618 101.282 16.1618C96.282 16.1618 94.9041 16.1186 94.906 15.9618C94.913 15.3456 95.4446 13.5836 95.8722 12.7584C96.7647 11.0364 98.1707 9.85237 99.8859 9.37829C100.923 9.09173 101.456 9.07283 102.539 9.28419ZM56.0194 9.53589C59.1923 10.4901 61.1506 13.702 60.9374 17.6018C60.7216 21.5467 58.6951 24.064 55.2446 24.6725C51.6013 25.3149 47.945 22.6392 47.1571 18.7539C46.1681 13.8767 49.4944 9.32629 54.0747 9.29045C54.6796 9.28565 55.5547 9.39621 56.0194 9.53589Z" fill="currentColor"/>
</g>
<defs>
<clipPath id="clip0_973_47302">
<rect width="145" height="32" fill="currentColor"/>
</clipPath>
</defs>
</svg>
