<svg width="18" height="22" viewBox="0 0 18 22" fill="none" xmlns="http://www.w3.org/2000/svg">
<path d="M17.3348 3.4625L14.8148 0.9425C14.5298 0.6575 14.1473 0.5 13.7498 0.5H13.4648V4.07C13.4648 4.4825 13.7948 4.82 14.2148 4.82H17.7698V4.5275C17.7698 4.13 17.6123 3.7475 17.3348 3.4625Z" fill="currentColor"/>
<path d="M11.9634 4.07V0.5H4.33594C3.51094 0.5 2.83594 1.175 2.83594 2V12.8338C3.07969 12.2278 3.66469 11.8205 4.32094 11.8205C4.99594 11.8205 5.60344 12.2473 5.83294 12.8833L6.21019 13.9295C6.47794 14.6735 7.05844 15.254 7.80169 15.521L8.84869 15.8983C9.48169 16.1248 9.91069 16.7323 9.91069 17.4103C9.91069 17.7703 9.78394 18.1055 9.57469 18.38H16.2692C17.0942 18.38 17.7692 17.705 17.7692 16.88V6.32H14.2142C12.9684 6.32 11.9634 5.3075 11.9634 4.07Z" fill="currentColor"/>
<path d="M7.29284 16.9324C6.13109 16.5139 5.21684 15.5997 4.79834 14.4379L4.42109 13.3917C4.38734 13.2972 4.25309 13.2972 4.21934 13.3917L3.84209 14.4379C3.42359 15.5997 2.50934 16.5139 1.34759 16.9324L0.301344 17.3097C0.206844 17.3434 0.206844 17.4777 0.301344 17.5114L1.34759 17.8887C2.50934 18.3072 3.42359 19.2214 3.84209 20.3832L4.21934 21.4294C4.25309 21.5239 4.38734 21.5239 4.42109 21.4294L4.79834 20.3832C5.21684 19.2214 6.13109 18.3072 7.29284 17.8887L8.33909 17.5114C8.43359 17.4777 8.43359 17.3434 8.33909 17.3097L7.29284 16.9324Z" fill="currentColor"/>
</svg>
