<svg width="18" height="24" viewBox="0 0 18 24" fill="none" xmlns="http://www.w3.org/2000/svg">
<path d="M15.3746 1.91529L8.56337 0.640894C8.41936 0.614497 8.27296 0.600098 8.12416 0.600098C6.98657 0.600098 6.03616 1.3969 5.79856 2.4649H2.39537C1.07777 2.4673 0.012168 3.53291 0.00976562 4.8505V19.1497C0.012168 20.4673 1.07777 21.5329 2.39537 21.5353H5.79856C6.03616 22.6009 6.98657 23.3977 8.12176 23.4001C8.27296 23.4001 8.42176 23.3857 8.56817 23.3593L15.3794 22.0705C16.505 21.8545 17.321 20.8705 17.321 19.7257V4.2601C17.321 3.11291 16.5026 2.12649 15.3746 1.91529ZM5.74097 19.9465H2.39537C1.95616 19.9441 1.60097 19.5889 1.60097 19.1497V4.8505C1.60097 4.4113 1.95616 4.0561 2.39537 4.0561H5.74097V19.9465ZM10.5098 12.7729C10.5098 13.2121 10.1546 13.5673 9.71537 13.5673C9.27616 13.5673 8.92097 13.2121 8.92097 12.7729V11.2273C8.92097 10.7881 9.27616 10.4329 9.71537 10.4329H9.71777C10.1546 10.4329 10.5122 10.7881 10.5098 11.2273V12.7729Z" fill="currentColor"/>
</svg>
