<svg width="40" height="40" viewBox="0 0 40 40" fill="none" xmlns="http://www.w3.org/2000/svg">
<path d="M8.33203 13.3335C5.56536 13.3335 3.33203 15.5668 3.33203 18.3335V31.6668C3.33203 34.4335 5.56536 36.6668 8.33203 36.6668H10.832C12.6654 36.6668 14.1654 35.1668 14.1654 33.3335V16.6668C14.1654 14.8335 12.6654 13.3335 10.832 13.3335H8.33203ZM9.9987 28.3335C9.9987 29.0168 9.43203 29.5835 8.7487 29.5835C8.06536 29.5835 7.4987 29.0168 7.4987 28.3335V21.6668C7.4987 20.9835 8.06536 20.4168 8.7487 20.4168C9.43203 20.4168 9.9987 20.9835 9.9987 21.6668V28.3335Z" fill="#292D32"/>
<path d="M31.668 3.3335H21.668C18.9013 3.3335 16.668 5.56683 16.668 8.3335V31.6668C16.668 34.4335 18.9013 36.6668 21.668 36.6668H22.5013C22.968 36.6668 23.3346 36.3002 23.3346 35.8335V30.0002C23.3346 29.0835 24.0846 28.3335 25.0013 28.3335H28.3346C29.2513 28.3335 30.0013 29.0835 30.0013 30.0002V35.8335C30.0013 36.3002 30.368 36.6668 30.8346 36.6668H31.668C34.4346 36.6668 36.668 34.4335 36.668 31.6668V8.3335C36.668 5.56683 34.4346 3.3335 31.668 3.3335ZM24.5846 21.6668C24.5846 22.3502 24.018 22.9168 23.3346 22.9168C22.6513 22.9168 22.0846 22.3502 22.0846 21.6668V13.3335C22.0846 12.6502 22.6513 12.0835 23.3346 12.0835C24.018 12.0835 24.5846 12.6502 24.5846 13.3335V21.6668ZM31.2513 21.6668C31.2513 22.3502 30.6846 22.9168 30.0013 22.9168C29.318 22.9168 28.7513 22.3502 28.7513 21.6668V13.3335C28.7513 12.6502 29.318 12.0835 30.0013 12.0835C30.6846 12.0835 31.2513 12.6502 31.2513 13.3335V21.6668Z" fill="currentColor"/>
</svg>
