<svg width="41" height="40" viewBox="0 0 41 40" fill="none" xmlns="http://www.w3.org/2000/svg">
<path d="M35.4837 11.6335C34.0671 10.0669 31.7004 9.28353 28.2671 9.28353H27.8671V9.21686C27.8671 6.41686 27.8671 2.9502 21.6004 2.9502H19.0671C12.8004 2.9502 12.8004 6.43353 12.8004 9.21686V9.3002H12.4004C8.95039 9.3002 6.60039 10.0835 5.18372 11.6502C3.53372 13.4835 3.58372 15.9502 3.75039 17.6335L3.76705 17.7502L3.91118 19.2635C3.92544 19.4133 4.00632 19.5486 4.132 19.6313C4.49823 19.8723 5.28429 20.3838 5.73372 20.6335C5.96705 20.7835 6.21705 20.9169 6.46705 21.0502C9.31705 22.6169 12.4504 23.6669 15.6337 24.1835C15.7837 25.7502 16.4671 27.5835 20.1171 27.5835C23.7671 27.5835 24.4837 25.7669 24.6004 24.1502C28.0004 23.6002 31.2837 22.4169 34.2504 20.6835C34.3504 20.6335 34.4171 20.5835 34.5004 20.5335C35.2034 20.1362 35.9345 19.6407 36.5908 19.1627C36.7035 19.0807 36.7758 18.9548 36.7912 18.8163L36.8337 18.4335L36.9171 17.6502C36.9337 17.5502 36.9337 17.4669 36.9504 17.3502C37.0837 15.6669 37.0504 13.3669 35.4837 11.6335ZM22.1504 23.0502C22.1504 24.8169 22.1504 25.0835 20.1004 25.0835C18.0504 25.0835 18.0504 24.7669 18.0504 23.0669V20.9669H22.1504V23.0502ZM15.1837 9.28353V9.21686C15.1837 6.38353 15.1837 5.33353 19.0671 5.33353H21.6004C25.4837 5.33353 25.4837 6.4002 25.4837 9.21686V9.3002H15.1837V9.28353Z" fill="currentColor"/>
<path d="M35.6604 22.631C36.0131 22.4608 36.4181 22.7414 36.3827 23.1314L35.7305 30.3165C35.3805 33.6499 34.0138 37.0499 26.6805 37.0499H13.9805C6.64713 37.0499 5.28047 33.6499 4.93047 30.3332L4.30976 23.5054C4.27472 23.1199 4.67178 22.8402 5.02359 23.0015C6.76125 23.7985 10.9372 25.6581 13.299 26.2386C13.464 26.2791 13.5986 26.3967 13.6657 26.5527C14.6415 28.8232 16.8657 30.0332 20.1138 30.0332C23.3297 30.0332 25.5838 28.7766 26.5618 26.503C26.629 26.3468 26.7633 26.2293 26.9284 26.1887C29.4316 25.5727 33.8534 23.5031 35.6604 22.631Z" fill="currentColor"/>
</svg>
