<svg width="21" height="21" viewBox="0 0 21 21" fill="none" xmlns="http://www.w3.org/2000/svg">
<path d="M7.16699 5.2915C6.82533 5.2915 6.54199 5.00817 6.54199 4.6665V2.1665C6.54199 1.82484 6.82533 1.5415 7.16699 1.5415C7.50866 1.5415 7.79199 1.82484 7.79199 2.1665V4.6665C7.79199 5.00817 7.50866 5.2915 7.16699 5.2915Z" fill="#999999"/>
<path d="M13.833 5.2915C13.4913 5.2915 13.208 5.00817 13.208 4.6665V2.1665C13.208 1.82484 13.4913 1.5415 13.833 1.5415C14.1747 1.5415 14.458 1.82484 14.458 2.1665V4.6665C14.458 5.00817 14.1747 5.2915 13.833 5.2915Z" fill="#999999"/>
<path d="M7.58333 12.5834C7.475 12.5834 7.36667 12.5584 7.26667 12.5168C7.15833 12.4751 7.075 12.4168 6.99167 12.3418C6.84167 12.1834 6.75 11.9751 6.75 11.7501C6.75 11.6418 6.775 11.5334 6.81667 11.4334C6.85833 11.3334 6.91667 11.2418 6.99167 11.1584C7.075 11.0834 7.15833 11.0251 7.26667 10.9834C7.56667 10.8584 7.94167 10.9251 8.175 11.1584C8.325 11.3168 8.41667 11.5334 8.41667 11.7501C8.41667 11.8001 8.40833 11.8584 8.4 11.9168C8.39167 11.9668 8.375 12.0168 8.35 12.0668C8.33333 12.1168 8.30833 12.1668 8.275 12.2168C8.25 12.2584 8.20833 12.3001 8.175 12.3418C8.01667 12.4918 7.8 12.5834 7.58333 12.5834Z" fill="#999999"/>
<path d="M10.5003 12.5832C10.392 12.5832 10.2837 12.5582 10.1837 12.5166C10.0753 12.4749 9.99199 12.4166 9.90866 12.3416C9.75866 12.1832 9.66699 11.9749 9.66699 11.7499C9.66699 11.6416 9.69199 11.5332 9.73366 11.4332C9.77533 11.3332 9.83366 11.2416 9.90866 11.1582C9.99199 11.0832 10.0753 11.0249 10.1837 10.9832C10.4837 10.8499 10.8587 10.9249 11.092 11.1582C11.242 11.3166 11.3337 11.5332 11.3337 11.7499C11.3337 11.7999 11.3253 11.8582 11.317 11.9166C11.3087 11.9666 11.292 12.0166 11.267 12.0666C11.2503 12.1166 11.2253 12.1666 11.192 12.2166C11.167 12.2582 11.1253 12.2999 11.092 12.3416C10.9337 12.4916 10.717 12.5832 10.5003 12.5832Z" fill="#999999"/>
<path d="M13.4163 12.5832C13.308 12.5832 13.1997 12.5582 13.0997 12.5166C12.9913 12.4749 12.908 12.4166 12.8247 12.3416C12.7913 12.2999 12.758 12.2582 12.7247 12.2166C12.6913 12.1666 12.6663 12.1166 12.6497 12.0666C12.6247 12.0166 12.608 11.9666 12.5997 11.9166C12.5913 11.8582 12.583 11.7999 12.583 11.7499C12.583 11.5332 12.6747 11.3166 12.8247 11.1582C12.908 11.0832 12.9913 11.0249 13.0997 10.9832C13.408 10.8499 13.7747 10.9249 14.008 11.1582C14.158 11.3166 14.2497 11.5332 14.2497 11.7499C14.2497 11.7999 14.2413 11.8582 14.233 11.9166C14.2247 11.9666 14.208 12.0166 14.183 12.0666C14.1663 12.1166 14.1413 12.1666 14.108 12.2166C14.083 12.2582 14.0413 12.2999 14.008 12.3416C13.8497 12.4916 13.633 12.5832 13.4163 12.5832Z" fill="#999999"/>
<path d="M7.58333 15.5C7.475 15.5 7.36667 15.475 7.26667 15.4333C7.16667 15.3917 7.075 15.3333 6.99167 15.2583C6.84167 15.1 6.75 14.8833 6.75 14.6667C6.75 14.5583 6.775 14.45 6.81667 14.35C6.85833 14.2417 6.91667 14.15 6.99167 14.075C7.3 13.7667 7.86667 13.7667 8.175 14.075C8.325 14.2333 8.41667 14.45 8.41667 14.6667C8.41667 14.8833 8.325 15.1 8.175 15.2583C8.01667 15.4083 7.8 15.5 7.58333 15.5Z" fill="#999999"/>
<path d="M10.5003 15.5C10.2837 15.5 10.067 15.4083 9.90866 15.2583C9.75866 15.1 9.66699 14.8833 9.66699 14.6667C9.66699 14.5583 9.69199 14.45 9.73366 14.35C9.77533 14.2417 9.83366 14.15 9.90866 14.075C10.217 13.7667 10.7837 13.7667 11.092 14.075C11.167 14.15 11.2253 14.2417 11.267 14.35C11.3087 14.45 11.3337 14.5583 11.3337 14.6667C11.3337 14.8833 11.242 15.1 11.092 15.2583C10.9337 15.4083 10.717 15.5 10.5003 15.5Z" fill="#999999"/>
<path d="M13.4163 15.4999C13.1997 15.4999 12.983 15.4083 12.8247 15.2583C12.7497 15.1833 12.6913 15.0916 12.6497 14.9833C12.608 14.8833 12.583 14.7749 12.583 14.6666C12.583 14.5583 12.608 14.4499 12.6497 14.3499C12.6913 14.2416 12.7497 14.1499 12.8247 14.0749C13.0163 13.8833 13.308 13.7916 13.5747 13.8499C13.633 13.8583 13.683 13.8749 13.733 13.8999C13.783 13.9166 13.833 13.9416 13.883 13.9749C13.9247 13.9999 13.9663 14.0416 14.008 14.0749C14.158 14.2333 14.2497 14.4499 14.2497 14.6666C14.2497 14.8833 14.158 15.0999 14.008 15.2583C13.8497 15.4083 13.633 15.4999 13.4163 15.4999Z" fill="#999999"/>
<path d="M17.5837 8.70019H3.41699C3.07533 8.70019 2.79199 8.41686 2.79199 8.0752C2.79199 7.73353 3.07533 7.4502 3.41699 7.4502H17.5837C17.9253 7.4502 18.2087 7.73353 18.2087 8.0752C18.2087 8.41686 17.9253 8.70019 17.5837 8.70019Z" fill="#999999"/>
<path d="M13.8333 19.4582H7.16667C4.125 19.4582 2.375 17.7082 2.375 14.6665V7.58317C2.375 4.5415 4.125 2.7915 7.16667 2.7915H13.8333C16.875 2.7915 18.625 4.5415 18.625 7.58317V14.6665C18.625 17.7082 16.875 19.4582 13.8333 19.4582ZM7.16667 4.0415C4.78333 4.0415 3.625 5.19984 3.625 7.58317V14.6665C3.625 17.0498 4.78333 18.2082 7.16667 18.2082H13.8333C16.2167 18.2082 17.375 17.0498 17.375 14.6665V7.58317C17.375 5.19984 16.2167 4.0415 13.8333 4.0415H7.16667Z" fill="#999999"/>
</svg>
