<svg width="36" height="36" viewBox="0 0 36 36" fill="none" xmlns="http://www.w3.org/2000/svg">
<path d="M12.0157 29.165L10.6807 30.5H8.1017C7.58405 29.0481 6.20946 28 4.58203 28C2.51416 28 0.832031 29.6821 0.832031 31.75C0.832031 33.8179 2.51416 35.5 4.58203 35.5C6.20946 35.5 7.58405 34.4519 8.1017 33H11.1982C11.5303 33 11.8477 32.8682 12.082 32.6338L14.3895 30.3263C13.5243 30.116 12.7172 29.7139 12.0157 29.165Z" fill="currentColor"/>
<path d="M33.332 28.2304V25.5C33.332 25.1686 33.2002 24.8506 32.9658 24.6162L30.4883 22.1387C29.9259 22.7707 29.2492 23.2971 28.4747 23.6603L30.832 26.0176V28.2304C29.3802 28.748 28.332 30.1226 28.332 31.75C28.332 33.8179 30.0142 35.5 32.082 35.5C34.1499 35.5 35.832 33.8179 35.832 31.75C35.832 30.1226 34.7839 28.748 33.332 28.2304Z" fill="currentColor"/>
<path d="M32.082 0.5C30.0142 0.5 28.332 2.18213 28.332 4.25C28.332 5.87743 29.3802 7.25194 30.832 7.76959V11.125L28.89 12.5818C29.6419 13.0081 30.2928 13.5787 30.8098 14.266L32.8315 12.7498C33.1465 12.5142 33.332 12.1437 33.332 11.75V7.76967C34.7839 7.25201 35.832 5.87743 35.832 4.25C35.832 2.18213 34.1499 0.5 32.082 0.5Z" fill="currentColor"/>
<path d="M8.1017 5.5H10.6807L12.0157 6.83499C12.7172 6.28613 13.5243 5.88399 14.3895 5.67372L12.082 3.36621C11.8477 3.13184 11.5303 3 11.1982 3H8.1017C7.58405 1.54813 6.20946 0.5 4.58203 0.5C2.51416 0.5 0.832031 2.18213 0.832031 4.25C0.832031 6.31787 2.51416 8 4.58203 8C6.20946 8 7.58405 6.95187 8.1017 5.5Z" fill="currentColor"/>
<path d="M25.832 13H25.3932C24.6882 11.5273 23.1956 10.5 21.457 10.5C21.1906 10.5 20.9324 10.5328 20.679 10.5787C20.1485 8.38765 18.1843 6.75 15.832 6.75C13.9894 6.75 12.3947 7.7628 11.5275 9.25H10.832C8.2755 9.25 6.18588 11.1851 5.89139 13.6631C4.37184 14.522 3.33203 16.1335 3.33203 18C3.33203 19.8665 4.37184 21.478 5.89139 22.3369C6.18588 24.8149 8.2755 26.75 10.832 26.75H11.5275C12.3947 28.2372 13.9894 29.25 15.832 29.25C18.1843 29.25 20.1485 27.6124 20.679 25.4213C20.9324 25.4672 21.1906 25.5 21.457 25.5C23.1956 25.5 24.6882 24.4727 25.3932 23H25.832C28.5896 23 30.832 20.757 30.832 18C30.832 15.243 28.5896 13 25.832 13ZM10.207 10.5C10.5525 10.5 10.832 10.7795 10.832 11.125C10.832 11.4705 10.5525 11.75 10.207 11.75C9.1731 11.75 8.33203 12.5911 8.33203 13.625C8.33203 13.9705 8.05249 14.25 7.70703 14.25C7.36157 14.25 7.08203 13.9705 7.08203 13.625C7.08203 11.902 8.4834 10.5 10.207 10.5ZM9.58203 21.125C9.58203 22.1589 10.4231 23 11.457 23C11.8025 23 12.082 23.2795 12.082 23.625C12.082 23.9705 11.8025 24.25 11.457 24.25C9.7334 24.25 8.33203 22.848 8.33203 21.125C8.33203 21.103 8.34233 21.0844 8.34454 21.063C6.91365 20.7774 5.83203 19.5134 5.83203 18C5.83203 17.6545 6.11157 17.375 6.45703 17.375C6.80249 17.375 7.08203 17.6545 7.08203 18C7.08203 19.0339 7.9231 19.875 8.95703 19.875C9.99097 19.875 10.832 19.0339 10.832 18C10.832 17.6545 11.1116 17.375 11.457 17.375C11.8025 17.375 12.082 17.6545 12.082 18C12.082 19.5134 11.0004 20.7774 9.56952 21.063C9.57173 21.0844 9.58203 21.103 9.58203 21.125ZM18.957 12.375C17.9231 12.375 17.082 13.2161 17.082 14.25C17.082 14.5955 16.8025 14.875 16.457 14.875C16.1116 14.875 15.832 14.5955 15.832 14.25C15.832 12.7366 16.9137 11.4726 18.3445 11.187C18.3423 11.1656 18.332 11.147 18.332 11.125C18.332 10.0911 17.491 9.25 16.457 9.25C16.1116 9.25 15.832 8.97046 15.832 8.625C15.832 8.27954 16.1116 8 16.457 8C18.1807 8 19.582 9.40198 19.582 11.125C19.582 11.147 19.5717 11.1656 19.5695 11.187C21.0004 11.4726 22.082 12.7366 22.082 14.25C22.082 14.5955 21.8025 14.875 21.457 14.875C21.1116 14.875 20.832 14.5955 20.832 14.25C20.832 13.2161 19.991 12.375 18.957 12.375ZM24.5247 21.6926C24.2563 23.1447 22.9863 24.25 21.457 24.25C21.1116 24.25 20.832 23.9705 20.832 23.625C20.832 23.2795 21.1116 23 21.457 23C22.3037 23 23.0127 22.4324 23.2448 21.6605C21.8648 21.3363 20.832 20.1021 20.832 18.625C20.832 18.2795 21.1116 18 21.457 18C21.8025 18 22.082 18.2795 22.082 18.625C22.082 19.6589 22.9231 20.5 23.957 20.5C24.991 20.5 25.832 19.6589 25.832 18.625C25.832 18.2795 26.1116 18 26.457 18C26.8025 18 27.082 18.2795 27.082 18.625C27.082 20.1537 25.9773 21.4241 24.5247 21.6926Z" fill="currentColor"/>
</svg>
