<svg width="284" height="225" viewBox="0 0 284 225" fill="none" xmlns="http://www.w3.org/2000/svg">
<g opacity="0.5">
<path d="M113.857 187.587C113.719 187.247 113.322 187.078 112.968 187.21C112.615 187.342 112.44 187.725 112.578 188.065C112.715 188.405 113.112 188.574 113.466 188.442C113.819 188.31 113.994 187.927 113.857 187.587Z" fill="white"/>
<path d="M41.3195 133.231C41.1822 132.891 40.7845 132.723 40.4313 132.854C40.0781 132.986 39.9031 133.369 40.0404 133.709C40.1778 134.049 40.5754 134.218 40.9286 134.086C41.2818 133.954 41.4568 133.571 41.3195 133.231Z" fill="white"/>
<path d="M84.0597 64.6347C83.9224 64.2946 83.5248 64.1259 83.1716 64.2577C82.8184 64.3896 82.6434 64.7722 82.7807 65.1123C82.918 65.4523 83.3156 65.6211 83.6688 65.4892C84.022 65.3574 84.197 64.9748 84.0597 64.6347Z" fill="white"/>
<path opacity="0.11" d="M115.702 198.405C115.565 198.065 115.167 197.896 114.814 198.028C114.461 198.16 114.286 198.542 114.423 198.882C114.561 199.222 114.958 199.391 115.311 199.259C115.665 199.127 115.84 198.745 115.702 198.405Z" fill="white"/>
<path opacity="0.3" d="M32.755 110.205C32.6177 109.865 32.2201 109.696 31.8669 109.828C31.5137 109.96 31.3387 110.343 31.476 110.683C31.6133 111.023 32.0109 111.191 32.3641 111.06C32.7173 110.928 32.8923 110.545 32.755 110.205Z" fill="white"/>
<path opacity="0.11" d="M35.6925 219.057C35.5552 218.716 35.1576 218.548 34.8044 218.68C34.4512 218.811 34.2762 219.194 34.4135 219.534C34.5508 219.874 34.9484 220.043 35.3016 219.911C35.6548 219.779 35.8298 219.397 35.6925 219.057Z" fill="white"/>
<path opacity="0.11" d="M72.714 89.4242C72.5767 89.0842 72.1791 88.9154 71.8259 89.0473C71.4727 89.1791 71.2977 89.5617 71.435 89.9018C71.5723 90.2419 71.9699 90.4107 72.3231 90.2788C72.6763 90.1469 72.8513 89.7643 72.714 89.4242Z" fill="white"/>
<path d="M143.445 20.339C143.239 19.8286 142.642 19.5753 142.112 19.7733C141.582 19.9712 141.319 20.5454 141.525 21.0558C141.731 21.5662 142.328 21.8195 142.858 21.6216C143.388 21.4237 143.651 20.8494 143.445 20.339Z" fill="white"/>
<path d="M192.586 177.148C192.38 176.638 191.783 176.384 191.253 176.582C190.723 176.78 190.46 177.354 190.666 177.865C190.872 178.375 191.469 178.629 191.999 178.431C192.529 178.233 192.792 177.659 192.586 177.148Z" fill="white"/>
<path d="M99.6539 14.0056C99.4479 13.4952 98.8511 13.2419 98.321 13.4398C97.7909 13.6378 97.5282 14.2119 97.7343 14.7223C97.9404 15.2327 98.5371 15.486 99.0672 15.2881C99.5973 15.0902 99.86 14.516 99.6539 14.0056Z" fill="white"/>
<path d="M58.4977 12.3606C58.2916 11.8502 57.6949 11.5969 57.1648 11.7948C56.6347 11.9927 56.372 12.5669 56.578 13.0773C56.7841 13.5877 57.3809 13.841 57.911 13.6431C58.4411 13.4452 58.7038 12.871 58.4977 12.3606Z" fill="white"/>
<path opacity="0.3" d="M48.7736 198.577C48.4987 197.896 47.7028 197.559 46.9958 197.823C46.2888 198.086 45.9384 198.852 46.2133 199.533C46.4881 200.214 47.2841 200.552 47.9911 200.288C48.6981 200.024 49.0484 199.258 48.7736 198.577Z" fill="white"/>
<path d="M3.34974 215.532C3.0749 214.851 2.27895 214.513 1.57195 214.777C0.864948 215.041 0.514621 215.807 0.789465 216.488C1.06431 217.168 1.86025 217.506 2.56725 217.242C3.27425 216.978 3.62459 216.212 3.34974 215.532Z" fill="white"/>
<path d="M66.65 134.576C66.444 134.066 65.8472 133.813 65.3171 134.011C64.787 134.209 64.5243 134.783 64.7304 135.293C64.9365 135.804 65.5332 136.057 66.0633 135.859C66.5934 135.661 66.8561 135.087 66.65 134.576Z" fill="white"/>
<path opacity="0.3" d="M23.9025 141.133C23.6276 140.453 22.8317 140.115 22.1247 140.379C21.4177 140.643 21.0674 141.409 21.3422 142.089C21.617 142.77 22.413 143.108 23.12 142.844C23.827 142.58 24.1773 141.814 23.9025 141.133Z" fill="white"/>
<path opacity="0.3" d="M94.0548 25.6645C93.78 24.9838 92.984 24.646 92.277 24.9099C91.57 25.1739 91.2197 25.9398 91.4945 26.6205C91.7694 27.3012 92.5653 27.639 93.2723 27.375C93.9793 27.1111 94.3297 26.3452 94.0548 25.6645Z" fill="white"/>
<path opacity="0.3" d="M80.8126 107.677C80.5378 106.996 79.7418 106.659 79.0348 106.923C78.3278 107.187 77.9775 107.952 78.2524 108.633C78.5272 109.314 79.3231 109.652 80.0301 109.388C80.7371 109.124 81.0875 108.358 80.8126 107.677Z" fill="white"/>
<path opacity="0.11" d="M35.711 95.6142C35.4362 94.9335 34.6403 94.5956 33.9333 94.8596C33.2263 95.1236 32.8759 95.8894 33.1508 96.5702C33.4256 97.2509 34.2216 97.5887 34.9286 97.3248C35.6356 97.0608 35.9859 96.2949 35.711 95.6142Z" fill="white"/>
<path d="M172.269 2.96969C172.131 2.62961 171.734 2.46087 171.381 2.59274C171.027 2.72462 170.852 3.10718 170.99 3.44726C171.127 3.78733 171.525 3.95608 171.878 3.82421C172.231 3.69233 172.406 3.30976 172.269 2.96969Z" fill="white"/>
<path d="M242.841 134.002C242.704 133.662 242.306 133.494 241.953 133.625C241.6 133.757 241.425 134.14 241.562 134.48C241.699 134.82 242.097 134.989 242.45 134.857C242.803 134.725 242.978 134.342 242.841 134.002Z" fill="white"/>
<path opacity="0.11" d="M195.532 172.264C195.395 171.924 194.997 171.755 194.644 171.887C194.291 172.018 194.116 172.401 194.253 172.741C194.391 173.081 194.788 173.25 195.141 173.118C195.495 172.986 195.67 172.604 195.532 172.264Z" fill="white"/>
<path opacity="0.11" d="M237.433 177.119C237.295 176.779 236.898 176.61 236.545 176.742C236.191 176.874 236.016 177.257 236.154 177.597C236.291 177.937 236.689 178.105 237.042 177.974C237.395 177.842 237.57 177.459 237.433 177.119Z" fill="white"/>
<path opacity="0.11" d="M267.616 142.453C267.479 142.113 267.081 141.944 266.728 142.076C266.375 142.208 266.2 142.591 266.337 142.931C266.475 143.271 266.872 143.439 267.225 143.308C267.579 143.176 267.754 142.793 267.616 142.453Z" fill="white"/>
<path opacity="0.11" d="M182.823 5.41152C182.686 5.07144 182.288 4.90269 181.935 5.03457C181.582 5.16645 181.407 5.54901 181.544 5.88909C181.682 6.22916 182.079 6.39797 182.432 6.26609C182.786 6.13422 182.961 5.75159 182.823 5.41152Z" fill="white"/>
<path opacity="0.3" d="M198.913 127.759C198.776 127.419 198.378 127.25 198.025 127.382C197.672 127.514 197.497 127.896 197.634 128.236C197.772 128.576 198.169 128.745 198.522 128.613C198.876 128.481 199.051 128.099 198.913 127.759Z" fill="white"/>
<path d="M199.427 2.74794C199.29 2.40786 198.892 2.23912 198.539 2.37099C198.186 2.50287 198.011 2.88544 198.148 3.22551C198.285 3.56559 198.683 3.7344 199.036 3.60252C199.389 3.47064 199.564 3.08801 199.427 2.74794Z" fill="white"/>
<path opacity="0.3" d="M200.345 62.0156C200.208 61.6755 199.81 61.5068 199.457 61.6386C199.104 61.7705 198.929 62.1531 199.066 62.4932C199.203 62.8332 199.601 63.002 199.954 62.8701C200.307 62.7382 200.482 62.3557 200.345 62.0156Z" fill="white"/>
<path opacity="0.11" d="M181.071 127.33C180.934 126.99 180.536 126.822 180.183 126.954C179.83 127.085 179.655 127.468 179.792 127.808C179.93 128.148 180.327 128.317 180.681 128.185C181.034 128.053 181.209 127.671 181.071 127.33Z" fill="white"/>
<path opacity="0.3" d="M243.847 59.8915C243.71 59.5514 243.312 59.3827 242.959 59.5145C242.606 59.6464 242.43 60.029 242.568 60.3691C242.705 60.7091 243.103 60.878 243.456 60.7461C243.809 60.6142 243.984 60.2316 243.847 59.8915Z" fill="white"/>
<path opacity="0.3" d="M191.706 109.885C191.569 109.545 191.171 109.376 190.818 109.508C190.465 109.64 190.29 110.023 190.427 110.363C190.564 110.703 190.962 110.872 191.315 110.74C191.669 110.608 191.844 110.225 191.706 109.885Z" fill="white"/>
<path d="M263.449 62.8532C263.243 62.3428 262.646 62.0896 262.116 62.2875C261.586 62.4854 261.323 63.0596 261.529 63.57C261.735 64.0804 262.332 64.3337 262.862 64.1358C263.392 63.9378 263.655 63.3636 263.449 62.8532Z" fill="white"/>
<path d="M281.816 150.265C281.61 149.755 281.013 149.502 280.483 149.7C279.953 149.897 279.69 150.472 279.896 150.982C280.102 151.492 280.699 151.746 281.229 151.548C281.759 151.35 282.022 150.776 281.816 150.265Z" fill="white"/>
<path d="M260.449 170.299C260.243 169.789 259.646 169.535 259.116 169.733C258.586 169.931 258.323 170.505 258.529 171.016C258.735 171.526 259.332 171.779 259.862 171.582C260.392 171.384 260.655 170.809 260.449 170.299Z" fill="white"/>
<path opacity="0.3" d="M247.539 85.4418C247.264 84.7611 246.468 84.4233 245.761 84.6873C245.054 84.9512 244.704 85.7171 244.979 86.3978C245.254 87.0785 246.05 87.4164 246.757 87.1524C247.464 86.8884 247.814 86.1226 247.539 85.4418Z" fill="white"/>
<path opacity="0.3" d="M232.496 148.49C232.221 147.809 231.425 147.472 230.718 147.736C230.011 148 229.661 148.765 229.936 149.446C230.211 150.127 231.007 150.465 231.714 150.201C232.421 149.937 232.771 149.171 232.496 148.49Z" fill="white"/>
<path opacity="0.3" d="M136.701 106.173C136.426 105.493 135.631 105.155 134.924 105.419C134.217 105.683 133.866 106.449 134.141 107.129C134.416 107.81 135.212 108.148 135.919 107.884C136.626 107.62 136.976 106.854 136.701 106.173Z" fill="white"/>
<path opacity="0.11" d="M130.621 127.575C130.346 126.894 129.55 126.557 128.843 126.821C128.136 127.085 127.786 127.85 128.061 128.531C128.336 129.212 129.132 129.55 129.839 129.286C130.546 129.022 130.896 128.256 130.621 127.575Z" fill="white"/>
<path opacity="0.3" d="M195.545 95.708C195.27 95.0272 194.474 94.6894 193.767 94.9534C193.06 95.2174 192.71 95.9832 192.985 96.6639C193.26 97.3446 194.056 97.6825 194.763 97.4185C195.47 97.1545 195.82 96.3887 195.545 95.708Z" fill="white"/>
<path d="M179.357 57.4489C179.151 56.9385 178.554 56.6852 178.024 56.8831C177.494 57.081 177.231 57.6552 177.437 58.1656C177.643 58.676 178.24 58.9294 178.77 58.7315C179.3 58.5335 179.563 57.9593 179.357 57.4489Z" fill="white"/>
</g>
</svg>
