<svg width="157" height="28" viewBox="0 0 157 28" fill="none" xmlns="http://www.w3.org/2000/svg">
<g clip-path="url(#clip0_973_47061)">
<path d="M147.344 13.1606C147.344 14.5024 147.004 15.5605 146.298 16.3088C145.591 17.0572 144.675 17.3926 143.55 17.3926C142.556 17.3926 141.719 17.0572 141.091 16.3604C140.436 15.6637 140.096 14.8121 140.096 13.7799V4.54169H136.485V13.7799C136.485 15.8701 137.087 17.6507 138.317 18.8893C139.547 20.1538 141.038 20.7731 142.949 20.7731C143.498 20.7731 144.074 20.6957 144.597 20.5666C145.146 20.4118 145.591 20.257 145.931 20.0763C146.272 19.8957 146.638 19.7151 146.926 19.4828C147.004 19.4312 147.161 19.3022 147.214 19.2248L147.318 19.07V20.4634H150.903V4.51588H147.344V13.1606ZM10.5713 17.341C6.69867 17.341 3.55867 14.2186 3.55867 10.4252C3.55867 6.60609 6.72483 3.5095 10.5713 3.5095C12.9002 3.5095 14.9412 4.6191 16.2233 6.37387L19.3372 4.6191C17.427 1.83216 14.2085 0 10.5713 0C4.73617 0 0 4.69652 0 10.4252C0 16.1798 4.76233 20.8505 10.5713 20.8505C14.2347 20.8505 17.4532 19.0183 19.3633 16.2572L16.2495 14.5025C14.9673 16.2056 12.9002 17.341 10.5713 17.341ZM153.441 0.180639H157V20.5666H153.441V0.180639ZM93.9907 0.180639L88.1555 9.96075L82.3203 0.180639H77.7412V20.5666H81.2998V5.41907L86.8733 14.7605H89.4115L95.0373 5.31584V20.5408H98.596L98.6222 0.154832H93.9907V0.180639ZM70.6238 8.07699H75.4123V4.56749H70.6238V0.232244H67.039V14.5541C67.039 18.0119 68.6352 20.5666 73.0573 20.5666H75.3862V17.0572H73.4237C70.9117 17.0572 70.6238 15.8185 70.6238 14.6057V8.07699ZM53.5108 4.56749H49.9522V6.01258C48.6177 5.10939 46.9953 4.56749 45.2683 4.56749C40.7153 4.56749 36.9735 8.23183 36.9735 12.7477C36.9735 17.2378 40.6892 20.9279 45.2683 20.9279C46.9953 20.9279 48.6438 20.386 49.9522 19.4828V20.5924H53.5108V4.56749ZM45.2422 17.3152C42.6517 17.3152 40.5845 15.2508 40.5845 12.7219C40.5845 10.193 42.6778 8.1286 45.2422 8.1286C47.8327 8.1286 49.8998 10.193 49.8998 12.7219C49.8998 15.2508 47.8065 17.3152 45.2422 17.3152ZM64.4747 4.54169C63.7682 4.54169 61.544 4.5933 59.5553 5.83194V4.54169H55.9967V20.515H59.5553V11.8187C59.5553 10.8123 59.7908 10.0382 60.2618 9.49627C61.4917 8.07699 63.8205 7.97376 63.9775 7.97376C64.1607 7.97376 64.3962 7.94796 64.6055 7.94796H65.5213V4.54169H64.8933C64.8148 4.54169 64.5008 4.54169 64.4747 4.54169ZM108.408 20.8763C103.855 20.8763 100.14 17.212 100.14 12.7219C100.14 8.23183 103.855 4.56749 108.408 4.56749C112.961 4.56749 116.677 8.23183 116.677 12.7219C116.677 17.212 112.961 20.8763 108.408 20.8763ZM108.408 8.15441C105.87 8.15441 103.777 10.2188 103.777 12.7219C103.777 15.225 105.87 17.2894 108.408 17.2894C110.947 17.2894 113.04 15.225 113.04 12.7219C113.066 10.193 110.973 8.15441 108.408 8.15441ZM130.65 4.54169V5.98678C129.316 5.08362 127.719 4.56749 125.993 4.56749C121.439 4.56749 117.724 8.23183 117.724 12.7219C117.724 17.212 121.439 20.8763 125.993 20.8763C127.719 20.8763 129.316 20.3344 130.65 19.457V19.7667C130.65 19.9215 130.624 20.0763 130.624 20.0763C130.441 21.2892 129.865 22.373 129.185 23.1472C128.295 23.9987 127.196 24.3858 125.914 24.4116H125.835C124.004 24.36 122.382 23.5342 121.361 22.244L118.927 24.7987C120.367 26.7599 123.009 28.0501 125.993 27.9985C128.295 27.9985 130.258 27.1728 131.854 25.547C133.319 24.0245 134.104 22.1666 134.209 19.9989C134.209 19.9989 134.235 19.7409 134.235 19.4312V4.5933H130.65V4.54169ZM125.993 17.3152C123.454 17.3152 121.361 15.2508 121.361 12.7477C121.361 10.2446 123.454 8.18021 125.993 8.18021C128.531 8.18021 130.624 10.2446 130.624 12.7477C130.624 15.2508 128.531 17.3152 125.993 17.3152ZM27.7367 8.1028H28.4432C28.3385 8.1028 28.2077 8.07699 28.103 8.07699C27.946 8.07699 27.8675 8.07699 27.7367 8.1028Z" fill="currentColor"/>
<path d="M35.2886 11.3882C35.2886 7.21593 32.3553 4.58892 28.3747 4.58892C26.9343 4.58892 25.5725 5.05251 24.4464 5.79939V0.236328H20.8848V20.557H24.4464V12.3154C24.4464 10.9762 24.7607 9.94596 25.4154 9.19905C25.9915 8.5552 26.7772 8.16885 27.7723 8.11736C27.8771 8.11736 27.9818 8.09161 28.0866 8.09161C28.1914 8.09161 28.3223 8.09158 28.4271 8.11736C29.396 8.16885 30.1555 8.5552 30.7579 9.19905C31.36 9.92021 31.6743 10.8989 31.7267 12.1351V20.557H35.2886V11.3882Z" fill="currentColor"/>
</g>
<defs>
<clipPath id="clip0_973_47061">
<rect width="157" height="28" fill="currentColor"/>
</clipPath>
</defs>
</svg>
