<svg width="41" height="38" viewBox="0 0 41 38" fill="none" xmlns="http://www.w3.org/2000/svg">
<path d="M38.9156 15.2555C38.4305 7.08828 31.6328 0.59375 23.3461 0.59375H17.9898C9.70312 0.59375 2.90547 7.08828 2.42031 15.2555C1.39062 15.6992 0.667969 16.725 0.667969 17.9156V23.957C0.667969 25.5539 1.96719 26.8531 3.56406 26.8531H5.90781V15.0195H4.7875C5.38281 8.25859 11.0766 2.9375 17.9898 2.9375H23.3461C30.2594 2.9375 35.9531 8.25859 36.5484 15.0195H35.4281V26.8531H37.7719C39.3687 26.8531 40.668 25.5539 40.668 23.957V17.9156C40.668 16.725 39.9453 15.6992 38.9156 15.2555Z" fill="currentColor"/>
<path d="M29.875 11.3516H11.4578C9.68906 11.3516 8.25 12.7906 8.25 14.5594V29.1594C8.25 30.9281 9.68906 32.3672 11.4578 32.3672H15.4742L19.3805 36.9906C19.6031 37.2539 19.9305 37.4062 20.2758 37.4062C20.6211 37.4062 20.9484 37.2539 21.1711 36.9906L25.0773 32.3672H29.875C31.6437 32.3672 33.0828 30.9281 33.0828 29.1594V14.5594C33.0828 12.7906 31.6437 11.3516 29.875 11.3516ZM24.9492 17.2203C25.5961 17.2203 26.1211 17.7445 26.1211 18.3922C26.1211 19.0391 25.5961 19.5641 24.9492 19.5641C24.3023 19.5641 23.7773 19.0391 23.7773 18.3922C23.7773 17.7445 24.3023 17.2203 24.9492 17.2203ZM15.8875 17.2203C16.5344 17.2203 17.0594 17.7445 17.0594 18.3922C17.0594 19.0391 16.5344 19.5641 15.8875 19.5641C15.2406 19.5641 14.7156 19.0391 14.7156 18.3922C14.7156 17.7445 15.2406 17.2203 15.8875 17.2203ZM26.5078 24.3297C24.7062 25.9273 22.6859 26.7266 20.6664 26.7266C18.6461 26.7266 16.6266 25.9281 14.825 24.3297C14.3406 23.9008 14.2961 23.1602 14.7258 22.6758C15.1555 22.1914 15.8961 22.1469 16.3805 22.5766C17.7422 23.7844 19.2039 24.3883 20.6664 24.3883C22.1289 24.3883 23.5914 23.7844 24.9531 22.5766C25.4367 22.1469 26.1773 22.1914 26.607 22.6758C27.0367 23.1602 26.9922 23.9008 26.5078 24.3297Z" fill="currentColor"/>
</svg>
