<svg width="146" height="30" viewBox="0 0 146 30" fill="none" xmlns="http://www.w3.org/2000/svg">
<g clip-path="url(#clip0_973_47303)">
<path d="M115.176 18.9042V7.82036H116.853C118.495 7.82036 118.529 7.82036 118.576 8.08846C118.61 8.22831 118.703 8.68286 118.784 9.10241L118.934 9.84831L119.721 9.12571C121.154 7.83206 122.554 7.36586 124.427 7.57561C126.89 7.85536 128.625 9.56861 129.353 12.4357C129.585 13.3914 129.631 13.8343 129.631 15.3844C129.619 18.6711 128.879 20.7806 127.156 22.3424C125.537 23.8226 123.282 24.3237 120.669 23.7992C120.102 23.6827 119.535 23.5428 119.432 23.4962C119.235 23.4146 119.224 23.6011 119.224 26.3283C119.224 27.9367 119.177 29.277 119.119 29.312C119.027 29.3703 118.622 29.4402 116.737 29.7316C116.356 29.7898 115.847 29.8714 115.615 29.9181L115.176 29.9996V18.9042ZM123.028 20.5592C124.092 20.2212 124.82 19.4054 125.317 17.9951C125.618 17.1676 125.606 14.3122 125.306 13.3798C125.028 12.4824 124.496 11.8064 123.791 11.4451C122.577 10.804 121.189 11.1887 119.894 12.5057L119.224 13.205V16.6315V20.0464L119.582 20.2445C120.044 20.4776 121.212 20.734 121.895 20.7457C122.195 20.7573 122.704 20.6641 123.028 20.5592Z" fill="currentColor"/>
<path d="M6.12882 24.0206C3.05284 23.6126 0.901977 21.5148 0.127202 18.1581C0.057819 17.8551 0 16.8295 0 15.8854C0 13.8342 0.219712 12.8319 0.94823 11.3983C1.82708 9.67336 3.36507 8.40301 5.23842 7.85521C6.44103 7.50556 8.85788 7.45896 10.0605 7.76196C10.7428 7.93681 12.4311 8.68271 12.5351 8.85756C12.5583 8.89251 12.5351 9.24216 12.4773 9.62676C12.1767 11.6431 12.061 12.3773 11.9917 12.4356C11.957 12.4706 11.5754 12.2841 11.1359 12.0277C10.1414 11.41 9.4245 11.1885 8.25655 11.1186C5.60844 10.9438 4.04733 12.692 4.04733 15.8155C4.04733 17.622 4.42894 18.6943 5.35403 19.5567C6.41789 20.5474 7.78245 20.8621 9.3667 20.4775C10.1992 20.2793 10.7081 20.0462 11.4944 19.5451C11.8413 19.3236 12.1651 19.1838 12.1998 19.2421C12.2576 19.3353 12.5351 21.0019 12.6855 22.1208C12.7433 22.5987 12.7433 22.6103 12.1882 22.9716C10.789 23.8574 8.23341 24.3003 6.12882 24.0206Z" fill="currentColor"/>
<path d="M29.1289 24.0207C28.2038 23.8692 27.0936 23.4729 26.4808 23.0766C25.9488 22.7386 24.9081 21.748 24.5727 21.2585C24.1912 20.699 23.7055 19.5802 23.4742 18.741C23.1388 17.4473 23.1388 14.3122 23.4742 13.0767C24.2143 10.4194 25.9373 8.50801 28.25 7.80871C28.8629 7.62226 29.3717 7.57561 30.505 7.56396C31.8117 7.56396 32.0661 7.59896 32.8409 7.87866C34.8992 8.62456 36.2637 10.1863 36.8882 12.5057C37.1542 13.5313 37.3623 15.501 37.2698 16.1769L37.2004 16.6781L32.2164 16.7014L27.2324 16.7364L27.2671 17.3191C27.3365 18.9042 28.4004 20.3261 29.8112 20.769C30.6784 21.0254 32.043 21.037 33.049 20.7806C33.9741 20.5359 35.5468 19.8249 36.1943 19.3354C36.6569 18.9974 36.8419 19.114 36.9229 19.79C36.9576 20.093 37.0501 20.769 37.1195 21.2818C37.2467 22.1792 37.2351 22.2142 36.9807 22.4123C36.31 22.9135 35.0843 23.4612 33.8238 23.8109C32.8871 24.0673 30.1696 24.1838 29.1289 24.0207ZM33.3034 13.8576C33.3034 13.438 33.0143 12.4707 32.7368 11.9346C32.2049 10.874 31.4069 10.3845 30.2506 10.3845C28.8745 10.3845 27.5215 11.8297 27.3249 13.508L27.2556 14.114H30.2853H33.3034V13.8576Z" fill="currentColor"/>
<path d="M42.67 24.0324C41.3864 23.7526 40.2301 22.7969 39.7675 21.6198C39.3744 20.6408 39.3744 18.6828 39.7675 17.6921C40.1491 16.7014 41.1783 15.6408 42.2422 15.1164C43.8149 14.3588 45.0059 14.0441 48.2207 13.5663L48.8567 13.4614L48.8451 12.8087C48.822 11.4101 48.0472 10.8507 46.1508 10.8507C44.8787 10.8507 43.9999 11.0255 42.4734 11.5616C41.0742 12.0628 41.0164 12.0628 40.9123 11.4917C40.6811 10.2563 40.496 8.92761 40.5539 8.83436C40.6695 8.63626 42.5428 8.04186 43.9305 7.75046C45.0869 7.50571 48.371 7.50571 49.3077 7.75046C51.4467 8.32156 52.5571 9.48706 52.8461 11.4917C52.9042 11.9462 52.9619 14.825 52.9619 18.0534V23.7876H51.2506H49.5274L49.4001 23.1932C49.3192 22.8669 49.2614 22.4823 49.2614 22.3191C49.2614 21.9578 49.0301 21.9578 48.6832 22.3307C48.2322 22.8202 47.1799 23.4613 46.3704 23.7643C45.7923 23.9857 45.3297 24.0557 44.3468 24.0906C43.653 24.1023 42.8897 24.0906 42.67 24.0324ZM47.203 20.6175C47.5615 20.4543 48.0934 20.093 48.3826 19.8249L48.9145 19.3238V17.6338V15.9439L48.3132 16.0254C46.3358 16.2819 44.4971 17.086 43.9189 17.9485C43.2251 18.9508 43.3523 20.1163 44.208 20.734C44.5434 20.9788 44.6822 21.0021 45.561 20.9671C46.3242 20.9322 46.6942 20.8622 47.203 20.6175Z" fill="currentColor"/>
<path d="M71.8693 24.0207C70.9327 23.8808 69.3138 23.3913 68.3886 22.9717C67.6487 22.6337 67.6373 22.6221 67.6949 22.2491C68.0648 19.9298 68.1577 19.4053 68.2387 19.3121C68.2848 19.2655 68.6315 19.4053 69.0019 19.6268C70.4818 20.5358 72.0198 20.9904 73.7196 21.0254C74.8067 21.0487 75.0729 21.0137 75.5352 20.7923C76.1942 20.4892 76.4951 20.058 76.4951 19.4053C76.4951 18.4846 75.7666 17.9718 73.662 17.4123C70.0423 16.4566 68.8515 15.7224 68.1925 14.0324C67.9839 13.4963 67.903 11.6432 68.0534 11.0255C68.4234 9.54526 69.6838 8.32151 71.3374 7.82036C72.3555 7.51731 75.4081 7.48236 76.6337 7.76211C77.6398 7.99516 79.1897 8.50801 79.2706 8.63621C79.3049 8.69446 79.282 9.07911 79.2125 9.49866C79.1549 9.91826 79.0392 10.6175 78.9811 11.0488C78.9121 11.48 78.8192 11.8763 78.7616 11.9345C78.704 11.9928 78.3802 11.8879 78.0445 11.7131C76.1827 10.7691 73.662 10.3378 72.5864 10.7924C71.6498 11.177 71.3955 12.1676 72.0545 12.8087C72.3783 13.135 74.0896 13.8809 74.5062 13.8809C74.7719 13.8809 76.9346 14.5802 77.5241 14.8483C79.4325 15.734 80.2534 16.9811 80.2534 19.0324C80.2534 21.5382 79.0158 23.1815 76.6108 23.8458C75.7894 24.0673 72.9102 24.1722 71.8693 24.0207Z" fill="currentColor"/>
<path d="M88.752 24.0557C88.0811 23.9857 86.7632 23.5778 86.0923 23.2282C85.179 22.7736 83.8372 21.3284 83.3401 20.2912C82.623 18.7877 82.5078 18.1583 82.5078 15.9206C82.5192 13.6828 82.6464 12.9719 83.3173 11.585C84.2767 9.61526 85.8608 8.32156 88.0121 7.76216C89.0063 7.49406 91.4928 7.50571 92.5103 7.76216C93.2964 7.97191 94.8577 8.64791 94.9734 8.83441C95.0544 8.97426 94.5915 12.2726 94.4644 12.4125C94.4182 12.4707 94.2335 12.4008 94.0483 12.2842C93.0188 11.5383 91.6313 11.0838 90.4405 11.0838C87.9773 11.0838 86.497 12.8786 86.497 15.874C86.497 18.1583 87.4107 19.7084 89.122 20.3727C90.5443 20.9205 92.4989 20.5592 94.0716 19.4753L94.5915 19.114L94.6958 19.3821C94.9153 19.9182 95.2163 22.4007 95.0891 22.6105C94.9153 22.8902 93.6088 23.5312 92.6608 23.7876C91.828 24.0207 89.6886 24.1722 88.752 24.0557Z" fill="currentColor"/>
<path d="M103.032 24.0323C102.258 23.8808 101.101 23.4613 100.615 23.1582C99.864 22.6804 98.8927 21.6897 98.4646 20.9788C97.4357 19.2772 97.0885 17.8086 97.1695 15.4544C97.2276 13.5896 97.3895 12.8553 98.0713 11.48C98.9155 9.75513 100.373 8.47308 102.165 7.87868C102.951 7.62228 103.287 7.57568 104.594 7.57568C105.9 7.57568 106.213 7.61063 106.999 7.86703C109.323 8.64793 110.93 10.3612 111.717 12.9486C111.96 13.7178 111.994 14.0674 111.994 15.804C111.994 17.5289 111.96 17.9019 111.728 18.7177C111.011 21.2002 109.416 22.9601 107.195 23.7293C106.502 23.9741 106.051 24.044 104.94 24.079C104.177 24.1023 103.321 24.079 103.032 24.0323ZM105.704 20.6291C106.71 20.3727 107.681 19.0091 108.005 17.4124C108.213 16.3984 108.097 14.487 107.785 13.4963C107.288 11.9695 106.143 10.9789 104.744 10.874C103.842 10.8041 102.732 11.2586 102.234 11.888C101.402 12.9486 101.124 13.9509 101.124 15.8623C101.124 17.0744 101.171 17.459 101.391 18.135C102.142 20.3727 103.529 21.1769 105.704 20.6291Z" fill="currentColor"/>
<path d="M138.072 24.067C137.228 23.9505 135.793 23.426 135.181 23.0064C132.857 21.4214 131.792 18.799 131.978 15.1627C132.07 13.5077 132.267 12.7385 132.938 11.3282C133.77 9.61499 135.065 8.47279 136.869 7.87839C137.632 7.62199 138.002 7.57539 139.17 7.57539C141.391 7.56374 142.721 8.07654 144.004 9.44014C145.346 10.8854 145.97 12.6569 145.981 15.1044L145.993 16.6196L140.997 16.6545L135.99 16.6778V17.0974C135.99 17.7035 136.291 18.6592 136.684 19.2769C137.864 21.165 140.662 21.5379 143.437 20.1743C143.958 19.9295 144.617 19.5799 144.918 19.3934C145.218 19.2186 145.496 19.1137 145.542 19.1487C145.657 19.2652 146.039 22.0391 145.97 22.2255C145.877 22.482 143.669 23.5309 142.697 23.799C141.842 24.0321 139.032 24.1952 138.072 24.067ZM142.061 13.9972C142.165 13.8224 141.911 12.7851 141.599 12.0741C141.298 11.3982 140.604 10.6989 140.049 10.5124C138.291 9.92969 136.661 11.0951 136.117 13.3329C136.048 13.6359 136.013 13.9389 136.048 14.0089C136.152 14.1604 141.969 14.1487 142.061 13.9972Z" fill="currentColor"/>
<path d="M15.9115 20.836C15.8768 20.7324 15.8421 16.7997 15.8421 12.0858C15.8421 2.72869 15.8074 3.26502 16.4897 2.80536C16.64 2.70408 17.2182 2.25582 17.7733 1.79824C18.3399 1.32662 19.0337 0.749435 19.3459 0.487476L19.8894 0.0385742V11.8879V23.749H17.8656H15.9115V20.836Z" fill="currentColor"/>
<path d="M56.7773 15.8037V7.82015H58.4544C60.0961 7.82015 60.1309 7.82015 60.189 8.0882C60.2118 8.22805 60.3275 8.8458 60.4318 9.45185C60.5242 10.0579 60.6399 10.594 60.6746 10.6523C60.7089 10.7105 60.9056 10.5007 61.1136 10.1861C61.5531 9.5334 62.7559 8.36795 63.2878 8.09985C64.051 7.69195 65.4966 7.41225 65.6699 7.63365C65.7509 7.73855 66.1904 10.3026 66.2947 11.2583C66.3175 11.4448 66.2251 11.5031 65.7971 11.5846C63.9701 11.9226 62.6864 12.5986 61.565 13.7991L60.8246 14.58L60.8018 19.1603L60.767 23.729L58.7781 23.764L56.7773 23.7873V15.8037Z" fill="currentColor"/>
</g>
<defs>
<clipPath id="clip0_973_47303">
<rect width="146" height="30" fill="currentColor"/>
</clipPath>
</defs>
</svg>
