<svg width="1280" height="305" viewBox="0 0 1280 305" fill="none" xmlns="http://www.w3.org/2000/svg">
<g opacity="0.3">
<path opacity="0.11" d="M1099.58 163.45C1100.49 163.754 1101.47 163.234 1101.76 162.29C1102.05 161.345 1101.55 160.334 1100.64 160.03C1099.73 159.727 1098.76 160.247 1098.47 161.191C1098.18 162.136 1098.68 163.147 1099.58 163.45Z" fill="white"/>
<path d="M1102.02 174.628C1102.7 174.855 1103.43 174.466 1103.65 173.757C1103.87 173.049 1103.49 172.291 1102.81 172.063C1102.13 171.836 1101.4 172.226 1101.18 172.934C1100.96 173.642 1101.34 174.4 1102.02 174.628Z" fill="white"/>
<path d="M1134.72 165.748C1135.4 165.975 1136.13 165.586 1136.35 164.877C1136.57 164.169 1136.2 163.411 1135.52 163.183C1134.83 162.956 1134.1 163.346 1133.88 164.054C1133.67 164.762 1134.04 165.52 1134.72 165.748Z" fill="white"/>
<path d="M1065.32 140.699C1066 140.927 1066.73 140.537 1066.95 139.829C1067.17 139.121 1066.79 138.362 1066.11 138.135C1065.43 137.907 1064.7 138.297 1064.48 139.005C1064.26 139.713 1064.64 140.472 1065.32 140.699Z" fill="white"/>
<path opacity="0.11" d="M1018.25 147.623C1019.16 147.926 1020.14 147.407 1020.43 146.462C1020.72 145.518 1020.22 144.506 1019.31 144.203C1018.4 143.9 1017.43 144.419 1017.14 145.364C1016.84 146.308 1017.34 147.32 1018.25 147.623Z" fill="white"/>
<path d="M1008.44 123.604C1008.89 123.756 1009.38 123.496 1009.53 123.024C1009.67 122.552 1009.42 122.047 1008.97 121.895C1008.51 121.744 1008.03 122.004 1007.88 122.475C1007.73 122.947 1007.98 123.453 1008.44 123.604Z" fill="white"/>
<path d="M1086.81 195.954C1087.26 196.105 1087.75 195.846 1087.89 195.374C1088.04 194.902 1087.79 194.397 1087.33 194.245C1086.88 194.094 1086.39 194.353 1086.25 194.825C1086.1 195.297 1086.35 195.802 1086.81 195.954Z" fill="white"/>
<path d="M1266.16 255.805C1266.61 255.956 1267.1 255.697 1267.24 255.225C1267.39 254.753 1267.14 254.248 1266.69 254.096C1266.23 253.945 1265.75 254.204 1265.6 254.676C1265.45 255.148 1265.7 255.653 1266.16 255.805Z" fill="white"/>
<path d="M819.456 83.1716C819.91 83.3232 820.397 83.0636 820.543 82.5917C820.688 82.1199 820.439 81.6145 819.984 81.463C819.53 81.3114 819.044 81.5711 818.898 82.043C818.752 82.5148 819.002 83.0201 819.456 83.1716Z" fill="white"/>
<path opacity="0.11" d="M821.392 32.9025C821.846 33.054 822.332 32.7943 822.478 32.3225C822.624 31.8507 822.374 31.3454 821.92 31.1938C821.466 31.0423 820.979 31.3019 820.834 31.7737C820.688 32.2456 820.938 32.7509 821.392 32.9025Z" fill="white"/>
<path opacity="0.11" d="M779.941 40.7591C780.395 40.9106 780.881 40.651 781.027 40.1792C781.173 39.7074 780.923 39.202 780.469 39.0505C780.015 38.899 779.528 39.1586 779.382 39.6304C779.237 40.1022 779.486 40.6075 779.941 40.7591Z" fill="white"/>
<path opacity="0.11" d="M791.234 101.101C791.688 101.252 792.174 100.992 792.32 100.521C792.466 100.049 792.216 99.5435 791.762 99.3919C791.308 99.2404 790.821 99.5 790.675 99.9718C790.53 100.444 790.779 100.949 791.234 101.101Z" fill="white"/>
<path opacity="0.11" d="M997.599 132.241C998.053 132.392 998.539 132.133 998.685 131.661C998.831 131.189 998.581 130.684 998.127 130.532C997.673 130.381 997.186 130.64 997.041 131.112C996.895 131.584 997.145 132.089 997.599 132.241Z" fill="white"/>
<path opacity="0.11" d="M1075.66 226.184C1076.11 226.336 1076.6 226.076 1076.74 225.604C1076.89 225.132 1076.64 224.627 1076.19 224.476C1075.73 224.324 1075.25 224.584 1075.1 225.055C1074.95 225.527 1075.2 226.033 1075.66 226.184Z" fill="white"/>
<path opacity="0.11" d="M1236.25 270.337C1236.7 270.489 1237.19 270.229 1237.33 269.757C1237.48 269.285 1237.23 268.78 1236.78 268.629C1236.32 268.477 1235.83 268.737 1235.69 269.209C1235.54 269.68 1235.79 270.186 1236.25 270.337Z" fill="white"/>
<path opacity="0.3" d="M863.911 74.4342C864.365 74.5858 864.852 74.3261 864.998 73.8543C865.144 73.3825 864.894 72.8771 864.439 72.7256C863.985 72.574 863.499 72.8337 863.353 73.3055C863.207 73.7774 863.457 74.2827 863.911 74.4342Z" fill="white"/>
<path d="M1067.4 91.4149C1067.85 91.5665 1068.34 91.3068 1068.48 90.8349C1068.63 90.3631 1068.38 89.8578 1067.92 89.7063C1067.47 89.5547 1066.98 89.8143 1066.84 90.2862C1066.69 90.758 1066.94 91.2634 1067.4 91.4149Z" fill="white"/>
<path d="M1194.61 131.984C1195.07 132.135 1195.55 131.876 1195.7 131.404C1195.85 130.932 1195.6 130.427 1195.14 130.275C1194.69 130.124 1194.2 130.383 1194.06 130.855C1193.91 131.327 1194.16 131.832 1194.61 131.984Z" fill="white"/>
<path d="M987.142 151.384C987.596 151.535 988.082 151.276 988.228 150.804C988.374 150.332 988.124 149.827 987.67 149.675C987.216 149.524 986.729 149.783 986.584 150.255C986.438 150.727 986.688 151.232 987.142 151.384Z" fill="white"/>
<path opacity="0.3" d="M929.552 132.169C930.006 132.32 930.492 132.061 930.638 131.589C930.784 131.117 930.534 130.612 930.08 130.46C929.626 130.309 929.14 130.568 928.994 131.04C928.848 131.512 929.098 132.017 929.552 132.169Z" fill="white"/>
<path opacity="0.11" d="M878.485 56.6697C878.94 56.8212 879.426 56.5616 879.572 56.0898C879.718 55.618 879.468 55.1126 879.014 54.961C878.56 54.8095 878.073 55.0692 877.927 55.541C877.781 56.0129 878.031 56.5182 878.485 56.6697Z" fill="white"/>
<path opacity="0.3" d="M1075.87 116.878C1076.32 117.029 1076.81 116.769 1076.95 116.298C1077.1 115.826 1076.85 115.32 1076.4 115.169C1075.94 115.017 1075.46 115.277 1075.31 115.749C1075.16 116.221 1075.41 116.726 1075.87 116.878Z" fill="white"/>
<path opacity="0.3" d="M996.11 172.295C996.565 172.447 997.051 172.187 997.197 171.715C997.343 171.244 997.093 170.738 996.639 170.587C996.185 170.435 995.698 170.695 995.552 171.167C995.406 171.638 995.656 172.144 996.11 172.295Z" fill="white"/>
<path opacity="0.3" d="M893.923 147.622C894.377 147.773 894.864 147.514 895.009 147.042C895.155 146.57 894.905 146.065 894.451 145.913C893.997 145.762 893.511 146.021 893.365 146.493C893.219 146.965 893.469 147.47 893.923 147.622Z" fill="white"/>
<path opacity="0.3" d="M887.771 82.3994C888.225 82.551 888.711 82.2914 888.857 81.8195C889.003 81.3477 888.753 80.8423 888.299 80.6908C887.845 80.5392 887.358 80.7989 887.212 81.2708C887.067 81.7426 887.317 82.2479 887.771 82.3994Z" fill="white"/>
<path opacity="0.11" d="M1278.65 171.337C1279.1 171.489 1279.59 171.229 1279.74 170.757C1279.88 170.285 1279.63 169.78 1279.18 169.629C1278.72 169.477 1278.24 169.737 1278.09 170.208C1277.95 170.68 1278.2 171.186 1278.65 171.337Z" fill="white"/>
<path opacity="0.3" d="M1156.17 218.158C1157.08 218.461 1158.05 217.941 1158.35 216.997C1158.64 216.052 1158.14 215.041 1157.23 214.737C1156.32 214.434 1155.35 214.954 1155.05 215.898C1154.76 216.843 1155.26 217.854 1156.17 218.158Z" fill="white"/>
<path opacity="0.11" d="M1212.64 208.719C1213.55 209.023 1214.53 208.503 1214.82 207.558C1215.11 206.614 1214.61 205.602 1213.7 205.299C1212.79 204.996 1211.82 205.515 1211.53 206.46C1211.23 207.404 1211.73 208.416 1212.64 208.719Z" fill="white"/>
<path d="M1221.48 178.669C1222.16 178.896 1222.89 178.507 1223.11 177.798C1223.33 177.09 1222.95 176.332 1222.27 176.104C1221.59 175.877 1220.86 176.267 1220.64 176.975C1220.42 177.683 1220.8 178.441 1221.48 178.669Z" fill="white"/>
<path d="M1136.97 249.475C1137.65 249.702 1138.38 249.312 1138.6 248.604C1138.82 247.896 1138.45 247.138 1137.77 246.91C1137.08 246.683 1136.35 247.072 1136.13 247.781C1135.92 248.489 1136.29 249.247 1136.97 249.475Z" fill="white"/>
<path d="M875.387 165.009C876.068 165.237 876.798 164.847 877.017 164.139C877.236 163.431 876.861 162.672 876.179 162.445C875.498 162.217 874.768 162.607 874.549 163.315C874.33 164.023 874.705 164.782 875.387 165.009Z" fill="white"/>
<path d="M772.051 108.846C772.732 109.073 773.462 108.684 773.681 107.976C773.9 107.267 773.525 106.509 772.844 106.282C772.162 106.054 771.432 106.444 771.213 107.152C770.994 107.86 771.369 108.619 772.051 108.846Z" fill="white"/>
<path d="M768.633 69.989C769.314 70.2164 770.044 69.8267 770.263 69.1186C770.482 68.4105 770.107 67.6519 769.426 67.4245C768.744 67.1971 768.014 67.5868 767.795 68.295C767.576 69.0031 767.951 69.7615 768.633 69.989Z" fill="white"/>
<path d="M1176.71 182.589C1177.39 182.817 1178.12 182.427 1178.34 181.719C1178.56 181.011 1178.19 180.252 1177.5 180.025C1176.82 179.797 1176.09 180.187 1175.87 180.895C1175.65 181.603 1176.03 182.362 1176.71 182.589Z" fill="white"/>
<path d="M1014.01 198.07C1014.69 198.297 1015.42 197.907 1015.64 197.199C1015.86 196.491 1015.48 195.733 1014.8 195.505C1014.12 195.278 1013.39 195.667 1013.17 196.376C1012.95 197.084 1013.33 197.842 1014.01 198.07Z" fill="white"/>
<path d="M1209.96 304.003C1210.65 304.23 1211.38 303.841 1211.6 303.133C1211.81 302.424 1211.44 301.666 1210.76 301.439C1210.08 301.211 1209.35 301.601 1209.13 302.309C1208.91 303.017 1209.28 303.775 1209.96 304.003Z" fill="white"/>
<path opacity="0.3" d="M865.042 129.497C865.951 129.801 866.925 129.281 867.216 128.337C867.508 127.392 867.008 126.381 866.099 126.077C865.19 125.774 864.216 126.294 863.924 127.238C863.633 128.183 864.133 129.194 865.042 129.497Z" fill="white"/>
<path opacity="0.3" d="M812.932 60.2511C813.842 60.5545 814.815 60.0348 815.107 59.0903C815.399 58.1458 814.899 57.1343 813.99 56.831C813.081 56.5276 812.107 57.0474 811.815 57.9918C811.523 58.9363 812.023 59.9478 812.932 60.2511Z" fill="white"/>
<path opacity="0.3" d="M939.561 70.4491C940.47 70.7524 941.444 70.2326 941.736 69.2882C942.028 68.3437 941.528 67.3322 940.619 67.0289C939.71 66.7255 938.736 67.2452 938.444 68.1897C938.152 69.1342 938.652 70.1458 939.561 70.4491Z" fill="white"/>
<path opacity="0.11" d="M922.632 45.9423C923.541 46.2457 924.514 45.7259 924.806 44.7814C925.098 43.8369 924.598 42.8254 923.689 42.5221C922.78 42.2187 921.806 42.7385 921.514 43.6829C921.222 44.6274 921.723 45.639 922.632 45.9423Z" fill="white"/>
<path opacity="0.3" d="M899.139 98.4479C900.049 98.7513 901.022 98.2315 901.314 97.2871C901.606 96.3426 901.106 95.3311 900.197 95.0278C899.288 94.7244 898.314 95.2441 898.022 96.1886C897.73 97.1331 898.23 98.1446 899.139 98.4479Z" fill="white"/>
<path d="M950.82 114.75C951.502 114.978 952.232 114.588 952.451 113.88C952.67 113.172 952.295 112.413 951.613 112.186C950.931 111.959 950.201 112.348 949.983 113.056C949.764 113.765 950.139 114.523 950.82 114.75Z" fill="white"/>
<path opacity="0.11" d="M378.929 131.487C378.043 131.856 377.612 132.902 377.968 133.823C378.323 134.743 379.329 135.191 380.216 134.822C381.102 134.453 381.532 133.407 381.177 132.486C380.822 131.565 379.815 131.118 378.929 131.487Z" fill="white"/>
<path d="M370.182 124.491C369.517 124.767 369.195 125.551 369.461 126.242C369.727 126.932 370.482 127.268 371.146 126.991C371.811 126.714 372.134 125.93 371.867 125.24C371.601 124.549 370.846 124.214 370.182 124.491Z" fill="white"/>
<path d="M350.459 153.009C349.795 153.286 349.472 154.07 349.738 154.76C350.005 155.451 350.759 155.786 351.424 155.509C352.088 155.233 352.411 154.448 352.145 153.758C351.878 153.068 351.124 152.732 350.459 153.009Z" fill="white"/>
<path d="M419.28 126.29C418.615 126.567 418.292 127.351 418.559 128.041C418.825 128.732 419.58 129.067 420.244 128.79C420.909 128.514 421.231 127.73 420.965 127.039C420.699 126.349 419.944 126.013 419.28 126.29Z" fill="white"/>
<path opacity="0.11" d="M451.269 89.7581C450.383 90.1272 449.952 91.1728 450.308 92.0936C450.663 93.0143 451.669 93.4616 452.555 93.0926C453.442 92.7235 453.872 91.6779 453.517 90.7571C453.162 89.8363 452.155 89.3891 451.269 89.7581Z" fill="white"/>
<path d="M473.577 101.744C473.134 101.929 472.919 102.451 473.097 102.911C473.274 103.371 473.777 103.595 474.22 103.41C474.663 103.226 474.878 102.704 474.7 102.244C474.523 101.784 474.02 101.56 473.577 101.744Z" fill="white"/>
<path d="M368.804 97.9863C368.361 98.1706 368.146 98.693 368.323 99.153C368.501 99.613 369.004 99.8364 369.446 99.6521C369.889 99.4677 370.104 98.9453 369.927 98.4853C369.749 98.0253 369.246 97.8019 368.804 97.9863Z" fill="white"/>
<path d="M193.95 170.792C193.507 170.977 193.292 171.499 193.47 171.959C193.647 172.419 194.15 172.642 194.593 172.458C195.036 172.274 195.251 171.751 195.073 171.291C194.896 170.831 194.393 170.608 193.95 170.792Z" fill="white"/>
<path d="M123.89 252.198C123.447 252.382 123.232 252.905 123.409 253.365C123.587 253.825 124.09 254.048 124.532 253.864C124.975 253.679 125.19 253.157 125.013 252.697C124.835 252.237 124.332 252.013 123.89 252.198Z" fill="white"/>
<path d="M69.1377 204.391C68.695 204.575 68.4799 205.098 68.6574 205.558C68.8348 206.018 69.3376 206.241 69.7803 206.057C70.2231 205.872 70.4382 205.35 70.2607 204.89C70.0832 204.43 69.5805 204.206 69.1377 204.391Z" fill="white"/>
<path d="M643.923 7.60058C643.48 7.78496 643.265 8.30733 643.443 8.76732C643.62 9.22732 644.123 9.45076 644.566 9.26639C645.008 9.08201 645.223 8.55965 645.046 8.09966C644.868 7.63966 644.366 7.41621 643.923 7.60058Z" fill="white"/>
<path opacity="0.11" d="M673.308 47.5888C672.865 47.7732 672.65 48.2955 672.827 48.7555C673.005 49.2155 673.508 49.4389 673.95 49.2545C674.393 49.0702 674.608 48.5479 674.431 48.0879C674.253 47.6279 673.75 47.4044 673.308 47.5888Z" fill="white"/>
<path opacity="0.11" d="M700.397 14.0616C699.955 14.2459 699.74 14.7683 699.917 15.2283C700.095 15.6883 700.597 15.9117 701.04 15.7273C701.483 15.543 701.698 15.0206 701.52 14.5606C701.343 14.1006 700.84 13.8772 700.397 14.0616Z" fill="white"/>
<path opacity="0.11" d="M476.622 87.9089C476.179 88.0933 475.964 88.6157 476.142 89.0757C476.319 89.5356 476.822 89.759 477.265 89.5747C477.707 89.3903 477.923 88.868 477.745 88.408C477.568 87.948 477.065 87.7245 476.622 87.9089Z" fill="white"/>
<path opacity="0.11" d="M358.823 67.3183C358.381 67.5027 358.165 68.0251 358.343 68.4851C358.52 68.9451 359.023 69.1685 359.466 68.9841C359.909 68.7997 360.124 68.2774 359.946 67.8174C359.769 67.3574 359.266 67.134 358.823 67.3183Z" fill="white"/>
<path opacity="0.11" d="M208.052 139.779C207.609 139.964 207.394 140.486 207.571 140.946C207.749 141.406 208.252 141.629 208.694 141.445C209.137 141.261 209.352 140.738 209.175 140.278C208.997 139.818 208.495 139.595 208.052 139.779Z" fill="white"/>
<path opacity="0.3" d="M615.062 43.7968C614.619 43.9811 614.404 44.5035 614.581 44.9635C614.759 45.4235 615.261 45.6469 615.704 45.4626C616.147 45.2782 616.362 44.7558 616.185 44.2958C616.007 43.8358 615.504 43.6124 615.062 43.7968Z" fill="white"/>
<path d="M447.952 165.613C447.509 165.797 447.294 166.319 447.472 166.779C447.649 167.239 448.152 167.463 448.595 167.279C449.038 167.094 449.253 166.572 449.075 166.112C448.898 165.652 448.395 165.428 447.952 165.613Z" fill="white"/>
<path d="M325.079 218.712C324.636 218.896 324.421 219.419 324.599 219.879C324.776 220.339 325.279 220.562 325.722 220.378C326.165 220.193 326.38 219.671 326.202 219.211C326.025 218.751 325.522 218.528 325.079 218.712Z" fill="white"/>
<path d="M472.915 66.2373C472.472 66.4217 472.257 66.944 472.435 67.404C472.612 67.864 473.115 68.0874 473.558 67.903C474 67.7187 474.216 67.1964 474.038 66.7364C473.861 66.2764 473.358 66.0529 472.915 66.2373Z" fill="white"/>
<path opacity="0.3" d="M529.06 42.8578C528.617 43.0422 528.402 43.5646 528.579 44.0246C528.757 44.4846 529.259 44.708 529.702 44.5236C530.145 44.3392 530.36 43.8169 530.183 43.3569C530.005 42.8969 529.502 42.6735 529.06 42.8578Z" fill="white"/>
<path opacity="0.11" d="M614.749 67.1349C614.306 67.3193 614.091 67.8417 614.269 68.3017C614.446 68.7617 614.949 68.9851 615.392 68.8007C615.834 68.6164 616.049 68.094 615.872 67.634C615.695 67.174 615.192 66.9506 614.749 67.1349Z" fill="white"/>
<path opacity="0.3" d="M425.79 151.624C425.347 151.809 425.132 152.331 425.31 152.791C425.487 153.251 425.99 153.475 426.433 153.29C426.875 153.106 427.091 152.584 426.913 152.124C426.736 151.664 426.233 151.44 425.79 151.624Z" fill="white"/>
<path opacity="0.3" d="M453.167 56.0819C452.724 56.2662 452.509 56.7886 452.687 57.2486C452.864 57.7086 453.367 57.932 453.81 57.7477C454.252 57.5633 454.467 57.0409 454.29 56.5809C454.113 56.1209 453.61 55.8975 453.167 56.0819Z" fill="white"/>
<path opacity="0.3" d="M547.003 7.33751C546.56 7.52188 546.345 8.04425 546.523 8.50424C546.7 8.96424 547.203 9.18764 547.646 9.00326C548.088 8.81889 548.303 8.29657 548.126 7.83658C547.948 7.37658 547.446 7.15313 547.003 7.33751Z" fill="white"/>
<path opacity="0.3" d="M591.798 53.4783C591.355 53.6627 591.14 54.1851 591.318 54.6451C591.495 55.1051 591.998 55.3285 592.441 55.1441C592.883 54.9598 593.098 54.4374 592.921 53.9774C592.743 53.5174 592.241 53.294 591.798 53.4783Z" fill="white"/>
<path opacity="0.3" d="M93.8936 263.72C93.4508 263.904 93.2357 264.427 93.4132 264.887C93.5907 265.347 94.0935 265.57 94.5362 265.386C94.979 265.201 95.194 264.679 95.0166 264.219C94.8391 263.759 94.3363 263.535 93.8936 263.72Z" fill="white"/>
<path opacity="0.11" d="M236.204 244.114C235.761 244.298 235.546 244.82 235.724 245.28C235.901 245.74 236.404 245.964 236.847 245.779C237.29 245.595 237.505 245.073 237.327 244.613C237.15 244.153 236.647 243.929 236.204 244.114Z" fill="white"/>
<path opacity="0.11" d="M101.726 218.874C101.283 219.058 101.068 219.581 101.245 220.041C101.423 220.501 101.925 220.724 102.368 220.54C102.811 220.356 103.026 219.833 102.849 219.373C102.671 218.913 102.168 218.69 101.726 218.874Z" fill="white"/>
<path opacity="0.3" d="M301.75 126.872C300.863 127.241 300.433 128.286 300.788 129.207C301.143 130.128 302.15 130.575 303.036 130.206C303.922 129.837 304.353 128.791 303.997 127.87C303.642 126.95 302.636 126.502 301.75 126.872Z" fill="white"/>
<path opacity="0.11" d="M264.076 171.577C263.189 171.946 262.759 172.991 263.114 173.912C263.469 174.833 264.476 175.28 265.362 174.911C266.248 174.542 266.679 173.496 266.324 172.575C265.968 171.655 264.962 171.207 264.076 171.577Z" fill="white"/>
<path d="M275.719 200.574C275.054 200.85 274.732 201.634 274.998 202.325C275.264 203.015 276.019 203.35 276.684 203.074C277.348 202.797 277.671 202.013 277.404 201.323C277.138 200.632 276.384 200.297 275.719 200.574Z" fill="white"/>
<path d="M297.305 90.0343C296.64 90.311 296.318 91.095 296.584 91.7854C296.85 92.4758 297.605 92.8111 298.269 92.5344C298.934 92.2577 299.257 91.4737 298.99 90.7833C298.724 90.0929 297.969 89.7576 297.305 90.0343Z" fill="white"/>
<path d="M24.5978 184.252C23.9333 184.529 23.6106 185.313 23.8769 186.003C24.1433 186.693 24.8979 187.029 25.5624 186.752C26.2269 186.475 26.5497 185.691 26.2834 185.001C26.017 184.311 25.2624 183.975 24.5978 184.252Z" fill="white"/>
<path d="M307.785 167.875C307.121 168.152 306.798 168.936 307.064 169.627C307.331 170.317 308.085 170.652 308.75 170.376C309.414 170.099 309.737 169.315 309.471 168.624C309.205 167.934 308.45 167.599 307.785 167.875Z" fill="white"/>
<path d="M423.557 48.1013C422.892 48.378 422.57 49.162 422.836 49.8523C423.102 50.5427 423.857 50.8781 424.521 50.6014C425.186 50.3247 425.509 49.5407 425.242 48.8503C424.976 48.1599 424.221 47.8246 423.557 48.1013Z" fill="white"/>
<path d="M207.615 96.4335C206.951 96.7102 206.628 97.4941 206.895 98.1845C207.161 98.8749 207.915 99.2103 208.58 98.9335C209.244 98.6568 209.567 97.8728 209.301 97.1824C209.035 96.492 208.28 96.1567 207.615 96.4335Z" fill="white"/>
<path d="M16.9378 241.605C16.2733 241.882 15.9505 242.666 16.2169 243.356C16.4832 244.046 17.2378 244.382 17.9023 244.105C18.5668 243.828 18.8896 243.044 18.6232 242.354C18.3569 241.664 17.6023 241.328 16.9378 241.605Z" fill="white"/>
<path d="M15.3655 295.448C14.701 295.725 14.3783 296.509 14.6446 297.199C14.9109 297.89 15.6655 298.225 16.33 297.948C16.9945 297.671 17.3173 296.887 17.0509 296.197C16.7846 295.507 16.03 295.171 15.3655 295.448Z" fill="white"/>
<path opacity="0.3" d="M209.228 227.297C208.342 227.666 207.911 228.712 208.267 229.633C208.622 230.553 209.628 231.001 210.514 230.632C211.401 230.263 211.831 229.217 211.476 228.296C211.121 227.375 210.114 226.928 209.228 227.297Z" fill="white"/>
<path d="M232.06 286.458C231.174 286.828 230.743 287.873 231.099 288.794C231.454 289.715 232.46 290.162 233.346 289.793C234.233 289.424 234.663 288.378 234.308 287.457C233.953 286.537 232.946 286.089 232.06 286.458Z" fill="white"/>
<path d="M160.848 226.163C160.183 226.439 159.861 227.223 160.127 227.914C160.393 228.604 161.148 228.94 161.812 228.663C162.477 228.386 162.8 227.602 162.533 226.912C162.267 226.221 161.512 225.886 160.848 226.163Z" fill="white"/>
<path opacity="0.3" d="M134.484 274.86C133.598 275.229 133.167 276.274 133.522 277.195C133.878 278.116 134.884 278.563 135.77 278.194C136.657 277.825 137.087 276.78 136.732 275.859C136.377 274.938 135.37 274.491 134.484 274.86Z" fill="white"/>
<path opacity="0.3" d="M32.2632 248.762C31.3769 249.131 30.9465 250.176 31.3017 251.097C31.6569 252.018 32.6633 252.465 33.5496 252.096C34.4359 251.727 34.8663 250.681 34.5111 249.761C34.1559 248.84 33.1495 248.393 32.2632 248.762Z" fill="white"/>
<path opacity="0.3" d="M125.462 208.02C124.576 208.389 124.146 209.435 124.501 210.356C124.856 211.277 125.863 211.724 126.749 211.355C127.635 210.986 128.066 209.94 127.71 209.019C127.355 208.099 126.349 207.651 125.462 208.02Z" fill="white"/>
<path opacity="0.3" d="M580.375 2.14761C579.488 2.51666 579.058 3.56231 579.413 4.48308C579.768 5.40385 580.775 5.85108 581.661 5.48202C582.547 5.11296 582.978 4.06737 582.622 3.1466C582.267 2.22582 581.261 1.77855 580.375 2.14761Z" fill="white"/>
<path opacity="0.3" d="M663.031 20.923C662.145 21.2921 661.714 22.3377 662.069 23.2585C662.424 24.1792 663.431 24.6265 664.317 24.2574C665.203 23.8884 665.634 22.8428 665.279 21.922C664.923 21.0012 663.917 20.5539 663.031 20.923Z" fill="white"/>
<path opacity="0.11" d="M74.7905 260.067C73.9043 260.436 73.4738 261.481 73.829 262.402C74.1842 263.323 75.1906 263.77 76.0769 263.401C76.9632 263.032 77.3937 261.986 77.0384 261.066C76.6832 260.145 75.6768 259.698 74.7905 260.067Z" fill="white"/>
<path opacity="0.3" d="M559.265 97.0127C558.379 97.3818 557.948 98.4274 558.304 99.3481C558.659 100.269 559.665 100.716 560.552 100.347C561.438 99.978 561.868 98.9324 561.513 98.0116C561.158 97.0909 560.151 96.6436 559.265 97.0127Z" fill="white"/>
<path opacity="0.11" d="M587.349 104.664C586.463 105.033 586.032 106.078 586.388 106.999C586.743 107.92 587.749 108.367 588.636 107.998C589.522 107.629 589.952 106.583 589.597 105.662C589.242 104.742 588.235 104.294 587.349 104.664Z" fill="white"/>
<path opacity="0.3" d="M573.181 48.6593C572.295 49.0284 571.864 50.074 572.22 50.9948C572.575 51.9155 573.581 52.3628 574.468 51.9937C575.354 51.6247 575.784 50.579 575.429 49.6583C575.074 48.7375 574.067 48.2903 573.181 48.6593Z" fill="white"/>
<path d="M523.381 70.3673C522.717 70.644 522.394 71.428 522.66 72.1184C522.927 72.8088 523.681 73.1441 524.346 72.8674C525.01 72.5907 525.333 71.8067 525.067 71.1163C524.8 70.4259 524.046 70.0906 523.381 70.3673Z" fill="white"/>
<path d="M1.46392 146.805C1.02117 146.99 0.806141 147.512 0.983603 147.972C1.16106 148.432 1.66381 148.656 2.10656 148.471C2.54931 148.287 2.76435 147.765 2.58689 147.305C2.40942 146.845 1.90667 146.621 1.46392 146.805Z" fill="white"/>
<path d="M171.81 52.6613C171.367 52.8456 171.152 53.368 171.329 53.828C171.507 54.288 172.009 54.5114 172.452 54.3271C172.895 54.1427 173.11 53.6203 172.933 53.1603C172.755 52.7003 172.252 52.4769 171.81 52.6613Z" fill="white"/>
<path opacity="0.11" d="M201.192 92.6489C200.75 92.8333 200.535 93.3556 200.712 93.8156C200.889 94.2756 201.392 94.499 201.835 94.3147C202.278 94.1303 202.493 93.6079 202.315 93.1479C202.138 92.6879 201.635 92.4645 201.192 92.6489Z" fill="white"/>
<path opacity="0.11" d="M228.284 59.1219C227.841 59.3063 227.626 59.8286 227.804 60.2886C227.981 60.7486 228.484 60.9721 228.927 60.7877C229.37 60.6033 229.585 60.081 229.407 59.621C229.23 59.161 228.727 58.9375 228.284 59.1219Z" fill="white"/>
<path opacity="0.11" d="M182.53 20.1453C182.088 20.3297 181.872 20.8521 182.05 21.3121C182.227 21.772 182.73 21.9955 183.173 21.8111C183.616 21.6268 183.831 21.1044 183.653 20.6444C183.476 20.1844 182.973 19.961 182.53 20.1453Z" fill="white"/>
<path opacity="0.11" d="M4.50876 132.969C4.066 133.153 3.85097 133.676 4.02843 134.136C4.20589 134.596 4.70865 134.819 5.1514 134.635C5.59415 134.45 5.80926 133.928 5.6318 133.468C5.45434 133.008 4.95151 132.785 4.50876 132.969Z" fill="white"/>
<path opacity="0.3" d="M142.946 88.8575C142.504 89.0419 142.289 89.5642 142.466 90.0242C142.643 90.4842 143.146 90.7077 143.589 90.5233C144.032 90.3389 144.247 89.8165 144.069 89.3566C143.892 88.8966 143.389 88.6732 142.946 88.8575Z" fill="white"/>
<path d="M0.801717 111.297C0.358964 111.481 0.14394 112.003 0.321401 112.463C0.498863 112.923 1.00162 113.147 1.44437 112.963C1.88712 112.778 2.10223 112.256 1.92477 111.796C1.74731 111.336 1.24447 111.112 0.801717 111.297Z" fill="white"/>
<path opacity="0.3" d="M56.9463 87.9172C56.5036 88.1016 56.2886 88.6239 56.466 89.0839C56.6435 89.5439 57.1462 89.7673 57.589 89.583C58.0317 89.3986 58.2468 88.8762 58.0693 88.4162C57.8918 87.9563 57.3891 87.7328 56.9463 87.9172Z" fill="white"/>
<path opacity="0.11" d="M142.636 112.196C142.193 112.38 141.978 112.902 142.155 113.362C142.333 113.822 142.836 114.046 143.278 113.861C143.721 113.677 143.936 113.155 143.759 112.695C143.581 112.235 143.079 112.011 142.636 112.196Z" fill="white"/>
<path opacity="0.3" d="M74.8896 52.3983C74.4469 52.5827 74.2318 53.105 74.4093 53.565C74.5868 54.025 75.0895 54.2485 75.5323 54.0641C75.975 53.8797 76.1901 53.3573 76.0127 52.8973C75.8352 52.4373 75.3324 52.2139 74.8896 52.3983Z" fill="white"/>
<path opacity="0.3" d="M119.685 98.5391C119.242 98.7235 119.027 99.2459 119.204 99.7059C119.382 100.166 119.884 100.389 120.327 100.205C120.77 100.021 120.985 99.4982 120.808 99.0382C120.63 98.5782 120.127 98.3548 119.685 98.5391Z" fill="white"/>
<path d="M78.4847 26.7215C77.8202 26.9982 77.4974 27.7822 77.7638 28.4726C78.0301 29.1629 78.7847 29.4983 79.4492 29.2215C80.1137 28.9448 80.4364 28.1609 80.1701 27.4705C79.9038 26.7801 79.1492 26.4447 78.4847 26.7215Z" fill="white"/>
<path d="M192.543 1.46659C191.879 1.74331 191.556 2.52732 191.822 3.2177C192.089 3.90809 192.843 4.2434 193.508 3.96668C194.172 3.68997 194.495 2.906 194.229 2.21562C193.962 1.52523 193.208 1.18988 192.543 1.46659Z" fill="white"/>
<path d="M219.039 29.12C218.375 29.3968 218.052 30.1808 218.318 30.8711C218.585 31.5615 219.339 31.8968 220.004 31.6201C220.668 31.3434 220.991 30.5594 220.725 29.8691C220.458 29.1787 219.704 28.8433 219.039 29.12Z" fill="white"/>
<path opacity="0.3" d="M108.261 47.2071C107.375 47.5761 106.944 48.6217 107.3 49.5425C107.655 50.4633 108.661 50.9105 109.548 50.5415C110.434 50.1724 110.864 49.1268 110.509 48.206C110.154 47.2852 109.147 46.838 108.261 47.2071Z" fill="white"/>
<path opacity="0.3" d="M190.912 65.9814C190.025 66.3505 189.595 67.3961 189.95 68.3169C190.305 69.2376 191.312 69.6849 192.198 69.3158C193.084 68.9468 193.515 67.9012 193.16 66.9804C192.804 66.0596 191.798 65.6124 190.912 65.9814Z" fill="white"/>
<path opacity="0.3" d="M87.1518 142.074C86.2656 142.443 85.8351 143.489 86.1903 144.41C86.5456 145.331 87.552 145.778 88.4382 145.409C89.3245 145.04 89.755 143.994 89.3998 143.073C89.0445 142.153 88.0381 141.705 87.1518 142.074Z" fill="white"/>
<path opacity="0.11" d="M115.23 149.721C114.344 150.09 113.913 151.136 114.268 152.057C114.624 152.977 115.63 153.425 116.516 153.055C117.403 152.686 117.833 151.641 117.478 150.72C117.123 149.799 116.116 149.352 115.23 149.721Z" fill="white"/>
<path opacity="0.3" d="M101.072 93.7214C100.186 94.0905 99.755 95.1361 100.11 96.0569C100.465 96.9776 101.472 97.4249 102.358 97.0558C103.244 96.6868 103.675 95.6412 103.32 94.7204C102.964 93.7996 101.958 93.3524 101.072 93.7214Z" fill="white"/>
<path d="M51.2678 115.428C50.6033 115.705 50.2805 116.489 50.5469 117.179C50.8132 117.87 51.5678 118.205 52.2323 117.928C52.8968 117.651 53.2196 116.867 52.9533 116.177C52.6869 115.487 51.9323 115.151 51.2678 115.428Z" fill="white"/>
</g>
</svg>
