<svg xmlns="http://www.w3.org/2000/svg" width="16" height="16" viewBox="0 0 16 16" fill="none">
    <path d="M8.00065 15.1668C4.04732 15.1668 0.833984 11.9535 0.833984 8.00016C0.833984 4.04683 4.04732 0.833496 8.00065 0.833496C11.954 0.833496 15.1673 4.04683 15.1673 8.00016C15.1673 11.9535 11.954 15.1668 8.00065 15.1668ZM8.00065 1.8335C4.60065 1.8335 1.83398 4.60016 1.83398 8.00016C1.83398 11.4002 4.60065 14.1668 8.00065 14.1668C11.4007 14.1668 14.1673 11.4002 14.1673 8.00016C14.1673 4.60016 11.4007 1.8335 8.00065 1.8335Z" fill="white" fill-opacity="0.3"/>
    <path d="M10.4731 10.6202C10.3864 10.6202 10.2998 10.6002 10.2198 10.5468L8.1531 9.3135C7.63977 9.00684 7.25977 8.3335 7.25977 7.74017V5.00684C7.25977 4.7335 7.48643 4.50684 7.75977 4.50684C8.0331 4.50684 8.25977 4.7335 8.25977 5.00684V7.74017C8.25977 7.98017 8.45977 8.3335 8.66643 8.4535L10.7331 9.68684C10.9731 9.82684 11.0464 10.1335 10.9064 10.3735C10.8064 10.5335 10.6398 10.6202 10.4731 10.6202Z" fill="white" fill-opacity="0.3"/>
</svg>