<svg width="41" height="40" viewBox="0 0 41 40" fill="none" xmlns="http://www.w3.org/2000/svg">
<path fill-rule="evenodd" clip-rule="evenodd" d="M11.4828 18.2493H17.8781C18.5437 18.2493 19.1422 18.5446 19.5398 19.0524H28.4242C29.5016 19.0524 30.3781 19.929 30.3781 21.0071V22.4274C31.0273 22.6603 31.4938 23.279 31.4938 24.0071V26.4603C35.482 26.0759 38.5391 22.7485 38.5391 18.6837C38.5391 14.3751 35.0336 10.8696 30.725 10.8696C30.3094 10.8696 29.9 10.9009 29.4984 10.9634C29.475 10.9688 29.4516 10.9728 29.4281 10.9751C27.7609 11.2501 26.2391 12.0563 25.05 13.3118C24.8719 13.5001 24.575 13.5079 24.3875 13.3298C24.1992 13.1517 24.1914 12.8548 24.3695 12.6673C25.5656 11.404 27.0633 10.547 28.7094 10.1626C26.9703 6.72666 23.4398 4.5376 19.5562 4.5376C14.5523 4.5376 10.3031 8.11104 9.45234 13.0329C9.41484 13.2501 9.23125 13.4118 9.01094 13.4212C5.50469 13.5751 2.75781 16.4454 2.75781 19.9563C2.75781 23.5634 5.69219 26.4978 9.29922 26.4978H9.80312V19.9282C9.80312 19.0024 10.557 18.2493 11.4828 18.2493ZM20.2156 22.2103C20.5719 22.8712 21.2328 23.2657 21.9836 23.2657H29.8141C30.2234 23.2657 30.5563 23.5985 30.5563 24.0071V35.186C30.5563 35.5954 30.2234 35.9274 29.8141 35.9274H11.4828C11.0734 35.9274 10.7406 35.5946 10.7406 35.186V19.929C10.7406 19.5196 11.0734 19.1868 11.4828 19.1868H17.8781C18.3258 19.1868 18.7055 19.4134 18.918 19.8079L20.2156 22.2103ZM22.893 32.1103V25.9681C22.893 25.7095 23.1023 25.4993 23.3617 25.4993C23.6203 25.4993 23.8305 25.7095 23.8305 25.9681V32.1103L24.6938 31.2649C24.8789 31.0837 25.175 31.0876 25.3563 31.272C25.5375 31.4571 25.5344 31.754 25.3492 31.9353L23.6898 33.5603C23.5984 33.6493 23.4797 33.6946 23.3617 33.6946C23.243 33.6946 23.125 33.6501 23.0336 33.5603L21.3734 31.9353C21.1891 31.754 21.1859 31.4571 21.3664 31.272C21.5477 31.0868 21.8445 31.0837 22.0297 31.2649L22.893 32.1103ZM19.9227 27.2587C20.107 27.4399 20.1102 27.7368 19.9297 27.9212C19.7484 28.1063 19.4516 28.1095 19.2664 27.9282L18.4031 27.0829V33.2251C18.4031 33.4837 18.1937 33.6938 17.9344 33.6938C17.6758 33.6938 17.4656 33.4837 17.4656 33.2251V27.0829L16.6023 27.9282C16.5117 28.0173 16.393 28.0626 16.275 28.0626C16.1531 28.0626 16.0312 28.0157 15.9398 27.9212C15.7586 27.7368 15.7617 27.4392 15.9469 27.2587L17.6062 25.6337C17.7891 25.4548 18.0805 25.4548 18.2625 25.6337L19.9227 27.2587ZM20.0813 19.9899H28.4234C28.9844 19.9899 29.4398 20.4462 29.4398 21.0071V22.3274H21.9828C21.5766 22.3274 21.2328 22.122 21.0398 21.7649L20.0813 19.9899Z" fill="currentColor"/>
</svg>
