<svg width="79" height="28" viewBox="0 0 79 28" fill="none" xmlns="http://www.w3.org/2000/svg">
<g clip-path="url(#clip0_973_47360)">
<path d="M0 17.095C0 23.82 4.51221 28 10.2215 28C12.228 28 14.2345 27.5 15.6982 26.37V21.115C14.3719 22.3367 12.6539 23.0083 10.8758 23C7.90969 23 5.54454 20.81 5.54454 17.11C5.54454 13.41 7.9 11.26 10.8758 11.26C12.6631 11.2248 14.3963 11.8935 15.7225 13.13V7.86502C14.2685 6.71002 12.2523 6.27002 10.2458 6.27002C4.51221 6.27002 0 10.45 0 17.095Z" fill="currentColor"/>
<path d="M27.3305 6.27002C21.5146 6.27002 17.4531 10.73 17.4531 17.095C17.4531 23.46 21.5049 28 27.3305 28C33.1562 28 37.2419 23.5 37.2419 17.095C37.2419 10.69 33.195 6.27002 27.3305 6.27002ZM27.3305 23.105C24.5534 23.105 23.0074 20.605 23.0074 17.105C23.0074 13.605 24.5534 11.135 27.3305 11.135C30.1077 11.135 31.6489 13.635 31.6489 17.105C31.6489 20.575 30.1464 23.105 27.3305 23.105Z" fill="currentColor"/>
<path d="M53.1522 8.46C52.4907 7.75905 51.6982 7.2036 50.8224 6.8272C49.9471 6.4508 49.0069 6.26125 48.0584 6.27C42.194 6.27 38.8789 11.165 38.8789 17.095C38.8789 23.095 42.194 28 48.0584 28C49.0054 27.9997 49.9433 27.8061 50.8176 27.4302C51.6919 27.0543 52.4853 26.5037 53.1522 25.81V27.525H58.7452V0H53.1522V8.46ZM53.1522 20.56C52.7897 21.2812 52.2415 21.8855 51.5674 22.3062C50.8937 22.727 50.1207 22.948 49.3331 22.945C46.2846 22.945 44.4865 20.445 44.4865 17.095C44.4865 13.745 46.2991 11.285 49.3331 11.285C50.125 11.2868 50.901 11.5148 51.5751 11.9437C52.2493 12.3726 52.795 12.9857 53.1522 13.715V20.56Z" fill="currentColor"/>
<path d="M69.9365 6.27002C67.237 6.27002 64.6537 7.03002 63.1852 7.98502V12.985C64.8228 11.8718 66.7397 11.2758 68.7006 11.27C71.5553 11.27 73.2177 12.545 73.2177 14.575V15.73C72.4035 15.13 70.4357 14.495 68.7006 14.495C64.266 14.495 60.9121 17.2 60.9121 21.18C60.9121 25.48 64.266 27.905 68.3565 27.905C70.552 27.905 72.5585 27.11 73.2031 26.435V27.55H78.6023V14.23C78.6168 9.17502 75.452 6.27002 69.9365 6.27002ZM73.2177 21.87C72.733 22.985 71.25 23.665 69.6651 23.665C67.8913 23.665 66.0786 22.905 66.0786 21.115C66.0786 19.325 67.8913 18.57 69.6651 18.57C71.25 18.57 72.7136 19.245 73.2177 20.36V21.87Z" fill="currentColor"/>
</g>
<defs>
<clipPath id="clip0_973_47360">
<rect width="79" height="28" fill="currentColor"/>
</clipPath>
</defs>
</svg>
