<svg width="40" height="40" viewBox="0 0 40 40" fill="none" xmlns="http://www.w3.org/2000/svg">
<path d="M35.2513 10.2832C34.568 9.9165 33.1346 9.53317 31.1846 10.8998L28.7346 12.6332C28.5513 7.44984 26.3013 5.4165 20.8346 5.4165H10.8346C5.13463 5.4165 2.91797 7.63317 2.91797 13.3332V26.6665C2.91797 30.4998 5.0013 34.5832 10.8346 34.5832H20.8346C26.3013 34.5832 28.5513 32.5498 28.7346 27.3665L31.1846 29.0998C32.218 29.8332 33.118 30.0665 33.8346 30.0665C34.4513 30.0665 34.9346 29.8832 35.2513 29.7165C35.9346 29.3665 37.0846 28.4165 37.0846 26.0332V13.9665C37.0846 11.5832 35.9346 10.6332 35.2513 10.2832ZM18.3346 18.9665C16.618 18.9665 15.2013 17.5665 15.2013 15.8332C15.2013 14.0998 16.618 12.6998 18.3346 12.6998C20.0513 12.6998 21.468 14.0998 21.468 15.8332C21.468 17.5665 20.0513 18.9665 18.3346 18.9665Z" fill="currentColor"/>
</svg>
