<svg width="40" height="40" viewBox="0 0 40 40" fill="none" xmlns="http://www.w3.org/2000/svg">
<path d="M17.9141 21.2833C17.9141 19.85 18.6974 18.5667 19.9641 17.9333L23.2974 16.2333C23.8307 15.9667 24.4141 15.8333 24.9974 15.8333H29.5807V8.33333C29.5807 5.8 27.5307 3.75 24.9974 3.75H9.9974C7.46406 3.75 5.41406 5.8 5.41406 8.33333V30C5.41406 32.5333 7.46406 34.5833 9.9974 34.5833H21.4307C19.2141 32.2 17.9141 29.0167 17.9141 25.6333V21.2833ZM9.9974 8.75H21.6641C22.3541 8.75 22.9141 9.31 22.9141 10C22.9141 10.69 22.3541 11.25 21.6641 11.25H9.9974C9.3074 11.25 8.7474 10.69 8.7474 10C8.7474 9.31 9.3074 8.75 9.9974 8.75ZM14.9974 21.25H9.9974C9.3074 21.25 8.7474 20.69 8.7474 20C8.7474 19.31 9.3074 18.75 9.9974 18.75H14.9974C15.6874 18.75 16.2474 19.31 16.2474 20C16.2474 20.69 15.6874 21.25 14.9974 21.25ZM16.6641 16.25H9.9974C9.3074 16.25 8.7474 15.69 8.7474 15C8.7474 14.31 9.3074 13.75 9.9974 13.75H16.6641C17.3541 13.75 17.9141 14.31 17.9141 15C17.9141 15.69 17.3541 16.25 16.6641 16.25ZM35.5641 20.16L32.2307 18.4683C32.0557 18.38 31.8607 18.3333 31.6641 18.3333H24.9974C24.8007 18.3333 24.6074 18.38 24.4307 18.4683L21.0974 20.16C20.6774 20.3733 20.4141 20.805 20.4141 21.275V25.6383C20.4141 30.0667 23.1807 34.0883 27.3041 35.6467C27.6341 35.7717 27.9807 35.8333 28.3291 35.8333C28.6774 35.8333 29.0274 35.77 29.3624 35.645C33.4807 34.0883 36.2474 30.0667 36.2474 25.6383V21.275C36.2474 20.805 35.9841 20.3733 35.5641 20.16ZM31.7641 25.3967L28.7641 28.755C28.5257 29.02 28.1874 29.1717 27.8307 29.1717C27.4741 29.1717 27.1357 29.02 26.8974 28.755L24.8974 26.515C24.4391 26 24.4824 25.21 24.9974 24.75C25.5141 24.2917 26.3007 24.3333 26.7641 24.85L27.8324 26.045L29.8991 23.73C30.3574 23.215 31.1474 23.1717 31.6657 23.63C32.1807 24.09 32.2241 24.88 31.7657 25.395L31.7641 25.3967Z" fill="currentColor"/>
</svg>
