<svg width="40" height="40" viewBox="0 0 40 40" fill="none" xmlns="http://www.w3.org/2000/svg">
<g clip-path="url(#clip0_1539_53107)">
<path d="M33.6656 6.3558C35.1121 6.21221 36.2564 5.06791 36.4 3.62143C36.5436 5.06791 37.6879 6.21221 39.1344 6.3558C37.6879 6.49939 36.5436 7.64369 36.4 9.09018C36.2564 7.64369 35.1121 6.49939 33.6656 6.3558ZM36.4 18.6924C36.2564 20.1388 35.1121 21.2831 33.6656 21.4267C35.1121 21.5703 36.2564 22.7146 36.4 24.1611C36.5436 22.7146 37.6879 21.5704 39.1344 21.4267C37.6879 21.2831 36.5436 20.1388 36.4 18.6924ZM7.91891 20.8975C8.0625 19.451 9.2068 18.3067 10.6533 18.1631C9.2068 18.0196 8.0625 16.8753 7.91891 15.4288C7.77531 16.8753 6.63102 18.0196 5.18453 18.1631C6.63102 18.3067 7.77531 19.451 7.91891 20.8975ZM10.9968 6.354C11.1404 4.90752 12.2847 3.76322 13.7312 3.61963C12.2847 3.47604 11.1404 2.33174 10.9968 0.885254C10.8532 2.33174 9.70891 3.47604 8.26242 3.61963C9.70891 3.76322 10.8532 4.90752 10.9968 6.354ZM14.4003 5.54971C15.203 4.74697 16.1152 4.5476 17.206 4.73252C18.3794 4.93135 19.4909 4.47088 20.1801 3.50064C20.8209 2.59846 21.6065 2.09447 22.7419 2.09447C23.8773 2.09447 24.663 2.59846 25.3038 3.50064C25.9929 4.47088 27.1045 4.93127 28.2778 4.73252C29.3689 4.54783 30.2806 4.74674 31.0836 5.54979C31.8863 6.35252 32.0857 7.26471 31.9008 8.35549C31.702 9.52885 32.1624 10.6403 33.1327 11.3295C34.0348 11.9703 34.5388 12.7559 34.5388 13.8913C34.5388 15.0268 34.0348 15.8124 33.1327 16.4532C32.1624 17.1424 31.702 18.2538 31.9008 19.4272C32.0855 20.5183 31.8866 21.43 31.0835 22.233C30.2808 23.0357 29.3686 23.2351 28.2778 23.0501C27.1045 22.8513 25.9929 23.3117 25.3038 24.282C24.663 25.1841 23.8773 25.6881 22.7419 25.6881C21.6064 25.6881 20.8208 25.1842 20.1801 24.282C19.4909 23.3117 18.3794 22.8513 17.206 23.0501C16.1149 23.2348 15.2032 23.0359 14.4002 22.2328C13.5975 21.4301 13.3981 20.5179 13.583 19.4271C13.7819 18.2538 13.3214 17.1422 12.3512 16.4531C11.449 15.8124 10.945 15.0267 10.945 13.8913C10.945 12.7558 11.449 11.9702 12.3512 11.3294C13.3214 10.6403 13.7818 9.52869 13.583 8.35541C13.3984 7.26432 13.5973 6.35268 14.4003 5.54971ZM15.217 13.8913C15.217 18.0472 18.586 21.4162 22.7419 21.4162C26.8977 21.4162 30.2668 18.0472 30.2668 13.8913C30.2668 9.73533 26.8978 6.36635 22.7419 6.36635C18.5859 6.36635 15.217 9.73541 15.217 13.8913ZM19.6719 17.6828C19.8423 17.9778 20.1141 18.1596 20.452 18.204C20.7898 18.2485 21.0996 18.1433 21.3405 17.9024L26.9669 12.276C27.4225 11.8204 27.4225 11.0748 26.9669 10.6192C26.5113 10.1635 25.7657 10.1635 25.31 10.6192L20.8654 15.0637L19.6516 12.9612C19.3294 12.4031 18.6092 12.2102 18.0511 12.5324C17.493 12.8546 17.3002 13.5748 17.6223 14.1328L19.6718 17.6827L19.6719 17.6828ZM4.03234 30.6679C3.59688 30.2325 2.88438 30.2325 2.44891 30.6679L0.859375 32.2574L7.71633 39.1144L9.30586 37.5249C9.74125 37.0895 9.74133 36.3768 9.30586 35.9414L4.03234 30.6679ZM31.7873 26.6849C29.0801 28.2479 24.8024 31.3832 21.2155 31.4949C19.3795 31.5398 17.2246 31.0871 16.3495 30.6315C15.9717 30.4352 15.9088 30.0668 16.0477 29.7999C16.1864 29.5328 16.562 29.425 16.829 29.5638C17.5865 29.958 19.502 30.3486 21.1669 30.3078C21.8043 30.2922 22.3909 30.2174 22.8262 30.0591C24.121 29.588 23.7396 27.7341 22.1832 27.7929C13.0318 27.7929 12.5155 20.7618 4.83469 29.835C4.83992 29.8401 4.84508 29.8451 4.85023 29.8502L10.1238 35.1237C10.145 35.1449 10.1655 35.1666 10.1857 35.1884C11.8565 34.4023 13.7091 34.3865 15.693 34.5053C17.2192 34.5965 19.0407 34.8169 20.7117 34.7799C23.0466 34.7283 24.4777 34.0946 26.528 33.0084C28.8623 31.7719 32.9195 29.309 33.6273 28.3787C34.6402 27.0471 33.3325 25.7929 31.7874 26.6849L31.7873 26.6849Z" fill="currentColor"/>
</g>
<defs>
<clipPath id="clip0_1539_53107">
<rect width="40" height="40" fill="currentColor"/>
</clipPath>
</defs>
</svg>
