<svg width="40" height="40" viewBox="0 0 40 40" fill="none" xmlns="http://www.w3.org/2000/svg">
<path d="M29.7 15.0002V15.3002H30H35H35.3V15.0002V13.3335C35.3 11.7871 34.0464 10.5335 32.5 10.5335C30.9536 10.5335 29.7 11.7871 29.7 13.3335V15.0002ZM35.3 16.6668V16.3668H35H30H29.7V16.6668V30.4168V30.5077L29.7504 30.5832L32.2504 34.3332L32.5 34.7077L32.7496 34.3332L35.2496 30.5832L35.3 30.5077V30.4168V16.6668Z" fill="currentColor" stroke="currentColor" stroke-width="0.6"/>
<path fill-rule="evenodd" clip-rule="evenodd" d="M5 7.5V32.4993C5 33.8801 6.11929 34.9993 7.5 34.9993H25.8333C27.2141 34.9993 28.3333 33.8801 28.3333 32.4993V7.5C28.3333 6.11929 27.2141 5 25.8333 5H7.5C6.11929 5 5 6.11928 5 7.5ZM16.6667 12.5C16.6667 12.0397 17.0398 11.6667 17.5 11.6667H24.1667C24.6269 11.6667 25 12.0397 25 12.5C25 12.9602 24.6269 13.3333 24.1667 13.3333H17.5C17.0398 13.3333 16.6667 12.9602 16.6667 12.5ZM17.5 15C17.0398 15 16.6667 15.3731 16.6667 15.8333C16.6667 16.2936 17.0398 16.6667 17.5 16.6667H24.1667C24.6269 16.6667 25 16.2936 25 15.8333C25 15.3731 24.6269 15 24.1667 15H17.5ZM16.6667 23.3333C16.6667 22.8731 17.0398 22.5 17.5 22.5H24.1667C24.6269 22.5 25 22.8731 25 23.3333C25 23.7936 24.6269 24.1667 24.1667 24.1667H17.5C17.0398 24.1667 16.6667 23.7936 16.6667 23.3333ZM17.5 25.8333C17.0398 25.8333 16.6667 26.2064 16.6667 26.6667C16.6667 27.1269 17.0398 27.5 17.5 27.5H24.1667C24.6269 27.5 25 27.1269 25 26.6667C25 26.2064 24.6269 25.8333 24.1667 25.8333H17.5ZM10 23.3333V25.8333H12.5V23.3333H10ZM9.16667 21.6667H13.3333C13.7936 21.6667 14.1667 22.0397 14.1667 22.5V26.6667C14.1667 27.1269 13.7936 27.5 13.3333 27.5H9.16667C8.70642 27.5 8.33333 27.1269 8.33333 26.6667V22.5C8.33333 22.0397 8.70642 21.6667 9.16667 21.6667ZM14.7559 13.0892C15.0813 12.7638 15.0813 12.2362 14.7559 11.9107C14.4305 11.5853 13.9028 11.5853 13.5774 11.9107L10.8333 14.6548L9.75592 13.5774C9.4305 13.252 8.90283 13.252 8.57742 13.5774C8.25198 13.9028 8.25198 14.4305 8.57742 14.7559L10.8333 17.0118L14.7559 13.0892Z" fill="currentColor"/>
</svg>
