<svg width="34" height="34" viewBox="0 0 34 34" fill="none" xmlns="http://www.w3.org/2000/svg">
<path fill-rule="evenodd" clip-rule="evenodd" d="M21.1937 14.3105C21.8841 14.3105 22.4437 14.8702 22.4437 15.5605V16.794H26.0587V15.5605C26.0587 14.8702 26.6184 14.3105 27.3087 14.3105C27.9991 14.3105 28.5587 14.8702 28.5587 15.5605V17.2369C29.5086 17.689 30.2783 18.4585 30.7308 19.4082H32.4047C33.0951 19.4082 33.6547 19.9679 33.6547 20.6582C33.6547 21.3485 33.0951 21.9082 32.4047 21.9082H31.1743V25.5249H32.4047C33.0951 25.5249 33.6547 26.0845 33.6547 26.7749C33.6547 27.4654 33.0951 28.0249 32.4047 28.0249H30.7313C30.2788 28.975 29.5089 29.7449 28.5587 30.1972V31.8729C28.5587 32.5632 27.9991 33.1229 27.3087 33.1229C26.6184 33.1229 26.0587 32.5632 26.0587 31.8729V30.64H22.4437V31.8729C22.4437 32.5632 21.8841 33.1229 21.1937 33.1229C20.5034 33.1229 19.9437 32.5632 19.9437 31.8729V30.1974C18.9936 29.7449 18.2238 28.975 17.7713 28.0249H16.0938C15.4034 28.0249 14.8438 27.4654 14.8438 26.7749C14.8438 26.0845 15.4034 25.5249 16.0938 25.5249H17.3282V21.9082H16.0938C15.4034 21.9082 14.8438 21.3485 14.8438 20.6582C14.8438 19.9679 15.4034 19.4082 16.0938 19.4082H17.7716C18.2242 18.4585 18.9939 17.689 19.9437 17.2369V15.5605C19.9437 14.8702 20.5034 14.3105 21.1937 14.3105ZM21.9116 19.294C20.7609 19.294 19.8282 20.2269 19.8282 21.3774V26.0567C19.8282 27.2072 20.7609 28.14 21.9116 28.14H26.5909C27.7414 28.14 28.6743 27.2072 28.6743 26.0567V21.3774C28.6743 20.2269 27.7414 19.294 26.5909 19.294H21.9116Z" fill="currentColor"/>
<path fill-rule="evenodd" clip-rule="evenodd" d="M6.31074 5.8481C6.5286 5.78604 6.71737 5.64725 6.83875 5.45599C8.73914 2.46147 12.0858 0.470703 15.8993 0.470703C20.7851 0.470703 24.9063 3.73717 26.2006 8.20577C26.297 8.53797 26.5735 8.7878 26.9108 8.8643C29.8541 9.5319 32.0516 12.1641 32.0516 15.3094C32.0516 15.4594 32.0466 15.6081 32.0368 15.7556C32.0106 16.1469 31.5298 16.2837 31.2336 16.0267C31.1251 15.9326 31.0596 15.7971 31.0596 15.6534V15.5604C31.0596 13.4894 29.3808 11.8104 27.3096 11.8104C26.469 11.8104 25.6928 12.0871 25.0675 12.5544C24.6083 12.8974 23.8961 12.8974 23.4371 12.5544C22.8116 12.0871 22.0355 11.8104 21.1948 11.8104C19.1238 11.8104 17.4448 13.4894 17.4448 15.5604C17.4448 15.7629 17.3523 15.9532 17.2011 16.0879C16.9986 16.2684 16.8065 16.4604 16.626 16.6629C16.4901 16.8151 16.2986 16.9081 16.0948 16.9081C14.0236 16.9081 12.3447 18.5871 12.3447 20.6581C12.3447 20.6926 12.3452 20.7267 12.3461 20.7611C12.3616 21.3369 11.9558 21.9182 11.3797 21.9182H8.55852C4.03457 21.9182 0.367188 18.2507 0.367188 13.7269C0.367188 9.98179 2.87945 6.82545 6.31074 5.8481Z" fill="currentColor"/>
</svg>
