<svg width="41" height="40" viewBox="0 0 41 40" fill="none" xmlns="http://www.w3.org/2000/svg">
<path d="M18.25 21.2833C18.25 19.85 19.0333 18.5667 20.3 17.9333L23.6333 16.2333C24.1667 15.9667 24.75 15.8333 25.3333 15.8333H29.9167V8.33333C29.9167 5.8 27.8667 3.75 25.3333 3.75H10.3333C7.8 3.75 5.75 5.8 5.75 8.33333V30C5.75 32.5333 7.8 34.5833 10.3333 34.5833H21.7667C19.55 32.2 18.25 29.0167 18.25 25.6333V21.2833ZM10.3333 8.75H22C22.69 8.75 23.25 9.31 23.25 10C23.25 10.69 22.69 11.25 22 11.25H10.3333C9.64333 11.25 9.08333 10.69 9.08333 10C9.08333 9.31 9.64333 8.75 10.3333 8.75ZM15.3333 21.25H10.3333C9.64333 21.25 9.08333 20.69 9.08333 20C9.08333 19.31 9.64333 18.75 10.3333 18.75H15.3333C16.0233 18.75 16.5833 19.31 16.5833 20C16.5833 20.69 16.0233 21.25 15.3333 21.25ZM17 16.25H10.3333C9.64333 16.25 9.08333 15.69 9.08333 15C9.08333 14.31 9.64333 13.75 10.3333 13.75H17C17.69 13.75 18.25 14.31 18.25 15C18.25 15.69 17.69 16.25 17 16.25ZM35.9 20.16L32.5667 18.4683C32.3917 18.38 32.1967 18.3333 32 18.3333H25.3333C25.1367 18.3333 24.9433 18.38 24.7667 18.4683L21.4333 20.16C21.0133 20.3733 20.75 20.805 20.75 21.275V25.6383C20.75 30.0667 23.5167 34.0883 27.64 35.6467C27.97 35.7717 28.3167 35.8333 28.665 35.8333C29.0133 35.8333 29.3633 35.77 29.6983 35.645C33.8167 34.0883 36.5833 30.0667 36.5833 25.6383V21.275C36.5833 20.805 36.32 20.3733 35.9 20.16ZM32.1 25.3967L29.1 28.755C28.8617 29.02 28.5233 29.1717 28.1667 29.1717C27.81 29.1717 27.4717 29.02 27.2333 28.755L25.2333 26.515C24.775 26 24.8183 25.21 25.3333 24.75C25.85 24.2917 26.6367 24.3333 27.1 24.85L28.1683 26.045L30.235 23.73C30.6933 23.215 31.4833 23.1717 32.0017 23.63C32.5167 24.09 32.56 24.88 32.1017 25.395L32.1 25.3967Z" fill="currentColor"/>
</svg>
