<svg width="17" height="22" viewBox="0 0 17 22" fill="none" xmlns="http://www.w3.org/2000/svg">
<path fill-rule="evenodd" clip-rule="evenodd" d="M8.66694 0.44043H15.8916C16.1638 0.44043 16.3281 0.77115 16.1134 0.991038C16.1131 0.991326 16.1128 0.991614 16.1125 0.99195L14.5685 2.66917C14.5535 2.68553 14.5535 2.71059 14.5685 2.72696L16.1266 4.41944C16.3154 4.62459 16.1673 4.95507 15.8916 4.95502V4.95569H9.02958C9.00606 4.95569 8.98691 4.97485 8.98691 4.99837V6.98139C8.98691 7.00347 9.00357 7.02176 9.02555 7.02382C10.1323 7.12937 11.1189 7.72419 11.6977 8.68049L16.4409 16.5188C17.8009 18.7663 16.0999 21.5599 13.4102 21.5599H3.92373C1.23405 21.5599 -0.467025 18.7664 0.893007 16.5188L5.63627 8.68049C6.21501 7.72414 7.20155 7.12937 8.30833 7.02382C8.33032 7.02171 8.34697 7.00342 8.34697 6.98139V0.760494C8.34693 0.58371 8.49021 0.44043 8.66694 0.44043ZM10.4637 9.35019C9.65867 8.01968 7.67526 8.01973 6.87016 9.35019L2.12694 17.1885C1.30878 18.5405 2.3259 20.2127 3.92378 20.2127H13.4102C15.008 20.2127 16.0251 18.5405 15.207 17.1885L10.4637 9.35019ZM8.66694 11.2636C8.21301 11.2636 7.6359 11.4353 7.43766 11.8778C7.38179 12.0025 7.36667 12.1311 7.39024 12.2657L7.94368 15.4242C8.05259 16.0459 9.28321 16.0342 9.39011 15.4242L9.94355 12.2657C9.99481 11.9733 9.85605 11.7295 9.63035 11.5523C9.36928 11.3475 8.9932 11.2636 8.66694 11.2636ZM8.66694 16.7451C7.84441 16.7451 7.41673 17.7328 8.00824 18.3142C8.59893 18.8948 9.60021 18.474 9.60021 17.6643C9.60021 17.1537 9.17617 16.7451 8.66694 16.7451ZM15.8934 16.8488L11.1502 9.01045C10.049 7.19077 7.28483 7.19077 6.18371 9.01045L1.44049 16.8488C0.341247 18.6653 1.72298 20.9198 3.92378 20.9198H13.4102C15.611 20.9198 16.9926 18.6653 15.8934 16.8488Z" fill="currentColor"/>
</svg>
