<svg width="40" height="40" viewBox="0 0 40 40" fill="none" xmlns="http://www.w3.org/2000/svg">
<path d="M35.9315 17.8999L33.6648 15.2666C33.2315 14.7666 32.8815 13.8333 32.8815 13.1666V10.3333C32.8815 8.5666 31.4315 7.1166 29.6648 7.1166H26.8315C26.1815 7.1166 25.2315 6.7666 24.7315 6.33327L22.0982 4.0666C20.9482 3.08327 19.0648 3.08327 17.8982 4.0666L15.2815 6.34993C14.7815 6.7666 13.8315 7.1166 13.1815 7.1166H10.2982C8.53151 7.1166 7.08151 8.5666 7.08151 10.3333V13.1833C7.08151 13.8333 6.73151 14.7666 6.31484 15.2666L4.06484 17.9166C3.09818 19.0666 3.09818 20.9333 4.06484 22.0833L6.31484 24.7333C6.73151 25.2333 7.08151 26.1666 7.08151 26.8166V29.6666C7.08151 31.4333 8.53151 32.8833 10.2982 32.8833H13.1815C13.8315 32.8833 14.7815 33.2333 15.2815 33.6666L17.9148 35.9333C19.0648 36.9166 20.9482 36.9166 22.1148 35.9333L24.7482 33.6666C25.2482 33.2333 26.1815 32.8833 26.8482 32.8833H29.6815C31.4482 32.8833 32.8982 31.4333 32.8982 29.6666V26.8333C32.8982 26.1833 33.2482 25.2333 33.6815 24.7333L35.9482 22.0999C36.9148 20.9499 36.9148 19.0499 35.9315 17.8999ZM26.9315 16.8499L18.8815 24.8999C18.6482 25.1333 18.3315 25.2666 17.9982 25.2666C17.6648 25.2666 17.3482 25.1333 17.1148 24.8999L13.0815 20.8666C12.5982 20.3833 12.5982 19.5833 13.0815 19.0999C13.5648 18.6166 14.3648 18.6166 14.8482 19.0999L17.9982 22.2499L25.1648 15.0833C25.6482 14.5999 26.4482 14.5999 26.9315 15.0833C27.4148 15.5666 27.4148 16.3666 26.9315 16.8499Z" fill="currentColor"/>
</svg>
