<svg width="40" height="40" viewBox="0 0 40 40" fill="none" xmlns="http://www.w3.org/2000/svg">
<path d="M18.0268 12.2737H15.8364V3.24304C15.8364 2.81249 15.6653 2.39957 15.3609 2.09512C15.0564 1.79067 14.6435 1.61963 14.2129 1.61963H9.78774C9.35719 1.61963 8.94427 1.79067 8.63982 2.09512C8.33537 2.39957 8.16433 2.81249 8.16432 3.24304V12.2737H5.97393C5.6426 12.2758 5.31894 12.3736 5.0419 12.5553C4.76485 12.7371 4.54621 12.995 4.4123 13.298C4.27839 13.6011 4.2349 13.9364 4.28707 14.2636C4.33925 14.5908 4.48486 14.8959 4.70638 15.1423L10.7216 21.8136C10.8833 21.9922 11.0807 22.1349 11.3009 22.2326C11.5211 22.3303 11.7594 22.3807 12.0003 22.3807C12.2412 22.3807 12.4795 22.3303 12.6997 22.2326C12.92 22.1349 13.1173 21.9922 13.279 21.8136L19.2943 15.1423C19.5142 14.8954 19.6584 14.5904 19.7097 14.2638C19.761 13.9371 19.7172 13.6026 19.5835 13.3002C19.4499 12.9977 19.2321 12.7401 18.956 12.5581C18.68 12.3761 18.3574 12.2774 18.0268 12.2737ZM12.0132 13.7569C12.4376 13.7679 12.8458 13.9222 13.1713 14.1948C13.4968 14.4673 13.7205 14.842 13.806 15.2578C13.8914 15.6737 13.8336 16.1062 13.6419 16.4851C13.4503 16.8639 13.136 17.1667 12.7503 17.3441V17.846C12.7476 18.0431 12.6673 18.2312 12.527 18.3695C12.3866 18.5079 12.1974 18.5855 12.0003 18.5855C11.8032 18.5855 11.6141 18.5079 11.4737 18.3695C11.3334 18.2312 11.2531 18.0431 11.2503 17.846V17.4999H10.8786C10.6816 17.4972 10.4935 17.4169 10.3551 17.2766C10.2167 17.1362 10.1392 16.947 10.1392 16.7499C10.1392 16.5529 10.2167 16.3637 10.3551 16.2233C10.4935 16.083 10.6816 16.0027 10.8786 15.9999H12.0003C12.0495 16.004 12.0989 15.9969 12.1449 15.9794C12.191 15.9619 12.2326 15.9344 12.2666 15.8988C12.3007 15.8632 12.3264 15.8204 12.3419 15.7736C12.3573 15.7268 12.3621 15.6771 12.3559 15.6282C12.3617 15.5783 12.3562 15.5278 12.3397 15.4803C12.3233 15.4328 12.2964 15.3897 12.261 15.354C12.2256 15.3183 12.1827 15.2911 12.1353 15.2743C12.088 15.2575 12.0375 15.2515 11.9875 15.2569C11.5631 15.2458 11.1549 15.0914 10.8295 14.8188C10.504 14.5463 10.2803 14.1716 10.1948 13.7557C10.1094 13.3398 10.1672 12.9073 10.3588 12.5284C10.5505 12.1496 10.8647 11.8468 11.2503 11.6692V11.1674C11.2531 10.9704 11.3334 10.7823 11.4737 10.6439C11.6141 10.5055 11.8032 10.428 12.0003 10.428C12.1974 10.428 12.3866 10.5055 12.527 10.6439C12.6673 10.7823 12.7476 10.9704 12.7503 11.1674V11.5135C13.3017 11.4601 13.8486 11.6194 13.872 12.2635C13.872 12.4624 13.793 12.6531 13.6524 12.7938C13.5117 12.9345 13.321 13.0135 13.122 13.0135H12.0003C11.9018 13.0152 11.8079 13.056 11.7394 13.1269C11.6709 13.1978 11.6333 13.293 11.635 13.3916C11.6367 13.4902 11.6775 13.5841 11.7484 13.6526C11.8193 13.7211 11.9146 13.7586 12.0132 13.7569Z" fill="currentColor"/>
</svg>
