<svg width="224" height="28" viewBox="0 0 224 28" fill="none" xmlns="http://www.w3.org/2000/svg">
<g clip-path="url(#clip0_973_47062)">
<path d="M58.9453 26.2502C57.3628 27.2915 54.8554 27.7508 52.234 27.7508C43.9053 27.7508 39.1973 22.7458 39.1973 14.779C39.1973 7.07896 43.9053 1.68896 52.1595 1.68896C54.6274 1.68896 57.0954 2.15271 58.9102 3.43896V6.79021C57.0954 5.63521 55.0921 5.04021 52.1595 5.04021C46.2198 5.04021 42.669 8.97771 42.669 14.779C42.669 20.5802 46.3337 24.4433 52.3524 24.4433C54.6362 24.4641 56.8916 23.9359 58.9277 22.9033L58.9453 26.2502Z" fill="currentColor"/>
<path d="M61.3691 17.7101C61.3691 11.9351 64.762 7.7395 70.5483 7.7395C76.3346 7.7395 79.653 11.9351 79.653 17.7101C79.653 23.4851 76.2952 27.7726 70.5483 27.7726C64.8015 27.7726 61.3691 23.4851 61.3691 17.7101ZM64.6086 17.7101C64.6086 21.3676 66.4234 24.6795 70.5483 24.6795C74.6732 24.6795 76.4135 21.3676 76.4135 17.7101C76.4135 14.0526 74.6601 10.8195 70.5527 10.8195C66.4453 10.8195 64.6174 14.0526 64.6174 17.7101H64.6086Z" fill="currentColor"/>
<path d="M99.914 27.3745H96.5957V15.7502C96.5957 12.2852 95.2061 10.7452 92.0456 10.7452C88.9771 10.7452 86.8379 12.7839 86.8379 16.6733V27.3745H83.5195V8.12455H86.8379V11.2833C87.4284 10.1901 88.3095 9.28077 89.3847 8.6555C90.4596 8.03022 91.687 7.71326 92.931 7.73955C97.3672 7.73955 99.914 10.8021 99.914 16.0958V27.3745Z" fill="currentColor"/>
<path d="M109.15 8.12448H114.125V11.187H109.15V27.3745H105.911V11.187H102.785V8.12448H105.911V6.00698C105.911 2.42825 107.918 0.00012368 112.048 0.00012368C112.804 -0.00408285 113.556 0.099033 114.283 0.306374V3.36887C113.597 3.23861 112.9 3.17415 112.201 3.17637C110.158 3.17637 109.133 4.37075 109.133 6.10323L109.15 8.12448Z" fill="currentColor"/>
<path d="M122.867 27.4882C119.703 27.4882 117.699 25.9876 117.699 22.4438V0.0788574H121.018V22.0588C121.018 23.8088 122.175 24.4082 123.604 24.4082C123.926 24.4136 124.248 24.4004 124.568 24.3688V27.3351C124.01 27.4546 123.439 27.5061 122.867 27.4882Z" fill="currentColor"/>
<path d="M127.377 8.12451H130.695V19.7489C130.695 23.2139 132.085 24.7539 135.245 24.7539C138.314 24.7539 140.453 22.7151 140.453 18.8258V8.12451H143.78V27.3745H140.462V24.2158C139.871 25.3089 138.99 26.2183 137.915 26.8436C136.84 27.4688 135.613 27.7858 134.369 27.7595C129.933 27.7595 127.386 24.697 127.386 19.4076L127.377 8.12451Z" fill="currentColor"/>
<path d="M158.005 27.7597C150.789 27.7597 147.629 23.6034 147.629 17.6972C147.629 11.8828 150.868 7.72656 156.734 7.72656C162.673 7.72656 165.062 11.8478 165.062 17.6972V19.1978H150.987C151.451 22.4703 153.573 24.5878 158.123 24.5878C160.124 24.586 162.109 24.2335 163.988 23.5466V26.6091C162.402 27.4491 159.973 27.7597 158.005 27.7597ZM150.947 16.3847H161.709C161.516 12.8059 159.894 10.7628 156.58 10.7628C153.069 10.7409 151.294 13.0116 150.947 16.3628V16.3847Z" fill="currentColor"/>
<path d="M185.395 27.3745H182.076V15.7502C182.076 12.2852 180.687 10.7452 177.526 10.7452C174.458 10.7452 172.318 12.7839 172.318 16.6733V27.3745H169V8.12455H172.318V11.2833C172.909 10.1901 173.79 9.28077 174.865 8.6555C175.94 8.03022 177.167 7.71326 178.412 7.73955C182.848 7.73955 185.395 10.8021 185.395 16.0958V27.3745Z" fill="currentColor"/>
<path d="M203.642 26.8714C202.484 27.4882 200.709 27.7464 198.934 27.7464C192.069 27.7464 188.852 23.5901 188.852 17.6839C188.852 11.8695 192.052 7.71323 198.934 7.71323C200.514 7.66148 202.086 7.97753 203.523 8.63636V11.6989C202.162 11.0588 200.671 10.7428 199.166 10.7757C194.151 10.7757 192.109 13.9345 192.109 17.6664C192.109 21.3982 194.191 24.6007 199.241 24.6007C200.732 24.6401 202.217 24.4057 203.624 23.9095L203.642 26.8714Z" fill="currentColor"/>
<path d="M216.64 27.7597C209.424 27.7597 206.264 23.6034 206.264 17.6972C206.264 11.8828 209.503 7.72656 215.368 7.72656C221.308 7.72656 223.697 11.8478 223.697 17.6972V19.1978H209.617C210.082 22.4703 212.203 24.5878 216.754 24.5878C218.755 24.586 220.74 24.2335 222.619 23.5466V26.6091C221.036 27.4491 218.608 27.7597 216.64 27.7597ZM209.582 16.3847H220.344C220.151 12.8059 218.529 10.7628 215.215 10.7628C211.704 10.7409 209.928 13.0116 209.582 16.3628V16.3847Z" fill="currentColor"/>
<path d="M0.977441 21.6695C0.692509 22.1332 0.372507 22.6714 0.100727 23.1001C-0.0162125 23.2973 -0.050956 23.5324 0.00396315 23.755C0.0588825 23.9775 0.199081 24.1696 0.394425 24.2901L6.09307 27.7901C6.19209 27.8511 6.3023 27.8918 6.41723 27.9099C6.53222 27.928 6.64965 27.923 6.76266 27.8953C6.87567 27.8676 6.98206 27.8178 7.07556 27.7486C7.16906 27.6795 7.24783 27.5924 7.30732 27.4926C7.53526 27.112 7.82896 26.6176 8.14896 26.0882C10.4065 22.3695 12.6772 22.8245 16.7714 24.7757L22.4218 27.4576C22.5277 27.5079 22.6427 27.5365 22.7599 27.5416C22.8771 27.5468 22.9942 27.5285 23.1041 27.4877C23.214 27.4469 23.3147 27.3845 23.4 27.3042C23.4854 27.2238 23.5537 27.1272 23.601 27.0201L26.3144 20.8951C26.4066 20.6848 26.4122 20.4468 26.3303 20.2324C26.2482 20.018 26.0851 19.8444 25.8761 19.7489C24.6838 19.1889 22.3122 18.0732 20.1775 17.0451C12.4975 13.322 5.97033 13.5626 0.977441 21.6695Z" fill="url(#paint0_linear_973_47062)"/>
<path d="M26.5295 7.77012C26.8145 7.30637 27.1345 6.76824 27.4063 6.33949C27.5232 6.14227 27.5579 5.90716 27.503 5.6846C27.4481 5.46209 27.3079 5.26998 27.1126 5.14949L21.4139 1.64951C21.3142 1.58244 21.2016 1.53658 21.0834 1.51479C20.9651 1.49299 20.8436 1.49572 20.7264 1.5228C20.6092 1.54989 20.4989 1.60075 20.4022 1.67222C20.3055 1.74369 20.2247 1.83425 20.1646 1.93826C19.9367 2.31888 19.643 2.81326 19.323 3.34263C17.0654 7.06137 14.7948 6.60637 10.7005 4.65512L5.06763 1.98638C4.96172 1.93607 4.84674 1.90748 4.72957 1.9023C4.61235 1.89714 4.49531 1.91549 4.38537 1.95629C4.2754 1.99709 4.17477 2.05949 4.08941 2.13981C4.00406 2.22013 3.93572 2.31673 3.88846 2.42388L1.17503 8.54887C1.08289 8.75913 1.0772 8.99713 1.15919 9.21155C1.24119 9.42593 1.40431 9.59962 1.61339 9.69512C2.80572 10.2551 5.17722 11.3707 7.31201 12.3989C15.0095 16.1176 21.5367 15.8682 26.5295 7.77012Z" fill="url(#paint1_linear_973_47062)"/>
</g>
<defs>
<linearGradient id="paint0_linear_973_47062" x1="26.161" y1="29.597" x2="8.93722" y2="19.6804" gradientUnits="userSpaceOnUse">
<stop offset="0.18" stop-color="#0052CC"/>
<stop offset="1" stop-color="#2684FF"/>
</linearGradient>
<linearGradient id="paint1_linear_973_47062" x1="1.34599" y1="-0.161743" x2="18.5742" y2="9.75922" gradientUnits="userSpaceOnUse">
<stop offset="0.18" stop-color="#0052CC"/>
<stop offset="1" stop-color="#2684FF"/>
</linearGradient>
<clipPath id="clip0_973_47062">
<rect width="224" height="28" fill="currentColor"/>
</clipPath>
</defs>
</svg>
