<svg width="25" height="20" viewBox="0 0 25 20" fill="none" xmlns="http://www.w3.org/2000/svg">
<path fill-rule="evenodd" clip-rule="evenodd" d="M24.334 1.51492V18.4855C24.334 19.3068 23.6632 19.979 22.8405 19.979C22.0193 19.979 21.3471 19.3068 21.3471 18.4855V16.5524H8.58164C8.57508 16.5524 8.56898 16.552 8.56242 16.5515C8.38852 17.4018 7.63383 18.0445 6.73336 18.0445C5.83289 18.0445 5.07633 17.3999 4.90383 16.5477C4.88602 16.5505 4.86773 16.552 4.84945 16.552H3.32133V18.4851C3.32133 19.3063 2.64914 19.9785 1.82789 19.9785C1.00664 19.9785 0.333984 19.3068 0.333984 18.4855V1.51492C0.333984 0.693672 1.00617 0.0214844 1.82742 0.0214844C2.64867 0.0214844 3.32086 0.693672 3.32086 1.51492V3.44805H4.84898C4.86773 3.44805 4.88555 3.44992 4.90336 3.45227C5.07633 2.60008 5.83242 1.95555 6.73289 1.95555C7.76133 1.95555 8.59992 2.79414 8.59992 3.82258C8.59992 4.85102 7.76133 5.68961 6.73289 5.68961C5.83242 5.68961 5.07586 5.04508 4.90336 4.19289C4.88555 4.1957 4.86727 4.19711 4.84898 4.19711H3.32086V9.62523H4.84898C4.86773 9.62523 4.88555 9.62711 4.90336 9.62945C5.07633 8.77727 5.83242 8.13273 6.73289 8.13273C7.76133 8.13273 8.59992 8.97133 8.59992 9.99977C8.59992 11.0282 7.76133 11.8668 6.73289 11.8668C5.83242 11.8668 5.07586 11.2223 4.90336 10.3701C4.88555 10.3729 4.86727 10.3743 4.84898 10.3743H3.32086V15.8024H4.84898C4.86773 15.8024 4.88555 15.8043 4.90336 15.8066C5.07633 14.9545 5.83242 14.3099 6.73289 14.3099C7.63336 14.3099 8.38805 14.9526 8.56195 15.8029C8.56852 15.8024 8.57461 15.802 8.58117 15.802H21.3462V10.3738H16.0493C16.0427 10.3738 16.0366 10.3734 16.0301 10.3729C15.8562 11.2232 15.1015 11.8659 14.201 11.8659C13.1726 11.8659 12.334 11.0273 12.334 9.99883C12.334 8.97039 13.1726 8.1318 14.201 8.1318C15.1015 8.1318 15.8562 8.77445 16.0301 9.62477C16.0366 9.6243 16.0427 9.62383 16.0493 9.62383H21.3471V4.1957H16.0493C16.0427 4.1957 16.0366 4.19523 16.0301 4.19477C15.8562 5.04508 15.1015 5.68773 14.201 5.68773C13.1726 5.68773 12.334 4.84914 12.334 3.8207C12.334 2.79227 13.1726 1.95367 14.201 1.95367C15.1015 1.95367 15.8562 2.59633 16.0301 3.44664C16.0366 3.44617 16.0427 3.4457 16.0493 3.4457H21.3471V1.51492C21.3471 0.693672 22.0193 0.0214844 22.8405 0.0214844C23.6627 0.0214844 24.334 0.693672 24.334 1.51492ZM10.467 8.1332C9.43852 8.1332 8.59992 8.9718 8.59992 10.0002C8.59992 11.0287 9.43852 11.8673 10.467 11.8673C11.4954 11.8673 12.334 11.0287 12.334 10.0002C12.334 8.9718 11.4954 8.1332 10.467 8.1332ZM10.467 5.68961C11.4954 5.68961 12.334 4.85102 12.334 3.82258C12.334 2.79414 11.4954 1.95555 10.467 1.95555C9.43852 1.95555 8.59992 2.79414 8.59992 3.82258C8.59992 4.85102 9.43852 5.68961 10.467 5.68961Z" fill="currentColor"/>
</svg>
