<svg width="41" height="40" viewBox="0 0 41 40" fill="none" xmlns="http://www.w3.org/2000/svg">
<path d="M35.5647 10.944L35.571 10.9474L35.5774 10.9507C35.8259 11.078 36.1737 11.3213 36.4616 11.7684C36.7473 12.212 37.0026 12.9006 37.0026 13.9665V26.0332C37.0026 27.099 36.7473 27.7877 36.4616 28.2313C36.1737 28.6784 35.8259 28.9217 35.5774 29.049L35.5773 29.0489L35.57 29.0528C35.3305 29.1788 34.9672 29.3165 34.5026 29.3165C33.9592 29.3165 33.2084 29.1424 32.2867 28.4882L32.2858 28.4876L29.8358 26.7542L28.7022 25.9522L28.6531 27.34C28.5644 29.8466 27.9798 31.4063 26.9287 32.3643C25.8669 33.3319 24.1697 33.8332 21.5026 33.8332H11.5026C8.77789 33.8332 7.02193 32.889 5.93294 31.5822C4.82463 30.2522 4.33594 28.4598 4.33594 26.6665V13.3332C4.33594 10.552 4.88206 8.82271 5.9371 7.76767C6.99214 6.71262 8.72145 6.1665 11.5026 6.1665H21.5026C24.1697 6.1665 25.8669 6.66776 26.9287 7.63542C27.9798 8.59339 28.5644 10.1531 28.6531 12.6597L28.7022 14.0474L29.8358 13.2454L32.283 11.514C32.2835 11.5137 32.284 11.5134 32.2844 11.5131C33.1572 10.9017 33.8666 10.7132 34.3927 10.6908C34.9228 10.6683 35.3194 10.8124 35.5647 10.944ZM15.1193 15.8332C15.1193 17.9833 16.8743 19.7165 19.0026 19.7165C21.1309 19.7165 22.8859 17.9833 22.8859 15.8332C22.8859 13.683 21.1309 11.9498 19.0026 11.9498C16.8743 11.9498 15.1193 13.683 15.1193 15.8332Z" fill="currentColor" stroke="currentColor" stroke-width="1.5"/>
</svg>
