<svg width="82" height="26" viewBox="0 0 82 26" fill="none" xmlns="http://www.w3.org/2000/svg">
<g clip-path="url(#clip0_973_47304)">
<path d="M11.8273 13C11.8273 23.5361 11.8273 26 11.8273 26C10.9566 26 7.34857 24.8087 6.07291 23.9929C2.62063 21.7844 0.26673 17.7641 0.0236077 13.6623C-0.326331 7.75594 3.19558 2.16667 11.8273 0V13Z" fill="#FF3E00"/>
<path d="M25.8528 13V26H19.9186H13.9844V18.6629C13.9844 9.19894 15.7825 6.31944 19.0193 3.43056C22.2562 0.541667 25.8528 0 25.8528 0V13Z" fill="#FF3E00"/>
<path fill-rule="evenodd" clip-rule="evenodd" d="M44.7605 0.600951C51.4341 2.86367 55.273 9.89776 53.3877 16.4093C49.9987 28.114 34.2695 29.3371 29.2438 18.2864C25.9886 11.1291 29.5016 3.42412 37.342 0.523673C39.146 -0.143299 42.6731 -0.106827 44.7605 0.600951ZM39.9627 13.3673C39.922 9.4663 39.9441 5.67534 39.9563 4.14253C39.9595 3.74673 40.2801 3.43062 40.6743 3.43062H40.8593H41.1381C41.5353 3.43062 41.8574 3.75397 41.8574 4.15284V13.0001V21.8473C41.8574 22.2462 41.5353 22.5695 41.1381 22.5695H40.9582H40.7709C40.3766 22.5695 40.0558 22.2508 40.0516 21.8549L39.9627 13.3673Z" fill="#FF3E00"/>
<path d="M72.8142 0.600889C76.4366 1.82939 79.1447 4.26689 80.7718 7.76389C81.7673 9.90456 81.7809 10.027 81.8881 17.9653L81.9975 26H76.0489H70.1008L70.0059 14.7153L69.917 4.14668C69.9137 3.7502 69.5926 3.43056 69.1977 3.43056H69.0118H68.826C68.4311 3.43056 68.11 3.7502 68.1067 4.14668L68.0177 14.7153L67.9228 26H61.9936H56.0645V13V0H63.5531C69.588 0 71.3855 0.116639 72.8142 0.600889Z" fill="#FF3E00"/>
</g>
<defs>
<clipPath id="clip0_973_47304">
<rect width="82" height="26" fill="white"/>
</clipPath>
</defs>
</svg>
