<svg width="41" height="40" viewBox="0 0 41 40" fill="none" xmlns="http://www.w3.org/2000/svg">
<path d="M11.5816 21.855C12.6061 21.855 13.4366 21.0245 13.4366 20C13.4366 18.9755 12.6061 18.145 11.5816 18.145C10.5571 18.145 9.72656 18.9755 9.72656 20C9.72656 21.0245 10.5571 21.855 11.5816 21.855Z" fill="currentColor"/>
<path d="M21.3807 17.3279L20.3485 17.0698C20.2114 16.6601 20.0458 16.2605 19.8529 15.874L20.3998 14.9615C20.6201 14.595 20.7114 14.1653 20.6592 13.7409C20.607 13.3165 20.4142 12.9218 20.1117 12.6196L18.9617 11.4696C18.6596 11.1675 18.2651 10.9751 17.8411 10.9231C17.417 10.8711 16.9878 10.9625 16.6217 11.1828L15.7092 11.7296C15.3226 11.5367 14.9231 11.3711 14.5134 11.234L14.2553 10.2031C14.1525 9.78763 13.9133 9.41862 13.5759 9.15517C13.2385 8.89172 12.8226 8.74906 12.3945 8.75H10.7695C10.3419 8.74921 9.9264 8.89174 9.5893 9.15483C9.25221 9.41792 9.01301 9.78639 8.90991 10.2014L8.65179 11.2335C8.24213 11.3706 7.84257 11.5362 7.45604 11.7291L6.54354 11.1823C6.17707 10.962 5.74747 10.8707 5.3231 10.9228C4.89874 10.9749 4.50398 11.1674 4.20166 11.4698L3.05166 12.6198C2.74944 12.9218 2.55695 13.3162 2.50485 13.7403C2.45275 14.1644 2.54403 14.5937 2.76416 14.9599L3.31104 15.8724C3.11813 16.2589 2.95251 16.6585 2.81541 17.0681L1.78454 17.3263C1.36907 17.4292 1.00014 17.6686 0.736805 18.006C0.473468 18.3434 0.330942 18.7595 0.332038 19.1875V20.8125C0.331356 21.24 0.473939 21.6554 0.737019 21.9924C1.0001 22.3294 1.36851 22.5686 1.78341 22.6716L2.81554 22.9298C2.95264 23.3394 3.11825 23.739 3.31116 24.1255L2.76429 25.038C2.54391 25.4044 2.4525 25.8341 2.5046 26.2585C2.5567 26.6829 2.74932 27.0776 3.05179 27.3799L4.20179 28.5299C4.50351 28.8326 4.89801 29.0254 5.32222 29.0776C5.74644 29.1297 6.17589 29.0381 6.54191 28.8174L7.45441 28.2705C7.84094 28.4634 8.2405 28.629 8.65016 28.7661L8.90829 29.797C9.01114 30.2126 9.25045 30.5816 9.5879 30.845C9.92536 31.1085 10.3414 31.2511 10.7695 31.25H12.3945C12.8221 31.2507 13.2375 31.1081 13.5745 30.845C13.9115 30.5819 14.1506 30.2135 14.2537 29.7986L14.5118 28.7665C14.9214 28.6294 15.321 28.4638 15.7075 28.2709L16.62 28.8178C16.9867 29.0374 17.4162 29.1283 17.8405 29.0761C18.2647 29.024 18.6594 28.8316 18.9619 28.5296L20.1119 27.3796C20.4141 27.0776 20.6066 26.6832 20.6587 26.2592C20.7108 25.8351 20.6196 25.4058 20.3994 25.0396L19.8525 24.1265C20.0454 23.74 20.2111 23.3404 20.3482 22.9308L21.379 22.6726C21.7944 22.5698 22.1633 22.3307 22.4267 21.9935C22.6901 21.6562 22.8329 21.2404 22.832 20.8125V19.1875C22.8328 18.7599 22.6903 18.3444 22.4272 18.0073C22.1641 17.6702 21.7957 17.431 21.3807 17.3279ZM11.582 24.3555C10.7206 24.3555 9.87851 24.1001 9.16225 23.6215C8.44599 23.1429 7.88774 22.4626 7.55808 21.6668C7.22842 20.8709 7.14217 19.9952 7.31023 19.1503C7.47829 18.3054 7.89311 17.5293 8.50223 16.9202C9.11136 16.3111 9.88744 15.8963 10.7323 15.7282C11.5772 15.5601 12.453 15.6464 13.2488 15.976C14.0447 16.3057 14.7249 16.864 15.2035 17.5802C15.6821 18.2965 15.9375 19.1386 15.9375 20C15.9363 21.1548 15.477 22.2619 14.6605 23.0784C13.8439 23.895 12.7368 24.3542 11.582 24.3555Z" fill="currentColor"/>
<path d="M37.832 0H32.832C31.4513 0 30.332 1.11929 30.332 2.5V7.5C30.332 8.88071 31.4513 10 32.832 10H37.832C39.2127 10 40.332 8.88071 40.332 7.5V2.5C40.332 1.11929 39.2127 0 37.832 0Z" fill="currentColor"/>
<path d="M37.832 15H32.832C31.4513 15 30.332 16.1193 30.332 17.5V22.5C30.332 23.8807 31.4513 25 32.832 25H37.832C39.2127 25 40.332 23.8807 40.332 22.5V17.5C40.332 16.1193 39.2127 15 37.832 15Z" fill="currentColor"/>
<path d="M37.832 30H32.832C31.4513 30 30.332 31.1193 30.332 32.5V37.5C30.332 38.8807 31.4513 40 32.832 40H37.832C39.2127 40 40.332 38.8807 40.332 37.5V32.5C40.332 31.1193 39.2127 30 37.832 30Z" fill="currentColor"/>
<path d="M31.582 21.25H21.582C21.2505 21.25 20.9326 21.1183 20.6981 20.8839C20.4637 20.6495 20.332 20.3315 20.332 20C20.332 19.6685 20.4637 19.3505 20.6981 19.1161C20.9326 18.8817 21.2505 18.75 21.582 18.75H31.582C31.9136 18.75 32.2315 18.8817 32.4659 19.1161C32.7003 19.3505 32.832 19.6685 32.832 20C32.832 20.3315 32.7003 20.6495 32.4659 20.8839C32.2315 21.1183 31.9136 21.25 31.582 21.25Z" fill="currentColor"/>
<path d="M26.582 21.25C26.2505 21.25 25.9326 21.1183 25.6981 20.8839C25.4637 20.6495 25.332 20.3315 25.332 20V6.25C25.3327 5.58716 25.5963 4.95166 26.065 4.48296C26.5337 4.01427 27.1692 3.75066 27.832 3.75H31.582C31.9136 3.75 32.2315 3.8817 32.4659 4.11612C32.7003 4.35054 32.832 4.66848 32.832 5C32.832 5.33152 32.7003 5.64946 32.4659 5.88388C32.2315 6.1183 31.9136 6.25 31.582 6.25H27.832V20C27.832 20.3315 27.7003 20.6495 27.4659 20.8839C27.2315 21.1183 26.9136 21.25 26.582 21.25Z" fill="currentColor"/>
<path d="M31.582 36.25H27.832C27.1692 36.2493 26.5337 35.9857 26.065 35.517C25.5963 35.0483 25.3327 34.4128 25.332 33.75V20C25.332 19.6685 25.4637 19.3505 25.6981 19.1161C25.9326 18.8817 26.2505 18.75 26.582 18.75C26.9136 18.75 27.2315 18.8817 27.4659 19.1161C27.7003 19.3505 27.832 19.6685 27.832 20V33.75H31.582C31.9136 33.75 32.2315 33.8817 32.4659 34.1161C32.7003 34.3505 32.832 34.6685 32.832 35C32.832 35.3315 32.7003 35.6495 32.4659 35.8839C32.2315 36.1183 31.9136 36.25 31.582 36.25Z" fill="currentColor"/>
</svg>
