<svg width="41" height="40" viewBox="0 0 41 40" fill="none" xmlns="http://www.w3.org/2000/svg">
<path d="M5.71406 1.6665H19.2641C20.3974 1.6665 21.3141 2.59984 21.3141 3.74984V6.03317C21.3141 6.8665 20.7974 7.89984 20.2807 8.4165L15.8807 12.3832C15.2641 12.8998 14.8641 13.9332 14.8641 14.7665V19.2332C14.8641 19.8498 14.4474 20.6832 13.9474 20.9998L12.4974 21.9498C11.1641 22.7832 9.31406 21.8498 9.31406 20.1832V14.6665C9.31406 13.9332 8.8974 12.9998 8.4974 12.4832L4.5974 8.3165C4.08073 7.79984 3.66406 6.8665 3.66406 6.24984V3.84984C3.66406 2.59984 4.58073 1.6665 5.71406 1.6665Z" fill="currentColor"/>
<path d="M28.6641 3.3335H24.6641C24.1974 3.3335 23.8307 3.70016 23.8307 4.16683C23.8307 4.96683 23.8307 6.0335 23.8307 6.0335C23.8307 7.6835 22.9474 9.30016 22.0807 10.1835L17.5474 14.2335C17.4974 14.3502 17.4141 14.5168 17.3641 14.6502V19.2335C17.3641 20.7502 16.4641 22.4002 15.2307 23.1502L13.8641 24.0335C13.0974 24.5168 12.2474 24.7502 11.3974 24.7502C10.6307 24.7502 9.86406 24.5502 9.16406 24.1668C8.21311 23.6401 7.519 22.8181 7.13811 21.8585C7.03239 21.5922 6.9974 21.3047 6.9974 21.0181V17.0168C6.9974 16.8002 6.91406 16.5835 6.7474 16.4335L5.08073 14.7668C4.56406 14.2335 3.66406 14.6002 3.66406 15.3502V28.3335C3.66406 32.9335 7.3974 36.6668 11.9974 36.6668H28.6641C33.2641 36.6668 36.9974 32.9335 36.9974 28.3335V11.6668C36.9974 7.06683 33.2641 3.3335 28.6641 3.3335ZM30.3307 29.5835H18.6641C17.9807 29.5835 17.4141 29.0168 17.4141 28.3335C17.4141 27.6502 17.9807 27.0835 18.6641 27.0835H30.3307C31.0141 27.0835 31.5807 27.6502 31.5807 28.3335C31.5807 29.0168 31.0141 29.5835 30.3307 29.5835ZM30.3307 22.9168H21.9974C21.3141 22.9168 20.7474 22.3502 20.7474 21.6668C20.7474 20.9835 21.3141 20.4168 21.9974 20.4168H30.3307C31.0141 20.4168 31.5807 20.9835 31.5807 21.6668C31.5807 22.3502 31.0141 22.9168 30.3307 22.9168Z" fill="currentColor"/>
</svg>
