<svg width="18" height="21" viewBox="0 0 18 21" fill="none" xmlns="http://www.w3.org/2000/svg">
<path d="M14.582 0H3.08203C1.56203 0 0.332031 1.23 0.332031 2.75V18.25C0.332031 19.77 1.56203 21 3.08203 21H11.222C10.342 19.8 9.83203 18.34 9.83203 16.75C9.83203 12.75 13.082 9.5 17.082 9.5C17.162 9.5 17.252 9.5 17.332 9.51V2.75C17.332 1.23 16.102 0 14.582 0ZM4.33203 4H8.33203C8.88203 4 9.33203 4.45 9.33203 5C9.33203 5.55 8.88203 6 8.33203 6H4.33203C3.78203 6 3.33203 5.55 3.33203 5C3.33203 4.45 3.78203 4 4.33203 4ZM9.33203 14H4.33203C3.78203 14 3.33203 13.55 3.33203 13C3.33203 12.45 3.78203 12 4.33203 12H9.33203C9.88203 12 10.332 12.45 10.332 13C10.332 13.55 9.88203 14 9.33203 14ZM13.332 10H4.33203C3.78203 10 3.33203 9.55 3.33203 9C3.33203 8.45 3.78203 8 4.33203 8H13.332C13.882 8 14.332 8.45 14.332 9C14.332 9.55 13.882 10 13.332 10Z" fill="currentColor"/>
</svg>
