<svg width="40" height="40" viewBox="0 0 40 40" fill="none" xmlns="http://www.w3.org/2000/svg">
<path d="M35.85 2.78125H22.9C20.6125 2.78125 18.75 4.64375 18.75 6.93125V14.1062C18.75 16.1375 20.2125 17.8313 22.1375 18.1875C22.2812 18.9375 22.6875 19.625 23.3188 20.125C23.9063 20.5875 24.6125 20.8188 25.325 20.8188C25.8813 20.8188 26.4437 20.675 26.95 20.3813L30.6188 18.2562H35.85C38.1375 18.2562 40 16.3937 40 14.1062V6.93125C40 4.64375 38.1375 2.78125 35.85 2.78125ZM32.5562 13.825H26.1937C25.5 13.825 24.9437 13.2625 24.9437 12.575C24.9437 11.8813 25.5 11.325 26.1937 11.325H32.5562C33.25 11.325 33.8062 11.8813 33.8062 12.575C33.8062 13.2625 33.25 13.825 32.5562 13.825ZM32.5562 9.6125H26.1937C25.5 9.6125 24.9437 9.05 24.9437 8.3625C24.9437 7.66875 25.5 7.1125 26.1937 7.1125H32.5562C33.25 7.1125 33.8062 7.66875 33.8062 8.3625C33.8062 9.05 33.25 9.6125 32.5562 9.6125Z" fill="currentColor"/>
<path d="M10.5125 26.5687C14.4625 26.5687 17.675 23.3562 17.675 19.4062C17.675 15.4562 14.4625 12.2437 10.5125 12.2437C6.55625 12.2437 3.34375 15.4562 3.34375 19.4062C3.34375 23.3562 6.55625 26.5687 10.5125 26.5687Z" fill="currentColor"/>
<path d="M10.5125 28.2373C4.7125 28.2373 0 32.9561 0 38.7498C0 39.4373 0.5625 39.9998 1.25 39.9998H19.7687C20.4562 39.9998 21.0187 39.4373 21.0187 38.7498C21.0187 32.9561 16.3062 28.2373 10.5125 28.2373Z" fill="currentColor"/>
</svg>
