<svg width="41" height="40" viewBox="0 0 41 40" fill="none" xmlns="http://www.w3.org/2000/svg">
<g clip-path="url(#clip0_1539_35215)">
<path d="M9.99219 22.0492L9.99227 22.0495C10.017 22.0245 10.0154 22.026 9.99219 22.0492Z" fill="currentColor"/>
<path d="M39.452 16.5203L37.463 16.042C37.0305 14.1539 36.2855 12.3597 35.2443 10.6914L36.2523 8.99908C36.527 8.53799 36.4526 7.94978 36.0738 7.57103L32.7703 4.26752C32.3916 3.88994 31.8046 3.81439 31.3423 4.089L29.6499 5.09705C27.9816 4.0558 26.1874 3.31088 24.2994 2.87838L23.8211 0.889316C23.6906 0.368691 23.2227 0.00244141 22.6848 0.00244141H17.998C17.4602 0.00244141 16.9922 0.368613 16.8617 0.889316L16.3834 2.87838C14.4954 3.31088 12.7012 4.0558 11.0329 5.09705L9.34055 4.089C8.87945 3.81432 8.29125 3.88877 7.9125 4.26752L4.60883 7.57096C4.23008 7.94971 4.1557 8.53783 4.43031 8.999L5.43836 10.6913C4.39711 12.3596 3.65219 14.1538 3.21969 16.0419L1.23063 16.5202C0.71 16.6506 0.34375 17.1186 0.34375 17.6564V22.3433C0.34375 22.8811 0.709922 23.3503 1.23172 23.4795L3.22078 23.9578C3.50914 25.2089 3.94313 26.4109 4.50047 27.5637C5.36102 26.6996 9.68305 22.3591 9.99367 22.0488C9.97836 21.9699 9.81094 20.4691 9.80648 20.1767C9.7068 14.2059 14.5161 9.45541 20.3459 9.45541C26.2155 9.45541 30.8961 14.1884 30.874 20.0364C30.8488 25.4448 26.8122 30.049 21.1744 30.4701C20.9305 30.4888 19.8278 30.6515 18.2909 30.3485L12.7916 35.8478C13.94 36.4018 15.1374 36.833 16.3834 37.1203L16.8616 39.1105C16.9921 39.6311 17.4601 39.9974 17.9979 39.9974H22.6848C23.2226 39.9974 23.6905 39.6312 23.821 39.1105L24.2993 37.1214C26.1873 36.6889 27.9816 35.944 29.6498 34.9028L31.3422 35.9108C31.801 36.1855 32.3903 36.1099 32.7702 35.7323L36.0737 32.4288C36.4525 32.05 36.5269 31.4619 36.2523 31.0007L35.2442 29.3084C36.2866 27.6401 37.0304 25.8459 37.4629 23.9567L39.4508 23.4795C39.9726 23.3503 40.3387 22.8811 40.3387 22.3433V17.6564C40.3387 17.1187 39.9727 16.6506 39.452 16.5203Z" fill="currentColor"/>
<path d="M28.2671 17.8579C28.1642 17.4545 27.8527 17.1372 27.4511 17.0272C27.0496 16.917 26.6206 17.0318 26.3261 17.3261L23.6523 20.0001C22.7383 20.9141 21.2526 20.9141 20.3385 20.0001C19.4254 19.087 19.4254 17.5995 20.3385 16.6863L23.0135 14.0113C23.3079 13.7169 23.4215 13.2872 23.3115 12.8859C23.2013 12.4846 22.8843 12.1726 22.481 12.0701C17.5368 10.8136 13.0874 14.0342 12.2714 18.4816C12.0093 19.9463 12.1261 21.4052 12.6054 22.7486C11.9387 23.4154 1.64076 33.7132 1.36396 33.9901C-0.0103356 35.3644 -0.0103356 37.6003 1.38568 38.9963C2.76865 40.3072 4.88669 40.3624 6.34834 38.9746L17.5899 27.733C19.3901 28.3755 21.3979 28.3625 23.3626 27.6692C26.9029 26.42 29.3806 22.2275 28.2671 17.8579Z" fill="currentColor"/>
</g>
<defs>
<clipPath id="clip0_1539_35215">
<rect width="40" height="40" fill="currentColor" transform="translate(0.335938)"/>
</clipPath>
</defs>
</svg>
