<svg width="21" height="20" viewBox="0 0 21 20" fill="none" xmlns="http://www.w3.org/2000/svg">
<path d="M14.563 0H6.10498C2.92288 0 0.333984 2.5889 0.333984 5.7705V14.2295C0.333984 17.4111 2.92288 20 6.10498 20H14.563C17.7451 20 20.334 17.4111 20.334 14.2295V5.7705C20.334 2.5889 17.7451 0 14.563 0ZM9.69088 14.7119C9.69088 15.5596 9.00098 16.25 8.15278 16.25H5.72898C4.88088 16.25 4.19088 15.5596 4.19088 14.7119V10.7881C4.19088 9.9404 4.88078 9.25 5.72898 9.25H8.15278C9.00088 9.25 9.69088 9.9404 9.69088 10.7881V14.7119ZM9.69088 6.7119C9.69088 7.5596 9.00098 8.25 8.15278 8.25H5.72898C4.88088 8.25 4.19088 7.5596 4.19088 6.7119V5.2881C4.19088 4.4404 4.88078 3.75 5.72898 3.75H8.15278C9.00088 3.75 9.69088 4.4404 9.69088 5.2881V6.7119ZM16.4771 14.7119C16.4771 15.5596 15.7872 16.25 14.939 16.25H12.5152C11.6671 16.25 10.9771 15.5596 10.9771 14.7119V13.2881C10.9771 12.4404 11.667 11.75 12.5152 11.75H14.939C15.7871 11.75 16.4771 12.4404 16.4771 13.2881V14.7119ZM16.4771 9.2119C16.4771 10.0596 15.7872 10.75 14.939 10.75H12.5152C11.6671 10.75 10.9771 10.0596 10.9771 9.2119V5.2881C10.9771 4.4404 11.667 3.75 12.5152 3.75H14.939C15.7871 3.75 16.4771 4.4404 16.4771 5.2881V9.2119Z" fill="currentColor"/>
</svg>
