<svg width="40" height="40" viewBox="0 0 40 40" fill="none" xmlns="http://www.w3.org/2000/svg">
<g clip-path="url(#clip0_1539_9044)">
<path d="M35.5184 26.0747C35.2593 26.0747 35.0057 26.098 34.7585 26.1405C34.7833 25.8809 34.797 25.6179 34.797 25.3519C34.797 20.7934 31.1089 17.0981 26.5594 17.0981C22.2067 17.0981 18.6453 20.4812 18.3447 24.7657C17.6623 24.4517 16.9039 24.2756 16.1041 24.2756C13.1341 24.2756 10.7266 26.6878 10.7266 29.6636C10.7266 32.6394 13.1341 35.0516 16.1041 35.0516H35.5184C37.9925 35.0516 39.9981 33.0421 39.9981 30.5632C39.9981 28.0843 37.9925 26.0747 35.5184 26.0747Z" fill="currentColor"/>
<path d="M3.02521 11.2262C5.32776 12.1185 8.414 12.6098 11.7151 12.6098C15.0162 12.6098 18.1024 12.1185 20.405 11.2262C22.2427 10.5141 23.4302 9.55791 23.4302 8.79011C23.4302 8.02262 22.2427 7.06647 20.405 6.35433C18.1024 5.46208 15.0162 4.9707 11.7151 4.9707C8.414 4.9707 5.32776 5.46208 3.02521 6.35433C1.18744 7.06647 0 8.02262 0 8.79011C0 9.55791 1.18744 10.5141 3.02521 11.2262Z" fill="currentColor"/>
<path d="M3.02521 20.2527C5.32776 21.145 8.414 21.6364 11.7151 21.6364C13.5107 21.6364 15.2423 21.4905 16.8192 21.2144C17.3898 19.8647 18.2394 18.6364 19.3323 17.6112C20.5151 16.5012 21.9156 15.6918 23.4302 15.2225V12.3237C22.8159 12.7252 22.0874 13.0921 21.2503 13.4166C18.6847 14.4106 15.2985 14.9583 11.7151 14.9583C8.13202 14.9583 4.74548 14.4106 2.17987 13.4166C1.34277 13.0921 0.614319 12.7252 0 12.3237V17.8166C0 18.5844 1.18744 19.5406 3.02521 20.2527Z" fill="currentColor"/>
<path d="M10.8734 23.9796C7.60437 23.9007 4.54376 23.3644 2.17987 22.4483C1.34277 22.1239 0.614319 21.7573 0 21.3555V26.8487C0 27.6162 1.18744 28.5723 3.02521 29.2845C4.54132 29.8719 6.39709 30.2856 8.42987 30.4996C8.40027 30.2247 8.3847 29.9459 8.3847 29.663C8.3847 27.4183 9.34418 25.3941 10.8734 23.9796Z" fill="currentColor"/>
</g>
<defs>
<clipPath id="clip0_1539_9044">
<rect width="40" height="40" fill="currentColor"/>
</clipPath>
</defs>
</svg>
