<svg width="40" height="40" viewBox="0 0 40 40" fill="none" xmlns="http://www.w3.org/2000/svg">
<g clip-path="url(#clip0_1539_17874)">
<path d="M20 7.4407C20.6472 7.4407 21.1719 6.91602 21.1719 6.26883V2.39844C21.1719 1.75125 20.6472 1.22656 20 1.22656C19.3528 1.22656 18.8281 1.75125 18.8281 2.39844V6.26883C18.8281 6.91602 19.3528 7.4407 20 7.4407Z" fill="currentColor"/>
<path d="M25.4688 9.42967C25.7687 9.42967 26.0686 9.31521 26.2974 9.08639L29.4224 5.96139C29.88 5.50381 29.88 4.76178 29.4224 4.30412C28.9648 3.84654 28.2228 3.84654 27.7651 4.30412L24.6401 7.42912C24.1825 7.8867 24.1825 8.62873 24.6401 9.08639C24.8689 9.31521 25.1689 9.42967 25.4688 9.42967Z" fill="currentColor"/>
<path d="M13.7027 9.08639C13.9315 9.31521 14.2314 9.42967 14.5313 9.42967C14.8311 9.42967 15.1311 9.31521 15.3599 9.08639C15.8175 8.62881 15.8175 7.88678 15.3599 7.42912L12.2349 4.30412C11.7773 3.84654 11.0353 3.84654 10.5776 4.30412C10.12 4.7617 10.12 5.50373 10.5776 5.96139L13.7027 9.08639Z" fill="currentColor"/>
<path d="M30.5258 17.7893L25.9767 13.2402C25.0976 12.361 23.9053 11.8672 22.662 11.8672H15.5465C13.7727 11.8672 12.1051 12.558 10.8509 13.8122L10.4763 14.1866L10.4521 14.2109H1.17188C0.524687 14.2109 0 14.7355 0 15.3827V27.8827C0 28.5299 0.524687 29.0546 1.17188 29.0546H7.01461L9.79641 31.8363C10.0162 32.0561 10.3142 32.1796 10.625 32.1796H11.6861C11.2934 31.5717 11.0405 30.8927 10.9416 30.1818C10.0655 29.8968 9.27711 29.3706 8.66992 28.647C6.90477 26.5431 7.18016 23.3955 9.28383 21.6303L13.7379 17.893H22.6312C22.942 17.893 23.2401 18.0164 23.4598 18.2362L26.7318 21.5082C27.7827 22.5591 29.5251 22.5816 30.558 21.5129C31.5613 20.4748 31.5505 18.8141 30.5258 17.7893Z" fill="currentColor"/>
<path d="M39.999 17.8047C39.999 17.1573 39.4743 16.6327 38.8272 16.6328H32.6189C34.1172 18.5915 33.9726 21.4125 32.1822 23.203C31.2385 24.1466 29.9829 24.6663 28.6466 24.6663C27.3103 24.6663 26.0547 24.1466 25.1111 23.203L22.145 20.2368H14.3707L13.4501 21.0092L10.4771 23.5039C9.36154 24.4399 9.21607 26.103 10.1521 27.2186C11.0881 28.3341 12.7512 28.4796 13.8668 27.5436C12.7512 28.4796 12.6058 30.1427 13.5418 31.2583C14.4778 32.3738 16.1409 32.5193 17.2565 31.5833C16.1409 32.5193 15.9954 34.1824 16.9315 35.298C17.8675 36.4135 19.5306 36.559 20.6461 35.623L22.7215 33.8815L22.4416 34.1164C21.3261 35.0524 21.1806 36.7155 22.1166 37.8311C23.0526 38.9466 24.7158 39.0921 25.8313 38.1561L33.7918 31.4764H38.8273C39.4745 31.4764 39.9992 30.9517 39.9991 30.3045L39.999 17.8047Z" fill="currentColor"/>
</g>
<defs>
<clipPath id="clip0_1539_17874">
<rect width="40" height="40" fill="currentColor"/>
</clipPath>
</defs>
</svg>
