<svg width="40" height="40" viewBox="0 0 40 40" fill="none" xmlns="http://www.w3.org/2000/svg">
<path d="M36.9953 24.8438H36.2109V24.0703C36.2109 21.9125 34.4547 20.1563 32.2969 20.1563H21.1719V17.8125H26.7586C27.4055 17.8125 27.9305 17.2875 27.9305 16.6406V14.8172C27.9305 12.3195 26.7195 10 24.7492 8.55859C23.8258 9.55313 22.5945 10.257 21.2078 10.5195V12.7781C21.2078 13.425 20.6836 13.95 20.0359 13.95C20.0242 13.95 20.0117 13.95 20 13.9492C19.3695 13.9305 18.8641 13.4133 18.8641 12.7781V10.532C17.4484 10.2812 16.1906 9.57031 15.2508 8.55859C13.2805 10 12.0695 12.3195 12.0695 14.8172V16.6406C12.0695 17.2875 12.5945 17.8125 13.2414 17.8125H18.8281V20.1563H7.74219C5.58437 20.1563 3.82812 21.9125 3.82812 24.0703V24.8438H3.00469C1.34766 24.8438 0 26.1914 0 27.8484V36.9953C0 38.6523 1.34766 40 3.00469 40H6.91719C8.57422 40 9.92188 38.6523 9.92188 36.9953V27.8484C9.92188 26.1914 8.57422 24.8438 6.91719 24.8438H6.17188V24.0703C6.17188 23.2047 6.87656 22.5 7.74219 22.5H18.8281V24.8438H15.2703C13.6133 24.8438 12.2656 26.1914 12.2656 27.8484V36.9953C12.2656 38.6523 13.6133 40 15.2703 40H24.7297C26.3867 40 27.7344 38.6523 27.7344 36.9953V27.8484C27.7344 26.1914 26.3867 24.8438 24.7297 24.8438H21.1719V22.5H32.2969C33.1625 22.5 33.8672 23.2047 33.8672 24.0703V24.8438H33.0828C31.4258 24.8438 30.0781 26.1914 30.0781 27.8484V36.9953C30.0781 38.6523 31.4258 40 33.0828 40H36.9953C38.6523 40 40 38.6523 40 36.9953V27.8484C40 26.1914 38.6523 24.8438 36.9953 24.8438Z" fill="currentColor"/>
<path d="M20.0031 8.28828C22.2884 8.28828 24.147 6.42914 24.147 4.14383C24.147 1.85914 22.2884 0 20.0031 0C17.7178 0 15.8594 1.85914 15.8594 4.14383C15.8594 6.42914 17.7178 8.28828 20.0031 8.28828Z" fill="currentColor"/>
</svg>
