<svg width="40" height="40" viewBox="0 0 40 40" fill="none" xmlns="http://www.w3.org/2000/svg">
<path d="M21.029 19.3277L21.025 19.3237L20.8186 19.4687C20.5625 19.6485 20.4109 19.942 20.4109 20.2555V25.6913C20.4109 26.2229 20.8402 26.6521 21.3717 26.6521C21.9033 26.6521 22.3325 26.2229 22.3325 25.6913V20.7552L27.8411 16.8988C28.0331 16.9733 28.2421 17.0163 28.4652 17.0163C29.4149 17.0163 30.1839 16.2473 30.1839 15.2976C30.1839 14.3479 29.4149 13.5789 28.4652 13.5789C27.5155 13.5789 26.7465 14.3479 26.7465 15.2976C26.7465 15.3067 26.7466 15.3156 26.7467 15.3246L21.029 19.3277Z" fill="currentColor" stroke="currentColor" stroke-width="0.6"/>
<path d="M26.9189 12.8817L26.9192 12.8814C27.1753 12.7016 27.3268 12.4081 27.3268 12.0945V8.05876C27.3268 7.5272 26.8976 7.09795 26.366 7.09795C25.8345 7.09795 25.4052 7.5272 25.4052 8.05876V11.5949L16.9949 17.4825L16.9946 17.4827C16.7385 17.6625 16.587 17.9561 16.587 18.2696V18.5696H16.5907V23.5136C16.1332 23.8226 15.8328 24.3437 15.8328 24.9411C15.8328 25.8908 16.6018 26.6598 17.5515 26.6598C18.5012 26.6598 19.2702 25.8908 19.2702 24.9411C19.2702 24.3462 18.9661 23.8228 18.5086 23.5136V18.7692L26.9189 12.8817Z" fill="currentColor" stroke="currentColor" stroke-width="0.6"/>
<path d="M26.9606 19.8341L26.9606 19.8342L24.7803 21.3611C24.7803 21.3611 24.7803 21.3611 24.7803 21.3611C24.345 21.6658 24.2428 22.2635 24.5457 22.6968C24.7324 22.9655 25.0326 23.1053 25.3332 23.1053C25.5219 23.1053 25.7137 23.051 25.883 22.9311L28.0626 21.4046C28.0626 21.4046 28.0626 21.4046 28.0626 21.4046C28.498 21.0998 28.6002 20.5018 28.2968 20.0684C27.992 19.633 27.394 19.5308 26.9606 19.8341Z" fill="currentColor" stroke="currentColor" stroke-width="0.6"/>
<mask id="path-4-outside-1_1539_31558" maskUnits="userSpaceOnUse" x="7.6875" y="22.6323" width="25" height="15" fill="black">
<rect fill="currentColor" x="7.6875" y="22.6323" width="25" height="15"/>
<path d="M31.2913 23.918C31.0785 23.6156 30.6604 23.5409 30.3542 23.7537L20.0501 30.9666L9.74594 23.7537C9.44353 23.5409 9.02167 23.6156 8.80887 23.918C8.59606 24.2241 8.67073 24.6422 8.97313 24.855L18.8741 31.7879L15.9732 33.8189C15.7754 33.7181 15.5514 33.6584 15.3124 33.6584C14.5135 33.6584 13.8676 34.3042 13.8676 35.1032C13.8676 35.9021 14.5135 36.548 15.3124 36.548C16.1114 36.548 16.7572 35.9021 16.7572 35.1032C16.7572 35.0434 16.7535 34.98 16.746 34.9202L20.0501 32.6093L23.3541 34.9202C23.3467 34.98 23.3429 35.0397 23.3429 35.1032C23.3429 35.9021 23.9888 36.548 24.7877 36.548C25.5867 36.548 26.2326 35.9021 26.2326 35.1032C26.2326 34.3042 25.5867 33.6584 24.7877 33.6584C24.5488 33.6584 24.3248 33.7181 24.1269 33.8189L21.2261 31.7879L31.127 24.855C31.4294 24.6422 31.5041 24.2241 31.2913 23.918Z"/>
</mask>
<path d="M31.2913 23.918C31.0785 23.6156 30.6604 23.5409 30.3542 23.7537L20.0501 30.9666L9.74594 23.7537C9.44353 23.5409 9.02167 23.6156 8.80887 23.918C8.59606 24.2241 8.67073 24.6422 8.97313 24.855L18.8741 31.7879L15.9732 33.8189C15.7754 33.7181 15.5514 33.6584 15.3124 33.6584C14.5135 33.6584 13.8676 34.3042 13.8676 35.1032C13.8676 35.9021 14.5135 36.548 15.3124 36.548C16.1114 36.548 16.7572 35.9021 16.7572 35.1032C16.7572 35.0434 16.7535 34.98 16.746 34.9202L20.0501 32.6093L23.3541 34.9202C23.3467 34.98 23.3429 35.0397 23.3429 35.1032C23.3429 35.9021 23.9888 36.548 24.7877 36.548C25.5867 36.548 26.2326 35.9021 26.2326 35.1032C26.2326 34.3042 25.5867 33.6584 24.7877 33.6584C24.5488 33.6584 24.3248 33.7181 24.1269 33.8189L21.2261 31.7879L31.127 24.855C31.4294 24.6422 31.5041 24.2241 31.2913 23.918Z" fill="currentColor"/>
<path d="M31.2913 23.918L31.784 23.5755L31.782 23.5727L31.2913 23.918ZM30.3542 23.7537L30.0118 23.261L30.0101 23.2622L30.3542 23.7537ZM20.0501 30.9666L19.706 31.4581L20.0501 31.699L20.3942 31.4581L20.0501 30.9666ZM9.74594 23.7537L9.40064 24.2444L9.40186 24.2452L9.74594 23.7537ZM8.80887 23.918L8.31818 23.5727L8.3162 23.5755L8.80887 23.918ZM8.97313 24.855L8.62783 25.3457L8.62898 25.3465L8.97313 24.855ZM18.8741 31.7879L19.2182 32.2794L19.9202 31.788L19.2182 31.2964L18.8741 31.7879ZM15.9732 33.8189L15.7009 34.3535L16.0221 34.5171L16.3174 34.3104L15.9732 33.8189ZM16.746 34.9202L16.4021 34.4286L16.1058 34.6358L16.1507 34.9947L16.746 34.9202ZM20.0501 32.6093L20.394 32.1176L20.0501 31.8771L19.7062 32.1176L20.0501 32.6093ZM23.3541 34.9202L23.9495 34.9947L23.9943 34.6358L23.698 34.4286L23.3541 34.9202ZM24.1269 33.8189L23.7828 34.3104L24.0781 34.5171L24.3993 34.3535L24.1269 33.8189ZM21.2261 31.7879L20.8819 31.2964L20.18 31.788L20.882 32.2794L21.2261 31.7879ZM31.127 24.855L31.4712 25.3465L31.4723 25.3457L31.127 24.855ZM31.782 23.5727C31.3789 22.9998 30.5884 22.8602 30.0118 23.261L30.6967 24.2464C30.7324 24.2216 30.7781 24.2313 30.8006 24.2633L31.782 23.5727ZM30.0101 23.2622L19.706 30.475L20.3942 31.4581L30.6983 24.2452L30.0101 23.2622ZM20.3942 30.475L10.09 23.2622L9.40186 24.2452L19.706 31.4581L20.3942 30.475ZM10.0912 23.263C9.51612 22.8583 8.72048 23.001 8.31818 23.5727L9.29955 24.2633C9.3102 24.2481 9.3265 24.2373 9.3477 24.2336C9.36875 24.2299 9.38662 24.2345 9.40064 24.2444L10.0912 23.263ZM8.3162 23.5755C7.9154 24.1521 8.05502 24.9426 8.62784 25.3457L9.31843 24.3644C9.28644 24.3418 9.27673 24.2961 9.30153 24.2604L8.3162 23.5755ZM8.62898 25.3465L18.5299 32.2794L19.2182 31.2964L9.31728 24.3636L8.62898 25.3465ZM18.5299 31.2964L15.6291 33.3274L16.3174 34.3104L19.2182 32.2794L18.5299 31.2964ZM16.2456 33.2843C15.9696 33.1437 15.6528 33.0584 15.3124 33.0584V34.2584C15.4499 34.2584 15.5811 34.2925 15.7009 34.3535L16.2456 33.2843ZM15.3124 33.0584C14.1821 33.0584 13.2676 33.9729 13.2676 35.1032H14.4676C14.4676 34.6356 14.8448 34.2584 15.3124 34.2584V33.0584ZM13.2676 35.1032C13.2676 36.2335 14.1821 37.148 15.3124 37.148V35.948C14.8448 35.948 14.4676 35.5708 14.4676 35.1032H13.2676ZM15.3124 37.148C16.4427 37.148 17.3572 36.2335 17.3572 35.1032H16.1572C16.1572 35.5708 15.78 35.948 15.3124 35.948V37.148ZM17.3572 35.1032C17.3572 35.0199 17.3521 34.9315 17.3414 34.8458L16.1507 34.9947C16.1549 35.0284 16.1572 35.067 16.1572 35.1032H17.3572ZM17.0899 35.4119L20.394 33.1009L19.7062 32.1176L16.4021 34.4286L17.0899 35.4119ZM19.7062 33.1009L23.0102 35.4119L23.698 34.4286L20.394 32.1176L19.7062 33.1009ZM22.7588 34.8458C22.7481 34.9308 22.7429 35.0154 22.7429 35.1032H23.9429C23.9429 35.064 23.9452 35.0291 23.9495 34.9947L22.7588 34.8458ZM22.7429 35.1032C22.7429 36.2335 23.6574 37.148 24.7877 37.148V35.948C24.3202 35.948 23.9429 35.5708 23.9429 35.1032H22.7429ZM24.7877 37.148C25.9181 37.148 26.8326 36.2335 26.8326 35.1032H25.6326C25.6326 35.5708 25.2553 35.948 24.7877 35.948V37.148ZM26.8326 35.1032C26.8326 33.9729 25.9181 33.0584 24.7877 33.0584V34.2584C25.2553 34.2584 25.6326 34.6356 25.6326 35.1032H26.8326ZM24.7877 33.0584C24.4473 33.0584 24.1305 33.1437 23.8546 33.2843L24.3993 34.3535C24.5191 34.2925 24.6503 34.2584 24.7877 34.2584V33.0584ZM24.4711 33.3274L21.5702 31.2964L20.882 32.2794L23.7828 34.3104L24.4711 33.3274ZM21.5702 32.2794L31.4712 25.3465L30.7829 24.3636L20.8819 31.2964L21.5702 32.2794ZM31.4723 25.3457C32.0451 24.9426 32.1848 24.1521 31.784 23.5755L30.7986 24.2604C30.8234 24.2961 30.8137 24.3418 30.7817 24.3644L31.4723 25.3457Z" fill="currentColor" mask="url(#path-4-outside-1_1539_31558)"/>
<path d="M13.1479 8.5395L13.148 8.53946L15.3282 7.01255C15.7635 6.70785 15.8657 6.11016 15.5628 5.67684C15.3761 5.40816 15.076 5.26836 14.7754 5.26836C14.5866 5.26836 14.3948 5.32269 14.2255 5.44259L12.0459 6.96901C12.0459 6.96903 12.0459 6.96904 12.0459 6.96905C11.6105 7.27388 11.5083 7.87189 11.8117 8.30523C12.1165 8.74068 12.7145 8.84285 13.1479 8.5395Z" fill="currentColor" stroke="currentColor" stroke-width="0.6"/>
<path d="M20.8307 4.87035C20.8307 5.46361 21.1331 5.98584 21.5886 6.29531V9.60489L13.1783 15.4925L13.1779 15.4927C12.9218 15.6725 12.7703 15.9661 12.7703 16.2796V20.3154C12.7703 20.8469 13.1996 21.2762 13.7311 21.2762C14.2627 21.2762 14.6919 20.8469 14.6919 20.3154V16.7792L23.1022 10.8917L23.1026 10.8914C23.3587 10.7116 23.5102 10.4181 23.5102 10.1046V6.29788C23.9677 5.98889 24.2681 5.46774 24.2681 4.87035C24.2681 3.92065 23.4991 3.15166 22.5494 3.15166C21.5997 3.15166 20.8307 3.92065 20.8307 4.87035Z" fill="currentColor" stroke="currentColor" stroke-width="0.6"/>
<path d="M19.2837 8.90534L19.2841 8.90511C19.5402 8.7253 19.6917 8.43176 19.6917 8.11825V4.11979C19.6917 3.58824 19.2624 3.15898 18.7309 3.15898C18.1993 3.15898 17.7701 3.58823 17.7701 4.11979V7.61867L12.2614 11.4787C12.0695 11.4042 11.8605 11.3612 11.6374 11.3612C10.6877 11.3612 9.91875 12.1302 9.91875 13.0799C9.91875 14.0296 10.6877 14.7986 11.6374 14.7986H11.6412C12.5909 14.7986 13.3599 14.0296 13.3599 13.0799C13.3599 13.0709 13.3598 13.0619 13.3596 13.0529L19.2837 8.90534Z" fill="currentColor" stroke="currentColor" stroke-width="0.6"/>
</svg>
