<svg width="41" height="40" viewBox="0 0 41 40" fill="none" xmlns="http://www.w3.org/2000/svg">
<path d="M37.3312 24.8438H36.5469V24.0703C36.5469 21.9125 34.7906 20.1563 32.6328 20.1563H21.5078V17.8125H27.0945C27.7414 17.8125 28.2664 17.2875 28.2664 16.6406V14.8172C28.2664 12.3195 27.0555 10 25.0852 8.55859C24.1617 9.55313 22.9305 10.257 21.5437 10.5195V12.7781C21.5437 13.425 21.0195 13.95 20.3719 13.95C20.3602 13.95 20.3477 13.95 20.3359 13.9492C19.7055 13.9305 19.2 13.4133 19.2 12.7781V10.532C17.7844 10.2812 16.5266 9.57031 15.5867 8.55859C13.6164 10 12.4055 12.3195 12.4055 14.8172V16.6406C12.4055 17.2875 12.9305 17.8125 13.5773 17.8125H19.1641V20.1563H8.07812C5.92031 20.1563 4.16406 21.9125 4.16406 24.0703V24.8438H3.34062C1.68359 24.8438 0.335938 26.1914 0.335938 27.8484V36.9953C0.335938 38.6523 1.68359 40 3.34062 40H7.25313C8.91016 40 10.2578 38.6523 10.2578 36.9953V27.8484C10.2578 26.1914 8.91016 24.8438 7.25313 24.8438H6.50781V24.0703C6.50781 23.2047 7.2125 22.5 8.07812 22.5H19.1641V24.8438H15.6063C13.9492 24.8438 12.6016 26.1914 12.6016 27.8484V36.9953C12.6016 38.6523 13.9492 40 15.6063 40H25.0656C26.7227 40 28.0703 38.6523 28.0703 36.9953V27.8484C28.0703 26.1914 26.7227 24.8438 25.0656 24.8438H21.5078V22.5H32.6328C33.4984 22.5 34.2031 23.2047 34.2031 24.0703V24.8438H33.4188C31.7617 24.8438 30.4141 26.1914 30.4141 27.8484V36.9953C30.4141 38.6523 31.7617 40 33.4188 40H37.3312C38.9883 40 40.3359 38.6523 40.3359 36.9953V27.8484C40.3359 26.1914 38.9883 24.8438 37.3312 24.8438Z" fill="currentColor"/>
<path d="M20.3391 8.28828C22.6244 8.28828 24.4829 6.42914 24.4829 4.14383C24.4829 1.85914 22.6244 0 20.3391 0C18.0537 0 16.1953 1.85914 16.1953 4.14383C16.1953 6.42914 18.0537 8.28828 20.3391 8.28828Z" fill="currentColor"/>
</svg>
