<svg width="40" height="40" viewBox="0 0 40 40" fill="none" xmlns="http://www.w3.org/2000/svg">
<path d="M18.3346 33.1668V6.8335C18.3346 4.3335 17.268 3.3335 14.618 3.3335H7.88464C5.23464 3.3335 4.16797 4.3335 4.16797 6.8335V33.1668C4.16797 35.6668 5.23464 36.6668 7.88464 36.6668H14.618C17.268 36.6668 18.3346 35.6668 18.3346 33.1668Z" fill="currentColor"/>
<path d="M35.8346 18.1668V6.8335C35.8346 4.3335 34.768 3.3335 32.118 3.3335H25.3846C22.7346 3.3335 21.668 4.3335 21.668 6.8335V18.1668C21.668 20.6668 22.7346 21.6668 25.3846 21.6668H32.118C34.768 21.6668 35.8346 20.6668 35.8346 18.1668Z" fill="currentColor"/>
<path d="M35.8346 33.1667V28.5C35.8346 26 34.768 25 32.118 25H25.3846C22.7346 25 21.668 26 21.668 28.5V33.1667C21.668 35.6667 22.7346 36.6667 25.3846 36.6667H32.118C34.768 36.6667 35.8346 35.6667 35.8346 33.1667Z" fill="currentColor"/>
</svg>
