<svg width="41" height="40" viewBox="0 0 41 40" fill="none" xmlns="http://www.w3.org/2000/svg">
<g clip-path="url(#clip0_1594_1674)">
<path d="M40.105 38.8083L34.707 33.4111C34.5541 33.2574 34.3064 33.2574 34.1528 33.4103L32.9659 34.5971C32.5065 35.0565 31.7634 35.0573 31.3032 34.5971C30.8439 34.1385 30.8439 33.3938 31.3032 32.9345L32.4901 31.7484C32.6437 31.5948 32.6437 31.347 32.4901 31.1934L28.3157 27.0191C28.1621 26.8654 27.9144 26.8654 27.7607 27.0191L26.5747 28.2059C26.1176 28.6629 25.3721 28.6668 24.9112 28.2059C24.4518 27.7465 24.4518 27.0018 24.9112 26.5432L26.0981 25.3564C26.2517 25.2027 26.2517 24.955 26.0981 24.8021L21.9237 20.6278C21.7709 20.4742 21.5231 20.4742 21.3695 20.627L20.1826 21.8139C19.7233 22.2732 18.9809 22.2748 18.52 21.8139C18.0606 21.3553 18.0606 20.6106 18.52 20.1512L19.7068 18.9643C19.8597 18.8107 19.8597 18.563 19.706 18.4101L15.5317 14.2358C15.3788 14.0821 15.1311 14.0821 14.9775 14.2358L13.7906 15.4226C13.3344 15.8804 12.5881 15.8828 12.1279 15.4226C11.6686 14.9633 11.6686 14.2185 12.1279 13.7592L13.3148 12.5731C13.4684 12.4195 13.4684 12.1717 13.3148 12.0181L9.14046 7.84455C8.98759 7.6909 8.73988 7.6909 8.58623 7.84377L7.39939 9.03061C6.94001 9.48998 6.19373 9.4892 5.73671 9.03061C5.27734 8.57124 5.27734 7.8273 5.73671 7.36793L6.92355 6.18109C7.07642 6.02744 7.07642 5.77972 6.92277 5.62686L1.52553 0.228838C1.08184 -0.216424 0.333984 0.10498 0.333984 0.722703V39.7702C0.333984 39.8972 0.436677 39.9999 0.563671 39.9999H39.6111C40.2367 39.9999 40.5456 39.2481 40.105 38.8083ZM24.0364 34.7829H6.72679C6.07771 34.7829 5.55092 34.2561 5.55092 33.6071V16.2975C5.55092 15.2525 6.81929 14.7265 7.55852 15.4657L24.8681 32.7753C25.6073 33.5146 25.0813 34.7829 24.0364 34.7829Z" fill="currentColor"/>
<path d="M7.90234 32.4314H21.1975L7.90234 19.1362V32.4314Z" fill="currentColor"/>
<path d="M15.0581 4.55718L15.5016 4.11372L36.2194 24.8315L35.7759 25.275C35.3167 25.7341 35.3167 26.4787 35.7759 26.9379C36.2351 27.3971 36.9796 27.3971 37.4388 26.9379L39.9886 24.388C40.4479 23.9289 40.4479 23.1844 39.9886 22.7251C39.5295 22.266 38.7849 22.266 38.3257 22.7251L37.8823 23.1686L17.1645 2.45073L17.6079 2.00727C18.0672 1.54813 18.0672 0.803569 17.6079 0.344353C17.1488 -0.114784 16.4042 -0.114784 15.945 0.344353L13.3952 2.89419C12.936 3.35332 12.936 4.09788 13.3952 4.5571C13.8544 5.01639 14.5989 5.01631 15.0581 4.55718Z" fill="currentColor"/>
</g>
<defs>
<clipPath id="clip0_1594_1674">
<rect width="40" height="40" fill="currentColor" transform="translate(0.333984)"/>
</clipPath>
</defs>
</svg>
