<svg width="19" height="24" viewBox="0 0 19 24" fill="none" xmlns="http://www.w3.org/2000/svg">
<path d="M18.2808 14.0517C18.0058 10.4723 16.3393 8.22932 14.8691 6.24998C13.5078 4.41754 12.332 2.83514 12.332 0.500856C12.332 0.313356 12.227 0.141981 12.0605 0.0560595C11.8935 -0.030378 11.6928 -0.0162217 11.541 0.094122C9.33302 1.67409 7.49073 4.33701 6.84719 6.87783C6.40042 8.64675 6.34131 10.6354 6.33302 11.9488C4.29395 11.5132 3.83205 8.46318 3.82717 8.42995C3.8042 8.27175 3.70755 8.13408 3.56692 8.05889C3.42484 7.98468 3.25783 7.97929 3.11378 8.05059C3.00686 8.10234 0.48925 9.38156 0.342765 14.4891C0.3325 14.659 0.332031 14.8295 0.332031 14.9999C0.332031 19.9619 4.36961 23.9992 9.33203 23.9992C9.33887 23.9997 9.34619 24.0007 9.35205 23.9992C9.35402 23.9992 9.35594 23.9992 9.35838 23.9992C14.3086 23.985 18.332 19.9531 18.332 14.9999C18.332 14.7503 18.2808 14.0517 18.2808 14.0517ZM9.33203 22.9993C7.67772 22.9993 6.33203 21.5658 6.33203 19.8037C6.33203 19.7437 6.33156 19.6831 6.33592 19.6089C6.35594 18.8658 6.49708 18.3585 6.65186 18.0211C6.94192 18.6442 7.46045 19.2169 8.30275 19.2169C8.57913 19.2169 8.80277 18.9932 8.80277 18.7169C8.80277 18.0051 8.81744 17.1838 8.99467 16.4426C9.15241 15.7854 9.52933 15.0862 10.0069 14.5258C10.2193 15.2533 10.6334 15.8421 11.0377 16.4167C11.6163 17.2389 12.2144 18.089 12.3194 19.5386C12.3257 19.6245 12.3321 19.711 12.3321 19.8037C12.332 21.5658 10.9863 22.9993 9.33203 22.9993Z" fill="currentColor"/>
</svg>
