<svg width="41" height="40" viewBox="0 0 41 40" fill="none" xmlns="http://www.w3.org/2000/svg">
<mask id="path-1-inside-1_1539_61540" fill="currentColor">
<path d="M38.1641 19.375C38.1641 20.41 37.3241 21.25 36.2891 21.25H5.03906C4.00406 21.25 3.16406 20.41 3.16406 19.375C3.16406 18.34 4.00406 17.5 5.03906 17.5H5.88031C6.70281 12.62 9.88406 8.5475 14.2128 6.4775L14.5953 10.4025C14.6453 10.9175 15.0941 11.305 15.6191 11.245C16.1341 11.195 16.5116 10.7375 16.4616 10.2225L15.8103 3.53C15.7553 2.97125 16.1941 2.5 16.7428 2.5H24.5841C25.1328 2.5 25.5716 2.97125 25.5178 3.52875L24.8666 10.2213C24.8166 10.7362 25.1941 11.1937 25.7091 11.2437C25.7403 11.2487 25.7703 11.25 25.8003 11.25C26.2766 11.25 26.6853 10.8875 26.7328 10.4025L27.1153 6.4775C31.4441 8.54625 34.6253 12.6187 35.4478 17.5H36.2891C37.3241 17.5 38.1641 18.34 38.1641 19.375Z"/>
</mask>
<path d="M38.1641 19.375C38.1641 20.41 37.3241 21.25 36.2891 21.25H5.03906C4.00406 21.25 3.16406 20.41 3.16406 19.375C3.16406 18.34 4.00406 17.5 5.03906 17.5H5.88031C6.70281 12.62 9.88406 8.5475 14.2128 6.4775L14.5953 10.4025C14.6453 10.9175 15.0941 11.305 15.6191 11.245C16.1341 11.195 16.5116 10.7375 16.4616 10.2225L15.8103 3.53C15.7553 2.97125 16.1941 2.5 16.7428 2.5H24.5841C25.1328 2.5 25.5716 2.97125 25.5178 3.52875L24.8666 10.2213C24.8166 10.7362 25.1941 11.1937 25.7091 11.2437C25.7403 11.2487 25.7703 11.25 25.8003 11.25C26.2766 11.25 26.6853 10.8875 26.7328 10.4025L27.1153 6.4775C31.4441 8.54625 34.6253 12.6187 35.4478 17.5H36.2891C37.3241 17.5 38.1641 18.34 38.1641 19.375Z" fill="currentColor"/>
<path d="M5.88031 17.5V33.5H19.4093L21.6578 20.1592L5.88031 17.5ZM14.2128 6.4775L30.1374 4.92561L27.9214 -17.8132L7.31026 -7.957L14.2128 6.4775ZM14.5953 10.4025L30.5204 8.85637L30.5199 8.85061L14.5953 10.4025ZM15.6191 11.245L14.0729 -4.68012L13.9375 -4.66697L13.8023 -4.65152L15.6191 11.245ZM16.4616 10.2225L32.3867 8.67637L32.3863 8.67285L16.4616 10.2225ZM15.8103 3.53L31.7351 1.98035L31.7342 1.97149L31.7334 1.96263L15.8103 3.53ZM25.5178 3.52875L41.4426 5.0784L41.4433 5.07131L41.444 5.06423L25.5178 3.52875ZM24.8666 10.2213L8.94178 8.6716L8.94144 8.67512L24.8666 10.2213ZM25.7091 11.2437L28.2369 -4.5553L27.748 -4.63353L27.2552 -4.68137L25.7091 11.2437ZM26.7328 10.4025L42.6566 11.962L42.6574 11.9544L26.7328 10.4025ZM27.1153 6.4775L34.0145 -7.95862L13.4061 -17.8075L11.1908 4.92562L27.1153 6.4775ZM35.4478 17.5L19.6702 20.1586L21.9183 33.5H35.4478V17.5ZM22.1641 19.375C22.1641 11.5734 28.4875 5.25 36.2891 5.25V37.25C46.1606 37.25 54.1641 29.2466 54.1641 19.375H22.1641ZM36.2891 5.25H5.03906V37.25H36.2891V5.25ZM5.03906 5.25C12.8406 5.25 19.1641 11.5734 19.1641 19.375H-12.8359C-12.8359 29.2466 -4.83249 37.25 5.03906 37.25V5.25ZM19.1641 19.375C19.1641 27.1766 12.8406 33.5 5.03906 33.5V1.5C-4.83249 1.5 -12.8359 9.50344 -12.8359 19.375H19.1641ZM5.03906 33.5H5.88031V1.5H5.03906V33.5ZM21.6578 20.1592C21.5918 20.5504 21.3596 20.7952 21.1154 20.912L7.31026 -7.957C-1.59144 -3.70022 -8.18622 4.68959 -9.89716 14.8408L21.6578 20.1592ZM-1.71175 8.02939L-1.32925 11.9544L30.5199 8.85061L30.1374 4.92561L-1.71175 8.02939ZM-1.32981 11.9486C-0.462429 20.8826 7.55176 28.2711 17.4358 27.1415L13.8023 -4.65152C22.6364 -5.66113 29.7531 0.952361 30.5204 8.85637L-1.32981 11.9486ZM17.1652 27.1701C26.4519 26.2685 33.2929 18.0101 32.3867 8.67637L0.536441 11.7686C-0.269746 3.4649 5.81627 -3.8785 14.0729 -4.68012L17.1652 27.1701ZM32.3863 8.67285L31.7351 1.98035L-0.114467 5.07965L0.536783 11.7721L32.3863 8.67285ZM31.7334 1.96263C32.6166 10.9354 25.5281 18.5 16.7428 18.5V-13.5C6.85999 -13.5 -1.10596 -4.99293 -0.112733 5.09737L31.7334 1.96263ZM16.7428 18.5H24.5841V-13.5H16.7428V18.5ZM24.5841 18.5C15.8071 18.5 8.72791 10.9521 9.59166 1.99327L41.444 5.06423C42.4152 -5.00963 34.4585 -13.5 24.5841 -13.5V18.5ZM9.59303 1.9791L8.94178 8.6716L40.7913 11.7709L41.4426 5.0784L9.59303 1.9791ZM8.94144 8.67512C8.03525 18.0088 14.8763 26.2673 24.1629 27.1689L27.2552 -4.68137C35.5118 -3.87975 41.5979 3.46365 40.7917 11.7674L8.94144 8.67512ZM23.1812 27.0428C24.3783 27.2343 25.3407 27.25 25.8003 27.25V-4.75C26.1999 -4.75 27.1023 -4.73684 28.2369 -4.5553L23.1812 27.0428ZM25.8003 27.25C34.4345 27.25 41.7994 20.7144 42.6566 11.962L10.809 8.84295C11.5712 1.06059 18.1186 -4.75 25.8003 -4.75V27.25ZM42.6574 11.9544L43.0399 8.02938L11.1908 4.92562L10.8083 8.85062L42.6574 11.9544ZM20.2162 20.9136C19.9679 20.795 19.7358 20.5478 19.6702 20.1586L51.2254 14.8414C49.5148 4.68967 42.9202 -3.70249 34.0145 -7.95862L20.2162 20.9136ZM35.4478 33.5H36.2891V1.5H35.4478V33.5ZM36.2891 33.5C28.4875 33.5 22.1641 27.1766 22.1641 19.375H54.1641C54.1641 9.50344 46.1606 1.5 36.2891 1.5V33.5Z" fill="currentColor" mask="url(#path-1-inside-1_1539_61540)"/>
<path d="M37.5391 26.25H35.6641C35.6641 24.8712 34.5428 23.75 33.1641 23.75H8.16406C6.78531 23.75 5.66406 24.8712 5.66406 26.25H3.78906C3.44406 26.25 3.16406 26.53 3.16406 26.875V29.375C3.16406 29.72 3.44406 30 3.78906 30H5.66406V32.5C5.66406 32.8325 5.79531 33.15 6.03031 33.3838L8.53031 35.8838C8.76406 36.1188 9.08281 36.25 9.41406 36.25H16.9141C17.3316 36.25 17.7216 36.0413 17.9541 35.6938C18.8816 34.305 20.1016 32.8987 20.6641 32.5487C21.2266 32.8975 22.4466 34.3038 23.3741 35.6938C23.6066 36.0413 23.9966 36.25 24.4141 36.25H31.9141C32.2453 36.25 32.5641 36.1188 32.7978 35.8838L35.2978 33.3838C35.5328 33.15 35.6641 32.8325 35.6641 32.5V30H37.5391C37.8841 30 38.1641 29.72 38.1641 29.375V26.875C38.1641 26.53 37.8841 26.25 37.5391 26.25ZM33.1641 31.9825L31.3966 33.75H25.0741C23.7941 31.9263 22.1028 30 20.6641 30C19.2253 30 17.5341 31.9263 16.2541 33.75H9.93156L8.16406 31.9825L8.16281 26.25H33.1641V31.9825Z" fill="currentColor"/>
</svg>
