<svg width="41" height="40" viewBox="0 0 41 40" fill="none" xmlns="http://www.w3.org/2000/svg">
<mask id="path-1-inside-1_1539_51318" fill="currentColor">
<path d="M38.168 19.375C38.168 20.41 37.328 21.25 36.293 21.25H5.04297C4.00797 21.25 3.16797 20.41 3.16797 19.375C3.16797 18.34 4.00797 17.5 5.04297 17.5H5.88422C6.70672 12.62 9.88797 8.5475 14.2167 6.4775L14.5992 10.4025C14.6492 10.9175 15.098 11.305 15.623 11.245C16.138 11.195 16.5155 10.7375 16.4655 10.2225L15.8142 3.53C15.7592 2.97125 16.198 2.5 16.7467 2.5H24.588C25.1367 2.5 25.5755 2.97125 25.5217 3.52875L24.8705 10.2213C24.8205 10.7362 25.198 11.1937 25.713 11.2437C25.7442 11.2487 25.7742 11.25 25.8042 11.25C26.2805 11.25 26.6892 10.8875 26.7367 10.4025L27.1192 6.4775C31.448 8.54625 34.6292 12.6187 35.4517 17.5H36.293C37.328 17.5 38.168 18.34 38.168 19.375Z"/>
</mask>
<path d="M38.168 19.375C38.168 20.41 37.328 21.25 36.293 21.25H5.04297C4.00797 21.25 3.16797 20.41 3.16797 19.375C3.16797 18.34 4.00797 17.5 5.04297 17.5H5.88422C6.70672 12.62 9.88797 8.5475 14.2167 6.4775L14.5992 10.4025C14.6492 10.9175 15.098 11.305 15.623 11.245C16.138 11.195 16.5155 10.7375 16.4655 10.2225L15.8142 3.53C15.7592 2.97125 16.198 2.5 16.7467 2.5H24.588C25.1367 2.5 25.5755 2.97125 25.5217 3.52875L24.8705 10.2213C24.8205 10.7362 25.198 11.1937 25.713 11.2437C25.7442 11.2487 25.7742 11.25 25.8042 11.25C26.2805 11.25 26.6892 10.8875 26.7367 10.4025L27.1192 6.4775C31.448 8.54625 34.6292 12.6187 35.4517 17.5H36.293C37.328 17.5 38.168 18.34 38.168 19.375Z" fill="currentColor"/>
<path d="M5.88422 17.5V33.5H19.4132L21.6617 20.1592L5.88422 17.5ZM14.2167 6.4775L30.1413 4.92561L27.9253 -17.8132L7.31417 -7.957L14.2167 6.4775ZM14.5992 10.4025L30.5243 8.85637L30.5238 8.85061L14.5992 10.4025ZM15.623 11.245L14.0768 -4.68012L13.9414 -4.66697L13.8062 -4.65152L15.623 11.245ZM16.4655 10.2225L32.3906 8.67637L32.3902 8.67285L16.4655 10.2225ZM15.8142 3.53L31.739 1.98035L31.7381 1.97149L31.7373 1.96263L15.8142 3.53ZM25.5217 3.52875L41.4465 5.0784L41.4472 5.07131L41.4479 5.06423L25.5217 3.52875ZM24.8705 10.2213L8.94569 8.6716L8.94535 8.67512L24.8705 10.2213ZM25.713 11.2437L28.2408 -4.5553L27.7519 -4.63353L27.2591 -4.68137L25.713 11.2437ZM26.7367 10.4025L42.6605 11.962L42.6613 11.9544L26.7367 10.4025ZM27.1192 6.4775L34.0184 -7.95862L13.4101 -17.8075L11.1947 4.92562L27.1192 6.4775ZM35.4517 17.5L19.6741 20.1586L21.9222 33.5H35.4517V17.5ZM22.168 19.375C22.168 11.5734 28.4914 5.25 36.293 5.25V37.25C46.1645 37.25 54.168 29.2466 54.168 19.375H22.168ZM36.293 5.25H5.04297V37.25H36.293V5.25ZM5.04297 5.25C12.8445 5.25 19.168 11.5734 19.168 19.375H-12.832C-12.832 29.2466 -4.82859 37.25 5.04297 37.25V5.25ZM19.168 19.375C19.168 27.1766 12.8445 33.5 5.04297 33.5V1.5C-4.82859 1.5 -12.832 9.50344 -12.832 19.375H19.168ZM5.04297 33.5H5.88422V1.5H5.04297V33.5ZM21.6617 20.1592C21.5958 20.5504 21.3635 20.7952 21.1193 20.912L7.31417 -7.957C-1.58754 -3.70022 -8.18232 4.68959 -9.89325 14.8408L21.6617 20.1592ZM-1.70784 8.02939L-1.32534 11.9544L30.5238 8.85061L30.1413 4.92561L-1.70784 8.02939ZM-1.3259 11.9486C-0.458522 20.8826 7.55566 28.2711 17.4397 27.1415L13.8062 -4.65152C22.6403 -5.66113 29.757 0.952361 30.5243 8.85637L-1.3259 11.9486ZM17.1691 27.1701C26.4558 26.2685 33.2968 18.0101 32.3906 8.67637L0.540347 11.7686C-0.26584 3.4649 5.82018 -3.8785 14.0768 -4.68012L17.1691 27.1701ZM32.3902 8.67285L31.739 1.98035L-0.110561 5.07965L0.540689 11.7721L32.3902 8.67285ZM31.7373 1.96263C32.6205 10.9354 25.532 18.5 16.7467 18.5V-13.5C6.8639 -13.5 -1.10206 -4.99293 -0.108826 5.09737L31.7373 1.96263ZM16.7467 18.5H24.588V-13.5H16.7467V18.5ZM24.588 18.5C15.811 18.5 8.73182 10.9521 9.59557 1.99327L41.4479 5.06423C42.4191 -5.00963 34.4624 -13.5 24.588 -13.5V18.5ZM9.59694 1.9791L8.94569 8.6716L40.7952 11.7709L41.4465 5.0784L9.59694 1.9791ZM8.94535 8.67512C8.03916 18.0088 14.8802 26.2673 24.1668 27.1689L27.2591 -4.68137C35.5158 -3.87975 41.6018 3.46365 40.7956 11.7674L8.94535 8.67512ZM23.1851 27.0428C24.3822 27.2343 25.3446 27.25 25.8042 27.25V-4.75C26.2038 -4.75 27.1062 -4.73684 28.2408 -4.5553L23.1851 27.0428ZM25.8042 27.25C34.4384 27.25 41.8033 20.7144 42.6605 11.962L10.8129 8.84295C11.5751 1.06059 18.1225 -4.75 25.8042 -4.75V27.25ZM42.6613 11.9544L43.0438 8.02938L11.1947 4.92562L10.8122 8.85062L42.6613 11.9544ZM20.2201 20.9136C19.9718 20.795 19.7397 20.5478 19.6741 20.1586L51.2293 14.8414C49.5187 4.68967 42.9241 -3.70249 34.0184 -7.95862L20.2201 20.9136ZM35.4517 33.5H36.293V1.5H35.4517V33.5ZM36.293 33.5C28.4914 33.5 22.168 27.1766 22.168 19.375H54.168C54.168 9.50344 46.1645 1.5 36.293 1.5V33.5Z" fill="currentColor" mask="url(#path-1-inside-1_1539_51318)"/>
<path d="M37.543 26.25H35.668C35.668 24.8712 34.5467 23.75 33.168 23.75H8.16797C6.78922 23.75 5.66797 24.8712 5.66797 26.25H3.79297C3.44797 26.25 3.16797 26.53 3.16797 26.875V29.375C3.16797 29.72 3.44797 30 3.79297 30H5.66797V32.5C5.66797 32.8325 5.79922 33.15 6.03422 33.3838L8.53422 35.8838C8.76797 36.1188 9.08672 36.25 9.41797 36.25H16.918C17.3355 36.25 17.7255 36.0413 17.958 35.6938C18.8855 34.305 20.1055 32.8987 20.668 32.5487C21.2305 32.8975 22.4505 34.3038 23.378 35.6938C23.6105 36.0413 24.0005 36.25 24.418 36.25H31.918C32.2492 36.25 32.568 36.1188 32.8017 35.8838L35.3017 33.3838C35.5367 33.15 35.668 32.8325 35.668 32.5V30H37.543C37.888 30 38.168 29.72 38.168 29.375V26.875C38.168 26.53 37.888 26.25 37.543 26.25ZM33.168 31.9825L31.4005 33.75H25.078C23.798 31.9263 22.1067 30 20.668 30C19.2292 30 17.538 31.9263 16.258 33.75H9.93547L8.16797 31.9825L8.16672 26.25H33.168V31.9825Z" fill="currentColor"/>
</svg>
