<svg width="24" height="16" viewBox="0 0 24 16" fill="none" xmlns="http://www.w3.org/2000/svg">
<path d="M23.1652 8.94781C22.9965 7.05359 22.7185 6.68469 22.6135 6.54594C22.3721 6.22531 21.9859 6.01578 21.5771 5.79594C21.554 5.78371 21.534 5.76629 21.5188 5.74503C21.5036 5.72378 21.4935 5.69927 21.4894 5.67345C21.4852 5.64763 21.4871 5.62121 21.495 5.59626C21.5028 5.57131 21.5163 5.54852 21.5344 5.52969C21.6101 5.45292 21.6683 5.36067 21.705 5.25928C21.7416 5.15789 21.7559 5.04977 21.7468 4.94234C21.7292 4.75185 21.6406 4.57494 21.4986 4.44669C21.3567 4.31845 21.1717 4.24825 20.9804 4.25H20.2491C20.2178 4.25019 20.1865 4.25222 20.1554 4.25609C20.134 4.24683 20.1119 4.23946 20.0893 4.23406C19.6562 3.31859 19.0632 2.06516 17.8341 1.45344C16.0112 0.546875 12.653 0.5 11.9968 0.5C11.3405 0.5 7.98242 0.546875 6.16179 1.45203C4.93273 2.06375 4.33976 3.31719 3.90664 4.23266L3.90288 4.24016C3.88128 4.24319 3.86007 4.24854 3.8396 4.25609C3.8085 4.25222 3.7772 4.25019 3.74585 4.25H3.0132C2.8219 4.24825 2.63692 4.31845 2.49496 4.44669C2.353 4.57494 2.26442 4.75185 2.24679 4.94234C2.23847 5.04952 2.25338 5.15723 2.29051 5.25811C2.32764 5.359 2.38612 5.45067 2.46195 5.52688C2.48009 5.54571 2.4936 5.5685 2.50143 5.59345C2.50925 5.6184 2.51117 5.64482 2.50704 5.67064C2.5029 5.69646 2.49282 5.72096 2.47759 5.74222C2.46237 5.76348 2.44241 5.7809 2.41929 5.79312C2.01054 6.01437 1.62242 6.22391 1.38288 6.54312C1.27788 6.68375 1.00038 7.05078 0.831166 8.945C0.737416 10.0109 0.723354 11.1144 0.796947 11.825C0.951166 13.3016 1.24039 14.1941 1.25257 14.2311C1.29695 14.3659 1.37865 14.4853 1.48817 14.5755C1.59769 14.6656 1.73055 14.7229 1.87132 14.7406V14.75C1.87132 14.9489 1.95034 15.1397 2.09099 15.2803C2.23164 15.421 2.42241 15.5 2.62132 15.5H5.24632C5.44523 15.5 5.636 15.421 5.77665 15.2803C5.9173 15.1397 5.99632 14.9489 5.99632 14.75C6.39992 14.75 6.6807 14.6778 6.97835 14.6009C7.40809 14.4851 7.84735 14.4081 8.29085 14.3708C9.72101 14.2344 11.1432 14.1875 11.9968 14.1875C12.833 14.1875 14.318 14.2344 15.7505 14.3708C16.1958 14.4082 16.6368 14.4855 17.0682 14.6019C17.3532 14.675 17.6237 14.7425 17.9982 14.7495C17.9982 14.9484 18.0772 15.1392 18.2179 15.2799C18.3585 15.4205 18.5493 15.4995 18.7482 15.4995H21.3732C21.5721 15.4995 21.7629 15.4205 21.9035 15.2799C22.0442 15.1392 22.1232 14.9484 22.1232 14.7495V14.7439C22.2643 14.7265 22.3976 14.6694 22.5074 14.5792C22.6173 14.489 22.6993 14.3694 22.7438 14.2344C22.756 14.1973 23.0452 13.3048 23.1994 11.8283C23.273 11.1172 23.2599 10.0156 23.1652 8.94781ZM5.26226 4.87391C5.63726 4.07703 6.06617 3.17516 6.82976 2.795C7.9332 2.24563 10.2202 1.99812 11.9968 1.99812C13.7734 1.99812 16.0604 2.24375 17.1638 2.795C17.9274 3.17516 18.3544 4.0775 18.7313 4.87391L18.7782 4.97562C18.8056 5.03353 18.8177 5.0975 18.8134 5.16142C18.8091 5.22534 18.7884 5.28708 18.7535 5.34076C18.7185 5.39445 18.6703 5.43827 18.6136 5.46806C18.5569 5.49785 18.4935 5.51261 18.4294 5.51094C16.8718 5.46875 13.5905 5.33375 11.9968 5.33375C10.403 5.33375 7.12179 5.47203 5.56179 5.51422C5.49775 5.51589 5.43434 5.50113 5.37762 5.47134C5.3209 5.44155 5.27276 5.39773 5.23778 5.34405C5.20281 5.29037 5.18218 5.22862 5.17784 5.1647C5.17351 5.10078 5.18563 5.03681 5.21304 4.97891C5.22945 4.94422 5.24679 4.90906 5.26226 4.87391ZM5.82148 8.60656C5.01514 8.70361 4.20364 8.75151 3.39148 8.75C2.8946 8.75 2.38226 8.60937 2.2871 8.16687C2.22195 7.86922 2.22898 7.70188 2.26413 7.53359C2.29367 7.39063 2.34054 7.28656 2.57492 7.25C3.18429 7.15625 3.52507 7.27391 4.52257 7.56781C5.18398 7.76234 5.66117 8.02156 5.93304 8.22687C6.06945 8.32812 5.99679 8.5925 5.82148 8.60656ZM16.1987 12.4503C15.5818 12.5206 14.348 12.4948 12.0109 12.4948C9.67367 12.4948 8.44038 12.5206 7.82351 12.4503C7.18695 12.3795 6.37554 11.7777 6.9296 11.2414C7.29851 10.888 8.15913 10.6236 9.30523 10.475C10.4513 10.3264 10.9365 10.25 12.0062 10.25C13.0759 10.25 13.5118 10.2969 14.7071 10.4755C15.9024 10.6541 16.8057 10.9217 17.0827 11.2419C17.588 11.8156 16.8348 12.3758 16.1987 12.4531V12.4503ZM21.7065 8.16641C21.6127 8.61078 21.0971 8.74953 20.6021 8.74953C19.7744 8.74972 18.9474 8.70183 18.1252 8.60609C17.9818 8.5925 17.9152 8.34078 18.0605 8.22641C18.3282 8.01594 18.8105 7.76188 19.471 7.56734C20.4685 7.27344 21.0437 7.15578 21.5377 7.25375C21.6582 7.27766 21.7219 7.40703 21.7294 7.48813C21.7625 7.71392 21.7547 7.94383 21.7065 8.16687V8.16641Z" fill="currentColor"/>
</svg>
