<svg width="41" height="40" viewBox="0 0 41 40" fill="none" xmlns="http://www.w3.org/2000/svg">
<path d="M26.4781 16.1002V8.2627H17.3219L15.9969 12.0564L18.2281 13.4752L12.6031 19.8564L13.7656 12.9564L11.1594 12.1002L12.9594 8.2627H5.98438V28.7502H17.3969C17.4156 28.7127 17.4344 28.6814 17.4531 28.6502L17.7969 28.0939L24.4031 17.3189C24.8594 16.5564 25.6344 16.1002 26.4781 16.1002Z" fill="currentColor"/>
<path d="M27.4921 17.9688C27.2421 17.5563 26.8608 17.3501 26.4796 17.3501C26.1046 17.3501 25.7171 17.5563 25.4671 17.9688L18.8608 28.7501L18.5171 29.3063C17.8983 30.3126 18.4921 31.7376 19.5296 31.7376H33.4296C34.4671 31.7376 35.0608 30.3126 34.4483 29.3063L27.4921 17.9688ZM25.6046 21.8001C25.6046 21.3188 25.9983 20.9251 26.4796 20.9251C26.9671 20.9251 27.3608 21.3188 27.3608 21.8001V25.4063C27.3608 25.8938 26.9671 26.2876 26.4796 26.2876C25.9983 26.2876 25.6046 25.8938 25.6046 25.4063V21.8001ZM26.4796 29.9313C25.9108 29.9313 25.4483 29.4688 25.4483 28.9001C25.4483 28.3251 25.9108 27.8688 26.4796 27.8688C27.0483 27.8688 27.5108 28.3251 27.5108 28.9001C27.5108 29.4688 27.0483 29.9313 26.4796 29.9313Z" fill="currentColor"/>
</svg>
