<svg width="41" height="40" viewBox="0 0 41 40" fill="none" xmlns="http://www.w3.org/2000/svg">
<path d="M29.8818 12.9502C29.7651 12.9335 29.6484 12.9335 29.5318 12.9502C26.9484 12.8668 24.8984 10.7502 24.8984 8.15016C24.8984 5.50016 27.0484 3.3335 29.7151 3.3335C32.3651 3.3335 34.5318 5.4835 34.5318 8.15016C34.5151 10.7502 32.4651 12.8668 29.8818 12.9502Z" fill="currentColor"/>
<path d="M35.3115 24.5002C33.4448 25.7502 30.8281 26.2169 28.4115 25.9002C29.0448 24.5335 29.3781 23.0169 29.3948 21.4169C29.3948 19.7502 29.0281 18.1669 28.3281 16.7835C30.7948 16.4502 33.4115 16.9169 35.2948 18.1669C37.9281 19.9002 37.9281 22.7502 35.3115 24.5002Z" fill="currentColor"/>
<path d="M11.399 12.9502C11.5156 12.9335 11.6323 12.9335 11.749 12.9502C14.3323 12.8668 16.3823 10.7502 16.3823 8.15016C16.3823 5.4835 14.2323 3.3335 11.5656 3.3335C8.91562 3.3335 6.76562 5.4835 6.76562 8.15016C6.76562 10.7502 8.81562 12.8668 11.399 12.9502Z" fill="currentColor"/>
<path d="M11.5839 21.4167C11.5839 23.0333 11.9339 24.5667 12.5672 25.95C10.2172 26.2 7.76719 25.7 5.96719 24.5167C3.33385 22.7667 3.33385 19.9167 5.96719 18.1667C7.75052 16.9667 10.2672 16.4833 12.6339 16.75C11.9505 18.15 11.5839 19.7333 11.5839 21.4167Z" fill="currentColor"/>
<path d="M20.8641 26.45C20.7307 26.4333 20.5807 26.4333 20.4307 26.45C17.3641 26.35 14.9141 23.8333 14.9141 20.7333C14.9307 17.5667 17.4807 15 20.6641 15C23.8307 15 26.3974 17.5667 26.3974 20.7333C26.3807 23.8333 23.9474 26.35 20.8641 26.45Z" fill="currentColor"/>
<path d="M15.45 29.8999C12.9333 31.5832 12.9333 34.3499 15.45 36.0166C18.3167 37.9332 23.0167 37.9332 25.8833 36.0166C28.4 34.3332 28.4 31.5666 25.8833 29.8999C23.0333 27.9832 18.3333 27.9832 15.45 29.8999Z" fill="currentColor"/>
</svg>
