<svg width="41" height="40" viewBox="0 0 41 40" fill="none" xmlns="http://www.w3.org/2000/svg">
<path d="M34.4381 14.6364V13.8242C35.4744 13.5818 36.2563 12.6545 36.2563 11.5454C36.2563 10.2606 35.2017 9.20605 33.9108 9.20605C32.6259 9.20605 31.5714 10.2606 31.5714 11.5454C31.5714 12.6121 32.2866 13.503 33.2623 13.7818V14.6364C33.2623 15.2182 32.7835 15.697 32.2017 15.697H25.6562V16.8727H32.2017C33.432 16.8727 34.4381 15.8667 34.4381 14.6364Z" fill="currentColor"/>
<path d="M29.9714 9.15129V8.33917C31.0078 8.09675 31.7896 7.16947 31.7896 6.06038C31.7896 4.77554 30.735 3.72705 29.4441 3.72705C28.1593 3.72705 27.1047 4.77554 27.1047 6.06038C27.1047 7.12705 27.8199 8.01796 28.7956 8.29675V9.15129C28.7956 9.73311 28.3169 10.2119 27.735 10.2119H25.6562V11.3877H27.735C28.9653 11.3877 29.9714 10.3816 29.9714 9.15129Z" fill="currentColor"/>
<path d="M34.432 29.3632V28.5511C34.432 27.3208 33.4259 26.3208 32.2017 26.3208H25.6562V27.4966H32.2017C32.7835 27.4966 33.2623 27.9753 33.2623 28.5572V29.4117C32.2866 29.6966 31.5714 30.5875 31.5714 31.6481C31.5714 32.9329 32.6259 33.9875 33.9108 33.9875C35.2017 33.9875 36.2563 32.9329 36.2563 31.6481C36.2441 30.5329 35.4623 29.6056 34.432 29.3632Z" fill="currentColor"/>
<path d="M28.9775 33.2788V32.4666C28.9775 31.2303 27.9775 30.2363 26.7472 30.2363H25.6562V31.4121H26.7472C27.329 31.4121 27.8078 31.8848 27.8078 32.4727V33.3212C26.8381 33.6121 26.1229 34.4969 26.1229 35.5636C26.1229 36.8485 27.1714 37.8969 28.4563 37.8969C29.7472 37.8969 30.8017 36.8485 30.8017 35.5636C30.7896 34.4485 30.0138 33.5212 28.9775 33.2788Z" fill="currentColor"/>
<path d="M33.8381 23.9332C35.129 23.9332 36.1835 22.8786 36.1835 21.5877C36.1835 20.3029 35.129 19.2544 33.8381 19.2544C32.7593 19.2544 31.8441 19.9998 31.5896 21.0059H25.6562V22.1817H31.5896C31.8502 23.1877 32.7532 23.9332 33.8381 23.9332Z" fill="currentColor"/>
<path d="M19.357 2.10889C16.557 2.10889 14.2842 4.38161 14.2842 7.2301C14.2842 7.52101 14.3327 7.81192 14.3812 8.09677C13.8479 7.90283 13.2721 7.80586 12.6418 7.80586C9.84181 7.80586 7.56908 10.0786 7.56908 12.9271C7.56908 13.2301 7.59938 13.521 7.65393 13.8119C7.65999 13.818 7.67211 13.824 7.67817 13.8301C8.53878 14.7392 9.70848 15.2362 10.9691 15.2362C11.2964 15.2362 11.557 15.4968 11.557 15.824C11.557 16.1513 11.2964 16.4119 10.9691 16.4119C9.65999 16.4119 8.42969 15.9756 7.42363 15.1816C5.65393 15.9695 4.42969 17.7392 4.42969 19.7937C4.42969 22.1634 6.07211 24.1877 8.29635 24.721C7.81151 25.4968 7.56908 26.3634 7.56908 27.3271C7.56908 30.0786 9.84181 32.3998 12.6418 32.3998C12.8964 32.3998 13.1509 32.3756 13.4054 32.3392C13.9933 30.5574 15.4176 29.1877 17.2297 28.6846C16.5085 27.9937 15.9751 27.1089 15.7024 26.1149C15.1751 26.5513 14.5327 26.8665 13.8054 27.0059C13.7691 27.0119 13.7327 27.018 13.6964 27.018C13.4176 27.018 13.1751 26.824 13.1206 26.5392C13.06 26.218 13.2661 25.9149 13.5873 25.8483C14.4176 25.6907 15.0964 25.2059 15.5327 24.5574C15.557 24.4665 15.5994 24.3877 15.6661 24.321C15.9873 23.7392 16.1267 23.0483 16.0054 22.3271C15.9509 22.0059 16.1691 21.7028 16.4903 21.6483C16.8115 21.5937 17.1145 21.8119 17.1691 22.1331C17.3388 23.1392 17.1509 24.1089 16.6964 24.9271C16.86 27.2725 18.7994 29.0786 21.1994 29.0786C21.5267 29.0786 21.7873 29.3392 21.7873 29.6665C21.7873 29.9937 21.5267 30.2543 21.1994 30.2543C20.266 30.2543 19.3873 30.0362 18.6115 29.6483C16.4782 29.721 14.763 31.2543 14.3751 33.2907C14.7994 35.6665 16.866 37.4725 19.363 37.4725C22.163 37.4725 24.4842 35.1998 24.4842 32.3998V19.4543C24.3388 19.4665 24.1933 19.4846 24.0539 19.4846C23.2782 19.4846 22.5145 19.2786 21.8236 18.8846C21.0115 18.4119 20.3812 17.7089 19.9994 16.8604C19.3206 17.2543 18.557 17.4604 17.757 17.4604C17.6782 17.4604 17.5994 17.4604 17.5206 17.4543C17.1933 17.4362 16.9448 17.1634 16.963 16.8362C16.9812 16.5089 17.26 16.2665 17.5812 16.2786C18.46 16.321 19.3085 16.024 19.963 15.4422C20.6236 14.8543 21.0115 14.0362 21.0539 13.1453C21.0721 12.818 21.357 12.5695 21.6721 12.5877C21.9933 12.6059 22.2479 12.8786 22.2297 13.2059C22.1751 14.3089 21.7267 15.321 20.9751 16.0968C21.2357 16.8422 21.7327 17.4665 22.4176 17.8604C23.0479 18.224 23.7691 18.3574 24.4903 18.2604V7.2301C24.4782 4.37555 22.157 2.10889 19.357 2.10889Z" fill="currentColor"/>
</svg>
