<svg width="110" height="30" viewBox="0 0 110 30" fill="none" xmlns="http://www.w3.org/2000/svg">
<g clip-path="url(#clip0_973_47063)">
<path d="M33.5429 6.40962C34.014 6.40318 34.4666 6.59556 34.7914 6.94038C35.132 7.28031 35.32 7.74629 35.3114 8.22981C35.32 8.70793 35.134 9.16872 34.7971 9.50481C34.4774 9.84617 34.0311 10.0375 33.5657 10.0327C33.0909 10.0394 32.6349 9.84473 32.3086 9.49615C31.9671 9.15084 31.7794 8.68018 31.7886 8.19231C31.7886 7.2116 32.5743 6.41567 33.5457 6.4125L33.5429 6.40962ZM32.16 12.4817H34.9257V24.124H32.16V12.4817ZM44.1886 14.325L42.4743 16.0558C41.7771 15.3519 41.1429 15 40.5714 15C40.3137 14.9849 40.058 15.0547 39.8429 15.199C39.6791 15.3101 39.5806 15.496 39.58 15.6952C39.5809 15.8499 39.6403 15.9984 39.7457 16.1106C39.992 16.3283 40.2706 16.5055 40.5714 16.6356L41.5857 17.1462C42.6523 17.6789 43.3857 18.2212 43.7857 18.7731C44.7397 20.1608 44.5351 22.0463 43.3057 23.1923C42.5857 23.8538 41.6209 24.1846 40.4114 24.1846C38.8997 24.2268 37.464 23.516 36.5714 22.2837L38.2857 20.4115C38.606 20.7896 38.9937 21.1037 39.4286 21.3375C39.776 21.5464 40.1677 21.6681 40.5714 21.6923C40.8871 21.7083 41.1986 21.6147 41.4543 21.4269C41.6569 21.2881 41.7811 21.0596 41.7886 20.8125C41.7886 20.3817 41.3866 19.9625 40.5829 19.5548L39.6514 19.0846C37.8686 18.1769 36.9771 17.0414 36.9771 15.6779C36.9706 14.8132 37.3389 13.989 37.9857 13.4221C38.6909 12.786 39.6123 12.45 40.5571 12.4846C41.9886 12.4767 43.3374 13.1608 44.1857 14.325H44.1886ZM57.0743 15.0202L54.7714 16.2981C54.4129 15.8953 53.9763 15.5713 53.4886 15.3462C53.0154 15.1599 52.5106 15.0697 52.0029 15.0808C51.0754 15.0399 50.1706 15.3766 49.4914 16.0154C48.8497 16.6399 48.5006 17.5102 48.5314 18.4096C48.5034 19.2757 48.8386 20.1135 49.4543 20.7173C50.108 21.3395 50.9823 21.6701 51.88 21.6346C53.118 21.6346 54.082 21.2086 54.7714 20.3567L56.9543 21.8654C55.7714 23.4173 54.1029 24.1933 51.9486 24.1933C50.0094 24.1933 48.4914 23.6163 47.3943 22.4625C46.1131 21.1625 45.5189 19.3261 45.792 17.5133C46.0654 15.7003 47.174 14.1257 48.78 13.2692C49.7706 12.7375 50.8783 12.4667 52 12.4817C53.0206 12.4651 54.0309 12.6914 54.9486 13.1423C55.8046 13.5745 56.5363 14.221 57.0743 15.0202ZM63.8886 12.4817C64.9183 12.4787 65.9306 12.7504 66.8229 13.2692C68.6306 14.2951 69.746 16.2294 69.7371 18.3231C69.7417 19.3567 69.4746 20.373 68.9629 21.2683C68.4669 22.1634 67.7391 22.9053 66.8571 23.4144C65.9594 23.9311 64.942 24.1979 63.9086 24.1875C62.3831 24.2107 60.9169 23.5932 59.86 22.4827C58.7611 21.3943 58.1546 19.8972 58.1829 18.3433C58.1686 15.136 60.7206 12.5182 63.8971 12.4817H63.8886ZM63.9343 15.1125C63.1243 15.0936 62.3443 15.4228 61.7886 16.0183C61.2106 16.6421 60.9023 17.4723 60.9314 18.326C60.896 19.1944 61.2046 20.0413 61.7886 20.6798C62.3434 21.2759 63.1246 21.6035 63.9343 21.5798C64.7511 21.6022 65.5386 21.2704 66.0971 20.6683C66.6803 20.0338 66.9889 19.1908 66.9543 18.326C66.9874 17.4657 66.6789 16.6276 66.0971 15.9981C65.534 15.4055 64.7471 15.0834 63.9343 15.1125ZM71.4286 12.7702H74.2257V18.1298C74.19 18.8613 74.2611 19.5942 74.4371 20.3048C74.5611 20.6853 74.8011 21.0165 75.1228 21.251C75.4654 21.4845 75.8726 21.6026 76.2857 21.5885C76.7017 21.6023 77.1117 21.4865 77.46 21.2567C77.7963 21.0163 78.0474 20.6737 78.1771 20.2788C78.2914 19.9577 78.3486 19.2721 78.3486 18.2221V12.7702H81.1143V17.4865C81.1143 19.4308 80.962 20.7606 80.6571 21.476C80.3271 22.3029 79.7537 23.0077 79.0143 23.4952C78.1811 23.9917 77.2237 24.2352 76.2571 24.1962C75.0477 24.1962 74.0694 23.9231 73.3229 23.3769C72.5637 22.8119 72.0103 22.0099 71.7486 21.0952C71.5351 20.4144 71.4286 19.1836 71.4286 17.4029V12.7702ZM82.9457 12.7702H85.3171V14.1721C85.5363 13.6655 85.8906 13.2302 86.34 12.9144C86.7523 12.6323 87.2391 12.4825 87.7371 12.4846C88.1291 12.4928 88.5143 12.5915 88.8628 12.7731L88.0057 15.1788C87.7603 15.0382 87.4871 14.9545 87.2057 14.9337C86.7791 14.9337 86.4191 15.2 86.1257 15.7327C85.8323 16.2654 85.6857 17.3086 85.6857 18.8625V23.9019H82.94L82.9457 12.7702ZM96.6943 14.325L94.98 16.0558C94.2849 15.3519 93.6534 15 93.0857 15C92.828 14.9849 92.5723 15.0547 92.3571 15.199C92.1934 15.3101 92.0948 15.496 92.0943 15.6952C92.0951 15.8499 92.1546 15.9984 92.26 16.1106C92.5069 16.3251 92.7854 16.4993 93.0857 16.6269L94.1 17.1375C95.1666 17.6702 95.9 18.2125 96.3 18.7644C97.2528 20.1525 97.0483 22.037 95.82 23.1837C95.1 23.8452 94.1351 24.176 92.9257 24.176C91.4094 24.2213 89.9686 23.509 89.0743 22.2721L90.7886 20.4C91.1089 20.7782 91.4963 21.0923 91.9314 21.326C92.2843 21.5364 92.6823 21.6572 93.0914 21.6779C93.4071 21.6939 93.7186 21.6002 93.9743 21.4125C94.1643 21.2718 94.2791 21.0503 94.2857 20.8125C94.2857 20.3817 93.8837 19.9625 93.08 19.5548L92.1486 19.0846C90.3657 18.1769 89.4743 17.0414 89.4743 15.6779C89.4677 14.8132 89.836 13.989 90.4828 13.4221C91.188 12.7863 92.1094 12.4503 93.0543 12.4846C94.4857 12.4767 95.8346 13.1608 96.6829 14.325H96.6943ZM109.834 19.1423H100.949C101.047 19.8784 101.414 20.5511 101.977 21.0288C102.583 21.5127 103.34 21.7614 104.111 21.7298C105.11 21.7451 106.072 21.3505 106.777 20.6365L109.109 21.7413C108.58 22.5268 107.861 23.1624 107.02 23.5875C106.115 24.0062 105.127 24.2105 104.131 24.1846C102.402 24.1846 100.993 23.6337 99.9057 22.5317C98.8263 21.437 98.2403 19.9422 98.2857 18.3981C98.2371 16.8233 98.824 15.2962 99.9114 14.1663C100.977 13.0522 102.458 12.4419 103.991 12.4846C105.727 12.4846 107.139 13.0452 108.229 14.1663C109.318 15.2875 109.862 16.7692 109.86 18.6115L109.834 19.1423ZM107.069 16.9413C106.893 16.3295 106.516 15.7963 106 15.4298C105.453 15.0413 104.797 14.8392 104.129 14.8529C103.399 14.839 102.684 15.0693 102.097 15.5077C101.647 15.8972 101.299 16.3925 101.083 16.95L107.069 16.9413ZM14.82 0C6.77428 0 0 6.58558 0 14.7115V29.9452L14.8171 29.9308C22.8629 29.9308 29.3886 23.0913 29.3886 14.9683C29.3886 6.84519 22.8571 0 14.82 0Z" fill="currentColor"/>
<path d="M14.963 5.69434C11.7807 5.69624 8.83407 7.38836 7.20593 10.1489C5.57782 12.9095 5.5083 16.3312 7.02296 19.1568L5.38867 24.4645L11.2572 23.1261C14.6178 24.6547 18.5613 23.9681 21.2206 21.3914C23.88 18.8147 24.7216 14.8649 23.347 11.412C21.9724 7.95919 18.6574 5.69615 14.9715 5.69434H14.963Z" fill="#FFF9AE"/>
<path d="M22.0251 20.4559C19.4597 23.7232 15.0257 24.8168 11.2572 23.1115L5.38867 24.4673L11.363 23.7548C15.3235 26.0972 20.3944 25.0666 23.1488 21.3595C25.9032 17.6524 25.4643 12.4488 22.1287 9.26538C24.6331 12.5805 24.5904 17.1886 22.0251 20.4559Z" fill="#00AEEF"/>
<path d="M21.5198 18.7238C19.3065 22.2436 15.0099 23.7986 11.0858 22.5001L5.38867 24.4674L11.2572 23.126C15.4368 25.0322 20.3678 23.4719 22.7221 19.4982C25.0764 15.5246 24.106 10.4002 20.4658 7.58374C23.2992 10.6168 23.7332 15.2041 21.5198 18.7238Z" fill="#00A94F"/>
<path d="M7.56296 19.3587C5.92733 15.3781 7.27524 10.785 10.7946 8.34648C14.314 5.908 19.0438 6.29007 22.1344 9.26252C19.272 5.47008 13.999 4.54438 10.0367 7.13872C6.07444 9.73303 4.76081 14.9713 7.02296 19.1567L5.38867 24.4644L7.56296 19.3587Z" fill="#F15D22"/>
<path d="M7.02254 19.1566C4.99302 15.3719 5.86105 10.6698 9.10474 7.87722C12.3484 5.08471 17.0844 4.96228 20.4654 7.58356C17.2222 4.13576 11.8991 3.78291 8.23725 6.77302C4.57537 9.76315 3.80405 15.0923 6.4654 19.0153L5.39111 24.4672L7.02254 19.1566Z" fill="#D0232B"/>
</g>
<defs>
<clipPath id="clip0_973_47063">
<rect width="110" height="30" fill="white"/>
</clipPath>
</defs>
</svg>
