<svg width="100" height="24" viewBox="0 0 100 24" fill="none" xmlns="http://www.w3.org/2000/svg">
<g clip-path="url(#clip0_973_47305)">
<path d="M6.91519 15.758C10.2866 15.758 11.6017 13.6993 11.6017 10.1769C11.6017 6.65527 10.0638 4.19978 7.01398 4.19978H3.5959V15.758H6.91519ZM0 1.12469H7.4605C12.196 1.12469 15.2458 4.94425 15.2458 10.1769C15.2458 13.0536 14.2785 15.5842 12.4189 17.1466C11.1046 18.2372 9.3936 18.8576 7.16256 18.8576H0V1.12469ZM25.5159 12.5091C25.5159 10.0283 24.351 8.34178 22.293 8.34178C20.2097 8.34178 19.0685 10.0283 19.0685 12.5091C19.0685 14.9891 20.2097 16.6503 22.293 16.6503C24.351 16.6503 25.5159 14.9891 25.5159 12.5091ZM15.6473 12.5091C15.6473 8.71402 18.3502 5.78751 22.293 5.78751C26.2351 5.78751 28.9379 8.71402 28.9379 12.5091C28.9379 16.3026 26.2351 19.2299 22.293 19.2299C18.3494 19.2299 15.6465 16.3033 15.6465 12.5091H15.6473ZM29.4951 12.5091C29.4951 8.71402 31.9751 5.78751 35.8428 5.78751C39.1416 5.78751 41.1742 7.69768 41.6208 10.4503H38.3228C38.0999 9.33441 37.2322 8.49036 35.9922 8.49036C33.9587 8.49036 32.9179 10.0536 32.9179 12.5091C32.9179 14.9148 33.8844 16.527 35.9424 16.527C37.3065 16.527 38.2738 15.8078 38.4967 14.3695H41.7448C41.522 17.0723 39.4134 19.2299 36.0167 19.2299C32.0004 19.2299 29.4951 16.3033 29.4951 12.5091ZM50.5252 18.8584V17.3703H50.4509C49.5831 18.536 48.5913 19.2054 46.806 19.2054C43.979 19.2054 42.3921 17.3955 42.3921 14.6168V6.13445H45.7391V14.0462C45.7391 15.5344 46.4092 16.3531 47.8468 16.3531C49.4337 16.3531 50.4011 15.1629 50.4011 13.4764V6.13445H53.7733V18.8584H50.5252ZM70.203 18.8584H73.5745V6.13445H70.203V18.8584ZM70.203 4.35626H73.5745V1.20293H70.203V4.35626ZM83.8754 11.9377C83.8754 10.0781 82.8835 8.49115 80.8501 8.49115C79.139 8.49115 77.9986 9.82993 77.9986 11.963C77.9986 14.1205 79.139 15.3858 80.8754 15.3858C83.0076 15.3858 83.8754 13.8234 83.8754 11.9385V11.9377ZM74.9733 19.2299H78.3195C78.5929 20.0233 79.3113 20.6437 80.8738 20.6437C82.7831 20.6437 83.7007 19.7262 83.7007 17.9899V16.6005H83.6264C82.8819 17.4438 81.9154 18.0886 80.3032 18.0886C77.477 18.0886 74.6999 15.8568 74.6999 12.0128C74.6999 8.2177 76.9807 5.78751 80.2044 5.78751C81.7913 5.78751 82.9562 6.40711 83.7252 7.47402H83.775V6.13445H87.0231V17.8903C87.0231 19.6764 86.4525 20.8911 85.5105 21.7596C84.4436 22.7515 82.8076 23.198 80.9236 23.198C77.4517 23.198 75.3195 21.7098 74.9725 19.2299H74.9733ZM91.7682 7.87076H91.8424C92.7102 6.50669 93.8759 5.78751 95.6114 5.78751C98.24 5.78751 100 7.77118 100 10.5491V18.8576H96.6278V11.0454C96.6278 9.68135 95.8343 8.71402 94.4212 8.71402C92.9331 8.71402 91.8424 9.90422 91.8424 11.6405V18.8576H88.4702V6.13445H91.7682V7.87076ZM62.5181 8.16791C59.8895 7.59889 58.6495 7.17687 58.6495 5.73772C58.6495 4.47323 59.914 3.65447 61.8487 3.65447C63.6134 3.65447 64.9625 4.48271 65.2391 6.13445H68.6975C68.3458 2.69108 65.7907 0.802246 61.8732 0.802246C57.9311 0.802246 55.0789 2.61284 55.0789 6.10995C55.0789 9.80543 57.9801 10.6487 61.154 11.3679C63.8569 11.9883 65.5434 12.3352 65.5434 14.0707C65.5434 15.7082 63.9311 16.3531 62.0968 16.3531C59.5679 16.3531 58.3524 15.5099 58.1042 13.3768H54.5834C54.7075 17.1221 57.4348 19.2544 62.2454 19.2544C66.2373 19.2544 69.1385 17.2462 69.1385 13.6495C69.1385 9.82993 66.163 8.96217 62.5181 8.16791Z" fill="currentColor"/>
</g>
<defs>
<clipPath id="clip0_973_47305">
<rect width="100" height="22.84" fill="currentColor" transform="translate(0 0.580078)"/>
</clipPath>
</defs>
</svg>
