<svg width="40" height="40" viewBox="0 0 40 40" fill="none" xmlns="http://www.w3.org/2000/svg">
<path fill-rule="evenodd" clip-rule="evenodd" d="M34.9987 12.9168C36.6087 12.9168 37.9154 11.6135 37.9154 10.0002V5.00016C37.9154 3.38683 36.6087 2.0835 34.9987 2.0835H29.9987C28.3887 2.0835 27.082 3.38683 27.082 5.00016V10.0002C27.082 11.6135 28.3887 12.9168 29.9987 12.9168H34.9987Z" fill="currentColor"/>
<path fill-rule="evenodd" clip-rule="evenodd" d="M34.9987 25.4168C36.6087 25.4168 37.9154 24.1135 37.9154 22.5002V17.5002C37.9154 15.8868 36.6087 14.5835 34.9987 14.5835H29.9987C28.3887 14.5835 27.082 15.8868 27.082 17.5002V22.5002C27.082 24.1135 28.3887 25.4168 29.9987 25.4168H34.9987Z" fill="currentColor"/>
<path fill-rule="evenodd" clip-rule="evenodd" d="M34.9987 37.9168C36.6087 37.9168 37.9154 36.6135 37.9154 35.0002V30.0002C37.9154 28.3868 36.6087 27.0835 34.9987 27.0835H29.9987C28.3887 27.0835 27.082 28.3868 27.082 30.0002V35.0002C27.082 36.6135 28.3887 37.9168 29.9987 37.9168H34.9987Z" fill="currentColor"/>
<path fill-rule="evenodd" clip-rule="evenodd" d="M19.582 21.25H28.332C29.022 21.25 29.582 20.69 29.582 20C29.582 19.31 29.022 18.75 28.332 18.75H19.582C18.892 18.75 18.332 19.31 18.332 20C18.332 20.69 18.892 21.25 19.582 21.25Z" fill="currentColor"/>
<path fill-rule="evenodd" clip-rule="evenodd" d="M25.4141 32.0835V9.5835H28.3307C29.0207 9.5835 29.5807 9.0235 29.5807 8.3335C29.5807 7.6435 29.0207 7.0835 28.3307 7.0835H24.9974C23.8474 7.0835 22.9141 8.01683 22.9141 9.16683V32.5002C22.9141 33.6502 23.8474 34.5835 24.9974 34.5835H28.3307C29.0207 34.5835 29.5807 34.0235 29.5807 33.3335C29.5807 32.6435 29.0207 32.0835 28.3307 32.0835H25.4141Z" fill="currentColor"/>
<path fill-rule="evenodd" clip-rule="evenodd" d="M20.832 27V13.3967C20.832 12.7383 20.5554 12.1117 20.0687 11.67C18.9937 10.6933 15.787 7.77667 14.7737 6.85667C14.3454 6.46667 13.7854 6.25 13.2054 6.25C11.9237 6.25 7.99703 6.25 5.4987 6.25C4.59203 6.25 3.7237 6.61 3.08203 7.25C2.44203 7.89167 2.08203 8.76 2.08203 9.66667V27C2.08203 27.9067 2.44203 28.775 3.08203 29.4167C3.7237 30.0567 4.59203 30.4167 5.4987 30.4167H17.4154C18.322 30.4167 19.1904 30.0567 19.832 29.4167C20.472 28.775 20.832 27.9067 20.832 27ZM12.0837 8.75333C12.307 8.78 12.517 8.875 12.6854 9.02833C13.6987 9.94833 16.9054 12.8633 17.9787 13.84C18.1904 14.0317 18.3154 14.2967 18.332 14.58H12.6254C12.482 14.58 12.3437 14.5233 12.242 14.4217C12.1404 14.32 12.0837 14.1817 12.0837 14.0383V8.75333Z" fill="currentColor"/>
</svg>
