<svg width="75" height="30" viewBox="0 0 75 30" fill="none" xmlns="http://www.w3.org/2000/svg">
<g clip-path="url(#clip0_973_47064)">
<path d="M9.717 6.55933C4.43057 6.55933 0.0253906 8.79605 0.0253906 15.5442C0.0253906 20.8901 2.98756 24.2567 9.8535 24.2567C17.935 24.2567 18.4531 18.9475 18.4531 18.9475H14.5372C14.5372 18.9475 13.6976 21.8063 9.61463 21.8063C6.28914 21.8063 3.89733 19.5659 3.89733 16.4257H18.8626V14.4551C18.8626 11.3484 16.8851 6.55933 9.717 6.55933ZM9.5805 9.0778C12.746 9.0778 14.9041 11.0118 14.9041 13.9106H3.98394C3.98394 10.8332 6.80074 9.0778 9.5805 9.0778Z" fill="#E53238"/>
<path d="M18.8601 0.0249023V20.8679C18.8601 22.051 18.7754 23.7122 18.7754 23.7122H22.5103C22.5103 23.7122 22.6444 22.5191 22.6444 21.4287C22.6444 21.4287 24.4897 24.3078 29.5072 24.3078C34.7908 24.3078 38.3798 20.6494 38.3798 15.408C38.3798 10.5321 35.0832 6.61038 29.5157 6.61038C24.3022 6.61038 22.6821 9.41814 22.6821 9.41814V0.0249023H18.8601ZM28.5517 9.18842C32.1397 9.18842 34.4212 11.8442 34.4212 15.408C34.4212 19.2296 31.7861 21.7297 28.5773 21.7297C24.7478 21.7297 22.6821 18.7478 22.6821 15.4421C22.6821 12.3618 24.5357 9.18842 28.5517 9.18842Z" fill="#0064D2"/>
<path d="M47.6604 6.55933C39.7073 6.55933 39.1973 10.9023 39.1973 11.5963H43.1558C43.1558 11.5963 43.3634 9.06079 47.3874 9.06079C50.0022 9.06079 52.0284 10.2544 52.0284 12.5492V13.366H47.3874C41.226 13.366 37.9688 15.1636 37.9688 18.8114C37.9688 22.4013 40.9784 24.3546 45.0455 24.3546C50.5884 24.3546 52.3739 21.3001 52.3739 21.3001C52.3739 22.515 52.4679 23.7122 52.4679 23.7122H55.987C55.987 23.7122 55.8505 22.2282 55.8505 21.2788V13.0725C55.8505 7.69171 51.4986 6.55933 47.6604 6.55933ZM52.0284 15.8164V16.9055C52.0284 18.3259 51.1495 21.8574 45.9754 21.8574C43.1421 21.8574 41.9273 20.4471 41.9273 18.8114C41.9273 15.8356 46.0182 15.8164 52.0284 15.8164Z" fill="#F5AF02"/>
<path d="M53.7207 7.24072H58.1741L64.5653 20.0106L70.9418 7.24072H74.9759L63.3611 29.9751H59.1296L62.4812 23.6376L53.7207 7.24072Z" fill="#86B817"/>
</g>
<defs>
<clipPath id="clip0_973_47064">
<rect width="75" height="30" fill="white"/>
</clipPath>
</defs>
</svg>
