<svg width="40" height="40" viewBox="0 0 40 40" fill="none" xmlns="http://www.w3.org/2000/svg">
<path d="M16.0193 34.5835C8.98594 34.4502 2.08594 32.3168 2.08594 28.3335V23.2335C5.0026 25.6168 9.86927 26.8335 15.0026 27.0502C14.5403 27.6963 14.2438 28.4461 14.1392 29.2337C14.0346 30.0212 14.125 30.8224 14.4026 31.5668C14.8006 32.6418 15.3446 33.6568 16.0193 34.5835ZM16.6693 17.0835C10.9693 17.0835 5.2526 15.8668 2.08594 13.2335V18.3335C2.08594 21.9668 7.8526 24.0668 14.2026 24.5002C13.9952 23.5895 14.0649 22.6376 14.4026 21.7668C14.9481 20.3912 15.7136 19.1134 16.6693 17.9835C16.9539 17.6227 17.2977 17.3127 17.6859 17.0668L16.6693 17.0835ZM16.6693 2.0835C9.41927 2.0835 2.08594 4.2335 2.08594 8.3335C2.08594 12.4335 9.41927 14.5835 16.6693 14.5835C23.9193 14.5835 31.2526 12.4335 31.2526 8.3335C31.2526 4.2335 23.9193 2.0835 16.6693 2.0835ZM36.6693 27.7835L35.9359 27.3668C35.9804 26.9012 35.9804 26.4324 35.9359 25.9668L36.6693 25.5502C37.1601 25.2698 37.5362 24.8252 37.7314 24.2947C37.9265 23.7641 37.9281 23.1818 37.7359 22.6502C37.3159 21.5344 36.7194 20.4934 35.9693 19.5668C35.6015 19.1377 35.095 18.8509 34.5378 18.7565C33.9805 18.6622 33.4078 18.766 32.9193 19.0502L32.1859 19.4668C31.8018 19.1981 31.3947 18.9638 30.9693 18.7668V17.9335C30.9708 17.3492 30.7606 16.7841 30.3776 16.3429C29.9946 15.9016 29.4647 15.6141 28.8859 15.5335C27.7799 15.3835 26.6587 15.3835 25.5526 15.5335C24.9753 15.6174 24.4474 15.9059 24.065 16.3464C23.6826 16.7869 23.4712 17.3502 23.4693 17.9335V18.7668C23.0458 18.9675 22.639 19.2016 22.2526 19.4668L21.5359 19.0502C21.0474 18.766 20.4747 18.6622 19.9174 18.7565C19.3602 18.8509 18.8537 19.1377 18.4859 19.5668C17.7188 20.4904 17.1054 21.5315 16.6693 22.6502C16.4785 23.1837 16.4826 23.7674 16.6809 24.2982C16.8791 24.8289 17.2588 25.2724 17.7526 25.5502L18.4693 25.9668V26.6668C18.4693 26.6668 18.4693 27.1168 18.4693 27.3668L17.7526 27.7668C17.2612 28.047 16.8836 28.4907 16.6856 29.0206C16.4877 29.5505 16.4819 30.1331 16.6693 30.6668C17.098 31.7819 17.6998 32.8225 18.4526 33.7502C18.8181 34.182 19.3236 34.472 19.881 34.5694C20.4383 34.6669 21.0122 34.5657 21.5026 34.2835L22.2193 33.8668C22.6056 34.1321 23.0125 34.3661 23.4359 34.5668V35.4002C23.4379 35.9835 23.6493 36.5467 24.0317 36.9873C24.4141 37.4278 24.942 37.7163 25.5193 37.8002C26.0721 37.8716 26.6286 37.9106 27.1859 37.9168C27.7433 37.9112 28.2999 37.8722 28.8526 37.8002C29.4313 37.7196 29.9612 37.432 30.3443 36.9908C30.7273 36.5495 30.9375 35.9845 30.9359 35.4002V34.5668C31.3613 34.3698 31.7685 34.1356 32.1526 33.8668L32.8859 34.2835C33.3755 34.569 33.9502 34.6721 34.5084 34.5745C35.0667 34.4768 35.5723 34.1848 35.9359 33.7502C36.6892 32.8319 37.2861 31.7958 37.7026 30.6835C37.8977 30.1557 37.9011 29.5761 37.7122 29.046C37.5233 28.5159 37.1542 28.069 36.6693 27.7835Z" fill="currentColor"/>
</svg>
