<svg width="41" height="40" viewBox="0 0 41 40" fill="none" xmlns="http://www.w3.org/2000/svg">
<path d="M7.33464 29.9998C11.0165 29.9998 14.0013 27.0151 14.0013 23.3332C14.0013 19.6513 11.0165 16.6665 7.33464 16.6665C3.65274 16.6665 0.667969 19.6513 0.667969 23.3332C0.667969 27.0151 3.65274 29.9998 7.33464 29.9998Z" fill="currentColor"/>
<path d="M39.0026 18.3335H29.0026C28.0821 18.3335 27.3359 19.0797 27.3359 20.0002V30.0002C27.3359 30.9206 28.0821 31.6668 29.0026 31.6668H39.0026C39.9231 31.6668 40.6693 30.9206 40.6693 30.0002V20.0002C40.6693 19.0797 39.9231 18.3335 39.0026 18.3335Z" fill="currentColor"/>
<path d="M16.7097 11.6667H26.7097C27.0046 11.6667 27.2943 11.5884 27.5491 11.4399C27.8039 11.2913 28.0147 11.0779 28.16 10.8212C28.3053 10.5645 28.3799 10.2739 28.3762 9.979C28.3725 9.68408 28.2906 9.39544 28.1388 9.14253L23.1388 0.809193C22.9907 0.562394 22.7813 0.358146 22.5308 0.216339C22.2804 0.0745323 21.9975 0 21.7097 0C21.4218 0 21.1389 0.0745323 20.8885 0.216339C20.638 0.358146 20.4286 0.562394 20.2805 0.809193L15.2805 9.14253C15.1287 9.39544 15.0468 9.68408 15.0431 9.979C15.0394 10.2739 15.114 10.5645 15.2593 10.8212C15.4046 11.0779 15.6154 11.2913 15.8702 11.4399C16.1251 11.5884 16.4147 11.6667 16.7097 11.6667Z" fill="currentColor"/>
<path d="M34.1084 13.3335H32.3359V16.6669H37.3359C37.6857 16.6668 38.0266 16.5568 38.3103 16.3522C38.5941 16.1477 38.8063 15.8591 38.9169 15.5273L40.5836 10.5273L37.4215 9.47311L36.8123 11.3006C35.1986 8.3064 32.7834 5.82034 29.8371 4.12061L28.168 7.00581C30.7285 8.48339 32.7953 10.6848 34.1084 13.3335Z" fill="currentColor"/>
<path d="M20.6676 35C18.6919 35.0001 16.7357 34.6108 14.9107 33.8542L16.9588 33.269L16.0421 30.064L10.2088 31.7306C9.7974 31.8482 9.44695 32.1194 9.23004 32.4883C9.01313 32.8571 8.94638 33.2952 9.0436 33.7119L10.5019 39.9619L13.7482 39.2044L13.1715 36.7333C15.819 37.9175 18.7093 38.4574 21.6057 38.309C24.5021 38.1605 27.3221 37.3278 29.8346 35.8792L28.1655 32.994C25.8856 34.3092 23.2996 35.0011 20.6676 35Z" fill="currentColor"/>
<path d="M3.17578 14.5002L6.35703 15.5002C7.16523 12.9252 8.65544 10.617 10.6695 8.82058V11.6668H14.0029V5.00016C14.0029 4.55814 13.8273 4.13421 13.5147 3.82165C13.2021 3.50909 12.7782 3.3335 12.3362 3.3335H5.66953V6.66683H8.08057C5.80164 8.81469 4.11272 11.512 3.17578 14.5002Z" fill="currentColor"/>
</svg>
