<svg width="14" height="15" viewBox="0 0 14 15" fill="none" xmlns="http://www.w3.org/2000/svg">
<path d="M7.00216 0.581553C3.60841 0.576303 0.847656 3.3363 0.847656 6.73605C0.847656 8.37255 1.48966 9.8613 2.53966 10.9601C3.23641 11.6898 3.66916 12.6311 3.66916 13.6398V14.2151C3.66916 14.6291 4.00516 14.9651 4.41916 14.9651H7.00216H9.58516C9.99916 14.9651 10.3352 14.6291 10.3352 14.2151V13.6398C10.3352 12.6311 10.7672 11.6898 11.4647 10.9601C12.5139 9.8613 13.1567 8.3733 13.1567 6.73605C13.1567 3.3363 10.3959 0.575553 7.00216 0.581553ZM6.39841 4.32855C5.51791 4.54755 4.80991 5.2593 4.59391 6.14205C4.51816 6.4503 4.24216 6.6573 3.93916 6.6573C3.88591 6.6573 3.83116 6.65055 3.77791 6.6378C3.41566 6.5493 3.19441 6.18405 3.28291 5.8218C3.62191 4.43655 4.69066 3.36255 6.07216 3.0183C6.43366 2.9298 6.80116 3.14805 6.89041 3.5103C6.98041 3.87255 6.75991 4.23855 6.39841 4.32855Z" fill="currentColor"/>
</svg>
