<svg width="41" height="40" viewBox="0 0 41 40" fill="none" xmlns="http://www.w3.org/2000/svg">
<path d="M37.2572 0.605957H4.08142C2.66323 0.605957 1.51172 1.76353 1.51172 3.17565V24.2484C1.51172 25.6666 2.66323 26.8181 4.08142 26.8181H10.2269C10.2754 27.5817 10.536 28.2847 10.9541 28.8726L7.45717 34.5454C7.36626 34.6908 7.36626 34.8666 7.45111 35.012C7.5299 35.1575 7.67535 35.2605 7.85717 35.2423L12.4451 35.1211L14.639 39.1575C14.7178 39.3029 14.8632 39.3878 15.0269 39.3938H15.039C15.1966 39.3938 15.342 39.315 15.4269 39.1817L19.2511 32.9696C19.6996 33.1393 20.1784 33.2302 20.6693 33.2302C21.1481 33.2302 21.6087 33.1454 22.039 32.9817L25.8572 39.1817C25.942 39.315 26.0875 39.3938 26.2451 39.3938H26.2572C26.4208 39.3878 26.5663 39.3029 26.6451 39.1575L28.8329 35.1211L33.4269 35.2423C33.6026 35.2605 33.7481 35.1575 33.8329 35.012C33.9178 34.8726 33.9117 34.6908 33.8269 34.5514L30.3663 28.9029C30.7966 28.309 31.0693 27.5938 31.1117 26.8181H37.2572C38.6754 26.8181 39.8269 25.6666 39.8269 24.2484V3.17565C39.8269 1.76353 38.6754 0.605957 37.2572 0.605957ZM20.6693 28.4302C16.0693 28.4302 12.3238 24.6847 12.3238 20.0787C12.3238 15.4787 16.0693 11.7332 20.6693 11.7332C25.2754 11.7332 29.0208 15.4787 29.0208 20.0787C29.0208 24.6847 25.2754 28.4302 20.6693 28.4302ZM36.5057 20.6847C35.2814 20.8969 34.3117 21.9454 34.1238 23.2726H32.2632L32.6693 22.8726C33.4147 22.1272 33.8208 21.1332 33.8208 20.0787C33.8208 19.0241 33.4147 18.0302 32.6693 17.2847L31.1238 15.7454V13.5696C31.1238 11.3938 29.3541 9.61808 27.1844 9.61808H24.9966L23.4572 8.08475C22.7178 7.33929 21.7238 6.92717 20.6693 6.92717C19.6208 6.92717 18.6269 7.33929 17.8814 8.08475L16.3481 9.61808H14.1602C11.9844 9.61808 10.2208 11.3938 10.2208 13.5696V15.7454L8.67535 17.2847C7.9299 18.0302 7.51778 19.0241 7.51778 20.0787C7.51778 21.1332 7.9299 22.1272 8.67535 22.8726L9.07536 23.2726H7.21475C7.02687 21.9454 6.05717 20.8969 4.83293 20.6847V6.73929C6.05717 6.52717 7.02687 5.47262 7.21475 4.14535H34.1238C34.3117 5.47262 35.2814 6.52717 36.5057 6.73929V20.6847Z" fill="currentColor"/>
<path d="M25.3558 17.2785C25.3558 17.4663 25.2831 17.6421 25.1498 17.7754L19.5498 23.3754C19.2831 23.6421 18.8225 23.6421 18.5619 23.3754L16.1982 21.0118C16.0649 20.8845 15.9922 20.7088 15.9922 20.5209C15.9922 20.333 16.0649 20.1573 16.1982 20.0239C16.3316 19.8906 16.5073 19.8179 16.6892 19.8179C16.877 19.8179 17.0528 19.8906 17.1861 20.0239L18.7316 21.5694C18.9134 21.7451 19.1982 21.7451 19.374 21.5694L24.1558 16.7876C24.4346 16.5148 24.877 16.5148 25.1498 16.7876C25.2831 16.9209 25.3558 17.0966 25.3558 17.2785Z" fill="currentColor"/>
</svg>
