<svg width="22" height="24" viewBox="0 0 22 24" fill="none" xmlns="http://www.w3.org/2000/svg">
<path d="M21.4993 13.8898C21.4993 13.8848 21.5 13.88 21.5 13.875C21.5 13.8673 21.4982 13.8601 21.4977 13.8525C21.497 13.8256 21.4925 13.799 21.4843 13.7734C21.482 13.7654 21.4812 13.7573 21.4784 13.7494L18.8991 6.49504C19.0671 6.37214 19.2034 6.21101 19.2969 6.02497C19.3903 5.83893 19.438 5.63332 19.4362 5.42516C19.4344 5.21699 19.3831 5.01224 19.2865 4.82785C19.1899 4.64345 19.0508 4.4847 18.8807 4.36472C18.7105 4.24474 18.5143 4.16699 18.3082 4.13788C18.102 4.10878 17.8919 4.12916 17.6953 4.19735C17.4986 4.26553 17.3209 4.37956 17.177 4.53C17.0331 4.68044 16.9271 4.86297 16.8678 5.0625H12.8734C12.7906 4.80634 12.619 4.58819 12.3896 4.44745L13.1667 3.48642C13.2165 3.42478 13.2455 3.34895 13.2496 3.2698C13.2536 3.19066 13.2325 3.11226 13.1892 3.04587L11.3142 0.170197C11.2801 0.117934 11.2335 0.0750004 11.1787 0.0452821C11.1238 0.0155638 11.0624 0 11 0C10.9376 0 10.8762 0.0155638 10.8213 0.0452821C10.7665 0.0750004 10.7199 0.117934 10.6858 0.170197L8.81079 3.04587C8.76752 3.11226 8.74639 3.19066 8.75043 3.2698C8.75448 3.34895 8.78349 3.42478 8.83331 3.48642L9.61041 4.44745C9.38095 4.58819 9.20937 4.80634 9.12665 5.0625H5.13223C5.07301 4.86274 4.96706 4.67996 4.82316 4.52929C4.67926 4.37861 4.50155 4.26438 4.30472 4.19604C4.1079 4.1277 3.89763 4.10722 3.69132 4.1363C3.48501 4.16538 3.28859 4.24318 3.11832 4.36325C2.94805 4.48333 2.80883 4.64224 2.71219 4.82681C2.61554 5.01139 2.56424 5.21633 2.56254 5.42468C2.56084 5.63302 2.60879 5.83877 2.70241 6.0249C2.79604 6.21103 2.93265 6.37219 3.10093 6.49503L0.521606 13.7494C0.518778 13.7573 0.517966 13.7654 0.515701 13.7734C0.507534 13.799 0.503015 13.8256 0.502278 13.8525C0.501819 13.8601 0.5 13.8673 0.5 13.875C0.5 13.88 0.500733 13.8848 0.50075 13.8898C0.500922 13.8941 0.501082 13.8984 0.501402 13.9027C0.50804 14.7931 0.866397 15.6447 1.49835 16.272C2.1303 16.8993 2.9846 17.2513 3.875 17.2513C4.7654 17.2513 5.61969 16.8993 6.25164 16.272C6.8836 15.6447 7.24195 14.7931 7.24859 13.9027C7.24891 13.8984 7.24907 13.8941 7.24924 13.8898C7.24927 13.8848 7.24999 13.88 7.24999 13.875C7.24999 13.8673 7.24817 13.8601 7.24771 13.8525C7.24698 13.8256 7.24246 13.799 7.23429 13.7734C7.23203 13.7654 7.23121 13.7573 7.22839 13.7494L4.64907 6.49504C4.88006 6.32612 5.04968 6.0865 5.13223 5.8125H9.16865C9.23522 5.96149 9.33258 6.09471 9.45432 6.20338C9.57607 6.31205 9.71943 6.39372 9.875 6.44302V6.78332C9.8901 7.71257 9.71578 8.63516 9.36267 9.49484C9.2058 9.87288 9.12503 10.2781 9.125 10.6874C9.12497 11.0967 9.20567 11.502 9.36248 11.8801C9.71574 12.7397 9.89012 13.6624 9.875 14.5917V20.0625H7.8125C7.61365 20.0627 7.42301 20.1418 7.2824 20.2824C7.1418 20.423 7.06271 20.6137 7.0625 20.8125V21.75H6.125C5.82673 21.7503 5.54077 21.869 5.32986 22.0799C5.11896 22.2908 5.00033 22.5767 5 22.875V23.625C5 23.7245 5.03952 23.8198 5.10984 23.8902C5.18017 23.9605 5.27555 24 5.375 24H16.625C16.7245 24 16.8198 23.9605 16.8902 23.8902C16.9605 23.8198 17 23.7245 17 23.625V22.875C16.9997 22.5767 16.881 22.2908 16.6701 22.0799C16.4592 21.869 16.1733 21.7503 15.875 21.75H14.9375V20.8125C14.9373 20.6137 14.8582 20.423 14.7176 20.2824C14.577 20.1418 14.3863 20.0627 14.1875 20.0625H12.125V14.5917C12.1099 13.6624 12.2842 12.7398 12.6373 11.8802C12.7942 11.5021 12.875 11.0969 12.875 10.6876C12.875 10.2783 12.7943 9.87299 12.6375 9.49493C12.2843 8.63526 12.1099 7.71262 12.125 6.78332V6.44302C12.2806 6.39372 12.4239 6.31205 12.5457 6.20338C12.6674 6.09471 12.7648 5.96149 12.8314 5.8125H16.8678C16.9503 6.0865 17.1199 6.32611 17.3509 6.49503L14.7716 13.7494C14.7688 13.7573 14.768 13.7654 14.7657 13.7734C14.7575 13.799 14.753 13.8256 14.7523 13.8525C14.7518 13.8601 14.75 13.8673 14.75 13.875C14.75 13.88 14.7507 13.8848 14.7507 13.8898C14.7509 13.8941 14.7511 13.8984 14.7514 13.9027C14.758 14.7931 15.1164 15.6447 15.7483 16.272C16.3803 16.8993 17.2346 17.2513 18.125 17.2513C19.0154 17.2513 19.8697 16.8993 20.5016 16.272C21.1336 15.6447 21.492 14.7931 21.4986 13.9027C21.4989 13.8984 21.4991 13.8941 21.4993 13.8898ZM6.34363 13.5H1.40637L3.80756 6.74659C3.83005 6.74775 3.85224 6.75 3.875 6.75C3.89776 6.75 3.91995 6.74775 3.94244 6.74659L6.34363 13.5ZM14.1875 20.8125V21.75H7.8125V20.8125H14.1875ZM11.75 5.75134H10.25C10.1451 5.75833 10.0417 5.72371 9.96216 5.655C9.88262 5.58628 9.83334 5.489 9.82501 5.38422C9.83334 5.27943 9.88262 5.18215 9.96216 5.11343C10.0417 5.04472 10.1451 5.0101 10.25 5.01709H11.75C11.8549 5.0101 11.9583 5.04472 12.0378 5.11343C12.1174 5.18215 12.1667 5.27943 12.175 5.38421C12.1667 5.489 12.1174 5.58628 12.0378 5.655C11.9583 5.72371 11.8549 5.75833 11.75 5.75134ZM18.0576 6.74659C18.08 6.74775 18.1022 6.75 18.125 6.75C18.1478 6.75 18.17 6.74775 18.1924 6.74659L20.5936 13.5H15.6564L18.0576 6.74659Z" fill="currentColor"/>
</svg>
