<svg width="41" height="40" viewBox="0 0 41 40" fill="none" xmlns="http://www.w3.org/2000/svg">
<path d="M35.5164 18.5332V11.2165C35.5164 9.84987 34.4831 8.29987 33.1997 7.7832L23.9164 3.9832C21.8331 3.1332 19.4831 3.1332 17.3997 3.9832L8.11641 7.7832C6.84974 8.29987 5.81641 9.84987 5.81641 11.2165V18.5332C5.81641 26.6832 11.7331 34.3165 19.8164 36.5499C20.3664 36.6999 20.9664 36.6999 21.5164 36.5499C29.5997 34.3165 35.5164 26.6832 35.5164 18.5332ZM21.9164 21.4499V25.8332C21.9164 26.5165 21.3497 27.0832 20.6664 27.0832C19.9831 27.0832 19.4164 26.5165 19.4164 25.8332V21.4499C17.7331 20.9165 16.4997 19.3499 16.4997 17.4999C16.4997 15.1999 18.3664 13.3332 20.6664 13.3332C22.9664 13.3332 24.8331 15.1999 24.8331 17.4999C24.8331 19.3665 23.5997 20.9165 21.9164 21.4499Z" fill="currentColor"/>
</svg>
