<svg width="40" height="40" viewBox="0 0 40 40" fill="none" xmlns="http://www.w3.org/2000/svg">
<path d="M33.75 18.75H20.5639C19.4038 20.6399 17.9564 22.3656 16.2329 23.8428L15 24.8992V30C15 32.0679 16.6821 33.75 18.75 33.75H25V35H23.75C23.0591 35 22.5 35.5597 22.5 36.25C22.5 36.9403 23.0591 37.5 23.75 37.5H28.75C29.4409 37.5 30 36.9403 30 36.25C30 35.5597 29.4409 35 28.75 35H27.5V33.75H33.75C35.8179 33.75 37.5 32.0679 37.5 30V22.5C37.5 20.4321 35.8179 18.75 33.75 18.75Z" fill="currentColor"/>
<path d="M22.1338 6.61621L18.3838 2.86621C18.1494 2.63184 17.832 2.5 17.5 2.5H7.5C7.16797 2.5 6.85059 2.63184 6.61621 2.86621L2.86621 6.61621C2.63184 6.85059 2.5 7.16858 2.5 7.5C2.5 13.4259 5.08057 19.0369 9.58008 22.8937L11.687 24.6991C11.9202 24.8999 12.2107 25 12.5 25C12.7893 25 13.0798 24.8999 13.313 24.6991L15.4199 22.8937C19.9194 19.0369 22.5 13.4259 22.5 7.5C22.5 7.16858 22.3682 6.85059 22.1338 6.61621ZM12.5 17.5C11.8107 17.5 11.25 16.9392 11.25 16.25C11.25 15.5607 11.8107 15 12.5 15C13.1893 15 13.75 15.5607 13.75 16.25C13.75 16.9392 13.1893 17.5 12.5 17.5ZM16.0974 13.5339C15.9741 13.6765 15.7996 13.75 15.625 13.75C15.4797 13.75 15.3345 13.6998 15.2161 13.597C13.5144 12.1192 11.4856 12.1192 9.78394 13.597C9.52271 13.8235 9.12842 13.7952 8.90259 13.5339C8.67676 13.2719 8.70483 12.8758 8.96606 12.6493C11.1121 10.7835 13.8879 10.7835 16.0339 12.6493C16.2952 12.8758 16.3232 13.2719 16.0974 13.5339ZM18.5754 11.0571C18.4521 11.1852 18.2886 11.2496 18.125 11.2496C17.9688 11.2496 17.8125 11.1914 17.6917 11.0743C14.4885 7.97646 10.5115 7.97646 7.30835 11.0743C7.06177 11.3146 6.66626 11.3079 6.42456 11.0571C6.1853 10.8075 6.19263 10.4102 6.44165 10.1692C10.1208 6.61026 14.8792 6.61026 18.5583 10.1692C18.8074 10.4102 18.8147 10.8075 18.5754 11.0571Z" fill="currentColor"/>
</svg>
