<svg width="41" height="40" viewBox="0 0 41 40" fill="none" xmlns="http://www.w3.org/2000/svg">
<mask id="path-1-inside-1_1539_34765" fill="currentColor">
<path d="M24.6251 4.53883C24.6858 4.47416 24.6684 4.39683 24.6584 4.36683C24.6411 4.31416 24.6104 4.28416 24.5671 4.27616L22.3051 3.88416C22.0964 3.8475 21.9171 3.71416 21.8218 3.52416L20.7658 1.4035C20.7571 1.38616 20.7304 1.3335 20.6684 1.3335C20.6064 1.3335 20.5791 1.38683 20.5711 1.40416L19.5151 3.52416C19.4198 3.71416 19.2411 3.8475 19.0318 3.88416L16.7704 4.27616C16.7271 4.28416 16.6964 4.31416 16.6784 4.36683C16.6678 4.39683 16.6511 4.47416 16.7118 4.53883L18.3198 6.2415C18.4598 6.3895 18.5244 6.59283 18.4951 6.79416L18.1538 9.15683C18.1404 9.2515 18.1918 9.29816 18.2138 9.31416C18.2591 9.3455 18.2918 9.33016 18.3104 9.3215L20.3604 8.25283C20.5531 8.15283 20.7838 8.15283 20.9764 8.25283L23.0264 9.3215C23.0438 9.33083 23.0758 9.3455 23.1231 9.31416C23.1451 9.29816 23.1958 9.25083 23.1831 9.15683L22.8418 6.79416C22.8124 6.59283 22.8771 6.3895 23.0171 6.2415L24.6251 4.53883Z"/>
</mask>
<path d="M24.6251 4.53883C24.6858 4.47416 24.6684 4.39683 24.6584 4.36683C24.6411 4.31416 24.6104 4.28416 24.5671 4.27616L22.3051 3.88416C22.0964 3.8475 21.9171 3.71416 21.8218 3.52416L20.7658 1.4035C20.7571 1.38616 20.7304 1.3335 20.6684 1.3335C20.6064 1.3335 20.5791 1.38683 20.5711 1.40416L19.5151 3.52416C19.4198 3.71416 19.2411 3.8475 19.0318 3.88416L16.7704 4.27616C16.7271 4.28416 16.6964 4.31416 16.6784 4.36683C16.6678 4.39683 16.6511 4.47416 16.7118 4.53883L18.3198 6.2415C18.4598 6.3895 18.5244 6.59283 18.4951 6.79416L18.1538 9.15683C18.1404 9.2515 18.1918 9.29816 18.2138 9.31416C18.2591 9.3455 18.2918 9.33016 18.3104 9.3215L20.3604 8.25283C20.5531 8.15283 20.7838 8.15283 20.9764 8.25283L23.0264 9.3215C23.0438 9.33083 23.0758 9.3455 23.1231 9.31416C23.1451 9.29816 23.1958 9.25083 23.1831 9.15683L22.8418 6.79416C22.8124 6.59283 22.8771 6.3895 23.0171 6.2415L24.6251 4.53883Z" fill="currentColor"/>
<path d="M24.6251 4.53883L30.8291 10.3979L30.8388 10.3876L30.8485 10.3773L24.6251 4.53883ZM24.6584 4.36683L16.5528 7.03451L16.5579 7.04992L16.563 7.06531L24.6584 4.36683ZM24.5671 4.27616L26.1163 -4.11537L26.0703 -4.12386L26.0242 -4.13185L24.5671 4.27616ZM22.3051 3.88416L20.8283 12.2887L20.8381 12.2905L20.848 12.2922L22.3051 3.88416ZM21.8218 3.52416L14.1831 7.32789L14.1889 7.3395L14.1947 7.35109L21.8218 3.52416ZM20.7658 1.4035L28.4045 -2.40024L28.3982 -2.41273L20.7658 1.4035ZM20.5711 1.40416L28.2093 5.20885L28.2659 5.0953L28.319 4.98013L20.5711 1.40416ZM19.5151 3.52416L27.1422 7.35109L27.1478 7.33998L27.1533 7.32885L19.5151 3.52416ZM19.0318 3.88416L20.4893 12.2921L20.4967 12.2908L20.504 12.2895L19.0318 3.88416ZM16.7704 4.27616L15.3129 -4.13178L15.267 -4.12382L15.2212 -4.11537L16.7704 4.27616ZM16.6784 4.36683L24.7187 7.22558L24.7362 7.17617L24.7532 7.12656L16.6784 4.36683ZM16.7118 4.53883L10.4884 10.3773L10.4981 10.3876L10.5078 10.3979L16.7118 4.53883ZM18.3198 6.2415L12.1158 12.1005L12.1206 12.1056L18.3198 6.2415ZM18.4951 6.79416L10.0509 5.56388L10.0494 5.57403L18.4951 6.79416ZM18.1538 9.15683L9.70812 7.93669L9.70595 7.95169L9.70384 7.9667L18.1538 9.15683ZM18.2138 9.31416L13.1947 16.2154L13.2776 16.2757L13.3619 16.3339L18.2138 9.31416ZM18.3104 9.3215L21.9039 17.0613L22.0815 16.9789L22.2551 16.8884L18.3104 9.3215ZM20.3604 8.25283L16.4293 0.678911L16.4226 0.682423L16.4158 0.685946L20.3604 8.25283ZM20.9764 8.25283L24.9211 0.685947L24.9143 0.682423L24.9075 0.678911L20.9764 8.25283ZM23.0264 9.3215L27.0721 1.80814L27.0218 1.78104L26.9711 1.75461L23.0264 9.3215ZM23.1231 9.31416L27.8334 16.4297L27.9901 16.3259L28.1422 16.2154L23.1231 9.31416ZM23.1831 9.15683L31.64 8.01725L31.6346 7.97694L31.6288 7.93669L23.1831 9.15683ZM22.8418 6.79416L31.2874 5.57402L31.2859 5.56389L22.8418 6.79416ZM23.0171 6.2415L29.2163 12.1056L29.2211 12.1005L23.0171 6.2415ZM30.8485 10.3773C34.2493 6.75224 33.0408 2.52927 32.7539 1.66835L16.563 7.06531C16.3665 6.47589 16.0593 5.34441 16.1524 3.89339C16.2556 2.28593 16.862 0.341638 18.4017 -1.2996L30.8485 10.3773ZM32.7641 1.69915C32.0421 -0.494458 29.993 -3.39966 26.1163 -4.11537L23.0179 12.6677C21.4209 12.3729 19.8696 11.606 18.6218 10.3718C17.4454 9.20825 16.852 7.9435 16.5528 7.03451L32.7641 1.69915ZM26.0242 -4.13185L23.7622 -4.52385L20.848 12.2922L23.11 12.6842L26.0242 -4.13185ZM23.7819 -4.5204C26.2333 -4.08965 28.3342 -2.52436 29.4489 -0.302761L14.1947 7.35109C15.5 9.95269 17.9596 11.7846 20.8283 12.2887L23.7819 -4.5204ZM29.4604 -0.279567L28.4044 -2.40023L13.1271 5.20723L14.1831 7.32789L29.4604 -0.279567ZM28.3982 -2.41273C28.3496 -2.50994 27.8245 -3.63002 26.7384 -4.70451C25.4928 -5.93667 23.4155 -7.19984 20.6684 -7.19984V9.86683C17.9833 9.86683 15.9504 8.62999 14.7358 7.4285C13.6807 6.38467 13.1733 5.2996 13.1333 5.21972L28.3982 -2.41273ZM20.6684 -7.19984C14.8951 -7.19984 12.8256 -2.17709 12.8232 -2.1718L28.319 4.98013C28.1793 5.28295 27.6788 6.35666 26.6173 7.41246C25.4143 8.60904 23.3778 9.86683 20.6684 9.86683V-7.19984ZM12.9329 -2.40053L11.8769 -0.280525L27.1533 7.32885L28.2093 5.20885L12.9329 -2.40053ZM11.888 -0.302761C12.9991 -2.5172 15.0974 -4.08995 17.5595 -4.5212L20.504 12.2895C23.3848 11.7849 25.8404 9.94553 27.1422 7.35109L11.888 -0.302761ZM17.5743 -4.52378L15.3129 -4.13178L18.2279 12.6841L20.4893 12.2921L17.5743 -4.52378ZM15.2212 -4.11537C11.3476 -3.40024 9.32611 -0.506691 8.60368 1.6071L24.7532 7.12656C24.4531 8.00471 23.8625 9.24375 22.6991 10.3881C21.4612 11.6059 19.9196 12.3723 18.3196 12.6677L15.2212 -4.11537ZM8.6382 1.50808C8.2473 2.60751 7.12124 6.7881 10.4884 10.3773L22.9352 -1.2996C24.4592 0.324887 25.0746 2.25389 25.1827 3.87064C25.2802 5.32919 24.9768 6.49971 24.7187 7.22558L8.6382 1.50808ZM10.5078 10.3979L12.1158 12.1005L24.5238 0.382454L22.9158 -1.32021L10.5078 10.3979ZM12.1206 12.1056C10.4743 10.3653 9.70214 7.95781 10.0509 5.56389L26.9393 8.02444C27.3467 5.22785 26.4452 2.41371 24.519 0.377392L12.1206 12.1056ZM10.0494 5.57403L9.70812 7.93669L26.5994 10.377L26.9408 8.0143L10.0494 5.57403ZM9.70384 7.9667C9.08334 12.3722 11.764 15.1749 13.1947 16.2154L23.2328 2.41295C23.8452 2.85828 24.871 3.72966 25.661 5.17707C26.5196 6.75043 26.8548 8.5645 26.6037 10.347L9.70384 7.9667ZM13.3619 16.3339C14.8391 17.3549 16.7323 17.9777 18.7989 17.8499C20.5938 17.7389 21.9233 17.0523 21.9039 17.0613L14.717 1.58169C14.6789 1.59937 15.9828 0.924784 17.7453 0.815771C19.7796 0.689951 21.6338 1.30473 23.0657 2.29441L13.3619 16.3339ZM22.2551 16.8884L24.3051 15.8197L16.4158 0.685946L14.3658 1.75461L22.2551 16.8884ZM24.2915 15.8267C22.0196 17.006 19.3173 17.006 17.0453 15.8267L24.9075 0.678911C22.2502 -0.70031 19.0866 -0.70031 16.4293 0.678911L24.2915 15.8267ZM17.0318 15.8197L19.0818 16.8884L26.9711 1.75461L24.9211 0.685947L17.0318 15.8197ZM18.9808 16.8349C19.3055 17.0097 20.6593 17.7432 22.578 17.8526C24.6526 17.9708 26.4695 17.3325 27.8334 16.4297L18.4128 2.19862C19.7293 1.32712 21.5066 0.697175 23.549 0.813569C25.4356 0.921081 26.7647 1.64264 27.0721 1.80814L18.9808 16.8349ZM28.1422 16.2154C29.6446 15.1227 32.221 12.3291 31.64 8.01725L14.7262 10.2964C14.4881 8.52943 14.8264 6.74727 15.6598 5.20597C16.4281 3.78515 17.4317 2.90191 18.104 2.41295L28.1422 16.2154ZM31.6288 7.93669L31.2874 5.57402L14.3961 8.0143L14.7374 10.377L31.6288 7.93669ZM31.2859 5.56389C31.6347 7.95781 30.8625 10.3653 29.2163 12.1056L16.8179 0.377392C14.8917 2.41371 13.9901 5.22785 14.3976 8.02444L31.2859 5.56389ZM29.2211 12.1005L30.8291 10.3979L18.4211 -1.32022L16.8131 0.382449L29.2211 12.1005Z" fill="currentColor" mask="url(#path-1-inside-1_1539_34765)"/>
<path d="M6.21377 14.6472C6.25977 14.6785 6.29177 14.6638 6.31044 14.6545L8.36044 13.5858C8.5531 13.4858 8.78377 13.4858 8.97644 13.5858L11.0264 14.6545C11.0438 14.6645 11.0758 14.6785 11.1231 14.6472C11.1451 14.6312 11.1958 14.5838 11.1831 14.4898L10.8418 12.1272C10.8124 11.9258 10.8771 11.7225 11.0171 11.5745L12.6251 9.87184C12.6858 9.80717 12.6684 9.72984 12.6584 9.69984C12.6411 9.64717 12.6104 9.61717 12.5671 9.60917L10.3051 9.21717C10.0964 9.1805 9.9171 9.04717 9.82177 8.85717L8.76577 6.7365C8.7571 6.71917 8.73044 6.6665 8.66844 6.6665C8.60644 6.6665 8.5791 6.71984 8.5711 6.73717L7.5151 8.85717C7.41977 9.04717 7.2411 9.1805 7.03177 9.21717L4.77044 9.60917C4.7271 9.61717 4.69644 9.64717 4.67844 9.69984C4.66777 9.72984 4.6511 9.80717 4.71177 9.87184L6.31977 11.5745C6.45977 11.7225 6.52444 11.9258 6.4951 12.1272L6.15377 14.4898C6.14044 14.5845 6.19177 14.6312 6.21377 14.6472Z" fill="currentColor"/>
<path d="M36.6251 9.87184C36.6858 9.80717 36.6684 9.72984 36.6584 9.69984C36.6411 9.64717 36.6104 9.61717 36.5671 9.60917L34.3051 9.21717C34.0964 9.1805 33.9171 9.04717 33.8218 8.85717L32.7658 6.7365C32.7571 6.71917 32.7304 6.6665 32.6684 6.6665C32.6064 6.6665 32.5791 6.71984 32.5711 6.73717L31.5151 8.85717C31.4198 9.04717 31.2411 9.1805 31.0318 9.21717L28.7704 9.60917C28.7271 9.61717 28.6964 9.64717 28.6784 9.69984C28.6678 9.72984 28.6511 9.80717 28.7118 9.87184L30.3198 11.5745C30.4598 11.7225 30.5244 11.9258 30.4951 12.1272L30.1538 14.4898C30.1404 14.5845 30.1918 14.6312 30.2138 14.6472C30.2591 14.6785 30.2924 14.6638 30.3104 14.6545L32.3604 13.5858C32.5531 13.4858 32.7838 13.4858 32.9764 13.5858L35.0264 14.6545C35.0438 14.6645 35.0758 14.6785 35.1231 14.6472C35.1451 14.6312 35.1958 14.5838 35.1831 14.4898L34.8418 12.1272C34.8124 11.9258 34.8771 11.7225 35.0171 11.5745L36.6251 9.87184Z" fill="currentColor"/>
<path d="M20.668 38.6665C21.7725 38.6665 22.668 37.7711 22.668 36.6665C22.668 35.5619 21.7725 34.6665 20.668 34.6665C19.5634 34.6665 18.668 35.5619 18.668 36.6665C18.668 37.7711 19.5634 38.6665 20.668 38.6665Z" fill="currentColor"/>
<path d="M23 34.2909C23.5613 34.8416 23.9153 35.5916 23.9767 36.4229C27.2067 34.6236 31.6387 31.9889 34.8387 30.0742C29.5767 31.8802 25.6833 33.2676 23 34.2909Z" fill="currentColor"/>
<path d="M20.001 25.3673V17.3506C15.357 17.5146 11.1404 19.3813 7.95703 22.3473L13.6224 28.0126C15.347 26.4899 17.5624 25.5193 20.001 25.3673Z" fill="currentColor"/>
<path d="M10 36.0002C10 33.2989 11.0173 30.8362 12.6787 28.9549L7.01333 23.2896C3.906 26.6249 2 31.0929 2 36.0002H10Z" fill="currentColor"/>
<path d="M21.3359 17.3501V25.3561C23.7273 25.5054 25.9639 26.4554 27.7206 28.0061L33.3799 22.3468C30.1966 19.3814 25.9806 17.5148 21.3359 17.3501Z" fill="currentColor"/>
<path d="M28.6602 28.9501C29.0622 29.4061 29.4282 29.8981 29.7522 30.4254C31.1695 29.9281 32.7175 29.3914 34.4115 28.8094C35.0728 28.5814 35.7588 28.8761 36.0522 29.5021C36.3462 30.1321 36.1255 30.8528 35.5262 31.2161C34.2075 32.0054 32.6788 32.9168 31.1115 33.8414C31.2568 34.5468 31.3348 35.2694 31.3348 35.9988H39.3348C39.3348 31.0914 37.4288 26.6234 34.3215 23.2881L28.6608 28.9488L28.6602 28.9501Z" fill="currentColor"/>
</svg>
