<svg width="40" height="40" viewBox="0 0 40 40" fill="none" xmlns="http://www.w3.org/2000/svg">
<path d="M36.5892 0.605957H3.41345C1.99527 0.605957 0.84375 1.76353 0.84375 3.17565V24.2484C0.84375 25.6666 1.99527 26.8181 3.41345 26.8181H9.5589C9.60739 27.5817 9.86799 28.2847 10.2862 28.8726L6.7892 34.5454C6.6983 34.6908 6.6983 34.8666 6.78314 35.012C6.86193 35.1575 7.00739 35.2605 7.1892 35.2423L11.7771 35.1211L13.971 39.1575C14.0498 39.3029 14.1953 39.3878 14.3589 39.3938H14.371C14.5286 39.3938 14.6741 39.315 14.7589 39.1817L18.5831 32.9696C19.0316 33.1393 19.5104 33.2302 20.0013 33.2302C20.4801 33.2302 20.9407 33.1454 21.371 32.9817L25.1892 39.1817C25.2741 39.315 25.4195 39.3938 25.5771 39.3938H25.5892C25.7528 39.3878 25.8983 39.3029 25.9771 39.1575L28.165 35.1211L32.7589 35.2423C32.9347 35.2605 33.0801 35.1575 33.165 35.012C33.2498 34.8726 33.2438 34.6908 33.1589 34.5514L29.6983 28.9029C30.1286 28.309 30.4013 27.5938 30.4438 26.8181H36.5892C38.0074 26.8181 39.1589 25.6666 39.1589 24.2484V3.17565C39.1589 1.76353 38.0074 0.605957 36.5892 0.605957ZM20.0013 28.4302C15.4013 28.4302 11.6559 24.6847 11.6559 20.0787C11.6559 15.4787 15.4013 11.7332 20.0013 11.7332C24.6074 11.7332 28.3528 15.4787 28.3528 20.0787C28.3528 24.6847 24.6074 28.4302 20.0013 28.4302ZM35.8377 20.6847C34.6134 20.8969 33.6438 21.9454 33.4559 23.2726H31.5953L32.0013 22.8726C32.7468 22.1272 33.1528 21.1332 33.1528 20.0787C33.1528 19.0241 32.7468 18.0302 32.0013 17.2847L30.4559 15.7454V13.5696C30.4559 11.3938 28.6862 9.61808 26.5165 9.61808H24.3286L22.7892 8.08475C22.0498 7.33929 21.0559 6.92717 20.0013 6.92717C18.9528 6.92717 17.9589 7.33929 17.2134 8.08475L15.6801 9.61808H13.4922C11.3165 9.61808 9.55284 11.3938 9.55284 13.5696V15.7454L8.00739 17.2847C7.26193 18.0302 6.84981 19.0241 6.84981 20.0787C6.84981 21.1332 7.26193 22.1272 8.00739 22.8726L8.40739 23.2726H6.54678C6.3589 21.9454 5.3892 20.8969 4.16496 20.6847V6.73929C5.3892 6.52717 6.3589 5.47262 6.54678 4.14535H33.4559C33.6438 5.47262 34.6134 6.52717 35.8377 6.73929V20.6847Z" fill="currentColor"/>
<path d="M24.6839 17.2785C24.6839 17.4663 24.6112 17.6421 24.4779 17.7754L18.8779 23.3754C18.6112 23.6421 18.1506 23.6421 17.89 23.3754L15.5264 21.0118C15.393 20.8845 15.3203 20.7088 15.3203 20.5209C15.3203 20.333 15.393 20.1573 15.5264 20.0239C15.6597 19.8906 15.8355 19.8179 16.0173 19.8179C16.2052 19.8179 16.3809 19.8906 16.5143 20.0239L18.0597 21.5694C18.2415 21.7451 18.5264 21.7451 18.7021 21.5694L23.4839 16.7876C23.7627 16.5148 24.2052 16.5148 24.4779 16.7876C24.6112 16.9209 24.6839 17.0966 24.6839 17.2785Z" fill="currentColor"/>
</svg>
