<svg width="41" height="40" viewBox="0 0 41 40" fill="none" xmlns="http://www.w3.org/2000/svg">
<path d="M35.5641 16.5H21.5807V25.6333C21.5807 26.3167 21.0141 26.8833 20.3307 26.8833C19.6474 26.8833 19.0807 26.3167 19.0807 25.6333V16.5H5.0974C4.2974 16.5 3.66406 17.1333 3.66406 17.9333C3.66406 27.75 10.5141 34.6 20.3307 34.6C30.1474 34.6 36.9974 27.75 36.9974 17.9333C36.9974 17.1333 36.3641 16.5 35.5641 16.5Z" fill="currentColor"/>
<path d="M21.582 9.6668L24.182 12.2668C24.6654 12.7501 25.4654 12.7501 25.9487 12.2668C26.432 11.7835 26.432 10.9835 25.9487 10.5001L21.1987 5.7668C20.7154 5.28346 19.9154 5.28346 19.432 5.7668L14.6987 10.5168C14.4654 10.7668 14.332 11.0835 14.332 11.4001C14.332 11.7168 14.4487 12.0335 14.6987 12.2835C15.182 12.7668 15.982 12.7668 16.4654 12.2835L19.0654 9.68346V16.5001H21.5654V9.6668H21.582Z" fill="currentColor"/>
</svg>
