<svg width="41" height="40" viewBox="0 0 41 40" fill="none" xmlns="http://www.w3.org/2000/svg">
<g clip-path="url(#clip0_1539_67654)">
<path d="M6.26953 18.75C7.21497 18.75 8.07068 18.3707 8.703 17.7615L12.1719 19.4958C12.1545 19.6371 12.1289 19.776 12.1289 19.9219C12.1289 21.8604 13.7061 23.4375 15.6445 23.4375C17.583 23.4375 19.1602 21.8604 19.1602 19.9219C19.1602 19.3808 19.0271 18.8742 18.8077 18.4158L23.5135 13.71C23.9719 13.9294 24.4785 14.0625 25.0195 14.0625C26.958 14.0625 28.5352 12.4854 28.5352 10.5469C28.5352 10.1819 28.4634 9.83673 28.3597 9.50562L32.4484 6.43982C33.0063 6.81244 33.6749 7.03125 34.3945 7.03125C36.333 7.03125 37.9102 5.4541 37.9102 3.51562C37.9102 1.57715 36.333 0 34.3945 0C32.4561 0 30.8789 1.57715 30.8789 3.51562C30.8789 3.88062 30.9506 4.22577 31.0544 4.55688L26.9656 7.62268C26.4078 7.25006 25.7391 7.03125 25.0195 7.03125C23.0811 7.03125 21.5039 8.6084 21.5039 10.5469C21.5039 11.088 21.637 11.5945 21.8564 12.0529L17.1506 16.7587C16.6922 16.5393 16.1856 16.4062 15.6445 16.4062C14.6991 16.4062 13.8434 16.7856 13.2111 17.3947L9.74213 15.6604C9.75952 15.5191 9.78516 15.3802 9.78516 15.2344C9.78516 13.2959 8.20801 11.7188 6.26953 11.7188C4.33105 11.7188 2.75391 13.2959 2.75391 15.2344C2.75391 17.1729 4.33105 18.75 6.26953 18.75Z" fill="currentColor"/>
<path d="M39.1602 37.6562H37.9102V12.8906C37.9102 12.243 37.3859 11.7188 36.7383 11.7188H32.0508C31.4032 11.7188 30.8789 12.243 30.8789 12.8906V37.6562H28.5352V19.9219C28.5352 19.2743 28.0109 18.75 27.3633 18.75H22.6758C22.0282 18.75 21.5039 19.2743 21.5039 19.9219V37.6562H19.1602V29.2969C19.1602 28.6493 18.6359 28.125 17.9883 28.125H13.3008C12.6532 28.125 12.1289 28.6493 12.1289 29.2969V37.6562H9.78516V24.6094C9.78516 23.9618 9.26086 23.4375 8.61328 23.4375H3.92578C3.2782 23.4375 2.75391 23.9618 2.75391 24.6094V37.6562H1.50391C0.856323 37.6562 0.332031 38.1805 0.332031 38.8281C0.332031 39.4757 0.856323 40 1.50391 40H39.1602C39.8077 40 40.332 39.4757 40.332 38.8281C40.332 38.1805 39.8077 37.6562 39.1602 37.6562Z" fill="currentColor"/>
</g>
<defs>
<clipPath id="clip0_1539_67654">
<rect width="40" height="40" fill="currentColor" transform="translate(0.332031)"/>
</clipPath>
</defs>
</svg>
