<svg width="16" height="16" viewBox="0 0 16 16" fill="none" xmlns="http://www.w3.org/2000/svg">
<g id="social">
<path id="Vector" d="M13.6008 0.800049H2.40078C1.52078 0.800049 0.800781 1.52005 0.800781 2.40005V13.6C0.800781 14.4808 1.52078 15.2 2.40078 15.2H8.00078V9.60005H6.40078V7.62005H8.00078V5.98005C8.00078 4.24885 8.97038 3.03285 11.0136 3.03285L12.456 3.03445V5.11845H11.4984C10.7032 5.11845 10.4008 5.71525 10.4008 6.26885V7.62085H12.4552L12.0008 9.60005H10.4008V15.2H13.6008C14.4808 15.2 15.2008 14.4808 15.2008 13.6V2.40005C15.2008 1.52005 14.4808 0.800049 13.6008 0.800049Z" fill="currentColor"/>
</g>
</svg>
