<svg width="22" height="8" viewBox="0 0 22 8" fill="none" xmlns="http://www.w3.org/2000/svg">
<path d="M21.459 1.75H20.334C20.334 0.92275 19.6612 0.25 18.834 0.25H3.83398C3.00673 0.25 2.33398 0.92275 2.33398 1.75H1.20898C1.00198 1.75 0.833984 1.918 0.833984 2.125V3.625C0.833984 3.832 1.00198 4 1.20898 4H2.33398V5.5C2.33398 5.6995 2.41273 5.89 2.55373 6.03025L4.05373 7.53025C4.19398 7.67125 4.38523 7.75 4.58398 7.75H9.08398C9.33448 7.75 9.56848 7.62475 9.70798 7.41625C10.2645 6.583 10.9965 5.73925 11.334 5.52925C11.6715 5.7385 12.4035 6.58225 12.96 7.41625C13.0995 7.62475 13.3335 7.75 13.584 7.75H18.084C18.2827 7.75 18.474 7.67125 18.6142 7.53025L20.1142 6.03025C20.2552 5.89 20.334 5.6995 20.334 5.5V4H21.459C21.666 4 21.834 3.832 21.834 3.625V2.125C21.834 1.918 21.666 1.75 21.459 1.75ZM18.834 5.1895L17.7735 6.25H13.98C13.212 5.15575 12.1972 4 11.334 4C10.4707 4 9.45598 5.15575 8.68798 6.25H4.89448L3.83398 5.1895L3.83323 1.75H18.834V5.1895Z" fill="currentColor"/>
</svg>
