<svg width="41" height="40" viewBox="0 0 41 40" fill="none" xmlns="http://www.w3.org/2000/svg">
<path d="M3.06094 39.2H10.1009C11.0609 39.2 11.7009 38.56 11.7009 37.6C11.7009 36.64 11.0609 36 10.1009 36H4.66094V30.56C4.66094 29.6 4.02094 28.96 3.06094 28.96C2.10094 28.96 1.46094 29.6 1.46094 30.56V37.6C1.46094 38.56 2.10094 39.2 3.06094 39.2Z" fill="currentColor"/>
<path d="M3.06094 11.0398C4.02094 11.0398 4.66094 10.3998 4.66094 9.43981V3.9998H10.2609C11.2209 3.9998 11.8609 3.3598 11.8609 2.3998C11.8609 1.4398 11.2209 0.799805 10.2609 0.799805H3.06094C2.10094 0.799805 1.46094 1.4398 1.46094 2.3998V9.59981C1.46094 10.3998 2.10094 11.0398 3.06094 11.0398Z" fill="currentColor"/>
<path d="M29.6172 2.3998C29.6172 3.3598 30.2572 3.9998 31.2172 3.9998H36.6572V9.43981C36.6572 10.3998 37.2972 11.0398 38.2572 11.0398C39.2172 11.0398 39.8572 10.3998 39.8572 9.43981V2.3998C39.8572 1.4398 39.2172 0.799805 38.2572 0.799805H31.2172C30.2572 0.799805 29.6172 1.4398 29.6172 2.3998Z" fill="currentColor"/>
<path d="M31.2172 39.1998H38.2572C39.2172 39.1998 39.8572 38.5598 39.8572 37.5998V30.3998C39.8572 29.4398 39.2172 28.7998 38.2572 28.7998C37.2972 28.7998 36.6572 29.4398 36.6572 30.3998V35.9998H31.2172C30.2572 35.9998 29.6172 36.6398 29.6172 37.5998C29.6172 38.5598 30.2572 39.1998 31.2172 39.1998Z" fill="currentColor"/>
<path d="M34.0987 20.3199C34.0987 18.3999 33.4587 16.7999 32.3387 15.8399C32.3387 15.5199 32.1787 15.3599 32.0187 15.0399C31.5387 9.91994 28.0187 6.39994 22.4187 5.59994C21.6187 5.43994 20.6587 5.43994 19.8587 5.43994C16.4987 5.59994 13.1387 7.19994 11.2187 9.59994C9.93875 11.1999 9.13875 13.1199 9.13875 15.3599C9.13875 15.5199 8.97875 15.6799 8.97875 15.8399C7.85875 16.7999 7.21875 18.3999 7.21875 20.3199C7.21875 22.3999 8.01875 24.1599 9.29875 24.9599C10.8988 29.9199 15.0587 35.0399 20.6587 35.0399C26.2587 35.0399 30.2587 29.9199 32.0187 24.9599C33.2987 24.1599 34.0987 22.3999 34.0987 20.3199ZM30.2587 22.3999C29.6187 22.5599 29.2987 23.0399 29.1387 23.5199C27.8587 27.6799 24.6587 31.9999 20.6587 31.9999C16.6587 31.9999 13.4587 27.6799 12.1787 23.5199C12.0187 23.0399 11.6988 22.5599 11.0587 22.3999C10.8987 22.2399 10.4187 21.5999 10.4187 20.3199C10.4187 19.0399 10.8987 18.3999 11.0587 18.2399C11.2188 18.0799 11.3788 18.0799 11.5388 17.9199H13.2987C16.3387 17.7599 19.0587 16.4799 20.8187 14.5599C22.7387 17.1199 25.7787 18.5599 29.1387 18.5599C29.7787 18.5599 30.0987 18.5599 30.4187 18.3999C30.5787 18.5599 30.8987 19.1999 30.8987 20.3199C30.8987 21.5999 30.4187 22.2399 30.2587 22.3999Z" fill="currentColor"/>
</svg>
