<svg width="40" height="40" viewBox="0 0 40 40" fill="none" xmlns="http://www.w3.org/2000/svg">
<g clip-path="url(#clip0_1539_52911)">
<path d="M23.75 0H4.58333C2.05 0 0 2.05 0 4.58333V30.4167C0 32.95 2.05 35 4.58333 35H18.15C16.6833 33 15.8333 30.5667 15.8333 27.9167C15.8333 21.25 21.25 15.8333 27.9167 15.8333C28.05 15.8333 28.2 15.8333 28.3333 15.85V4.58333C28.3333 2.05 26.2833 0 23.75 0ZM6.66667 6.66667H13.3333C14.25 6.66667 15 7.41667 15 8.33333C15 9.25 14.25 10 13.3333 10H6.66667C5.75 10 5 9.25 5 8.33333C5 7.41667 5.75 6.66667 6.66667 6.66667ZM15 23.3333H6.66667C5.75 23.3333 5 22.5833 5 21.6667C5 20.75 5.75 20 6.66667 20H15C15.9167 20 16.6667 20.75 16.6667 21.6667C16.6667 22.5833 15.9167 23.3333 15 23.3333ZM21.6667 16.6667H6.66667C5.75 16.6667 5 15.9167 5 15C5 14.0833 5.75 13.3333 6.66667 13.3333H21.6667C22.5833 13.3333 23.3333 14.0833 23.3333 15C23.3333 15.9167 22.5833 16.6667 21.6667 16.6667Z" fill="currentColor"/>
<path d="M27.9141 36.6665C23.0891 36.6665 19.1641 32.7415 19.1641 27.9165C19.1641 23.0915 23.0891 19.1665 27.9141 19.1665C32.7391 19.1665 36.6641 23.0915 36.6641 27.9165C36.6641 32.7415 32.7391 36.6665 27.9141 36.6665ZM27.9141 22.4998C24.9274 22.4998 22.4974 24.9298 22.4974 27.9165C22.4974 30.9032 24.9274 33.3332 27.9141 33.3332C30.9007 33.3332 33.3307 30.9032 33.3307 27.9165C33.3307 24.9298 30.9007 22.4998 27.9141 22.4998Z" fill="currentColor"/>
<path d="M38.3338 39.9999C37.9071 39.9999 37.4804 39.8366 37.1554 39.5116L31.7387 34.0949C31.0871 33.4433 31.0871 32.3899 31.7387 31.7383C32.3904 31.0866 33.4438 31.0866 34.0954 31.7383L39.5121 37.1549C40.1638 37.8066 40.1638 38.8599 39.5121 39.5116C39.1871 39.8366 38.7604 39.9999 38.3338 39.9999Z" fill="currentColor"/>
</g>
<defs>
<clipPath id="clip0_1539_52911">
<rect width="40" height="40" fill="currentColor"/>
</clipPath>
</defs>
</svg>
