<svg width="41" height="40" viewBox="0 0 41 40" fill="none" xmlns="http://www.w3.org/2000/svg">
<path fill-rule="evenodd" clip-rule="evenodd" d="M32.1062 26.4645L33.8742 28.2325C35.3385 29.6968 35.3385 32.0712 33.8742 33.5358C32.4096 35.0002 30.0352 35.0002 28.5708 33.5358L26.8029 31.7679C25.3385 30.3035 25.3385 27.9291 26.8029 26.4645C28.2675 25.0002 30.6419 25.0002 32.1062 26.4645ZM16.7969 3.3335C24.0456 3.3335 29.9219 9.20977 29.9219 16.4585C29.9219 23.7072 24.0456 29.5835 16.7969 29.5835C9.54815 29.5835 3.67188 23.7072 3.67188 16.4585C3.67188 9.20977 9.54815 3.3335 16.7969 3.3335ZM16.7969 7.50016C11.8493 7.50016 7.83854 11.511 7.83854 16.4585C7.83854 21.406 11.8493 25.4168 16.7969 25.4168C21.7444 25.4168 25.7552 21.406 25.7552 16.4585C25.7552 11.511 21.7444 7.50016 16.7969 7.50016ZM17.2135 11.6668C18.134 11.6668 18.8802 12.413 18.8802 13.3335L18.8802 24.3139C18.2153 24.4897 17.517 24.5835 16.7969 24.5835C16.0766 24.5835 15.3783 24.4897 14.7134 24.3139L14.7135 13.3335C14.7135 12.413 15.4597 11.6668 16.3802 11.6668H17.2135ZM12.2135 15.0002C13.134 15.0002 13.8802 15.7464 13.8802 16.6668L13.8802 24.0443C12.108 23.3625 10.6352 22.0775 9.71315 20.4409L9.71354 16.6668C9.71354 15.7464 10.4597 15.0002 11.3802 15.0002H12.2135ZM22.2135 17.5002C23.134 17.5002 23.8802 18.2464 23.8802 19.1668V20.4416C22.9581 22.0779 21.4854 23.3625 19.7136 24.0443L19.7135 19.1668C19.7135 18.2464 20.4597 17.5002 21.3802 17.5002H22.2135Z" fill="currentColor"/>
</svg>
