<svg width="40" height="40" viewBox="0 0 40 40" fill="none" xmlns="http://www.w3.org/2000/svg">
<path fill-rule="evenodd" clip-rule="evenodd" d="M35.0026 12.9168C36.6126 12.9168 37.9193 11.6135 37.9193 10.0002V5.00016C37.9193 3.38683 36.6126 2.0835 35.0026 2.0835H30.0026C28.3926 2.0835 27.0859 3.38683 27.0859 5.00016V10.0002C27.0859 11.6135 28.3926 12.9168 30.0026 12.9168H35.0026Z" fill="currentColor"/>
<path fill-rule="evenodd" clip-rule="evenodd" d="M35.0026 25.4168C36.6126 25.4168 37.9193 24.1135 37.9193 22.5002V17.5002C37.9193 15.8868 36.6126 14.5835 35.0026 14.5835H30.0026C28.3926 14.5835 27.0859 15.8868 27.0859 17.5002V22.5002C27.0859 24.1135 28.3926 25.4168 30.0026 25.4168H35.0026Z" fill="currentColor"/>
<path fill-rule="evenodd" clip-rule="evenodd" d="M35.0026 37.9168C36.6126 37.9168 37.9193 36.6135 37.9193 35.0002V30.0002C37.9193 28.3868 36.6126 27.0835 35.0026 27.0835H30.0026C28.3926 27.0835 27.0859 28.3868 27.0859 30.0002V35.0002C27.0859 36.6135 28.3926 37.9168 30.0026 37.9168H35.0026Z" fill="currentColor"/>
<path fill-rule="evenodd" clip-rule="evenodd" d="M19.5859 21.25H28.3359C29.0259 21.25 29.5859 20.69 29.5859 20C29.5859 19.31 29.0259 18.75 28.3359 18.75H19.5859C18.8959 18.75 18.3359 19.31 18.3359 20C18.3359 20.69 18.8959 21.25 19.5859 21.25Z" fill="currentColor"/>
<path fill-rule="evenodd" clip-rule="evenodd" d="M25.4219 32.0835V9.5835H28.3385C29.0285 9.5835 29.5885 9.0235 29.5885 8.3335C29.5885 7.6435 29.0285 7.0835 28.3385 7.0835H25.0052C23.8552 7.0835 22.9219 8.01683 22.9219 9.16683V32.5002C22.9219 33.6502 23.8552 34.5835 25.0052 34.5835H28.3385C29.0285 34.5835 29.5885 34.0235 29.5885 33.3335C29.5885 32.6435 29.0285 32.0835 28.3385 32.0835H25.4219Z" fill="currentColor"/>
<path fill-rule="evenodd" clip-rule="evenodd" d="M20.8359 27V13.3967C20.8359 12.7383 20.5593 12.1117 20.0726 11.67C18.9976 10.6933 15.7909 7.77667 14.7776 6.85667C14.3493 6.46667 13.7893 6.25 13.2093 6.25C11.9276 6.25 8.00094 6.25 5.5026 6.25C4.59594 6.25 3.7276 6.61 3.08594 7.25C2.44594 7.89167 2.08594 8.76 2.08594 9.66667V27C2.08594 27.9067 2.44594 28.775 3.08594 29.4167C3.7276 30.0567 4.59594 30.4167 5.5026 30.4167H17.4193C18.3259 30.4167 19.1943 30.0567 19.8359 29.4167C20.4759 28.775 20.8359 27.9067 20.8359 27ZM12.0876 8.75333C12.3109 8.78 12.5209 8.875 12.6893 9.02833C13.7026 9.94833 16.9093 12.8633 17.9826 13.84C18.1943 14.0317 18.3193 14.2967 18.3359 14.58H12.6293C12.4859 14.58 12.3476 14.5233 12.2459 14.4217C12.1443 14.32 12.0876 14.1817 12.0876 14.0383V8.75333Z" fill="currentColor"/>
</svg>
