<svg width="31" height="40" viewBox="0 0 31 40" fill="none" xmlns="http://www.w3.org/2000/svg">
<path d="M30.2505 23.4194C29.7923 17.4539 27.0148 13.7155 24.5645 10.4166C22.2955 7.36257 20.3359 4.72523 20.3359 0.834761C20.3359 0.522261 20.1609 0.236636 19.8834 0.0934326C19.6051 -0.0506299 19.2706 -0.0270362 19.0176 0.15687C15.3376 2.79015 12.2671 7.22835 11.1945 11.463C10.4499 14.4112 10.3514 17.7256 10.3376 19.9146C6.93914 19.1887 6.1693 14.1053 6.16117 14.0499C6.12289 13.7862 5.9618 13.5568 5.72742 13.4315C5.49062 13.3078 5.21227 13.2988 4.97219 13.4177C4.79398 13.5039 0.597968 15.6359 0.353828 24.1485C0.336718 24.4317 0.335938 24.7158 0.335938 24.9998C0.335938 33.2698 7.06523 39.9987 15.3359 39.9987C15.3473 39.9995 15.3595 40.0012 15.3693 39.9987C15.3726 39.9987 15.3758 39.9987 15.3798 39.9987C23.6302 39.9751 30.3359 33.2552 30.3359 24.9998C30.3359 24.5839 30.2505 23.4194 30.2505 23.4194ZM15.3359 38.3322C12.5787 38.3322 10.3359 35.943 10.3359 33.0062C10.3359 32.9062 10.3352 32.8052 10.3424 32.6816C10.3758 31.443 10.611 30.5976 10.869 30.0352C11.3524 31.0736 12.2166 32.0281 13.6205 32.0281C14.0811 32.0281 14.4538 31.6554 14.4538 31.1948C14.4538 30.0084 14.4783 28.6397 14.7737 27.4044C15.0366 26.3091 15.6648 25.1437 16.4607 24.2096C16.8147 25.4221 17.5048 26.4034 18.1787 27.3612C19.143 28.7316 20.1399 30.1484 20.3149 32.5644C20.3255 32.7076 20.3361 32.8516 20.3361 33.0062C20.3359 35.943 18.0931 38.3322 15.3359 38.3322Z" fill="currentColor"/>
</svg>
