<svg width="41" height="40" viewBox="0 0 41 40" fill="none" xmlns="http://www.w3.org/2000/svg">
<path d="M27.715 3.3335H13.6183C8.31483 3.3335 4 7.64833 4 12.951V27.0493C4 32.352 8.31483 36.6668 13.6183 36.6668H27.715C33.0185 36.6668 37.3333 32.352 37.3333 27.0493V12.951C37.3333 7.64833 33.0185 3.3335 27.715 3.3335ZM19.5948 27.8533C19.5948 29.2662 18.445 30.4168 17.0313 30.4168H12.9917C11.5782 30.4168 10.4282 29.2662 10.4282 27.8533V21.3137C10.4282 19.9008 11.578 18.7502 12.9917 18.7502H17.0313C18.4448 18.7502 19.5948 19.9008 19.5948 21.3137V27.8533ZM19.5948 14.52C19.5948 15.9328 18.445 17.0835 17.0313 17.0835H12.9917C11.5782 17.0835 10.4282 15.9328 10.4282 14.52V12.147C10.4282 10.7342 11.578 9.5835 12.9917 9.5835H17.0313C18.4448 9.5835 19.5948 10.7342 19.5948 12.147V14.52ZM30.9052 27.8533C30.9052 29.2662 29.7553 30.4168 28.3417 30.4168H24.302C22.8885 30.4168 21.7385 29.2662 21.7385 27.8533V25.4803C21.7385 24.0675 22.8883 22.9168 24.302 22.9168H28.3417C29.7552 22.9168 30.9052 24.0675 30.9052 25.4803V27.8533ZM30.9052 18.6867C30.9052 20.0995 29.7553 21.2502 28.3417 21.2502H24.302C22.8885 21.2502 21.7385 20.0995 21.7385 18.6867V12.147C21.7385 10.7342 22.8883 9.5835 24.302 9.5835H28.3417C29.7552 9.5835 30.9052 10.7342 30.9052 12.147V18.6867Z" fill="currentColor"/>
</svg>
