<svg width="19" height="19" viewBox="0 0 19 19" fill="none" xmlns="http://www.w3.org/2000/svg">
<path fill-rule="evenodd" clip-rule="evenodd" d="M17.0606 13.8786L18.1214 14.9394C19 15.818 19 17.2426 18.1214 18.1214C17.2426 19 15.818 19 14.9394 18.1214L13.8786 17.0606C13 16.182 13 14.7574 13.8786 13.8786C14.7574 13 16.182 13 17.0606 13.8786ZM7.875 0C12.2242 0 15.75 3.52576 15.75 7.875C15.75 12.2242 12.2242 15.75 7.875 15.75C3.52576 15.75 0 12.2242 0 7.875C0 3.52576 3.52576 0 7.875 0ZM7.875 2.5C4.90648 2.5 2.5 4.90648 2.5 7.875C2.5 10.8435 4.90648 13.25 7.875 13.25C10.8435 13.25 13.25 10.8435 13.25 7.875C13.25 4.90648 10.8435 2.5 7.875 2.5ZM8.125 5C8.67729 5 9.125 5.44771 9.125 6L9.12498 12.5883C8.72606 12.6938 8.3071 12.75 7.875 12.75C7.44286 12.75 7.02385 12.6938 6.6249 12.5883L6.625 6C6.625 5.44771 7.07271 5 7.625 5H8.125ZM5.125 7C5.67729 7 6.125 7.44771 6.125 8L6.12499 12.4265C5.0617 12.0174 4.178 11.2464 3.62476 10.2645L3.625 8C3.625 7.44771 4.07271 7 4.625 7H5.125ZM11.125 8.5C11.6773 8.5 12.125 8.94771 12.125 9.5V10.2648C11.5717 11.2466 10.6881 12.0174 9.62501 12.4265L9.625 9.5C9.625 8.94771 10.0727 8.5 10.625 8.5H11.125Z" fill="currentColor"/>
</svg>
