<svg width="18" height="24" viewBox="0 0 18 24" fill="none" xmlns="http://www.w3.org/2000/svg">
<path fill-rule="evenodd" clip-rule="evenodd" d="M9.47562 0.766538C9.19747 0.544618 8.80378 0.544618 8.52562 0.766538C8.52562 0.766538 0.640625 7.1209 0.640625 15.0401C0.640625 19.6541 4.38666 23.4001 9.00062 23.4001C13.6146 23.4001 17.3606 19.6541 17.3606 15.0401C17.3606 7.1209 9.47562 0.766537 9.47562 0.766538ZM6.3125 19.3501C5.1953 18.7671 4.37374 17.6955 4.13282 16.4195C4.0553 16.0068 3.65782 15.7355 3.24514 15.813C2.83322 15.8913 2.5619 16.2888 2.63942 16.7007C2.96698 18.4411 4.08646 19.9033 5.60874 20.6975C5.98114 20.8913 6.44018 20.7469 6.63474 20.3753C6.82854 20.0037 6.68414 19.5439 6.3125 19.3501Z" fill="currentColor"/>
</svg>
