<svg width="28" height="34" viewBox="0 0 28 34" fill="none" xmlns="http://www.w3.org/2000/svg">
<path d="M9.62139 8.60623C7.18334 11.0443 7.1657 14.9795 9.58201 17.3959C11.9983 19.8122 15.9336 19.7945 18.3716 17.3565C20.8097 14.9184 20.8273 10.9832 18.411 8.5669C15.9947 6.15054 12.0594 6.16823 9.62139 8.60623Z" fill="currentColor"/>
<path d="M12.7549 27.1448C11.7028 27.7359 10.4399 27.861 9.29231 27.4876C8.14489 27.1153 7.19785 26.2725 6.6943 25.1771C6.53589 24.8322 6.29149 24.5439 6.00781 24.3047V33.432C6.00781 33.8579 6.48248 34.1119 6.83697 33.8757L9.95912 31.7947C10.2577 31.5958 10.6466 31.5958 10.945 31.7947L14.0672 33.8757C14.4215 34.1119 14.8964 33.8579 14.8964 33.432V27.0001C14.1979 26.7411 13.4121 26.777 12.7549 27.1448Z" fill="currentColor"/>
<path d="M21.3183 25.176C20.8139 26.2722 19.8669 27.1151 18.7187 27.4884C18.2837 27.6299 17.8324 27.6995 17.3819 27.6995C17.1428 27.6995 16.9079 27.6481 16.6719 27.6088V30.4896C16.6719 30.7199 16.8092 30.9209 17.028 30.9927C17.9012 31.2799 20.1604 32.0237 21.3109 32.4102C21.6564 32.5262 22.0058 32.2665 22.0056 31.9017L22.0048 24.3047C21.7209 24.5437 21.4767 24.8315 21.3183 25.176Z" fill="currentColor"/>
<path d="M26.6625 11.1014C25.5558 10.0788 25.0542 8.53475 25.3467 7.06618C25.4889 6.35105 25.3319 5.63998 24.9074 5.05582C24.4839 4.47247 23.8554 4.10448 23.1384 4.02033C21.6428 3.84413 20.3277 2.8885 19.702 1.52571C19.3999 0.868701 18.8549 0.384241 18.1684 0.161121C17.4809 -0.0619487 16.7553 0.00931126 16.1259 0.363401C14.817 1.09676 13.1902 1.09856 11.8812 0.364201C11.4915 0.145431 11.0644 0.0345011 10.6339 0.0345011C10.3674 0.0345011 10.1002 0.0762313 9.83796 0.161171C9.15147 0.384291 8.60724 0.868551 8.30592 1.52471C7.67919 2.8883 6.36412 3.84393 4.87386 4.01933C4.15174 4.10448 3.52316 4.47251 3.09971 5.05562C2.67521 5.63897 2.51821 6.35065 2.65882 7.05903C2.95215 8.53555 2.45044 10.0788 1.35155 11.0944C0.815067 11.591 0.523438 12.2576 0.523438 12.9789C0.523438 13.701 0.815118 14.3677 1.3446 14.8573C2.45049 15.8798 2.95215 17.424 2.66047 18.8917C2.518 19.6079 2.67441 20.3188 3.09871 20.9021C3.52321 21.4862 4.15159 21.8543 4.86856 21.9384C4.94756 21.9478 5.01877 21.9824 5.09658 21.9959C5.10313 21.9959 5.10847 21.9922 5.11502 21.9922C5.26443 21.9922 5.3991 22.0382 5.52253 22.1033C6.73566 22.4459 7.77379 23.2766 8.30493 24.433C8.60705 25.09 9.15128 25.5744 9.83777 25.7976C10.5261 26.0207 11.2509 25.9486 11.8803 25.5953C13.1875 24.8601 14.8141 24.8593 16.1249 25.5945C16.7533 25.9478 17.4799 26.0207 18.1682 25.7975C18.8547 25.5744 19.3999 25.0901 19.7018 24.4329C20.2262 23.2916 21.2442 22.467 22.4332 22.116C22.5692 22.0318 22.7202 21.9705 22.8917 21.9705C22.9151 21.9705 22.9343 21.9819 22.9572 21.9838C23.0174 21.9739 23.0723 21.9465 23.133 21.9393C23.8552 21.8542 24.4827 21.4862 24.9072 20.903C25.3145 20.3424 25.4747 19.6654 25.3636 18.9859C25.1172 17.4786 25.4459 15.9388 26.5874 14.9242L26.6623 14.8577C27.1918 14.3681 27.4835 13.7015 27.4835 12.9793C27.4837 12.2576 27.192 11.591 26.6625 11.1014ZM21.7153 15.1518C21.0068 17.8224 18.8471 19.982 16.1766 20.6904C10.0969 22.3031 4.67922 16.8854 6.29212 10.8059C7.0005 8.13538 9.16007 5.97567 11.8307 5.26724C17.9105 3.65435 23.3282 9.07223 21.7153 15.1518Z" fill="currentColor"/>
</svg>
