<svg width="125" height="36" viewBox="0 0 125 36" fill="none" xmlns="http://www.w3.org/2000/svg">
<g clip-path="url(#clip0_973_47306)">
<path fill-rule="evenodd" clip-rule="evenodd" d="M0 12L11.811 0H35.4331L47.2441 12L35.4331 24L23.622 36L0 12ZM35.4331 24L23.622 12L35.4331 0V24Z" fill="#0D61FF"/>
<path d="M98.3027 29.9994H103.144V19.5177C103.144 17.1092 104.646 15.8881 106.516 15.8881C108.219 15.8881 109.254 16.9057 109.254 19.1786V29.9994H114.061V19.5177C114.061 17.1092 115.564 15.8881 117.433 15.8881C119.17 15.8881 120.171 16.9057 120.171 19.1786V29.9994H124.979V18.6357C124.979 13.9207 122.475 11.8516 119.236 11.8516C117.033 11.8516 114.763 12.8012 113.36 14.9384C112.526 12.8352 110.789 11.8516 108.486 11.8516C105.882 11.8516 104.012 13.3101 103.144 14.9722V12.2586H98.3027V29.9994Z" fill="currentColor"/>
<path d="M87.6264 30.376C92.4008 30.376 95.4056 28.239 95.9732 24.4058H91.3992C91.0987 25.8983 89.997 26.8822 87.7601 26.8822C85.1225 26.8822 83.5532 25.186 83.4197 22.2348H96.0066V20.878C96.0066 14.5348 92.0002 11.855 87.4929 11.855C82.418 11.855 78.5117 15.4845 78.5117 21.0815V21.353C78.5117 27.0178 82.3513 30.376 87.6264 30.376ZM83.4865 19.2158C83.8537 16.7057 85.3227 15.2471 87.4929 15.2471C89.7967 15.2471 91.1321 16.5361 91.2991 19.2158H83.4865Z" fill="currentColor"/>
<path d="M65.3033 30.375C72.4481 30.375 76.5213 26.067 76.5213 19.588V17.01H65.8041V21.0127H71.1794C71.0792 23.7943 69.4434 26.1348 65.4368 26.1348C60.7626 26.1348 58.7928 22.7767 58.7928 18.0955V17.8242C58.7928 12.8717 61.2301 9.717 65.37 9.717C68.2414 9.717 70.0777 11.006 70.5451 13.8553H75.9204C75.3528 7.85133 70.6118 5.375 65.3033 5.375C58.2587 5.375 53.1504 10.4632 53.1504 17.7563V18.0277C53.1504 25.219 57.4908 30.375 65.3033 30.375Z" fill="currentColor"/>
</g>
<defs>
<clipPath id="clip0_973_47306">
<rect width="125" height="36" fill="currentColor"/>
</clipPath>
</defs>
</svg>
