<svg width="41" height="40" viewBox="0 0 41 40" fill="none" xmlns="http://www.w3.org/2000/svg">
<path d="M35.1346 21.3L35.1346 21.303C35.1663 29.302 28.6549 35.8 20.668 35.8C12.6816 35.8 6.16797 29.3019 6.16797 21.3V18.1667C6.16797 17.9378 6.35853 17.75 6.58464 17.75C6.80376 17.75 7.0013 17.9475 7.0013 18.1667V21.3C7.0013 28.8309 13.1204 34.95 20.6513 34.95C28.1822 34.95 34.3013 28.8309 34.3013 21.3V18.1667C34.3013 17.9378 34.4919 17.75 34.718 17.75C34.9371 17.75 35.1346 17.9475 35.1346 18.1667L35.1346 21.3Z" fill="currentColor" stroke="currentColor" stroke-width="1.5"/>
<path d="M22.8515 19.0901L22.877 19.0971L22.9029 19.1023C22.9916 19.12 23.1538 19.1502 23.3167 19.1502C24.0877 19.1502 24.8161 18.6394 25.0248 17.8429C25.2813 16.8929 24.727 15.9361 23.7832 15.6773C21.6028 15.0746 19.2985 15.0745 17.1181 15.6769C16.1707 15.936 15.6157 16.9146 15.8772 17.8504C16.1366 18.7955 17.096 19.3499 18.0473 19.0904L18.0485 19.0901C19.6186 18.6591 21.2814 18.6591 22.8515 19.0901ZM26.4223 13.2875L26.4235 13.2843C26.745 12.3782 26.2757 11.3734 25.3633 11.0312L25.3634 11.0312L25.356 11.0285C22.2068 9.88498 18.7261 9.88547 15.5619 11.0281L15.5619 11.028L15.5533 11.0312C14.641 11.3734 14.1716 12.3782 14.4932 13.2843L14.4931 13.2843L14.4978 13.2968C14.8421 14.2152 15.8547 14.6808 16.7768 14.3369C19.1545 13.4673 21.7647 13.4657 24.1433 14.3321C24.3679 14.4243 24.5824 14.4502 24.7667 14.4502C25.4869 14.4502 26.161 14.0136 26.4223 13.2875ZM11.25 13.5002C11.25 8.31438 15.4809 4.0835 20.6667 4.0835C25.8525 4.0835 30.0833 8.31438 30.0833 13.5002V21.3168C30.0833 26.5026 25.8525 30.7335 20.6667 30.7335C15.4809 30.7335 11.25 26.5026 11.25 21.3168V13.5002Z" fill="currentColor" stroke="currentColor" stroke-width="1.5"/>
</svg>
