<svg width="20" height="20" viewBox="0 0 20 20" fill="none" xmlns="http://www.w3.org/2000/svg">
<path d="M13.245 1.6551C12.8081 0.898509 11.8406 0.639232 11.084 1.07612C10.3272 1.51301 10.0679 2.48054 10.5048 3.23713L9.09858 0.801463C8.66169 0.0448717 7.69416 -0.214406 6.93757 0.222484C6.18098 0.659374 5.9217 1.6269 6.35841 2.38349L5.88966 1.57161C5.45295 0.815013 4.48524 0.555736 3.72865 0.992626C2.97206 1.42952 2.71278 2.39704 3.14967 3.15364L3.61842 3.96553C3.18153 3.20893 2.214 2.94966 1.45723 3.38655C0.700633 3.82344 0.441356 4.79097 0.878246 5.54756L5.4687 13.4985L3.97621 13.0864C3.43147 12.936 2.86146 13.0078 2.3711 13.2885C2.36872 13.2898 2.36634 13.2913 2.36396 13.2926C1.87727 13.5736 1.52937 14.027 1.3838 14.5701C1.08369 15.6907 1.75111 16.8468 2.87171 17.1469L8.43611 18.6379L8.99348 19.6036L19.954 13.2755L13.245 1.6551Z" fill="currentColor"/>
</svg>
