<svg width="40" height="38" viewBox="0 0 40 38" fill="none" xmlns="http://www.w3.org/2000/svg">
<path d="M38.2477 15.2555C37.7625 7.08828 30.9648 0.59375 22.6781 0.59375H17.3219C9.03516 0.59375 2.2375 7.08828 1.75234 15.2555C0.722656 15.6992 0 16.725 0 17.9156V23.957C0 25.5539 1.29922 26.8531 2.89609 26.8531H5.23984V15.0195H4.11953C4.71484 8.25859 10.4086 2.9375 17.3219 2.9375H22.6781C29.5914 2.9375 35.2852 8.25859 35.8805 15.0195H34.7602V26.8531H37.1039C38.7008 26.8531 40 25.5539 40 23.957V17.9156C40 16.725 39.2773 15.6992 38.2477 15.2555Z" fill="currentColor"/>
<path d="M29.207 11.3516H10.7898C9.02109 11.3516 7.58203 12.7906 7.58203 14.5594V29.1594C7.58203 30.9281 9.02109 32.3672 10.7898 32.3672H14.8062L18.7125 36.9906C18.9352 37.2539 19.2625 37.4062 19.6078 37.4062C19.9531 37.4062 20.2805 37.2539 20.5031 36.9906L24.4094 32.3672H29.207C30.9758 32.3672 32.4148 30.9281 32.4148 29.1594V14.5594C32.4148 12.7906 30.9758 11.3516 29.207 11.3516ZM24.2812 17.2203C24.9281 17.2203 25.4531 17.7445 25.4531 18.3922C25.4531 19.0391 24.9281 19.5641 24.2812 19.5641C23.6344 19.5641 23.1094 19.0391 23.1094 18.3922C23.1094 17.7445 23.6344 17.2203 24.2812 17.2203ZM15.2195 17.2203C15.8664 17.2203 16.3914 17.7445 16.3914 18.3922C16.3914 19.0391 15.8664 19.5641 15.2195 19.5641C14.5727 19.5641 14.0477 19.0391 14.0477 18.3922C14.0477 17.7445 14.5727 17.2203 15.2195 17.2203ZM25.8398 24.3297C24.0383 25.9273 22.018 26.7266 19.9984 26.7266C17.9781 26.7266 15.9586 25.9281 14.157 24.3297C13.6727 23.9008 13.6281 23.1602 14.0578 22.6758C14.4875 22.1914 15.2281 22.1469 15.7125 22.5766C17.0742 23.7844 18.5359 24.3883 19.9984 24.3883C21.4609 24.3883 22.9234 23.7844 24.2852 22.5766C24.7687 22.1469 25.5094 22.1914 25.9391 22.6758C26.3687 23.1602 26.3242 23.9008 25.8398 24.3297Z" fill="currentColor"/>
</svg>
