<svg width="40" height="40" viewBox="0 0 40 40" fill="none" xmlns="http://www.w3.org/2000/svg">
<path d="M26.982 3.3335H13.0154C6.9487 3.3335 3.33203 6.95016 3.33203 13.0168V26.9835C3.33203 33.0502 6.9487 36.6668 13.0154 36.6668H26.982C33.0487 36.6668 36.6654 33.0502 36.6654 26.9835V13.0168C36.6654 6.95016 33.0487 3.3335 26.982 3.3335ZM16.6154 24.8335L12.8654 28.5835C12.6154 28.8335 12.2987 28.9502 11.982 28.9502C11.6654 28.9502 11.332 28.8335 11.0987 28.5835L9.8487 27.3335C9.3487 26.8502 9.3487 26.0502 9.8487 25.5668C10.332 25.0835 11.1154 25.0835 11.6154 25.5668L11.982 25.9335L14.8487 23.0668C15.332 22.5835 16.1154 22.5835 16.6154 23.0668C17.0987 23.5502 17.0987 24.3502 16.6154 24.8335ZM16.6154 13.1668L12.8654 16.9168C12.6154 17.1668 12.2987 17.2835 11.982 17.2835C11.6654 17.2835 11.332 17.1668 11.0987 16.9168L9.8487 15.6668C9.3487 15.1835 9.3487 14.3835 9.8487 13.9002C10.332 13.4168 11.1154 13.4168 11.6154 13.9002L11.982 14.2668L14.8487 11.4002C15.332 10.9168 16.1154 10.9168 16.6154 11.4002C17.0987 11.8835 17.0987 12.6835 16.6154 13.1668ZM29.2654 27.7002H20.5154C19.832 27.7002 19.2654 27.1335 19.2654 26.4502C19.2654 25.7668 19.832 25.2002 20.5154 25.2002H29.2654C29.9654 25.2002 30.5154 25.7668 30.5154 26.4502C30.5154 27.1335 29.9654 27.7002 29.2654 27.7002ZM29.2654 16.0335H20.5154C19.832 16.0335 19.2654 15.4668 19.2654 14.7835C19.2654 14.1002 19.832 13.5335 20.5154 13.5335H29.2654C29.9654 13.5335 30.5154 14.1002 30.5154 14.7835C30.5154 15.4668 29.9654 16.0335 29.2654 16.0335Z" fill="currentColor"/>
</svg>
