<svg width="40" height="40" viewBox="0 0 40 40" fill="none" xmlns="http://www.w3.org/2000/svg">
<path d="M36.6654 4.5835H3.33203C2.6487 4.5835 2.08203 4.01683 2.08203 3.3335C2.08203 2.65016 2.6487 2.0835 3.33203 2.0835H36.6654C37.3487 2.0835 37.9154 2.65016 37.9154 3.3335C37.9154 4.01683 37.3487 4.5835 36.6654 4.5835Z" fill="currentColor"/>
<path d="M27.7818 37.2335C27.5651 37.6668 27.1151 37.9168 26.6651 37.9168C26.4818 37.9168 26.2818 37.8668 26.1151 37.7835L19.9985 34.7335L13.8818 37.7835C13.7151 37.8668 13.5151 37.9168 13.3318 37.9168C12.8818 37.9168 12.4318 37.6668 12.2151 37.2335C11.8985 36.6002 12.1485 35.8502 12.7818 35.5502L18.7485 32.5668V28.3335H21.2485V32.5668L27.2151 35.5502C27.8485 35.8502 28.0985 36.6002 27.7818 37.2335Z" fill="currentColor"/>
<path d="M5 3.3335V23.5002C5 26.6668 6.66667 28.3335 9.83333 28.3335H30.1667C33.3333 28.3335 35 26.6668 35 23.5002V3.3335H5ZM28.3 14.3002L23.05 18.6835C22.5667 19.0835 21.95 19.2502 21.3667 19.1502C20.7667 19.0502 20.25 18.6835 19.9333 18.1502L18.1833 15.2335L13.3 19.3002C13.0667 19.5002 12.7833 19.5835 12.5 19.5835C12.15 19.5835 11.7833 19.4335 11.5333 19.1335C11.0833 18.6002 11.1667 17.8168 11.7 17.3668L16.95 12.9835C17.4333 12.5835 18.05 12.4168 18.6333 12.5168C19.2333 12.6168 19.75 12.9835 20.0667 13.5168L21.8167 16.4335L26.7 12.3668C27.2333 11.9168 28.0167 12.0002 28.4667 12.5335C28.9 13.0668 28.8333 13.8502 28.3 14.3002Z" fill="currentColor"/>
</svg>
