<svg width="41" height="40" viewBox="0 0 41 40" fill="none" xmlns="http://www.w3.org/2000/svg">
<path d="M14.0157 31.165L12.6807 32.5H10.1017C9.58405 31.0481 8.20946 30 6.58203 30C4.51416 30 2.83203 31.6821 2.83203 33.75C2.83203 35.8179 4.51416 37.5 6.58203 37.5C8.20946 37.5 9.58405 36.4519 10.1017 35H13.1982C13.5303 35 13.8477 34.8682 14.082 34.6338L16.3895 32.3263C15.5243 32.116 14.7172 31.7139 14.0157 31.165Z" fill="currentColor"/>
<path d="M35.332 30.2304V27.5C35.332 27.1686 35.2002 26.8506 34.9658 26.6162L32.4883 24.1387C31.9259 24.7707 31.2492 25.2971 30.4747 25.6603L32.832 28.0176V30.2304C31.3802 30.748 30.332 32.1226 30.332 33.75C30.332 35.8179 32.0142 37.5 34.082 37.5C36.1499 37.5 37.832 35.8179 37.832 33.75C37.832 32.1226 36.7839 30.748 35.332 30.2304Z" fill="currentColor"/>
<path d="M34.082 2.5C32.0142 2.5 30.332 4.18213 30.332 6.25C30.332 7.87743 31.3802 9.25194 32.832 9.76959V13.125L30.89 14.5818C31.6419 15.0081 32.2928 15.5787 32.8098 16.266L34.8315 14.7498C35.1465 14.5142 35.332 14.1437 35.332 13.75V9.76967C36.7839 9.25201 37.832 7.87743 37.832 6.25C37.832 4.18213 36.1499 2.5 34.082 2.5Z" fill="currentColor"/>
<path d="M10.1017 7.5H12.6807L14.0157 8.83499C14.7172 8.28613 15.5243 7.88399 16.3895 7.67372L14.082 5.36621C13.8477 5.13184 13.5303 5 13.1982 5H10.1017C9.58405 3.54813 8.20946 2.5 6.58203 2.5C4.51416 2.5 2.83203 4.18213 2.83203 6.25C2.83203 8.31787 4.51416 10 6.58203 10C8.20946 10 9.58405 8.95187 10.1017 7.5Z" fill="currentColor"/>
<path d="M27.832 15H27.3932C26.6882 13.5273 25.1956 12.5 23.457 12.5C23.1906 12.5 22.9324 12.5328 22.679 12.5787C22.1485 10.3876 20.1843 8.75 17.832 8.75C15.9894 8.75 14.3947 9.7628 13.5275 11.25H12.832C10.2755 11.25 8.18588 13.1851 7.89139 15.6631C6.37184 16.522 5.33203 18.1335 5.33203 20C5.33203 21.8665 6.37184 23.478 7.89139 24.3369C8.18588 26.8149 10.2755 28.75 12.832 28.75H13.5275C14.3947 30.2372 15.9894 31.25 17.832 31.25C20.1843 31.25 22.1485 29.6124 22.679 27.4213C22.9324 27.4672 23.1906 27.5 23.457 27.5C25.1956 27.5 26.6882 26.4727 27.3932 25H27.832C30.5896 25 32.832 22.757 32.832 20C32.832 17.243 30.5896 15 27.832 15ZM12.207 12.5C12.5525 12.5 12.832 12.7795 12.832 13.125C12.832 13.4705 12.5525 13.75 12.207 13.75C11.1731 13.75 10.332 14.5911 10.332 15.625C10.332 15.9705 10.0525 16.25 9.70703 16.25C9.36157 16.25 9.08203 15.9705 9.08203 15.625C9.08203 13.902 10.4834 12.5 12.207 12.5ZM11.582 23.125C11.582 24.1589 12.4231 25 13.457 25C13.8025 25 14.082 25.2795 14.082 25.625C14.082 25.9705 13.8025 26.25 13.457 26.25C11.7334 26.25 10.332 24.848 10.332 23.125C10.332 23.103 10.3423 23.0844 10.3445 23.063C8.91365 22.7774 7.83203 21.5134 7.83203 20C7.83203 19.6545 8.11157 19.375 8.45703 19.375C8.80249 19.375 9.08203 19.6545 9.08203 20C9.08203 21.0339 9.9231 21.875 10.957 21.875C11.991 21.875 12.832 21.0339 12.832 20C12.832 19.6545 13.1116 19.375 13.457 19.375C13.8025 19.375 14.082 19.6545 14.082 20C14.082 21.5134 13.0004 22.7774 11.5695 23.063C11.5717 23.0844 11.582 23.103 11.582 23.125ZM20.957 14.375C19.9231 14.375 19.082 15.2161 19.082 16.25C19.082 16.5955 18.8025 16.875 18.457 16.875C18.1116 16.875 17.832 16.5955 17.832 16.25C17.832 14.7366 18.9137 13.4726 20.3445 13.187C20.3423 13.1656 20.332 13.147 20.332 13.125C20.332 12.0911 19.491 11.25 18.457 11.25C18.1116 11.25 17.832 10.9705 17.832 10.625C17.832 10.2795 18.1116 10 18.457 10C20.1807 10 21.582 11.402 21.582 13.125C21.582 13.147 21.5717 13.1656 21.5695 13.187C23.0004 13.4726 24.082 14.7366 24.082 16.25C24.082 16.5955 23.8025 16.875 23.457 16.875C23.1116 16.875 22.832 16.5955 22.832 16.25C22.832 15.2161 21.991 14.375 20.957 14.375ZM26.5247 23.6926C26.2563 25.1447 24.9863 26.25 23.457 26.25C23.1116 26.25 22.832 25.9705 22.832 25.625C22.832 25.2795 23.1116 25 23.457 25C24.3037 25 25.0127 24.4324 25.2448 23.6605C23.8648 23.3363 22.832 22.1021 22.832 20.625C22.832 20.2795 23.1116 20 23.457 20C23.8025 20 24.082 20.2795 24.082 20.625C24.082 21.6589 24.9231 22.5 25.957 22.5C26.991 22.5 27.832 21.6589 27.832 20.625C27.832 20.2795 28.1116 20 28.457 20C28.8025 20 29.082 20.2795 29.082 20.625C29.082 22.1537 27.9773 23.4241 26.5247 23.6926Z" fill="currentColor"/>
</svg>
