<svg width="40" height="40" viewBox="0 0 40 40" fill="none" xmlns="http://www.w3.org/2000/svg">
<path d="M33.8875 7.4375L29.6875 3.2375C29.2125 2.7625 28.575 2.5 27.9125 2.5H27.4375V8.45C27.4375 9.1375 27.9875 9.7 28.6875 9.7H34.6125V9.2125C34.6125 8.55 34.35 7.9125 33.8875 7.4375Z" fill="currentColor"/>
<path d="M24.9391 8.45V2.5H12.2266C10.8516 2.5 9.72656 3.625 9.72656 5V23.0563C10.1328 22.0463 11.1078 21.3675 12.2016 21.3675C13.3266 21.3675 14.3391 22.0788 14.7216 23.1388L15.3503 24.8825C15.7966 26.1225 16.7641 27.09 18.0028 27.535L19.7478 28.1638C20.8028 28.5413 21.5178 29.5538 21.5178 30.6838C21.5178 31.2838 21.3066 31.8425 20.9578 32.3H32.1153C33.4903 32.3 34.6153 31.175 34.6153 29.8V12.2H28.6903C26.6141 12.2 24.9391 10.5125 24.9391 8.45Z" fill="currentColor"/>
<path d="M17.1534 29.8875C15.2172 29.19 13.6934 27.6663 12.9959 25.73L12.3672 23.9863C12.3109 23.8288 12.0872 23.8288 12.0309 23.9863L11.4022 25.73C10.7047 27.6663 9.18094 29.19 7.24469 29.8875L5.50094 30.5163C5.34344 30.5725 5.34344 30.7963 5.50094 30.8525L7.24469 31.4813C9.18094 32.1788 10.7047 33.7025 11.4022 35.6388L12.0309 37.3825C12.0872 37.54 12.3109 37.54 12.3672 37.3825L12.9959 35.6388C13.6934 33.7025 15.2172 32.1788 17.1534 31.4813L18.8972 30.8525C19.0547 30.7963 19.0547 30.5725 18.8972 30.5163L17.1534 29.8875Z" fill="currentColor"/>
</svg>
