<svg width="40" height="40" viewBox="0 0 40 40" fill="none" xmlns="http://www.w3.org/2000/svg">
<path d="M34.0943 14.6364V13.8242C35.1307 13.5818 35.9125 12.6545 35.9125 11.5454C35.9125 10.2606 34.858 9.20605 33.567 9.20605C32.2822 9.20605 31.2277 10.2606 31.2277 11.5454C31.2277 12.6121 31.9428 13.503 32.9186 13.7818V14.6364C32.9186 15.2182 32.4398 15.697 31.858 15.697H25.3125V16.8727H31.858C33.0883 16.8727 34.0943 15.8667 34.0943 14.6364Z" fill="currentColor"/>
<path d="M29.6277 9.15129V8.33917C30.664 8.09675 31.4458 7.16947 31.4458 6.06038C31.4458 4.77554 30.3913 3.72705 29.1004 3.72705C27.8155 3.72705 26.761 4.77554 26.761 6.06038C26.761 7.12705 27.4761 8.01796 28.4519 8.29675V9.15129C28.4519 9.73311 27.9731 10.2119 27.3913 10.2119H25.3125V11.3877H27.3913C28.6216 11.3877 29.6277 10.3816 29.6277 9.15129Z" fill="currentColor"/>
<path d="M34.0961 29.3632V28.5511C34.0961 27.3208 33.09 26.3208 31.8658 26.3208H25.3203V27.4966H31.8658C32.4476 27.4966 32.9264 27.9753 32.9264 28.5572V29.4117C31.9506 29.6966 31.2355 30.5875 31.2355 31.6481C31.2355 32.9329 32.29 33.9875 33.5749 33.9875C34.8658 33.9875 35.9203 32.9329 35.9203 31.6481C35.9082 30.5329 35.1264 29.6056 34.0961 29.3632Z" fill="currentColor"/>
<path d="M28.6415 33.2788V32.4666C28.6415 31.2303 27.6415 30.2363 26.4112 30.2363H25.3203V31.4121H26.4112C26.993 31.4121 27.4718 31.8848 27.4718 32.4727V33.3212C26.5021 33.6121 25.787 34.4969 25.787 35.5636C25.787 36.8485 26.8355 37.8969 28.1203 37.8969C29.4112 37.8969 30.4658 36.8485 30.4658 35.5636C30.4536 34.4485 29.6779 33.5212 28.6415 33.2788Z" fill="currentColor"/>
<path d="M33.5021 23.9332C34.793 23.9332 35.8476 22.8786 35.8476 21.5877C35.8476 20.3029 34.793 19.2544 33.5021 19.2544C32.4233 19.2544 31.5082 19.9998 31.2536 21.0059H25.3203V22.1817H31.2536C31.5143 23.1877 32.4173 23.9332 33.5021 23.9332Z" fill="currentColor"/>
<path d="M19.0171 2.10889C16.2171 2.10889 13.9444 4.38161 13.9444 7.2301C13.9444 7.52101 13.9929 7.81192 14.0414 8.09677C13.508 7.90283 12.9323 7.80586 12.302 7.80586C9.50196 7.80586 7.22924 10.0786 7.22924 12.9271C7.22924 13.2301 7.25954 13.521 7.31409 13.8119C7.32015 13.818 7.33227 13.824 7.33833 13.8301C8.19893 14.7392 9.36863 15.2362 10.6292 15.2362C10.9565 15.2362 11.2171 15.4968 11.2171 15.824C11.2171 16.1513 10.9565 16.4119 10.6292 16.4119C9.32015 16.4119 8.08984 15.9756 7.08378 15.1816C5.31409 15.9695 4.08984 17.7392 4.08984 19.7937C4.08984 22.1634 5.73227 24.1877 7.95651 24.721C7.47166 25.4968 7.22924 26.3634 7.22924 27.3271C7.22924 30.0786 9.50196 32.3998 12.302 32.3998C12.5565 32.3998 12.8111 32.3756 13.0656 32.3392C13.6535 30.5574 15.0777 29.1877 16.8898 28.6846C16.1686 27.9937 15.6353 27.1089 15.3626 26.1149C14.8353 26.5513 14.1929 26.8665 13.4656 27.0059C13.4292 27.0119 13.3929 27.018 13.3565 27.018C13.0777 27.018 12.8353 26.824 12.7808 26.5392C12.7201 26.218 12.9262 25.9149 13.2474 25.8483C14.0777 25.6907 14.7565 25.2059 15.1929 24.5574C15.2171 24.4665 15.2595 24.3877 15.3262 24.321C15.6474 23.7392 15.7868 23.0483 15.6656 22.3271C15.6111 22.0059 15.8292 21.7028 16.1504 21.6483C16.4717 21.5937 16.7747 21.8119 16.8292 22.1331C16.9989 23.1392 16.8111 24.1089 16.3565 24.9271C16.5201 27.2725 18.4595 29.0786 20.8595 29.0786C21.1868 29.0786 21.4474 29.3392 21.4474 29.6665C21.4474 29.9937 21.1868 30.2543 20.8595 30.2543C19.9262 30.2543 19.0474 30.0362 18.2717 29.6483C16.1383 29.721 14.4232 31.2543 14.0353 33.2907C14.4595 35.6665 16.5262 37.4725 19.0232 37.4725C21.8232 37.4725 24.1444 35.1998 24.1444 32.3998V19.4543C23.9989 19.4665 23.8535 19.4846 23.7141 19.4846C22.9383 19.4846 22.1747 19.2786 21.4838 18.8846C20.6717 18.4119 20.0414 17.7089 19.6595 16.8604C18.9808 17.2543 18.2171 17.4604 17.4171 17.4604C17.3383 17.4604 17.2595 17.4604 17.1808 17.4543C16.8535 17.4362 16.605 17.1634 16.6232 16.8362C16.6414 16.5089 16.9201 16.2665 17.2414 16.2786C18.1201 16.321 18.9686 16.024 19.6232 15.4422C20.2838 14.8543 20.6717 14.0362 20.7141 13.1453C20.7323 12.818 21.0171 12.5695 21.3323 12.5877C21.6535 12.6059 21.908 12.8786 21.8898 13.2059C21.8353 14.3089 21.3868 15.321 20.6353 16.0968C20.8959 16.8422 21.3929 17.4665 22.0777 17.8604C22.708 18.224 23.4292 18.3574 24.1504 18.2604V7.2301C24.1383 4.37555 21.8171 2.10889 19.0171 2.10889Z" fill="currentColor"/>
</svg>
