<svg width="41" height="40" viewBox="0 0 41 40" fill="none" xmlns="http://www.w3.org/2000/svg">
<g clip-path="url(#clip0_1539_35380)">
<path d="M37.3057 18.1365C36.3856 18.1365 35.6392 17.39 35.6392 16.4699C35.6392 11.7949 33.8191 7.40163 30.5141 4.09474C29.8625 3.44319 29.8625 2.39003 30.5141 1.73817C31.1656 1.08662 32.2191 1.08662 32.8706 1.73817C36.8059 5.67311 38.9723 10.905 38.9723 16.4699C38.9723 17.39 38.2258 18.1365 37.3057 18.1365Z" fill="currentColor"/>
<path d="M3.97321 18.1365C3.05341 18.1365 2.30664 17.39 2.30664 16.4699C2.30664 10.905 4.47339 5.67311 8.40833 1.73817C9.05988 1.08662 10.1133 1.08662 10.7649 1.73817C11.4167 2.39003 11.4167 3.44319 10.7649 4.09474C7.45984 7.3998 5.64008 11.7949 5.64008 16.4699C5.64008 17.39 4.89331 18.1365 3.97321 18.1365Z" fill="currentColor"/>
<path d="M36.2712 28.1885C33.7511 26.0583 32.3061 22.9449 32.3061 19.6466V15C32.3061 9.13513 27.9494 4.28009 22.3061 3.4668V1.66656C22.3061 0.744934 21.5593 0 20.6395 0C19.7194 0 18.9727 0.744934 18.9727 1.66656V3.4668C13.3278 4.28009 8.97266 9.13513 8.97266 15V19.6466C8.97266 22.9449 7.52765 26.0583 4.99286 28.2016C4.34436 28.7567 3.97266 29.5633 3.97266 30.4166C3.97266 32.0251 5.28094 33.3334 6.88953 33.3334H34.3895C35.9978 33.3334 37.3061 32.0251 37.3061 30.4166C37.3061 29.5633 36.9344 28.7567 36.2712 28.1885Z" fill="currentColor"/>
<path d="M20.6409 40C23.6591 40 26.1841 37.8482 26.7643 35H14.5176C15.0974 37.8482 17.6224 40 20.6409 40Z" fill="currentColor"/>
</g>
<defs>
<clipPath id="clip0_1539_35380">
<rect width="40" height="40" fill="currentColor" transform="translate(0.666016)"/>
</clipPath>
</defs>
</svg>
