<svg width="81" height="80" viewBox="0 0 81 80" fill="none" xmlns="http://www.w3.org/2000/svg">
<rect x="0.332031" width="80" height="80" rx="24" fill="#070709"/>
<g clip-path="url(#clip0_1539_14754)">
<path d="M25.332 42.5C25.332 40.4321 27.0142 38.75 29.082 38.75C31.1499 38.75 32.832 40.4321 32.832 42.5H35.332C35.332 42.5 35.332 38.4246 35.332 38.4131C35.332 37.4792 36.4082 36.8649 37.2137 37.334C38.0259 37.8069 39.082 37.1908 39.082 36.25C39.082 35.3421 38.0116 34.6965 37.2139 35.1659C36.399 35.6454 35.332 35.028 35.332 34.0869V27.5H24.082C22.0142 27.5 20.332 29.1821 20.332 31.25V42.5H25.332Z" fill="currentColor"/>
<path d="M35.332 55C33.2642 55 31.582 53.3179 31.582 51.25C31.582 49.1821 33.2642 47.5 35.332 47.5V45H31.2445C30.3121 45 29.6805 43.9475 30.166 43.1177C30.6348 42.3165 30.0283 41.2501 29.0821 41.25C28.1768 41.2499 27.531 42.3222 27.998 43.1176C28.478 43.9352 27.8654 45 26.9196 45H20.332V56.25C20.332 58.3179 22.0142 60 24.082 60H35.332V55Z" fill="currentColor"/>
<path d="M47.832 45C47.832 47.0679 46.1499 48.75 44.082 48.75C42.0142 48.75 40.332 47.0679 40.332 45H37.832V49.0869C37.832 50.0235 36.7582 50.6375 35.9503 50.166C35.143 49.6949 34.0821 50.308 34.082 51.25C34.082 52.1612 35.151 52.8045 35.9503 52.334C36.7609 51.8569 37.832 52.4812 37.832 53.4131V60H49.082C51.1499 60 52.832 58.3179 52.832 56.25V45H47.832Z" fill="currentColor"/>
<path d="M56.582 20H44.082C43.3911 20 42.832 20.5591 42.832 21.25V26.5869C42.832 27.5345 43.8975 28.1427 44.7143 27.666C45.5322 27.1888 46.582 27.819 46.582 28.75C46.5821 29.6625 45.515 30.3068 44.7145 29.8341C43.9027 29.3547 42.832 29.9812 42.832 30.9131V36.25C42.832 36.9409 43.3911 37.5 44.082 37.5H47.832C47.832 39.5679 49.5142 41.25 51.582 41.25C53.6499 41.25 55.332 39.5679 55.332 37.5H59.082C59.7729 37.5 60.332 36.9409 60.332 36.25V23.75C60.332 21.6821 58.6499 20 56.582 20Z" fill="currentColor"/>
</g>
<defs>
<clipPath id="clip0_1539_14754">
<rect width="40" height="40" fill="currentColor" transform="translate(20.332 20)"/>
</clipPath>
</defs>
</svg>
