<svg width="40" height="40" viewBox="0 0 40 40" fill="none" xmlns="http://www.w3.org/2000/svg">
<path d="M23.3531 26.1998L18.7406 23.8998C18.5281 23.7998 18.3156 23.7373 18.0906 23.7373C17.8281 23.7373 17.5656 23.8123 17.3281 23.9623C16.8906 24.2373 16.6406 24.6748 16.6406 25.1873V29.7998C16.6406 30.3123 16.8906 30.7623 17.3281 31.0248C17.7656 31.2998 18.2781 31.3248 18.7406 31.0873L23.3531 28.7873C23.8406 28.5373 24.1531 28.0498 24.1531 27.4873C24.1531 26.9248 23.8406 26.4373 23.3531 26.1873V26.1998Z" fill="currentColor"/>
<path d="M20 18.2751C12.6875 18.2751 5.95 15.2126 1.25 9.9126V30.0001C1.25 30.2876 1.35 30.5626 1.525 30.7751C5.5125 35.7626 12.4125 38.7501 20 38.7501C27.5875 38.7501 34.5 35.7751 38.475 30.7751C38.65 30.5501 38.75 30.2751 38.75 30.0001V9.9126C34.05 15.2001 27.3125 18.2751 20 18.2751ZM24.4625 31.0251L19.85 33.3251C19.2875 33.6001 18.6875 33.7501 18.0875 33.7501C17.375 33.7501 16.65 33.5501 16.0125 33.1626C14.8375 32.4376 14.1375 31.1876 14.1375 29.8001V25.1876C14.1375 23.8126 14.8375 22.5501 16.0125 21.8251C17.1875 21.1001 18.625 21.0376 19.85 21.6501L24.4625 23.9501C25.8125 24.6251 26.65 25.9751 26.65 27.4751C26.65 28.9751 25.8125 30.3376 24.4625 31.0001V31.0251ZM29.7375 21.1501C29.5125 21.2251 29.275 21.3001 29.05 21.3626C28.925 21.4001 28.8125 21.4126 28.6875 21.4126C28.15 21.4126 27.65 21.0626 27.4875 20.5251C27.2875 19.8626 27.6625 19.1626 28.325 18.9751C28.5375 18.9126 28.75 18.8501 28.9625 18.7751C29.6125 18.5626 30.325 18.9251 30.5375 19.5751C30.75 20.2376 30.3875 20.9376 29.7375 21.1501ZM34.425 19.0126C34.1625 19.1376 33.9 19.2626 33.6375 19.3876C33.475 19.4626 33.2875 19.5001 33.1125 19.5001C32.6375 19.5001 32.1875 19.2251 31.975 18.7751C31.6875 18.1501 31.975 17.4001 32.5875 17.1126L33.3 16.7751C33.9125 16.4626 34.675 16.7251 34.975 17.3376C35.2875 17.9501 35.025 18.7001 34.4125 19.0126H34.425Z" fill="currentColor"/>
<path d="M16.3094 15.475V2.49998C16.3094 2.12498 16.1469 1.77498 15.8594 1.53748C15.5719 1.29998 15.1969 1.19998 14.8344 1.27498C9.84687 2.21248 5.54688 4.44998 2.54688 7.59998C6.02187 11.8375 10.8969 14.6125 16.3219 15.475H16.3094Z" fill="currentColor"/>
<path d="M37.45 7.58767C34.475 4.46267 30.225 2.25017 25.3 1.28767C24.9375 1.21267 24.55 1.31267 24.2625 1.55017C23.975 1.78767 23.8125 2.13767 23.8125 2.51267V15.4377C29.1875 14.5377 34 11.7752 37.45 7.57517V7.58767Z" fill="currentColor"/>
</svg>
