<svg width="41" height="40" viewBox="0 0 41 40" fill="none" xmlns="http://www.w3.org/2000/svg">
<g clip-path="url(#clip0_1539_20499)">
<path d="M3.33398 13.5C3.33398 12.2593 4.34326 11.25 5.58398 11.25C6.82471 11.25 7.83398 12.2593 7.83398 13.5H9.33398C9.33398 13.5 9.33398 11.0548 9.33398 11.0479C9.33398 10.4875 9.97966 10.1189 10.463 10.4004C10.9503 10.6841 11.584 10.3145 11.584 9.75001C11.584 9.20527 10.9417 8.8179 10.4631 9.09956C9.97417 9.38727 9.33398 9.01682 9.33398 8.45215V4.5H2.58398C1.34326 4.5 0.333984 5.50928 0.333984 6.75V13.5H3.33398Z" fill="currentColor"/>
<path d="M9.33398 21C8.09326 21 7.08398 19.9907 7.08398 18.75C7.08398 17.5093 8.09326 16.5 9.33398 16.5V15H6.88147C6.322 15 5.94307 14.3685 6.23435 13.8706C6.51563 13.3899 6.15173 12.75 5.58404 12.75C5.04086 12.75 4.65335 13.3933 4.93356 13.8706C5.22158 14.3611 4.854 15 4.2865 15H0.333984V21.75C0.333984 22.9907 1.34326 24 2.58398 24H9.33398V21Z" fill="currentColor"/>
<path d="M16.834 15C16.834 16.2407 15.8247 17.25 14.584 17.25C13.3433 17.25 12.334 16.2407 12.334 15H10.834V17.4521C10.834 18.0141 10.1897 18.3825 9.70497 18.0996C9.22055 17.8169 8.584 18.1848 8.58398 18.75C8.58397 19.2967 9.22535 19.6827 9.70494 19.4004C10.1913 19.1141 10.834 19.4887 10.834 20.0479V24H17.584C18.8247 24 19.834 22.9907 19.834 21.75V15H16.834Z" fill="currentColor"/>
<path d="M22.084 0H14.584C14.1694 0 13.834 0.335452 13.834 0.75V3.95213C13.834 4.52071 14.4732 4.88563 14.9633 4.59962C15.4541 4.31325 16.084 4.69141 16.084 5.24998C16.084 5.79748 15.4438 6.18405 14.9634 5.90043C14.4764 5.61281 13.834 5.98873 13.834 6.54785V9.75C13.834 10.1645 14.1694 10.5 14.584 10.5H16.834C16.834 11.7407 17.8433 12.75 19.084 12.75C20.3247 12.75 21.334 11.7407 21.334 10.5H23.584C23.9985 10.5 24.334 10.1645 24.334 9.75V2.25C24.334 1.00928 23.3247 0 22.084 0Z" fill="currentColor"/>
</g>
<defs>
<clipPath id="clip0_1539_20499">
<rect width="40" height="40" fill="currentColor" transform="translate(0.333984)"/>
</clipPath>
</defs>
</svg>
