<svg width="41" height="40" viewBox="0 0 41 40" fill="none" xmlns="http://www.w3.org/2000/svg">
<path d="M13.1506 18.1406C13.4069 18.0844 13.639 17.9491 13.8141 17.7537C13.9891 17.5582 14.0983 17.3127 14.126 17.0518C14.1445 16.8786 14.5713 12.7598 14.0553 8.33121C13.7494 5.70684 12.3955 3.36121 10.3407 1.89574C8.86071 0.840588 7.19602 0.414026 5.77306 0.725745C4.35009 1.03746 3.01634 2.12121 2.11329 3.69887C0.859618 5.88926 0.610634 8.5859 1.43016 11.0979C2.81298 15.3367 4.92329 18.8995 5.01251 19.0491C5.14682 19.2745 5.34864 19.4519 5.58938 19.5562C5.83011 19.6605 6.09756 19.6864 6.35384 19.6302L13.1506 18.1406Z" fill="currentColor"/>
<path d="M14.9453 20.2773C14.7996 20.1597 14.6294 20.0764 14.4472 20.0334C14.265 19.9904 14.0755 19.9889 13.8927 20.029L7.09581 21.5183C6.91293 21.5583 6.74139 21.639 6.59384 21.7542C6.4463 21.8694 6.32653 22.0163 6.24337 22.1841C6.16021 22.3518 6.11579 22.5361 6.11338 22.7233C6.11098 22.9105 6.15065 23.0958 6.22948 23.2656L7.91698 26.9027C8.05259 27.1951 8.29594 27.4238 8.5962 27.541C9.33835 27.8418 10.1303 28.0008 10.931 28.0098C12.4471 28.0098 13.8437 27.3769 15.0482 26.1269C15.2719 25.8949 15.3973 25.5854 15.3983 25.2631L15.4102 21.2537C15.4107 21.0665 15.3693 20.8816 15.2888 20.7126C15.2083 20.5436 15.0909 20.3948 14.9453 20.2773Z" fill="currentColor"/>
<path d="M33.6142 16.0558C33.7444 15.8073 33.8727 15.5552 33.9991 15.2997C35.168 12.9302 35.3057 10.2253 34.3768 7.8787C33.7077 6.18854 32.5418 4.92557 31.1779 4.41464C29.814 3.9037 28.1053 4.08846 26.4904 4.92245C24.2482 6.08026 22.5735 8.20909 21.8966 10.7632C21.2091 13.3578 20.8763 15.8894 20.7188 17.5319C22.5549 16.1872 24.7097 15.3439 26.9709 15.0851C29.232 14.8263 31.5216 15.1609 33.6141 16.0559L33.6142 16.0558Z" fill="currentColor"/>
<path d="M28.459 16.25C21.9111 16.25 16.584 21.5771 16.584 28.125C16.584 34.6729 21.9111 40 28.459 40C35.0069 40 40.334 34.6729 40.334 28.125C40.334 21.5771 35.0069 16.25 28.459 16.25ZM28.459 35C28.2118 35 27.9701 34.9267 27.7645 34.7893C27.559 34.652 27.3987 34.4568 27.3041 34.2284C27.2095 33.9999 27.1848 33.7486 27.233 33.5061C27.2812 33.2637 27.4003 33.0409 27.5751 32.8661C27.7499 32.6913 27.9726 32.5723 28.2151 32.524C28.4576 32.4758 28.7089 32.5005 28.9373 32.5951C29.1657 32.6898 29.361 32.85 29.4983 33.0555C29.6357 33.2611 29.709 33.5028 29.709 33.75C29.709 34.0815 29.5773 34.3995 29.3429 34.6339C29.1084 34.8683 28.7905 35 28.459 35ZM29.709 29.8181V31.25H27.209V28.75C27.209 28.4185 27.3407 28.1005 27.5751 27.8661C27.8095 27.6317 28.1275 27.5 28.459 27.5C28.8298 27.5 29.1923 27.39 29.5007 27.184C29.809 26.978 30.0493 26.6851 30.1913 26.3425C30.3332 25.9999 30.3703 25.6229 30.298 25.2592C30.2256 24.8955 30.047 24.5614 29.7848 24.2992C29.5226 24.037 29.1885 23.8584 28.8248 23.786C28.4611 23.7137 28.0841 23.7508 27.7415 23.8927C27.3988 24.0346 27.106 24.275 26.9 24.5833C26.694 24.8916 26.584 25.2542 26.584 25.625H24.084C24.0841 24.8136 24.3098 24.0183 24.7359 23.3278C25.162 22.6374 25.7717 22.079 26.4969 21.7151C27.2221 21.3513 28.0342 21.1962 28.8425 21.2673C29.6507 21.3385 30.4232 21.6329 31.0737 22.1178C31.7243 22.6028 32.2271 23.259 32.5261 24.0133C32.8251 24.7675 32.9084 25.5901 32.7668 26.389C32.6253 27.1879 32.2643 27.9317 31.7243 28.5373C31.1843 29.1428 30.4865 29.5863 29.709 29.8181Z" fill="currentColor"/>
</svg>
