<svg width="38" height="38" viewBox="0 0 38 38" fill="none" xmlns="http://www.w3.org/2000/svg">
<path d="M12.75 25.25C14.1307 25.25 15.25 24.1307 15.25 22.75C15.25 21.3693 14.1307 20.25 12.75 20.25C11.3693 20.25 10.25 21.3693 10.25 22.75C10.25 24.1307 11.3693 25.25 12.75 25.25Z" fill="currentColor"/>
<path d="M24 6.5V2.75C24 1.375 22.875 0.25 21.5 0.25H16.5C15.125 0.25 14 1.375 14 2.75V6.5H12.75V11.5C12.75 12.1875 13.3125 12.75 14 12.75H24C24.6875 12.75 25.25 12.1875 25.25 11.5V6.5H24ZM21.5 7.75H16.5V2.75H21.5V7.75Z" fill="currentColor"/>
<path d="M34 6.5H27.75V11.5C27.75 13.5625 26.0625 15.25 24 15.25H14C11.9375 15.25 10.25 13.5625 10.25 11.5V6.5H4C1.9375 6.5 0.25 8.1875 0.25 10.25V34C0.25 36.0625 1.9375 37.75 4 37.75H34C36.0625 37.75 37.75 36.0625 37.75 34V10.25C37.75 8.1875 36.0625 6.5 34 6.5ZM19.6125 32.5875C19.0308 32.9026 18.248 32.7275 17.9125 32.1125C16.8375 30.1875 14.8625 29 12.75 29C10.6375 29 8.6625 30.1875 7.5875 32.1125C7.2625 32.7125 6.5 32.925 5.8875 32.5875C5.2875 32.2625 5.075 31.5 5.4125 30.8875C6.4625 29.0125 8.15 27.6375 10.0875 26.9625C8.6875 26.075 7.75 24.525 7.75 22.75C7.75 19.9875 9.9875 17.75 12.75 17.75C15.5125 17.75 17.75 19.9875 17.75 22.75C17.75 24.525 16.8125 26.075 15.4125 26.9625C17.35 27.6375 19.0375 29.0125 20.0875 30.8875C20.425 31.5 20.2125 32.2625 19.6125 32.5875ZM31.5 31.5H25.25C24.5625 31.5 24 30.9375 24 30.25C24 29.5625 24.5625 29 25.25 29H31.5C32.1875 29 32.75 29.5625 32.75 30.25C32.75 30.9375 32.1875 31.5 31.5 31.5ZM31.5 26.5H24C23.3125 26.5 22.75 25.9375 22.75 25.25C22.75 24.5625 23.3125 24 24 24H31.5C32.1875 24 32.75 24.5625 32.75 25.25C32.75 25.9375 32.1875 26.5 31.5 26.5ZM31.5 21.5H22.75C22.0625 21.5 21.5 20.9375 21.5 20.25C21.5 19.5625 22.0625 19 22.75 19H31.5C32.1875 19 32.75 19.5625 32.75 20.25C32.75 20.9375 32.1875 21.5 31.5 21.5Z" fill="currentColor"/>
</svg>
