<svg width="40" height="40" viewBox="0 0 40 40" fill="none" xmlns="http://www.w3.org/2000/svg">
<g clip-path="url(#clip0_1539_27361)">
<path d="M37.4987 23.1497C37.4988 23.1414 37.5 23.1333 37.5 23.125C37.5 23.1121 37.497 23.1001 37.4962 23.0874C37.495 23.0427 37.4874 22.9983 37.4738 22.9556C37.4701 22.9423 37.4687 22.9289 37.464 22.9156L33.1651 10.8251C33.4452 10.6202 33.6724 10.3517 33.8281 10.0416C33.9838 9.73154 34.0634 9.38887 34.0604 9.04193C34.0574 8.69498 33.9719 8.35374 33.8108 8.04641C33.6498 7.73908 33.418 7.47449 33.1344 7.27453C32.8509 7.07457 32.5238 6.94498 32.1803 6.89647C31.8367 6.84797 31.4866 6.88194 31.1588 6.99558C30.8309 7.10922 30.5349 7.29926 30.2951 7.55C30.0552 7.80073 29.8786 8.10495 29.7796 8.4375H23.1223C22.9844 8.01056 22.6984 7.64699 22.316 7.41241L23.6111 5.8107C23.6942 5.70797 23.7425 5.58159 23.7493 5.44967C23.756 5.31776 23.7208 5.1871 23.6487 5.07645L20.5237 0.283661C20.4669 0.196557 20.3892 0.125001 20.2978 0.0754702C20.2063 0.0259397 20.104 0 20 0C19.896 0 19.7937 0.0259397 19.7022 0.0754702C19.6108 0.125001 19.5331 0.196557 19.4763 0.283661L16.3513 5.07645C16.2792 5.1871 16.244 5.31776 16.2507 5.44967C16.2575 5.58159 16.3058 5.70797 16.3889 5.8107L17.684 7.41241C17.3016 7.64699 17.0156 8.01056 16.8777 8.4375H10.2204C10.1217 8.10457 9.94511 7.79994 9.70527 7.54881C9.46544 7.29769 9.16925 7.1073 8.84121 6.9934C8.51317 6.8795 8.16272 6.84537 7.81887 6.89384C7.47501 6.9423 7.14765 7.07196 6.86387 7.27209C6.58009 7.47222 6.34806 7.73706 6.18698 8.04469C6.0259 8.35232 5.9404 8.69389 5.93757 9.04113C5.93474 9.38837 6.01465 9.73129 6.17069 10.0415C6.32673 10.3517 6.55441 10.6203 6.83489 10.825L2.53601 22.9156C2.5313 22.9289 2.52994 22.9423 2.52617 22.9556C2.51256 22.9983 2.50502 23.0427 2.5038 23.0874C2.50303 23.1001 2.5 23.1121 2.5 23.125C2.5 23.1333 2.50122 23.1414 2.50125 23.1497C2.50154 23.1569 2.5018 23.164 2.50234 23.1712C2.5134 24.6552 3.11066 26.0746 4.16391 27.12C5.21716 28.1654 6.64099 28.7521 8.12499 28.7521C9.60899 28.7521 11.0328 28.1654 12.0861 27.12C13.1393 26.0746 13.7366 24.6552 13.7477 23.1712C13.7482 23.164 13.7485 23.1569 13.7487 23.1497C13.7488 23.1414 13.75 23.1333 13.75 23.125C13.75 23.1121 13.747 23.1001 13.7462 23.0874C13.745 23.0427 13.7374 22.9983 13.7238 22.9556C13.72 22.9423 13.7187 22.9289 13.714 22.9156L9.41511 10.8251C9.8001 10.5435 10.0828 10.1442 10.2204 9.6875H16.9477C17.0587 9.93582 17.221 10.1578 17.4239 10.339C17.6268 10.5201 17.8657 10.6562 18.125 10.7384V11.3055C18.1502 12.8543 17.8596 14.3919 17.2711 15.8247C17.0097 16.4548 16.875 17.1302 16.875 17.8124C16.8749 18.4945 17.0094 19.17 17.2708 19.8001C17.8596 21.2329 18.1502 22.7706 18.125 24.3195V33.4375H14.6875C14.3561 33.4379 14.0384 33.5697 13.804 33.804C13.5697 34.0384 13.4379 34.3561 13.4375 34.6875V36.25H11.875C11.3779 36.2505 10.9013 36.4483 10.5498 36.7998C10.1983 37.1513 10.0005 37.6279 10 38.125V39.375C10 39.5408 10.0659 39.6997 10.1831 39.8169C10.3003 39.9341 10.4592 40 10.625 40H29.375C29.5408 40 29.6997 39.9341 29.8169 39.8169C29.9341 39.6997 30 39.5408 30 39.375V38.125C29.9995 37.6279 29.8017 37.1513 29.4502 36.7998C29.0987 36.4483 28.6221 36.2505 28.125 36.25H26.5625V34.6875C26.5621 34.3561 26.4303 34.0384 26.196 33.804C25.9616 33.5697 25.6439 33.4379 25.3125 33.4375H21.875V24.3195C21.8498 22.7707 22.1404 21.2331 22.7289 19.8003C22.9903 19.1702 23.1249 18.4948 23.125 17.8126C23.1251 17.1305 22.9906 16.455 22.7292 15.8249C22.1404 14.3921 21.8498 12.8544 21.875 11.3055V10.7384C22.1343 10.6562 22.3732 10.5201 22.5761 10.339C22.779 10.1578 22.9413 9.93582 23.0523 9.6875H29.7796C29.9172 10.1442 30.1999 10.5435 30.5849 10.825L26.286 22.9156C26.2813 22.9289 26.2799 22.9423 26.2762 22.9556C26.2626 22.9983 26.255 23.0427 26.2538 23.0874C26.253 23.1001 26.25 23.1121 26.25 23.125C26.25 23.1333 26.2512 23.1414 26.2512 23.1497C26.2515 23.1569 26.2518 23.164 26.2523 23.1712C26.2634 24.6552 26.8607 26.0746 27.9139 27.12C28.9672 28.1654 30.391 28.7521 31.875 28.7521C33.359 28.7521 34.7828 28.1654 35.8361 27.12C36.8893 26.0746 37.4866 24.6552 37.4977 23.1712C37.4982 23.164 37.4985 23.1569 37.4987 23.1497ZM12.2394 22.5H4.01062L8.0126 11.2443C8.05008 11.2463 8.08706 11.25 8.125 11.25C8.16294 11.25 8.19992 11.2463 8.2374 11.2443L12.2394 22.5ZM25.3125 34.6875V36.25H14.6875V34.6875H25.3125ZM21.25 9.58557H18.75C18.5752 9.59721 18.4028 9.53952 18.2703 9.425C18.1377 9.31047 18.0556 9.14833 18.0417 8.9737C18.0556 8.79906 18.1377 8.63692 18.2703 8.52239C18.4028 8.40787 18.5752 8.35017 18.75 8.36181H21.25C21.4248 8.35017 21.5972 8.40786 21.7297 8.52239C21.8623 8.63691 21.9444 8.79905 21.9583 8.97369C21.9444 9.14833 21.8623 9.31047 21.7297 9.425C21.5972 9.53952 21.4248 9.59721 21.25 9.58557ZM31.7626 11.2443C31.8001 11.2463 31.8371 11.25 31.875 11.25C31.9129 11.25 31.9499 11.2463 31.9874 11.2443L35.9894 22.5H27.7606L31.7626 11.2443Z" fill="currentColor"/>
</g>
<defs>
<clipPath id="clip0_1539_27361">
<rect width="40" height="40" fill="currentColor"/>
</clipPath>
</defs>
</svg>
