<svg width="16" height="16" viewBox="0 0 16 16" fill="none" xmlns="http://www.w3.org/2000/svg">
<g id="social">
<path id="Vector" d="M4.00078 2.40005C4.00078 3.24965 3.43278 3.98085 2.39998 3.98085C1.42798 3.98085 0.800781 3.29125 0.800781 2.44165C0.800781 1.56965 1.40878 0.800049 2.40078 0.800049C3.39278 0.800049 3.98158 1.52805 4.00078 2.40005ZM0.800781 15.2V4.80005H4.00078V15.2H0.800781ZM5.60078 8.35525C5.60078 7.11925 5.55998 6.08645 5.51918 5.19445H8.39438L8.53678 6.57285H8.59758C9.00238 5.92405 9.99438 4.97285 11.6552 4.97285C13.6808 4.97285 15.2008 6.32885 15.2008 9.24645V15.2H12.0008V9.71125C12.0008 8.43605 11.5152 7.46325 10.4008 7.46325C9.55118 7.46325 9.12558 8.15125 8.90238 8.71845C8.82078 8.92165 8.80078 9.20485 8.80078 9.48885V15.2H5.60078V8.35525Z" fill="currentColor"/>
</g>
</svg>
