<svg width="41" height="40" viewBox="0 0 41 40" fill="none" xmlns="http://www.w3.org/2000/svg">
<g clip-path="url(#clip0_1539_13565)">
<path d="M5.33203 22.5C5.33203 20.4321 7.01416 18.75 9.08203 18.75C11.1499 18.75 12.832 20.4321 12.832 22.5H15.332C15.332 22.5 15.332 18.4246 15.332 18.4131C15.332 17.4792 16.4082 16.8649 17.2137 17.334C18.0259 17.8069 19.082 17.1908 19.082 16.25C19.082 15.3421 18.0116 14.6965 17.2139 15.1659C16.399 15.6454 15.332 15.028 15.332 14.0869V7.5H4.08203C2.01416 7.5 0.332031 9.18213 0.332031 11.25V22.5H5.33203Z" fill="currentColor"/>
<path d="M15.332 35C13.2642 35 11.582 33.3179 11.582 31.25C11.582 29.1821 13.2642 27.5 15.332 27.5V25H11.2445C10.3121 25 9.68051 23.9475 10.166 23.1177C10.6348 22.3165 10.0283 21.2501 9.08212 21.25C8.17682 21.2499 7.53098 22.3222 7.99799 23.1176C8.47803 23.9352 7.86539 25 6.91956 25H0.332031V36.25C0.332031 38.3179 2.01416 40 4.08203 40H15.332V35Z" fill="currentColor"/>
<path d="M27.832 25C27.832 27.0679 26.1499 28.75 24.082 28.75C22.0142 28.75 20.332 27.0679 20.332 25H17.832V29.0869C17.832 30.0235 16.7582 30.6375 15.9503 30.166C15.143 29.6949 14.0821 30.308 14.082 31.25C14.082 32.1612 15.151 32.8045 15.9503 32.334C16.7609 31.8569 17.832 32.4812 17.832 33.4131V40H29.082C31.1499 40 32.832 38.3179 32.832 36.25V25H27.832Z" fill="currentColor"/>
<path d="M36.582 0H24.082C23.3911 0 22.832 0.559087 22.832 1.25V6.58689C22.832 7.53452 23.8975 8.14271 24.7143 7.66604C25.5322 7.18875 26.582 7.81901 26.582 8.74996C26.5821 9.66247 25.515 10.3068 24.7145 9.83405C23.9027 9.35469 22.832 9.98123 22.832 10.9131V16.25C22.832 16.9409 23.3911 17.5 24.082 17.5H27.832C27.832 19.5679 29.5142 21.25 31.582 21.25C33.6499 21.25 35.332 19.5679 35.332 17.5H39.082C39.7729 17.5 40.332 16.9409 40.332 16.25V3.75C40.332 1.68213 38.6499 0 36.582 0Z" fill="currentColor"/>
</g>
<defs>
<clipPath id="clip0_1539_13565">
<rect width="40" height="40" fill="currentColor" transform="translate(0.332031)"/>
</clipPath>
</defs>
</svg>
