<svg width="40" height="40" viewBox="0 0 40 40" fill="none" xmlns="http://www.w3.org/2000/svg">
<g opacity="0.9">
<path opacity="0.4" d="M14.2202 33.9927L14.22 33.9925C9.49497 29.4493 4.49077 22.4252 6.34818 14.2327C8.00203 6.95576 14.3592 3.6665 19.9835 3.6665H19.9836H19.9837H19.9838H19.9839H19.984H19.9841H19.9842H19.9843H19.9844H19.9844H19.9845H19.9846H19.9847H19.9848H19.9849H19.985H19.9851H19.9852H19.9853H19.9854H19.9855H19.9855H19.9856H19.9857H19.9858H19.9859H19.986H19.9861H19.9862H19.9863H19.9863H19.9864H19.9865H19.9866H19.9867H19.9868H19.9868H19.9869H19.987H19.9871H19.9872H19.9873H19.9873H19.9874H19.9875H19.9876H19.9877H19.9878H19.9878H19.9879H19.988H19.9881H19.9881H19.9882H19.9883H19.9884H19.9885H19.9885H19.9886H19.9887H19.9888H19.9888H19.9889H19.989H19.9891H19.9891H19.9892H19.9893H19.9894H19.9894H19.9895H19.9896H19.9897H19.9897H19.9898H19.9899H19.9899H19.99H19.9901H19.9901H19.9902H19.9903H19.9904H19.9904H19.9905H19.9906H19.9906H19.9907H19.9908H19.9908H19.9909H19.991H19.991H19.9911H19.9912H19.9912H19.9913H19.9913H19.9914H19.9915H19.9915H19.9916H19.9917H19.9917H19.9918H19.9918H19.9919H19.992H19.992H19.9921H19.9922H19.9922H19.9923H19.9923H19.9924H19.9924H19.9925H19.9926H19.9926H19.9927H19.9927H19.9928H19.9928H19.9929H19.993H19.993H19.9931H19.9931H19.9932H19.9932H19.9933H19.9933H19.9934H19.9935H19.9935H19.9936H19.9936H19.9937H19.9937H19.9938H19.9938H19.9939H19.9939H19.994H19.994H19.9941H19.9941H19.9942H19.9942H19.9943H19.9943H19.9944H19.9944H19.9945H19.9945H19.9946H19.9946H19.9946H19.9947H19.9947H19.9948H19.9948H19.9949H19.9949H19.995H19.995H19.9951H19.9951H19.9951H19.9952H19.9952H19.9953H19.9953H19.9954H19.9954H19.9954H19.9955H19.9955H19.9956H19.9956H19.9957H19.9957H19.9957H19.9958H19.9958H19.9959H19.9959H19.9959H19.996H19.996H19.996H19.9961H19.9961H19.9962H19.9962H19.9962H19.9963H19.9963H19.9963H19.9964H19.9964H19.9965H19.9965H19.9965H19.9966H19.9966H19.9966H19.9967H19.9967H19.9967H19.9968H19.9968H19.9968H19.9969H19.9969H19.9969H19.997H19.997H19.997H19.9971H19.9971H19.9971H19.9972H19.9972H19.9972H19.9973H19.9973H19.9973H19.9973H19.9974H19.9974H19.9974H19.9975H19.9975H19.9975H19.9975H19.9976H19.9976H19.9976H19.9977H19.9977H19.9977H19.9977H19.9978H19.9978H19.9978H19.9978H19.9979H19.9979H19.9979H19.9979H19.998H19.998H19.998H19.998H19.9981H19.9981H19.9981H19.9981H19.9982H19.9982H19.9982H19.9982H19.9983H19.9983H19.9983H19.9983H19.9984H19.9984H19.9984H19.9984H19.9984H19.9985H19.9985H19.9985H19.9985H19.9985H19.9986H19.9986H19.9986H19.9986H19.9986H19.9987H19.9987H19.9987H19.9987H19.9987H19.9988H19.9988H19.9988H19.9988H19.9988H19.9989H19.9989H19.9989H19.9989H19.9989H19.9989H19.999H19.999H19.999H19.999H19.999H19.999H19.9991H19.9991H19.9991H19.9991H19.9991H19.9991H19.9991H19.9992H19.9992H19.9992H19.9992H19.9992H19.9992H19.9993H19.9993H19.9993H19.9993H19.9993H19.9993H19.9993H19.9993H19.9994H19.9994H19.9994H19.9994H19.9994H19.9994H19.9994H19.9994H19.9995H19.9995H19.9995H19.9995H19.9995H19.9995H19.9995H19.9995H19.9995H19.9996H19.9996H19.9996H19.9996H19.9996H19.9996H19.9996H19.9996H19.9996H19.9996H19.9997H19.9997H19.9997H19.9997H19.9997H19.9997H19.9997H19.9997H19.9997H19.9997H19.9997H19.9998H19.9998H19.9998H19.9998H19.9998H19.9998H19.9998H19.9998H19.9998H19.9998H19.9998H19.9999H19.9999H19.9999H19.9999H19.9999H19.9999H19.9999H19.9999H19.9999H20H20H20H20H20H20H20H20H20H20H20H20.0001H20.0001H20.0001H20.0001H20.0001H20.0001H20.0001H20.0001H20.0001H20.0001H20.0001H20.0001H20.0002C25.639 3.6665 31.981 6.97068 33.6354 14.249C35.4929 22.4413 30.4892 29.4487 25.7637 33.9925L25.7609 33.9952C24.1562 35.554 22.0793 36.3332 20.0002 36.3332C17.9217 36.3332 15.8431 35.5544 14.2202 33.9927Z" fill="currentColor" stroke="currentColor" stroke-width="1.5"/>
<path d="M24.5 17.1831C24.5 19.6684 22.4853 21.6831 20 21.6831C17.5147 21.6831 15.5 19.6684 15.5 17.1831C15.5 14.6978 17.5147 12.6831 20 12.6831C22.4853 12.6831 24.5 14.6978 24.5 17.1831Z" fill="currentColor" stroke="currentColor" stroke-width="1.5"/>
</g>
</svg>
