<svg width="40" height="40" viewBox="0 0 40 40" fill="none" xmlns="http://www.w3.org/2000/svg">
<g clip-path="url(#clip0_1539_36135)">
<path d="M9.65625 22.0492L9.65633 22.0495C9.68109 22.0245 9.67945 22.026 9.65625 22.0492Z" fill="currentColor"/>
<path d="M39.1161 16.5203L37.127 16.042C36.6945 14.1539 35.9496 12.3597 34.9084 10.6914L35.9164 8.99908C36.1911 8.53799 36.1166 7.94978 35.7379 7.57103L32.4344 4.26752C32.0556 3.88994 31.4687 3.81439 31.0063 4.089L29.314 5.09705C27.6457 4.0558 25.8515 3.31088 23.9634 2.87838L23.4852 0.889316C23.3547 0.368691 22.8867 0.00244141 22.3489 0.00244141H17.662C17.1242 0.00244141 16.6562 0.368613 16.5258 0.889316L16.0475 2.87838C14.1595 3.31088 12.3652 4.0558 10.697 5.09705L9.00461 4.089C8.54352 3.81432 7.95531 3.88877 7.57656 4.26752L4.27289 7.57096C3.89414 7.94971 3.81977 8.53783 4.09438 8.999L5.10242 10.6913C4.06117 12.3596 3.31625 14.1538 2.88375 16.0419L0.894688 16.5202C0.374063 16.6506 0.0078125 17.1186 0.0078125 17.6564V22.3433C0.0078125 22.8811 0.373984 23.3503 0.895781 23.4795L2.88484 23.9578C3.1732 25.2089 3.60719 26.4109 4.16453 27.5637C5.02508 26.6996 9.34711 22.3591 9.65773 22.0488C9.64242 21.9699 9.475 20.4691 9.47055 20.1767C9.37086 14.2059 14.1802 9.45541 20.0099 9.45541C25.8796 9.45541 30.5602 14.1884 30.538 20.0364C30.5129 25.4448 26.4763 30.049 20.8384 30.4701C20.5945 30.4888 19.4919 30.6515 17.9549 30.3485L12.4556 35.8478C13.6041 36.4018 14.8015 36.833 16.0474 37.1203L16.5257 39.1105C16.6562 39.6311 17.1241 39.9974 17.662 39.9974H22.3488C22.8866 39.9974 23.3546 39.6312 23.4851 39.1105L23.9634 37.1214C25.8514 36.6889 27.6456 35.944 29.3139 34.9028L31.0063 35.9108C31.4651 36.1855 32.0544 36.1099 32.4343 35.7323L35.7378 32.4288C36.1166 32.05 36.1909 31.4619 35.9163 31.0007L34.9083 29.3084C35.9507 27.6401 36.6945 25.8459 37.127 23.9567L39.1148 23.4795C39.6366 23.3503 40.0028 22.8811 40.0028 22.3433V17.6564C40.0028 17.1187 39.6367 16.6506 39.1161 16.5203Z" fill="currentColor"/>
<path d="M27.9311 17.8579C27.8283 17.4545 27.5168 17.1372 27.1151 17.0272C26.7136 16.917 26.2847 17.0318 25.9902 17.3261L23.3164 20.0001C22.4024 20.9141 20.9166 20.9141 20.0026 20.0001C19.0894 19.087 19.0894 17.5995 20.0026 16.6863L22.6776 14.0113C22.9719 13.7169 23.0856 13.2872 22.9755 12.8859C22.8654 12.4846 22.5484 12.1726 22.1451 12.0701C17.2008 10.8136 12.7515 14.0342 11.9354 18.4816C11.6734 19.9463 11.7901 21.4052 12.2695 22.7486C11.6028 23.4154 1.30482 33.7132 1.02802 33.9901C-0.346273 35.3644 -0.346273 37.6003 1.04974 38.9963C2.43271 40.3072 4.55076 40.3624 6.0124 38.9746L17.254 27.733C19.0542 28.3755 21.0619 28.3625 23.0267 27.6692C26.5669 26.42 29.0447 22.2275 27.9311 17.8579Z" fill="currentColor"/>
</g>
<defs>
<clipPath id="clip0_1539_36135">
<rect width="40" height="40" fill="currentColor"/>
</clipPath>
</defs>
</svg>
