<svg width="40" height="40" viewBox="0 0 40 40" fill="none" xmlns="http://www.w3.org/2000/svg">
<path d="M2.40078 39.2H9.44078C10.4008 39.2 11.0408 38.56 11.0408 37.6C11.0408 36.64 10.4008 36 9.44078 36H4.00078V30.56C4.00078 29.6 3.36078 28.96 2.40078 28.96C1.44078 28.96 0.800781 29.6 0.800781 30.56V37.6C0.800781 38.56 1.44078 39.2 2.40078 39.2Z" fill="currentColor"/>
<path d="M2.40078 11.0398C3.36078 11.0398 4.00078 10.3998 4.00078 9.43981V3.9998H9.60078C10.5608 3.9998 11.2008 3.3598 11.2008 2.3998C11.2008 1.4398 10.5608 0.799805 9.60078 0.799805H2.40078C1.44078 0.799805 0.800781 1.4398 0.800781 2.3998V9.59981C0.800781 10.3998 1.44078 11.0398 2.40078 11.0398Z" fill="currentColor"/>
<path d="M28.9609 2.3998C28.9609 3.3598 29.6009 3.9998 30.5609 3.9998H36.0009V9.43981C36.0009 10.3998 36.6409 11.0398 37.6009 11.0398C38.5609 11.0398 39.2009 10.3998 39.2009 9.43981V2.3998C39.2009 1.4398 38.5609 0.799805 37.6009 0.799805H30.5609C29.6009 0.799805 28.9609 1.4398 28.9609 2.3998Z" fill="currentColor"/>
<path d="M30.5609 39.1998H37.6009C38.5609 39.1998 39.2009 38.5598 39.2009 37.5998V30.3998C39.2009 29.4398 38.5609 28.7998 37.6009 28.7998C36.6409 28.7998 36.0009 29.4398 36.0009 30.3998V35.9998H30.5609C29.6009 35.9998 28.9609 36.6398 28.9609 37.5998C28.9609 38.5598 29.6009 39.1998 30.5609 39.1998Z" fill="currentColor"/>
<path d="M33.4405 20.3199C33.4405 18.3999 32.8005 16.7999 31.6805 15.8399C31.6805 15.5199 31.5205 15.3599 31.3605 15.0399C30.8805 9.91994 27.3605 6.39994 21.7605 5.59994C20.9605 5.43994 20.0005 5.43994 19.2005 5.43994C15.8405 5.59994 12.4805 7.19994 10.5605 9.59994C9.28055 11.1999 8.48055 13.1199 8.48055 15.3599C8.48055 15.5199 8.32055 15.6799 8.32055 15.8399C7.20055 16.7999 6.56055 18.3999 6.56055 20.3199C6.56055 22.3999 7.36055 24.1599 8.64055 24.9599C10.2405 29.9199 14.4005 35.0399 20.0005 35.0399C25.6005 35.0399 29.6005 29.9199 31.3605 24.9599C32.6405 24.1599 33.4405 22.3999 33.4405 20.3199ZM29.6005 22.3999C28.9605 22.5599 28.6405 23.0399 28.4805 23.5199C27.2005 27.6799 24.0005 31.9999 20.0005 31.9999C16.0005 31.9999 12.8005 27.6799 11.5205 23.5199C11.3605 23.0399 11.0405 22.5599 10.4005 22.3999C10.2405 22.2399 9.76055 21.5999 9.76055 20.3199C9.76055 19.0399 10.2405 18.3999 10.4005 18.2399C10.5605 18.0799 10.7205 18.0799 10.8805 17.9199H12.6405C15.6805 17.7599 18.4005 16.4799 20.1605 14.5599C22.0805 17.1199 25.1205 18.5599 28.4805 18.5599C29.1205 18.5599 29.4405 18.5599 29.7605 18.3999C29.9205 18.5599 30.2405 19.1999 30.2405 20.3199C30.2405 21.5999 29.7605 22.2399 29.6005 22.3999Z" fill="currentColor"/>
</svg>
