<svg width="40" height="40" viewBox="0 0 40 40" fill="none" xmlns="http://www.w3.org/2000/svg">
<path d="M23.9571 4.53883C24.0178 4.47416 24.0005 4.39683 23.9905 4.36683C23.9731 4.31416 23.9425 4.28416 23.8991 4.27616L21.6371 3.88416C21.4285 3.8475 21.2491 3.71416 21.1538 3.52416L20.0978 1.4035C20.0891 1.38616 20.0625 1.3335 20.0005 1.3335C19.9385 1.3335 19.9111 1.38683 19.9031 1.40416L18.8471 3.52416C18.7518 3.71416 18.5731 3.8475 18.3638 3.88416L16.1025 4.27616C16.0591 4.28416 16.0285 4.31416 16.0105 4.36683C15.9998 4.39683 15.9831 4.47416 16.0438 4.53883L17.6518 6.2415C17.7918 6.3895 17.8565 6.59283 17.8271 6.79416L17.4858 9.15683C17.4725 9.2515 17.5238 9.29816 17.5458 9.31416C17.5911 9.3455 17.6238 9.33016 17.6425 9.3215L19.6925 8.25283C19.8851 8.15283 20.1158 8.15283 20.3085 8.25283L22.3585 9.3215C22.3758 9.33083 22.4078 9.3455 22.4551 9.31416C22.4771 9.29816 22.5278 9.25083 22.5151 9.15683L22.1738 6.79416C22.1445 6.59283 22.2091 6.3895 22.3491 6.2415L23.9571 4.53883Z" fill="currentColor"/>
<path d="M5.5458 14.6472C5.5918 14.6785 5.6238 14.6638 5.64247 14.6545L7.69247 13.5858C7.88513 13.4858 8.1158 13.4858 8.30847 13.5858L10.3585 14.6545C10.3758 14.6645 10.4078 14.6785 10.4551 14.6472C10.4771 14.6312 10.5278 14.5838 10.5151 14.4898L10.1738 12.1272C10.1445 11.9258 10.2091 11.7225 10.3491 11.5745L11.9571 9.87184C12.0178 9.80717 12.0005 9.72984 11.9905 9.69984C11.9731 9.64717 11.9425 9.61717 11.8991 9.60917L9.63713 9.21717C9.42847 9.1805 9.24913 9.04717 9.1538 8.85717L8.0978 6.7365C8.08913 6.71917 8.06247 6.6665 8.00047 6.6665C7.93847 6.6665 7.91113 6.71984 7.90313 6.73717L6.84713 8.85717C6.7518 9.04717 6.57313 9.1805 6.3638 9.21717L4.10247 9.60917C4.05913 9.61717 4.02847 9.64717 4.01047 9.69984C3.9998 9.72984 3.98313 9.80717 4.0438 9.87184L5.6518 11.5745C5.7918 11.7225 5.85647 11.9258 5.82713 12.1272L5.4858 14.4898C5.47247 14.5845 5.5238 14.6312 5.5458 14.6472Z" fill="currentColor"/>
<path d="M35.9571 9.87184C36.0178 9.80717 36.0005 9.72984 35.9905 9.69984C35.9731 9.64717 35.9425 9.61717 35.8991 9.60917L33.6371 9.21717C33.4285 9.1805 33.2491 9.04717 33.1538 8.85717L32.0978 6.7365C32.0891 6.71917 32.0625 6.6665 32.0005 6.6665C31.9385 6.6665 31.9111 6.71984 31.9031 6.73717L30.8471 8.85717C30.7518 9.04717 30.5731 9.1805 30.3638 9.21717L28.1025 9.60917C28.0591 9.61717 28.0285 9.64717 28.0105 9.69984C27.9998 9.72984 27.9831 9.80717 28.0438 9.87184L29.6518 11.5745C29.7918 11.7225 29.8565 11.9258 29.8271 12.1272L29.4858 14.4898C29.4725 14.5845 29.5238 14.6312 29.5458 14.6472C29.5911 14.6785 29.6245 14.6638 29.6425 14.6545L31.6925 13.5858C31.8851 13.4858 32.1158 13.4858 32.3085 13.5858L34.3585 14.6545C34.3758 14.6645 34.4078 14.6785 34.4551 14.6472C34.4771 14.6312 34.5278 14.5838 34.5151 14.4898L34.1738 12.1272C34.1445 11.9258 34.2091 11.7225 34.3491 11.5745L35.9571 9.87184Z" fill="currentColor"/>
<path d="M20 38.6665C21.1046 38.6665 22 37.7711 22 36.6665C22 35.5619 21.1046 34.6665 20 34.6665C18.8954 34.6665 18 35.5619 18 36.6665C18 37.7711 18.8954 38.6665 20 38.6665Z" fill="currentColor"/>
<path d="M22.3281 34.2909C22.8895 34.8416 23.2435 35.5916 23.3048 36.4229C26.5348 34.6236 30.9668 31.9889 34.1668 30.0742C28.9048 31.8802 25.0115 33.2676 22.3281 34.2909Z" fill="currentColor"/>
<path d="M19.3331 25.3673V17.3506C14.6891 17.5146 10.4724 19.3813 7.28906 22.3473L12.9544 28.0126C14.6791 26.4899 16.8944 25.5193 19.3331 25.3673Z" fill="currentColor"/>
<path d="M9.33594 36.0002C9.33594 33.2989 10.3533 30.8362 12.0146 28.9549L6.34927 23.2896C3.24194 26.6249 1.33594 31.0929 1.33594 36.0002H9.33594Z" fill="currentColor"/>
<path d="M20.6641 17.3501V25.3561C23.0554 25.5054 25.2921 26.4554 27.0487 28.0061L32.7081 22.3468C29.5247 19.3814 25.3087 17.5148 20.6641 17.3501Z" fill="currentColor"/>
<path d="M27.9922 28.9501C28.3942 29.4061 28.7602 29.8981 29.0842 30.4254C30.5015 29.9281 32.0495 29.3914 33.7435 28.8094C34.4049 28.5814 35.0909 28.8761 35.3842 29.5021C35.6782 30.1321 35.4575 30.8528 34.8582 31.2161C33.5395 32.0054 32.0109 32.9168 30.4435 33.8414C30.5889 34.5468 30.6669 35.2694 30.6669 35.9988H38.6669C38.6669 31.0914 36.7609 26.6234 33.6535 23.2881L27.9929 28.9488L27.9922 28.9501Z" fill="currentColor"/>
</svg>
