<svg width="32" height="32" viewBox="0 0 32 32" fill="none" xmlns="http://www.w3.org/2000/svg">
<path d="M22.668 2.66667H9.33464C5.65464 2.66667 2.66797 5.64 2.66797 9.30667V17.28V18.6133C2.66797 22.28 5.65464 25.2533 9.33464 25.2533H11.3346C11.6946 25.2533 12.1746 25.4933 12.4013 25.7867L14.4013 28.44C15.2813 29.6133 16.7213 29.6133 17.6013 28.44L19.6013 25.7867C19.8546 25.4533 20.2546 25.2533 20.668 25.2533H22.668C26.348 25.2533 29.3346 22.28 29.3346 18.6133V9.30667C29.3346 5.64 26.348 2.66667 22.668 2.66667ZM10.668 16C9.9213 16 9.33464 15.4 9.33464 14.6667C9.33464 13.9333 9.93464 13.3333 10.668 13.3333C11.4013 13.3333 12.0013 13.9333 12.0013 14.6667C12.0013 15.4 11.4146 16 10.668 16ZM16.0013 16C15.2546 16 14.668 15.4 14.668 14.6667C14.668 13.9333 15.268 13.3333 16.0013 13.3333C16.7346 13.3333 17.3346 13.9333 17.3346 14.6667C17.3346 15.4 16.748 16 16.0013 16ZM21.3346 16C20.588 16 20.0013 15.4 20.0013 14.6667C20.0013 13.9333 20.6013 13.3333 21.3346 13.3333C22.068 13.3333 22.668 13.9333 22.668 14.6667C22.668 15.4 22.0813 16 21.3346 16Z" fill="white"/>
</svg>
