<svg width="24" height="24" viewBox="0 0 24 24" fill="none" xmlns="http://www.w3.org/2000/svg">
<path d="M0.780006 22.7287C0.719994 22.8712 0.753754 23.0325 0.858742 23.1412C0.929993 23.2125 1.0275 23.25 1.125 23.25C1.17375 23.25 1.2225 23.2387 1.27126 23.22L5.745 21.345C7.60501 22.5938 9.76126 23.25 12 23.25C18.2025 23.25 23.25 18.2025 23.25 12C23.25 5.79749 18.2025 0.75 12 0.75C5.79751 0.75 0.75 5.79749 0.75 12C0.75 14.2387 1.40625 16.395 2.65501 18.255L0.780006 22.7287ZM13.1925 7.20749L14.115 9.075C14.1975 9.24374 14.3625 9.36374 14.55 9.38999L16.6087 9.68999C17.115 9.76499 17.5275 10.11 17.685 10.5975C17.8425 11.0812 17.7112 11.6025 17.3475 11.9588L15.8587 13.41C15.72 13.545 15.6563 13.7363 15.69 13.9238L16.0425 15.975C16.1288 16.4813 15.9262 16.9762 15.5137 17.2763C15.1013 17.5762 14.565 17.6175 14.1113 17.3775L12.27 16.41C12.1013 16.32 11.8987 16.32 11.73 16.41L9.88875 17.3775C9.69001 17.4825 9.48001 17.5312 9.26626 17.5312C8.99249 17.5312 8.71875 17.4487 8.48625 17.2763C8.07376 16.9762 7.87125 16.4813 7.95749 15.975L8.30999 13.9238C8.34375 13.7363 8.28001 13.545 8.14126 13.41L6.6525 11.9588C6.28876 11.6025 6.15749 11.0812 6.31501 10.5975C6.4725 10.11 6.88499 9.76499 7.39126 9.68999L9.45 9.38999C9.6375 9.36374 9.80251 9.24374 9.88499 9.075L10.8075 7.20749C11.0325 6.75 11.49 6.465 12 6.465C12.51 6.465 12.9675 6.75 13.1925 7.20749Z" fill="currentColor"/>
</svg>
