<svg width="41" height="40" viewBox="0 0 41 40" fill="none" xmlns="http://www.w3.org/2000/svg">
<path d="M35.2807 17.2833V22.6C35.2807 26.4667 32.1474 29.6 28.2807 29.6H22.3474C21.4307 29.6 20.6807 30.3333 20.6807 31.2667V32.6333C20.6807 33.55 21.4307 34.3 22.3474 34.3H26.1141C26.7641 34.3 27.2974 34.8167 27.2974 35.4833C27.2974 36.1333 26.7641 36.6667 26.1141 36.6667H12.8807C12.2307 36.6667 11.6974 36.1333 11.6974 35.4833C11.6974 34.8167 12.2307 34.3 12.8807 34.3H16.6474C17.5641 34.3 18.3141 33.55 18.3141 32.6333V31.2667C18.3141 30.3333 17.5641 29.6 16.6474 29.6H10.6474C6.7974 29.6 3.66406 26.4667 3.66406 22.6V11.9833C3.66406 8.13333 6.7974 5 10.6474 5H17.8307C18.7474 5 19.4974 5.75 19.4974 6.66667V10.25C19.4974 13.4667 21.6474 15.6167 24.8474 15.6167H33.6141C34.5307 15.6167 35.2807 16.3667 35.2807 17.2833Z" fill="currentColor"/>
<path d="M36.9833 3.93319L35.1 5.24985V4.54985C35.1 2.96652 33.8167 1.69985 32.25 1.69985H25.1167C23.4 1.68319 22 3.08319 22 4.79985V10.2665C22 11.6999 22.7167 13.1165 24.85 13.1165H32.2333C33.8167 13.1165 35.0833 11.8332 35.0833 10.2665V9.54985L36.9667 10.8665C37.9167 11.5165 38.6667 11.1165 38.6667 9.98319V4.81652C38.6667 3.68319 37.9167 3.29985 36.9833 3.93319Z" fill="currentColor"/>
</svg>
