<svg width="31" height="40" viewBox="0 0 31 40" fill="none" xmlns="http://www.w3.org/2000/svg">
<path d="M0.0410156 25.1855H14.1577V30.5957H0.0410156V25.1855Z" fill="currentColor"/>
<path d="M16.502 25.1855H30.6274V30.5957H16.502V25.1855Z" fill="currentColor"/>
<path d="M16.502 40H29.4555C30.1027 40 30.6274 39.4753 30.6274 38.8281V32.9395H16.502V40Z" fill="currentColor"/>
<path d="M0.0410156 32.9395V38.8281C0.0410156 39.4753 0.565703 40 1.21289 40H14.1577V32.9395H0.0410156Z" fill="currentColor"/>
<path d="M14.1577 14.2167L8.94859 0H5.91992C5.27273 0 4.74805 0.524687 4.74805 1.17188V8.91187C4.74805 12.0452 3.18555 14.9447 0.568438 16.6677C0.239219 16.8845 0.0410156 17.2523 0.0410156 17.6465V22.8418H14.1577V14.2167Z" fill="currentColor"/>
<path d="M16.502 22.8418H30.6274V17.6465C30.6274 17.2523 30.4292 16.8845 30.1 16.6677C27.4828 14.9446 25.9204 12.0453 25.9204 8.91187V1.17188C25.9204 0.524687 25.3957 0 24.7485 0H21.7191L16.502 14.212V22.8418H16.502Z" fill="currentColor"/>
<path d="M19.2226 0H11.4453L15.3304 10.6029L19.2226 0Z" fill="currentColor"/>
</svg>
