<svg width="20" height="20" viewBox="0 0 20 20" fill="none" xmlns="http://www.w3.org/2000/svg">
<path fill-rule="evenodd" clip-rule="evenodd" d="M1.66675 10.0671C1.66675 5.4279 5.42756 1.66709 10.0667 1.66709C10.6839 1.66399 11.2993 1.73392 11.9001 1.87542C9.52245 2.55618 7.96634 4.83322 8.1959 7.29571C8.42546 9.7582 10.3756 11.7084 12.8381 11.9379C15.3006 12.1675 17.5777 10.6114 18.2584 8.23376C18.3999 8.83451 18.4698 9.4499 18.4667 10.0671C18.4667 14.7063 14.7059 18.4671 10.0667 18.4671C5.42756 18.4671 1.66675 14.7063 1.66675 10.0671ZM8.78588 11.3473C6.60674 9.17016 6.29038 5.74849 8.03342 3.20876C4.75269 4.18314 2.62248 7.34566 2.95238 10.7521C3.28229 14.1585 5.97979 16.8535 9.38652 17.1802C12.7933 17.5069 15.9538 15.3737 16.9251 12.0921C14.387 13.8375 10.965 13.5244 8.78588 11.3473Z" fill="currentColor"/>
</svg>
