<svg width="41" height="40" viewBox="0 0 41 40" fill="none" xmlns="http://www.w3.org/2000/svg">
<path d="M31.5016 6.84987L23.1849 3.7332C21.8016 3.21654 19.5349 3.21654 18.1516 3.7332L9.8349 6.84987C7.91823 7.56654 6.35156 9.8332 6.35156 11.8665V24.2499C6.35156 26.2165 7.65156 28.7999 9.2349 29.9832L16.4016 35.3332C18.7516 37.0999 22.6182 37.0999 24.9682 35.3332L32.1349 29.9832C33.7182 28.7999 35.0182 26.2165 35.0182 24.2499V11.8665C34.9849 9.8332 33.4182 7.56654 31.5016 6.84987ZM20.5516 11.7165C22.5182 11.7165 24.1182 13.3165 24.1182 15.2832C24.1182 17.2165 22.6016 18.7665 20.6849 18.8332H20.6516H20.6182C20.5849 18.8332 20.5516 18.8332 20.5182 18.8332C18.5182 18.7665 17.0182 17.2165 17.0182 15.2832C17.0016 13.3165 18.6016 11.7165 20.5516 11.7165ZM24.3182 27.2665C23.3016 27.9332 21.9849 28.2832 20.6682 28.2832C19.3516 28.2832 18.0182 27.9499 17.0182 27.2665C16.0682 26.6332 15.5516 25.7665 15.5349 24.8165C15.5349 23.8832 16.0682 22.9832 17.0182 22.3499C19.0349 21.0165 22.3182 21.0165 24.3349 22.3499C25.2849 22.9832 25.8182 23.8499 25.8182 24.7999C25.8016 25.7332 25.2682 26.6332 24.3182 27.2665Z" fill="currentColor"/>
</svg>
