<svg width="41" height="40" viewBox="0 0 41 40" fill="none" xmlns="http://www.w3.org/2000/svg">
<g clip-path="url(#clip0_1539_32308)">
<path d="M13.0836 34.8501C13.0336 34.8501 12.9669 34.8834 12.9169 34.8834C9.68359 33.2834 7.05026 30.6334 5.43359 27.4001C5.43359 27.3501 5.46693 27.2834 5.46693 27.2334C7.50026 27.8334 9.60026 28.2834 11.6836 28.6334C12.0503 30.7334 12.4836 32.8167 13.0836 34.8501Z" fill="currentColor"/>
<path d="M35.2305 27.4167C33.5805 30.7334 30.8305 33.4167 27.4805 35.0334C28.1138 32.9167 28.6471 30.7834 28.9971 28.6334C31.0971 28.2834 33.1638 27.8334 35.1971 27.2334C35.1805 27.3001 35.2305 27.3667 35.2305 27.4167Z" fill="currentColor"/>
<path d="M35.3638 12.8501C33.2638 12.2168 31.1471 11.7001 28.9971 11.3335C28.6471 9.18346 28.1305 7.05013 27.4805 4.9668C30.9305 6.6168 33.7138 9.40013 35.3638 12.8501Z" fill="currentColor"/>
<path d="M13.0802 5.1501C12.4802 7.18343 12.0469 9.2501 11.6969 11.3501C9.54688 11.6834 7.41354 12.2168 5.29688 12.8501C6.91354 9.5001 9.59688 6.7501 12.9135 5.1001C12.9635 5.1001 13.0302 5.1501 13.0802 5.1501Z" fill="currentColor"/>
<path d="M26.149 10.9835C22.2823 10.5502 18.3823 10.5502 14.5156 10.9835C14.9323 8.70016 15.4656 6.41683 16.2156 4.21683C16.249 4.0835 16.2323 3.9835 16.249 3.85016C17.5656 3.5335 18.9156 3.3335 20.3323 3.3335C21.7323 3.3335 23.099 3.5335 24.399 3.85016C24.4156 3.9835 24.4156 4.0835 24.449 4.21683C25.199 6.4335 25.7323 8.70016 26.149 10.9835Z" fill="currentColor"/>
<path d="M11.3141 25.8164C9.01406 25.3998 6.7474 24.8664 4.5474 24.1164C4.41406 24.0831 4.31406 24.0998 4.18073 24.0831C3.86406 22.7664 3.66406 21.4164 3.66406 19.9998C3.66406 18.5998 3.86406 17.2331 4.18073 15.9331C4.31406 15.9164 4.41406 15.9164 4.5474 15.8831C6.76406 15.1498 9.01406 14.5998 11.3141 14.1831C10.8974 18.0498 10.8974 21.9498 11.3141 25.8164Z" fill="currentColor"/>
<path d="M36.9977 19.9998C36.9977 21.4164 36.7977 22.7664 36.481 24.0831C36.3477 24.0998 36.2477 24.0831 36.1143 24.1164C33.8977 24.8498 31.631 25.3998 29.3477 25.8164C29.781 21.9498 29.781 18.0498 29.3477 14.1831C31.631 14.5998 33.9143 15.1331 36.1143 15.8831C36.2477 15.9164 36.3477 15.9331 36.481 15.9331C36.7977 17.2498 36.9977 18.5998 36.9977 19.9998Z" fill="currentColor"/>
<path d="M26.149 29.0166C25.7323 31.3166 25.199 33.5833 24.449 35.7833C24.4156 35.9166 24.4156 36.0166 24.399 36.1499C23.099 36.4666 21.7323 36.6666 20.3323 36.6666C18.9156 36.6666 17.5656 36.4666 16.249 36.1499C16.2323 36.0166 16.249 35.9166 16.2156 35.7833C15.4823 33.5666 14.9323 31.3166 14.5156 29.0166C16.449 29.2333 18.3823 29.3833 20.3323 29.3833C22.2823 29.3833 24.2323 29.2333 26.149 29.0166Z" fill="currentColor"/>
<path d="M26.6029 26.2724C22.4345 26.7983 18.227 26.7983 14.0585 26.2724C13.5326 22.1039 13.5326 17.8964 14.0585 13.7279C18.227 13.202 22.4345 13.202 26.6029 13.7279C27.1289 17.8964 27.1289 22.1039 26.6029 26.2724Z" fill="currentColor"/>
</g>
<defs>
<clipPath id="clip0_1539_32308">
<rect width="40" height="40" fill="currentColor" transform="translate(0.332031)"/>
</clipPath>
</defs>
</svg>
