<svg width="41" height="40" viewBox="0 0 41 40" fill="none" xmlns="http://www.w3.org/2000/svg">
<g clip-path="url(#clip0_1539_32374)">
<path fill-rule="evenodd" clip-rule="evenodd" d="M40.3359 5.85772V34.1421C40.3359 35.5108 39.218 36.6312 37.8469 36.6312C36.4781 36.6312 35.3578 35.5108 35.3578 34.1421V30.9202H14.082C14.0711 30.9202 14.0609 30.9194 14.05 30.9187C13.7602 32.3358 12.5023 33.4069 11.0016 33.4069C9.50078 33.4069 8.23984 32.3327 7.95234 30.9124C7.92266 30.9171 7.89219 30.9194 7.86172 30.9194H5.31484V34.1413C5.31484 35.5101 4.19453 36.6304 2.82578 36.6304C1.45703 36.6304 0.335938 35.5108 0.335938 34.1421V5.85772C0.335938 4.48897 1.45625 3.36865 2.825 3.36865C4.19375 3.36865 5.31406 4.48897 5.31406 5.85772V9.07959H7.86094C7.89219 9.07959 7.92188 9.08272 7.95156 9.08662C8.23984 7.66631 9.5 6.59209 11.0008 6.59209C12.7148 6.59209 14.1125 7.98975 14.1125 9.70381C14.1125 11.4179 12.7148 12.8155 11.0008 12.8155C9.5 12.8155 8.23906 11.7413 7.95156 10.321C7.92188 10.3257 7.89141 10.328 7.86094 10.328H5.31406V19.3749H7.86094C7.89219 19.3749 7.92188 19.378 7.95156 19.3819C8.23984 17.9616 9.5 16.8874 11.0008 16.8874C12.7148 16.8874 14.1125 18.2851 14.1125 19.9991C14.1125 21.7132 12.7148 23.1108 11.0008 23.1108C9.5 23.1108 8.23906 22.0366 7.95156 20.6163C7.92188 20.621 7.89141 20.6233 7.86094 20.6233H5.31406V29.6702H7.86094C7.89219 29.6702 7.92188 29.6733 7.95156 29.6772C8.23984 28.2569 9.5 27.1827 11.0008 27.1827C12.5016 27.1827 13.7594 28.2538 14.0492 29.671C14.0602 29.6702 14.0703 29.6694 14.0813 29.6694H35.3563V20.6226H26.5281C26.5172 20.6226 26.507 20.6218 26.4961 20.621C26.2063 22.0382 24.9484 23.1093 23.4477 23.1093C21.7336 23.1093 20.3359 21.7116 20.3359 19.9976C20.3359 18.2835 21.7336 16.8858 23.4477 16.8858C24.9484 16.8858 26.2063 17.9569 26.4961 19.3741C26.507 19.3733 26.5172 19.3726 26.5281 19.3726H35.3578V10.3257H26.5281C26.5172 10.3257 26.507 10.3249 26.4961 10.3241C26.2063 11.7413 24.9484 12.8124 23.4477 12.8124C21.7336 12.8124 20.3359 11.4147 20.3359 9.70068C20.3359 7.98662 21.7336 6.58896 23.4477 6.58896C24.9484 6.58896 26.2063 7.66006 26.4961 9.07725C26.507 9.07647 26.5172 9.07568 26.5281 9.07568H35.3578V5.85772C35.3578 4.48897 36.4781 3.36865 37.8469 3.36865C39.2172 3.36865 40.3359 4.48897 40.3359 5.85772ZM17.2242 16.8882C15.5102 16.8882 14.1125 18.2858 14.1125 19.9999C14.1125 21.714 15.5102 23.1116 17.2242 23.1116C18.9383 23.1116 20.3359 21.714 20.3359 19.9999C20.3359 18.2858 18.9383 16.8882 17.2242 16.8882ZM17.2242 12.8155C18.9383 12.8155 20.3359 11.4179 20.3359 9.70381C20.3359 7.98975 18.9383 6.59209 17.2242 6.59209C15.5102 6.59209 14.1125 7.98975 14.1125 9.70381C14.1125 11.4179 15.5102 12.8155 17.2242 12.8155Z" fill="currentColor"/>
</g>
<defs>
<clipPath id="clip0_1539_32374">
<rect width="40" height="40" fill="currentColor" transform="translate(0.335938)"/>
</clipPath>
</defs>
</svg>
