<svg width="41" height="40" viewBox="0 0 41 40" fill="none" xmlns="http://www.w3.org/2000/svg">
<path d="M13.882 20.3662L13.882 20.3661L13.8723 20.3725L12.4297 21.3176C11.5723 21.8471 10.4 21.23 10.4 20.1832V14.6665C10.4 14.1723 10.2633 13.658 10.089 13.2176C9.91308 12.7729 9.67605 12.3465 9.42638 12.024L9.40489 11.9963L9.3809 11.9707L5.4809 7.80399L5.47243 7.79494L5.46366 7.78617C5.28456 7.60708 5.09812 7.32681 4.95686 7.0129C4.8125 6.69211 4.75 6.41365 4.75 6.24984V3.84984C4.75 2.97876 5.36531 2.4165 6.05 2.4165H19.6C20.3074 2.4165 20.9 3.00218 20.9 3.74984V6.03317C20.9 6.30906 20.8102 6.66748 20.6441 7.03374C20.4824 7.39004 20.2769 7.6913 20.0986 7.87378L15.7237 11.8178C15.3025 12.1749 14.9906 12.6712 14.7843 13.1688C14.5745 13.6748 14.45 14.2389 14.45 14.7665V19.2332C14.45 19.3914 14.3904 19.636 14.2618 19.8868C14.1309 20.1421 13.9798 20.3043 13.882 20.3662Z" fill="currentColor" stroke="currentColor" stroke-width="1.5"/>
<path d="M22.9163 10.7428L22.9347 10.7264L22.952 10.7088C23.9242 9.71791 24.9167 7.92144 24.9167 6.03348V6.03345V6.03339V6.0333V6.03319V6.03306V6.0329V6.03272V6.03251V6.03229V6.03203V6.03176V6.03146V6.03113V6.03078V6.03041V6.03002V6.0296V6.02916V6.02869V6.0282V6.02769V6.02716V6.0266V6.02602V6.02542V6.02479V6.02414V6.02347V6.02278V6.02206V6.02132V6.02056V6.01978V6.01897V6.01814V6.01729V6.01641V6.01552V6.0146V6.01366V6.0127V6.01172V6.01071V6.00968V6.00863V6.00756V6.00647V6.00536V6.00422V6.00306V6.00189V6.00069V5.99946V5.99822V5.99696V5.99568V5.99437V5.99304V5.9917V5.99033V5.98894V5.98753V5.9861V5.98465V5.98318V5.98169V5.98017V5.97864V5.97709V5.97552V5.97392V5.97231V5.97068V5.96902V5.96735V5.96566V5.96394V5.96221V5.96046V5.95869V5.95689V5.95508V5.95325V5.9514V5.94953V5.94764V5.94573V5.94381V5.94186V5.9399V5.93791V5.93591V5.93389V5.93184V5.92979V5.92771V5.92561V5.92349V5.92136V5.91921V5.91704V5.91485V5.91264V5.91041V5.90817V5.90591V5.90363V5.90133V5.89901V5.89668V5.89433V5.89196V5.88957V5.88717V5.88474V5.8823V5.87985V5.87737V5.87488V5.87237V5.86985V5.8673V5.86474V5.86216V5.85957V5.85696V5.85433V5.85168V5.84902V5.84634V5.84365V5.84094V5.83821V5.83546V5.8327V5.82993V5.82713V5.82432V5.8215V5.81866V5.8158V5.81292V5.81003V5.80713V5.80421V5.80127V5.79832V5.79535V5.79237V5.78937V5.78635V5.78332V5.78028V5.77722V5.77414V5.77105V5.76794V5.76482V5.76169V5.75854V5.75537V5.75219V5.74899V5.74578V5.74256V5.73932V5.73607V5.7328V5.72952V5.72622V5.72291V5.71959V5.71625V5.7129V5.70953V5.70615V5.70275V5.69935V5.69592V5.69249V5.68904V5.68558V5.6821V5.67861V5.67511V5.67159V5.66806V5.66452V5.66096V5.65739V5.65381V5.65021V5.64661V5.64298V5.63935V5.6357V5.63204V5.62837V5.62469V5.62099V5.61728V5.61356V5.60983V5.60608V5.60232V5.59855V5.59477V5.59097V5.58717V5.58335V5.57952V5.57567V5.57182V5.56796V5.56408V5.56019V5.55629V5.55238V5.54845V5.54452V5.54057V5.53662V5.53265V5.52867V5.52468V5.52068V5.51667V5.51265V5.50861V5.50457V5.50051V5.49645V5.49237V5.48829V5.48419V5.48008V5.47597V5.47184V5.4677V5.46355V5.45939V5.45523V5.45105V5.44686V5.44266V5.43846V5.43424V5.43001V5.42578V5.42153V5.41728V5.41301V5.40874V5.40446V5.40016V5.39586V5.39155V5.38723V5.3829V5.37857V5.37422V5.36986V5.3655V5.36113V5.35675V5.35236V5.34796V5.34355V5.33914V5.33471V5.33028V5.32584V5.32139V5.31694V5.31247V5.308V5.30352V5.29903V5.29454V5.29004V5.28552V5.28101V5.27648V5.27195V5.2674V5.26286V5.2583V5.25374V5.24917V5.24459V5.24001V5.23541V5.23082V5.22621V5.2216V5.21698V5.21236V5.20772V5.20308V5.19844V5.19379V5.18913V5.18446V5.17979V5.17512V5.17043V5.16574V5.16105V5.15635V5.15164V5.14693V5.14221V5.13748V5.13275V5.12802V5.12327V5.11853V5.11378V5.10902V5.10425V5.09948V5.09471V5.08993V5.08515V5.08036V5.07556V5.07077V5.06596V5.06115V5.05634V5.05152V5.0467V5.04187V5.03704V5.0322V5.02736V5.02252V5.01767V5.01281V5.00796V5.00309V4.99823V4.99336V4.98848V4.98361V4.97873V4.97384V4.96895V4.96406V4.95916V4.95426V4.94936V4.94446V4.93955V4.93463V4.92972V4.9248V4.91988V4.91495V4.91002V4.90509V4.90016V4.89522V4.89028V4.88534V4.88039V4.87545V4.8705V4.86555V4.86059V4.85563V4.85068V4.84571V4.84075V4.83579V4.83082V4.82585V4.82088V4.81591V4.81093V4.80595V4.80098V4.796V4.79101V4.78603V4.78105V4.77606V4.77108V4.76609V4.7611V4.75611V4.75112V4.74613V4.74113V4.73614V4.73114V4.72615V4.72115V4.71615V4.71116V4.70616V4.70116V4.69616V4.69116V4.68616V4.68116V4.67616V4.67116V4.66616V4.66116V4.65616V4.65116V4.64616V4.64116V4.63617V4.63117V4.62617V4.62117V4.61617V4.61118V4.60618V4.60119V4.59619V4.5912V4.58621V4.58122V4.57622V4.57124V4.56625V4.56126V4.55627V4.55129V4.54631V4.54133V4.53635V4.53137V4.52639V4.52142V4.51644V4.51147V4.5065V4.50153V4.49657V4.4916V4.48664V4.48168V4.47673V4.47177V4.46682V4.46187V4.45692V4.45197V4.44703V4.44209V4.43716V4.43222V4.42729V4.42236V4.41743V4.41251V4.40759V4.40268V4.39776V4.39285V4.38795V4.38304V4.37814V4.37324V4.36835V4.36346V4.35858V4.35369V4.34882V4.34394V4.33907V4.3342V4.32934V4.32448V4.31963V4.31478V4.30993V4.30509V4.30025V4.29542V4.29059V4.28577V4.28095V4.27614V4.27133V4.26652V4.26172V4.25693V4.25214V4.24735V4.24257V4.2378V4.23303V4.22826V4.2235V4.21875V4.214V4.20926V4.20452V4.19979V4.19506V4.19034V4.18563V4.18092V4.17622V4.17152V4.16683C24.9167 4.13467 24.9277 4.11645 24.9387 4.10549C24.9496 4.09454 24.9678 4.0835 25 4.0835H29C33.1858 4.0835 36.5833 7.48104 36.5833 11.6668V28.3335C36.5833 32.5193 33.1858 35.9168 29 35.9168H12.3333C8.14755 35.9168 4.75 32.5193 4.75 28.3335V15.3502C4.75 15.3179 4.75811 15.3048 4.76226 15.2989C4.76878 15.2897 4.78095 15.2786 4.79914 15.2712C4.81738 15.2637 4.83267 15.2635 4.84157 15.2651C4.84629 15.266 4.85823 15.2683 4.87799 15.2887L4.87792 15.2887L4.88634 15.2972L6.553 16.9638L6.56695 16.9778L6.57822 16.9879C6.57832 16.9881 6.57842 16.9884 6.57853 16.9886C6.58064 16.9937 6.58333 17.0036 6.58333 17.0168V21.0181C6.58333 21.3613 6.62453 21.7512 6.77695 22.1352C7.21946 23.25 8.02832 24.2091 9.13662 24.8229L9.13976 24.8247C9.94572 25.266 10.8357 25.5002 11.7333 25.5002C12.7225 25.5002 13.7116 25.228 14.6 24.6679L14.6 24.668L14.6071 24.6634L15.9656 23.7854C17.4306 22.8892 18.45 20.9929 18.45 19.2335V14.7988C18.46 14.7768 18.4704 14.7545 18.4818 14.7303C18.4883 14.7163 18.4952 14.7017 18.5024 14.6861L22.9163 10.7428ZM19 30.3335H30.6667C31.7642 30.3335 32.6667 29.431 32.6667 28.3335C32.6667 27.2359 31.7642 26.3335 30.6667 26.3335H19C17.9025 26.3335 17 27.236 17 28.3335C17 29.431 17.9025 30.3335 19 30.3335ZM22.3333 23.6668H30.6667C31.7642 23.6668 32.6667 22.7644 32.6667 21.6668C32.6667 20.5693 31.7642 19.6668 30.6667 19.6668H22.3333C21.2358 19.6668 20.3333 20.5693 20.3333 21.6668C20.3333 22.7644 21.2358 23.6668 22.3333 23.6668Z" fill="currentColor" stroke="currentColor" stroke-width="1.5"/>
</svg>
