<svg width="41" height="40" viewBox="0 0 41 40" fill="none" xmlns="http://www.w3.org/2000/svg">
<path d="M35.7653 22.7898C34.8423 22.0514 33.673 21.6001 32.4012 21.6001H8.27817C7.00637 21.6001 5.83714 22.0514 4.91406 22.7898L8.89355 6.78983C9.05765 6.11291 9.67304 5.64111 10.35 5.64111H30.3089C31.0064 5.64111 31.6012 6.11291 31.7653 6.78983L35.7653 22.7898Z" fill="currentColor"/>
<path d="M32.4013 23.4463H8.27821C6.32949 23.4463 4.75 25.0258 4.75 26.9745V30.8309C4.75 32.7796 6.32949 34.3591 8.27821 34.3591H32.4013C34.35 34.3591 35.9295 32.7796 35.9295 30.8309V26.9745C35.9295 25.0258 34.35 23.4463 32.4013 23.4463ZM26.3705 29.8053C26.3705 30.1745 26.0833 30.4617 25.7141 30.4617H23.909C23.5397 30.4617 23.2526 30.1745 23.2526 29.8053V28.0001C23.2526 27.6309 23.5397 27.3437 23.909 27.3437H25.7141C26.0833 27.3437 26.3705 27.6309 26.3705 28.0001V29.8053ZM31.0474 29.8053C31.0474 30.1745 30.7603 30.4617 30.391 30.4617H28.5859C28.2167 30.4617 27.9295 30.1745 27.9295 29.8053V28.0001C27.9295 27.6309 28.2167 27.3437 28.5859 27.3437H30.391C30.7603 27.3437 31.0474 27.6309 31.0474 28.0001V29.8053Z" fill="currentColor"/>
</svg>
