<svg width="28" height="34" viewBox="0 0 28 34" fill="none" xmlns="http://www.w3.org/2000/svg">
<path d="M9.94951 8.60623C7.51146 11.0443 7.49382 14.9795 9.91013 17.3959C12.3264 19.8122 16.2617 19.7945 18.6998 17.3565C21.1378 14.9184 21.1554 10.9832 18.7391 8.5669C16.3228 6.15054 12.3876 6.16823 9.94951 8.60623Z" fill="currentColor"/>
<path d="M13.0791 27.1448C12.0271 27.7359 10.7642 27.861 9.61653 27.4876C8.46911 27.1153 7.52207 26.2725 7.01852 25.1771C6.86011 24.8322 6.61571 24.5439 6.33203 24.3047V33.432C6.33203 33.8579 6.8067 34.1119 7.16119 33.8757L10.2833 31.7947C10.582 31.5958 10.9708 31.5958 11.2693 31.7947L14.3914 33.8757C14.7457 34.1119 15.2206 33.8579 15.2206 33.432V27.0001C14.5221 26.7411 13.7363 26.777 13.0791 27.1448Z" fill="currentColor"/>
<path d="M21.6464 25.176C21.142 26.2722 20.195 27.1151 19.0468 27.4884C18.6118 27.6299 18.1605 27.6995 17.71 27.6995C17.471 27.6995 17.236 27.6481 17 27.6088V30.4896C17 30.7199 17.1373 30.9209 17.3561 30.9927C18.2293 31.2799 20.4885 32.0237 21.6391 32.4102C21.9845 32.5262 22.3339 32.2665 22.3337 31.9017L22.3329 24.3047C22.049 24.5437 21.8049 24.8315 21.6464 25.176Z" fill="currentColor"/>
<path d="M26.9907 11.1014C25.884 10.0788 25.3823 8.53475 25.6748 7.06618C25.8171 6.35105 25.66 5.63998 25.2355 5.05582C24.812 4.47247 24.1835 4.10448 23.4665 4.02033C21.9709 3.84413 20.6559 2.8885 20.0301 1.52571C19.728 0.868701 19.183 0.384241 18.4965 0.161121C17.809 -0.0619487 17.0834 0.00931126 16.454 0.363401C15.1451 1.09676 13.5183 1.09856 12.2094 0.364201C11.8197 0.145431 11.3925 0.0345011 10.9621 0.0345011C10.6956 0.0345011 10.4283 0.0762313 10.1661 0.161171C9.47959 0.384291 8.93536 0.868551 8.63404 1.52471C8.00731 2.8883 6.69224 3.84393 5.20198 4.01933C4.47986 4.10448 3.85128 4.47251 3.42783 5.05562C3.00333 5.63897 2.84633 6.35065 2.98694 7.05903C3.28027 8.53555 2.77856 10.0788 1.67967 11.0944C1.14319 11.591 0.851562 12.2576 0.851562 12.9789C0.851562 13.701 1.14324 14.3677 1.67272 14.8573C2.77861 15.8798 3.28027 17.424 2.98859 18.8917C2.84612 19.6079 3.00253 20.3188 3.42683 20.9021C3.85133 21.4862 4.47971 21.8543 5.19668 21.9384C5.27568 21.9478 5.34689 21.9824 5.4247 21.9959C5.43125 21.9959 5.43659 21.9922 5.44314 21.9922C5.59255 21.9922 5.72722 22.0382 5.85065 22.1033C7.06378 22.4459 8.10191 23.2766 8.63305 24.433C8.93517 25.09 9.4794 25.5744 10.1659 25.7976C10.8542 26.0207 11.579 25.9486 12.2084 25.5953C13.5157 24.8601 15.1422 24.8593 16.453 25.5945C17.0814 25.9478 17.808 26.0207 18.4963 25.7975C19.1828 25.5744 19.7281 25.0901 20.0299 24.4329C20.5543 23.2916 21.5724 22.467 22.7614 22.116C22.8973 22.0318 23.0484 21.9705 23.2199 21.9705C23.2432 21.9705 23.2624 21.9819 23.2854 21.9838C23.3455 21.9739 23.4004 21.9465 23.4612 21.9393C24.1833 21.8542 24.8108 21.4862 25.2353 20.903C25.6426 20.3424 25.8029 19.6654 25.6917 18.9859C25.4453 17.4786 25.774 15.9388 26.9155 14.9242L26.9904 14.8577C27.5199 14.3681 27.8116 13.7015 27.8116 12.9793C27.8118 12.2576 27.5201 11.591 26.9907 11.1014ZM22.0434 15.1518C21.335 17.8224 19.1752 19.982 16.5048 20.6904C10.425 22.3031 5.00734 16.8854 6.62024 10.8059C7.32862 8.13538 9.48819 5.97567 12.1589 5.26724C18.2386 3.65435 23.6563 9.07223 22.0434 15.1518Z" fill="currentColor"/>
</svg>
