<svg width="17" height="17" viewBox="0 0 17 17" fill="none" xmlns="http://www.w3.org/2000/svg">
<path d="M15.9256 7.46096C15.2616 6.8474 14.9606 5.92095 15.1361 5.03981C15.2215 4.61073 15.1273 4.18409 14.8726 3.83359C14.6185 3.48358 14.2414 3.26279 13.8111 3.2123C12.9138 3.10658 12.1248 2.5332 11.7493 1.71552C11.5681 1.32132 11.241 1.03064 10.8291 0.89677C10.4167 0.762928 9.98128 0.805684 9.60365 1.01814C8.8183 1.45815 7.84223 1.45923 7.05687 1.01862C6.82304 0.887356 6.56675 0.820798 6.30849 0.820798C6.14859 0.820798 5.98822 0.845836 5.8309 0.8968C5.41901 1.03067 5.09247 1.32123 4.91168 1.71492C4.53564 2.53308 3.7466 3.10646 2.85244 3.2117C2.41917 3.26279 2.04202 3.4836 1.78795 3.83347C1.53325 4.18348 1.43905 4.61049 1.52342 5.03552C1.69941 5.92143 1.39839 6.8474 0.739053 7.45676C0.417165 7.75472 0.242188 8.15468 0.242188 8.58744C0.242188 9.02072 0.417196 9.42071 0.734884 9.71448C1.39842 10.328 1.69941 11.2545 1.52441 12.1351C1.43892 12.5648 1.53277 12.9914 1.78735 13.3413C2.04205 13.6918 2.41908 13.9127 2.84926 13.9631C2.89666 13.9688 2.93939 13.9895 2.98607 13.9976C2.99 13.9976 2.99321 13.9954 2.99714 13.9954C3.08678 13.9954 3.16758 14.023 3.24164 14.0621C3.96952 14.2677 4.5924 14.766 4.91108 15.4599C5.09235 15.8541 5.41889 16.1448 5.83079 16.2786C6.24379 16.4125 6.67865 16.3693 7.05628 16.1573C7.84064 15.7162 8.8166 15.7157 9.60306 16.1568C9.98009 16.3688 10.4161 16.4125 10.829 16.2786C11.2409 16.1448 11.5681 15.8542 11.7492 15.4598C12.0638 14.7751 12.6747 14.2803 13.3881 14.0697C13.4696 14.0192 13.5603 13.9824 13.6632 13.9824C13.6772 13.9824 13.6887 13.9893 13.7025 13.9904C13.7386 13.9845 13.7715 13.968 13.8079 13.9637C14.2412 13.9126 14.6177 13.6918 14.8724 13.3419C15.1168 13.0056 15.213 12.5993 15.1463 12.1916C14.9984 11.2872 15.1957 10.3634 15.8806 9.7546L15.9255 9.71472C16.2432 9.42096 16.4182 9.02097 16.4182 8.58769C16.4183 8.15468 16.2433 7.75469 15.9256 7.46096ZM12.9573 9.89116C12.5322 11.4936 11.2364 12.7893 9.63411 13.2143C5.98624 14.1819 2.73566 10.9313 3.7034 7.28361C4.12842 5.68133 5.42417 4.3855 7.02656 3.96044C10.6744 2.99271 13.925 6.24344 12.9573 9.89116Z" fill="currentColor"/>
</svg>
