<svg width="41" height="40" viewBox="0 0 41 40" fill="none" xmlns="http://www.w3.org/2000/svg">
<path d="M26.3016 32.8334C22.7849 33.0834 22.7849 38.1834 26.3016 38.4334H34.6516C35.6682 38.4334 36.6349 38.0667 37.3849 37.3834C39.8516 35.2334 38.5349 30.9 35.2849 30.5C34.1182 23.4667 23.9349 26.1334 26.3516 32.8334" fill="currentColor"/>
<path d="M26.3016 32.8334C22.7849 33.0834 22.7849 38.1834 26.3016 38.4334H34.6516C35.6682 38.4334 36.6349 38.0667 37.3849 37.3834C39.8516 35.2334 38.5349 30.9 35.2849 30.5C34.1182 23.4667 23.9349 26.1334 26.3516 32.8334" fill="currentColor"/>
<path d="M37.0052 18.4502V25.5668C37.0052 26.1002 36.1552 26.3335 35.7885 25.9502C35.0052 25.1335 34.0219 24.5168 32.8885 24.1668C30.2719 23.3502 27.2552 24.1502 25.3552 26.1168C24.1552 27.4002 23.5052 29.0002 23.4719 30.7335C23.4719 31.0335 23.3219 31.3002 23.0885 31.4835C21.8885 32.4335 21.1552 33.9168 21.1552 35.6168V35.6335C21.1552 36.1668 20.7719 36.6502 20.2385 36.6502H12.5719C7.67188 36.6668 3.67188 32.6668 3.67188 27.7502V10.7002C3.67188 6.6335 6.97188 3.3335 11.0385 3.3335H14.9052C17.6219 3.3335 18.4719 4.21683 19.5552 5.66683L21.8885 8.76683C22.4052 9.45016 22.4719 9.5335 23.4385 9.5335H28.0885C32.0552 9.5335 35.4219 12.1335 36.5719 15.7335C36.8219 16.4835 36.9552 17.2502 36.9885 18.0668C37.0052 18.1835 37.0052 18.3335 37.0052 18.4502Z" fill="currentColor"/>
</svg>
