<svg width="40" height="40" viewBox="0 0 40 40" fill="none" xmlns="http://www.w3.org/2000/svg">
<path d="M13.1875 18.375C9.5625 20.5 8.4375 24.375 8.0625 27.3125C0 27.1875 0 23.75 0 23.4375C0.0625 19.8125 0.8125 16.6875 3.3125 15C4.5 16.875 6.375 18.1875 8.625 18.1875C10.1875 18.1875 11.625 17.5 12.6875 16.4375C12.8125 17.125 12.9375 17.75 13.1875 18.375ZM8.625 5.375C5.1875 5.375 4.25 7.625 4.25 10.0625C4.25 12.5 6 15.75 8.625 15.75C11.25 15.75 13 12.5 13 10.0625C13 7.625 12.0625 5.375 8.625 5.375ZM36.75 15C35.5625 16.8125 33.6875 18.1875 31.5 18.1875C29.875 18.1875 28.5 17.5 27.375 16.4375C27.3125 17.0625 27.125 17.6875 26.9375 18.3125C30.625 20.4375 31.75 24.3125 32.0625 27.25C40 27.1875 40 23.8125 40 23.4375C39.9375 19.75 39.1875 16.75 36.75 15ZM31.4375 5.375C28 5.375 27.0625 7.625 27.0625 10.0625C27.0625 12.5 28.8125 15.75 31.4375 15.75C34.0625 15.75 35.8125 12.5 35.8125 10.0625C35.8125 7.625 34.875 5.375 31.4375 5.375ZM25.8125 20.5C24.5 22.5625 22.4375 24 20 24C17.5625 24 15.5625 22.5625 14.25 20.5C11.25 22.375 10.375 26 10.25 30.1875C10.25 30.625 10.25 34.625 20 34.625C29.75 34.625 29.75 30.625 29.75 30.1875C29.6875 25.9375 28.75 22.375 25.8125 20.5ZM20 9.75C16.0625 9.75 15 12.25 15 15.0625C15 17.875 17 21.5625 20 21.5625C23 21.5625 25 17.8125 25 15.0625C25 12.3125 23.9375 9.75 20 9.75Z" fill="currentColor"/>
</svg>
