<svg width="89" height="40" viewBox="0 0 89 40" fill="none" xmlns="http://www.w3.org/2000/svg">
<g id="g318">
<g id="g286">
<g id="g284">
<g id="g258">
<path id="path246" d="M5.77128 4.81819C5.96231 4.81819 6.12151 4.75451 6.24886 4.62716C6.37622 4.4998 6.43989 4.34061 6.43989 4.14958C6.43989 3.96916 6.37622 3.82058 6.24886 3.68261C6.12151 3.55525 5.96231 3.49158 5.77128 3.49158C5.59086 3.49158 5.44228 3.55525 5.30431 3.68261C5.17696 3.80996 5.11328 3.96916 5.11328 4.14958C5.11328 4.34061 5.17696 4.4998 5.30431 4.62716C5.44228 4.75451 5.60147 4.81819 5.77128 4.81819Z" fill="currentColor"/>
<path id="path248" d="M4.14628 4.81819C4.3267 4.81819 4.47528 4.75451 4.61325 4.62716C4.7406 4.4998 4.80428 4.34061 4.80428 4.14958C4.80428 3.96916 4.7406 3.82058 4.61325 3.68261C4.48589 3.55525 4.3267 3.49158 4.14628 3.49158C3.96586 3.49158 3.81728 3.55525 3.67931 3.68261C3.55196 3.80996 3.48828 3.96916 3.48828 4.14958C3.48828 4.34061 3.55196 4.4998 3.67931 4.62716C3.81728 4.75451 3.96586 4.81819 4.14628 4.81819Z" fill="currentColor"/>
<path id="path250" d="M22.3885 14.0195C22.208 14.0195 22.0595 14.0832 21.9215 14.2106C21.7941 14.3379 21.7305 14.4971 21.7305 14.6775C21.7305 14.8686 21.7941 15.0278 21.9215 15.1551C22.0489 15.2825 22.208 15.3461 22.3885 15.3461C22.5795 15.3461 22.7387 15.2825 22.866 15.1551C22.9934 15.0278 23.0571 14.8686 23.0571 14.6775C23.0571 14.4971 22.9934 14.3485 22.866 14.2106C22.7387 14.0832 22.5795 14.0195 22.3885 14.0195Z" fill="currentColor"/>
<path id="path252" d="M20.7674 14.0195C20.587 14.0195 20.4384 14.0832 20.3004 14.2106C20.1731 14.3379 20.1094 14.4971 20.1094 14.6775C20.1094 14.8686 20.1731 15.0278 20.3004 15.1551C20.4278 15.2825 20.587 15.3461 20.7674 15.3461C20.9478 15.3461 21.0964 15.2825 21.2343 15.1551C21.3617 15.0278 21.4254 14.8686 21.4254 14.6775C21.4254 14.4971 21.3617 14.3485 21.2343 14.2106C21.107 14.0832 20.9478 14.0195 20.7674 14.0195Z" fill="currentColor"/>
<path id="path254" d="M76.2635 14.0195C76.0831 14.0195 75.9345 14.0832 75.7965 14.2106C75.6692 14.3379 75.6055 14.4971 75.6055 14.6775C75.6055 14.8686 75.6692 15.0278 75.7965 15.1551C75.9239 15.2825 76.0831 15.3461 76.2635 15.3461C76.4545 15.3461 76.6137 15.2825 76.741 15.1551C76.8684 15.0278 76.9321 14.8686 76.9321 14.6775C76.9321 14.4971 76.8684 14.3485 76.741 14.2106C76.6137 14.0832 76.4545 14.0195 76.2635 14.0195Z" fill="currentColor"/>
<path id="path256" d="M79.5088 7.31215C78.9251 6.62231 78.0761 6.27209 76.9723 6.27209C76.2506 6.27209 75.4865 6.39944 74.6587 6.66476V7.56686C75.6245 7.37583 76.3462 7.2697 76.8131 7.2697C77.5879 7.2697 78.1716 7.49257 78.5749 7.93831C78.9463 8.3416 79.1267 8.89347 79.1267 9.59392V11.154C79.1267 11.4936 78.9569 11.6634 78.6173 11.6634H64.6614H64.6295C64.4916 11.6528 64.3854 11.5891 64.3111 11.4724C64.2475 11.3875 64.2156 11.2708 64.2156 11.154V8.72366C64.2156 7.81096 63.8972 7.14234 63.2499 6.70721C62.8253 6.43128 62.2947 6.29331 61.6473 6.29331C60.7558 6.31454 60.0341 6.57986 59.4823 7.09989C58.8773 7.69421 58.5696 8.53263 58.5696 9.61515C58.5696 10.3899 58.75 11.0691 59.1214 11.674H45.2079H45.1124H42.6714C42.7776 11.0373 43.0323 10.4854 43.4356 10.0184C43.8283 9.5727 44.3377 9.21186 44.9532 8.95715L45.07 8.63876C44.7622 7.85341 44.2422 7.23786 43.4993 6.80273C42.9155 6.46312 42.3106 6.29331 41.6738 6.29331C41.0371 6.29331 40.4215 6.46312 39.8378 6.80273C39.1055 7.23786 38.5749 7.85341 38.2671 8.63876L38.4051 8.95715C39.0737 9.23308 39.6149 9.62576 40.0182 10.1246C40.3685 10.6128 40.5913 11.1222 40.6868 11.674H23.738H23.6425H23.027C23.0588 11.5679 23.0694 11.4618 23.0694 11.3557V6.44189H21.9232V11.1646C21.9232 11.3132 21.8702 11.4406 21.764 11.5361C21.6791 11.621 21.5624 11.674 21.4138 11.674H7.11825H7.02274H6.85293C6.75742 11.674 6.6619 11.6316 6.58761 11.5361C6.50271 11.4512 6.44964 11.3238 6.44964 11.1646V6.08105H5.88716L5.31406 6.53741C4.82587 6.32515 4.34829 6.21902 3.87071 6.21902C3.03229 6.21902 2.33184 6.50557 1.75874 7.08928C1.11136 7.73667 0.792969 8.54325 0.792969 9.51963C0.792969 10.3581 1.01584 11.0691 1.46158 11.674C2.00284 12.4063 2.75635 12.7778 3.69029 12.7778C4.3589 12.7778 4.98506 12.5761 5.56877 12.1622C5.81287 12.4806 6.14187 12.6292 6.54516 12.6292H7.01213H7.10764H21.8383C22.2204 12.6292 22.5388 12.47 22.7829 12.1622H22.8253L23.218 12.6292H23.6531H23.7487H40.8885C41.1644 12.6292 41.4297 12.5019 41.6632 12.2365H41.7057C41.9604 12.4912 42.2151 12.6292 42.4804 12.6292H45.1124H45.2079H59.079L59.4504 12.1622H59.4823C60.0554 12.746 60.7346 13.0325 61.5093 13.0325C62.2522 13.0325 62.8678 12.746 63.3454 12.1622C63.5895 12.4806 63.9079 12.6292 64.3111 12.6292H64.5446H64.6508H79.0525C79.4345 12.6292 79.7423 12.47 79.9758 12.1622C80.1668 11.9288 80.2623 11.6634 80.2623 11.3557V9.64699C80.2623 8.68121 80.0182 7.90647 79.5088 7.31215ZM5.30345 11.4193C4.7728 11.6847 4.26339 11.812 3.78581 11.812C3.22332 11.812 2.77758 11.621 2.43797 11.2495C2.09835 10.8356 1.92855 10.2731 1.92855 9.55147C1.92855 8.94654 2.09835 8.4265 2.44858 7.99138C2.8731 7.45012 3.42497 7.1848 4.10419 7.1848C4.50748 7.1848 4.91077 7.28031 5.30345 7.48196V11.4193ZM41.6845 11.1222H41.642C41.4297 10.4217 41.1114 9.83802 40.6975 9.37105C40.3685 8.9996 39.9652 8.70244 39.4982 8.50079C39.806 8.03383 40.1562 7.70483 40.5489 7.50318C40.8779 7.33338 41.2493 7.24847 41.6632 7.24847C42.0771 7.24847 42.4592 7.34399 42.82 7.53502C43.1915 7.74728 43.5311 8.07628 43.8283 8.50079C43.3825 8.70244 42.9898 8.97837 42.6502 9.33921C42.2257 9.79557 41.9073 10.3899 41.6845 11.1222ZM63.0694 11.3557C62.5919 11.8332 62.093 12.0667 61.573 12.0667C61.0424 12.0667 60.6072 11.8332 60.257 11.3663C59.8856 10.8781 59.7051 10.2731 59.7051 9.55147C59.7051 8.86163 59.875 8.29915 60.2252 7.87463C60.5754 7.45012 61.0318 7.23786 61.6049 7.23786C62.0188 7.23786 62.3478 7.3546 62.6131 7.5987C62.9102 7.87463 63.0588 8.24608 63.0588 8.71305V11.3557H63.0694Z" fill="currentColor"/>
</g>
<g id="g280">
<path id="path260" d="M15.4069 22.7114C14.4518 22.7114 13.3268 22.9025 12.0533 23.2739V25.1524C13.295 24.8765 14.2183 24.7491 14.8126 24.7491C15.8527 24.7491 16.6592 25.0038 17.2536 25.5238C17.8373 26.0439 18.1344 26.7549 18.1344 27.657V29.4082C18.1344 29.7265 17.9752 29.8964 17.6462 29.8964H9.61228H9.47432H9.10287C9.11348 29.7584 9.12409 29.5355 9.12409 29.2384V27.3705C9.12409 26.0863 8.7208 25.0144 7.90361 24.1442C6.98029 23.189 5.78103 22.7114 4.29522 22.7114C3.71151 22.7114 3.2021 22.7539 2.75635 22.8282V24.7067C2.97922 24.6536 3.30822 24.6324 3.74335 24.6324C4.69851 24.6748 5.4308 24.9401 5.94022 25.4496C6.48148 25.9908 6.75742 26.7125 6.75742 27.604V29.4082C6.75742 29.7265 6.59822 29.8964 6.26922 29.8964H0.792969V31.881H7.02274C7.50032 31.881 7.93545 31.7218 8.32812 31.414C8.44487 31.3079 8.551 31.2017 8.65712 31.085H8.71019L9.34696 31.881H9.4637H9.60167H18.3998C19.0047 31.881 19.5247 31.6475 19.9492 31.1805C20.3101 30.756 20.4905 30.2784 20.4905 29.7478V27.5297C20.4905 26.1925 20.0554 25.0887 19.1851 24.1866C18.23 23.1996 16.9776 22.7114 15.4069 22.7114Z" fill="currentColor"/>
<path id="path262" d="M36.3901 21.1726C36.7404 21.1726 37.0375 21.0453 37.2816 20.8012C37.5257 20.5571 37.6531 20.2599 37.6531 19.9309C37.6531 19.5807 37.5257 19.2835 37.2816 19.0394C37.0375 18.7953 36.7404 18.668 36.3901 18.668C36.0505 18.668 35.764 18.7953 35.5199 19.0394C35.2758 19.2835 35.1484 19.5807 35.1484 19.9309C35.1484 20.2705 35.2758 20.5571 35.5199 20.8012C35.764 21.0559 36.0611 21.1726 36.3901 21.1726Z" fill="currentColor"/>
<path id="path264" d="M33.4387 21.1726C33.7889 21.1726 34.0861 21.0453 34.3302 20.8012C34.5743 20.5571 34.7017 20.2599 34.7017 19.9309C34.7017 19.5807 34.5743 19.2835 34.3302 19.0394C34.0861 18.7953 33.7889 18.668 33.4387 18.668C33.0885 18.668 32.7913 18.7953 32.5472 19.0394C32.3031 19.2835 32.1758 19.5807 32.1758 19.9309C32.1758 20.2705 32.3031 20.5571 32.5472 20.8012C32.7913 21.0559 33.0885 21.1726 33.4387 21.1726Z" fill="currentColor"/>
<path id="path266" d="M41.7477 29.4082C41.7477 29.5356 41.7053 29.6523 41.6098 29.7372C41.5036 29.8434 41.3869 29.8964 41.2383 29.8964H38.3941H38.2561H37.4071V29.6099V22.9556H35.0616V29.3446C35.0616 29.5037 35.0086 29.6311 34.8918 29.7372C34.8175 29.8434 34.6796 29.8964 34.4991 29.8964H31.7079H31.57H31.0712V26.3093C31.0712 25.0676 30.6042 24.1124 29.6703 23.4332C28.9592 22.9556 28.1208 22.7115 27.1444 22.7115C25.8072 22.7115 24.714 23.1254 23.865 23.9532C23.0478 24.7704 22.6445 25.906 22.6445 27.3493C22.6445 28.5698 22.9841 29.5886 23.674 30.4165C24.4912 31.3822 25.6055 31.8704 27.0277 31.8704H28.6408C28.4498 33.6428 27.293 34.5343 25.1704 34.5343C24.7034 34.5343 24.2046 34.4918 23.674 34.3963V35.2453L24.661 36.4658H24.714C25.0749 36.487 25.3508 36.5083 25.5525 36.5083C26.1362 36.5083 26.7305 36.434 27.3354 36.296C28.2057 36.0837 28.9486 35.7017 29.5641 35.1498C30.4556 34.3645 30.9438 33.2713 31.0393 31.8704H31.5487H31.6867H35.2951C35.9531 31.8704 36.505 31.6051 36.9401 31.0745H36.9826L37.7042 31.8704H38.2455H38.3835H41.9918C42.6392 31.8704 43.1593 31.6263 43.5625 31.1275C43.9128 30.7348 44.0826 30.2785 44.0826 29.7266V17.9675H41.7371V29.4082H41.7477ZM28.7045 29.8858H27.3885C26.6456 29.8858 26.0725 29.6523 25.6374 29.1854C25.2128 28.7184 25.0006 28.0922 25.0006 27.3069C25.0006 26.4897 25.1916 25.8529 25.5843 25.3859C25.977 24.919 26.497 24.6855 27.155 24.6855C27.5583 24.6855 27.9085 24.8128 28.2057 25.0782C28.5453 25.3753 28.7151 25.7786 28.7151 26.2986V29.8858H28.7045Z" fill="currentColor"/>
<path id="polygon268" d="M46.7773 32.3586H47.9448L49.144 31.3822V17.9675H46.7773V32.3586Z" fill="currentColor"/>
<path id="path270" d="M79.9224 29.4082C79.9224 29.7266 79.7632 29.8964 79.4342 29.8964H75.7834C75.7834 29.8327 75.7834 29.7266 75.7834 29.5886C75.794 29.4294 75.8046 29.3127 75.8046 29.2384V24.0593H73.438V29.4188C73.438 29.7372 73.2788 29.907 72.9498 29.907H69.2777C69.2883 29.7266 69.2989 29.4507 69.2989 29.0686V25.1843H66.9323V29.4188C66.9323 29.7372 66.7731 29.907 66.4441 29.907H61.8274H61.6895H60.8404V22.9556H58.4738V31.2018C58.4738 33.4305 57.3276 34.5448 55.0352 34.5448C54.6425 34.5448 54.2498 34.513 53.8359 34.4493V35.2877L54.7911 36.4764C55.067 36.487 55.3111 36.4976 55.5446 36.4976C56.9031 36.4976 58.0493 36.158 58.9832 35.4682C60.1082 34.6404 60.7237 33.4517 60.8298 31.8916H61.7001H61.8381H67.2188C67.8768 31.8916 68.4181 31.6263 68.8532 31.0957H68.9062L69.6491 31.8916H73.7245C74.3825 31.8916 74.9238 31.6263 75.3589 31.0957H75.4119L76.1336 31.8916H80.209C80.7927 31.8916 81.2915 31.6794 81.6948 31.2655C82.0981 30.8409 82.3103 30.3421 82.3103 29.7584V22.9662H79.9437V29.4082H79.9224Z" fill="currentColor"/>
<path id="path272" d="M86.7675 13.1599C86.4598 13.1599 86.2263 13.0537 86.0671 12.8309C85.9397 12.6929 85.8761 12.4912 85.8761 12.2259C85.8761 11.5998 86.152 11.292 86.7145 11.292C86.8843 11.292 87.1284 11.3344 87.4574 11.4087V10.3793C87.0965 10.2625 86.7357 10.2095 86.3749 10.2095C85.8654 10.2095 85.4515 10.3793 85.1332 10.7189C84.8148 11.0585 84.645 11.4936 84.645 12.0243C84.645 12.4382 84.7511 12.8096 84.974 13.1492H84.1992V14.1787H87.6378L88.0835 13.6374V13.1492H86.7675V13.1599Z" fill="currentColor"/>
<path id="polygon274" d="M84.9648 32.3586H86.1323L87.3315 31.3822V15.6646H84.9648V32.3586Z" fill="currentColor"/>
<path id="path276" d="M14.8259 18.1161C15.6537 17.8826 16.0782 17.4475 16.0782 16.8319C16.0782 16.5242 15.9827 16.2801 15.8023 16.089C15.6218 15.898 15.3777 15.8025 15.0806 15.8025C14.794 15.8025 14.5499 15.898 14.3589 16.089C14.1679 16.2801 14.0723 16.5242 14.0723 16.8213C14.0723 17.1079 14.1785 17.352 14.4013 17.5642L13.1172 17.9145V18.2222L13.3613 18.53L14.8259 18.1161ZM15.07 16.3544C15.3247 16.3756 15.452 16.5242 15.452 16.8107C15.452 17.0548 15.3247 17.2458 15.07 17.3732C14.8046 17.2883 14.6773 17.0973 14.6773 16.7895C14.6879 16.4923 14.8152 16.3544 15.07 16.3544Z" fill="currentColor"/>
<path id="path278" d="M13.4437 21.4167H14.3139C14.4307 21.4167 14.5368 21.3848 14.6217 21.3318C14.6854 21.2999 14.7278 21.2575 14.7703 21.2044H14.7809L14.9825 21.4167H15.6618C15.8528 21.4167 16.0014 21.353 16.1181 21.215C16.2243 21.0983 16.2667 20.9603 16.2667 20.8011V19.3153H15.5875V20.7374C15.5875 20.7693 15.5769 20.8011 15.545 20.8223C15.5238 20.8436 15.492 20.8648 15.4601 20.8648H14.8976V19.6125H14.2184V20.7268C14.2184 20.7693 14.1972 20.8011 14.1653 20.833C14.1441 20.8542 14.1017 20.8754 14.0592 20.8754H13.6347C13.5816 20.8754 13.5498 20.8542 13.5498 20.8223C13.5286 20.8011 13.5073 20.7799 13.5073 20.748V19.6231H13.1677L12.8281 19.899V20.8117C12.8281 20.9603 12.8812 21.0983 12.9767 21.2256C13.0934 21.353 13.2526 21.4167 13.4437 21.4167Z" fill="currentColor"/>
</g>
<path id="path282" d="M87.3296 6.97258C87.1492 6.78155 86.9051 6.68604 86.6079 6.68604C86.3214 6.68604 86.0773 6.78155 85.8862 6.97258C85.6952 7.16362 85.5997 7.40771 85.5997 7.70487C85.5997 7.99142 85.7058 8.23552 85.9287 8.44778L84.6445 8.798V9.09516L84.8886 9.40294L86.3638 8.98903C87.2022 8.75555 87.6161 8.32042 87.6161 7.70487C87.6161 7.41832 87.5206 7.16362 87.3296 6.97258ZM86.6185 8.25674C86.3532 8.17184 86.2259 7.98081 86.2259 7.67303C86.2259 7.37587 86.3532 7.22729 86.6185 7.22729C86.8732 7.24852 87.0006 7.3971 87.0006 7.68365C86.99 7.93836 86.8626 8.11878 86.6185 8.25674Z" fill="currentColor"/>
</g>
</g>
</g>
</svg>
