<svg width="115" height="40" viewBox="0 0 115 40" fill="none" xmlns="http://www.w3.org/2000/svg">
<g id="Group 1000004182">
<path id="Vector" d="M70.7997 17.7398L57.7658 0C56.1829 1.02674 55.7979 3.08022 56.8817 4.56328L69.9156 22.3173C71.4985 21.2906 71.8977 19.2228 70.7997 17.7398Z" fill="currentColor"/>
<path id="Vector_2" d="M53.2161 13.8325L52.3034 12.5918L53.8008 11.6221C55.7259 10.3672 56.1965 7.88593 54.8703 6.07487L50.4068 0C48.8239 1.02674 48.4246 3.08022 49.5227 4.57755L52.6599 8.84136C53.4728 9.9394 53.1733 11.451 52.004 12.2068L48.938 8.01427C47.3551 9.04101 46.9558 11.0945 48.0539 12.5918L50.4496 15.8574C51.348 17.0695 51.02 18.7522 49.7223 19.5936L40.3105 25.7255L40.5958 26.1105L52.2892 18.4956C53.9291 17.4546 54.3284 15.3583 53.2161 13.8325Z" fill="currentColor"/>
<path id="Vector_3" d="M36.5751 20.6061L42.7783 16.5562C44.3897 15.5009 44.789 13.4189 43.6767 11.8931L40.8247 8.01427C39.2418 9.04101 38.8425 11.0945 39.9405 12.5918L41.4236 14.6168C42.0511 15.4581 41.8229 16.6275 40.9245 17.2121L39.1562 18.3672L25.6803 0C24.0974 1.02674 23.6981 3.08022 24.7961 4.57754L36.5751 20.6061Z" fill="currentColor"/>
<path id="Vector_4" d="M27.5485 21.3619C26.7357 21.8895 25.6234 21.7041 25.0529 20.9341L24.5253 20.2068L24.5396 20.1925L18.6501 12.1783L19.9763 11.3227C20.8604 10.7522 22.0726 10.9662 22.6857 11.7933L28.0048 18.9804C28.5895 19.7505 28.3756 20.82 27.5485 21.3619ZM26.1653 10.6809C25.0815 9.21214 22.9424 8.84138 21.3881 9.85386L18.3791 11.8075L15.5984 8.02854C14.0155 9.05528 13.6162 11.1088 14.7143 12.6061L15.9121 14.246L16.9103 15.6007C17.8087 16.8129 17.4808 18.4956 16.1831 19.3369L14.4718 20.4492L11.6483 22.2888L3.6483 11.3512C3.02084 10.5098 3.24901 9.34048 4.14741 8.75581L4.6893 8.39931L4.40409 8.01428L2.23653 9.42605C0.653642 10.4528 0.268614 12.492 1.35239 13.9893L9.08146 24.5277L14.7856 20.82L17.5948 18.9947C18.0369 18.7095 18.3791 18.353 18.6644 17.9537L21.602 21.9466L21.7303 22.1177C22.7285 23.4724 24.6822 23.8146 26.1225 22.8735L29.602 20.6061C31.0565 19.6649 31.413 17.7826 30.4148 16.4136L26.1653 10.6809Z" fill="currentColor"/>
<path id="Vector_5" d="M19.9773 8.01419L22.0593 6.6452C22.4872 6.36 22.587 5.80385 22.3018 5.40456L20.8472 3.43665L18.7652 4.80563C18.3374 5.09084 18.2376 5.64698 18.5228 6.04627L19.9773 8.01419Z" fill="currentColor"/>
<path id="Vector_6" d="M108.161 11.7933L109.672 13.861C110.771 15.3583 112.938 15.7291 114.521 14.7023L111.626 10.7522C110.514 9.24066 108.332 8.8699 106.735 9.9109L104.653 11.2656L102.271 8.01428C100.688 9.04102 100.303 11.0945 101.387 12.5776L102 13.4047H101.986L102.984 14.7594C103.869 15.9715 103.555 17.6257 102.286 18.4813C102.286 18.4813 102.286 18.4813 102.271 18.4956L89.209 26.9947L89.4942 27.3797L100.845 19.9929L103.655 18.1676C104.097 17.8824 104.453 17.5259 104.724 17.1266L107.476 20.877C108.574 22.3744 110.742 22.7451 112.325 21.7184L104.924 11.6364L105.437 11.3084C106.321 10.738 107.533 10.9519 108.161 11.7933Z" fill="currentColor"/>
<path id="Vector_7" d="M95.4273 18.7095L89.9514 22.2746L79.4986 8.02856L74.5788 11.2371C72.9674 12.2924 72.5681 14.3744 73.6804 15.9002L78.4006 22.3174C79.9977 21.3477 80.4255 19.3084 79.3418 17.8254L75.9478 13.1908C75.3204 12.3494 75.5485 11.1801 76.4469 10.5954L76.9318 10.2817L87.3846 24.5277L97.2812 18.0821C98.8926 17.0268 99.2919 14.9448 98.1796 13.4189L94.2152 8.02856L89.2954 11.2229C87.684 12.2781 87.2847 14.3744 88.397 15.886L91.3489 19.9074C92.9318 18.8806 93.3311 16.8271 92.233 15.3298L90.6502 13.1765C90.0227 12.3352 90.2509 11.1658 91.1493 10.5812L91.6341 10.2674L95.9264 16.1141C96.5539 16.9697 96.3257 18.1248 95.4273 18.7095Z" fill="currentColor"/>
<path id="Vector_8" d="M105.395 8.01419L107.477 6.6452C107.905 6.36 108.004 5.80385 107.719 5.40456L106.279 3.43665L104.197 4.80563C103.769 5.09084 103.669 5.64698 103.954 6.04627L105.395 8.01419Z" fill="currentColor"/>
<path id="Vector_9" d="M89.9793 8.01419L92.0613 6.6452C92.4891 6.36 92.5889 5.80385 92.3037 5.40456L90.8492 3.43665L88.7672 4.80563C88.3394 5.09084 88.2395 5.64698 88.5248 6.04627L89.9793 8.01419Z" fill="currentColor"/>
<path id="Vector_10" d="M75.2625 8.01419L77.3445 6.6452C77.7723 6.36 77.8721 5.80385 77.5869 5.40456L76.1324 3.43665L74.0504 4.80563C73.6226 5.09084 73.5228 5.64698 73.808 6.04627L75.2625 8.01419Z" fill="currentColor"/>
<path id="Vector_11" d="M71.4846 10.4812L73.5666 9.11225C73.9944 8.82704 74.0942 8.27089 73.809 7.87161L72.3687 5.90369L70.2867 7.27267C69.8589 7.55788 69.7591 8.11403 70.0443 8.51332L71.4846 10.4812Z" fill="currentColor"/>
<path id="Vector_12" d="M24.2259 35.508V32.7986H26.3934C27.3916 32.7986 27.8622 33.4831 27.8622 34.1533C27.848 34.9519 27.3916 35.508 26.3506 35.508H24.2259ZM28.3756 34.1533C28.3613 33.2691 27.7054 32.385 26.4077 32.385H23.7695V38.0606H24.2259V35.9073H25.8658L27.9335 38.0606H28.5467L26.4362 35.893C27.7339 35.893 28.3756 35.0802 28.3756 34.1533Z" fill="currentColor"/>
<path id="Vector_13" d="M29.4316 32.7559C29.4316 33.1837 30.1019 33.1837 30.1019 32.7559C30.1019 32.3281 29.4316 32.3281 29.4316 32.7559Z" fill="currentColor"/>
<path id="Vector_14" d="M29.9585 34.0393H29.5449V38.0607H29.9585V34.0393Z" fill="currentColor"/>
<path id="Vector_15" d="M33.41 36.4207L32.9251 37.59L32.426 36.4207L31.4421 34.0535H31L32.6827 38.0178L31.7986 40H32.2406L34.9358 34.0535H34.4795L33.41 36.4207Z" fill="currentColor"/>
<path id="Vector_16" d="M37.5726 37.7327C36.6172 37.7327 35.8471 37.0624 35.8471 36.05C35.8471 35.0517 36.6172 34.3815 37.5726 34.3815C39.9256 34.3958 39.9256 37.7327 37.5726 37.7327ZM39.3124 34.9377C38.9559 34.3102 38.2714 34.0107 37.5869 34.0107C36.4033 34.0107 35.4336 34.8378 35.4336 36.0642C35.4336 37.2906 36.4033 38.132 37.5869 38.132C38.2714 38.132 38.8988 37.8468 39.3124 37.2193V38.0749H39.7259V34.0678H39.3124V34.9377Z" fill="currentColor"/>
<path id="Vector_17" d="M42.9775 37.7326C42.0221 37.7326 41.252 37.1622 41.252 36.0499C41.252 34.9233 42.0363 34.3672 42.9775 34.3672C43.9472 34.3672 44.703 35.0517 44.703 36.0499C44.703 37.0481 43.9615 37.7326 42.9775 37.7326ZM44.703 34.9376C44.3608 34.2816 43.6763 33.9964 42.949 33.9964C41.7654 33.9964 40.8242 34.738 40.8242 36.0642C40.8242 37.3904 41.7511 38.1319 42.9347 38.1319C43.6478 38.1319 44.3465 37.7896 44.703 37.1765V38.0606H45.1166V32.385H44.703V34.9376Z" fill="currentColor"/>
<path id="Vector_18" d="M48.4251 33.9964C47.8405 33.9964 47.2415 34.2246 46.8993 34.795V32.385H46.5V38.0606H46.9135V35.8645C46.9135 35.0232 47.5267 34.3814 48.4109 34.3814C49.3663 34.3814 49.7656 34.9376 49.7656 35.7647V38.0606H50.1791V35.7647C50.2077 34.7237 49.6087 33.9964 48.4251 33.9964Z" fill="currentColor"/>
<path id="Vector_19" d="M56.6526 32.713C57.3371 32.713 58.0074 32.9412 58.5207 33.4403L58.8345 33.1836C58.2355 32.6132 57.4369 32.328 56.6526 32.328C54.5991 32.328 53.5581 33.754 53.5724 35.2656C53.5867 36.7915 54.6277 38.1319 56.6526 38.1319C57.4369 38.1319 58.2355 37.8467 58.8345 37.2763L58.5207 37.0054C58.0074 37.4902 57.3229 37.7326 56.6526 37.7326C54.9271 37.7326 54.0287 36.5776 54.0145 35.2514C54.0002 33.8824 54.8986 32.713 56.6526 32.713Z" fill="currentColor"/>
<path id="Vector_20" d="M61.8294 33.9964C61.2448 33.9964 60.6458 34.2246 60.3036 34.795V32.385H59.9043V38.0606H60.3178V35.8645C60.3178 35.0232 60.931 34.3814 61.8294 34.3814C62.7849 34.3814 63.1842 34.9376 63.1842 35.7647V38.0606H63.5977V35.7647C63.5977 34.7237 63.013 33.9964 61.8294 33.9964Z" fill="currentColor"/>
<path id="Vector_21" d="M66.8056 37.7327C65.8502 37.7327 65.0802 37.0624 65.0802 36.05C65.0802 35.0517 65.8502 34.3815 66.8056 34.3815C69.1443 34.3958 69.1443 37.7327 66.8056 37.7327ZM68.5311 34.9377C68.1746 34.3102 67.4901 34.0107 66.8056 34.0107C65.622 34.0107 64.6523 34.8378 64.6523 36.0642C64.6523 37.2906 65.622 38.132 66.8056 38.132C67.4901 38.132 68.1176 37.8468 68.5311 37.2193V38.0749H68.9447V34.0678H68.5311V34.9377Z" fill="currentColor"/>
<path id="Vector_22" d="M75.2499 33.9822C74.5939 33.9822 73.9379 34.3102 73.6812 34.9661C73.4388 34.2531 72.7543 33.9822 72.1126 33.9822C71.5707 33.9822 71.0288 34.1961 70.7294 34.7237L70.7151 34.0535H70.3301V38.0606H70.7436V35.6934C70.7436 34.9234 71.2855 34.3672 72.0984 34.3672C72.8969 34.3672 73.4531 34.9234 73.4531 35.6934V38.0606H73.8666V35.6934C73.8666 34.9234 74.4228 34.3529 75.2213 34.3529C76.0199 34.3529 76.5761 34.8948 76.5761 35.6649V38.0606H76.9896V35.6649C77.0181 34.6667 76.2766 33.9822 75.2499 33.9822Z" fill="currentColor"/>
<path id="Vector_23" d="M80.497 37.7326C79.4988 37.7326 78.7716 37.0481 78.7716 36.0499C78.7716 35.0517 79.5273 34.3672 80.497 34.3672C81.4382 34.3672 82.2225 34.9234 82.2225 36.0499C82.2225 37.1765 81.4382 37.7326 80.497 37.7326ZM80.5113 33.9964C79.784 33.9964 79.0995 34.2817 78.7573 34.9376V32.3993H78.3438V38.0749H78.7573V37.1907C79.1138 37.8039 79.7983 38.1462 80.5256 38.1462C81.7092 38.1462 82.6361 37.4047 82.6361 36.0784C82.6361 34.738 81.6949 33.9964 80.5113 33.9964Z" fill="currentColor"/>
<path id="Vector_24" d="M83.8913 35.8932C83.9911 34.9092 84.7326 34.3531 85.6168 34.3531C86.6293 34.3531 87.3138 34.9092 87.328 35.8932H83.8913ZM85.6025 33.9966C84.4189 33.9966 83.4492 34.8665 83.4492 36.0643C83.4492 37.3335 84.4047 38.1321 85.6025 38.1321C86.2728 38.1321 87.0143 37.8754 87.4278 37.362L87.1284 37.1338C86.8146 37.5331 86.1587 37.747 85.6025 37.747C84.7326 37.747 83.9626 37.1909 83.877 36.2497H87.6845C87.8556 34.6811 86.8004 33.9966 85.6025 33.9966Z" fill="currentColor"/>
<path id="Vector_25" d="M89.1675 34.7666L89.1532 34.0536H88.7539V38.0608H89.1675V35.7221C89.1675 34.9948 89.7806 34.3959 90.565 34.3816C90.8074 34.3816 91.0641 34.4387 91.278 34.567L91.4634 34.239C91.1782 34.0821 90.8787 33.9966 90.5507 33.9966C90.0373 34.0251 89.4384 34.2247 89.1675 34.7666Z" fill="currentColor"/>
<path id="Vector_26" d="M42.0094 18.8521C41.5816 19.1373 41.4817 19.6935 41.7669 20.0928L43.2072 22.0607L45.2892 20.6917C45.717 20.4065 45.8169 19.8504 45.5316 19.4511L44.0771 17.4832L42.0094 18.8521Z" fill="currentColor"/>
<path id="Vector_27" d="M40.3121 19.9358L38.2301 21.3048C37.8023 21.59 37.7024 22.1461 37.9876 22.5454L39.4279 24.5133L41.5099 23.1443C41.9377 22.8591 42.0376 22.303 41.7524 21.8894L40.3121 19.9358Z" fill="currentColor"/>
</g>
</svg>
