<svg width="73" height="40" viewBox="0 0 73 40" fill="none" xmlns="http://www.w3.org/2000/svg">
<g id="Group 1000004181">
<path id="Vector" d="M48.5218 7.75793C51.9798 7.75793 55.4377 7.75793 59.0005 7.75793C59.0005 8.42293 59.0005 9.08792 59.0005 9.77306C58.7179 9.81878 58.4352 9.8645 58.144 9.9116C57.438 10.067 57.2182 10.1455 56.6831 10.6673C56.141 11.5933 56.1375 12.4338 56.1155 13.4782C56.1114 13.6429 56.1072 13.8075 56.1028 13.9771C56.0897 14.5027 56.0778 15.0283 56.0659 15.5539C56.0572 15.9104 56.0485 16.2669 56.0396 16.6233C56.018 17.4969 55.9976 18.3705 55.9778 19.2441C56.0801 19.1761 56.1825 19.108 56.2879 19.0379C58.2514 17.7657 60.3497 17.4022 62.3955 17.9201C64.4413 18.4381 65.8519 19.8487 65.8519 19.8487L66.4564 20.4532C67.943 22.1388 69.2904 24.3105 69.3094 26.6158C69.3115 26.7974 69.3135 26.979 69.3157 27.1661C69.3171 27.361 69.3186 27.5558 69.3201 27.7565C69.3258 28.1708 69.3315 28.5851 69.3374 28.9994C69.3457 29.6512 69.3532 30.303 69.3585 30.9548C69.3641 31.5848 69.3733 32.2147 69.3831 32.8447C69.3837 33.0387 69.3844 33.2326 69.3851 33.4325C69.4051 34.5299 69.4566 35.5441 70.2852 36.3727C70.6241 36.4196 70.9645 36.4559 71.3053 36.4861C71.6337 36.5152 71.962 36.5442 72.3003 36.5742C72.3003 37.3722 72.3003 38.1702 72.3003 38.9924C68.7093 38.9924 65.1184 38.9924 61.4186 38.9924C61.4186 38.2609 61.4186 37.5294 61.4186 36.7757C61.5885 36.7583 61.7584 36.7409 61.9334 36.723C62.1542 36.6947 62.375 36.6664 62.6025 36.6372C62.9321 36.5986 62.9321 36.5986 63.2684 36.5593C63.8686 36.4349 63.8686 36.4349 64.0703 35.9339C64.2569 35.3078 64.2923 34.7914 64.2951 34.1384C64.2971 33.8956 64.299 33.6528 64.301 33.4027C64.3008 33.1422 64.3006 32.8817 64.3004 32.6132C64.3012 32.3415 64.3021 32.0698 64.303 31.798C64.3045 31.2296 64.3045 30.6611 64.3034 30.0927C64.3022 29.3656 64.3057 28.6386 64.3103 27.9116C64.3133 27.3507 64.3135 26.79 64.3128 26.2291C64.313 25.8312 64.3158 25.4333 64.3186 25.0353C64.3174 24.7926 64.3161 24.5498 64.3148 24.2997C64.315 24.0866 64.3151 23.8735 64.3152 23.6539C64.2115 22.8549 63.8876 22.3253 63.331 21.7518C62.378 21.0396 61.6023 20.8829 60.4237 20.9066C60.183 20.9097 60.183 20.9097 59.9375 20.9129C58.8119 20.9648 58.0902 21.1665 57.2892 22.0023C56.2711 23.5637 56.0586 24.6695 56.0722 26.5175C56.0715 26.7484 56.0707 26.9794 56.0699 27.2173C56.0694 27.7038 56.0708 28.1902 56.0742 28.6766C56.0785 29.4182 56.0742 30.1595 56.0691 30.9012C56.0696 31.3753 56.0707 31.8494 56.0722 32.3236C56.0706 32.5438 56.069 32.764 56.0673 32.991C56.0837 34.3358 56.2482 35.2346 56.9853 36.3727C57.5426 36.6076 57.5426 36.6076 58.144 36.5742C58.4932 36.5742 58.8423 36.5742 59.202 36.5742C59.202 37.3722 59.202 38.1702 59.202 38.9924C55.611 38.9924 52.0201 38.9924 48.3203 38.9924C48.3203 38.2609 48.3203 37.5294 48.3203 36.7757C48.6403 36.73 48.9604 36.6843 49.2901 36.6372C50.1453 36.4796 50.1453 36.4796 50.7511 35.8689C50.8134 35.7027 50.8757 35.5364 50.94 35.3651C51.0397 35.1656 51.0397 35.1656 51.1415 34.9621C51.1618 34.6508 51.1696 34.3387 51.1711 34.0267C51.1733 33.7309 51.1733 33.7309 51.1755 33.4292C51.1763 33.1035 51.1763 33.1035 51.1772 32.7713C51.1785 32.5432 51.1798 32.3151 51.1812 32.0801C51.1852 31.3227 51.1875 30.5653 51.1895 29.8078C51.1903 29.5496 51.1911 29.2913 51.192 29.0253C51.1958 27.7996 51.1987 26.5738 51.2004 25.3481C51.2023 23.934 51.2076 22.5199 51.2158 21.1057C51.2226 19.8804 51.225 18.6552 51.2258 17.4299C51.2268 16.9089 51.2291 16.388 51.2329 15.867C51.2378 15.1381 51.2376 14.4093 51.2362 13.6803C51.2401 13.3571 51.2401 13.3571 51.244 13.0273C51.2355 11.8172 51.1584 11.09 50.3354 10.1761C49.7261 9.91178 49.1877 9.87099 48.5218 9.77306C48.5218 9.10807 48.5218 8.44308 48.5218 7.75793Z" fill="currentColor"/>
<path id="Vector_2" d="M40.0116 6.73311C40.4397 6.94189 40.7934 7.09509 41.2664 7.15346C41.8076 6.61228 41.8831 6.07008 42.0724 5.33984C42.6044 5.33984 43.1364 5.33984 43.6845 5.33984C43.6967 5.59753 43.7089 5.85521 43.7215 6.1207C43.7385 6.46496 43.7556 6.80921 43.7727 7.15346C43.7806 7.32256 43.7885 7.49167 43.7967 7.6659C43.8349 8.42345 43.8851 9.16227 43.9915 9.91402C44.1625 11.1896 44.1247 12.4811 44.1253 13.7656C44.1278 14.0347 44.1303 14.3037 44.1328 14.5728C44.1332 14.8273 44.1336 15.0817 44.134 15.3438C44.1348 15.5752 44.1356 15.8066 44.1365 16.045C44.0876 16.6245 44.0876 16.6245 43.6845 17.2291C43.1556 17.2669 43.1556 17.2669 42.677 17.2291C42.6206 17.0145 42.5642 16.8 42.5061 16.5789C41.7643 13.8512 40.9541 10.987 38.4452 9.37009C37.4235 8.84586 36.5584 8.6704 35.4225 8.68999C35.2191 8.68648 35.2191 8.68648 35.0116 8.6829C33.3708 8.69241 32.1998 9.38031 31.0317 10.4666C29.6339 12.0843 28.9618 14.1521 28.5711 16.2215C28.5379 16.3655 28.5047 16.5095 28.4704 16.6578C28.0831 18.4751 28.0708 20.2907 28.0673 22.1409C28.0665 22.3954 28.0665 22.3954 28.0657 22.6549C28.0683 26.3942 28.5178 30.0219 31.1026 32.9219C31.2647 33.0632 31.4268 33.2045 31.5938 33.3501C31.7434 33.4914 31.893 33.6327 32.0472 33.7783C33.7854 34.9634 35.8978 35.032 37.9335 34.6733C39.8314 34.0694 40.9861 32.3973 41.9591 30.7682C42.0654 30.5953 42.1718 30.4225 42.2814 30.2443C42.8066 29.3931 42.8066 29.3931 43.2815 28.5138C43.8768 28.7902 44.3777 29.116 44.8936 29.5213C44.3893 32.174 42.3101 35.1043 40.2588 36.7758C37.6342 38.4384 35.2519 38.6481 32.1983 38.3879C30.5316 38.0055 29.2252 37.0988 27.9666 35.9697C27.7585 35.7862 27.7585 35.7862 27.5462 35.599C24.3986 32.6503 22.9994 28.2917 22.8445 24.0789C22.674 18.0588 23.7956 12.7445 28.0169 8.2114C31.462 4.91409 35.9093 4.52825 40.0116 6.73311Z" fill="currentColor"/>
<path id="Subtract" fill-rule="evenodd" clip-rule="evenodd" d="M1.78768 5.26163L1.33354 5.26309C0.610026 5.41334 0.56224 5.92195 0.521484 6.57648L0.535653 7.29201C0.542141 7.71606 0.549956 8.1401 0.560842 8.56406L1.06147 8.59397L1.71954 8.63962C2.5766 8.69552 2.99758 8.77486 3.78504 9.16859L3.58353 34.9622C3.39442 35.0675 3.2901 35.1256 3.17904 35.1643C3.04241 35.212 2.89558 35.2304 2.5681 35.2715L1.84548 35.3778L1.11972 35.4857L0.560842 35.5667L0.546673 36.1185L0.535653 36.8388C0.534551 36.8944 0.533344 36.9479 0.53218 36.9996C0.515204 37.7529 0.507248 38.106 0.963867 38.7909L1.37547 38.8677L1.88794 38.8692L2.46876 38.8749L3.09785 38.8712C3.53459 38.8724 3.97133 38.8732 4.40808 38.8736C5.09893 38.8697 5.78956 38.8665 6.48042 38.8697C6.93048 38.8723 7.38055 38.8734 7.83062 38.873L8.47572 38.8712L9.10357 38.8749L9.68632 38.8692L9.70404 38.8691C10.2687 38.8675 10.5363 38.8668 10.994 38.5201C11.0978 38.3798 11.158 38.2985 11.1978 38.2082C11.2527 38.0837 11.2688 37.9422 11.3071 37.6055L11.2914 36.9521C11.2857 36.5572 11.2716 36.162 11.241 35.7682C11.1889 35.7161 11.149 35.6763 11.1034 35.6449C10.9551 35.5432 10.7455 35.5309 9.85561 35.4786L9.81865 35.4765C9.03449 35.4322 8.69281 35.4129 8.0168 34.9622L7.93646 34.5312L7.92968 33.9915L7.91759 33.3803L7.91369 32.7188C7.90238 32.0215 7.89184 31.3243 7.8851 30.627C7.88054 30.1411 7.87489 29.6551 7.86818 29.1692C7.84684 27.7417 7.82876 26.3142 7.81529 24.8866L8.33081 24.9142L9.00046 24.9581L9.66711 24.9983C9.96526 25.0139 10.1165 25.0218 10.2344 25.0886C10.3558 25.1575 10.4416 25.2889 10.616 25.5557C10.7436 25.982 10.7979 26.1632 10.8662 26.339C10.9166 26.4689 10.9748 26.5958 11.0759 26.8165L11.3622 27.4039C11.5018 27.6991 11.6407 27.995 11.7797 28.291C12.9066 30.6914 14.0401 33.1056 15.5657 35.2802C17.1011 37.3883 19.0277 39.5529 21.7197 40C22.0113 39.2645 22.2771 38.5491 22.4989 37.7897C22.5124 37.4821 22.5191 37.3294 22.4777 37.1911C22.4369 37.0547 22.3493 36.9323 22.1754 36.6892C18.5401 33.2359 16.1867 27.9877 14.6667 23.2745C14.8341 23.2745 14.9415 23.2745 15.0417 23.2477C15.2208 23.1999 15.3771 23.0666 15.8128 22.6951C17.7399 20.9465 18.8233 18.8812 18.9678 16.2648C19.0639 13.0219 18.715 10.0631 16.4425 7.59428C15.6067 6.80771 15.0513 6.28499 14.402 5.93791C13.1155 5.25028 11.4606 5.25202 6.52711 5.25721C5.91145 5.26111 5.29605 5.26422 4.68039 5.26104C4.27026 5.25853 3.86013 5.2574 3.45001 5.25781L2.86643 5.25957L2.30423 5.25586L1.78768 5.26163ZM13.3254 10.5988C11.687 9.01085 10.0414 8.96706 7.81529 8.96706V21.2593C7.94399 21.2593 8.06888 21.2596 8.1903 21.2598C10.2628 21.2636 11.3219 21.2656 12.9617 20.0849C13.9613 19.2027 14.5721 18.062 14.7228 16.7355C14.8389 14.4744 14.8851 12.3903 13.3254 10.5988Z" fill="currentColor"/>
<path id="Vector_3" d="M61.6191 7.75806C65.0771 7.75806 68.535 7.75806 72.0978 7.75806C72.0978 8.42305 72.0978 9.08804 72.0978 9.77318C71.8152 9.81474 71.5325 9.85631 71.2414 9.89913C70.5473 10.0012 70.3283 10.1258 69.8591 10.6623C69.2993 11.5447 69.3566 12.4708 69.3553 13.487C69.352 13.6866 69.3487 13.8861 69.3452 14.0917C69.3355 14.7261 69.3312 15.3604 69.327 15.9949C69.3213 16.4262 69.3153 16.8576 69.3089 17.289C69.294 18.3437 69.2836 19.3985 69.2766 20.4533C68.6904 19.8721 68.1336 19.2937 67.6141 18.6523C66.7817 17.6863 65.7797 16.992 64.6418 16.4231C64.6389 16.2962 64.636 16.1693 64.6329 16.0385C64.6178 15.4571 64.5984 14.8759 64.5789 14.2946C64.5743 14.095 64.5698 13.8954 64.5651 13.6897C64.5221 12.5124 64.4196 11.6124 63.8358 10.5792C63.2512 10.1895 63.0505 10.1155 62.3874 10.0503C62.1339 10.0253 61.8804 10.0004 61.6191 9.97469C61.6191 9.2432 61.6191 8.51171 61.6191 7.75806Z" fill="currentColor"/>
<ellipse id="Ellipse 7177" cx="53.5195" cy="3.42571" rx="3.42571" ry="3.42571" fill="currentColor"/>
<ellipse id="Ellipse 7178" cx="66.8202" cy="3.42571" rx="3.42571" ry="3.42571" fill="currentColor"/>
<circle id="Ellipse 7179" cx="60.3709" cy="13.2998" r="2.21664" fill="currentColor"/>
</g>
</svg>
