<svg width="118" height="40" viewBox="0 0 118 40" fill="none" xmlns="http://www.w3.org/2000/svg">
<g id="Layer 1-2">
<path id="Vector" d="M83.1717 8.6542C82.4568 6.92505 80.7342 5.703 78.7258 5.703H77.3375C76.9368 5.703 76.5477 5.75288 76.1753 5.84433V9.07153C76.4895 8.80883 76.8935 8.65255 77.3375 8.65255H78.7258C79.72 8.65255 80.5281 9.45061 80.5281 10.4316V11.7767H62.2622V10.4316C62.2622 7.82454 60.1091 5.70467 57.4638 5.70467H53.3172V11.78H50.0484C49.0508 11.78 48.2428 10.9819 48.2428 10.001V6.04218L45.25 6.35144V10.001C45.25 12.608 47.4031 14.7279 50.0484 14.7279H56.3116V8.65587H57.4638C58.4614 8.65587 59.2695 9.45394 59.2695 10.4349V14.7312H83.5242V10.4349C83.5242 9.80476 83.3978 9.20621 83.17 8.65587" fill="currentColor"/>
<path id="Vector_2" d="M115.226 4.9281H114.359V6.48102H115.226V14.7278H117.432V6.48102V4.9281H115.226Z" fill="currentColor"/>
<path id="Vector_3" d="M117.41 2.63192H116.064V2.0101C116.072 1.86046 116.248 1.86046 116.335 1.86046H117.414V0.309204H116.335C115.01 0.309204 114.508 1.30679 114.488 1.97684V2.63192H113.734V4.1865H117.412V2.63192H117.41Z" fill="currentColor"/>
<path id="Vector_4" d="M112.226 9.16959C112.167 7.65658 111.014 5.40535 108.064 5.40535C106.617 5.40535 105.121 6.37135 103.502 8.35157V5.9241H100.509V11.775H90.1988V1.37842H86.4961V3.5515H87.206V14.7228H100.248L101.482 13.5058L102.719 14.7228H112.229V9.1646L112.226 9.16792V9.16959ZM109.233 11.7766H103.503V11.7384C104.898 9.79973 106.704 8.35655 108.066 8.35655C108.333 8.35655 109.145 8.35655 109.233 9.27932V11.7783V11.7766Z" fill="currentColor"/>
<path id="Vector_5" d="M106.689 4.4875C107.604 4.4875 108.344 3.75594 108.344 2.85644C108.344 1.95695 107.601 1.22705 106.689 1.22705C105.778 1.22705 105.035 1.95529 105.035 2.85644C105.035 3.7576 105.775 4.4875 106.689 4.4875Z" fill="currentColor"/>
<path id="Vector_6" d="M48.8258 19.1239C49.7286 19.1239 50.4569 18.404 50.4569 17.5145C50.4569 16.625 49.7253 15.905 48.8258 15.905C47.9263 15.905 47.1914 16.625 47.1914 17.5145C47.1914 18.404 47.923 19.1239 48.8258 19.1239Z" fill="currentColor"/>
<path id="Vector_7" d="M52.8459 19.1239C53.7487 19.1239 54.4803 18.404 54.4803 17.5145C54.4803 16.625 53.7487 15.905 52.8459 15.905C51.9431 15.905 51.2148 16.625 51.2148 17.5145C51.2148 18.404 51.9464 19.1239 52.8459 19.1239Z" fill="currentColor"/>
<path id="Vector_8" d="M59.0907 31.592C59.0907 34.6846 56.5385 37.1968 53.4028 37.1968C50.267 37.1968 47.7115 34.6846 47.7115 31.592C47.7115 28.4995 50.2637 25.9873 53.4028 25.9873C56.5419 25.9873 59.0907 28.5028 59.0907 31.592ZM59.6726 26.521C58.143 24.6771 55.8535 23.5964 53.4011 23.5964C48.9286 23.5964 45.2891 27.1827 45.2891 31.5904C45.2891 35.9981 48.9286 39.5861 53.4011 39.5861C55.8535 39.5861 58.1413 38.507 59.6726 36.6615V39.5861H62.6238V23.3004H59.6726V26.5193V26.521Z" fill="currentColor"/>
<path id="Vector_9" d="M76.9766 32.0526C76.9766 34.8891 74.6356 37.1968 71.7559 37.1968C68.8762 37.1968 66.5368 34.8891 66.5368 32.0526C66.5368 29.2161 68.8778 26.9084 71.7559 26.9084C74.6339 26.9084 76.9766 29.2161 76.9766 32.0526ZM77.0681 26.6457C75.6515 25.2873 73.7511 24.5191 71.7559 24.5191C67.5394 24.5191 64.1094 27.8993 64.1094 32.0509C64.1094 36.2026 67.5394 39.5827 71.7559 39.5827C73.7527 39.5827 75.6515 38.8146 77.0681 37.4562V39.5827H80.0226V19.1305H77.0681V26.644V26.6457Z" fill="currentColor"/>
<path id="Vector_10" d="M95.2681 31.5937C95.2681 34.6862 92.716 37.1985 89.5769 37.1985C86.4378 37.1985 83.889 34.6862 83.889 31.5937C83.889 28.5011 86.4411 25.9889 89.5769 25.9889C92.7127 25.9889 95.2681 28.5011 95.2681 31.5937ZM95.8501 26.5243C94.3204 24.6804 92.031 23.5997 89.5769 23.5997C85.1044 23.5997 81.4648 27.186 81.4648 31.5937C81.4648 36.0014 85.1044 39.5894 89.5769 39.5894C92.0293 39.5894 94.3171 38.5103 95.8501 36.6631V39.5894H98.8013V23.3037H95.8501V26.5226V26.5243Z" fill="currentColor"/>
<path id="Vector_11" d="M117.459 23.302H114.508V39.591H117.459V23.302Z" fill="currentColor"/>
<path id="Vector_12" d="M115.984 22.7285C116.796 22.7285 117.459 22.0767 117.459 21.2737C117.459 20.4706 116.796 19.8188 115.984 19.8188C115.173 19.8188 114.508 20.4706 114.508 21.2737C114.508 22.0767 115.171 22.7285 115.984 22.7285Z" fill="currentColor"/>
<path id="Vector_13" d="M107.045 23.8657C105.65 23.8657 104.241 24.3412 103.171 25.1576V19.1305H100.246V39.5944H103.167L103.26 29.833C103.26 27.8843 104.991 26.2383 107.041 26.2383C109.091 26.2383 110.689 27.8511 110.689 29.833V39.5944H113.093V29.833C113.093 26.5442 110.378 23.869 107.041 23.869" fill="currentColor"/>
<path id="Vector_14" d="M20.0191 3.86572C20.8255 5.13931 21.0716 6.40625 21.1381 7.90263C23.657 6.03382 26.4868 6.67726 28.2891 8.27839C26.1543 7.38721 23.233 8.82208 22.7758 10.2436C25.7337 8.84037 28.778 10.0691 29.9185 12.997C28.2625 11.6885 25.5691 11.5006 24.2057 12.7376C25.9897 12.7659 28.2093 13.7585 28.7015 16.5102C26.3123 14.5798 22.5663 14.4551 20.0208 16.5102C16.8983 14.4834 13.44 14.6347 11.3401 16.5102C11.8323 13.7601 14.0519 12.7659 15.8359 12.7376C14.4725 11.5006 11.779 11.6885 10.123 12.997C11.2636 10.0707 14.3096 8.84203 17.2658 10.2436C16.8069 8.82208 13.8856 7.38555 11.7524 8.27839C13.5548 6.67726 16.3879 6.03382 18.9035 7.90263C18.9667 6.40625 19.2161 5.13931 20.0191 3.86572Z" fill="currentColor"/>
<path id="Vector_15" d="M9.7327 0.819685C4.98916 0.819685 1.13181 4.62216 1.13181 9.29587V30.7008C1.13181 35.3728 4.99249 39.1753 9.7327 39.1753H30.3063C35.0499 39.1753 38.9072 35.3728 38.9072 30.7008V9.29587C38.9072 4.62383 35.0499 0.821349 30.3063 0.821349H9.7327V0.818025V0.819685ZM30.308 39.9967H9.73436C4.53193 39.9967 0.298828 35.8268 0.298828 30.6991V9.29753C0.298828 4.16992 4.53193 0 9.73436 0H30.308C35.5104 0 39.7435 4.16992 39.7435 9.29753V30.7025C39.7435 35.8301 35.5104 40 30.308 40" fill="currentColor"/>
<path id="Vector_16" d="M19.1442 18.8844V28.679H20.89V18.8844C20.89 17.9616 22.1885 16.8194 23.206 16.6032C22.0106 16.5018 20.6073 17.2999 20.0171 18.2492C19.377 17.2932 18.0768 16.4951 16.8281 16.6032C17.8473 16.8194 19.1442 17.9649 19.1442 18.8844Z" fill="currentColor"/>
<path id="Vector_17" d="M35.7538 25.6298C35.3897 25.422 34.7163 25.0828 33.7902 24.7935C32.4534 24.3745 30.5979 24.0619 28.3949 24.4044C27.6517 24.5208 26.8736 24.7137 26.0589 24.998C25.9807 25.0262 25.9042 25.0512 25.8261 25.0778C25.4154 25.2324 24.9998 25.417 24.5891 25.6198C24.2349 25.796 23.8858 25.9906 23.535 26.1967C22.7369 26.6656 21.9505 27.2093 21.1823 27.7879L20.5056 28.2933L20.0218 28.0556L19.538 28.2933L18.8613 27.7879C17.3616 26.659 15.782 25.6614 14.2175 25.0794C14.0246 25.0096 13.8334 24.9448 13.6455 24.8833C12.0294 24.3612 10.5497 24.2115 9.2578 24.2697C7.18448 24.3579 5.59998 24.968 4.72875 25.397C4.55251 25.4851 4.40287 25.5633 4.28981 25.6298C4.24325 25.658 4.27651 25.7229 4.32805 25.7079C4.46272 25.663 4.59906 25.6281 4.73041 25.5915C6.32323 25.1493 7.83458 25.0312 9.25947 25.1526C10.819 25.2856 12.2772 25.7079 13.6472 26.3148C15.5659 27.1661 17.3034 28.3781 18.8679 29.6634C16.6533 31.5638 14.7811 33.4126 13.6472 34.0627C13.589 34.0927 13.5341 34.1259 13.4809 34.1542C13.2083 33.7867 12.7361 33.5772 12.219 33.687C11.7717 33.7834 11.4043 34.1392 11.3029 34.5782C11.2114 34.9705 11.3162 35.3962 11.5406 35.6156C12.1458 36.2092 12.8441 36.2508 13.6472 35.9166C15.1802 35.2815 17.0872 33.2846 19.4299 31.1731C19.6228 30.9968 19.8223 30.8189 20.0235 30.6427C20.2246 30.8172 20.4208 30.9935 20.617 31.1697C21.6778 32.1258 22.6488 33.0585 23.5383 33.8532C23.9024 34.1791 24.2566 34.4834 24.5924 34.7527C25.1145 35.175 25.605 35.5175 26.0622 35.7586C26.96 36.2258 27.7332 36.284 28.3982 35.7088C28.4348 35.6788 28.4697 35.6472 28.5063 35.6156C28.6609 35.4643 28.8372 34.9689 28.7457 34.5782C28.6925 34.3487 28.5695 34.1442 28.3982 33.9879C28.2403 33.8416 28.0441 33.7335 27.8296 33.687C27.3125 33.5772 26.8403 33.7867 26.5676 34.1542C26.4163 34.0794 26.2451 33.9746 26.0622 33.8499C25.6432 33.5656 25.1477 33.1616 24.5924 32.6827C24.2615 32.3984 23.9074 32.0842 23.5383 31.7517C22.815 31.1049 22.022 30.3899 21.1807 29.6634C21.9255 29.0499 22.7136 28.4546 23.5383 27.9076C23.8841 27.6782 24.2349 27.457 24.5924 27.2442C25.0696 26.9649 25.5584 26.7055 26.0622 26.4678C26.8137 26.1136 27.5918 25.816 28.3982 25.5866C30.0692 25.1177 31.8665 24.9547 33.7935 25.2574C34.4203 25.3571 35.0604 25.5001 35.7155 25.7046C35.7687 25.7179 35.8003 25.6514 35.7538 25.6265" fill="currentColor"/>
</g>
</svg>
