<svg width="66" height="40" viewBox="0 0 66 40" fill="none" xmlns="http://www.w3.org/2000/svg">
<g id="Group 1000004185">
<g id="Vector">
<path d="M-79.2493 9.99327C-78.6239 9.99327 -78.1352 9.48505 -78.1352 8.84001C-78.1352 8.23407 -78.6434 7.72585 -79.2493 7.72585C-79.8748 7.72585 -80.4026 8.21452 -80.4026 8.84001C-80.4026 9.5046 -79.8944 9.99327 -79.2493 9.99327Z" fill="currentColor"/>
<path d="M-75.9663 21.0957C-76.6309 21.0957 -77.1196 21.5844 -77.1196 22.2099C-77.1196 22.8354 -76.6309 23.3436 -75.9663 23.3436C-75.3604 23.3436 -74.8522 22.8354 -74.8522 22.2099C-74.8522 21.6235 -75.3604 21.0957 -75.9663 21.0957Z" fill="currentColor"/>
<path d="M-74.2845 16.17C-74.2845 17.1669 -74.6559 17.5187 -75.7114 17.5187H-76.9233V14.9972C-76.9233 12.4561 -78.2329 11.1074 -80.6763 11.1074C-83.6669 11.1074 -85.0352 13.1989 -85.0352 15.2513C-85.0352 16.7564 -84.5465 17.8901 -83.6473 18.4961C-82.6114 19.1802 -81.7513 19.317 -79.7967 19.317H-75.6137C-73.3853 19.317 -72.1344 18.4765 -72.1344 16.2286V11.1074H-74.304V16.17H-74.2845ZM-80.2853 17.5187C-82.0641 17.5187 -82.8068 16.815 -82.8068 15.1731C-82.8068 13.7853 -82.025 12.9057 -80.8131 12.9057C-79.6012 12.9057 -79.0343 13.6485 -79.0343 15.2318V17.5187H-80.2853Z" fill="currentColor"/>
<path d="M-81.8687 9.99327C-81.2432 9.99327 -80.7545 9.48505 -80.7545 8.84001C-80.7545 8.23407 -81.2627 7.72585 -81.8687 7.72585C-82.4942 7.72585 -82.9828 8.21452 -82.9828 8.84001C-82.9828 9.5046 -82.5332 9.99327 -81.8687 9.99327Z" fill="currentColor"/>
<path d="M-63.5733 15.2513C-63.5733 13.1989 -64.9024 11.1074 -67.8931 11.1074H-69.5936V12.9057H-67.7172C-66.5053 12.9057 -65.7234 13.7853 -65.7234 15.1731V17.5187H-71.3333V19.317H-63.5733V15.2513Z" fill="currentColor"/>
<path d="M-73.3853 21.0957C-74.0108 21.0957 -74.4994 21.5844 -74.4994 22.2099C-74.4994 22.8354 -74.0108 23.3436 -73.3853 23.3436C-72.7598 23.3436 -72.232 22.8354 -72.232 22.2099C-72.232 21.6235 -72.7403 21.0957 -73.3853 21.0957Z" fill="currentColor"/>
<path d="M10.977 7.11993H8.86591V19.3366H10.977V7.11993Z" fill="currentColor"/>
<path d="M9.57005 21.0957V23.1286C10.2542 23.2458 10.7428 23.2849 11.212 23.2849C14.144 23.2849 15.5709 21.9558 15.5709 19.1997V11.9088H13.3817V19.2388C13.3817 20.6266 12.5998 21.4671 11.3879 21.4671C10.6256 21.4671 10.0587 21.2716 9.8437 21.213L9.57005 21.0957Z" fill="currentColor"/>
<path d="M19.0695 8.42955H16.9585V19.3366H19.0695V8.42955Z" fill="currentColor"/>
<path d="M-16.8959 18.5156C-15.8599 19.1997 -14.9999 19.3366 -13.0257 19.3366H-12.3024C-12.322 20.7439 -13.1234 21.4476 -14.6285 21.4476C-15.3126 21.4476 -16.1336 21.3499 -17.0132 21.0567L-17.15 21.0176V23.0504C-16.0749 23.2459 -15.254 23.3241 -14.5112 23.3241C-11.6378 23.3241 -10.1523 21.9949 -10.1132 19.3561H2.25983C5.68049 19.3561 7.47878 18.4765 7.47878 15.2904C7.47878 13.238 6.1496 11.1465 3.15896 11.1465C0.735176 11.1465 -0.593987 12.4757 -0.593987 15.0363V17.5578H-2.50957C-2.23591 17.0105 -2.05998 16.3655 -2.05998 15.564C-2.05998 13.7658 -3.21324 11.6743 -6.37981 11.6743H-6.65346L-2.52911 7.13944H-5.07018C-6.61436 8.87909 -8.94041 11.4006 -9.21407 11.6547V13.4726H-6.22343C-5.30473 13.4726 -4.21012 13.8244 -4.21012 15.4663C-4.21012 16.991 -4.89426 17.5578 -6.73164 17.5578H-10.1523V14.9972C-10.1523 12.4561 -11.4619 11.1074 -13.9053 11.1074C-16.8959 11.1074 -18.2642 13.1989 -18.2642 15.2513C-18.2837 16.7564 -17.7951 17.9096 -16.8959 18.5156ZM1.53659 15.2318C1.53659 13.668 2.10345 12.9057 3.31535 12.9057C4.52724 12.9057 5.3091 13.8048 5.3091 15.1731C5.3091 16.815 4.56632 17.5187 2.80713 17.5187H1.53659V15.2318ZM-14.1007 12.9253C-12.8888 12.9253 -12.3415 13.668 -12.3415 15.2513V17.5383H-13.5534C-15.3322 17.5383 -16.0749 16.8346 -16.0749 15.1927C-16.0749 13.8049 -15.3126 12.9253 -14.1007 12.9253Z" fill="currentColor"/>
<path d="M-29.3476 19.317C-28.429 19.317 -27.4907 19.102 -26.9825 18.8088C-26.2984 18.4179 -26.0052 17.7338 -25.9465 17.3819C-25.8683 17.1083 -25.8488 16.8151 -25.8488 16.2287V7.11993H-28.0185V16.17C-28.0185 17.1669 -28.3899 17.5188 -29.4454 17.5188H-29.9536C-30.3054 17.5188 -30.6573 17.4406 -31.0482 17.3037C-31.0091 17.0301 -30.97 16.7173 -30.97 16.346V11.9089H-33.1006V16.2091C-33.1006 17.1474 -33.5111 17.5383 -34.4884 17.5383C-34.8402 17.5383 -35.1921 17.4992 -35.5635 17.3819C-35.5244 17.0692 -35.4853 16.776 -35.4853 16.3264V11.9089H-37.6159V16.2091C-37.6159 17.0496 -37.8309 17.4015 -38.4368 17.5188H-39.5314C-39.6878 17.5188 -40.0788 17.5383 -40.0788 17.3233V11.8893H-42.2093V17.4992H-45.8059C-44.6331 16.2678 -43.9294 14.9386 -43.9294 13.9417C-43.9294 12.0261 -46.236 11.0488 -48.5425 11.0488C-50.8294 11.0488 -53.1555 12.0261 -53.1555 13.9417C-53.1555 15.2904 -51.9436 16.776 -51.2399 17.4992H-54.5237V14.9972C-54.5237 12.4562 -55.8334 11.1074 -58.2571 11.1074C-61.2478 11.1074 -62.577 13.1989 -62.577 15.2513C-62.577 16.7564 -62.1078 17.8901 -61.2282 18.4961C-60.1923 19.1802 -59.3322 19.317 -57.3776 19.317H-56.6543C-56.6739 20.7244 -57.4557 21.4281 -58.9804 21.4281C-59.6645 21.4281 -60.4855 21.3303 -61.3651 21.0371L-61.5019 20.9981V23.0309C-60.4268 23.2264 -59.6059 23.3046 -58.8631 23.3046C-55.9897 23.3046 -54.5042 21.9754 -54.4651 19.3366H-39.9615C-39.551 19.3757 -39.121 19.4148 -38.6909 19.4148C-37.87 19.4148 -37.264 19.2779 -36.6776 18.9457C-35.9153 19.2584 -34.9966 19.4148 -34.0975 19.4148C-33.2765 19.4148 -32.5924 19.2584 -32.0842 18.9066C-31.3805 19.2193 -30.5204 19.3561 -29.5236 19.3561H-29.3476V19.317ZM-57.9053 17.5188C-59.6841 17.5188 -60.4268 16.8151 -60.4268 15.1731C-60.4268 13.7853 -59.645 12.9057 -58.4331 12.9057C-57.2212 12.9057 -56.6543 13.6485 -56.6543 15.2122V17.5188H-57.9053ZM-48.5816 17.3819C-48.8943 17.3819 -51.1617 15.2318 -51.1617 13.9613C-51.1617 13.2576 -49.813 12.8862 -48.5229 12.8862C-47.2915 12.8862 -46.0014 13.2576 -46.0014 13.9613C-45.9818 15.2122 -48.1515 17.3819 -48.5816 17.3819Z" fill="currentColor"/>
<path d="M-22.0954 7.11993H-24.2065V19.3366H-22.0954V7.11993Z" fill="currentColor"/>
<path d="M19.5786 6.51398H18.4058C17.9171 6.49443 17.7998 6.3967 17.7998 6.02531C17.7998 5.59528 17.9367 5.51709 18.4449 5.51709C18.7772 5.51709 19.0117 5.59528 19.3636 5.84939V4.81341L19.2072 4.73523C18.9531 4.61795 18.7185 4.57886 18.4253 4.57886C17.3503 4.57886 16.7443 5.08707 16.7443 6.04486C16.7443 6.25987 16.7834 6.3967 16.842 6.51398H16.4511V7.45221H19.5786V6.51398Z" fill="currentColor"/>
<path d="M16.4308 26.7253C14.1438 26.7253 12.2673 28.6018 12.2673 30.8887C12.2673 33.1757 14.1438 35.0522 16.4308 35.0522C18.7177 35.0522 20.5747 33.1757 20.5747 30.8887C20.5747 28.6018 18.7177 26.7253 16.4308 26.7253ZM16.4308 33.1562C15.1602 33.1562 14.1634 32.1202 14.1634 30.8887C14.1634 29.6573 15.1602 28.6409 16.4308 28.6409C17.6622 28.6409 18.6786 29.6378 18.6786 30.8887C18.6786 32.1397 17.6622 33.1562 16.4308 33.1562Z" fill="currentColor"/>
<path d="M1.18413 26.6276C0.265434 26.6276 -0.672798 26.823 -1.41557 27.1162C-2.02151 26.7644 -2.60793 26.6276 -3.44843 26.6276C-4.50395 26.6276 -5.57902 26.7644 -6.75182 27.1749L-6.96683 27.253V34.8958H-4.87534V28.6213C-4.44531 28.4845 -4.13256 28.4258 -3.70254 28.4258C-2.66656 28.4258 -2.37337 28.7581 -2.37337 29.8332V34.8958H-0.262329V29.6964C-0.262329 29.2273 -0.281876 28.9145 -0.360062 28.6409C0.050415 28.504 0.382713 28.4258 0.754097 28.4258C1.73143 28.4258 2.18101 28.8754 2.18101 29.8332V34.8958H4.2725V29.6768C4.2725 28.6409 4.11613 28.0349 3.647 27.5267C3.11925 26.9598 2.25919 26.6276 1.18413 26.6276Z" fill="currentColor"/>
<path d="M9.53058 33.2539C8.14277 33.2539 7.34135 32.3938 7.34135 30.8887C7.34135 29.3445 8.14276 28.4649 9.55013 28.4649C9.84332 28.4649 10.0779 28.504 10.3124 28.5627C10.3124 28.5627 10.7425 28.68 11.1139 28.9732L11.9935 27.4681C11.5048 27.0771 10.9575 26.9012 10.762 26.8426C10.2147 26.6862 9.43285 26.6471 9.43285 26.6471C6.93088 26.6471 5.24986 28.3868 5.24986 30.9669C5.24986 33.4493 6.83314 35.0522 9.31556 35.0522C9.31556 35.0522 10.977 35.1304 12.0716 34.0944L11.0357 32.7652C10.4884 33.117 10.0974 33.2539 9.53058 33.2539Z" fill="currentColor"/>
<path d="M-17.6194 26.7057C-20.5905 26.7057 -21.9783 28.0153 -21.9783 30.7909V34.8762H-19.8477V30.7518C-19.8477 29.3445 -19.0463 28.4844 -17.8149 28.4844C-17.3067 28.4844 -16.8962 28.5822 -16.6225 28.6408L-16.1339 26.7839C-16.9548 26.7057 -17.6194 26.7057 -17.6194 26.7057Z" fill="currentColor"/>
<path d="M-8.1784 30.576V34.8958H-11.0322C-13.0064 34.8958 -13.8665 34.7589 -14.8829 34.0748C-15.7821 33.4689 -16.2707 32.3156 -16.2707 30.8301C-16.2707 28.7777 -14.922 26.6862 -11.9118 26.6862C-9.48802 26.6862 -8.1784 28.0349 -8.1784 30.576ZM-10.2699 30.791C-10.2699 29.2272 -10.8758 28.4454 -12.0877 28.4454C-13.3192 28.4454 -14.1206 29.3641 -14.1206 30.7323C-14.1206 32.3938 -13.3192 33.117 -11.5404 33.117H-10.2503V30.791H-10.2699Z" fill="currentColor"/>
<path d="M-23.1316 30.576V34.8958H-25.9659C-27.9401 34.8958 -28.8002 34.7589 -29.8166 34.0748C-30.7157 33.4689 -31.2044 32.3156 -31.2044 30.8301C-31.2044 28.7777 -29.8557 26.6862 -26.8455 26.6862C-24.4217 26.6862 -23.1316 28.0349 -23.1316 30.576ZM-25.2818 30.791C-25.2818 29.2077 -25.8486 28.4454 -27.0801 28.4454C-28.3115 28.4454 -29.1129 29.3641 -29.1129 30.7323C-29.1129 32.3938 -28.3115 33.117 -26.5327 33.117H-25.2622V30.791H-25.2818Z" fill="currentColor"/>
<path d="M-67.737 29.9504C-69.0075 29.579 -69.5158 29.364 -69.5158 28.9536C-69.5158 28.5235 -68.8707 28.289 -68.0888 28.289C-67.307 28.289 -66.5447 28.4649 -65.9778 28.6604L-65.4891 26.8425C-66.3296 26.647 -67.3461 26.5298 -68.0302 26.5298C-70.2781 26.5298 -71.5095 27.5462 -71.5095 29.0708C-71.5095 29.8331 -71.2945 30.8691 -68.9294 31.5337C-67.5415 31.9442 -67.0333 31.9833 -67.0333 32.4524C-67.0333 32.9606 -67.9129 33.332 -68.9098 33.332C-69.9458 33.332 -71.0013 32.8824 -71.6268 32.5697V34.5439C-70.8645 34.8566 -69.9067 35.0912 -68.9489 35.0912C-66.486 35.0912 -65.0396 34.0552 -65.0396 32.4329C-65.0396 31.2014 -65.7823 30.5368 -67.737 29.9504Z" fill="currentColor"/>
<path d="M-49.9104 31.8465C-49.9104 32.8629 -50.3013 33.2343 -51.3764 33.2343H-51.4937C-52.5687 33.2343 -52.9597 32.8629 -52.9597 31.8465V26.8034H-55.0316V32.0028C-55.0316 34.4071 -53.6829 35.0717 -51.5914 35.0717H-51.2395C-49.0112 35.0717 -47.7211 34.4462 -47.7211 32.0028V26.8034H-49.8713V31.8465H-49.9104Z" fill="currentColor"/>
<path d="M-36.52 23.8519C-37.1455 23.8519 -37.6341 24.3406 -37.6341 24.966C-37.6341 25.5915 -37.1455 26.0997 -36.52 26.0997C-35.8945 26.0997 -35.4058 25.6111 -35.4058 24.966C-35.3863 24.3601 -35.8945 23.8519 -36.52 23.8519Z" fill="currentColor"/>
<path d="M-35.4844 27.0379H-37.5368V34.8957H-35.4844V27.0379Z" fill="currentColor"/>
<path d="M-56.2428 30.576V34.8958H-59.0966C-61.0708 34.8958 -61.9309 34.7589 -62.9473 34.0748C-63.8464 33.4689 -64.3351 32.3156 -64.3351 30.8301C-64.3351 28.7777 -62.9864 26.6862 -59.9762 26.6862C-57.5524 26.6862 -56.2428 28.0349 -56.2428 30.576ZM-58.3147 30.791C-58.3147 29.2272 -58.9207 28.4454 -60.1326 28.4454C-61.364 28.4454 -62.1654 29.3641 -62.1654 30.7323C-62.1654 32.3938 -61.364 33.117 -59.5853 33.117H-58.2952V30.791H-58.3147Z" fill="currentColor"/>
<path d="M-38.8664 23.6955V34.8957H-41.4661C-43.4403 34.8957 -44.3003 34.7589 -45.3167 34.0747C-46.2159 33.4688 -46.7046 32.3155 -46.7046 30.83C-46.7046 28.328 -45.0236 26.7057 -42.5802 26.7057H-42.3652C-41.8179 26.7057 -41.3097 26.862 -40.8601 27.1552V23.6955H-38.8664ZM-40.8797 30.83C-40.8797 29.149 -41.3488 28.4649 -42.5216 28.4649C-43.753 28.4649 -44.5544 29.3835 -44.5544 30.7518C-44.5544 32.4133 -43.7726 33.1365 -42.0134 33.1365H-40.8992V30.83H-40.8797Z" fill="currentColor"/>
</g>
<g id="Vector_2">
<path d="M48.0599 16.4045C48.5681 16.6586 48.9004 17.1669 48.8417 17.5969C48.7635 18.0269 48.2944 18.1637 47.7667 17.9096C47.2389 17.636 46.9066 17.1082 46.9848 16.6782C47.1021 16.2677 47.5516 16.1504 48.0599 16.4045Z" fill="currentColor"/>
<path d="M49.5852 8.11683C49.9957 8.33185 50.2889 8.70323 50.2693 8.97688C50.2303 9.23099 49.8589 9.27009 49.4288 9.05508C48.9988 8.82052 48.7056 8.44913 48.7447 8.17548C48.8033 7.92137 49.1552 7.88227 49.5852 8.11683Z" fill="currentColor"/>
<path d="M49.7211 7.27628C50.073 7.47174 50.3075 7.76494 50.288 7.97996C50.2489 8.19497 49.9557 8.21451 49.5843 8.03859C49.2325 7.84313 48.9784 7.53038 49.0175 7.33491C49.0761 7.1199 49.3693 7.10036 49.7211 7.27628Z" fill="currentColor"/>
<path d="M49.8583 6.45538C50.1711 6.6313 50.4056 6.90496 50.3861 7.10042C50.347 7.29589 50.0733 7.31543 49.741 7.13951C49.4088 6.96359 49.1742 6.67039 49.2133 6.49447C49.2524 6.29901 49.526 6.29901 49.8583 6.45538Z" fill="currentColor"/>
<path d="M49.9757 5.65397C50.2689 5.81035 50.4839 6.06445 50.4643 6.24037C50.4448 6.41629 50.1711 6.41629 49.8779 6.25992C49.5652 6.10355 49.3697 5.82989 49.3893 5.67352C49.4284 5.4976 49.6825 5.4976 49.9757 5.65397Z" fill="currentColor"/>
<path d="M50.0937 4.93063C50.3674 5.087 50.5628 5.32156 50.5433 5.45838C50.5237 5.61476 50.2892 5.61476 49.996 5.45838C49.7223 5.30201 49.5073 5.06745 49.5464 4.91108C49.5855 4.77425 49.8201 4.77425 50.0937 4.93063Z" fill="currentColor"/>
<path d="M50.2096 4.26615C50.4637 4.40298 50.6397 4.61799 50.6397 4.75482C50.6201 4.89164 50.4051 4.89164 50.1315 4.75482C49.8774 4.61799 49.6819 4.40298 49.7014 4.26615C49.7405 4.10978 49.9555 4.12932 50.2096 4.26615Z" fill="currentColor"/>
<path d="M50.3077 3.62109C50.5422 3.75792 50.7181 3.91429 50.6986 4.07067C50.679 4.20749 50.4836 4.18795 50.249 4.05112C50.0145 3.91429 49.8385 3.73837 49.8581 3.60154C49.8776 3.46472 50.0731 3.48426 50.3077 3.62109Z" fill="currentColor"/>
<path d="M50.4055 2.95646C50.6009 3.07374 50.7573 3.21057 50.7378 3.32785C50.7182 3.44513 50.5423 3.42558 50.3468 3.3083C50.1318 3.19102 49.995 3.05419 50.0145 2.91737C50.0341 2.81963 50.21 2.83918 50.4055 2.95646Z" fill="currentColor"/>
<path d="M50.5036 2.3505C50.6991 2.44823 50.8359 2.58506 50.8164 2.70234C50.7968 2.80007 50.6404 2.78052 50.4645 2.68279C50.2691 2.56551 50.1322 2.44823 50.1518 2.33095C50.1713 2.21367 50.3277 2.25276 50.5036 2.3505Z" fill="currentColor"/>
<path d="M50.6013 1.74464C50.7577 1.84237 50.875 1.9401 50.875 2.03784C50.8554 2.13557 50.7381 2.09648 50.5622 1.99875C50.4059 1.90101 50.269 1.78373 50.2886 1.70555C50.3081 1.62736 50.445 1.6469 50.6013 1.74464Z" fill="currentColor"/>
<path d="M50.6993 1.1777C50.8361 1.25589 50.9534 1.35362 50.9339 1.43181C50.9143 1.51 50.8166 1.4709 50.6602 1.39271C50.5234 1.31453 50.4061 1.2168 50.4256 1.13861C50.4452 1.06042 50.5429 1.09951 50.6993 1.1777Z" fill="currentColor"/>
<path d="M47.5324 19.2975C47.1024 19.0825 46.8092 18.6329 46.8874 18.2616C46.9656 17.8902 47.3565 17.7924 47.7866 17.9879C48.2166 18.2029 48.4902 18.6525 48.4316 19.0239C48.3534 19.3757 47.9625 19.5125 47.5324 19.2975Z" fill="currentColor"/>
<path d="M47.1808 21.0762C46.7508 20.8612 46.4771 20.4116 46.5553 20.0207C46.6335 19.6493 47.0244 19.532 47.4349 19.7275C47.8454 19.9425 48.119 20.3725 48.0604 20.7635C48.0018 21.1348 47.6304 21.2717 47.1808 21.0762Z" fill="currentColor"/>
<path d="M46.8281 22.9136C46.4176 22.7181 46.1439 22.249 46.2221 21.8776C46.3003 21.5063 46.6913 21.3694 47.1017 21.5454C47.5122 21.7408 47.7663 22.1904 47.7077 22.5813C47.6295 22.9527 47.2581 23.1091 46.8281 22.9136Z" fill="currentColor"/>
<path d="M46.4384 24.9464C46.0279 24.751 45.7738 24.3014 45.852 23.9105C45.9302 23.5195 46.3015 23.3827 46.712 23.5586C47.103 23.7541 47.3571 24.1841 47.2984 24.575C47.2007 24.966 46.8488 25.1224 46.4384 24.9464Z" fill="currentColor"/>
<path d="M46.0273 26.9597C45.6755 26.7838 45.4605 26.3929 45.5387 26.0215C45.6168 25.6697 45.9491 25.5133 46.301 25.6697C46.6528 25.826 46.8678 26.2365 46.7896 26.5884C46.7115 26.9597 46.3792 27.1161 46.0273 26.9597Z" fill="currentColor"/>
<path d="M45.5185 29.4227C45.1862 29.2663 44.9712 28.8558 45.0494 28.504C45.1276 28.1521 45.4599 27.9762 45.7922 28.1326C46.1245 28.289 46.3199 28.6799 46.2613 29.0513C46.1831 29.3836 45.8704 29.5595 45.5185 29.4227Z" fill="currentColor"/>
<path d="M44.9726 32.0614C44.6598 31.9246 44.4839 31.5532 44.5621 31.2014C44.6403 30.8691 44.9335 30.6931 45.2267 30.83C45.5199 30.9668 45.6958 31.3187 45.6372 31.6705C45.559 32.0223 45.2658 32.1982 44.9726 32.0614Z" fill="currentColor"/>
<path d="M44.4244 34.7198C44.1703 34.6025 44.0139 34.2898 44.0921 33.9575C44.1703 33.6448 44.4244 33.4884 44.6785 33.5861C44.9326 33.7034 45.0889 34.0161 45.0108 34.3289C44.9326 34.6416 44.6785 34.8176 44.4244 34.7198Z" fill="currentColor"/>
<path d="M49.8785 17.4015C50.289 17.6165 50.5626 18.027 50.5235 18.3788C50.4649 18.7307 50.1131 18.8284 49.7026 18.6329C49.2921 18.4179 49.0184 17.9879 49.0575 17.6556C49.1162 17.3038 49.468 17.206 49.8785 17.4015Z" fill="currentColor"/>
<path d="M51.657 18.1442C52.1457 18.3983 52.4975 18.9261 52.4585 19.3757C52.4194 19.8252 51.9893 19.9621 51.4811 19.708C50.9729 19.4343 50.6211 18.9065 50.6602 18.457C50.7383 18.0269 51.1684 17.9097 51.657 18.1442Z" fill="currentColor"/>
<path d="M64.0491 17.4992C63.8537 17.3624 63.7169 17.421 63.7364 17.5969C63.7559 17.7728 63.9319 18.027 64.1469 18.1638C64.3619 18.3006 64.4987 18.242 64.4596 18.066C64.4205 17.8706 64.2446 17.6165 64.0491 17.4992Z" fill="currentColor"/>
<path d="M62.6021 16.5023C62.3285 16.3459 62.133 16.385 62.1721 16.6196C62.2112 16.8542 62.4262 17.1669 62.6999 17.3428C62.9735 17.4992 63.1494 17.4601 63.1299 17.2255C63.1103 16.991 62.8758 16.6782 62.6021 16.5023Z" fill="currentColor"/>
<path d="M58.5766 29.9504C58.2247 29.7354 57.9706 29.8918 57.9511 30.3023C57.9511 30.7128 58.2247 31.221 58.5766 31.4555C58.9284 31.6705 59.1825 31.5142 59.2021 31.0842C59.1825 30.6541 58.9284 30.1655 58.5766 29.9504Z" fill="currentColor"/>
<path d="M56.8563 26.5493C56.4459 26.3148 56.1331 26.4711 56.1136 26.9207C56.1136 27.3703 56.4068 27.8981 56.8173 28.1522C57.2277 28.3867 57.5405 28.2303 57.56 27.7808C57.56 27.3117 57.2668 26.7839 56.8563 26.5493Z" fill="currentColor"/>
<path d="M55.0575 23.5977C54.6665 23.3827 54.3343 23.5196 54.3147 23.9105C54.2952 24.321 54.5884 24.8096 54.9988 25.0246C55.4093 25.2397 55.7221 25.1028 55.7416 24.6924C55.7416 24.3014 55.4484 23.8323 55.0575 23.5977Z" fill="currentColor"/>
<path d="M53.9438 11.5375C53.5919 11.3421 53.2987 11.3811 53.2792 11.6353C53.2596 11.8894 53.5333 12.2412 53.9047 12.4367C54.2761 12.6321 54.5692 12.5735 54.5692 12.3194C54.5692 12.0653 54.2956 11.733 53.9438 11.5375Z" fill="currentColor"/>
<path d="M61.3134 16.8932C61.0397 16.7368 60.8247 16.7759 60.8443 17.03C60.8638 17.2646 61.0984 17.5969 61.3916 17.7728C61.6848 17.9487 61.8802 17.8901 61.8607 17.636C61.8216 17.3818 61.6066 17.0496 61.3134 16.8932Z" fill="currentColor"/>
<path d="M59.8667 16.0136C59.5735 15.8377 59.3585 15.8964 59.3585 16.1505C59.378 16.4046 59.6321 16.7369 59.9253 16.9128C60.2381 17.0887 60.4531 17.0301 60.4335 16.776C60.414 16.5023 60.1599 16.1896 59.8667 16.0136Z" fill="currentColor"/>
<path d="M56.9535 15.5054C56.6016 15.31 56.328 15.3686 56.328 15.6618C56.328 15.955 56.6016 16.3264 56.9535 16.5219C57.3053 16.7173 57.579 16.6391 57.579 16.3459C57.579 16.0723 57.3053 15.7009 56.9535 15.5054Z" fill="currentColor"/>
<path d="M58.42 15.1341C58.0877 14.9581 57.8336 14.9972 57.8336 15.2709C57.8531 15.5445 58.1072 15.8964 58.4591 16.0919C58.7914 16.2873 59.0455 16.2091 59.0455 15.9355C59.0259 15.6618 58.7523 15.31 58.42 15.1341Z" fill="currentColor"/>
<path d="M56.8952 14.2349C56.5238 14.0395 56.2306 14.0981 56.2306 14.3718C56.2306 14.665 56.5238 15.0559 56.9148 15.2709C57.3057 15.4859 57.5794 15.4077 57.5794 15.1145C57.5598 14.8409 57.2666 14.45 56.8952 14.2349Z" fill="currentColor"/>
<path d="M55.4097 14.6063C55.0188 14.3913 54.706 14.4695 54.6865 14.7627C54.6865 15.0754 54.9797 15.4859 55.3706 15.7009C55.7615 15.9159 56.0743 15.8377 56.0938 15.525C56.0938 15.2318 55.8006 14.8213 55.4097 14.6063Z" fill="currentColor"/>
<path d="M53.3378 20.7831C52.9273 20.568 52.595 20.7049 52.5364 21.0763C52.5168 21.4672 52.81 21.9363 53.2205 22.1709C53.631 22.3859 53.9828 22.2491 54.0024 21.8581C54.0415 21.4672 53.7287 20.9981 53.3378 20.7831Z" fill="currentColor"/>
<path d="M53.4558 19.1607C53.0063 18.9261 52.6544 19.0434 52.6153 19.4343C52.5762 19.8253 52.9085 20.3335 53.3581 20.5681C53.8077 20.8026 54.1791 20.6658 54.1986 20.2749C54.2182 19.8839 53.8859 19.3953 53.4558 19.1607Z" fill="currentColor"/>
<path d="M53.5729 17.636C53.0842 17.3819 52.6933 17.4992 52.6542 17.9097C52.6151 18.3201 52.9669 18.8479 53.4556 19.1216C53.9443 19.3757 54.3352 19.2388 54.3743 18.8284C54.3938 18.3983 54.042 17.8901 53.5729 17.636Z" fill="currentColor"/>
<path d="M53.6702 16.2091C53.2011 15.9745 52.8297 16.0723 52.7906 16.4436C52.771 16.8346 53.1033 17.3232 53.5725 17.5773C54.0416 17.8314 54.4325 17.7142 54.4521 17.3232C54.4716 16.9323 54.1198 16.4632 53.6702 16.2091Z" fill="currentColor"/>
<path d="M53.7279 14.9581C53.3175 14.7431 52.9852 14.8213 52.9656 15.134C52.9461 15.4663 53.2393 15.8768 53.6498 16.1114C54.0602 16.3264 54.3925 16.2482 54.4121 15.9159C54.4316 15.6032 54.1384 15.1731 53.7279 14.9581Z" fill="currentColor"/>
<path d="M53.8268 13.7071C53.3773 13.4726 53.0254 13.5507 53.0059 13.883C52.9863 14.2153 53.3186 14.6649 53.7682 14.919C54.2178 15.1536 54.5696 15.0754 54.5891 14.7235C54.5891 14.3717 54.2569 13.9417 53.8268 13.7071Z" fill="currentColor"/>
<path d="M53.8853 12.5539C53.4553 12.3389 53.1035 12.3975 53.0839 12.6907C53.0644 13.0035 53.3966 13.4335 53.8267 13.6681C54.2567 13.9026 54.6085 13.8244 54.6281 13.5117C54.6281 13.1989 54.3153 12.7885 53.8853 12.5539Z" fill="currentColor"/>
<path d="M51.1098 9.03549C50.8166 8.87911 50.5625 8.89866 50.5234 9.09412C50.5038 9.28959 50.7189 9.56325 51.0121 9.71962C51.3248 9.87599 51.5594 9.85644 51.5985 9.66098C51.618 9.46551 51.403 9.21141 51.1098 9.03549Z" fill="currentColor"/>
<path d="M51.1679 8.13633C50.8942 7.9995 50.6597 7.9995 50.6401 8.17542C50.6206 8.35134 50.816 8.5859 51.0897 8.74227C51.3634 8.8791 51.5979 8.85955 51.6175 8.70318C51.637 8.52726 51.4415 8.2927 51.1679 8.13633Z" fill="currentColor"/>
<path d="M51.2269 7.2958C50.9923 7.17852 50.7969 7.17852 50.7578 7.31534C50.7382 7.45217 50.9141 7.66718 51.1487 7.80401C51.3833 7.94084 51.5787 7.92129 51.5983 7.78447C51.6178 7.62809 51.4615 7.43263 51.2269 7.2958Z" fill="currentColor"/>
<path d="M51.246 6.47482C51.031 6.35754 50.8551 6.35754 50.8355 6.49437C50.816 6.63119 50.9724 6.80711 51.1874 6.92439C51.4024 7.04167 51.5783 7.04168 51.5979 6.90485C51.6174 6.76802 51.461 6.5921 51.246 6.47482Z" fill="currentColor"/>
<path d="M51.3054 5.71255C51.1099 5.61482 50.9536 5.59527 50.9145 5.71255C50.8949 5.84938 51.0513 6.00575 51.2467 6.10349C51.4422 6.20122 51.6181 6.22077 51.6181 6.10349C51.6377 5.98621 51.5009 5.82983 51.3054 5.71255Z" fill="currentColor"/>
<path d="M51.324 4.95022C51.1481 4.85248 51.0113 4.83294 50.9917 4.95022C50.9917 5.0675 51.109 5.20432 51.2849 5.30205C51.4608 5.39979 51.6172 5.41933 51.6172 5.30205C51.6368 5.18477 51.4999 5.04795 51.324 4.95022Z" fill="currentColor"/>
<path d="M51.3637 4.26608C51.2073 4.16834 51.0705 4.1488 51.0509 4.24653C51.0509 4.34426 51.1682 4.46154 51.3246 4.55928C51.5005 4.65701 51.6178 4.67656 51.6373 4.55928C51.6373 4.48109 51.52 4.36381 51.3637 4.26608Z" fill="currentColor"/>
<path d="M51.4031 3.58199C51.2662 3.5038 51.1489 3.48426 51.1294 3.56244C51.1294 3.64063 51.2271 3.75791 51.3835 3.83609C51.5203 3.91428 51.6376 3.93383 51.6572 3.85564C51.6376 3.75791 51.5399 3.66018 51.4031 3.58199Z" fill="currentColor"/>
<path d="M49.487 20.0599C49.7998 20.2162 50.0734 20.1185 50.1321 19.8448C50.1712 19.5712 49.9561 19.2389 49.6434 19.0825C49.3306 18.9262 49.057 19.0239 48.9983 19.2975C48.9592 19.5516 49.1743 19.9035 49.487 20.0599Z" fill="currentColor"/>
<path d="M49.2136 21.8386C49.5264 21.9755 49.7805 21.8777 49.8196 21.6041C49.8587 21.3304 49.6436 20.9981 49.3504 20.8417C49.0572 20.7049 48.7836 20.7831 48.7445 21.0568C48.7054 21.35 48.9204 21.6822 49.2136 21.8386Z" fill="currentColor"/>
<path d="M48.8035 23.6564C49.1162 23.7932 49.3704 23.6955 49.4094 23.4023C49.4485 23.1091 49.2531 22.7963 48.9599 22.64C48.6667 22.5031 48.393 22.6009 48.3539 22.8745C48.2953 23.1677 48.4907 23.5196 48.8035 23.6564Z" fill="currentColor"/>
<path d="M48.4119 25.6502C48.6855 25.787 48.9396 25.6698 48.9983 25.3961C49.0374 25.1224 48.8615 24.8097 48.5878 24.6729C48.3141 24.536 48.06 24.6533 48.0014 24.927C47.9428 25.1811 48.1187 25.5134 48.4119 25.6502Z" fill="currentColor"/>
<path d="M47.9433 27.6244C48.1975 27.7417 48.4516 27.6244 48.4907 27.3507C48.5297 27.0771 48.3734 26.7839 48.0997 26.6471C47.8456 26.5298 47.6111 26.6471 47.5524 26.9207C47.5133 27.1944 47.6697 27.4876 47.9433 27.6244Z" fill="currentColor"/>
<path d="M47.3955 29.9895C47.6496 30.1068 47.8646 29.97 47.9037 29.7159C47.9428 29.4422 47.7864 29.149 47.5518 29.0317C47.2977 28.9145 47.0827 29.0317 47.0436 29.3054C46.985 29.579 47.1414 29.8722 47.3955 29.9895Z" fill="currentColor"/>
<path d="M55.3905 13.4335C55.0191 13.238 54.7455 13.2966 54.7259 13.5703C54.7259 13.844 54.9996 14.2153 55.371 14.4108C55.7423 14.6063 56.016 14.5476 56.0355 14.274C56.016 14.0003 55.7423 13.6289 55.3905 13.4335Z" fill="currentColor"/>
<path d="M55.3117 15.916C54.9794 15.74 54.7253 15.7987 54.7058 16.0723C54.7058 16.346 54.9403 16.6783 55.2726 16.8737C55.6049 17.0497 55.859 16.9715 55.8786 16.7174C55.8786 16.4437 55.6245 16.0919 55.3117 15.916Z" fill="currentColor"/>
<path d="M55.2724 17.206C54.901 17.0106 54.6078 17.0888 54.5882 17.4015C54.5882 17.7143 54.8619 18.1247 55.2333 18.3398C55.6047 18.5352 55.8979 18.457 55.9174 18.1247C55.9174 17.7924 55.6438 17.4015 55.2724 17.206Z" fill="currentColor"/>
<path d="M55.0971 21.7995C54.7257 21.604 54.4325 21.7213 54.413 22.0536C54.3934 22.4054 54.6671 22.8355 55.0385 23.0505C55.4099 23.2459 55.7031 23.1287 55.7226 22.7768C55.7226 22.425 55.449 21.9949 55.0971 21.7995Z" fill="currentColor"/>
<path d="M61.1955 15.6227C60.8828 15.4468 60.6678 15.5054 60.6873 15.74C60.7068 15.9941 60.9805 16.3264 61.2737 16.5219C61.5864 16.6978 61.8015 16.6392 61.7819 16.385C61.7624 16.1505 61.5083 15.7986 61.1955 15.6227Z" fill="currentColor"/>
<path d="M56.7391 28.758C56.4068 28.5626 56.1331 28.6994 56.1136 29.0903C56.1136 29.4812 56.3677 29.9308 56.7 30.1458C57.0323 30.3413 57.3059 30.1849 57.3255 29.794C57.3255 29.4031 57.0714 28.9535 56.7391 28.758Z" fill="currentColor"/>
<path d="M58.5962 32.2374C58.2835 32.0419 58.0294 32.1787 58.0098 32.5892C58.0098 32.9997 58.2639 33.4688 58.5767 33.6838C58.909 33.8988 59.1435 33.7425 59.1435 33.3124C59.1631 32.9215 58.909 32.4524 58.5962 32.2374Z" fill="currentColor"/>
<path d="M54.9009 25.5133C54.5296 25.3179 54.2364 25.4547 54.1973 25.8456C54.1777 26.2366 54.4514 26.7057 54.8228 26.9207C55.1941 27.1162 55.5069 26.9793 55.5264 26.5689C55.546 26.1779 55.2723 25.7284 54.9009 25.5133Z" fill="currentColor"/>
<path d="M53.181 22.6595C52.8096 22.464 52.5164 22.6008 52.4773 22.9527C52.4578 23.3045 52.7119 23.7346 53.0833 23.9496C53.4547 24.145 53.7674 24.0082 53.787 23.6564C53.8065 23.285 53.5524 22.8549 53.181 22.6595Z" fill="currentColor"/>
<path d="M51.5202 19.8644C51.1097 19.6689 50.7774 19.7862 50.7188 20.138C50.6797 20.5094 50.9533 20.9395 51.3638 21.1545C51.7743 21.3499 52.1066 21.2327 52.1652 20.8613C52.1848 20.5094 51.9111 20.0794 51.5202 19.8644Z" fill="currentColor"/>
<path d="M55.1552 20.2358C54.8229 20.0599 54.5492 20.1576 54.5297 20.4508C54.5101 20.7635 54.7642 21.1545 55.1161 21.3499C55.4679 21.5454 55.722 21.4281 55.7416 21.1154C55.7416 20.8026 55.4875 20.4312 55.1552 20.2358Z" fill="currentColor"/>
<path d="M54.0023 10.5601C53.6895 10.3842 53.4354 10.4233 53.4159 10.6383C53.4159 10.8533 53.6504 11.1661 53.9632 11.342C54.2759 11.5179 54.53 11.4788 54.5496 11.2638C54.5496 11.0292 54.315 10.7165 54.0023 10.5601Z" fill="currentColor"/>
<path d="M59.7885 14.88C59.5344 14.7432 59.3585 14.7823 59.3585 14.9777C59.378 15.1732 59.5735 15.4468 59.8276 15.6032C60.0817 15.74 60.2576 15.701 60.2576 15.5055C60.2381 15.2905 60.0426 15.0364 59.7885 14.88Z" fill="currentColor"/>
<path d="M56.973 18.2616C56.6798 18.1052 56.4648 18.1638 56.4648 18.4179C56.4648 18.672 56.6798 18.9848 56.973 19.1607C57.2662 19.3171 57.4812 19.2389 57.4812 18.9848C57.4617 18.7307 57.2466 18.4179 56.973 18.2616Z" fill="currentColor"/>
<path d="M56.8362 24.6532C56.4844 24.4578 56.2107 24.5751 56.1912 24.9464C56.1912 25.3178 56.4453 25.7674 56.8167 25.9824C57.1685 26.1779 57.4422 26.0606 57.4617 25.6697C57.4422 25.3178 57.1881 24.8683 56.8362 24.6532Z" fill="currentColor"/>
<path d="M55.2144 18.7502C54.8821 18.5743 54.628 18.6524 54.6084 18.9456C54.6084 19.2388 54.843 19.6102 55.1753 19.7862C55.5076 19.9621 55.7617 19.8839 55.7812 19.5711C55.8008 19.2975 55.5467 18.9261 55.2144 18.7502Z" fill="currentColor"/>
<path d="M58.6153 20.6462C58.3025 20.4703 58.0484 20.5485 58.0484 20.8612C58.0484 21.174 58.3025 21.5454 58.6348 21.7408C58.9671 21.9363 59.2017 21.8386 59.2017 21.5258C59.1821 21.2326 58.928 20.8417 58.6153 20.6462Z" fill="currentColor"/>
<path d="M59.983 36.1467C59.7289 35.9708 59.5334 36.0881 59.5334 36.4595C59.5334 36.8309 59.7484 37.2609 60.0025 37.4564C60.2566 37.6518 60.4521 37.515 60.4521 37.1436C60.4521 36.7722 60.2371 36.3422 59.983 36.1467Z" fill="currentColor"/>
<path d="M58.4777 16.4046C58.1845 16.2482 57.9695 16.3068 57.9695 16.5414C57.9695 16.7955 58.2236 17.1278 58.5168 17.2842C58.81 17.4601 59.0446 17.3819 59.025 17.1278C59.0055 16.9128 58.7709 16.5805 58.4777 16.4046Z" fill="currentColor"/>
<path d="M52.4974 9.79778C52.2042 9.64141 51.9696 9.6805 51.9501 9.85642C51.9305 10.0519 52.1455 10.3255 52.4387 10.4819C52.7319 10.6383 52.9665 10.5992 52.986 10.4037C53.0056 10.2083 52.7906 9.95416 52.4974 9.79778Z" fill="currentColor"/>
<path d="M55.429 10.4038C55.1553 10.2669 54.9403 10.2865 54.9403 10.4624C54.9403 10.6579 55.1553 10.912 55.429 11.0683C55.7026 11.2247 55.9176 11.1856 55.9372 11.0097C55.9176 10.8142 55.7026 10.5601 55.429 10.4038Z" fill="currentColor"/>
<path d="M58.3806 14.0981C58.146 13.9808 57.9897 14.0003 57.9897 14.1763C57.9897 14.3522 58.1851 14.5867 58.4002 14.7236C58.6347 14.8604 58.8106 14.8213 58.7911 14.6258C58.7911 14.4695 58.6152 14.2349 58.3806 14.0981Z" fill="currentColor"/>
<path d="M56.8961 19.7275C56.6029 19.5712 56.3879 19.6494 56.3683 19.9035C56.3683 20.1771 56.6029 20.5094 56.8961 20.6853C57.1893 20.8417 57.4238 20.7635 57.4238 20.4899C57.4238 20.2358 57.1893 19.8839 56.8961 19.7275Z" fill="currentColor"/>
<path d="M58.5177 19.1802C58.2636 19.0434 58.0681 19.102 58.0681 19.3366C58.0681 19.5712 58.2832 19.8644 58.5373 20.0207C58.7914 20.1576 58.9868 20.0989 58.9868 19.8644C58.9673 19.6298 58.7718 19.3366 58.5177 19.1802Z" fill="currentColor"/>
<path d="M60.1795 21.6431C59.9058 21.4672 59.6908 21.5454 59.6908 21.8386C59.7104 22.1122 59.9449 22.4836 60.2186 22.6595C60.5118 22.8355 60.7072 22.7377 60.7072 22.4641C60.6877 22.1709 60.4531 21.819 60.1795 21.6431Z" fill="currentColor"/>
<path d="M62.7005 17.8314C62.4855 17.6946 62.3486 17.7532 62.3486 17.9292C62.3682 18.1246 62.5636 18.3787 62.7591 18.5156C62.9741 18.6524 63.1109 18.5937 63.1109 18.3983C63.0914 18.2028 62.9155 17.9682 62.7005 17.8314Z" fill="currentColor"/>
<path d="M55.4295 9.54371C55.195 9.40689 54.9995 9.42643 54.9995 9.5828C54.9995 9.73918 55.195 9.97374 55.4295 10.1106C55.6836 10.2474 55.8596 10.2278 55.8596 10.0715C55.8596 9.89555 55.6641 9.68054 55.4295 9.54371Z" fill="currentColor"/>
<path d="M55.4094 11.4006C55.1553 11.2638 54.9599 11.2833 54.9403 11.4788C54.9403 11.6547 55.1358 11.9088 55.3899 12.0457C55.644 12.1825 55.8395 12.1434 55.8395 11.9675C55.859 11.772 55.6635 11.5374 55.4094 11.4006Z" fill="currentColor"/>
<path d="M60.2573 33.762C59.9641 33.5666 59.7491 33.7034 59.7491 34.0943C59.7491 34.4853 60.0032 34.9544 60.2964 35.1694C60.5896 35.3844 60.8046 35.228 60.8046 34.8371C60.7851 34.4462 60.5505 33.9771 60.2573 33.762Z" fill="currentColor"/>
<path d="M54.0411 9.6805C53.787 9.54368 53.5915 9.56323 53.5719 9.7196C53.5719 9.87597 53.7479 10.1105 54.002 10.2669C54.2561 10.4037 54.4515 10.3842 54.4711 10.2083C54.4711 10.0519 54.2756 9.81733 54.0411 9.6805Z" fill="currentColor"/>
<path d="M56.8951 16.8932C56.6409 16.7564 56.4455 16.815 56.4455 17.0105C56.4455 17.2255 56.6409 17.4992 56.8951 17.636C57.1492 17.7728 57.3446 17.7142 57.3446 17.4992C57.3446 17.3037 57.1492 17.0301 56.8951 16.8932Z" fill="currentColor"/>
<path d="M56.8756 13.3162C56.6606 13.1989 56.5042 13.238 56.5042 13.3944C56.5042 13.5508 56.6802 13.7658 56.8756 13.883C57.0906 14.0003 57.247 13.9612 57.247 13.8049C57.247 13.6485 57.0906 13.4335 56.8756 13.3162Z" fill="currentColor"/>
<path d="M56.8565 22.9722C56.6024 22.8354 56.4069 22.9136 56.4069 23.1677C56.4069 23.4218 56.6024 23.715 56.8565 23.8714C57.1106 24.0082 57.306 23.93 57.306 23.6759C57.306 23.4218 57.1106 23.1286 56.8565 22.9722Z" fill="currentColor"/>
<path d="M58.6342 27.859C58.341 27.6831 58.126 27.8003 58.126 28.1326C58.126 28.4649 58.3606 28.8559 58.6342 29.0513C58.9274 29.2272 59.1424 29.11 59.1424 28.7777C59.1229 28.4258 58.9079 28.0349 58.6342 27.859Z" fill="currentColor"/>
<path d="M55.3906 12.5344C55.1951 12.4366 55.0583 12.4562 55.0583 12.593C55.0583 12.7298 55.1951 12.9253 55.3906 13.023C55.586 13.1208 55.7228 13.1012 55.7424 12.9644C55.7424 12.8276 55.586 12.6321 55.3906 12.5344Z" fill="currentColor"/>
<path d="M58.4786 34.583C58.2441 34.4462 58.0681 34.5439 58.0681 34.8566C58.0681 35.1694 58.2441 35.5212 58.4786 35.6776C58.7132 35.8144 58.8891 35.6972 58.8891 35.4039C58.8696 35.0912 58.7132 34.7394 58.4786 34.583Z" fill="currentColor"/>
<path d="M59.9439 17.3624C59.7093 17.2255 59.5334 17.2842 59.5334 17.4796C59.553 17.6946 59.7484 17.9488 59.983 18.1051C60.2175 18.242 60.3935 18.1833 60.3935 17.9878C60.3739 17.7728 60.1784 17.4992 59.9439 17.3624Z" fill="currentColor"/>
<path d="M56.8557 10.3452C56.6407 10.2279 56.4648 10.2474 56.4648 10.3843C56.4648 10.5211 56.6407 10.7361 56.8557 10.8534C57.0707 10.9706 57.2466 10.9511 57.2271 10.8143C57.2466 10.6775 57.0707 10.4624 56.8557 10.3452Z" fill="currentColor"/>
<path d="M65.4566 18.457C65.2807 18.3397 65.1634 18.3788 65.2025 18.5352C65.2221 18.6916 65.3784 18.9066 65.5544 19.0434C65.7303 19.1607 65.8475 19.1216 65.8085 18.9652C65.7889 18.7893 65.6325 18.5743 65.4566 18.457Z" fill="currentColor"/>
<path d="M61.7627 22.6986C61.5086 22.5423 61.3327 22.6204 61.3522 22.8745C61.3718 23.1287 61.5868 23.4609 61.8214 23.6369C62.0755 23.7932 62.2514 23.7151 62.2318 23.4609C62.2318 23.1873 62.0168 22.855 61.7627 22.6986Z" fill="currentColor"/>
<path d="M61.0001 38.6877C60.7851 38.5118 60.6287 38.6291 60.6483 38.9809C60.6483 39.3132 60.8242 39.7237 61.0392 39.9192C61.2542 40.0951 61.391 39.9778 61.391 39.626C61.3715 39.2741 61.2151 38.8637 61.0001 38.6877Z" fill="currentColor"/>
<path d="M56.6603 31.0842C56.4062 30.9473 56.2107 31.0646 56.1912 31.3578C56.1912 31.6706 56.3671 32.0224 56.6212 32.1788C56.8753 32.3352 57.0708 32.1983 57.0903 31.9051C57.0903 31.5924 56.9144 31.2405 56.6603 31.0842Z" fill="currentColor"/>
<path d="M60.1197 20.2357C59.9438 20.138 59.807 20.1771 59.807 20.353C59.807 20.5289 59.9634 20.7439 60.1393 20.8612C60.3152 20.9785 60.452 20.9198 60.452 20.7439C60.4325 20.568 60.2957 20.3334 60.1197 20.2357Z" fill="currentColor"/>
<path d="M56.7778 9.46558C56.6019 9.36785 56.4455 9.36785 56.4455 9.48513C56.4455 9.62195 56.6019 9.77833 56.7778 9.87606C56.9732 9.97379 57.1101 9.9738 57.1101 9.83697C57.1101 9.71969 56.9732 9.56331 56.7778 9.46558Z" fill="currentColor"/>
<path d="M58.107 10.2474C57.9506 10.1692 57.8529 10.1692 57.8529 10.2669C57.8529 10.3842 57.9897 10.5015 58.1461 10.5992C58.3024 10.6774 58.4002 10.6774 58.4002 10.5797C58.3806 10.4819 58.2633 10.3451 58.107 10.2474Z" fill="currentColor"/>
<path d="M54.8032 27.8981C54.5686 27.7808 54.3927 27.8785 54.3731 28.1131C54.3536 28.3672 54.5295 28.6604 54.7445 28.7777C54.9791 28.8949 55.155 28.7972 55.1746 28.5431C55.1941 28.3086 55.0377 28.0154 54.8032 27.8981Z" fill="currentColor"/>
<path d="M52.9671 24.7901C52.7521 24.6728 52.5567 24.751 52.5371 24.9856C52.5176 25.2201 52.6739 25.4742 52.9085 25.5915C53.1431 25.7088 53.319 25.6111 53.3385 25.396C53.3385 25.181 53.1822 24.9074 52.9671 24.7901Z" fill="currentColor"/>
<path d="M51.2458 21.9167C51.0308 21.7994 50.8354 21.8776 50.8158 22.0731C50.7963 22.2881 50.9526 22.5226 51.1676 22.6399C51.3827 22.7572 51.5781 22.679 51.5977 22.464C51.6172 22.2881 51.4608 22.034 51.2458 21.9167Z" fill="currentColor"/>
<path d="M58.0287 9.42645C57.8724 9.32872 57.7551 9.32872 57.7551 9.446C57.7551 9.56328 57.8919 9.7001 58.0678 9.79784C58.2242 9.89557 58.3415 9.89557 58.3415 9.77829C58.3024 9.64146 58.1851 9.50464 58.0287 9.42645Z" fill="currentColor"/>
<path d="M59.0651 9.44592C58.9283 9.36773 58.8306 9.36773 58.8306 9.46546C58.8501 9.56319 58.9479 9.68047 59.0847 9.75866C59.2215 9.83685 59.3193 9.83685 59.3193 9.73912C59.3193 9.64139 59.202 9.52411 59.0651 9.44592Z" fill="currentColor"/>
<path d="M63.3458 23.891C63.1895 23.7932 63.0722 23.8323 63.0917 24.0083C63.1113 24.1842 63.2481 24.3992 63.4045 24.5165C63.5608 24.6142 63.6781 24.5751 63.6586 24.3992C63.639 24.2233 63.5022 24.0083 63.3458 23.891Z" fill="currentColor"/>
<path d="M61.8992 24.3014C61.7037 24.1646 61.5669 24.2428 61.5669 24.4578C61.5864 24.6728 61.7428 24.9464 61.9578 25.0833C62.1533 25.2201 62.2901 25.1419 62.2901 24.9269C62.251 24.6923 62.0946 24.4382 61.8992 24.3014Z" fill="currentColor"/>
<path d="M60.257 23.285C60.0811 23.1677 59.9442 23.2263 59.9442 23.4218C59.9442 23.6173 60.1006 23.8518 60.2961 23.9887C60.4915 24.1059 60.6284 24.0473 60.6088 23.8518C60.5893 23.6368 60.4524 23.4023 60.257 23.285Z" fill="currentColor"/>
<path d="M58.5962 22.2882C58.4203 22.1904 58.2834 22.2295 58.2834 22.4054C58.2834 22.5814 58.4203 22.7964 58.5962 22.8941C58.7721 22.9918 58.9089 22.9332 58.9089 22.7768C58.9089 22.6205 58.7721 22.4054 58.5962 22.2882Z" fill="currentColor"/>
<path d="M56.8946 21.3108C56.7187 21.2131 56.5818 21.2717 56.5818 21.4281C56.5818 21.604 56.7187 21.7995 56.8946 21.9167C57.0705 22.0145 57.2073 21.9558 57.2073 21.7995C57.2073 21.6235 57.0705 21.4085 56.8946 21.3108Z" fill="currentColor"/>
<path d="M63.423 25.4156C63.2666 25.2983 63.1493 25.3569 63.1689 25.5524C63.1884 25.7283 63.3253 25.9824 63.4816 26.0802C63.638 26.1974 63.7553 26.1388 63.7357 25.9433C63.7162 25.7674 63.5794 25.5329 63.423 25.4156Z" fill="currentColor"/>
<path d="M65.0455 26.6275C64.9086 26.5298 64.8109 26.5689 64.8109 26.7448C64.8305 26.9207 64.9477 27.1357 65.0846 27.253C65.2214 27.3703 65.3191 27.3116 65.2996 27.1357C65.2996 26.9598 65.1823 26.7448 65.0455 26.6275Z" fill="currentColor"/>
<path d="M56.8363 11.2833C56.6604 11.1856 56.5235 11.1856 56.5235 11.3224C56.5235 11.4592 56.6799 11.6156 56.8558 11.7134C57.0317 11.8111 57.1686 11.8111 57.1686 11.6743C57.149 11.557 57.0122 11.4006 56.8363 11.2833Z" fill="currentColor"/>
<path d="M46.1835 15.5641C45.773 15.3687 45.382 15.4664 45.2843 15.7987C45.2061 16.131 45.4798 16.561 45.8903 16.7565C46.3203 16.9519 46.7112 16.8542 46.7894 16.5024C46.8676 16.1701 46.5939 15.7596 46.1835 15.5641Z" fill="currentColor"/>
<path d="M44.366 14.5476C43.8382 14.3131 43.33 14.4108 43.2127 14.8213C43.0955 15.2318 43.4278 15.7595 43.9751 16.0136C44.5224 16.2677 45.0306 16.1309 45.1283 15.7204C45.2261 15.2904 44.8938 14.8017 44.366 14.5476Z" fill="currentColor"/>
<path d="M32.1885 1.68594C32.4817 1.78368 32.6185 1.9596 32.5208 2.09642C32.4231 2.23325 32.1103 2.2528 31.8171 2.17461C31.5239 2.07688 31.3871 1.90096 31.4848 1.76413C31.6021 1.6273 31.9148 1.58821 32.1885 1.68594Z" fill="currentColor"/>
<path d="M34.2021 2.31139C34.5344 2.44822 34.7103 2.66323 34.6126 2.83915C34.4953 2.99552 34.1435 3.03461 33.7916 2.91733C33.4398 2.78051 33.2639 2.5655 33.3811 2.38958C33.4984 2.21366 33.8698 2.19411 34.2021 2.31139Z" fill="currentColor"/>
<path d="M33.4387 18.2028C33.7514 18.3397 33.9078 18.6133 33.7905 18.887C33.6732 19.1411 33.3214 19.2584 32.9891 19.1411C32.6568 19.0042 32.5004 18.711 32.6373 18.4569C32.7741 18.1833 33.1259 18.0856 33.4387 18.2028Z" fill="currentColor"/>
<path d="M36.3121 16.7564C36.7422 16.9323 36.9767 17.3428 36.8399 17.6946C36.6835 18.0465 36.2339 18.1833 35.7844 18.0074C35.3348 17.8119 35.1198 17.4014 35.2566 17.0496C35.413 16.7173 35.8821 16.5805 36.3121 16.7564Z" fill="currentColor"/>
<path d="M39.2057 15.9159C39.6553 16.1113 39.9094 16.5414 39.7921 16.9128C39.6553 17.2841 39.1861 17.4014 38.717 17.206C38.2479 16.9909 37.9938 16.5609 38.1306 16.1895C38.287 15.8572 38.7366 15.74 39.2057 15.9159Z" fill="currentColor"/>
<path d="M44.6011 6.70948C44.9921 6.90495 45.2266 7.21769 45.168 7.45225C45.0898 7.68681 44.738 7.72591 44.3275 7.53044C43.9366 7.33497 43.6825 7.00268 43.7606 6.76812C43.8388 6.55311 44.2102 6.53356 44.6011 6.70948Z" fill="currentColor"/>
<path d="M35.4727 3.9533C35.8441 4.09013 36.02 4.34424 35.9223 4.5397C35.805 4.73517 35.4336 4.77426 35.0623 4.63744C34.6909 4.50061 34.4954 4.2465 34.6127 4.05104C34.73 3.85557 35.1014 3.81648 35.4727 3.9533Z" fill="currentColor"/>
<path d="M37.3285 4.65708C37.6999 4.81345 37.8954 5.0871 37.7977 5.28257C37.6804 5.47804 37.309 5.51713 36.9376 5.3803C36.5662 5.22393 36.3512 4.95028 36.4685 4.75481C36.5662 4.5398 36.9572 4.50071 37.3285 4.65708Z" fill="currentColor"/>
<path d="M40.4178 7.15905C40.8282 7.33497 41.0628 7.66726 40.9651 7.92137C40.8478 8.15593 40.4569 8.21457 40.0464 8.03865C39.6359 7.84318 39.4013 7.53044 39.4991 7.27633C39.5968 7.02222 40.0073 6.98313 40.4178 7.15905Z" fill="currentColor"/>
<path d="M39.1268 5.36066C39.5177 5.53658 39.7523 5.82978 39.6545 6.06434C39.5372 6.27936 39.1463 6.338 38.7358 6.16208C38.3253 5.98616 38.0908 5.67342 38.2081 5.43886C38.3254 5.22384 38.7163 5.18474 39.1268 5.36066Z" fill="currentColor"/>
<path d="M40.9068 6.12308C41.3173 6.31854 41.5714 6.65084 41.4737 6.90494C41.3759 7.15905 40.9654 7.19814 40.5354 7.00268C40.1054 6.80721 39.8513 6.47492 39.9686 6.22081C40.0859 5.98625 40.4963 5.94716 40.9068 6.12308Z" fill="currentColor"/>
<path d="M42.1763 7.92135C42.6063 8.13636 42.8799 8.48821 42.7822 8.76186C42.6845 9.03551 42.2544 9.09415 41.8049 8.89868C41.3553 8.68367 41.1012 8.31229 41.1989 8.03863C41.3162 7.76498 41.7462 7.72588 42.1763 7.92135Z" fill="currentColor"/>
<path d="M41.8836 15.1927C42.3332 15.4078 42.5873 15.8182 42.4896 16.1896C42.3723 16.5415 41.9423 16.6587 41.4731 16.4633C41.004 16.2483 40.7499 15.8182 40.8672 15.4468C40.9845 15.1146 41.4145 14.9973 41.8836 15.1927Z" fill="currentColor"/>
<path d="M42.3334 13.7072C42.8221 13.9418 43.0958 14.3913 42.998 14.7432C42.8808 15.1146 42.4116 15.2318 41.9034 14.9973C41.3952 14.7627 41.1216 14.3131 41.2388 13.9418C41.3757 13.5899 41.8448 13.4922 42.3334 13.7072Z" fill="currentColor"/>
<path d="M42.7633 12.2998C43.291 12.5539 43.6038 13.0231 43.4865 13.3944C43.3692 13.7658 42.861 13.8831 42.3333 13.6486C41.7859 13.3945 41.4732 12.9058 41.61 12.5344C41.7273 12.163 42.2355 12.0653 42.7633 12.2998Z" fill="currentColor"/>
<path d="M43.1736 10.9902C43.6818 11.2247 43.975 11.6743 43.8773 12.0261C43.76 12.378 43.2909 12.4757 42.7631 12.2412C42.2354 11.9871 41.9422 11.5375 42.0399 11.1856C42.1767 10.8338 42.6654 10.7556 43.1736 10.9902Z" fill="currentColor"/>
<path d="M43.5258 9.83695C43.9754 10.052 44.2295 10.4429 44.1513 10.7361C44.0536 11.0293 43.6431 11.1075 43.1935 10.8925C42.7439 10.6775 42.4703 10.2865 42.568 9.97378C42.6657 9.70012 43.0958 9.64149 43.5258 9.83695Z" fill="currentColor"/>
<path d="M43.9546 8.70322C44.4237 8.93778 44.7169 9.34826 44.6387 9.66101C44.541 9.97375 44.0914 10.0324 43.6027 9.79783C43.1141 9.56327 42.8209 9.13325 42.9186 8.84005C43.0163 8.5273 43.4659 8.46866 43.9546 8.70322Z" fill="currentColor"/>
<path d="M44.3073 7.64769C44.7764 7.88225 45.05 8.27319 44.9718 8.56639C44.8741 8.85958 44.4441 8.89867 43.975 8.68366C43.5059 8.4491 43.2127 8.05817 43.2908 7.76497C43.4081 7.47177 43.8381 7.43268 44.3073 7.64769Z" fill="currentColor"/>
<path d="M47.9819 7.41318C48.2946 7.56955 48.4901 7.8432 48.4705 8.01912C48.4315 8.21459 48.1578 8.23414 47.8451 8.07777C47.5323 7.9214 47.3173 7.64774 47.3564 7.45227C47.3955 7.27635 47.6691 7.2568 47.9819 7.41318Z" fill="currentColor"/>
<path d="M48.2161 6.55312C48.4897 6.70949 48.6852 6.94406 48.6657 7.10043C48.6266 7.2568 48.3724 7.27635 48.0988 7.13952C47.8056 6.98315 47.6297 6.74859 47.6492 6.57267C47.6883 6.43584 47.9424 6.41629 48.2161 6.55312Z" fill="currentColor"/>
<path d="M48.4708 5.77112C48.7054 5.90795 48.8813 6.10342 48.8618 6.24024C48.8227 6.37707 48.6272 6.37707 48.3731 6.25979C48.119 6.12296 47.9626 5.9275 47.9822 5.79067C48.0213 5.65385 48.2167 5.65384 48.4708 5.77112Z" fill="currentColor"/>
<path d="M48.6856 5.00888C48.9006 5.12616 49.057 5.30208 49.0374 5.41936C48.9983 5.55619 48.8224 5.53664 48.5879 5.41936C48.3729 5.30208 48.2165 5.12616 48.236 4.98933C48.2751 4.8916 48.4706 4.8916 48.6856 5.00888Z" fill="currentColor"/>
<path d="M48.8813 4.32478C49.0767 4.44206 49.2331 4.57889 49.2136 4.71572C49.194 4.833 49.0181 4.81345 48.8031 4.71572C48.5881 4.59844 48.4513 4.44206 48.4708 4.32478C48.5099 4.2075 48.6858 4.22705 48.8813 4.32478Z" fill="currentColor"/>
<path d="M49.0765 3.67973C49.2524 3.77746 49.3892 3.91428 49.3697 4.01202C49.3502 4.10975 49.1938 4.0902 49.0179 4.01202C48.8419 3.91428 48.7051 3.77746 48.7247 3.67973C48.7442 3.56245 48.9006 3.582 49.0765 3.67973Z" fill="currentColor"/>
<path d="M49.2528 3.13238C49.4287 3.23012 49.546 3.3474 49.5264 3.44513C49.5069 3.54286 49.37 3.52332 49.1941 3.42558C49.0182 3.32785 48.9009 3.21057 48.9205 3.11284C48.94 3.0151 49.0768 3.03465 49.2528 3.13238Z" fill="currentColor"/>
<path d="M49.4289 2.56558C49.5852 2.64376 49.683 2.76104 49.6634 2.83923C49.6439 2.91742 49.5266 2.89787 49.3702 2.81968C49.2138 2.7415 49.1161 2.62422 49.1357 2.54603C49.1552 2.46784 49.2725 2.48739 49.4289 2.56558Z" fill="currentColor"/>
<path d="M45.5781 18.1443C45.2458 17.9879 45.0504 17.6556 45.109 17.382C45.1872 17.1279 45.4804 17.0301 45.8127 17.1865C46.1254 17.3429 46.3404 17.6752 46.2818 17.9293C46.2036 18.2029 45.9104 18.3007 45.5781 18.1443Z" fill="currentColor"/>
<path d="M45.2258 19.8643C44.9131 19.7079 44.7176 19.3952 44.7763 19.1216C44.8544 18.8674 45.1281 18.7697 45.4408 18.9065C45.7536 19.0629 45.9491 19.3757 45.8904 19.6493C45.8122 19.923 45.5386 20.0207 45.2258 19.8643Z" fill="currentColor"/>
<path d="M44.8748 21.7018C44.562 21.565 44.3861 21.2327 44.4447 20.9395C44.5229 20.6658 44.7966 20.5681 45.1093 20.7049C45.4221 20.8417 45.598 21.174 45.5394 21.4477C45.4807 21.7409 45.1875 21.8386 44.8748 21.7018Z" fill="currentColor"/>
<path d="M44.5812 23.6954C44.288 23.5586 44.1121 23.2459 44.1708 22.9722C44.2489 22.6986 44.5226 22.6008 44.8158 22.7181C45.109 22.8549 45.2654 23.1677 45.2067 23.4413C45.1481 23.715 44.8744 23.8323 44.5812 23.6954Z" fill="currentColor"/>
<path d="M44.1701 25.8651C43.8964 25.7479 43.74 25.4351 43.7987 25.1615C43.8769 24.8878 44.131 24.7901 44.4046 24.9073C44.6783 25.0246 44.8346 25.3374 44.776 25.5915C44.7174 25.8456 44.4437 25.9824 44.1701 25.8651Z" fill="currentColor"/>
<path d="M43.7595 28.3084C43.5054 28.1911 43.3686 27.8979 43.4272 27.6243C43.5054 27.3702 43.74 27.2529 43.9941 27.3506C44.2482 27.4679 44.385 27.7416 44.3264 28.0152C44.2482 28.3084 44.0136 28.4257 43.7595 28.3084Z" fill="currentColor"/>
<path d="M42.6267 6.92447C43.0372 7.11994 43.2717 7.45223 43.1936 7.68679C43.0958 7.92135 42.7244 7.97999 42.314 7.78453C41.9035 7.58906 41.6494 7.25677 41.7471 7.00266C41.8448 6.78765 42.2162 6.74855 42.6267 6.92447Z" fill="currentColor"/>
<path d="M41.727 9.09411C42.0984 9.27003 42.3134 9.58278 42.2352 9.81734C42.1375 10.0519 41.7856 10.1105 41.4143 9.93462C41.0429 9.7587 40.8279 9.44596 40.9061 9.2114C41.0038 8.97684 41.3556 8.93774 41.727 9.09411Z" fill="currentColor"/>
<path d="M41.2966 10.2279C41.7071 10.4234 41.9612 10.7752 41.8634 11.0684C41.7657 11.3421 41.3552 11.4202 40.9252 11.2443C40.4952 11.0489 40.2606 10.6775 40.3583 10.4038C40.4756 10.1106 40.8861 10.052 41.2966 10.2279Z" fill="currentColor"/>
<path d="M39.7721 14.3326C40.1826 14.5281 40.4172 14.8995 40.3194 15.2122C40.2022 15.525 39.7917 15.6227 39.3616 15.4468C38.9316 15.2513 38.6971 14.8799 38.8143 14.5476C38.9316 14.2544 39.3421 14.1567 39.7721 14.3326Z" fill="currentColor"/>
<path d="M36.0587 2.95648C36.4497 3.11285 36.6451 3.38651 36.5278 3.58198C36.4106 3.77744 36.0001 3.81653 35.6091 3.66016C35.2182 3.50379 35.0032 3.23013 35.14 3.01512C35.2769 2.8392 35.6678 2.80011 36.0587 2.95648Z" fill="currentColor"/>
<path d="M35.5498 18.6915C35.9603 18.8675 36.1557 19.2584 36.0385 19.5907C35.8821 19.9425 35.4521 20.0794 35.0416 19.923C34.6311 19.7471 34.4161 19.3561 34.5725 19.0043C34.7093 18.672 35.1393 18.5352 35.5498 18.6915Z" fill="currentColor"/>
<path d="M32.6773 19.8448C33.0878 20.0012 33.2832 20.3921 33.1269 20.7439C32.951 21.0958 32.5014 21.2522 32.0909 21.0958C31.6609 20.9394 31.4849 20.5289 31.6413 20.1771C31.8172 19.8448 32.2668 19.6884 32.6773 19.8448Z" fill="currentColor"/>
<path d="M38.5407 17.7142C38.9708 17.9096 39.2053 18.3006 39.0685 18.672C38.9317 19.0238 38.5017 19.1606 38.0716 18.9847C37.6416 18.7892 37.407 18.3788 37.5439 18.0074C37.6807 17.6751 38.1107 17.5383 38.5407 17.7142Z" fill="currentColor"/>
<path d="M41.3174 16.9323C41.7084 17.1083 41.9429 17.4992 41.8647 17.8315C41.7475 18.1638 41.3565 18.2811 40.9461 18.1051C40.5356 17.9097 40.301 17.5187 40.3987 17.1864C40.516 16.8541 40.907 16.7564 41.3174 16.9323Z" fill="currentColor"/>
<path d="M43.8772 16.1505C44.3072 16.346 44.5613 16.776 44.4831 17.1083C44.3854 17.4601 43.9749 17.5774 43.5449 17.3819C43.1149 17.1669 42.8608 16.7565 42.9389 16.4046C43.0562 16.0528 43.4472 15.955 43.8772 16.1505Z" fill="currentColor"/>
<path d="M40.2805 12.8862C40.6714 13.0622 40.8865 13.414 40.7887 13.6876C40.6714 13.9613 40.3001 14.059 39.9091 13.8831C39.5182 13.7072 39.3032 13.3554 39.4009 13.0622C39.5182 12.8081 39.9091 12.7299 40.2805 12.8862Z" fill="currentColor"/>
<path d="M44.8941 5.81035C45.2264 5.98627 45.4414 6.25992 45.4023 6.45539C45.3437 6.65086 45.0309 6.67041 44.6791 6.51403C44.3272 6.33811 44.1122 6.06446 44.1709 5.84944C44.2295 5.67352 44.5423 5.65398 44.8941 5.81035Z" fill="currentColor"/>
<path d="M37.8763 3.79697C38.1891 3.9338 38.3454 4.14881 38.2672 4.32473C38.1695 4.48111 37.8568 4.50066 37.544 4.36383C37.2313 4.227 37.0554 3.99244 37.1531 3.83607C37.2508 3.67969 37.5636 3.66015 37.8763 3.79697Z" fill="currentColor"/>
<path d="M39.4008 9.52414C39.7331 9.68052 39.9286 9.95417 39.8308 10.1692C39.7331 10.3842 39.4008 10.4428 39.0685 10.306C38.7362 10.1496 38.5407 9.87598 38.6385 9.66096C38.7362 9.4264 39.0685 9.36777 39.4008 9.52414Z" fill="currentColor"/>
<path d="M37.0159 15.0559C37.4263 15.2319 37.6609 15.6228 37.5436 15.9355C37.4068 16.2678 36.9768 16.3851 36.5467 16.2092C36.1167 16.0333 35.8821 15.6423 36.019 15.3101C36.1558 14.9973 36.5858 14.88 37.0159 15.0559Z" fill="currentColor"/>
<path d="M40.7689 11.6156C41.1403 11.7916 41.3553 12.1043 41.2772 12.378C41.1794 12.6321 40.808 12.7103 40.4367 12.5539C40.0653 12.378 39.8307 12.0457 39.9284 11.772C40.0262 11.5179 40.3976 11.4397 40.7689 11.6156Z" fill="currentColor"/>
<path d="M36.8793 9.91515C37.2703 10.0715 37.4853 10.3843 37.368 10.6579C37.2507 10.912 36.8403 10.9902 36.4493 10.8338C36.0584 10.6775 35.8434 10.3452 35.9607 10.0911C36.0779 9.83696 36.4884 9.75877 36.8793 9.91515Z" fill="currentColor"/>
<path d="M30.1751 21.0762C30.4683 21.1935 30.5856 21.4476 30.4683 21.7213C30.3315 21.9754 29.9992 22.0926 29.706 21.9949C29.4128 21.8776 29.2955 21.604 29.4128 21.3499C29.5496 21.0958 29.8819 20.9785 30.1751 21.0762Z" fill="currentColor"/>
<path d="M38.5604 6.41621C38.9123 6.57258 39.1077 6.84623 39.0295 7.06125C38.9318 7.27626 38.58 7.31535 38.2086 7.15898C37.8372 7.00261 37.6417 6.72896 37.7395 6.51394C37.8567 6.29893 38.2086 6.25984 38.5604 6.41621Z" fill="currentColor"/>
<path d="M46.4579 6.6508C46.7511 6.80717 46.9662 7.06128 46.9075 7.2372C46.8489 7.41312 46.5752 7.43267 46.282 7.27629C45.9693 7.11992 45.7738 6.86581 45.8325 6.67035C45.8911 6.51397 46.1647 6.49443 46.4579 6.6508Z" fill="currentColor"/>
<path d="M42.0399 3.64064C42.2745 3.73837 42.4309 3.89474 42.3918 4.01202C42.3527 4.1293 42.1572 4.1684 41.9227 4.07067C41.6881 3.97293 41.5317 3.81656 41.5708 3.67973C41.6099 3.582 41.8054 3.5429 42.0399 3.64064Z" fill="currentColor"/>
<path d="M39.5573 4.50067C39.8309 4.61795 39.9873 4.83297 39.9091 4.96979C39.8309 5.10662 39.5768 5.14572 39.2836 5.02844C39.01 4.91116 38.8536 4.69614 38.9123 4.55932C39.01 4.40294 39.2836 4.38339 39.5573 4.50067Z" fill="currentColor"/>
<path d="M38.8146 10.8143C39.1469 10.9707 39.3423 11.2443 39.2641 11.4789C39.1664 11.7134 38.8146 11.7721 38.4627 11.6352C38.1109 11.4789 37.9154 11.1857 38.0132 10.9511C38.1304 10.7361 38.4823 10.6775 38.8146 10.8143Z" fill="currentColor"/>
<path d="M37.4852 8.76188C37.798 8.8987 37.9543 9.13326 37.8762 9.32873C37.7784 9.52419 37.4657 9.56329 37.1529 9.44601C36.8402 9.30918 36.6643 9.07462 36.762 8.87915C36.8597 8.68368 37.1725 8.6446 37.4852 8.76188Z" fill="currentColor"/>
<path d="M34.8266 9.21142C35.198 9.34825 35.3739 9.6219 35.2566 9.85646C35.1394 10.0715 34.7484 10.1497 34.3966 10.0128C34.0252 9.87601 33.8297 9.60236 33.9666 9.36779C34.0838 9.13323 34.4552 9.0746 34.8266 9.21142Z" fill="currentColor"/>
<path d="M33.5762 3.36704C33.8694 3.46477 34.0062 3.66023 33.9085 3.79706C33.8107 3.93389 33.5175 3.97299 33.2243 3.87525C32.9311 3.77752 32.7747 3.58205 32.8725 3.42568C32.9898 3.3084 33.283 3.2693 33.5762 3.36704Z" fill="currentColor"/>
<path d="M42.4311 2.83926C42.6852 2.937 42.8416 3.11292 42.8221 3.24975C42.783 3.38657 42.568 3.40612 42.3139 3.30838C42.0598 3.21065 41.9034 3.03473 41.9229 2.89791C41.962 2.78063 42.177 2.74153 42.4311 2.83926Z" fill="currentColor"/>
<path d="M43.3103 5.08709C43.6231 5.24346 43.799 5.47802 43.7404 5.65394C43.6622 5.82986 43.3885 5.84941 43.0758 5.69304C42.763 5.53666 42.5675 5.28256 42.6457 5.12618C42.7239 4.95026 42.9976 4.95026 43.3103 5.08709Z" fill="currentColor"/>
<path d="M43.6617 4.24651C43.9354 4.38334 44.0917 4.59835 44.0526 4.75473C43.994 4.9111 43.7595 4.9111 43.4858 4.77427C43.2121 4.63744 43.0362 4.42243 43.0949 4.26606C43.1535 4.10969 43.4076 4.10969 43.6617 4.24651Z" fill="currentColor"/>
<path d="M39.8699 8.41C40.1631 8.54683 40.3195 8.78139 40.2608 8.95731C40.1826 9.13323 39.8894 9.19187 39.5962 9.05504C39.303 8.91822 39.1271 8.68365 39.2053 8.50773C39.2835 8.33181 39.5767 8.29272 39.8699 8.41Z" fill="currentColor"/>
<path d="M41.2969 5.32163C41.5315 5.43891 41.6683 5.61482 41.6292 5.75165C41.5706 5.88847 41.336 5.90802 41.1015 5.79074C40.8669 5.67346 40.7105 5.49754 40.7692 5.36071C40.8278 5.22389 41.0428 5.20435 41.2969 5.32163Z" fill="currentColor"/>
<path d="M37.6421 13.6094C37.9353 13.7267 38.0916 14.0003 38.0134 14.2153C37.9157 14.4304 37.6225 14.5085 37.3098 14.3913C37.0166 14.2544 36.8406 14.0003 36.9384 13.7853C37.0361 13.5703 37.3293 13.4921 37.6421 13.6094Z" fill="currentColor"/>
<path d="M42.8999 6.10354C43.1149 6.20128 43.2322 6.3772 43.1931 6.49448C43.154 6.61176 42.939 6.6313 42.724 6.53357C42.509 6.43583 42.3721 6.25992 42.4308 6.12309C42.4894 6.02536 42.7044 6.00581 42.8999 6.10354Z" fill="currentColor"/>
<path d="M45.108 5.00894C45.3426 5.12622 45.4989 5.34123 45.4794 5.47806C45.4403 5.61488 45.2253 5.63443 44.9907 5.49761C44.7562 5.36078 44.5998 5.16531 44.6193 5.02849C44.6584 4.91121 44.8734 4.89166 45.108 5.00894Z" fill="currentColor"/>
<path d="M36.6644 5.71256C36.9576 5.82984 37.1139 6.04485 37.0358 6.22077C36.938 6.37714 36.6448 6.41624 36.3321 6.29896C36.0193 6.18168 35.863 5.96666 35.9607 5.79074C36.078 5.63437 36.3712 5.59528 36.6644 5.71256Z" fill="currentColor"/>
<path d="M30.2141 1.04091C30.4487 1.11909 30.5659 1.25592 30.4682 1.3732C30.3705 1.47093 30.1164 1.51003 29.8623 1.43184C29.6082 1.35365 29.5104 1.21683 29.6082 1.09955C29.7059 1.00181 29.96 0.962721 30.2141 1.04091Z" fill="currentColor"/>
<path d="M32.7348 8.48817C33.0671 8.60545 33.243 8.85956 33.1258 9.05503C33.0085 9.25049 32.6371 9.32868 32.3048 9.2114C31.9725 9.09412 31.7966 8.84001 31.9139 8.64455C32.0312 8.42953 32.383 8.37089 32.7348 8.48817Z" fill="currentColor"/>
<path d="M29.452 22.9723C29.7256 23.07 29.8234 23.3437 29.7061 23.5782C29.5693 23.8324 29.2565 23.9496 28.9829 23.8519C28.7092 23.7542 28.6115 23.4805 28.7288 23.2264C28.8656 22.9919 29.1783 22.8746 29.452 22.9723Z" fill="currentColor"/>
<path d="M27.3412 24.0668C27.5758 24.145 27.6735 24.3796 27.5562 24.5946C27.439 24.8096 27.1457 24.9073 26.9112 24.8292C26.6766 24.751 26.5789 24.5164 26.6962 24.3014C26.8135 24.0864 27.1067 23.9886 27.3412 24.0668Z" fill="currentColor"/>
<path d="M34.8074 20.568C35.1201 20.7048 35.257 20.998 35.1592 21.2717C35.042 21.5454 34.7097 21.6626 34.3969 21.5454C34.0842 21.4085 33.9278 21.1153 34.0451 20.8417C34.1624 20.5485 34.4946 20.4507 34.8074 20.568Z" fill="currentColor"/>
<path d="M31.9146 21.7995C32.2273 21.9363 32.3641 22.2295 32.2664 22.5032C32.1491 22.7768 31.8168 22.8941 31.5041 22.7768C31.1913 22.64 31.035 22.3468 31.1522 22.0731C31.2891 21.7799 31.6214 21.6822 31.9146 21.7995Z" fill="currentColor"/>
<path d="M35.472 8.07772C35.7065 8.17545 35.8238 8.33182 35.7456 8.48819C35.6674 8.62502 35.4329 8.66411 35.1983 8.58593C34.9638 8.48819 34.8465 8.31228 34.9247 8.17545C35.0029 8.01908 35.2374 7.97998 35.472 8.07772Z" fill="currentColor"/>
<path d="M41.4147 1.66646C41.6101 1.74465 41.7469 1.86193 41.7079 1.97921C41.6688 2.07694 41.4928 2.07694 41.2974 1.99876C41.1019 1.92057 40.9651 1.78374 41.0042 1.68601C41.0433 1.58828 41.2192 1.58827 41.4147 1.66646Z" fill="currentColor"/>
<path d="M37.8564 19.6103C38.1105 19.7275 38.2473 19.9816 38.1691 20.2162C38.091 20.4508 37.8173 20.5289 37.5436 20.4312C37.2895 20.3139 37.1332 20.0598 37.2309 19.8253C37.3286 19.5907 37.5827 19.5125 37.8564 19.6103Z" fill="currentColor"/>
<path d="M40.691 18.6524C40.9451 18.7697 41.0819 19.0043 41.0038 19.2193C40.9256 19.4343 40.691 19.5125 40.4369 19.3952C40.1828 19.2779 40.046 19.0434 40.1242 18.8284C40.2023 18.6133 40.4564 18.5352 40.691 18.6524Z" fill="currentColor"/>
<path d="M43.3304 18.0661C43.565 18.1834 43.7018 18.3984 43.6432 18.6134C43.5846 18.8089 43.3695 18.8871 43.135 18.7698C42.9004 18.6525 42.7636 18.4179 42.8222 18.2225C42.8809 18.027 43.0959 17.9488 43.3304 18.0661Z" fill="currentColor"/>
<path d="M30.4685 7.90174C30.7031 7.97993 30.8008 8.11676 30.7226 8.25358C30.6249 8.39041 30.3903 8.42951 30.1558 8.37087C29.9212 8.29268 29.8235 8.15585 29.9017 8.01902C29.9798 7.86265 30.2339 7.82356 30.4685 7.90174Z" fill="currentColor"/>
<path d="M31.9539 9.54369C32.2275 9.64142 32.3644 9.83689 32.2666 10.0128C32.1689 10.1887 31.8757 10.2474 31.5825 10.1496C31.3088 10.0519 31.172 9.85643 31.2698 9.68051C31.387 9.50459 31.6802 9.44595 31.9539 9.54369Z" fill="currentColor"/>
<path d="M34.1035 10.5015C34.3381 10.5992 34.4749 10.7752 34.3967 10.9511C34.3185 11.1074 34.0644 11.1661 33.8103 11.0684C33.5562 10.9706 33.4389 10.7752 33.5171 10.6188C33.5953 10.4624 33.8494 10.4038 34.1035 10.5015Z" fill="currentColor"/>
<path d="M36.2144 11.3419C36.4294 11.4397 36.5467 11.6156 36.4685 11.7524C36.3903 11.8893 36.1753 11.9479 35.9603 11.8502C35.7453 11.7524 35.628 11.5765 35.7062 11.4397C35.7843 11.3029 35.9994 11.2638 36.2144 11.3419Z" fill="currentColor"/>
<path d="M38.2281 12.1825C38.4431 12.2802 38.5408 12.4561 38.4822 12.593C38.4235 12.7493 38.2085 12.7884 37.9935 12.6907C37.7785 12.593 37.6612 12.4171 37.7199 12.2607C37.8176 12.1434 38.0131 12.1043 38.2281 12.1825Z" fill="currentColor"/>
<path d="M42.7822 2.19418C42.9776 2.27237 43.0949 2.38965 43.0754 2.48738C43.0363 2.58512 42.8799 2.60466 42.6844 2.52647C42.489 2.44829 42.3717 2.33101 42.3912 2.23327C42.4303 2.13554 42.6062 2.13554 42.7822 2.19418Z" fill="currentColor"/>
<path d="M41.7861 1.0409C41.962 1.11908 42.0597 1.21681 42.0402 1.31455C42.0207 1.41228 41.8643 1.41228 41.6884 1.3341C41.5124 1.25591 41.3952 1.15817 41.4343 1.06044C41.4734 0.982251 41.6297 0.982256 41.7861 1.0409Z" fill="currentColor"/>
<path d="M40.7498 0.04398C40.9061 0.10262 41.0039 0.20035 40.9843 0.278536C40.9648 0.356723 40.828 0.376271 40.6716 0.298084C40.5152 0.239444 40.4175 0.141713 40.437 0.04398C40.4566 -0.01466 40.5934 -0.01466 40.7498 0.04398Z" fill="currentColor"/>
<path d="M43.9361 3.56248C44.1316 3.66022 44.2684 3.81659 44.2293 3.93387C44.1902 4.05115 44.0143 4.05115 43.8188 3.95342C43.6234 3.85568 43.4866 3.69931 43.5256 3.58203C43.5647 3.44521 43.7407 3.4452 43.9361 3.56248Z" fill="currentColor"/>
<path d="M29.7253 8.89863C29.9599 8.97681 30.0576 9.13319 29.9794 9.27001C29.8817 9.40684 29.6276 9.46548 29.393 9.38729C29.1585 9.30911 29.0412 9.15273 29.1389 9.01591C29.2367 8.87908 29.4908 8.82044 29.7253 8.89863Z" fill="currentColor"/>
<path d="M27.6346 8.33188C27.8496 8.39052 27.9473 8.52734 27.8692 8.66417C27.7714 8.78145 27.5369 8.84009 27.3023 8.78145C27.0677 8.72281 26.97 8.58598 27.0677 8.44916C27.1655 8.33188 27.4196 8.27324 27.6346 8.33188Z" fill="currentColor"/>
<path d="M45.3232 7.55C45.2646 7.78456 45.4601 8.11685 45.8315 8.35141C45.4014 8.21459 45.0496 8.27323 44.9714 8.54688C44.9128 8.78144 45.0691 9.09419 45.3819 9.34829C45.03 9.27011 44.7368 9.36784 44.6587 9.62195C44.5805 9.91514 44.815 10.3061 45.206 10.5797C44.7564 10.4429 44.385 10.5406 44.2873 10.8534C44.2091 11.1075 44.3655 11.4398 44.6587 11.6939C44.3068 11.6548 44.0136 11.7721 43.9354 12.0457C43.8572 12.3585 44.0332 12.7103 44.385 13.0035C43.9745 12.9449 43.6422 13.0622 43.5445 13.3944C43.4272 13.8245 43.7791 14.3718 44.3655 14.6454C44.8346 14.8604 45.2646 14.8214 45.4796 14.5672C45.5383 14.9386 45.851 15.3491 46.3201 15.5837C46.7306 15.7791 47.0824 15.7596 47.317 15.5837C47.4343 15.916 47.7275 16.2483 48.1184 16.4437C48.5093 16.6392 48.8612 16.6196 49.0762 16.4437C49.1935 16.7956 49.5062 17.1083 49.8776 17.3233C50.2685 17.5188 50.6204 17.4992 50.8354 17.3038C50.9722 17.6556 51.2654 18.0075 51.6564 18.2225C52.2037 18.4961 52.6532 18.3593 52.6923 17.9097C52.7119 17.5774 52.4969 17.167 52.1646 16.8738C52.536 16.9324 52.7901 16.7956 52.8096 16.4828C52.8292 16.1896 52.6532 15.8378 52.36 15.5641C52.6728 15.6032 52.8878 15.4664 52.9269 15.1927C52.9464 14.8604 52.6923 14.45 52.3014 14.1568C52.7119 14.2936 53.0051 14.1763 53.0442 13.8636C53.0637 13.5899 52.8683 13.2576 52.5751 13.0035C52.8878 13.0622 53.1224 12.9644 53.1419 12.7103C53.1615 12.4171 52.9073 12.0262 52.5164 11.7721C52.8682 11.8894 53.1224 11.8307 53.1615 11.5766C53.181 11.2834 52.8682 10.8925 52.4578 10.6579C52.0864 10.4624 51.7932 10.482 51.6759 10.6579C51.6173 10.3843 51.3436 10.0715 50.9918 9.87605C50.6399 9.70013 50.3467 9.70013 50.2099 9.8565C50.1513 9.5633 49.8581 9.23101 49.4671 9.03555C49.0567 8.84008 48.7048 8.84008 48.568 9.016C48.5094 8.76189 48.2552 8.46869 47.8839 8.27323C47.4343 8.05821 47.0629 8.07776 46.9847 8.35141C47.0433 8.07776 46.7306 7.70637 46.3006 7.47181C45.8119 7.2568 45.421 7.29589 45.3232 7.55ZM51.0113 15.8573C51.2263 15.9746 51.3632 16.1896 51.3632 16.3655C51.3436 16.5415 51.1677 16.5806 50.9331 16.4828C50.7181 16.3655 50.5618 16.1505 50.5813 15.9746C50.6008 15.7987 50.7963 15.74 51.0113 15.8573ZM49.3108 15.0364C49.5062 15.1341 49.6235 15.3296 49.604 15.4664C49.5844 15.6228 49.4085 15.6619 49.213 15.5641C49.0176 15.4664 48.8807 15.2709 48.9198 15.1146C48.9589 14.9777 49.1153 14.9386 49.3108 15.0364ZM47.6102 14.1763C47.8057 14.274 47.9425 14.4695 47.9034 14.6063C47.8643 14.7627 47.6884 14.8018 47.4929 14.7041C47.2975 14.6063 47.1606 14.4109 47.1997 14.274C47.2388 14.1372 47.4147 14.0981 47.6102 14.1763ZM46.066 13.7267C46.0269 13.8831 45.8119 13.9418 45.5969 13.8245C45.3623 13.7072 45.2255 13.4922 45.2646 13.3358C45.3037 13.1794 45.5187 13.1403 45.7337 13.2381C45.9683 13.3554 46.1051 13.5508 46.066 13.7267ZM51.2263 14.665C51.4023 14.7627 51.5391 14.9386 51.5195 15.095C51.5 15.2318 51.3436 15.2709 51.1481 15.1732C50.9527 15.0755 50.8354 14.88 50.8354 14.7432C50.8745 14.6063 51.0309 14.5672 51.2263 14.665ZM46.0269 12.0653C46.2224 12.163 46.3397 12.3389 46.3201 12.4758C46.281 12.6126 46.1051 12.6517 45.9096 12.5539C45.7142 12.4562 45.5969 12.2803 45.6164 12.1435C45.6555 12.0066 45.8315 11.9675 46.0269 12.0653ZM51.3632 13.414C51.5391 13.5117 51.6759 13.6876 51.6564 13.8245C51.6368 13.9613 51.4804 14.0004 51.3045 13.9027C51.1286 13.8049 50.9918 13.629 51.0113 13.4922C51.0309 13.3358 51.1872 13.3163 51.3632 13.414ZM46.3201 10.8534C46.5156 10.9511 46.6329 11.127 46.5938 11.2443C46.5547 11.3811 46.3983 11.4007 46.2028 11.303C46.0074 11.2052 45.8901 11.0293 45.9096 10.912C45.9683 10.7947 46.1442 10.7752 46.3201 10.8534ZM51.5 12.2412C51.6759 12.3389 51.7932 12.4953 51.7932 12.6321C51.7736 12.769 51.6368 12.7885 51.4413 12.6908C51.2654 12.593 51.1286 12.4367 51.1481 12.2998C51.1872 12.163 51.3241 12.1435 51.5 12.2412ZM46.6133 9.73923C46.7892 9.83696 46.9065 9.99333 46.887 10.1106C46.8479 10.2474 46.6915 10.2474 46.496 10.1692C46.3201 10.0715 46.1833 9.91514 46.2224 9.77832C46.2615 9.66104 46.4179 9.64149 46.6133 9.73923ZM51.5782 11.0293C51.7736 11.127 51.9105 11.303 51.8909 11.4398C51.8714 11.5766 51.715 11.5962 51.5195 11.4984C51.3241 11.4007 51.1872 11.2052 51.2068 11.0879C51.2263 10.9511 51.3827 10.9316 51.5782 11.0293ZM50.0731 10.267C50.249 10.3647 50.3663 10.5015 50.3467 10.6384C50.3272 10.7556 50.1904 10.7752 50.0144 10.6775C49.8385 10.5797 49.7212 10.4429 49.7408 10.3061C49.7603 10.1888 49.8972 10.1692 50.0731 10.267ZM48.5484 9.48512C48.7244 9.58285 48.8416 9.71968 48.8221 9.83696C48.8026 9.95424 48.6462 9.97378 48.4703 9.87605C48.2943 9.77832 48.1771 9.64149 48.1966 9.50466C48.2161 9.40693 48.3725 9.38738 48.5484 9.48512ZM46.887 8.60552C47.0824 8.70325 47.2193 8.87917 47.1802 8.99645C47.1411 9.11373 46.9652 9.15283 46.7697 9.03555C46.5742 8.93781 46.4374 8.76189 46.4765 8.62506C46.496 8.52733 46.6915 8.50778 46.887 8.60552Z" fill="currentColor"/>
</g>
</g>
</svg>
