<svg width="99" height="40" viewBox="0 0 99 40" fill="none" xmlns="http://www.w3.org/2000/svg">
<path id="Vector" d="M44.5743 21.9273L43.947 24.5389L47.6998 24.549L48.3248 21.9405L44.5743 21.9273ZM49.5149 21.9273L48.8899 24.5389L52.6427 24.549L53.27 21.9405L49.5149 21.9273ZM58.5948 21.9273L57.9675 24.5389L61.7219 24.549L62.3499 21.9405L58.5948 21.9273ZM18.1885 3.42243C18.0146 3.42243 17.8935 3.43407 17.8477 3.46045L17.1474 6.77115C17.1474 6.77115 20.8451 6.87823 21.1595 7.22349L21.9971 3.80494C21.9971 3.80494 19.2016 3.42243 18.1885 3.42243ZM29.8295 36.9508C27.7055 36.9508 25.8896 35.9049 25.3276 34.3252L26.2025 30.8027C26.9998 29.9352 28.2023 29.2835 29.6098 29.0461C29.9879 28.9817 30.3613 28.9506 30.7262 28.9506C33.0699 28.9506 35.0379 30.2254 35.35 32.0914C35.7149 34.2507 33.7321 36.3813 30.9272 36.8592C30.5554 36.9213 30.1882 36.9508 29.8295 36.9508ZM43.2328 31.21C43.9874 29.9701 45.3724 28.9933 47.1828 28.7962C47.4786 28.7629 47.7635 28.7473 48.0375 28.7473C50.1685 28.7473 51.6203 29.7149 52.3197 31.1673L43.2328 31.21ZM74.9637 36.9019C72.8397 36.9019 71.0083 35.766 70.565 33.9954C70.02 31.8198 71.78 29.5007 74.487 28.8234C75.1089 28.669 75.6857 28.5984 76.2151 28.5984C81.3692 28.5976 82.0686 35.3121 76.4573 36.7165C75.9535 36.8421 75.4504 36.9019 74.9637 36.9019ZM11.672 36.5496C8.61013 36.5496 6.01331 35.0599 5.34256 32.6539C4.48239 29.5628 7.12967 26.1272 11.2543 24.9789C12.1665 24.7267 13.074 24.6072 13.9435 24.6072C17.0123 24.6072 19.6115 26.0938 20.2799 28.5037C21.137 31.5995 18.492 35.0305 14.3651 36.1749C13.4529 36.4294 12.543 36.5496 11.672 36.5496ZM34.2794 18.6919C32.0607 18.6919 30.2076 17.5963 29.8575 15.9057C29.4328 13.8697 31.3651 11.7353 34.1769 11.1534C34.6684 11.0509 35.1536 11.0021 35.6225 11.0021C37.8404 11.0021 39.692 12.0953 40.0444 13.7821C40.4699 15.8234 38.5376 17.9548 35.7281 18.5398C35.2359 18.643 34.7491 18.6919 34.2794 18.6919ZM71.4275 12.8727C72.342 11.4715 73.925 10.5443 75.7276 10.5443C77.5225 10.5443 79.1077 11.4715 80.0222 12.8727H71.4275ZM93.2447 0H88.9423L86.3051 11.4009C85.4201 16.6854 83.8301 17.6328 83.7277 17.7352C82.595 18.4149 81.6292 18.6732 80.8149 18.6732C78.2165 18.6732 77.1576 16.043 77.1576 16.043L83.6927 16.0081C85.1856 12.183 82.272 9.64193 82.1044 9.47434C80.2606 7.97843 78.2173 7.53618 76.4434 7.5354C73.8807 7.5354 71.877 8.45793 71.8374 8.45793C65.9746 11.1316 66.3146 15.9413 66.3146 15.9413L71.5999 16.043C70.8484 17.4194 68.5077 18.4994 66.6228 18.4994C65.168 18.4994 63.9841 17.8562 64.0097 16.2106L65.7044 8.2174H61.6396C61.0496 10.597 59.9782 16.5597 58.3899 17.8027C57.1974 18.3419 56.2744 18.5506 55.5594 18.5506C53.0821 18.5506 53.1023 16.043 53.1023 16.043L54.9321 8.15533L50.9697 8.11809C49.8929 12.1597 49.0343 19.1225 44.166 19.1225C43.534 19.1225 42.8353 19.0053 42.0598 18.7493C48.1159 12.7641 41.4372 7.91481 37.6992 7.91481C37.6735 7.91481 37.6479 7.91481 37.6231 7.91481L46.7372 0.095434L41.792 0.0597431L31.7944 8.79466L34.0326 0.095434L29.932 0.0597431L28.1348 7.20332C26.3422 5.2093 24.4775 4.52962 24.4775 4.52962L23.5622 8.49052C23.5622 8.49052 27.1551 12.1488 23.5273 15.7357C21.1199 18.12 18.6783 18.8144 16.6521 18.8144C13.8263 18.8144 11.8078 17.4652 11.8078 17.4652C5.77731 11.7058 14.3146 7.64325 14.3146 7.64325L15.3999 3.85227C12.0104 4.59479 9.02935 6.93176 9.02935 6.93176C1.14961 14.4338 8.37956 19.7959 8.37956 19.7959C9.5852 20.5354 10.752 21.0707 11.873 21.4447C6.40147 22.5185 -0.673982 27.4795 1.08984 33.8201C2.13477 37.5707 6.22525 39.879 11.0765 39.879C12.4894 39.879 13.966 39.6834 15.4519 39.2707C17.482 38.7082 19.2846 37.8035 20.7767 36.6839L20.1122 39.318L24.087 39.2497L24.5078 37.6405C25.9828 39.0208 28.1488 39.8433 30.5313 39.8433C31.1089 39.8433 31.6989 39.7952 32.2951 39.6951C35.4199 39.1698 37.9173 37.3387 39.0624 35.0545C39.959 37.978 43.3019 39.9418 46.4554 39.9418C46.7123 39.9418 46.9677 39.9286 47.22 39.9022C50.4946 39.557 52.7149 37.6467 54.6053 35.3393L51.2344 35.3051C50.226 36.2416 48.692 36.7855 47.1812 36.7855C45.3631 36.7855 43.5775 35.998 42.7794 34.1584L55.335 34.0878L55.4251 33.9706L54.1402 39.2202L57.8899 39.183L59.3176 33.6005L63.6596 39.183H69.1148L68.4876 38.3606C69.6621 39.3677 71.3048 39.8999 73.109 39.8999C74.6112 39.8999 76.2252 39.5314 77.7748 38.7601C78.2577 38.5235 78.7048 38.2558 79.1279 37.9641L78.8329 39.2202L82.9094 39.1776L84.7951 31.5297C85.3649 30.0982 86.9603 29.1136 86.9603 29.1136C87.7754 28.8249 88.4407 28.7039 88.9834 28.7039C91.8147 28.7039 91.2953 32.0123 91.2953 32.1465L89.6953 40L93.7175 39.2575L95.4223 31.8594C96.6349 27.0481 93.6561 25.6174 90.6742 25.6174C90.4041 25.6174 90.1339 25.6283 89.8676 25.6508C87.5596 25.8424 85.5326 27.0272 85.5326 27.0272V26.003H81.918L81.505 27.7689C80.3227 26.6292 78.5837 26.0255 76.6607 26.0248C75.157 26.0248 73.5407 26.3949 71.9896 27.1669C67.8052 29.2486 65.6819 33.4958 67.2004 36.6885L64.0074 32.536L71.3025 26.2055H66.5421L59.6995 32.162L61.1272 26.235L57.3379 26.1652L56.2223 30.7127C55.2915 27.6037 52.0177 25.5786 48.4288 25.5786C47.9102 25.5786 47.3854 25.6205 46.8598 25.7082C43.635 26.2428 40.7781 28.2368 39.5173 30.7274C38.668 27.7076 35.4556 25.6741 31.709 25.6741C31.1345 25.6741 30.5476 25.7214 29.9553 25.8207C28.9748 25.9883 28.0618 26.2823 27.2226 26.678L28.405 21.9172L24.5318 21.8505L23.7695 24.8578C22.7199 23.4868 21.1571 22.4502 19.2924 21.8226C22.6197 21.0327 24.8074 19.1892 25.2701 18.8214L24.6825 21.2205L28.6099 21.1305L28.9724 20.0365C30.7464 21.2973 32.6173 21.6759 34.2235 21.6759C36.634 21.6759 38.4499 20.8232 38.4499 20.8232C39.81 21.4742 41.1189 21.7225 42.3237 21.7225C46.1759 21.7225 48.9629 19.1861 48.9629 19.1861C50.8129 20.8527 52.6652 21.4036 54.3033 21.4036C57.5025 21.4036 59.892 19.304 59.892 19.304C61.7188 21.2003 63.6898 21.873 65.5655 21.873C70.1178 21.873 74.1074 17.9152 74.1074 17.9152C75.8378 20.7487 78.0325 21.537 79.9399 21.537C82.3303 21.537 84.2672 20.2979 84.2672 20.2979L84.0149 21.3725H88.1395L93.2447 0ZM98.738 0H94.4076L89.3995 21.3632H93.4706L98.738 0Z" fill="currentColor"/>
</svg>
