<svg xmlns="http://www.w3.org/2000/svg" width="119" height="40" viewBox="0 0 119 40" fill="none">
    <path d="M13.6557 37.0996L16.2385 39.6821H-2.68273V37.0996H13.6557Z" fill="currentColor"/>
    <path d="M106.482 0.785128L106.49 18.6458H39.2274V0.785128H42.4208V15.7298H77.049V8.48328H80.2203V15.7298H89.4912C89.1768 15.3976 88.9235 14.9629 88.7429 14.6125C88.5012 14.1388 88.3726 13.5639 88.3726 12.8839C88.3726 11.5135 88.8481 10.3676 89.7861 9.44879C90.7254 8.5248 91.8882 8.06411 93.2731 8.06411C94.632 8.06411 95.7753 8.52221 96.7094 9.43062C97.6383 10.3403 98.1099 11.4745 98.1099 12.8346C98.1099 13.4328 97.9891 13.974 97.7449 14.4606C97.5643 14.8383 97.298 15.3353 96.9498 15.7298H103.326L103.318 0.785128H106.482ZM95.5714 13.3628C95.5714 12.7256 95.3492 12.1844 94.9114 11.7354C94.4748 11.2877 93.937 11.0658 93.2965 11.0658C92.6261 11.0658 92.0519 11.289 91.6037 11.7471C91.1671 12.2026 90.9411 12.7684 90.9411 13.451C90.9411 14.0778 91.1671 14.6099 91.6089 15.0589C92.0675 15.5092 92.5949 15.7298 93.2082 15.7298C93.8772 15.7298 94.4398 15.5027 94.8945 15.0511C95.3453 14.5969 95.5714 14.035 95.5714 13.3628Z" fill="currentColor"/>
    <path d="M42.3636 25.6523V39.6821H39.1923L39.2417 37.7419C38.7662 38.5076 38.1634 39.0786 37.4436 39.4485C36.7278 39.817 35.8495 40 34.8167 40C32.7393 40 31.0062 39.2901 29.6005 37.8704C28.2013 36.4494 27.5088 34.6923 27.5088 32.6003C27.5088 30.5382 28.1948 28.8045 29.5771 27.399C30.9555 25.9884 32.6743 25.285 34.7465 25.285C35.6508 25.285 36.477 25.4615 37.2163 25.8249C37.9503 26.1882 38.6285 26.7476 39.2417 27.5054L39.1871 25.6523H42.3636ZM39.1416 32.7003C39.1416 31.518 38.7441 30.5253 37.9386 29.7233C37.137 28.9264 36.1392 28.5306 34.9427 28.5306C33.8124 28.5306 32.8549 28.9096 32.0585 29.6895C31.2621 30.463 30.8672 31.4155 30.8672 32.5471C30.8672 33.7462 31.266 34.739 32.0767 35.5267C32.8783 36.3183 33.8917 36.709 35.0973 36.709C36.2055 36.709 37.1591 36.3118 37.9503 35.5241C38.748 34.7299 39.1416 33.7878 39.1416 32.7003Z" fill="currentColor"/>
    <path d="M103.324 25.6523H106.492V39.6821H103.324L103.366 37.7419C102.887 38.5076 102.291 39.0786 101.574 39.4485C100.856 39.817 99.9781 40 98.9414 40C96.864 40 95.1231 39.2901 93.7291 37.8704C92.3312 36.4494 91.627 34.6923 91.627 32.6003C91.627 30.5382 92.3208 28.8045 93.7044 27.399C95.0842 25.9884 96.8056 25.285 98.8661 25.285C99.7794 25.285 100.602 25.4641 101.347 25.8249C102.078 26.1882 102.756 26.7476 103.366 27.5054L103.324 25.6523ZM103.268 32.7003C103.268 31.518 102.861 30.5253 102.063 29.7233C101.266 28.9264 100.263 28.5306 99.07 28.5306C97.9384 28.5306 96.9731 28.9096 96.1806 29.6895C95.3908 30.463 94.9906 31.4155 94.9906 32.5471C94.9906 33.7462 95.3972 34.739 96.2001 35.5267C97.0108 36.3183 98.0138 36.709 99.2246 36.709C100.334 36.709 101.288 36.3183 102.078 35.5241C102.873 34.7299 103.268 33.7891 103.268 32.7003Z" fill="currentColor"/>
    <path d="M70.8402 25.6523H74.018V39.6821H70.8402L70.8948 37.7419C70.4141 38.5076 69.8152 39.0786 69.0967 39.4485C68.377 39.817 67.4975 40 66.4711 40C64.3859 40 62.6463 39.2901 61.2497 37.8704C59.857 36.4494 59.1554 34.6923 59.1554 32.6003C59.1554 30.5382 59.844 28.8045 61.2276 27.399C62.61 25.9884 64.3262 25.285 66.3958 25.285C67.3026 25.285 68.125 25.4615 68.8668 25.8249C69.606 26.1882 70.2777 26.7476 70.8948 27.5054L70.8402 25.6523ZM70.787 32.7003C70.787 31.518 70.3907 30.5253 69.5891 29.7233C68.7888 28.9264 67.7911 28.5306 66.5958 28.5306C65.4564 28.5306 64.5016 28.9096 63.7091 29.6895C62.9166 30.463 62.5216 31.4155 62.5216 32.5471C62.5216 33.7462 62.9166 34.739 63.7285 35.5267C64.5275 36.3183 65.5409 36.709 66.7504 36.709C67.8508 36.709 68.8096 36.3118 69.6008 35.5241C70.3985 34.7299 70.787 33.7878 70.787 32.7003Z" fill="currentColor"/>
    <path d="M-13.6166 3.00685V9.32291H-19.9397C-18.3417 6.77286 -16.1721 4.60954 -13.6166 3.00685Z" fill="currentColor"/>
    <path d="M64.8199 4.52909C64.8199 3.64403 65.5409 2.92509 66.4243 2.92509C67.3156 2.92509 68.0353 3.64403 68.0353 4.52909C68.0353 5.41673 67.3156 6.13308 66.4243 6.13308C65.5409 6.13308 64.8199 5.41673 64.8199 4.52909Z" fill="currentColor"/>
    <path d="M91.3555 4.52909C91.3555 3.64403 92.0727 2.92509 92.9574 2.92509C93.8473 2.92509 94.5606 3.64403 94.5606 4.52909C94.5606 5.41673 93.8473 6.13308 92.9574 6.13308C92.0727 6.13308 91.3555 5.41673 91.3555 4.52909Z" fill="currentColor"/>
    <path d="M109.445 18.6458V0.785128H112.714L112.723 18.6458H109.445Z" fill="currentColor"/>
    <path d="M6.0984 29.5623H-2.68143V26.9812H3.51954L6.0984 29.5623Z" fill="currentColor"/>
    <path d="M-0.653416 22.8154H-2.68013V20.7975L-0.653416 22.8154Z" fill="currentColor"/>
    <path d="M2.72704 26.1908L-2.68013 26.1895V23.6109H0.136484L2.72704 26.1908Z" fill="currentColor"/>
    <path d="M12.858 36.3092H-2.68143V33.7294H10.2752L12.858 36.3092Z" fill="currentColor"/>
    <path d="M6.65965 9.32291H-2.68013V0C0.704224 0.0661841 3.8859 0.977192 6.65965 2.53447V9.32291Z" fill="currentColor"/>
    <path d="M13.7804 9.32291H7.45604V3.00814C10.0102 4.60825 12.1759 6.77416 13.7804 9.32291Z" fill="currentColor"/>
    <path d="M4.5186 20.2355H6.65965V28.9965L-0.28315 22.0666C0.991343 20.9259 2.67507 20.2355 4.5186 20.2355Z" fill="currentColor"/>
    <path d="M-2.68143 12.2428V10.1145H6.65965V19.4413L4.5186 19.4387C0.541826 19.4387 -2.68143 16.2178 -2.68143 12.2428Z" fill="currentColor"/>
    <path d="M9.48016 32.9351H-2.68143V30.3566H6.89869L9.48016 32.9351Z" fill="currentColor"/>
    <path d="M-12.8202 2.53577C-10.0504 0.977192 -6.86737 0.0674818 -3.48042 0.00129742V9.32421H-12.8202V2.53577Z" fill="currentColor"/>
    <path d="M-12.8202 10.1145H-3.48042V12.2441C-3.48042 16.2165 -6.70628 19.4413 -10.687 19.4413H-12.8202V10.1145Z" fill="currentColor"/>
    <path d="M-19.9397 30.3566H-13.6166V36.6713C-16.1708 35.0712 -18.3417 32.9079 -19.9397 30.3566Z" fill="currentColor"/>
    <path d="M14.2455 10.1145C15.8136 12.8813 16.7231 16.0568 16.7932 19.4413H7.45474V10.1145H14.2455Z" fill="currentColor"/>
    <path d="M7.45214 20.2394L16.7945 20.2355C16.6893 25.4161 14.5911 30.11 11.247 33.5879L7.45214 29.7959V20.2394Z" fill="currentColor"/>
    <path d="M-20.4126 10.1145H-13.6166V19.4413H-22.9512C-22.8862 16.0568 -21.9703 12.8813 -20.4126 10.1145Z" fill="currentColor"/>
    <path d="M-3.48042 27.4276V29.5623L-12.8202 29.5649V20.2342H-10.687C-6.70628 20.2342 -3.48042 23.4539 -3.48042 27.4276Z" fill="currentColor"/>
    <path d="M-22.9512 20.2355H-13.6166V29.5623H-20.4126C-21.9703 26.7969 -22.8849 23.6187 -22.9512 20.2355Z" fill="currentColor"/>
    <path d="M-12.8202 30.3566H-3.48042V39.6782C-6.86737 39.6107 -10.0504 38.6997 -12.8202 37.1411V30.3566Z" fill="currentColor"/>
    <path d="M45.7233 20.2342H48.914V39.6821H45.7233V20.2342Z" fill="currentColor"/>
    <path d="M89.2703 29.4105C89.4159 30.0672 89.4873 31.0093 89.4873 32.2512V39.6821H86.1887V33.4672C86.1887 31.5712 85.9717 30.2774 85.5287 29.5844C85.0961 28.894 84.3374 28.5514 83.276 28.5514C82.1937 28.5514 81.409 28.9342 80.9283 29.6986C80.4554 30.463 80.219 31.7918 80.219 33.6723V39.6821H77.0503V25.6523H80.219V27.2589C80.7049 26.6191 81.2739 26.1246 81.8949 25.821C82.5068 25.5121 83.2149 25.3577 84.0152 25.3577C85.0246 25.3577 85.9003 25.5523 86.6577 25.9352C87.4099 26.3167 88.0322 26.8942 88.5441 27.6573C88.8819 28.1777 89.1287 28.7642 89.2703 29.4105Z" fill="currentColor"/>
    <path d="M32.6717 8.48328L32.6665 13.0656C32.6665 16.9133 29.5758 17.313 26.537 16.5007C26.537 18.6341 29.7759 20.0318 32.6406 19.0286C35.5091 18.0229 35.8677 15.4171 35.8677 12.6646V8.48328H32.6717Z" fill="currentColor"/>
    <path d="M118.465 25.8988L116.993 28.6241C114.434 27.5599 112.731 29.247 112.731 31.7503V39.6821H109.443V25.6523H112.522L112.528 27.0954C113.477 25.3914 115.919 24.5791 118.465 25.8988Z" fill="currentColor"/>
    <path d="M50.8082 27.2978H58.4604V30.2475H50.8082V27.2978Z" fill="currentColor"/>
    <path d="M59.9479 20.6729C58.2226 19.5724 54.1809 19.4816 52.9298 21.1297C52.4452 21.7721 51.9749 22.9647 51.9749 24.8607V39.6821H55.2423V24.8243C55.2423 23.0905 56.1855 22.6818 58.476 23.3981L59.9479 20.6729Z" fill="currentColor"/>
</svg>