<svg width="152" height="40" viewBox="0 0 152 40" fill="none" xmlns="http://www.w3.org/2000/svg">
<g id="Group 1000004185">
<g id="Vector">
<path d="M6.25065 9.99327C6.87614 9.99327 7.36481 9.48505 7.36481 8.84001C7.36481 8.23407 6.8566 7.72585 6.25065 7.72585C5.62516 7.72585 5.0974 8.21452 5.0974 8.84001C5.0974 9.5046 5.60561 9.99327 6.25065 9.99327Z" fill="currentColor"/>
<path d="M9.53369 21.0957C8.8691 21.0957 8.38043 21.5844 8.38043 22.2099C8.38043 22.8354 8.8691 23.3436 9.53369 23.3436C10.1396 23.3436 10.6478 22.8354 10.6478 22.2099C10.6478 21.6235 10.1396 21.0957 9.53369 21.0957Z" fill="currentColor"/>
<path d="M11.2155 16.17C11.2155 17.1669 10.8441 17.5187 9.7886 17.5187H8.5767V14.9972C8.5767 12.4561 7.26708 11.1074 4.82375 11.1074C1.83311 11.1074 0.464844 13.1989 0.464844 15.2513C0.464844 16.7564 0.95351 17.8901 1.85266 18.4961C2.88863 19.1802 3.74868 19.317 5.70335 19.317H9.88633C12.1147 19.317 13.3656 18.4765 13.3656 16.2286V11.1074H11.196V16.17H11.2155ZM5.21468 17.5187C3.43593 17.5187 2.69316 16.815 2.69316 15.1731C2.69316 13.7853 3.47503 12.9057 4.68692 12.9057C5.89881 12.9057 6.46567 13.6485 6.46567 15.2318V17.5187H5.21468Z" fill="currentColor"/>
<path d="M3.63134 9.99327C4.25683 9.99327 4.7455 9.48505 4.7455 8.84001C4.7455 8.23407 4.23729 7.72585 3.63134 7.72585C3.00585 7.72585 2.51718 8.21452 2.51718 8.84001C2.51718 9.5046 2.96675 9.99327 3.63134 9.99327Z" fill="currentColor"/>
<path d="M21.9267 15.2513C21.9267 13.1989 20.5976 11.1074 17.6069 11.1074H15.9064V12.9057H17.7828C18.9947 12.9057 19.7766 13.7853 19.7766 15.1731V17.5187H14.1667V19.317H21.9267V15.2513Z" fill="currentColor"/>
<path d="M12.1147 21.0957C11.4892 21.0957 11.0006 21.5844 11.0006 22.2099C11.0006 22.8354 11.4892 23.3436 12.1147 23.3436C12.7402 23.3436 13.268 22.8354 13.268 22.2099C13.268 21.6235 12.7597 21.0957 12.1147 21.0957Z" fill="currentColor"/>
<path d="M96.477 7.11993H94.3659V19.3366H96.477V7.11993Z" fill="currentColor"/>
<path d="M95.0701 21.0957V23.1286C95.7542 23.2458 96.2428 23.2849 96.712 23.2849C99.644 23.2849 101.071 21.9558 101.071 19.1997V11.9088H98.8817V19.2388C98.8817 20.6266 98.0998 21.4671 96.8879 21.4671C96.1256 21.4671 95.5587 21.2716 95.3437 21.213L95.0701 21.0957Z" fill="currentColor"/>
<path d="M104.569 8.42955H102.458V19.3366H104.569V8.42955Z" fill="currentColor"/>
<path d="M68.6041 18.5156C69.6401 19.1997 70.5001 19.3366 72.4743 19.3366H73.1976C73.178 20.7439 72.3766 21.4476 70.8715 21.4476C70.1874 21.4476 69.3664 21.3499 68.4868 21.0567L68.35 21.0176V23.0504C69.4251 23.2459 70.246 23.3241 70.9888 23.3241C73.8622 23.3241 75.3477 21.9949 75.3868 19.3561H87.7598C91.1805 19.3561 92.9788 18.4765 92.9788 15.2904C92.9788 13.238 91.6496 11.1465 88.659 11.1465C86.2352 11.1465 84.906 12.4757 84.906 15.0363V17.5578H82.9904C83.2641 17.0105 83.44 16.3655 83.44 15.564C83.44 13.7658 82.2868 11.6743 79.1202 11.6743H78.8465L82.9709 7.13944H80.4298C78.8856 8.87909 76.5596 11.4006 76.2859 11.6547V13.4726H79.2766C80.1953 13.4726 81.2899 13.8244 81.2899 15.4663C81.2899 16.991 80.6057 17.5578 78.7684 17.5578H75.3477V14.9972C75.3477 12.4561 74.0381 11.1074 71.5947 11.1074C68.6041 11.1074 67.2358 13.1989 67.2358 15.2513C67.2163 16.7564 67.7049 17.9096 68.6041 18.5156ZM87.0366 15.2318C87.0366 13.668 87.6035 12.9057 88.8153 12.9057C90.0272 12.9057 90.8091 13.8048 90.8091 15.1731C90.8091 16.815 90.0663 17.5187 88.3071 17.5187H87.0366V15.2318ZM71.3993 12.9253C72.6112 12.9253 73.1585 13.668 73.1585 15.2513V17.5383H71.9466C70.1678 17.5383 69.4251 16.8346 69.4251 15.1927C69.4251 13.8049 70.1874 12.9253 71.3993 12.9253Z" fill="currentColor"/>
<path d="M56.1524 19.317C57.071 19.317 58.0093 19.102 58.5175 18.8088C59.2016 18.4179 59.4948 17.7338 59.5535 17.3819C59.6317 17.1083 59.6512 16.8151 59.6512 16.2287V7.11993H57.4815V16.17C57.4815 17.1669 57.1101 17.5188 56.0546 17.5188H55.5464C55.1946 17.5188 54.8427 17.4406 54.4518 17.3037C54.4909 17.0301 54.53 16.7173 54.53 16.346V11.9089H52.3994V16.2091C52.3994 17.1474 51.9889 17.5383 51.0116 17.5383C50.6598 17.5383 50.3079 17.4992 49.9365 17.3819C49.9756 17.0692 50.0147 16.776 50.0147 16.3264V11.9089H47.8841V16.2091C47.8841 17.0496 47.6691 17.4015 47.0632 17.5188H45.9686C45.8122 17.5188 45.4212 17.5383 45.4212 17.3233V11.8893H43.2907V17.4992H39.6941C40.8669 16.2678 41.5706 14.9386 41.5706 13.9417C41.5706 12.0261 39.264 11.0488 36.9575 11.0488C34.6706 11.0488 32.3445 12.0261 32.3445 13.9417C32.3445 15.2904 33.5564 16.776 34.2601 17.4992H30.9763V14.9972C30.9763 12.4562 29.6666 11.1074 27.2429 11.1074C24.2522 11.1074 22.923 13.1989 22.923 15.2513C22.923 16.7564 23.3922 17.8901 24.2718 18.4961C25.3077 19.1802 26.1678 19.317 28.1224 19.317H28.8457C28.8261 20.7244 28.0443 21.4281 26.5196 21.4281C25.8355 21.4281 25.0145 21.3303 24.1349 21.0371L23.9981 20.9981V23.0309C25.0732 23.2264 25.8941 23.3046 26.6369 23.3046C29.5103 23.3046 30.9958 21.9754 31.0349 19.3366H45.5385C45.949 19.3757 46.379 19.4148 46.8091 19.4148C47.63 19.4148 48.236 19.2779 48.8224 18.9457C49.5847 19.2584 50.5034 19.4148 51.4025 19.4148C52.2235 19.4148 52.9076 19.2584 53.4158 18.9066C54.1195 19.2193 54.9796 19.3561 55.9764 19.3561H56.1524V19.317ZM27.5947 17.5188C25.8159 17.5188 25.0732 16.8151 25.0732 15.1731C25.0732 13.7853 25.855 12.9057 27.0669 12.9057C28.2788 12.9057 28.8457 13.6485 28.8457 15.2122V17.5188H27.5947ZM36.9184 17.3819C36.6057 17.3819 34.3383 15.2318 34.3383 13.9613C34.3383 13.2576 35.687 12.8862 36.9771 12.8862C38.2085 12.8862 39.4986 13.2576 39.4986 13.9613C39.5182 15.2122 37.3485 17.3819 36.9184 17.3819Z" fill="currentColor"/>
<path d="M63.4046 7.11993H61.2935V19.3366H63.4046V7.11993Z" fill="currentColor"/>
<path d="M105.079 6.51398H103.906C103.417 6.49443 103.3 6.3967 103.3 6.02531C103.3 5.59528 103.437 5.51709 103.945 5.51709C104.277 5.51709 104.512 5.59528 104.864 5.84939V4.81341L104.707 4.73523C104.453 4.61795 104.219 4.57886 103.925 4.57886C102.85 4.57886 102.244 5.08707 102.244 6.04486C102.244 6.25987 102.283 6.3967 102.342 6.51398H101.951V7.45221H105.079V6.51398Z" fill="currentColor"/>
<path d="M101.931 26.7253C99.6438 26.7253 97.7673 28.6018 97.7673 30.8887C97.7673 33.1757 99.6438 35.0522 101.931 35.0522C104.218 35.0522 106.075 33.1757 106.075 30.8887C106.075 28.6018 104.218 26.7253 101.931 26.7253ZM101.931 33.1562C100.66 33.1562 99.6634 32.1202 99.6634 30.8887C99.6634 29.6573 100.66 28.6409 101.931 28.6409C103.162 28.6409 104.179 29.6378 104.179 30.8887C104.179 32.1397 103.162 33.1562 101.931 33.1562Z" fill="currentColor"/>
<path d="M86.6841 26.6276C85.7654 26.6276 84.8272 26.823 84.0844 27.1162C83.4785 26.7644 82.8921 26.6276 82.0516 26.6276C80.996 26.6276 79.921 26.7644 78.7482 27.1749L78.5332 27.253V34.8958H80.6247V28.6213C81.0547 28.4845 81.3674 28.4258 81.7975 28.4258C82.8334 28.4258 83.1266 28.7581 83.1266 29.8332V34.8958H85.2377V29.6964C85.2377 29.2273 85.2181 28.9145 85.1399 28.6409C85.5504 28.504 85.8827 28.4258 86.2541 28.4258C87.2314 28.4258 87.681 28.8754 87.681 29.8332V34.8958H89.7725V29.6768C89.7725 28.6409 89.6161 28.0349 89.147 27.5267C88.6192 26.9598 87.7592 26.6276 86.6841 26.6276Z" fill="currentColor"/>
<path d="M95.0306 33.2539C93.6428 33.2539 92.8413 32.3938 92.8413 30.8887C92.8413 29.3445 93.6428 28.4649 95.0501 28.4649C95.3433 28.4649 95.5779 28.504 95.8124 28.5627C95.8124 28.5627 96.2425 28.68 96.6139 28.9732L97.4935 27.4681C97.0048 27.0771 96.4575 26.9012 96.262 26.8426C95.7147 26.6862 94.9328 26.6471 94.9328 26.6471C92.4309 26.6471 90.7499 28.3868 90.7499 30.9669C90.7499 33.4493 92.3331 35.0522 94.8156 35.0522C94.8156 35.0522 96.477 35.1304 97.5716 34.0944L96.5357 32.7652C95.9884 33.117 95.5974 33.2539 95.0306 33.2539Z" fill="currentColor"/>
<path d="M67.8806 26.7057C64.9095 26.7057 63.5217 28.0153 63.5217 30.7909V34.8762H65.6523V30.7518C65.6523 29.3445 66.4537 28.4844 67.6851 28.4844C68.1933 28.4844 68.6038 28.5822 68.8775 28.6408L69.3661 26.7839C68.5452 26.7057 67.8806 26.7057 67.8806 26.7057Z" fill="currentColor"/>
<path d="M77.3216 30.576V34.8958H74.4678C72.4936 34.8958 71.6335 34.7589 70.6171 34.0748C69.7179 33.4689 69.2293 32.3156 69.2293 30.8301C69.2293 28.7777 70.578 26.6862 73.5882 26.6862C76.012 26.6862 77.3216 28.0349 77.3216 30.576ZM75.2301 30.791C75.2301 29.2272 74.6242 28.4454 73.4123 28.4454C72.1808 28.4454 71.3794 29.3641 71.3794 30.7323C71.3794 32.3938 72.1808 33.117 73.9596 33.117H75.2497V30.791H75.2301Z" fill="currentColor"/>
<path d="M62.3684 30.576V34.8958H59.5341C57.5599 34.8958 56.6998 34.7589 55.6834 34.0748C54.7843 33.4689 54.2956 32.3156 54.2956 30.8301C54.2956 28.7777 55.6443 26.6862 58.6545 26.6862C61.0783 26.6862 62.3684 28.0349 62.3684 30.576ZM60.2182 30.791C60.2182 29.2077 59.6514 28.4454 58.4199 28.4454C57.1885 28.4454 56.3871 29.3641 56.3871 30.7323C56.3871 32.3938 57.1885 33.117 58.9673 33.117H60.2378V30.791H60.2182Z" fill="currentColor"/>
<path d="M17.763 29.9504C16.4925 29.579 15.9842 29.364 15.9842 28.9536C15.9842 28.5235 16.6293 28.289 17.4112 28.289C18.193 28.289 18.9553 28.4649 19.5222 28.6604L20.0109 26.8425C19.1704 26.647 18.1539 26.5298 17.4698 26.5298C15.2219 26.5298 13.9905 27.5462 13.9905 29.0708C13.9905 29.8331 14.2055 30.8691 16.5706 31.5337C17.9585 31.9442 18.4667 31.9833 18.4667 32.4524C18.4667 32.9606 17.5871 33.332 16.5902 33.332C15.5542 33.332 14.4987 32.8824 13.8732 32.5697V34.5439C14.6355 34.8566 15.5933 35.0912 16.5511 35.0912C19.014 35.0912 20.4604 34.0552 20.4604 32.4329C20.4604 31.2014 19.7177 30.5368 17.763 29.9504Z" fill="currentColor"/>
<path d="M35.5896 31.8465C35.5896 32.8629 35.1987 33.2343 34.1236 33.2343H34.0063C32.9313 33.2343 32.5403 32.8629 32.5403 31.8465V26.8034H30.4684V32.0028C30.4684 34.4071 31.8171 35.0717 33.9086 35.0717H34.2605C36.4888 35.0717 37.7789 34.4462 37.7789 32.0028V26.8034H35.6287V31.8465H35.5896Z" fill="currentColor"/>
<path d="M48.98 23.8519C48.3545 23.8519 47.8659 24.3406 47.8659 24.966C47.8659 25.5915 48.3545 26.0997 48.98 26.0997C49.6055 26.0997 50.0942 25.6111 50.0942 24.966C50.1137 24.3601 49.6055 23.8519 48.98 23.8519Z" fill="currentColor"/>
<path d="M50.0156 27.0379H47.9632V34.8957H50.0156V27.0379Z" fill="currentColor"/>
<path d="M29.2572 30.576V34.8958H26.4034C24.4292 34.8958 23.5691 34.7589 22.5527 34.0748C21.6536 33.4689 21.1649 32.3156 21.1649 30.8301C21.1649 28.7777 22.5136 26.6862 25.5238 26.6862C27.9476 26.6862 29.2572 28.0349 29.2572 30.576ZM27.1853 30.791C27.1853 29.2272 26.5793 28.4454 25.3674 28.4454C24.136 28.4454 23.3346 29.3641 23.3346 30.7323C23.3346 32.3938 24.136 33.117 25.9147 33.117H27.2048V30.791H27.1853Z" fill="currentColor"/>
<path d="M46.6336 23.6955V34.8957H44.0339C42.0597 34.8957 41.1997 34.7589 40.1833 34.0747C39.2841 33.4688 38.7954 32.3155 38.7954 30.83C38.7954 28.328 40.4764 26.7057 42.9198 26.7057H43.1348C43.6821 26.7057 44.1903 26.862 44.6399 27.1552V23.6955H46.6336ZM44.6203 30.83C44.6203 29.149 44.1512 28.4649 42.9784 28.4649C41.747 28.4649 40.9456 29.3835 40.9456 30.7518C40.9456 32.4133 41.7274 33.1365 43.4866 33.1365H44.6008V30.83H44.6203Z" fill="currentColor"/>
</g>
<g id="Vector_2">
<path d="M133.56 16.4045C134.068 16.6586 134.4 17.1669 134.342 17.5969C134.264 18.0269 133.794 18.1637 133.267 17.9096C132.739 17.636 132.407 17.1082 132.485 16.6782C132.602 16.2677 133.052 16.1504 133.56 16.4045Z" fill="currentColor"/>
<path d="M135.085 8.11683C135.496 8.33185 135.789 8.70323 135.769 8.97688C135.73 9.23099 135.359 9.27009 134.929 9.05508C134.499 8.82052 134.206 8.44913 134.245 8.17548C134.303 7.92137 134.655 7.88227 135.085 8.11683Z" fill="currentColor"/>
<path d="M135.221 7.27628C135.573 7.47174 135.808 7.76494 135.788 7.97996C135.749 8.19497 135.456 8.21451 135.084 8.03859C134.732 7.84313 134.478 7.53038 134.517 7.33491C134.576 7.1199 134.869 7.10036 135.221 7.27628Z" fill="currentColor"/>
<path d="M135.358 6.45538C135.671 6.6313 135.906 6.90496 135.886 7.10042C135.847 7.29589 135.573 7.31543 135.241 7.13951C134.909 6.96359 134.674 6.67039 134.713 6.49447C134.752 6.29901 135.026 6.29901 135.358 6.45538Z" fill="currentColor"/>
<path d="M135.476 5.65397C135.769 5.81035 135.984 6.06445 135.964 6.24037C135.945 6.41629 135.671 6.41629 135.378 6.25992C135.065 6.10355 134.87 5.82989 134.889 5.67352C134.928 5.4976 135.182 5.4976 135.476 5.65397Z" fill="currentColor"/>
<path d="M135.594 4.93063C135.867 5.087 136.063 5.32156 136.043 5.45838C136.024 5.61476 135.789 5.61476 135.496 5.45838C135.222 5.30201 135.007 5.06745 135.046 4.91108C135.086 4.77425 135.32 4.77425 135.594 4.93063Z" fill="currentColor"/>
<path d="M135.71 4.26615C135.964 4.40298 136.14 4.61799 136.14 4.75482C136.12 4.89164 135.905 4.89164 135.631 4.75482C135.377 4.61799 135.182 4.40298 135.201 4.26615C135.241 4.10978 135.456 4.12932 135.71 4.26615Z" fill="currentColor"/>
<path d="M135.808 3.62109C136.042 3.75792 136.218 3.91429 136.199 4.07067C136.179 4.20749 135.984 4.18795 135.749 4.05112C135.514 3.91429 135.339 3.73837 135.358 3.60154C135.378 3.46472 135.573 3.48426 135.808 3.62109Z" fill="currentColor"/>
<path d="M135.905 2.95646C136.101 3.07374 136.257 3.21057 136.238 3.32785C136.218 3.44513 136.042 3.42558 135.847 3.3083C135.632 3.19102 135.495 3.05419 135.515 2.91737C135.534 2.81963 135.71 2.83918 135.905 2.95646Z" fill="currentColor"/>
<path d="M136.004 2.3505C136.199 2.44823 136.336 2.58506 136.316 2.70234C136.297 2.80007 136.14 2.78052 135.965 2.68279C135.769 2.56551 135.632 2.44823 135.652 2.33095C135.671 2.21367 135.828 2.25276 136.004 2.3505Z" fill="currentColor"/>
<path d="M136.101 1.74464C136.258 1.84237 136.375 1.9401 136.375 2.03784C136.355 2.13557 136.238 2.09648 136.062 1.99875C135.906 1.90101 135.769 1.78373 135.789 1.70555C135.808 1.62736 135.945 1.6469 136.101 1.74464Z" fill="currentColor"/>
<path d="M136.199 1.1777C136.336 1.25589 136.453 1.35362 136.434 1.43181C136.414 1.51 136.317 1.4709 136.16 1.39271C136.023 1.31453 135.906 1.2168 135.926 1.13861C135.945 1.06042 136.043 1.09951 136.199 1.1777Z" fill="currentColor"/>
<path d="M133.032 19.2975C132.602 19.0825 132.309 18.6329 132.387 18.2616C132.466 17.8902 132.857 17.7924 133.287 17.9879C133.717 18.2029 133.99 18.6525 133.932 19.0239C133.853 19.3757 133.462 19.5125 133.032 19.2975Z" fill="currentColor"/>
<path d="M132.681 21.0762C132.251 20.8612 131.977 20.4116 132.055 20.0207C132.134 19.6493 132.524 19.532 132.935 19.7275C133.345 19.9425 133.619 20.3725 133.56 20.7635C133.502 21.1348 133.13 21.2717 132.681 21.0762Z" fill="currentColor"/>
<path d="M132.328 22.9136C131.918 22.7181 131.644 22.249 131.722 21.8776C131.8 21.5063 132.191 21.3694 132.602 21.5454C133.012 21.7408 133.266 22.1904 133.208 22.5813C133.129 22.9527 132.758 23.1091 132.328 22.9136Z" fill="currentColor"/>
<path d="M131.938 24.9464C131.528 24.751 131.274 24.3014 131.352 23.9105C131.43 23.5195 131.802 23.3827 132.212 23.5586C132.603 23.7541 132.857 24.1841 132.798 24.575C132.701 24.966 132.349 25.1224 131.938 24.9464Z" fill="currentColor"/>
<path d="M131.527 26.9597C131.175 26.7838 130.96 26.3929 131.039 26.0215C131.117 25.6697 131.449 25.5133 131.801 25.6697C132.153 25.826 132.368 26.2365 132.29 26.5884C132.211 26.9597 131.879 27.1161 131.527 26.9597Z" fill="currentColor"/>
<path d="M131.019 29.4227C130.686 29.2663 130.471 28.8558 130.549 28.504C130.628 28.1521 130.96 27.9762 131.292 28.1326C131.624 28.289 131.82 28.6799 131.761 29.0513C131.683 29.3836 131.37 29.5595 131.019 29.4227Z" fill="currentColor"/>
<path d="M130.473 32.0614C130.16 31.9246 129.984 31.5532 130.062 31.2014C130.14 30.8691 130.433 30.6931 130.727 30.83C131.02 30.9668 131.196 31.3187 131.137 31.6705C131.059 32.0223 130.766 32.1982 130.473 32.0614Z" fill="currentColor"/>
<path d="M129.924 34.7198C129.67 34.6025 129.514 34.2898 129.592 33.9575C129.67 33.6448 129.924 33.4884 130.178 33.5861C130.433 33.7034 130.589 34.0161 130.511 34.3289C130.433 34.6416 130.178 34.8176 129.924 34.7198Z" fill="currentColor"/>
<path d="M135.378 17.4015C135.789 17.6165 136.063 18.027 136.024 18.3788C135.965 18.7307 135.613 18.8284 135.203 18.6329C134.792 18.4179 134.518 17.9879 134.558 17.6556C134.616 17.3038 134.968 17.206 135.378 17.4015Z" fill="currentColor"/>
<path d="M137.157 18.1442C137.646 18.3983 137.998 18.9261 137.958 19.3757C137.919 19.8252 137.489 19.9621 136.981 19.708C136.473 19.4343 136.121 18.9065 136.16 18.457C136.238 18.0269 136.668 17.9097 137.157 18.1442Z" fill="currentColor"/>
<path d="M149.549 17.4992C149.354 17.3624 149.217 17.421 149.236 17.5969C149.256 17.7728 149.432 18.027 149.647 18.1638C149.862 18.3006 149.999 18.242 149.96 18.066C149.921 17.8706 149.745 17.6165 149.549 17.4992Z" fill="currentColor"/>
<path d="M148.102 16.5023C147.828 16.3459 147.633 16.385 147.672 16.6196C147.711 16.8542 147.926 17.1669 148.2 17.3428C148.474 17.4992 148.649 17.4601 148.63 17.2255C148.61 16.991 148.376 16.6782 148.102 16.5023Z" fill="currentColor"/>
<path d="M144.077 29.9504C143.725 29.7354 143.471 29.8918 143.451 30.3023C143.451 30.7128 143.725 31.221 144.077 31.4555C144.428 31.6705 144.683 31.5142 144.702 31.0842C144.683 30.6541 144.428 30.1655 144.077 29.9504Z" fill="currentColor"/>
<path d="M142.356 26.5493C141.946 26.3148 141.633 26.4711 141.614 26.9207C141.614 27.3703 141.907 27.8981 142.317 28.1522C142.728 28.3867 143.04 28.2303 143.06 27.7808C143.06 27.3117 142.767 26.7839 142.356 26.5493Z" fill="currentColor"/>
<path d="M140.557 23.5977C140.167 23.3827 139.834 23.5196 139.815 23.9105C139.795 24.321 140.088 24.8096 140.499 25.0246C140.909 25.2397 141.222 25.1028 141.242 24.6924C141.242 24.3014 140.948 23.8323 140.557 23.5977Z" fill="currentColor"/>
<path d="M139.444 11.5375C139.092 11.3421 138.799 11.3811 138.779 11.6353C138.76 11.8894 139.033 12.2412 139.405 12.4367C139.776 12.6321 140.069 12.5735 140.069 12.3194C140.069 12.0653 139.796 11.733 139.444 11.5375Z" fill="currentColor"/>
<path d="M146.813 16.8932C146.54 16.7368 146.325 16.7759 146.344 17.03C146.364 17.2646 146.598 17.5969 146.892 17.7728C147.185 17.9487 147.38 17.8901 147.361 17.636C147.322 17.3818 147.107 17.0496 146.813 16.8932Z" fill="currentColor"/>
<path d="M145.367 16.0136C145.073 15.8377 144.858 15.8964 144.858 16.1505C144.878 16.4046 145.132 16.7369 145.425 16.9128C145.738 17.0887 145.953 17.0301 145.934 16.776C145.914 16.5023 145.66 16.1896 145.367 16.0136Z" fill="currentColor"/>
<path d="M142.453 15.5054C142.102 15.31 141.828 15.3686 141.828 15.6618C141.828 15.955 142.102 16.3264 142.453 16.5219C142.805 16.7173 143.079 16.6391 143.079 16.3459C143.079 16.0723 142.805 15.7009 142.453 15.5054Z" fill="currentColor"/>
<path d="M143.92 15.1341C143.588 14.9581 143.334 14.9972 143.334 15.2709C143.353 15.5445 143.607 15.8964 143.959 16.0919C144.291 16.2873 144.545 16.2091 144.545 15.9355C144.526 15.6618 144.252 15.31 143.92 15.1341Z" fill="currentColor"/>
<path d="M142.395 14.2349C142.024 14.0395 141.731 14.0981 141.731 14.3718C141.731 14.665 142.024 15.0559 142.415 15.2709C142.806 15.4859 143.079 15.4077 143.079 15.1145C143.06 14.8409 142.767 14.45 142.395 14.2349Z" fill="currentColor"/>
<path d="M140.91 14.6063C140.519 14.3913 140.206 14.4695 140.186 14.7627C140.186 15.0754 140.48 15.4859 140.871 15.7009C141.262 15.9159 141.574 15.8377 141.594 15.525C141.594 15.2318 141.301 14.8213 140.91 14.6063Z" fill="currentColor"/>
<path d="M138.838 20.7831C138.427 20.568 138.095 20.7049 138.036 21.0763C138.017 21.4672 138.31 21.9363 138.721 22.1709C139.131 22.3859 139.483 22.2491 139.502 21.8581C139.541 21.4672 139.229 20.9981 138.838 20.7831Z" fill="currentColor"/>
<path d="M138.956 19.1607C138.506 18.9261 138.154 19.0434 138.115 19.4343C138.076 19.8253 138.409 20.3335 138.858 20.5681C139.308 20.8026 139.679 20.6658 139.699 20.2749C139.718 19.8839 139.386 19.3953 138.956 19.1607Z" fill="currentColor"/>
<path d="M139.073 17.636C138.584 17.3819 138.193 17.4992 138.154 17.9097C138.115 18.3201 138.467 18.8479 138.956 19.1216C139.444 19.3757 139.835 19.2388 139.874 18.8284C139.894 18.3983 139.542 17.8901 139.073 17.636Z" fill="currentColor"/>
<path d="M139.17 16.2091C138.701 15.9745 138.33 16.0723 138.291 16.4436C138.271 16.8346 138.603 17.3232 139.072 17.5773C139.542 17.8314 139.933 17.7142 139.952 17.3232C139.972 16.9323 139.62 16.4632 139.17 16.2091Z" fill="currentColor"/>
<path d="M139.228 14.9581C138.817 14.7431 138.485 14.8213 138.466 15.134C138.446 15.4663 138.739 15.8768 139.15 16.1114C139.56 16.3264 139.893 16.2482 139.912 15.9159C139.932 15.6032 139.638 15.1731 139.228 14.9581Z" fill="currentColor"/>
<path d="M139.327 13.7071C138.877 13.4726 138.525 13.5507 138.506 13.883C138.486 14.2153 138.819 14.6649 139.268 14.919C139.718 15.1536 140.07 15.0754 140.089 14.7235C140.089 14.3717 139.757 13.9417 139.327 13.7071Z" fill="currentColor"/>
<path d="M139.385 12.5539C138.955 12.3389 138.603 12.3975 138.584 12.6907C138.564 13.0035 138.897 13.4335 139.327 13.6681C139.757 13.9026 140.109 13.8244 140.128 13.5117C140.128 13.1989 139.815 12.7885 139.385 12.5539Z" fill="currentColor"/>
<path d="M136.61 9.03549C136.317 8.87911 136.062 8.89866 136.023 9.09412C136.004 9.28959 136.219 9.56325 136.512 9.71962C136.825 9.87599 137.059 9.85644 137.098 9.66098C137.118 9.46551 136.903 9.21141 136.61 9.03549Z" fill="currentColor"/>
<path d="M136.668 8.13633C136.394 7.9995 136.16 7.9995 136.14 8.17542C136.121 8.35134 136.316 8.5859 136.59 8.74227C136.863 8.8791 137.098 8.85955 137.117 8.70318C137.137 8.52726 136.942 8.2927 136.668 8.13633Z" fill="currentColor"/>
<path d="M136.727 7.2958C136.492 7.17852 136.297 7.17852 136.258 7.31534C136.238 7.45217 136.414 7.66718 136.649 7.80401C136.883 7.94084 137.079 7.92129 137.098 7.78447C137.118 7.62809 136.961 7.43263 136.727 7.2958Z" fill="currentColor"/>
<path d="M136.746 6.47482C136.531 6.35754 136.355 6.35754 136.336 6.49437C136.316 6.63119 136.472 6.80711 136.687 6.92439C136.902 7.04167 137.078 7.04168 137.098 6.90485C137.117 6.76802 136.961 6.5921 136.746 6.47482Z" fill="currentColor"/>
<path d="M136.805 5.71255C136.61 5.61482 136.454 5.59527 136.414 5.71255C136.395 5.84938 136.551 6.00575 136.747 6.10349C136.942 6.20122 137.118 6.22077 137.118 6.10349C137.138 5.98621 137.001 5.82983 136.805 5.71255Z" fill="currentColor"/>
<path d="M136.824 4.95022C136.648 4.85248 136.511 4.83294 136.492 4.95022C136.492 5.0675 136.609 5.20432 136.785 5.30205C136.961 5.39979 137.117 5.41933 137.117 5.30205C137.137 5.18477 137 5.04795 136.824 4.95022Z" fill="currentColor"/>
<path d="M136.864 4.26608C136.707 4.16834 136.57 4.1488 136.551 4.24653C136.551 4.34426 136.668 4.46154 136.825 4.55928C137 4.65701 137.118 4.67656 137.137 4.55928C137.137 4.48109 137.02 4.36381 136.864 4.26608Z" fill="currentColor"/>
<path d="M136.903 3.58199C136.766 3.5038 136.649 3.48426 136.629 3.56244C136.629 3.64063 136.727 3.75791 136.884 3.83609C137.02 3.91428 137.138 3.93383 137.157 3.85564C137.138 3.75791 137.04 3.66018 136.903 3.58199Z" fill="currentColor"/>
<path d="M134.987 20.0599C135.3 20.2162 135.573 20.1185 135.632 19.8448C135.671 19.5712 135.456 19.2389 135.143 19.0825C134.831 18.9262 134.557 19.0239 134.498 19.2975C134.459 19.5516 134.674 19.9035 134.987 20.0599Z" fill="currentColor"/>
<path d="M134.714 21.8386C135.026 21.9755 135.28 21.8777 135.32 21.6041C135.359 21.3304 135.144 20.9981 134.85 20.8417C134.557 20.7049 134.284 20.7831 134.244 21.0568C134.205 21.35 134.42 21.6822 134.714 21.8386Z" fill="currentColor"/>
<path d="M134.303 23.6564C134.616 23.7932 134.87 23.6955 134.909 23.4023C134.949 23.1091 134.753 22.7963 134.46 22.64C134.167 22.5031 133.893 22.6009 133.854 22.8745C133.795 23.1677 133.991 23.5196 134.303 23.6564Z" fill="currentColor"/>
<path d="M133.912 25.6502C134.186 25.787 134.44 25.6698 134.498 25.3961C134.537 25.1224 134.361 24.8097 134.088 24.6729C133.814 24.536 133.56 24.6533 133.501 24.927C133.443 25.1811 133.619 25.5134 133.912 25.6502Z" fill="currentColor"/>
<path d="M133.443 27.6244C133.697 27.7417 133.952 27.6244 133.991 27.3507C134.03 27.0771 133.873 26.7839 133.6 26.6471C133.346 26.5298 133.111 26.6471 133.052 26.9207C133.013 27.1944 133.17 27.4876 133.443 27.6244Z" fill="currentColor"/>
<path d="M132.895 29.9895C133.15 30.1068 133.365 29.97 133.404 29.7159C133.443 29.4422 133.286 29.149 133.052 29.0317C132.798 28.9145 132.583 29.0317 132.544 29.3054C132.485 29.579 132.641 29.8722 132.895 29.9895Z" fill="currentColor"/>
<path d="M140.89 13.4335C140.519 13.238 140.245 13.2966 140.226 13.5703C140.226 13.844 140.5 14.2153 140.871 14.4108C141.242 14.6063 141.516 14.5476 141.536 14.274C141.516 14.0003 141.242 13.6289 140.89 13.4335Z" fill="currentColor"/>
<path d="M140.812 15.916C140.479 15.74 140.225 15.7987 140.206 16.0723C140.206 16.346 140.44 16.6783 140.773 16.8737C141.105 17.0497 141.359 16.9715 141.379 16.7174C141.379 16.4437 141.124 16.0919 140.812 15.916Z" fill="currentColor"/>
<path d="M140.772 17.206C140.401 17.0106 140.108 17.0888 140.088 17.4015C140.088 17.7143 140.362 18.1247 140.733 18.3398C141.105 18.5352 141.398 18.457 141.417 18.1247C141.417 17.7924 141.144 17.4015 140.772 17.206Z" fill="currentColor"/>
<path d="M140.597 21.7995C140.226 21.604 139.933 21.7213 139.913 22.0536C139.893 22.4054 140.167 22.8355 140.538 23.0505C140.91 23.2459 141.203 23.1287 141.223 22.7768C141.223 22.425 140.949 21.9949 140.597 21.7995Z" fill="currentColor"/>
<path d="M146.696 15.6227C146.383 15.4468 146.168 15.5054 146.187 15.74C146.207 15.9941 146.48 16.3264 146.774 16.5219C147.086 16.6978 147.301 16.6392 147.282 16.385C147.262 16.1505 147.008 15.7986 146.696 15.6227Z" fill="currentColor"/>
<path d="M142.239 28.758C141.907 28.5626 141.633 28.6994 141.614 29.0903C141.614 29.4812 141.868 29.9308 142.2 30.1458C142.532 30.3413 142.806 30.1849 142.825 29.794C142.825 29.4031 142.571 28.9535 142.239 28.758Z" fill="currentColor"/>
<path d="M144.096 32.2374C143.783 32.0419 143.529 32.1787 143.51 32.5892C143.51 32.9997 143.764 33.4688 144.077 33.6838C144.409 33.8988 144.644 33.7425 144.644 33.3124C144.663 32.9215 144.409 32.4524 144.096 32.2374Z" fill="currentColor"/>
<path d="M140.401 25.5133C140.03 25.3179 139.736 25.4547 139.697 25.8456C139.678 26.2366 139.951 26.7057 140.323 26.9207C140.694 27.1162 141.007 26.9793 141.026 26.5689C141.046 26.1779 140.772 25.7284 140.401 25.5133Z" fill="currentColor"/>
<path d="M138.681 22.6595C138.31 22.464 138.016 22.6008 137.977 22.9527C137.958 23.3045 138.212 23.7346 138.583 23.9496C138.955 24.145 139.267 24.0082 139.287 23.6564C139.307 23.285 139.052 22.8549 138.681 22.6595Z" fill="currentColor"/>
<path d="M137.02 19.8644C136.61 19.6689 136.277 19.7862 136.219 20.138C136.18 20.5094 136.453 20.9395 136.864 21.1545C137.274 21.3499 137.607 21.2327 137.665 20.8613C137.685 20.5094 137.411 20.0794 137.02 19.8644Z" fill="currentColor"/>
<path d="M140.655 20.2358C140.323 20.0599 140.049 20.1576 140.03 20.4508C140.01 20.7635 140.264 21.1545 140.616 21.3499C140.968 21.5454 141.222 21.4281 141.242 21.1154C141.242 20.8026 140.987 20.4312 140.655 20.2358Z" fill="currentColor"/>
<path d="M139.502 10.5601C139.19 10.3842 138.935 10.4233 138.916 10.6383C138.916 10.8533 139.15 11.1661 139.463 11.342C139.776 11.5179 140.03 11.4788 140.05 11.2638C140.05 11.0292 139.815 10.7165 139.502 10.5601Z" fill="currentColor"/>
<path d="M145.289 14.88C145.034 14.7432 144.858 14.7823 144.858 14.9777C144.878 15.1732 145.073 15.4468 145.328 15.6032C145.582 15.74 145.758 15.701 145.758 15.5055C145.738 15.2905 145.543 15.0364 145.289 14.88Z" fill="currentColor"/>
<path d="M142.473 18.2616C142.18 18.1052 141.965 18.1638 141.965 18.4179C141.965 18.672 142.18 18.9848 142.473 19.1607C142.766 19.3171 142.981 19.2389 142.981 18.9848C142.962 18.7307 142.747 18.4179 142.473 18.2616Z" fill="currentColor"/>
<path d="M142.336 24.6532C141.984 24.4578 141.711 24.5751 141.691 24.9464C141.691 25.3178 141.945 25.7674 142.317 25.9824C142.669 26.1779 142.942 26.0606 142.962 25.6697C142.942 25.3178 142.688 24.8683 142.336 24.6532Z" fill="currentColor"/>
<path d="M140.714 18.7502C140.382 18.5743 140.128 18.6524 140.108 18.9456C140.108 19.2388 140.343 19.6102 140.675 19.7862C141.008 19.9621 141.262 19.8839 141.281 19.5711C141.301 19.2975 141.047 18.9261 140.714 18.7502Z" fill="currentColor"/>
<path d="M144.115 20.6462C143.803 20.4703 143.548 20.5485 143.548 20.8612C143.548 21.174 143.803 21.5454 144.135 21.7408C144.467 21.9363 144.702 21.8386 144.702 21.5258C144.682 21.2326 144.428 20.8417 144.115 20.6462Z" fill="currentColor"/>
<path d="M145.483 36.1467C145.229 35.9708 145.033 36.0881 145.033 36.4595C145.033 36.8309 145.248 37.2609 145.503 37.4564C145.757 37.6518 145.952 37.515 145.952 37.1436C145.952 36.7722 145.737 36.3422 145.483 36.1467Z" fill="currentColor"/>
<path d="M143.978 16.4046C143.685 16.2482 143.469 16.3068 143.469 16.5414C143.469 16.7955 143.724 17.1278 144.017 17.2842C144.31 17.4601 144.545 17.3819 144.525 17.1278C144.505 16.9128 144.271 16.5805 143.978 16.4046Z" fill="currentColor"/>
<path d="M137.997 9.79778C137.704 9.64141 137.47 9.6805 137.45 9.85642C137.431 10.0519 137.646 10.3255 137.939 10.4819C138.232 10.6383 138.466 10.5992 138.486 10.4037C138.506 10.2083 138.291 9.95416 137.997 9.79778Z" fill="currentColor"/>
<path d="M140.929 10.4038C140.655 10.2669 140.44 10.2865 140.44 10.4624C140.44 10.6579 140.655 10.912 140.929 11.0683C141.203 11.2247 141.418 11.1856 141.437 11.0097C141.418 10.8142 141.203 10.5601 140.929 10.4038Z" fill="currentColor"/>
<path d="M143.881 14.0981C143.646 13.9808 143.49 14.0003 143.49 14.1763C143.49 14.3522 143.685 14.5867 143.9 14.7236C144.135 14.8604 144.311 14.8213 144.291 14.6258C144.291 14.4695 144.115 14.2349 143.881 14.0981Z" fill="currentColor"/>
<path d="M142.396 19.7275C142.103 19.5712 141.888 19.6494 141.868 19.9035C141.868 20.1771 142.103 20.5094 142.396 20.6853C142.689 20.8417 142.924 20.7635 142.924 20.4899C142.924 20.2358 142.689 19.8839 142.396 19.7275Z" fill="currentColor"/>
<path d="M144.018 19.1802C143.764 19.0434 143.568 19.102 143.568 19.3366C143.568 19.5712 143.783 19.8644 144.037 20.0207C144.291 20.1576 144.487 20.0989 144.487 19.8644C144.467 19.6298 144.272 19.3366 144.018 19.1802Z" fill="currentColor"/>
<path d="M145.679 21.6431C145.406 21.4672 145.191 21.5454 145.191 21.8386C145.21 22.1122 145.445 22.4836 145.719 22.6595C146.012 22.8355 146.207 22.7377 146.207 22.4641C146.188 22.1709 145.953 21.819 145.679 21.6431Z" fill="currentColor"/>
<path d="M148.2 17.8314C147.985 17.6946 147.849 17.7532 147.849 17.9292C147.868 18.1246 148.064 18.3787 148.259 18.5156C148.474 18.6524 148.611 18.5937 148.611 18.3983C148.591 18.2028 148.415 17.9682 148.2 17.8314Z" fill="currentColor"/>
<path d="M140.93 9.54371C140.695 9.40689 140.5 9.42643 140.5 9.5828C140.5 9.73918 140.695 9.97374 140.93 10.1106C141.184 10.2474 141.36 10.2278 141.36 10.0715C141.36 9.89555 141.164 9.68054 140.93 9.54371Z" fill="currentColor"/>
<path d="M140.909 11.4006C140.655 11.2638 140.46 11.2833 140.44 11.4788C140.44 11.6547 140.636 11.9088 140.89 12.0457C141.144 12.1825 141.339 12.1434 141.339 11.9675C141.359 11.772 141.164 11.5374 140.909 11.4006Z" fill="currentColor"/>
<path d="M145.757 33.762C145.464 33.5666 145.249 33.7034 145.249 34.0943C145.249 34.4853 145.503 34.9544 145.796 35.1694C146.09 35.3844 146.305 35.228 146.305 34.8371C146.285 34.4462 146.051 33.9771 145.757 33.762Z" fill="currentColor"/>
<path d="M139.541 9.6805C139.287 9.54368 139.091 9.56323 139.072 9.7196C139.072 9.87597 139.248 10.1105 139.502 10.2669C139.756 10.4037 139.952 10.3842 139.971 10.2083C139.971 10.0519 139.776 9.81733 139.541 9.6805Z" fill="currentColor"/>
<path d="M142.395 16.8932C142.141 16.7564 141.945 16.815 141.945 17.0105C141.945 17.2255 142.141 17.4992 142.395 17.636C142.649 17.7728 142.845 17.7142 142.845 17.4992C142.845 17.3037 142.649 17.0301 142.395 16.8932Z" fill="currentColor"/>
<path d="M142.376 13.3162C142.161 13.1989 142.004 13.238 142.004 13.3944C142.004 13.5508 142.18 13.7658 142.376 13.883C142.591 14.0003 142.747 13.9612 142.747 13.8049C142.747 13.6485 142.591 13.4335 142.376 13.3162Z" fill="currentColor"/>
<path d="M142.356 22.9722C142.102 22.8354 141.907 22.9136 141.907 23.1677C141.907 23.4218 142.102 23.715 142.356 23.8714C142.611 24.0082 142.806 23.93 142.806 23.6759C142.806 23.4218 142.611 23.1286 142.356 22.9722Z" fill="currentColor"/>
<path d="M144.134 27.859C143.841 27.6831 143.626 27.8003 143.626 28.1326C143.626 28.4649 143.861 28.8559 144.134 29.0513C144.427 29.2272 144.642 29.11 144.642 28.7777C144.623 28.4258 144.408 28.0349 144.134 27.859Z" fill="currentColor"/>
<path d="M140.891 12.5344C140.695 12.4366 140.558 12.4562 140.558 12.593C140.558 12.7298 140.695 12.9253 140.891 13.023C141.086 13.1208 141.223 13.1012 141.242 12.9644C141.242 12.8276 141.086 12.6321 140.891 12.5344Z" fill="currentColor"/>
<path d="M143.979 34.583C143.744 34.4462 143.568 34.5439 143.568 34.8566C143.568 35.1694 143.744 35.5212 143.979 35.6776C144.213 35.8144 144.389 35.6972 144.389 35.4039C144.37 35.0912 144.213 34.7394 143.979 34.583Z" fill="currentColor"/>
<path d="M145.444 17.3624C145.209 17.2255 145.033 17.2842 145.033 17.4796C145.053 17.6946 145.248 17.9488 145.483 18.1051C145.718 18.242 145.893 18.1833 145.893 17.9878C145.874 17.7728 145.678 17.4992 145.444 17.3624Z" fill="currentColor"/>
<path d="M142.356 10.3452C142.141 10.2279 141.965 10.2474 141.965 10.3843C141.965 10.5211 142.141 10.7361 142.356 10.8534C142.571 10.9706 142.747 10.9511 142.727 10.8143C142.747 10.6775 142.571 10.4624 142.356 10.3452Z" fill="currentColor"/>
<path d="M150.957 18.457C150.781 18.3397 150.663 18.3788 150.703 18.5352C150.722 18.6916 150.878 18.9066 151.054 19.0434C151.23 19.1607 151.348 19.1216 151.308 18.9652C151.289 18.7893 151.133 18.5743 150.957 18.457Z" fill="currentColor"/>
<path d="M147.263 22.6986C147.009 22.5423 146.833 22.6204 146.852 22.8745C146.872 23.1287 147.087 23.4609 147.321 23.6369C147.575 23.7932 147.751 23.7151 147.732 23.4609C147.732 23.1873 147.517 22.855 147.263 22.6986Z" fill="currentColor"/>
<path d="M146.5 38.6877C146.285 38.5118 146.129 38.6291 146.148 38.9809C146.148 39.3132 146.324 39.7237 146.539 39.9192C146.754 40.0951 146.891 39.9778 146.891 39.626C146.871 39.2741 146.715 38.8637 146.5 38.6877Z" fill="currentColor"/>
<path d="M142.16 31.0842C141.906 30.9473 141.711 31.0646 141.691 31.3578C141.691 31.6706 141.867 32.0224 142.121 32.1788C142.375 32.3352 142.571 32.1983 142.59 31.9051C142.59 31.5924 142.414 31.2405 142.16 31.0842Z" fill="currentColor"/>
<path d="M145.62 20.2357C145.444 20.138 145.307 20.1771 145.307 20.353C145.307 20.5289 145.463 20.7439 145.639 20.8612C145.815 20.9785 145.952 20.9198 145.952 20.7439C145.932 20.568 145.796 20.3334 145.62 20.2357Z" fill="currentColor"/>
<path d="M142.278 9.46558C142.102 9.36785 141.945 9.36785 141.945 9.48513C141.945 9.62195 142.102 9.77833 142.278 9.87606C142.473 9.97379 142.61 9.9738 142.61 9.83697C142.61 9.71969 142.473 9.56331 142.278 9.46558Z" fill="currentColor"/>
<path d="M143.607 10.2474C143.451 10.1692 143.353 10.1692 143.353 10.2669C143.353 10.3842 143.49 10.5015 143.646 10.5992C143.802 10.6774 143.9 10.6774 143.9 10.5797C143.881 10.4819 143.763 10.3451 143.607 10.2474Z" fill="currentColor"/>
<path d="M140.303 27.8981C140.069 27.7808 139.893 27.8785 139.873 28.1131C139.854 28.3672 140.03 28.6604 140.245 28.7777C140.479 28.8949 140.655 28.7972 140.675 28.5431C140.694 28.3086 140.538 28.0154 140.303 27.8981Z" fill="currentColor"/>
<path d="M138.467 24.7901C138.252 24.6728 138.057 24.751 138.037 24.9856C138.018 25.2201 138.174 25.4742 138.408 25.5915C138.643 25.7088 138.819 25.6111 138.839 25.396C138.839 25.181 138.682 24.9074 138.467 24.7901Z" fill="currentColor"/>
<path d="M136.746 21.9167C136.531 21.7994 136.335 21.8776 136.316 22.0731C136.296 22.2881 136.453 22.5226 136.668 22.6399C136.883 22.7572 137.078 22.679 137.098 22.464C137.117 22.2881 136.961 22.034 136.746 21.9167Z" fill="currentColor"/>
<path d="M143.529 9.42645C143.372 9.32872 143.255 9.32872 143.255 9.446C143.255 9.56328 143.392 9.7001 143.568 9.79784C143.724 9.89557 143.841 9.89557 143.841 9.77829C143.802 9.64146 143.685 9.50464 143.529 9.42645Z" fill="currentColor"/>
<path d="M144.565 9.44592C144.428 9.36773 144.331 9.36773 144.331 9.46546C144.35 9.56319 144.448 9.68047 144.585 9.75866C144.722 9.83685 144.819 9.83685 144.819 9.73912C144.819 9.64139 144.702 9.52411 144.565 9.44592Z" fill="currentColor"/>
<path d="M148.846 23.891C148.689 23.7932 148.572 23.8323 148.592 24.0083C148.611 24.1842 148.748 24.3992 148.904 24.5165C149.061 24.6142 149.178 24.5751 149.159 24.3992C149.139 24.2233 149.002 24.0083 148.846 23.891Z" fill="currentColor"/>
<path d="M147.399 24.3014C147.204 24.1646 147.067 24.2428 147.067 24.4578C147.086 24.6728 147.243 24.9464 147.458 25.0833C147.653 25.2201 147.79 25.1419 147.79 24.9269C147.751 24.6923 147.595 24.4382 147.399 24.3014Z" fill="currentColor"/>
<path d="M145.757 23.285C145.581 23.1677 145.444 23.2263 145.444 23.4218C145.444 23.6173 145.601 23.8518 145.796 23.9887C145.992 24.1059 146.128 24.0473 146.109 23.8518C146.089 23.6368 145.952 23.4023 145.757 23.285Z" fill="currentColor"/>
<path d="M144.096 22.2882C143.92 22.1904 143.783 22.2295 143.783 22.4054C143.783 22.5814 143.92 22.7964 144.096 22.8941C144.272 22.9918 144.409 22.9332 144.409 22.7768C144.409 22.6205 144.272 22.4054 144.096 22.2882Z" fill="currentColor"/>
<path d="M142.395 21.3108C142.219 21.2131 142.082 21.2717 142.082 21.4281C142.082 21.604 142.219 21.7995 142.395 21.9167C142.57 22.0145 142.707 21.9558 142.707 21.7995C142.707 21.6235 142.57 21.4085 142.395 21.3108Z" fill="currentColor"/>
<path d="M148.923 25.4156C148.767 25.2983 148.649 25.3569 148.669 25.5524C148.688 25.7283 148.825 25.9824 148.982 26.0802C149.138 26.1974 149.255 26.1388 149.236 25.9433C149.216 25.7674 149.079 25.5329 148.923 25.4156Z" fill="currentColor"/>
<path d="M150.545 26.6275C150.409 26.5298 150.311 26.5689 150.311 26.7448C150.33 26.9207 150.448 27.1357 150.585 27.253C150.721 27.3703 150.819 27.3116 150.8 27.1357C150.8 26.9598 150.682 26.7448 150.545 26.6275Z" fill="currentColor"/>
<path d="M142.336 11.2833C142.16 11.1856 142.024 11.1856 142.024 11.3224C142.024 11.4592 142.18 11.6156 142.356 11.7134C142.532 11.8111 142.669 11.8111 142.669 11.6743C142.649 11.557 142.512 11.4006 142.336 11.2833Z" fill="currentColor"/>
<path d="M131.683 15.5641C131.273 15.3687 130.882 15.4664 130.784 15.7987C130.706 16.131 130.98 16.561 131.39 16.7565C131.82 16.9519 132.211 16.8542 132.289 16.5024C132.368 16.1701 132.094 15.7596 131.683 15.5641Z" fill="currentColor"/>
<path d="M129.866 14.5476C129.338 14.3131 128.83 14.4108 128.713 14.8213C128.595 15.2318 128.928 15.7595 129.475 16.0136C130.022 16.2677 130.531 16.1309 130.628 15.7204C130.726 15.2904 130.394 14.8017 129.866 14.5476Z" fill="currentColor"/>
<path d="M117.688 1.68594C117.982 1.78368 118.119 1.9596 118.021 2.09642C117.923 2.23325 117.61 2.2528 117.317 2.17461C117.024 2.07688 116.887 1.90096 116.985 1.76413C117.102 1.6273 117.415 1.58821 117.688 1.68594Z" fill="currentColor"/>
<path d="M119.702 2.31139C120.034 2.44822 120.21 2.66323 120.113 2.83915C119.995 2.99552 119.643 3.03461 119.292 2.91733C118.94 2.78051 118.764 2.5655 118.881 2.38958C118.998 2.21366 119.37 2.19411 119.702 2.31139Z" fill="currentColor"/>
<path d="M118.939 18.2028C119.251 18.3397 119.408 18.6133 119.291 18.887C119.173 19.1411 118.821 19.2584 118.489 19.1411C118.157 19.0042 118 18.711 118.137 18.4569C118.274 18.1833 118.626 18.0856 118.939 18.2028Z" fill="currentColor"/>
<path d="M121.812 16.7564C122.242 16.9323 122.477 17.3428 122.34 17.6946C122.184 18.0465 121.734 18.1833 121.284 18.0074C120.835 17.8119 120.62 17.4014 120.757 17.0496C120.913 16.7173 121.382 16.5805 121.812 16.7564Z" fill="currentColor"/>
<path d="M124.706 15.9159C125.155 16.1113 125.409 16.5414 125.292 16.9128C125.155 17.2841 124.686 17.4014 124.217 17.206C123.748 16.9909 123.494 16.5609 123.631 16.1895C123.787 15.8572 124.237 15.74 124.706 15.9159Z" fill="currentColor"/>
<path d="M130.101 6.70948C130.492 6.90495 130.727 7.21769 130.668 7.45225C130.59 7.68681 130.238 7.72591 129.828 7.53044C129.437 7.33497 129.182 7.00268 129.261 6.76812C129.339 6.55311 129.71 6.53356 130.101 6.70948Z" fill="currentColor"/>
<path d="M120.973 3.9533C121.344 4.09013 121.52 4.34424 121.422 4.5397C121.305 4.73517 120.934 4.77426 120.562 4.63744C120.191 4.50061 119.995 4.2465 120.113 4.05104C120.23 3.85557 120.601 3.81648 120.973 3.9533Z" fill="currentColor"/>
<path d="M122.829 4.65708C123.2 4.81345 123.395 5.0871 123.298 5.28257C123.18 5.47804 122.809 5.51713 122.438 5.3803C122.066 5.22393 121.851 4.95028 121.968 4.75481C122.066 4.5398 122.457 4.50071 122.829 4.65708Z" fill="currentColor"/>
<path d="M125.918 7.15905C126.328 7.33497 126.563 7.66726 126.465 7.92137C126.348 8.15593 125.957 8.21457 125.546 8.03865C125.136 7.84318 124.901 7.53044 124.999 7.27633C125.097 7.02222 125.507 6.98313 125.918 7.15905Z" fill="currentColor"/>
<path d="M124.627 5.36066C125.018 5.53658 125.252 5.82978 125.155 6.06434C125.037 6.27936 124.646 6.338 124.236 6.16208C123.825 5.98616 123.591 5.67342 123.708 5.43886C123.825 5.22384 124.216 5.18474 124.627 5.36066Z" fill="currentColor"/>
<path d="M126.407 6.12308C126.817 6.31854 127.071 6.65084 126.974 6.90494C126.876 7.15905 126.465 7.19814 126.035 7.00268C125.605 6.80721 125.351 6.47492 125.469 6.22081C125.586 5.98625 125.996 5.94716 126.407 6.12308Z" fill="currentColor"/>
<path d="M127.676 7.92135C128.106 8.13636 128.38 8.48821 128.282 8.76186C128.184 9.03551 127.754 9.09415 127.305 8.89868C126.855 8.68367 126.601 8.31229 126.699 8.03863C126.816 7.76498 127.246 7.72588 127.676 7.92135Z" fill="currentColor"/>
<path d="M127.384 15.1927C127.833 15.4078 128.087 15.8182 127.99 16.1896C127.872 16.5415 127.442 16.6587 126.973 16.4633C126.504 16.2483 126.25 15.8182 126.367 15.4468C126.484 15.1146 126.915 14.9973 127.384 15.1927Z" fill="currentColor"/>
<path d="M127.833 13.7072C128.322 13.9418 128.596 14.3913 128.498 14.7432C128.381 15.1146 127.912 15.2318 127.403 14.9973C126.895 14.7627 126.622 14.3131 126.739 13.9418C126.876 13.5899 127.345 13.4922 127.833 13.7072Z" fill="currentColor"/>
<path d="M128.263 12.2998C128.791 12.5539 129.104 13.0231 128.987 13.3944C128.869 13.7658 128.361 13.8831 127.833 13.6486C127.286 13.3945 126.973 12.9058 127.11 12.5344C127.227 12.163 127.736 12.0653 128.263 12.2998Z" fill="currentColor"/>
<path d="M128.674 10.9902C129.182 11.2247 129.475 11.6743 129.377 12.0261C129.26 12.378 128.791 12.4757 128.263 12.2412C127.735 11.9871 127.442 11.5375 127.54 11.1856C127.677 10.8338 128.165 10.7556 128.674 10.9902Z" fill="currentColor"/>
<path d="M129.026 9.83695C129.475 10.052 129.729 10.4429 129.651 10.7361C129.554 11.0293 129.143 11.1075 128.694 10.8925C128.244 10.6775 127.97 10.2865 128.068 9.97378C128.166 9.70012 128.596 9.64149 129.026 9.83695Z" fill="currentColor"/>
<path d="M129.455 8.70322C129.924 8.93778 130.217 9.34826 130.139 9.66101C130.041 9.97375 129.591 10.0324 129.103 9.79783C128.614 9.56327 128.321 9.13325 128.419 8.84005C128.516 8.5273 128.966 8.46866 129.455 8.70322Z" fill="currentColor"/>
<path d="M129.807 7.64769C130.276 7.88225 130.55 8.27319 130.472 8.56639C130.374 8.85958 129.944 8.89867 129.475 8.68366C129.006 8.4491 128.713 8.05817 128.791 7.76497C128.908 7.47177 129.338 7.43268 129.807 7.64769Z" fill="currentColor"/>
<path d="M133.482 7.41318C133.795 7.56955 133.99 7.8432 133.971 8.01912C133.931 8.21459 133.658 8.23414 133.345 8.07777C133.032 7.9214 132.817 7.64774 132.856 7.45227C132.895 7.27635 133.169 7.2568 133.482 7.41318Z" fill="currentColor"/>
<path d="M133.716 6.55312C133.99 6.70949 134.185 6.94406 134.166 7.10043C134.127 7.2568 133.872 7.27635 133.599 7.13952C133.306 6.98315 133.13 6.74859 133.149 6.57267C133.188 6.43584 133.442 6.41629 133.716 6.55312Z" fill="currentColor"/>
<path d="M133.971 5.77112C134.205 5.90795 134.381 6.10342 134.362 6.24024C134.323 6.37707 134.127 6.37707 133.873 6.25979C133.619 6.12296 133.463 5.9275 133.482 5.79067C133.521 5.65385 133.717 5.65384 133.971 5.77112Z" fill="currentColor"/>
<path d="M134.186 5.00888C134.401 5.12616 134.557 5.30208 134.537 5.41936C134.498 5.55619 134.322 5.53664 134.088 5.41936C133.873 5.30208 133.716 5.12616 133.736 4.98933C133.775 4.8916 133.971 4.8916 134.186 5.00888Z" fill="currentColor"/>
<path d="M134.381 4.32478C134.577 4.44206 134.733 4.57889 134.714 4.71572C134.694 4.833 134.518 4.81345 134.303 4.71572C134.088 4.59844 133.951 4.44206 133.971 4.32478C134.01 4.2075 134.186 4.22705 134.381 4.32478Z" fill="currentColor"/>
<path d="M134.576 3.67973C134.752 3.77746 134.889 3.91428 134.87 4.01202C134.85 4.10975 134.694 4.0902 134.518 4.01202C134.342 3.91428 134.205 3.77746 134.225 3.67973C134.244 3.56245 134.401 3.582 134.576 3.67973Z" fill="currentColor"/>
<path d="M134.753 3.13238C134.929 3.23012 135.046 3.3474 135.026 3.44513C135.007 3.54286 134.87 3.52332 134.694 3.42558C134.518 3.32785 134.401 3.21057 134.42 3.11284C134.44 3.0151 134.577 3.03465 134.753 3.13238Z" fill="currentColor"/>
<path d="M134.929 2.56558C135.085 2.64376 135.183 2.76104 135.163 2.83923C135.144 2.91742 135.027 2.89787 134.87 2.81968C134.714 2.7415 134.616 2.62422 134.636 2.54603C134.655 2.46784 134.772 2.48739 134.929 2.56558Z" fill="currentColor"/>
<path d="M131.078 18.1443C130.746 17.9879 130.55 17.6556 130.609 17.382C130.687 17.1279 130.98 17.0301 131.313 17.1865C131.625 17.3429 131.84 17.6752 131.782 17.9293C131.704 18.2029 131.41 18.3007 131.078 18.1443Z" fill="currentColor"/>
<path d="M130.726 19.8643C130.413 19.7079 130.218 19.3952 130.276 19.1216C130.354 18.8674 130.628 18.7697 130.941 18.9065C131.254 19.0629 131.449 19.3757 131.39 19.6493C131.312 19.923 131.039 20.0207 130.726 19.8643Z" fill="currentColor"/>
<path d="M130.375 21.7018C130.062 21.565 129.886 21.2327 129.945 20.9395C130.023 20.6658 130.297 20.5681 130.609 20.7049C130.922 20.8417 131.098 21.174 131.039 21.4477C130.981 21.7409 130.688 21.8386 130.375 21.7018Z" fill="currentColor"/>
<path d="M130.081 23.6954C129.788 23.5586 129.612 23.2459 129.671 22.9722C129.749 22.6986 130.023 22.6008 130.316 22.7181C130.609 22.8549 130.765 23.1677 130.707 23.4413C130.648 23.715 130.374 23.8323 130.081 23.6954Z" fill="currentColor"/>
<path d="M129.67 25.8651C129.396 25.7479 129.24 25.4351 129.299 25.1615C129.377 24.8878 129.631 24.7901 129.905 24.9073C130.178 25.0246 130.335 25.3374 130.276 25.5915C130.217 25.8456 129.944 25.9824 129.67 25.8651Z" fill="currentColor"/>
<path d="M129.26 28.3084C129.005 28.1911 128.869 27.8979 128.927 27.6243C129.005 27.3702 129.24 27.2529 129.494 27.3506C129.748 27.4679 129.885 27.7416 129.826 28.0152C129.748 28.3084 129.514 28.4257 129.26 28.3084Z" fill="currentColor"/>
<path d="M128.127 6.92447C128.537 7.11994 128.772 7.45223 128.694 7.68679C128.596 7.92135 128.224 7.97999 127.814 7.78453C127.403 7.58906 127.149 7.25677 127.247 7.00266C127.345 6.78765 127.716 6.74855 128.127 6.92447Z" fill="currentColor"/>
<path d="M127.227 9.09411C127.598 9.27003 127.813 9.58278 127.735 9.81734C127.637 10.0519 127.286 10.1105 126.914 9.93462C126.543 9.7587 126.328 9.44596 126.406 9.2114C126.504 8.97684 126.856 8.93774 127.227 9.09411Z" fill="currentColor"/>
<path d="M126.797 10.2279C127.207 10.4234 127.461 10.7752 127.363 11.0684C127.266 11.3421 126.855 11.4202 126.425 11.2443C125.995 11.0489 125.761 10.6775 125.858 10.4038C125.976 10.1106 126.386 10.052 126.797 10.2279Z" fill="currentColor"/>
<path d="M125.272 14.3326C125.683 14.5281 125.917 14.8995 125.819 15.2122C125.702 15.525 125.292 15.6227 124.862 15.4468C124.432 15.2513 124.197 14.8799 124.314 14.5476C124.432 14.2544 124.842 14.1567 125.272 14.3326Z" fill="currentColor"/>
<path d="M121.559 2.95648C121.95 3.11285 122.145 3.38651 122.028 3.58198C121.911 3.77744 121.5 3.81653 121.109 3.66016C120.718 3.50379 120.503 3.23013 120.64 3.01512C120.777 2.8392 121.168 2.80011 121.559 2.95648Z" fill="currentColor"/>
<path d="M121.05 18.6915C121.46 18.8675 121.656 19.2584 121.538 19.5907C121.382 19.9425 120.952 20.0794 120.542 19.923C120.131 19.7471 119.916 19.3561 120.072 19.0043C120.209 18.672 120.639 18.5352 121.05 18.6915Z" fill="currentColor"/>
<path d="M118.177 19.8448C118.588 20.0012 118.783 20.3921 118.627 20.7439C118.451 21.0958 118.001 21.2522 117.591 21.0958C117.161 20.9394 116.985 20.5289 117.141 20.1771C117.317 19.8448 117.767 19.6884 118.177 19.8448Z" fill="currentColor"/>
<path d="M124.041 17.7142C124.471 17.9096 124.705 18.3006 124.569 18.672C124.432 19.0238 124.002 19.1606 123.572 18.9847C123.142 18.7892 122.907 18.3788 123.044 18.0074C123.181 17.6751 123.611 17.5383 124.041 17.7142Z" fill="currentColor"/>
<path d="M126.817 16.9323C127.208 17.1083 127.443 17.4992 127.365 17.8315C127.247 18.1638 126.857 18.2811 126.446 18.1051C126.036 17.9097 125.801 17.5187 125.899 17.1864C126.016 16.8541 126.407 16.7564 126.817 16.9323Z" fill="currentColor"/>
<path d="M129.377 16.1505C129.807 16.346 130.061 16.776 129.983 17.1083C129.885 17.4601 129.475 17.5774 129.045 17.3819C128.615 17.1669 128.361 16.7565 128.439 16.4046C128.556 16.0528 128.947 15.955 129.377 16.1505Z" fill="currentColor"/>
<path d="M125.781 12.8862C126.171 13.0622 126.386 13.414 126.289 13.6876C126.171 13.9613 125.8 14.059 125.409 13.8831C125.018 13.7072 124.803 13.3554 124.901 13.0622C125.018 12.8081 125.409 12.7299 125.781 12.8862Z" fill="currentColor"/>
<path d="M130.394 5.81035C130.726 5.98627 130.941 6.25992 130.902 6.45539C130.844 6.65086 130.531 6.67041 130.179 6.51403C129.827 6.33811 129.612 6.06446 129.671 5.84944C129.73 5.67352 130.042 5.65398 130.394 5.81035Z" fill="currentColor"/>
<path d="M123.376 3.79697C123.689 3.9338 123.845 4.14881 123.767 4.32473C123.67 4.48111 123.357 4.50066 123.044 4.36383C122.731 4.227 122.555 3.99244 122.653 3.83607C122.751 3.67969 123.064 3.66015 123.376 3.79697Z" fill="currentColor"/>
<path d="M124.901 9.52414C125.233 9.68052 125.429 9.95417 125.331 10.1692C125.233 10.3842 124.901 10.4428 124.568 10.306C124.236 10.1496 124.041 9.87598 124.138 9.66096C124.236 9.4264 124.568 9.36777 124.901 9.52414Z" fill="currentColor"/>
<path d="M122.516 15.0559C122.926 15.2319 123.161 15.6228 123.044 15.9355C122.907 16.2678 122.477 16.3851 122.047 16.2092C121.617 16.0333 121.382 15.6423 121.519 15.3101C121.656 14.9973 122.086 14.88 122.516 15.0559Z" fill="currentColor"/>
<path d="M126.269 11.6156C126.64 11.7916 126.855 12.1043 126.777 12.378C126.679 12.6321 126.308 12.7103 125.937 12.5539C125.565 12.378 125.331 12.0457 125.428 11.772C125.526 11.5179 125.898 11.4397 126.269 11.6156Z" fill="currentColor"/>
<path d="M122.379 9.91515C122.77 10.0715 122.985 10.3843 122.868 10.6579C122.751 10.912 122.34 10.9902 121.949 10.8338C121.558 10.6775 121.343 10.3452 121.461 10.0911C121.578 9.83696 121.988 9.75877 122.379 9.91515Z" fill="currentColor"/>
<path d="M115.675 21.0762C115.968 21.1935 116.086 21.4476 115.968 21.7213C115.832 21.9754 115.499 22.0926 115.206 21.9949C114.913 21.8776 114.796 21.604 114.913 21.3499C115.05 21.0958 115.382 20.9785 115.675 21.0762Z" fill="currentColor"/>
<path d="M124.06 6.41621C124.412 6.57258 124.608 6.84623 124.53 7.06125C124.432 7.27626 124.08 7.31535 123.709 7.15898C123.337 7.00261 123.142 6.72896 123.239 6.51394C123.357 6.29893 123.709 6.25984 124.06 6.41621Z" fill="currentColor"/>
<path d="M131.958 6.6508C132.251 6.80717 132.466 7.06128 132.408 7.2372C132.349 7.41312 132.075 7.43267 131.782 7.27629C131.469 7.11992 131.274 6.86581 131.332 6.67035C131.391 6.51397 131.665 6.49443 131.958 6.6508Z" fill="currentColor"/>
<path d="M127.54 3.64064C127.775 3.73837 127.931 3.89474 127.892 4.01202C127.853 4.1293 127.657 4.1684 127.423 4.07067C127.188 3.97293 127.032 3.81656 127.071 3.67973C127.11 3.582 127.305 3.5429 127.54 3.64064Z" fill="currentColor"/>
<path d="M125.057 4.50067C125.331 4.61795 125.487 4.83297 125.409 4.96979C125.331 5.10662 125.077 5.14572 124.784 5.02844C124.51 4.91116 124.354 4.69614 124.412 4.55932C124.51 4.40294 124.784 4.38339 125.057 4.50067Z" fill="currentColor"/>
<path d="M124.315 10.8143C124.647 10.9707 124.842 11.2443 124.764 11.4789C124.666 11.7134 124.315 11.7721 123.963 11.6352C123.611 11.4789 123.415 11.1857 123.513 10.9511C123.63 10.7361 123.982 10.6775 124.315 10.8143Z" fill="currentColor"/>
<path d="M122.985 8.76188C123.298 8.8987 123.454 9.13326 123.376 9.32873C123.278 9.52419 122.966 9.56329 122.653 9.44601C122.34 9.30918 122.164 9.07462 122.262 8.87915C122.36 8.68368 122.672 8.6446 122.985 8.76188Z" fill="currentColor"/>
<path d="M120.327 9.21142C120.698 9.34825 120.874 9.6219 120.757 9.85646C120.639 10.0715 120.248 10.1497 119.897 10.0128C119.525 9.87601 119.33 9.60236 119.467 9.36779C119.584 9.13323 119.955 9.0746 120.327 9.21142Z" fill="currentColor"/>
<path d="M119.076 3.36704C119.369 3.46477 119.506 3.66023 119.408 3.79706C119.311 3.93389 119.018 3.97299 118.724 3.87525C118.431 3.77752 118.275 3.58205 118.372 3.42568C118.49 3.3084 118.783 3.2693 119.076 3.36704Z" fill="currentColor"/>
<path d="M127.931 2.83926C128.185 2.937 128.342 3.11292 128.322 3.24975C128.283 3.38657 128.068 3.40612 127.814 3.30838C127.56 3.21065 127.403 3.03473 127.423 2.89791C127.462 2.78063 127.677 2.74153 127.931 2.83926Z" fill="currentColor"/>
<path d="M128.81 5.08709C129.123 5.24346 129.299 5.47802 129.24 5.65394C129.162 5.82986 128.889 5.84941 128.576 5.69304C128.263 5.53666 128.068 5.28256 128.146 5.12618C128.224 4.95026 128.498 4.95026 128.81 5.08709Z" fill="currentColor"/>
<path d="M129.162 4.24651C129.435 4.38334 129.592 4.59835 129.553 4.75473C129.494 4.9111 129.259 4.9111 128.986 4.77427C128.712 4.63744 128.536 4.42243 128.595 4.26606C128.654 4.10969 128.908 4.10969 129.162 4.24651Z" fill="currentColor"/>
<path d="M125.37 8.41C125.663 8.54683 125.819 8.78139 125.761 8.95731C125.683 9.13323 125.389 9.19187 125.096 9.05504C124.803 8.91822 124.627 8.68365 124.705 8.50773C124.783 8.33181 125.077 8.29272 125.37 8.41Z" fill="currentColor"/>
<path d="M126.797 5.32163C127.031 5.43891 127.168 5.61482 127.129 5.75165C127.071 5.88847 126.836 5.90802 126.601 5.79074C126.367 5.67346 126.211 5.49754 126.269 5.36071C126.328 5.22389 126.543 5.20435 126.797 5.32163Z" fill="currentColor"/>
<path d="M123.142 13.6094C123.435 13.7267 123.592 14.0003 123.513 14.2153C123.416 14.4304 123.123 14.5085 122.81 14.3913C122.517 14.2544 122.341 14.0003 122.438 13.7853C122.536 13.5703 122.829 13.4921 123.142 13.6094Z" fill="currentColor"/>
<path d="M128.4 6.10354C128.615 6.20128 128.732 6.3772 128.693 6.49448C128.654 6.61176 128.439 6.6313 128.224 6.53357C128.009 6.43583 127.872 6.25992 127.931 6.12309C127.989 6.02536 128.204 6.00581 128.4 6.10354Z" fill="currentColor"/>
<path d="M130.608 5.00894C130.843 5.12622 130.999 5.34123 130.979 5.47806C130.94 5.61488 130.725 5.63443 130.491 5.49761C130.256 5.36078 130.1 5.16531 130.119 5.02849C130.158 4.91121 130.373 4.89166 130.608 5.00894Z" fill="currentColor"/>
<path d="M122.164 5.71256C122.458 5.82984 122.614 6.04485 122.536 6.22077C122.438 6.37714 122.145 6.41624 121.832 6.29896C121.519 6.18168 121.363 5.96666 121.461 5.79074C121.578 5.63437 121.871 5.59528 122.164 5.71256Z" fill="currentColor"/>
<path d="M115.714 1.04091C115.949 1.11909 116.066 1.25592 115.968 1.3732C115.87 1.47093 115.616 1.51003 115.362 1.43184C115.108 1.35365 115.01 1.21683 115.108 1.09955C115.206 1.00181 115.46 0.962721 115.714 1.04091Z" fill="currentColor"/>
<path d="M118.235 8.48817C118.567 8.60545 118.743 8.85956 118.626 9.05503C118.508 9.25049 118.137 9.32868 117.805 9.2114C117.473 9.09412 117.297 8.84001 117.414 8.64455C117.531 8.42953 117.883 8.37089 118.235 8.48817Z" fill="currentColor"/>
<path d="M114.952 22.9723C115.226 23.07 115.323 23.3437 115.206 23.5782C115.069 23.8324 114.757 23.9496 114.483 23.8519C114.209 23.7542 114.111 23.4805 114.229 23.2264C114.366 22.9919 114.678 22.8746 114.952 22.9723Z" fill="currentColor"/>
<path d="M112.841 24.0668C113.076 24.145 113.174 24.3796 113.056 24.5946C112.939 24.8096 112.646 24.9073 112.411 24.8292C112.177 24.751 112.079 24.5164 112.196 24.3014C112.313 24.0864 112.607 23.9886 112.841 24.0668Z" fill="currentColor"/>
<path d="M120.307 20.568C120.62 20.7048 120.757 20.998 120.659 21.2717C120.542 21.5454 120.21 21.6626 119.897 21.5454C119.584 21.4085 119.428 21.1153 119.545 20.8417C119.662 20.5485 119.995 20.4507 120.307 20.568Z" fill="currentColor"/>
<path d="M117.415 21.7995C117.727 21.9363 117.864 22.2295 117.766 22.5032C117.649 22.7768 117.317 22.8941 117.004 22.7768C116.691 22.64 116.535 22.3468 116.652 22.0731C116.789 21.7799 117.121 21.6822 117.415 21.7995Z" fill="currentColor"/>
<path d="M120.972 8.07772C121.207 8.17545 121.324 8.33182 121.246 8.48819C121.167 8.62502 120.933 8.66411 120.698 8.58593C120.464 8.48819 120.346 8.31228 120.425 8.17545C120.503 8.01908 120.737 7.97998 120.972 8.07772Z" fill="currentColor"/>
<path d="M126.915 1.66646C127.11 1.74465 127.247 1.86193 127.208 1.97921C127.169 2.07694 126.993 2.07694 126.797 1.99876C126.602 1.92057 126.465 1.78374 126.504 1.68601C126.543 1.58828 126.719 1.58827 126.915 1.66646Z" fill="currentColor"/>
<path d="M123.356 19.6103C123.61 19.7275 123.747 19.9816 123.669 20.2162C123.591 20.4508 123.317 20.5289 123.044 20.4312C122.79 20.3139 122.633 20.0598 122.731 19.8253C122.829 19.5907 123.083 19.5125 123.356 19.6103Z" fill="currentColor"/>
<path d="M126.191 18.6524C126.445 18.7697 126.582 19.0043 126.504 19.2193C126.426 19.4343 126.191 19.5125 125.937 19.3952C125.683 19.2779 125.546 19.0434 125.624 18.8284C125.702 18.6133 125.956 18.5352 126.191 18.6524Z" fill="currentColor"/>
<path d="M128.83 18.0661C129.065 18.1834 129.202 18.3984 129.143 18.6134C129.085 18.8089 128.87 18.8871 128.635 18.7698C128.4 18.6525 128.264 18.4179 128.322 18.2225C128.381 18.027 128.596 17.9488 128.83 18.0661Z" fill="currentColor"/>
<path d="M115.969 7.90174C116.203 7.97993 116.301 8.11676 116.223 8.25358C116.125 8.39041 115.89 8.42951 115.656 8.37087C115.421 8.29268 115.323 8.15585 115.402 8.01902C115.48 7.86265 115.734 7.82356 115.969 7.90174Z" fill="currentColor"/>
<path d="M117.454 9.54369C117.728 9.64142 117.864 9.83689 117.767 10.0128C117.669 10.1887 117.376 10.2474 117.082 10.1496C116.809 10.0519 116.672 9.85643 116.77 9.68051C116.887 9.50459 117.18 9.44595 117.454 9.54369Z" fill="currentColor"/>
<path d="M119.604 10.5015C119.838 10.5992 119.975 10.7752 119.897 10.9511C119.819 11.1074 119.564 11.1661 119.31 11.0684C119.056 10.9706 118.939 10.7752 119.017 10.6188C119.095 10.4624 119.349 10.4038 119.604 10.5015Z" fill="currentColor"/>
<path d="M121.714 11.3419C121.929 11.4397 122.047 11.6156 121.968 11.7524C121.89 11.8893 121.675 11.9479 121.46 11.8502C121.245 11.7524 121.128 11.5765 121.206 11.4397C121.284 11.3029 121.499 11.2638 121.714 11.3419Z" fill="currentColor"/>
<path d="M123.728 12.1825C123.943 12.2802 124.041 12.4561 123.982 12.593C123.924 12.7493 123.709 12.7884 123.494 12.6907C123.278 12.593 123.161 12.4171 123.22 12.2607C123.318 12.1434 123.513 12.1043 123.728 12.1825Z" fill="currentColor"/>
<path d="M128.282 2.19418C128.478 2.27237 128.595 2.38965 128.575 2.48738C128.536 2.58512 128.38 2.60466 128.184 2.52647C127.989 2.44829 127.872 2.33101 127.891 2.23327C127.93 2.13554 128.106 2.13554 128.282 2.19418Z" fill="currentColor"/>
<path d="M127.286 1.0409C127.462 1.11908 127.56 1.21681 127.54 1.31455C127.521 1.41228 127.364 1.41228 127.188 1.3341C127.012 1.25591 126.895 1.15817 126.934 1.06044C126.973 0.982251 127.13 0.982256 127.286 1.0409Z" fill="currentColor"/>
<path d="M126.25 0.04398C126.406 0.10262 126.504 0.20035 126.484 0.278536C126.465 0.356723 126.328 0.376271 126.172 0.298084C126.015 0.239444 125.917 0.141713 125.937 0.04398C125.957 -0.01466 126.093 -0.01466 126.25 0.04398Z" fill="currentColor"/>
<path d="M129.436 3.56248C129.632 3.66022 129.768 3.81659 129.729 3.93387C129.69 4.05115 129.514 4.05115 129.319 3.95342C129.123 3.85568 128.987 3.69931 129.026 3.58203C129.065 3.44521 129.241 3.4452 129.436 3.56248Z" fill="currentColor"/>
<path d="M115.225 8.89863C115.46 8.97681 115.558 9.13319 115.479 9.27001C115.382 9.40684 115.128 9.46548 114.893 9.38729C114.658 9.30911 114.541 9.15273 114.639 9.01591C114.737 8.87908 114.991 8.82044 115.225 8.89863Z" fill="currentColor"/>
<path d="M113.135 8.33188C113.35 8.39052 113.447 8.52734 113.369 8.66417C113.271 8.78145 113.037 8.84009 112.802 8.78145C112.568 8.72281 112.47 8.58598 112.568 8.44916C112.665 8.33188 112.92 8.27324 113.135 8.33188Z" fill="currentColor"/>
<path d="M130.823 7.55C130.765 7.78456 130.96 8.11685 131.331 8.35141C130.901 8.21459 130.55 8.27323 130.471 8.54688C130.413 8.78144 130.569 9.09419 130.882 9.34829C130.53 9.27011 130.237 9.36784 130.159 9.62195C130.08 9.91514 130.315 10.3061 130.706 10.5797C130.256 10.4429 129.885 10.5406 129.787 10.8534C129.709 11.1075 129.865 11.4398 130.159 11.6939C129.807 11.6548 129.514 11.7721 129.435 12.0457C129.357 12.3585 129.533 12.7103 129.885 13.0035C129.475 12.9449 129.142 13.0622 129.045 13.3944C128.927 13.8245 129.279 14.3718 129.865 14.6454C130.335 14.8604 130.765 14.8214 130.98 14.5672C131.038 14.9386 131.351 15.3491 131.82 15.5837C132.231 15.7791 132.582 15.7596 132.817 15.5837C132.934 15.916 133.227 16.2483 133.618 16.4437C134.009 16.6392 134.361 16.6196 134.576 16.4437C134.693 16.7956 135.006 17.1083 135.378 17.3233C135.769 17.5188 136.12 17.4992 136.335 17.3038C136.472 17.6556 136.765 18.0075 137.156 18.2225C137.704 18.4961 138.153 18.3593 138.192 17.9097C138.212 17.5774 137.997 17.167 137.665 16.8738C138.036 16.9324 138.29 16.7956 138.31 16.4828C138.329 16.1896 138.153 15.8378 137.86 15.5641C138.173 15.6032 138.388 15.4664 138.427 15.1927C138.446 14.8604 138.192 14.45 137.801 14.1568C138.212 14.2936 138.505 14.1763 138.544 13.8636C138.564 13.5899 138.368 13.2576 138.075 13.0035C138.388 13.0622 138.622 12.9644 138.642 12.7103C138.661 12.4171 138.407 12.0262 138.016 11.7721C138.368 11.8894 138.622 11.8307 138.661 11.5766C138.681 11.2834 138.368 10.8925 137.958 10.6579C137.586 10.4624 137.293 10.482 137.176 10.6579C137.117 10.3843 136.844 10.0715 136.492 9.87605C136.14 9.70013 135.847 9.70013 135.71 9.8565C135.651 9.5633 135.358 9.23101 134.967 9.03555C134.557 8.84008 134.205 8.84008 134.068 9.016C134.009 8.76189 133.755 8.46869 133.384 8.27323C132.934 8.05821 132.563 8.07776 132.485 8.35141C132.543 8.07776 132.231 7.70637 131.801 7.47181C131.312 7.2568 130.921 7.29589 130.823 7.55ZM136.511 15.8573C136.726 15.9746 136.863 16.1896 136.863 16.3655C136.844 16.5415 136.668 16.5806 136.433 16.4828C136.218 16.3655 136.062 16.1505 136.081 15.9746C136.101 15.7987 136.296 15.74 136.511 15.8573ZM134.811 15.0364C135.006 15.1341 135.124 15.3296 135.104 15.4664C135.084 15.6228 134.908 15.6619 134.713 15.5641C134.518 15.4664 134.381 15.2709 134.42 15.1146C134.459 14.9777 134.615 14.9386 134.811 15.0364ZM133.11 14.1763C133.306 14.274 133.442 14.4695 133.403 14.6063C133.364 14.7627 133.188 14.8018 132.993 14.7041C132.797 14.6063 132.661 14.4109 132.7 14.274C132.739 14.1372 132.915 14.0981 133.11 14.1763ZM131.566 13.7267C131.527 13.8831 131.312 13.9418 131.097 13.8245C130.862 13.7072 130.726 13.4922 130.765 13.3358C130.804 13.1794 131.019 13.1403 131.234 13.2381C131.468 13.3554 131.605 13.5508 131.566 13.7267ZM136.726 14.665C136.902 14.7627 137.039 14.9386 137.02 15.095C137 15.2318 136.844 15.2709 136.648 15.1732C136.453 15.0755 136.335 14.88 136.335 14.7432C136.374 14.6063 136.531 14.5672 136.726 14.665ZM131.527 12.0653C131.722 12.163 131.84 12.3389 131.82 12.4758C131.781 12.6126 131.605 12.6517 131.41 12.5539C131.214 12.4562 131.097 12.2803 131.116 12.1435C131.156 12.0066 131.331 11.9675 131.527 12.0653ZM136.863 13.414C137.039 13.5117 137.176 13.6876 137.156 13.8245C137.137 13.9613 136.98 14.0004 136.805 13.9027C136.629 13.8049 136.492 13.629 136.511 13.4922C136.531 13.3358 136.687 13.3163 136.863 13.414ZM131.82 10.8534C132.016 10.9511 132.133 11.127 132.094 11.2443C132.055 11.3811 131.898 11.4007 131.703 11.303C131.507 11.2052 131.39 11.0293 131.41 10.912C131.468 10.7947 131.644 10.7752 131.82 10.8534ZM137 12.2412C137.176 12.3389 137.293 12.4953 137.293 12.6321C137.274 12.769 137.137 12.7885 136.941 12.6908C136.765 12.593 136.629 12.4367 136.648 12.2998C136.687 12.163 136.824 12.1435 137 12.2412ZM132.113 9.73923C132.289 9.83696 132.407 9.99333 132.387 10.1106C132.348 10.2474 132.192 10.2474 131.996 10.1692C131.82 10.0715 131.683 9.91514 131.722 9.77832C131.761 9.66104 131.918 9.64149 132.113 9.73923ZM137.078 11.0293C137.274 11.127 137.41 11.303 137.391 11.4398C137.371 11.5766 137.215 11.5962 137.02 11.4984C136.824 11.4007 136.687 11.2052 136.707 11.0879C136.726 10.9511 136.883 10.9316 137.078 11.0293ZM135.573 10.267C135.749 10.3647 135.866 10.5015 135.847 10.6384C135.827 10.7556 135.69 10.7752 135.514 10.6775C135.339 10.5797 135.221 10.4429 135.241 10.3061C135.26 10.1888 135.397 10.1692 135.573 10.267ZM134.048 9.48512C134.224 9.58285 134.342 9.71968 134.322 9.83696C134.303 9.95424 134.146 9.97378 133.97 9.87605C133.794 9.77832 133.677 9.64149 133.697 9.50466C133.716 9.40693 133.873 9.38738 134.048 9.48512ZM132.387 8.60552C132.582 8.70325 132.719 8.87917 132.68 8.99645C132.641 9.11373 132.465 9.15283 132.27 9.03555C132.074 8.93781 131.937 8.76189 131.976 8.62506C131.996 8.52733 132.192 8.50778 132.387 8.60552Z" fill="currentColor"/>
</g>
</g>
</svg>
