<svg width="78" height="40" viewBox="0 0 78 40" fill="none" xmlns="http://www.w3.org/2000/svg">
<g id="&#216;&#180;&#216;&#185;&#216;&#167;&#216;&#177;_&#216;&#167;&#217;&#132;&#217;&#135;&#217;&#138;&#216;&#166;&#216;&#169;_&#216;&#167;&#217;&#132;&#216;&#185;&#216;&#167;&#217;&#133;&#216;&#169;_&#217;&#132;&#217;&#132;&#216;&#185;&#217;&#134;&#216;&#167;&#217;&#138;&#216;&#169;_&#216;&#168;&#216;&#180;&#216;&#164;&#217;&#136;&#217;&#134;_&#216;&#167;&#217;&#132;&#216;&#173;&#216;&#177;&#217;&#133;&#217;&#138;&#217;&#134; 2" clip-path="url(#clip0_463_68515)">
<g id="Group">
<path id="Vector" opacity="0.987" fill-rule="evenodd" clip-rule="evenodd" d="M77.6689 0C77.7104 0 77.7522 0 77.7937 0C77.7937 5.86989 77.7937 11.7398 77.7937 17.6097C76.7023 17.6097 75.6109 17.6097 74.5195 17.6097C74.5092 12.0726 74.5195 6.53552 74.5507 0.998487C75.5934 0.664554 76.6327 0.331725 77.6689 0Z" fill="currentColor"/>
</g>
<g id="Group_2">
<path id="Vector_2" opacity="0.99" fill-rule="evenodd" clip-rule="evenodd" d="M70.7453 0.393311C70.8077 6.1219 70.8286 11.8607 70.8077 17.6096C62.4298 17.6096 54.0522 17.6096 45.6743 17.6096C45.5605 20.5381 44.0535 22.3888 41.1528 23.1618C40.2729 23.3847 39.3788 23.5057 38.4711 23.5249C38.2341 22.5923 37.9949 21.6594 37.7539 20.7261C38.3804 20.6737 39.004 20.5981 39.6249 20.4992C40.2984 20.4091 40.9118 20.1771 41.4647 19.8033C41.914 19.4209 42.1893 18.9418 42.291 18.3661C42.3368 18.1258 42.368 17.8837 42.3846 17.6399C42.3899 14.6776 42.4054 11.7175 42.4313 8.75942C43.5049 8.43065 44.5758 8.09277 45.6432 7.74581C45.6743 10.0251 45.6846 12.3045 45.6743 14.5839C50.227 14.589 54.7797 14.5839 59.3324 14.5688C58.9077 14.0224 58.5179 13.4525 58.163 12.8593C57.7112 12.0024 57.2435 11.1552 56.7598 10.3177C55.9207 8.92671 54.7201 8.52832 53.1582 9.12251C52.6449 9.29083 52.146 9.49252 51.6614 9.72765C51.6215 9.74835 51.585 9.74329 51.5523 9.71252C51.0899 8.79473 50.6271 7.87691 50.1647 6.95912C51.5498 6.22705 53.031 5.82363 54.6082 5.74883C55.9007 5.74653 57.0389 6.1449 58.0227 6.94399C58.8774 7.73065 59.5685 8.63331 60.0964 9.65201C60.5373 10.5485 61.0259 11.4158 61.562 12.2541C62.6025 13.7553 64.0631 14.5269 65.9431 14.5688C66.4733 14.5839 67.0034 14.589 67.5335 14.5839C67.5282 10.1966 67.5335 5.80935 67.5491 1.42205C68.6202 1.0874 69.6854 0.744488 70.7453 0.393311Z" fill="currentColor"/>
</g>
<g id="Group_3">
<path id="Vector_3" opacity="0.958" fill-rule="evenodd" clip-rule="evenodd" d="M7.1015 7.74585C7.75413 8.32863 8.38817 8.93378 9.00365 9.56128C8.39038 10.1765 7.76673 10.7816 7.13269 11.3767C6.49865 10.7816 5.87499 10.1765 5.26172 9.56128C5.87565 8.9555 6.48892 8.35036 7.1015 7.74585Z" fill="currentColor"/>
</g>
<g id="Group_4">
<path id="Vector_4" opacity="0.989" fill-rule="evenodd" clip-rule="evenodd" d="M0.460938 17.2163C0.460938 15.764 0.460938 14.3117 0.460938 12.8593C1.55367 12.5917 2.64507 12.3194 3.73513 12.0424C3.72992 13.6258 3.73513 15.2093 3.75072 16.7927C3.88627 19.0624 5.11799 20.2979 7.44588 20.4993C8.45234 20.5819 9.40862 20.4105 10.3147 19.9849C11.1309 19.4862 11.635 18.7751 11.8271 17.8517C11.8861 17.5718 11.9277 17.2894 11.9518 17.0045C11.957 14.2612 11.9726 11.5179 11.9986 8.77459C13.0741 8.42842 14.1499 8.08549 15.226 7.74585C15.2416 10.0252 15.2468 12.3046 15.2416 14.584C16.7281 14.594 18.2145 14.584 19.7007 14.5537C19.7813 14.3596 19.828 14.158 19.841 13.9486C19.8514 12.2239 19.8618 10.4993 19.8722 8.77459C20.9483 8.43496 22.0241 8.09202 23.0996 7.74585C23.136 9.66207 23.1412 11.5783 23.1152 13.4947C23.1146 13.8569 23.0575 14.2099 22.9437 14.5537C24.2013 14.589 25.459 14.594 26.7169 14.5688C26.8794 14.5381 26.9989 14.4523 27.0755 14.3117C27.5265 13.1136 28.0462 11.9436 28.6346 10.8018C29.1519 9.80279 29.8952 9.00098 30.8642 8.39638C32.5387 7.5286 34.1811 7.57901 35.791 8.54766C36.985 9.45732 37.6555 10.6525 37.8023 12.1331C37.9682 13.73 37.8332 15.3034 37.397 16.8533C36.6411 17.3107 35.8721 17.7443 35.0894 18.1543C33.2796 17.6649 31.4709 17.1706 29.6636 16.6717C29.4726 16.8941 29.2699 17.1109 29.0556 17.3222C28.8484 17.4631 28.6197 17.5539 28.3695 17.5946C23.9936 17.6097 19.6176 17.6147 15.2416 17.6097C15.0131 20.0135 13.7866 21.7432 11.562 22.7988C9.72098 23.5621 7.81883 23.7436 5.85556 23.3434C4.12089 23.0145 2.71248 22.1824 1.63029 20.8472C0.866959 19.7498 0.477174 18.5395 0.460938 17.2163ZM33.047 10.8623C33.7978 10.8496 34.2812 11.1925 34.497 11.8911C34.6441 12.3799 34.7118 12.8791 34.6996 13.3888C34.6972 13.8402 34.6607 14.289 34.5905 14.7353C34.5784 14.7633 34.5578 14.7835 34.5281 14.7958C33.2618 14.4517 31.9989 14.0987 30.7394 13.7368C30.9954 13.1883 31.2605 12.6436 31.5346 12.1029C31.7862 11.637 32.1448 11.2688 32.6104 10.9985C32.7563 10.9431 32.902 10.8977 33.047 10.8623Z" fill="currentColor"/>
</g>
<g id="Group_5">
<path id="Vector_5" opacity="0.966" fill-rule="evenodd" clip-rule="evenodd" d="M19.0156 19.062C19.0484 19.0575 19.0796 19.0625 19.1092 19.0772C19.6549 19.6067 20.2006 20.1362 20.7463 20.6657C21.292 20.1362 21.8377 19.6067 22.3834 19.0772C22.4146 19.057 22.4457 19.057 22.4769 19.0772C23.0854 19.6625 23.6883 20.2526 24.2855 20.8472C23.6723 21.4624 23.0486 22.0676 22.4146 22.6626C21.8537 22.1336 21.2976 21.599 20.7463 21.059C20.1949 21.599 19.6389 22.1336 19.078 22.6626C18.444 22.0676 17.8203 21.4624 17.207 20.8472C17.8106 20.2515 18.4134 19.6565 19.0156 19.062Z" fill="currentColor"/>
</g>
<g id="Group_6">
<path id="Vector_6" opacity="0.869" fill-rule="evenodd" clip-rule="evenodd" d="M26.6872 29.0167C26.9121 28.9679 27.0369 29.0536 27.0614 29.2739C27.0557 29.4408 26.9673 29.5265 26.7963 29.5311C26.6178 29.5242 26.5295 29.4334 26.5313 29.2587C26.5384 29.1474 26.5903 29.0667 26.6872 29.0167Z" fill="currentColor"/>
</g>
<g id="Group_7">
<path id="Vector_7" opacity="0.859" fill-rule="evenodd" clip-rule="evenodd" d="M68.7531 29.2284C68.9012 29.2216 69.0465 29.2367 69.1897 29.2738C69.247 29.5206 69.1588 29.5861 68.9246 29.4704C68.7363 29.4957 68.6739 29.5966 68.7375 29.773C68.7706 29.8154 68.812 29.8456 68.8622 29.8638C69.001 29.8337 69.1413 29.8136 69.2832 29.8033C69.2832 29.894 69.2832 29.9848 69.2832 30.0756C68.9804 30.0934 68.6789 30.1237 68.3789 30.1664C68.3789 30.0857 68.3789 30.005 68.3789 29.9243C68.4319 29.9291 68.484 29.9241 68.5348 29.9092C68.3359 29.5962 68.4088 29.3692 68.7531 29.2284Z" fill="currentColor"/>
</g>
<g id="Group_8">
<path id="Vector_8" opacity="0.867" fill-rule="evenodd" clip-rule="evenodd" d="M21.5699 29.289C21.7159 29.284 21.8614 29.289 22.0065 29.3041C22.0622 29.31 22.1038 29.3353 22.1312 29.3798C22.0977 29.4527 22.0613 29.5234 22.0221 29.5916C21.8789 29.5048 21.7438 29.5149 21.6167 29.6218C21.5932 29.7066 21.6036 29.7873 21.6479 29.8639C21.8167 29.8813 21.9882 29.8813 22.1624 29.8639C22.1624 29.9446 22.1624 30.0252 22.1624 30.1059C21.8625 30.128 21.5662 30.1684 21.2737 30.227C21.2482 30.1444 21.2534 30.0638 21.2893 29.9849C21.3297 29.9668 21.3713 29.9517 21.414 29.9395C21.323 29.8074 21.297 29.6611 21.3361 29.5008C21.3904 29.4026 21.4684 29.332 21.5699 29.289Z" fill="currentColor"/>
</g>
<g id="Group_9">
<path id="Vector_9" opacity="0.928" fill-rule="evenodd" clip-rule="evenodd" d="M0.460938 35.3404C0.460938 35.3101 0.460938 35.2799 0.460938 35.2496C0.848006 35.098 1.25338 35.0272 1.67707 35.0378C2.46794 35.0466 3.20594 35.2433 3.89104 35.6278C4.18251 35.7994 4.46316 35.9861 4.73298 36.1876C4.86965 35.453 4.93202 34.7116 4.92008 33.9637C4.92388 33.351 4.88752 32.7407 4.81094 32.1331C4.5254 32.3988 4.38507 32.7265 4.38997 33.1165C4.41289 33.3776 4.44928 33.6348 4.49911 33.888C4.09177 33.4369 3.93585 32.9126 4.03137 32.3147C4.06405 32.1474 4.10561 31.9861 4.1561 31.8306C3.7181 32.2641 3.5466 32.7834 3.64158 33.3888C3.6268 33.4375 3.606 33.4424 3.57922 33.4039C3.23528 32.6067 3.37041 31.8956 3.98459 31.2708C3.68649 31.3431 3.45261 31.5095 3.28298 31.77C3.11216 32.0505 3.01342 32.3531 2.98674 32.6778C2.72572 31.7371 3.06873 31.1065 4.01578 30.7867C3.5012 30.7492 3.09582 30.9307 2.79965 31.3313C2.77371 31.3522 2.75292 31.3471 2.73728 31.3162C2.82764 30.8303 3.11867 30.5225 3.6104 30.3933C3.84882 30.3446 4.08787 30.3346 4.3276 30.3631C4.03782 30.1029 3.7052 30.0373 3.32975 30.1664C3.29792 30.1512 3.29272 30.1311 3.31416 30.1059C3.65858 29.7566 4.05875 29.681 4.5147 29.879C4.62322 29.959 4.72718 30.0448 4.82653 30.1362C4.88163 30.0631 4.9284 29.9824 4.96685 29.8941C5.03567 29.7038 5.09804 29.5122 5.15395 29.3192C5.2208 29.6147 5.32477 29.8971 5.46578 30.1664C5.88787 29.7082 6.36078 29.6527 6.88459 30C7.05903 30.1312 7.04865 30.1716 6.85341 30.121C6.51673 30.0552 6.22567 30.1359 5.98029 30.3631C6.44149 30.2953 6.85728 30.3961 7.2276 30.6657C7.43435 30.8499 7.53307 31.0769 7.52384 31.3464C7.22318 30.9359 6.81262 30.7492 6.29212 30.7867C7.22168 31.1129 7.56469 31.7434 7.32115 32.6778C7.28473 32.148 7.05604 31.7195 6.63513 31.3918C6.52746 31.3241 6.41314 31.2838 6.29212 31.2708C6.94016 31.902 7.07528 32.623 6.6975 33.4342C6.76781 32.8169 6.58592 32.2823 6.1518 31.8306C6.20238 32.007 6.24394 32.1885 6.27653 32.3752C6.35573 32.9561 6.19461 33.4605 5.79319 33.888C5.78281 33.8781 5.7724 33.8678 5.76201 33.8578C5.87929 33.5138 5.91568 33.161 5.87115 32.7988C5.82775 32.5328 5.70301 32.311 5.49696 32.1331C5.44258 32.4321 5.41139 32.7346 5.40341 33.0408C5.38261 33.656 5.38261 34.2714 5.40341 34.8865C5.42804 35.3234 5.48003 35.7573 5.55932 36.1876C6.1841 35.7005 6.88572 35.3525 7.66416 35.1437C8.37653 34.9888 9.08332 35.0088 9.78459 35.2042C9.83583 35.2992 9.80982 35.3649 9.70664 35.4009C8.9966 35.3026 8.30541 35.3782 7.63298 35.6278C6.87374 35.9316 6.18772 36.3452 5.57492 36.8684C6.00109 37.2415 6.42723 37.6148 6.85341 37.9879C7.00932 38.0989 7.16524 38.2097 7.32115 38.3207C7.54632 38.1495 7.78019 38.1443 8.02276 38.3056C8.23163 38.7274 8.09651 38.9694 7.61739 39.0318C7.29094 38.9918 7.00508 38.866 6.75986 38.6536C6.20584 38.1967 5.67052 37.7177 5.15395 37.2163C4.59677 37.7268 4.03031 38.226 3.45449 38.7141C3.27913 38.8536 3.08164 38.9543 2.86201 39.0166C2.39748 39.0923 2.174 38.9056 2.19158 38.4569C2.32931 38.1912 2.54239 38.1156 2.83083 38.23C2.8703 38.2899 2.92227 38.3201 2.98674 38.3207C3.58719 37.8593 4.16926 37.3752 4.73298 36.8684C3.85815 36.1011 2.83952 35.607 1.67707 35.3858C1.31227 35.325 0.948474 35.3298 0.585669 35.4009C0.536623 35.3933 0.495045 35.3731 0.460938 35.3404Z" fill="currentColor"/>
</g>
<g id="Group_10">
<path id="Vector_10" opacity="0.929" fill-rule="evenodd" clip-rule="evenodd" d="M12.2188 29.3495C12.3123 29.3495 12.4058 29.3495 12.4994 29.3495C12.4994 32.577 12.4994 35.8043 12.4994 39.0318C12.4058 39.0318 12.3123 39.0318 12.2188 39.0318C12.2188 35.8043 12.2188 32.577 12.2188 29.3495Z" fill="currentColor"/>
</g>
<g id="Group_11">
<path id="Vector_11" opacity="0.883" fill-rule="evenodd" clip-rule="evenodd" d="M32.424 29.3494C32.569 29.3338 32.6781 29.3843 32.7514 29.5007C32.8369 29.7467 32.7536 29.898 32.5019 29.9546C32.2347 29.888 32.1515 29.7266 32.2525 29.4705C32.2993 29.4109 32.3563 29.3706 32.424 29.3494Z" fill="currentColor"/>
</g>
<g id="Group_12">
<path id="Vector_12" opacity="0.877" fill-rule="evenodd" clip-rule="evenodd" d="M33.1713 29.3495C33.5062 29.3637 33.6153 29.5251 33.4987 29.8336C33.3079 30.0042 33.1417 29.984 32.9998 29.7731C32.9465 29.5848 33.0035 29.4436 33.1713 29.3495Z" fill="currentColor"/>
</g>
<g id="Group_13">
<path id="Vector_13" opacity="0.941" fill-rule="evenodd" clip-rule="evenodd" d="M36.5391 29.3495C36.7159 29.3495 36.8924 29.3495 37.0692 29.3495C37.0692 30.3077 37.0692 31.2657 37.0692 32.2239C38.0047 32.2239 38.9401 32.2239 39.8756 32.2239C39.8756 31.659 39.8756 31.0944 39.8756 30.5295C40.0418 30.5295 40.2083 30.5295 40.3745 30.5295C40.3745 31.0944 40.3745 31.659 40.3745 32.2239C40.9271 32.2372 41.4781 32.2221 42.0272 32.1785C42.0375 32.1685 42.0481 32.1583 42.0584 32.1483C41.6711 31.797 41.4217 31.3685 41.31 30.8623C41.8398 30.3934 42.4532 30.2571 43.1498 30.4539C43.3344 30.5032 43.5006 30.5837 43.6487 30.6959C43.6222 31.292 43.3728 31.7761 42.9004 32.1483C42.9593 32.1776 43.0217 32.1979 43.0874 32.2088C43.5967 32.2239 44.1059 32.2291 44.6154 32.2239C44.6154 31.2657 44.6154 30.3077 44.6154 29.3495C44.7816 29.3495 44.9481 29.3495 45.1143 29.3495C45.1143 30.3077 45.1143 31.2657 45.1143 32.2239C45.4782 32.2239 45.8418 32.2239 46.2057 32.2239C46.2057 31.2657 46.2057 30.3077 46.2057 29.3495C46.3825 29.3495 46.559 29.3495 46.7358 29.3495C46.7358 30.4487 46.7358 31.5483 46.7358 32.6475C45.4885 32.6527 44.2412 32.6475 42.9939 32.6324C42.8099 32.5964 42.6384 32.5307 42.4794 32.4357C42.3204 32.5307 42.1488 32.5964 41.9649 32.6324C40.1563 32.6475 38.3477 32.6527 36.5391 32.6475C36.5391 31.5483 36.5391 30.4487 36.5391 29.3495ZM42.3391 30.8018C42.5973 30.7816 42.8467 30.817 43.0874 30.9077C43.0731 31.3468 42.8704 31.6847 42.4794 31.9213C42.1884 31.695 41.9858 31.4076 41.8713 31.059C41.8794 31.0209 41.9003 30.9906 41.9337 30.9682C42.0659 30.8971 42.2009 30.8418 42.3391 30.8018Z" fill="currentColor"/>
</g>
<g id="Group_14">
<path id="Vector_14" opacity="0.879" fill-rule="evenodd" clip-rule="evenodd" d="M48.9173 29.3494C49.0623 29.3338 49.1715 29.3843 49.2447 29.5007C49.3289 29.8628 49.1886 29.9989 48.8238 29.9092C48.7012 29.7806 48.675 29.6343 48.7458 29.4705C48.7926 29.4109 48.8496 29.3706 48.9173 29.3494Z" fill="currentColor"/>
</g>
<g id="Group_15">
<path id="Vector_15" opacity="0.877" fill-rule="evenodd" clip-rule="evenodd" d="M49.6674 29.3495C50.0023 29.3637 50.1114 29.5251 49.9948 29.8336C49.804 30.0042 49.6378 29.984 49.4959 29.7731C49.4426 29.5848 49.4996 29.4436 49.6674 29.3495Z" fill="currentColor"/>
</g>
<g id="Group_16">
<path id="Vector_16" opacity="0.929" fill-rule="evenodd" clip-rule="evenodd" d="M55.6875 29.3495C55.8643 29.3495 56.0408 29.3495 56.2176 29.3495C56.2176 30.3077 56.2176 31.2657 56.2176 32.2239C57.1132 32.2381 58.0069 32.223 58.8993 32.1785C58.9096 32.1685 58.9202 32.1583 58.9305 32.1483C58.5579 31.8033 58.3187 31.3849 58.2133 30.8926C58.3355 30.7192 58.5021 30.5931 58.7122 30.5144C59.3268 30.2981 59.9193 30.3434 60.4897 30.6505C60.5249 31.2729 60.2857 31.7722 59.7724 32.1483C59.8314 32.1776 59.8937 32.1979 59.9595 32.2088C60.635 32.2239 61.3107 32.2291 61.9864 32.2239C61.9864 31.2657 61.9864 30.3077 61.9864 29.3495C62.1632 29.3495 62.3397 29.3495 62.5165 29.3495C62.5165 30.4487 62.5165 31.5483 62.5165 32.6475C61.6328 32.6527 60.7494 32.6475 59.866 32.6324C59.682 32.5964 59.5105 32.5307 59.3515 32.4357C59.1956 32.5392 59.0241 32.6046 58.837 32.6324C57.787 32.6475 56.7374 32.6527 55.6875 32.6475C55.6875 31.5483 55.6875 30.4487 55.6875 29.3495ZM59.2112 30.8018C59.4703 30.7791 59.7197 30.8145 59.9595 30.9077C59.9564 31.3522 59.7537 31.6899 59.3515 31.9213C59.0552 31.6896 58.8526 31.397 58.7434 31.0439C58.7584 31.0142 58.779 30.9891 58.8058 30.9682C58.938 30.8971 59.073 30.8418 59.2112 30.8018Z" fill="currentColor"/>
</g>
<g id="Group_17">
<path id="Vector_17" opacity="0.974" fill-rule="evenodd" clip-rule="evenodd" d="M63.2305 29.3495C63.3967 29.3495 63.5632 29.3495 63.7294 29.3495C63.7294 30.4487 63.7294 31.5483 63.7294 32.6475C63.5632 32.6475 63.3967 32.6475 63.2305 32.6475C63.2305 31.5483 63.2305 30.4487 63.2305 29.3495Z" fill="currentColor"/>
</g>
<g id="Group_18">
<path id="Vector_18" opacity="0.876" fill-rule="evenodd" clip-rule="evenodd" d="M65.9137 29.3495C66.2486 29.3637 66.3578 29.5251 66.2412 29.8336C66.0659 29.9981 65.8994 29.988 65.7422 29.8033C65.7213 29.7025 65.7213 29.6016 65.7422 29.5008C65.7843 29.4327 65.8414 29.3823 65.9137 29.3495Z" fill="currentColor"/>
</g>
<g id="Group_19">
<path id="Vector_19" opacity="0.883" fill-rule="evenodd" clip-rule="evenodd" d="M66.6948 29.3494C66.8398 29.3338 66.949 29.3843 67.0223 29.5007C67.1077 29.7467 67.0244 29.898 66.7728 29.9546C66.5782 29.9361 66.4794 29.8302 66.4766 29.6369C66.4862 29.4918 66.5592 29.396 66.6948 29.3494Z" fill="currentColor"/>
</g>
<g id="Group_20">
<path id="Vector_20" opacity="0.943" fill-rule="evenodd" clip-rule="evenodd" d="M76.0466 29.3495C76.2234 29.3495 76.3999 29.3495 76.5767 29.3495C76.5767 30.4487 76.5767 31.5483 76.5767 32.6475C73.0116 32.6527 69.4461 32.6475 65.881 32.6324C65.3303 32.5074 65.0497 32.1695 65.0391 31.6188C65.0571 31.0835 65.3275 30.7356 65.8498 30.5749C66.243 30.5325 66.6381 30.5174 67.0348 30.5295C67.0348 31.0944 67.0348 31.659 67.0348 32.2239C67.5649 32.2239 68.095 32.2239 68.6251 32.2239C68.6251 31.659 68.6251 31.0944 68.6251 30.5295C68.7913 30.5295 68.9578 30.5295 69.124 30.5295C69.124 31.0944 69.124 31.659 69.124 32.2239C69.602 32.2239 70.0804 32.2239 70.5584 32.2239C70.5584 31.659 70.5584 31.0944 70.5584 30.5295C70.7246 30.5295 70.8911 30.5295 71.0573 30.5295C71.0573 31.0944 71.0573 31.659 71.0573 32.2239C71.4524 32.2291 71.8475 32.2239 72.2423 32.2088C71.9673 31.8442 71.9517 31.466 72.1955 31.0741C72.5628 30.699 72.9941 30.6133 73.4896 30.817C73.701 30.9498 73.8311 31.1365 73.8794 31.3767C73.895 31.659 73.9003 31.9413 73.895 32.2239C74.0821 32.2239 74.2692 32.2239 74.4563 32.2239C74.4616 31.8505 74.4563 31.4775 74.4407 31.1044C74.3693 30.6215 74.0833 30.3543 73.5831 30.3026C73.198 30.2645 72.8238 30.3099 72.4606 30.4387C72.4013 30.3047 72.3496 30.1687 72.3047 30.0303C74.3063 29.4862 75.2 30.2174 74.9864 32.2239C75.3397 32.2239 75.6933 32.2239 76.0466 32.2239C76.0466 31.2657 76.0466 30.3077 76.0466 29.3495ZM66.1305 30.9531C66.2655 30.9531 66.4008 30.9531 66.5358 30.9531C66.5358 31.3767 66.5358 31.8003 66.5358 32.2239C65.7179 32.3089 65.4323 31.9761 65.6783 31.2254C65.8037 31.0878 65.9543 30.997 66.1305 30.9531ZM72.9595 31.1649C73.1372 31.1731 73.267 31.2536 73.3493 31.407C73.3923 31.6772 73.4079 31.9495 73.3961 32.2239C72.7356 32.3044 72.4705 32.0321 72.6009 31.407C72.6782 31.2614 72.7977 31.181 72.9595 31.1649Z" fill="currentColor"/>
</g>
<g id="Group_21">
<path id="Vector_21" opacity="0.917" fill-rule="evenodd" clip-rule="evenodd" d="M77.7957 29.3495C77.7957 30.4487 77.7957 31.5483 77.7957 32.6475C77.6189 32.6475 77.4424 32.6475 77.2656 32.6475C77.2656 31.5483 77.2656 30.4487 77.2656 29.3495C77.4424 29.3495 77.6189 29.3495 77.7957 29.3495Z" fill="currentColor"/>
</g>
<g id="Group_22">
<path id="Vector_22" opacity="0.872" fill-rule="evenodd" clip-rule="evenodd" d="M26.3432 29.5612C26.4883 29.5456 26.5974 29.5961 26.6707 29.7125C26.7549 30.0746 26.6146 30.2107 26.2497 30.121C26.1212 29.9935 26.0952 29.8472 26.1717 29.6823C26.2185 29.6227 26.2757 29.5824 26.3432 29.5612Z" fill="currentColor"/>
</g>
<g id="Group_23">
<path id="Vector_23" opacity="0.873" fill-rule="evenodd" clip-rule="evenodd" d="M27.0901 29.5613C27.4251 29.5755 27.5342 29.7369 27.4175 30.0454C27.2268 30.216 27.0605 30.1958 26.9186 29.9849C26.8568 29.7907 26.914 29.6495 27.0901 29.5613Z" fill="currentColor"/>
</g>
<g id="Group_24">
<path id="Vector_24" opacity="0.875" fill-rule="evenodd" clip-rule="evenodd" d="M40.032 29.5612C40.312 29.5555 40.4314 29.6866 40.3906 29.9546C40.3525 30.0923 40.259 30.1629 40.1099 30.1664C39.8583 30.1082 39.7753 29.9569 39.8605 29.7125C39.8951 29.6334 39.9521 29.583 40.032 29.5612Z" fill="currentColor"/>
</g>
<g id="Group_25">
<path id="Vector_25" opacity="0.877" fill-rule="evenodd" clip-rule="evenodd" d="M16.1478 29.9547C16.2929 29.9391 16.402 29.9895 16.4752 30.106C16.5595 30.4678 16.4192 30.604 16.0542 30.5144C15.9315 30.3858 15.9056 30.2395 15.9763 30.0757C16.0231 30.0161 16.0802 29.9758 16.1478 29.9547Z" fill="currentColor"/>
</g>
<g id="Group_26">
<path id="Vector_26" opacity="0.937" fill-rule="evenodd" clip-rule="evenodd" d="M19.1385 30.5295C19.4503 30.5295 19.7621 30.5295 20.074 30.5295C20.0792 31.3568 20.074 32.1837 20.0584 33.0106C19.9901 33.2787 19.829 33.4754 19.575 33.6006C19.0938 33.7592 18.6261 33.7289 18.1718 33.5099C18.1555 33.4929 18.1451 33.4727 18.1406 33.4494C18.1954 33.3211 18.2682 33.2052 18.3589 33.1014C18.6831 33.2836 19.0157 33.3087 19.3568 33.177C19.5376 33.043 19.6103 32.8663 19.575 32.6475C18.4452 32.7767 17.9931 32.3029 18.2186 31.2255C18.4073 30.8442 18.7139 30.6121 19.1385 30.5295ZM19.232 30.9531C19.3464 30.9531 19.4607 30.9531 19.575 30.9531C19.575 31.3767 19.575 31.8003 19.575 32.2239C18.7841 32.3087 18.5191 31.9858 18.7799 31.2557C18.8934 31.0999 19.0441 30.9988 19.232 30.9531Z" fill="currentColor"/>
</g>
<g id="Group_27">
<path id="Vector_27" opacity="0.935" fill-rule="evenodd" clip-rule="evenodd" d="M21.7284 30.5295C22.0506 30.5295 22.3728 30.5295 22.6951 30.5295C22.6951 31.0944 22.6951 31.659 22.6951 32.2239C23.5162 32.2239 24.3374 32.2239 25.1585 32.2239C25.1585 31.7701 25.1585 31.3162 25.1585 30.8624C25.3352 30.8624 25.5119 30.8624 25.6886 30.8624C25.6886 31.3162 25.6886 31.7701 25.6886 32.2239C25.876 32.2291 26.0631 32.2239 26.2499 32.2088C26.3924 32.1613 26.4808 32.0654 26.5149 31.9214C26.5305 31.5686 26.5357 31.2155 26.5305 30.8624C26.6968 30.8624 26.8632 30.8624 27.0295 30.8624C27.0151 31.2385 27.0307 31.6118 27.0762 31.9819C27.276 32.2088 27.5306 32.2893 27.8402 32.2239C27.8402 31.659 27.8402 31.0944 27.8402 30.5295C28.0065 30.5295 28.1728 30.5295 28.3391 30.5295C28.3391 31.0944 28.3391 31.659 28.3391 32.2239C28.7965 32.2239 29.2538 32.2239 29.7112 32.2239C29.7112 31.659 29.7112 31.0944 29.7112 30.5295C29.8879 30.5295 30.0646 30.5295 30.2413 30.5295C30.2413 31.2354 30.2413 31.9416 30.2413 32.6475C29.2642 32.6527 28.2871 32.6475 27.3101 32.6324C27.1447 32.5776 26.9992 32.492 26.8735 32.3752C26.7516 32.4999 26.6061 32.5855 26.437 32.6324C25.1897 32.6475 23.9424 32.6527 22.6951 32.6475C22.6972 33.3516 22.3334 33.7044 21.6037 33.7065C21.3073 33.7026 21.0266 33.6373 20.7617 33.5099C20.7738 33.3598 20.8362 33.2236 20.9488 33.1014C21.2584 33.2693 21.5806 33.3044 21.9155 33.2073C22.1207 33.0763 22.2142 32.8896 22.1961 32.6475C20.9882 32.7513 20.5464 32.237 20.8709 31.1044C21.0691 30.7888 21.355 30.5973 21.7284 30.5295ZM21.8219 30.9531C21.9467 30.9531 22.0714 30.9531 22.1961 30.9531C22.1961 31.3767 22.1961 31.8003 22.1961 32.2239C21.5126 32.3622 21.2164 32.1002 21.3074 31.4373C21.394 31.1867 21.5655 31.0255 21.8219 30.9531Z" fill="currentColor"/>
</g>
<g id="Group_28">
<path id="Vector_28" opacity="0.95" fill-rule="evenodd" clip-rule="evenodd" d="M32.4863 30.5295C32.8396 30.5295 33.1932 30.5295 33.5465 30.5295C33.5465 31.0944 33.5465 31.659 33.5465 32.2239C34.0975 32.2239 34.6482 32.2239 35.1992 32.2239C35.1992 31.659 35.1992 31.0944 35.1992 30.5295C35.3654 30.5295 35.5319 30.5295 35.6981 30.5295C35.6981 31.2354 35.6981 31.9416 35.6981 32.6475C34.5964 32.6527 33.4944 32.6475 32.3927 32.6324C31.8377 32.5174 31.5569 32.1846 31.5508 31.6339C31.5725 31.033 31.8844 30.6648 32.4863 30.5295ZM32.611 30.9531C32.7566 30.9531 32.9019 30.9531 33.0476 30.9531C33.0476 31.3767 33.0476 31.8003 33.0476 32.2239C32.8368 32.2354 32.6291 32.2203 32.4239 32.1786C32.1698 32.0739 32.0553 31.8872 32.0809 31.6188C32.0787 31.259 32.2555 31.037 32.611 30.9531Z" fill="currentColor"/>
</g>
<g id="Group_29">
<path id="Vector_29" opacity="0.941" fill-rule="evenodd" clip-rule="evenodd" d="M48.9824 30.5295C49.3357 30.5295 49.6893 30.5295 50.0426 30.5295C50.0426 31.0944 50.0426 31.659 50.0426 32.2239C50.9366 32.2239 51.8303 32.2239 52.7243 32.2239C52.719 31.9111 52.7243 31.5985 52.7399 31.286C52.8247 30.9111 53.0586 30.6742 53.4415 30.5749C54.3817 30.4987 54.792 30.9174 54.6732 31.8306C54.6043 32.2016 54.3913 32.4587 54.034 32.6022C52.3205 32.6521 50.6054 32.6621 48.8888 32.6324C48.3338 32.5174 48.0531 32.1846 48.0469 31.6339C48.0696 31.0321 48.3815 30.6642 48.9824 30.5295ZM49.1071 30.9531C49.2527 30.9531 49.398 30.9531 49.5436 30.9531C49.5436 31.3767 49.5436 31.8003 49.5436 32.2239C49.3329 32.2354 49.1252 32.2203 48.92 32.1786C48.6659 32.0739 48.5514 31.8872 48.577 31.6188C48.5748 31.259 48.7516 31.037 49.1071 30.9531ZM53.5662 30.9834C53.9732 30.9646 54.1808 31.1562 54.1899 31.5583C54.12 32.1126 53.7976 32.3344 53.2232 32.2239C53.2111 31.9295 53.2266 31.637 53.27 31.3465C53.3177 31.1822 53.4162 31.0612 53.5662 30.9834Z" fill="currentColor"/>
</g>
<g id="Group_30">
<path id="Vector_30" opacity="0.934" fill-rule="evenodd" clip-rule="evenodd" d="M16.9886 30.6808C17.1549 30.6808 17.3212 30.6808 17.4875 30.6808C17.5016 31.4587 17.486 32.2354 17.4407 33.0106C17.3583 33.3126 17.166 33.5192 16.8639 33.6309C16.4125 33.78 15.9655 33.77 15.523 33.6006C15.1563 33.3531 14.9796 33.01 14.9929 32.5719C15.0084 32.2445 15.0707 31.9268 15.18 31.6188C15.3476 31.6088 15.5139 31.6191 15.6789 31.649C15.5319 32.0539 15.4955 32.4672 15.5698 32.8896C15.6403 33.0893 15.7807 33.2151 15.9907 33.2678C16.312 33.3349 16.5979 33.2693 16.8483 33.0711C16.9164 32.9691 16.9579 32.8584 16.973 32.7383C16.9886 32.0526 16.9938 31.3667 16.9886 30.6808Z" fill="currentColor"/>
</g>
<g id="Group_31">
<path id="Vector_31" opacity="0.888" fill-rule="evenodd" clip-rule="evenodd" d="M29.8347 33.0105C30.072 32.9742 30.2071 33.0698 30.24 33.298C30.2407 33.4947 30.142 33.5906 29.9438 33.5854C29.863 33.5891 29.7903 33.5691 29.7255 33.5249C29.6777 33.3975 29.6673 33.2665 29.6943 33.1316C29.7379 33.0841 29.7847 33.0438 29.8347 33.0105Z" fill="currentColor"/>
</g>
<g id="Group_32">
<path id="Vector_32" opacity="0.884" fill-rule="evenodd" clip-rule="evenodd" d="M34.606 33.0106C34.8854 33.0042 35.0048 33.1356 34.9646 33.4039C34.9537 33.475 34.9175 33.5304 34.8554 33.5704C34.5071 33.636 34.3668 33.4999 34.4345 33.1619C34.4691 33.0829 34.5262 33.0324 34.606 33.0106Z" fill="currentColor"/>
</g>
<g id="Group_33">
<path id="Vector_33" opacity="0.892" fill-rule="evenodd" clip-rule="evenodd" d="M35.356 33.0105C35.6837 32.9999 35.8035 33.1512 35.7146 33.4644C35.6114 33.5803 35.4817 33.6154 35.3248 33.5703C35.1109 33.3721 35.1215 33.1854 35.356 33.0105Z" fill="currentColor"/>
</g>
<g id="Group_34">
<path id="Vector_34" opacity="0.894" fill-rule="evenodd" clip-rule="evenodd" d="M70.3435 33.0106C70.6615 33.0124 70.7707 33.1637 70.6709 33.4645C70.6553 33.5198 70.6188 33.5552 70.5617 33.5704C70.1969 33.6245 70.0669 33.4784 70.1719 33.1316C70.2187 33.072 70.2758 33.0318 70.3435 33.0106Z" fill="currentColor"/>
</g>
<g id="Group_35">
<path id="Vector_35" opacity="0.886" fill-rule="evenodd" clip-rule="evenodd" d="M71.0916 33.0106C71.3944 33.0024 71.5138 33.1437 71.4502 33.4342C71.4259 33.4883 71.3894 33.5337 71.341 33.5703C71.0102 33.6427 70.8699 33.5165 70.9201 33.1921C70.9519 33.1059 71.0089 33.0454 71.0916 33.0106Z" fill="currentColor"/>
</g>
<g id="Group_36">
<path id="Vector_36" opacity="0.929" fill-rule="evenodd" clip-rule="evenodd" d="M26.2496 34.705C26.4263 34.705 26.603 34.705 26.7797 34.705C26.7797 35.8145 26.7797 36.9237 26.7797 38.0332C24.7736 38.0332 22.7675 38.0332 20.7614 38.0332C20.7579 38.7394 20.3889 39.0823 19.6544 39.062C19.3383 39.0856 19.0525 39.0099 18.7969 38.8351C18.8539 38.6983 18.9371 38.5824 19.0463 38.4871C19.3342 38.6369 19.6356 38.6723 19.9506 38.593C20.1801 38.4756 20.284 38.2892 20.2625 38.0332C19.1734 38.1718 18.7109 37.718 18.8748 36.6717C19.0636 36.1966 19.4222 35.9394 19.9506 35.9001C20.2207 35.885 20.4909 35.8798 20.7614 35.885C20.7614 36.4599 20.7614 37.0348 20.7614 37.6096C21.4682 37.6096 22.175 37.6096 22.8818 37.6096C22.8818 37.0348 22.8818 36.4599 22.8818 35.885C23.0585 35.885 23.2352 35.885 23.4119 35.885C23.4119 36.4599 23.4119 37.0348 23.4119 37.6096C23.8277 37.6096 24.2435 37.6096 24.6592 37.6096C24.6592 37.0348 24.6592 36.4599 24.6592 35.885C24.836 35.885 25.0126 35.885 25.1893 35.885C25.1893 36.4599 25.1893 37.0348 25.1893 37.6096C25.5427 37.6096 25.8962 37.6096 26.2496 37.6096C26.2496 36.6414 26.2496 35.6732 26.2496 34.705ZM20.0442 36.3086C20.1169 36.3086 20.1897 36.3086 20.2625 36.3086C20.2625 36.7422 20.2625 37.1761 20.2625 37.6096C19.4583 37.6835 19.1933 37.3506 19.4673 36.6112C19.6195 36.4339 19.8118 36.3331 20.0442 36.3086Z" fill="currentColor"/>
</g>
<g id="Group_37">
<path id="Vector_37" opacity="0.965" fill-rule="evenodd" clip-rule="evenodd" d="M27.4961 34.705C27.6624 34.705 27.8287 34.705 27.995 34.705C27.995 35.8145 27.995 36.9237 27.995 38.0332C27.8287 38.0332 27.6624 38.0332 27.4961 38.0332C27.4961 36.9237 27.4961 35.8145 27.4961 34.705Z" fill="currentColor"/>
</g>
<g id="Group_38">
<path id="Vector_38" opacity="0.94" fill-rule="evenodd" clip-rule="evenodd" d="M43.025 34.705C43.1912 34.705 43.3577 34.705 43.5239 34.705C43.5239 35.8145 43.5239 36.9237 43.5239 38.0332C43.0041 38.0384 42.4843 38.0332 41.9648 38.0181C41.7749 37.9791 41.6034 37.9034 41.4503 37.7912C41.2893 37.9119 41.1076 37.9876 40.9046 38.0181C39.9067 38.0384 38.9089 38.0384 37.911 38.0181C37.7015 37.986 37.53 37.8901 37.3965 37.7307C37.2733 37.8838 37.1121 37.9797 36.9132 38.0181C34.3562 38.0332 31.7992 38.0384 29.2422 38.0332C29.2422 37.8919 29.2422 37.7509 29.2422 37.6096C29.7827 37.6096 30.3232 37.6096 30.8637 37.6096C30.8822 37.3325 30.8562 37.0602 30.7857 36.7927C30.6758 36.6157 30.5147 36.5098 30.3024 36.475C30.0219 36.4599 29.7413 36.4547 29.4605 36.4599C29.4605 36.3186 29.4605 36.1776 29.4605 36.0363C29.7829 36.0311 30.1051 36.0363 30.4271 36.0514C30.9084 36.1155 31.215 36.3727 31.347 36.823C31.3845 37.0841 31.4001 37.3461 31.3938 37.6096C32.2046 37.6148 33.0153 37.6096 33.8261 37.5945C33.7674 37.5044 33.7207 37.4087 33.6857 37.3071C33.6312 37.0629 33.5688 36.8208 33.4986 36.5809C33.3767 36.3276 33.174 36.2317 32.8906 36.2935C32.7222 36.3158 32.5663 36.3715 32.4228 36.4599C32.3658 36.3491 32.3087 36.2384 32.2513 36.127C32.2279 36.0926 32.2332 36.0623 32.2669 36.0363C32.6894 35.8414 33.126 35.8063 33.5766 35.9304C33.7681 36.0239 33.8978 36.17 33.9664 36.3691C34.0422 36.6281 34.1045 36.8904 34.1535 37.1558C34.1959 37.3089 34.2636 37.4499 34.3562 37.5794C34.8027 37.6096 35.2496 37.6196 35.697 37.6096C35.697 37.075 35.697 36.5407 35.697 36.006C35.8632 36.006 36.0297 36.006 36.196 36.006C36.196 36.5407 36.196 37.075 36.196 37.6096C36.3731 37.6148 36.5496 37.6096 36.7261 37.5945C36.9116 37.5458 37.0207 37.4296 37.0535 37.2466C37.0691 36.8332 37.0744 36.4196 37.0691 36.006C37.2353 36.006 37.4018 36.006 37.568 36.006C37.5627 36.4499 37.568 36.8938 37.5836 37.3373C37.78 37.573 38.0345 37.6638 38.3476 37.6096C38.3476 37.0348 38.3476 36.4599 38.3476 35.885C38.5138 35.885 38.6803 35.885 38.8465 35.885C38.8465 36.4599 38.8465 37.0348 38.8465 37.6096C39.1686 37.6096 39.491 37.6096 39.8132 37.6096C39.8079 37.2968 39.8132 36.9842 39.8287 36.6717C39.9463 36.1755 40.2687 35.9234 40.7954 35.9152C41.4453 35.9609 41.7727 36.2989 41.7777 36.9289C41.782 37.0838 41.7611 37.2351 41.7153 37.3827C41.7923 37.5059 41.9065 37.5767 42.0583 37.5945C42.3804 37.6096 42.7026 37.6148 43.025 37.6096C43.025 36.6414 43.025 35.6732 43.025 34.705ZM40.7175 36.3388C41.0804 36.3733 41.2675 36.57 41.2787 36.9289C41.2089 37.4853 40.8868 37.7122 40.3121 37.6096C40.2999 37.3152 40.3155 37.0227 40.3589 36.7322C40.4094 36.5373 40.5288 36.406 40.7175 36.3388Z" fill="currentColor"/>
</g>
<g id="Group_39">
<path id="Vector_39" opacity="0.965" fill-rule="evenodd" clip-rule="evenodd" d="M44.2422 34.705C44.4084 34.705 44.5749 34.705 44.7411 34.705C44.7411 35.8145 44.7411 36.9237 44.7411 38.0332C44.5749 38.0332 44.4084 38.0332 44.2422 38.0332C44.2422 36.9237 44.2422 35.8145 44.2422 34.705Z" fill="currentColor"/>
</g>
<g id="Group_40">
<path id="Vector_40" opacity="0.965" fill-rule="evenodd" clip-rule="evenodd" d="M52.2852 34.705C52.4514 34.705 52.6179 34.705 52.7841 34.705C52.7841 35.8145 52.7841 36.9237 52.7841 38.0332C52.6179 38.0332 52.4514 38.0332 52.2852 38.0332C52.2852 36.9237 52.2852 35.8145 52.2852 34.705Z" fill="currentColor"/>
</g>
<g id="Group_41">
<path id="Vector_41" opacity="0.931" fill-rule="evenodd" clip-rule="evenodd" d="M59.8642 34.705C60.041 34.705 60.2175 34.705 60.3943 34.705C60.3943 35.8145 60.3943 36.9237 60.3943 38.0332C58.4195 38.0332 56.4444 38.0332 54.4696 38.0332C54.5148 38.7912 54.1512 39.1289 53.3782 39.0469C53.2456 39.023 53.1312 38.9676 53.0352 38.8804C53.0903 38.7755 53.1421 38.6696 53.1911 38.5627C53.3398 38.616 53.4957 38.6363 53.6588 38.6233C53.7757 38.5803 53.864 38.5047 53.9239 38.3963C53.9697 37.5606 53.9853 36.7237 53.9706 35.885C54.1368 35.885 54.3034 35.885 54.4696 35.885C54.4696 36.4599 54.4696 37.0348 54.4696 37.6096C55.6754 37.6196 56.8812 37.6096 58.0868 37.5794C58.0316 37.4823 57.9848 37.3812 57.9464 37.2768C57.8919 37.0326 57.8295 36.7906 57.7593 36.5506C57.6692 36.3676 57.5183 36.2768 57.3072 36.2783C57.0895 36.2932 56.8869 36.3537 56.6991 36.4599C56.6259 36.337 56.5582 36.2109 56.4964 36.0817C56.75 35.9168 57.0306 35.8411 57.3384 35.8547C57.8417 35.829 58.1585 36.0508 58.2895 36.5204C58.3322 36.8199 58.4051 37.1125 58.5077 37.3978C58.5352 37.4765 58.582 37.5422 58.6481 37.5945C59.0534 37.6096 59.4588 37.6148 59.8642 37.6096C59.8642 36.6414 59.8642 35.6732 59.8642 34.705Z" fill="currentColor"/>
</g>
<g id="Group_42">
<path id="Vector_42" opacity="0.908" fill-rule="evenodd" clip-rule="evenodd" d="M61.082 34.705C61.2588 34.705 61.4353 34.705 61.6121 34.705C61.6121 35.8145 61.6121 36.9237 61.6121 38.0332C61.4353 38.0332 61.2588 38.0332 61.082 38.0332C61.082 36.9237 61.082 35.8145 61.082 34.705Z" fill="currentColor"/>
</g>
<g id="Group_43">
<path id="Vector_43" opacity="0.934" fill-rule="evenodd" clip-rule="evenodd" d="M76.0498 34.705C76.2266 34.705 76.4031 34.705 76.5799 34.705C76.5799 35.8145 76.5799 36.9237 76.5799 38.0332C76.1016 38.0384 75.6236 38.0332 75.1455 38.0181C74.9556 37.9791 74.7841 37.9034 74.631 37.7912C74.4701 37.9119 74.2883 37.9876 74.0853 38.0181C73.0875 38.0384 72.0896 38.0384 71.0918 38.0181C70.8822 37.986 70.7107 37.8901 70.5773 37.7307C70.4541 37.8838 70.2929 37.9797 70.0939 38.0181C67.7031 38.0332 65.3127 38.0384 62.9219 38.0332C62.9219 37.8919 62.9219 37.7509 62.9219 37.6096C63.452 37.6096 63.9821 37.6096 64.5122 37.6096C64.5175 37.3776 64.5122 37.1455 64.4966 36.9137C64.4112 36.6575 64.2294 36.5113 63.9509 36.475C63.6706 36.4599 63.3899 36.4547 63.109 36.4599C63.109 36.3186 63.109 36.1776 63.109 36.0363C63.4314 36.0311 63.7535 36.0363 64.0756 36.0514C64.5303 36.1095 64.8371 36.3467 64.9955 36.7624C65.0389 37.0429 65.0545 37.3252 65.0423 37.6096C65.8637 37.6148 66.6847 37.6096 67.5057 37.5945C67.4415 37.5186 67.3947 37.4329 67.3654 37.3373C67.3006 37.0629 67.2279 36.7906 67.1471 36.5204C67.0021 36.3086 66.7995 36.2329 66.5391 36.2935C66.3785 36.3252 66.2279 36.3806 66.0869 36.4599C65.9974 36.3252 65.9507 36.1839 65.9466 36.0363C66.3348 35.8532 66.7402 35.8078 67.1627 35.9001C67.4359 36.0139 67.6074 36.2106 67.6773 36.4901C67.7268 36.7882 67.7995 37.0808 67.8955 37.3676C67.9305 37.4508 67.9772 37.5264 68.0359 37.5945C68.3162 37.6096 68.5968 37.6148 68.8778 37.6096C68.8778 37.075 68.8778 36.5407 68.8778 36.006C69.044 36.006 69.2105 36.006 69.3767 36.006C69.3767 36.5407 69.3767 37.075 69.3767 37.6096C69.5538 37.6148 69.7303 37.6096 69.9068 37.5945C70.0924 37.5458 70.2015 37.4296 70.2342 37.2466C70.2498 36.8332 70.2551 36.4196 70.2498 36.006C70.416 36.006 70.5826 36.006 70.7488 36.006C70.7435 36.4499 70.7488 36.8938 70.7643 37.3373C70.9608 37.573 71.2153 37.6638 71.5283 37.6096C71.5283 37.0348 71.5283 36.4599 71.5283 35.885C71.6945 35.885 71.861 35.885 72.0273 35.885C72.0273 36.4599 72.0273 37.0348 72.0273 37.6096C72.3494 37.6096 72.6718 37.6096 72.9939 37.6096C72.9886 37.2968 72.9939 36.9842 73.0095 36.6717C73.1271 36.1755 73.4495 35.9234 73.9762 35.9152C74.626 35.9609 74.9534 36.2989 74.9584 36.9289C74.9628 37.0838 74.9419 37.2351 74.8961 37.3827C74.9731 37.5059 75.0872 37.5767 75.2391 37.5945C75.5091 37.6096 75.7795 37.6148 76.0498 37.6096C76.0498 36.6414 76.0498 35.6732 76.0498 34.705ZM73.8982 36.3388C74.2612 36.3733 74.4483 36.57 74.4595 36.9289C74.3897 37.4853 74.0675 37.7122 73.4928 37.6096C73.4807 37.3152 73.4963 37.0227 73.5396 36.7322C73.5901 36.5373 73.7096 36.406 73.8982 36.3388Z" fill="currentColor"/>
</g>
<g id="Group_44">
<path id="Vector_44" opacity="0.908" fill-rule="evenodd" clip-rule="evenodd" d="M77.7957 34.705C77.7957 35.8145 77.7957 36.9237 77.7957 38.0332C77.6189 38.0332 77.4424 38.0332 77.2656 38.0332C77.2656 36.9237 77.2656 35.8145 77.2656 34.705C77.4424 34.705 77.6189 34.705 77.7957 34.705Z" fill="currentColor"/>
</g>
<g id="Group_45">
<path id="Vector_45" opacity="0.875" fill-rule="evenodd" clip-rule="evenodd" d="M24.7818 34.9471C25.1142 34.9117 25.2441 35.0527 25.1716 35.3707C25.0812 35.5114 24.9513 35.5568 24.7818 35.5069C24.6434 35.4167 24.5966 35.2908 24.6415 35.1286C24.6602 35.0454 24.7069 34.9849 24.7818 34.9471Z" fill="currentColor"/>
</g>
<g id="Group_46">
<path id="Vector_46" opacity="0.931" fill-rule="evenodd" clip-rule="evenodd" d="M50.2906 35.8547C51.1144 35.822 51.5042 36.2054 51.4599 37.0045C51.4094 37.5579 51.1026 37.8756 50.54 37.9576C50.1761 37.9676 49.8126 37.9779 49.4487 37.9878C49.3604 38.013 49.303 38.0686 49.2771 38.1543C49.2616 38.5576 49.2563 38.9609 49.2616 39.3645C49.0953 39.3645 48.9288 39.3645 48.7626 39.3645C48.7489 38.8686 48.7645 38.3745 48.8094 37.8819C48.9516 37.6238 49.1752 37.5128 49.4798 37.5491C49.4745 37.2665 49.4798 36.9842 49.4954 36.7019C49.5718 36.2499 49.8369 35.9673 50.2906 35.8547ZM50.3841 36.2783C50.7047 36.2713 50.8865 36.4226 50.9298 36.7322C51.0153 37.1776 50.8335 37.4447 50.3841 37.534C50.2494 37.5491 50.1144 37.5543 49.9788 37.5491C49.9678 37.265 49.9834 36.9827 50.0255 36.7019C50.0651 36.4922 50.1846 36.3509 50.3841 36.2783Z" fill="currentColor"/>
</g>
<g id="Group_47">
<path id="Vector_47" opacity="0.924" fill-rule="evenodd" clip-rule="evenodd" d="M17.5182 35.8851C17.8167 35.8466 18.0869 35.912 18.329 36.0817C18.2678 36.1852 18.2107 36.2911 18.1575 36.3994C18.136 36.4255 18.11 36.4454 18.0795 36.4599C17.5437 36.2811 17.1799 36.4527 16.9881 36.9743C17.0296 37.1102 17.1128 37.2161 17.2376 37.292C17.4354 37.3979 17.6225 37.5189 17.7989 37.6551C18.1344 37.9813 18.1812 38.3392 17.9392 38.7292C17.7468 38.889 17.5233 38.9849 17.2687 39.0167C16.749 39.0369 16.2293 39.0369 15.7096 39.0167C15.3027 38.9244 15.0688 38.6772 15.008 38.2754C14.9678 37.9044 15.0042 37.5413 15.1171 37.1861C15.2847 37.1761 15.451 37.1864 15.6161 37.2164C15.5106 37.5211 15.4742 37.8336 15.5069 38.1543C15.548 38.3755 15.6779 38.522 15.8967 38.5931C16.3125 38.6133 16.7283 38.6133 17.144 38.5931C17.3237 38.564 17.464 38.4784 17.565 38.3359C17.587 38.2612 17.5766 38.1907 17.5338 38.1241C17.3453 37.9444 17.1323 37.7982 16.8946 37.6854C16.493 37.4251 16.3839 37.0772 16.5671 36.6415C16.7791 36.2587 17.0961 36.0067 17.5182 35.8851Z" fill="currentColor"/>
</g>
<g id="Group_48">
<path id="Vector_48" opacity="0.937" fill-rule="evenodd" clip-rule="evenodd" d="M46.642 35.885C46.9018 35.885 47.1619 35.885 47.4216 35.885C47.4269 36.7122 47.4216 37.5392 47.406 38.3661C47.3109 38.761 47.0562 38.9879 46.642 39.0469C46.3121 39.0859 45.99 39.0557 45.6754 38.9561C45.6015 38.9304 45.5391 38.8902 45.4883 38.8351C45.5322 38.6935 45.6102 38.5776 45.7222 38.4871C46.0552 38.6626 46.3929 38.6777 46.7356 38.5325C46.8871 38.3991 46.9495 38.2327 46.9227 38.0333C45.7533 38.1243 45.3115 37.62 45.5974 36.5204C45.8332 36.1361 46.1815 35.9243 46.642 35.885ZM46.7044 36.3086C46.7771 36.3086 46.85 36.3086 46.9227 36.3086C46.9227 36.7422 46.9227 37.1761 46.9227 37.6097C46.217 37.7168 45.9311 37.4342 46.0652 36.7625C46.1833 36.4811 46.3966 36.3298 46.7044 36.3086Z" fill="currentColor"/>
</g>
<g id="Group_49">
<path id="Vector_49" opacity="0.891" fill-rule="evenodd" clip-rule="evenodd" d="M22.9763 38.3963C23.3407 38.357 23.4707 38.5083 23.3661 38.8502C23.1998 39.0115 23.0335 39.0115 22.8672 38.8502C22.8464 38.7392 22.8464 38.6284 22.8672 38.5174C22.8887 38.4614 22.925 38.4212 22.9763 38.3963Z" fill="currentColor"/>
</g>
<g id="Group_50">
<path id="Vector_50" opacity="0.891" fill-rule="evenodd" clip-rule="evenodd" d="M33.3275 38.3963C33.6599 38.3609 33.7899 38.5019 33.7173 38.8199C33.638 38.9582 33.5186 39.0036 33.3586 38.9561C33.1594 38.8269 33.1229 38.6605 33.2495 38.4568C33.2804 38.4396 33.3066 38.4196 33.3275 38.3963Z" fill="currentColor"/>
</g>
<g id="Group_51">
<path id="Vector_51" opacity="0.894" fill-rule="evenodd" clip-rule="evenodd" d="M66.6015 38.3964C66.9657 38.3565 67.0957 38.5077 66.9913 38.8503C66.8441 38.9976 66.6882 39.0076 66.5235 38.8805C66.4412 38.6984 66.4671 38.5371 66.6015 38.3964Z" fill="currentColor"/>
</g>
<g id="Group_52">
<path id="Vector_52" opacity="0.881" fill-rule="evenodd" clip-rule="evenodd" d="M16.179 40.0001C16.0958 40.0001 16.0127 40.0001 15.9295 40.0001C15.7501 39.8451 15.7293 39.6687 15.8672 39.4706C16.2287 39.3574 16.3794 39.4836 16.3193 39.8488C16.2874 39.915 16.2406 39.9653 16.179 40.0001Z" fill="currentColor"/>
</g>
<g id="Group_53">
<path id="Vector_53" opacity="0.88" fill-rule="evenodd" clip-rule="evenodd" d="M16.9576 40C16.8745 40 16.7913 40 16.7082 40C16.5619 39.8959 16.5151 39.7546 16.5678 39.5764C16.6197 39.4681 16.7081 39.4176 16.8329 39.4251C16.9734 39.4151 17.0617 39.4757 17.0979 39.6067C17.1378 39.7707 17.091 39.9017 16.9576 40Z" fill="currentColor"/>
</g>
</g>
<defs>
<clipPath id="clip0_463_68515">
<rect width="77.3333" height="40" fill="currentColor" transform="translate(0.460938)"/>
</clipPath>
</defs>
</svg>
