<svg width="81" height="40" viewBox="0 0 81 40" fill="none" xmlns="http://www.w3.org/2000/svg">
<g id="Simplification" clip-path="url(#clip0_463_68495)">
<g id="Vector">
<path d="M39.2053 15.1184C39.3476 15.1178 39.3476 15.1178 39.4928 15.1172C42.4265 15.1105 45.6045 15.3869 47.8229 17.5818C48.8327 18.677 49.303 20.0734 49.2757 21.5664C49.2027 22.8238 48.7983 24.0495 47.9446 24.9891C47.2569 25.6039 46.478 26.118 45.6534 26.5181C45.7117 26.5478 45.77 26.5774 45.8301 26.608C46.0998 26.7461 46.3683 26.8863 46.637 27.0265C46.7287 27.0731 46.8204 27.1197 46.9149 27.1677C48.4595 27.9795 49.3556 29.1954 49.9157 30.8635C50.34 32.7475 50.0464 34.6973 49.0529 36.3323C47.717 38.2198 45.8117 39.1039 43.6452 39.5822C43.5316 39.6074 43.5316 39.6074 43.4157 39.6332C41.7135 39.9787 40.0113 40.036 38.281 40.029C37.9303 40.0279 37.5796 40.029 37.2289 40.0305C33.6511 40.0328 33.6511 40.0328 32.2107 39.6657C32.2107 31.7604 32.2107 23.8552 32.2107 15.7103C33.0528 15.4957 33.8505 15.3847 34.7107 15.3064C34.7898 15.2991 34.8689 15.2918 34.9503 15.2843C36.3683 15.1576 37.7822 15.1197 39.2053 15.1184ZM37.6752 19.3872C37.6752 21.2256 37.6752 23.0641 37.6752 24.9582C40.6239 25.0901 40.6239 25.0901 43.1021 23.787C43.6457 23.1732 43.7455 22.5132 43.7263 21.7135C43.6444 21.0589 43.3976 20.5283 42.9267 20.0722C41.9327 19.3336 40.8033 19.2234 39.6083 19.2479C39.437 19.2488 39.437 19.2488 39.2623 19.2497C38.7112 19.2554 38.2239 19.2939 37.6752 19.3872ZM37.6752 28.9694C37.6752 31.2123 37.6752 33.4552 37.6752 35.766C39.0551 36.2349 41.0375 35.9675 42.3747 35.4318C43.2042 35.0045 43.8827 34.3607 44.192 33.4458C44.3531 32.4831 44.3524 31.5027 43.8535 30.6494C43.1292 29.6472 42.0315 29.2344 40.8515 29.046C39.7962 28.9542 38.7343 28.9694 37.6752 28.9694Z" fill="currentColor"/>
<path d="M26.8556 6.68524C26.8556 14.4802 26.8556 22.2752 26.8556 30.3064C25.7465 29.9295 25.7465 29.9295 25.2828 29.7145C25.1794 29.6666 25.0761 29.6187 24.9696 29.5694C24.8616 29.5185 24.7537 29.4675 24.6424 29.415C24.5279 29.3611 24.4134 29.3071 24.2954 29.2516C18.4167 26.4555 13.3895 22.3685 8.81593 17.7228C8.7197 17.6252 8.62346 17.5277 8.5243 17.4271C8.04 16.9321 7.57135 16.4302 7.12475 15.8997C6.99283 15.7434 6.85644 15.5912 6.71894 15.44C6.62427 15.336 6.62427 15.336 6.52768 15.2298C6.46231 15.159 6.39694 15.0882 6.3296 15.0152C6.28677 14.9505 6.24394 14.8857 6.19981 14.8189C6.3091 14.4847 6.3091 14.4847 6.61677 14.3011C6.75542 14.233 6.89469 14.1662 7.03443 14.1004C7.11025 14.0637 7.18608 14.0269 7.2642 13.9891C7.51673 13.8674 7.77008 13.7477 8.02358 13.6281C8.11104 13.5865 8.1985 13.5449 8.28861 13.502C13.9711 10.799 19.8354 8.65581 25.8698 6.93071C25.9572 6.90571 26.0445 6.88071 26.1345 6.85496C26.7328 6.68524 26.7328 6.68524 26.8556 6.68524Z" fill="currentColor"/>
<path d="M0.298174 0C9.06211 0 17.826 0 26.8556 0C26.8556 1.7649 26.8556 3.5298 26.8556 5.34819C24.9645 5.95066 24.9645 5.95066 24.0876 6.19742C18.2133 7.85475 12.5418 10.1118 7.05492 12.8103C6.94857 12.8625 6.84222 12.9147 6.73265 12.9684C6.53307 13.0667 6.33379 13.1656 6.13487 13.2652C6.04712 13.3086 5.95937 13.3519 5.86896 13.3966C5.79261 13.4348 5.71626 13.4729 5.6376 13.5122C5.43479 13.5933 5.43479 13.5933 5.10692 13.5933C4.902 13.38 4.902 13.38 4.66976 13.078C4.58241 12.9654 4.49507 12.8528 4.40507 12.7368C4.35893 12.6763 4.3128 12.6158 4.26526 12.5535C4.12508 12.37 3.98353 12.1877 3.84155 12.0056C3.29129 11.2982 2.74978 10.5839 2.21074 9.86769C2.15774 9.79743 2.10473 9.72718 2.05012 9.6548C-0.733137 5.94384 0.298174 6.8108 0.298174 0Z" fill="currentColor"/>
<path d="M71.6643 16.0446C71.33 17.5383 70.9558 19.0203 70.5714 20.5014C70.1404 20.4168 69.7282 20.3033 69.3077 20.1741C66.8725 19.4695 64.2365 19.4116 61.9375 20.6128C60.3232 21.5912 59.2781 23.0082 58.7399 24.8411C58.1941 27.1286 58.2428 29.851 59.4215 31.9447C60.4394 33.6415 61.8868 34.6266 63.7617 35.1562C66.0586 35.6357 68.3385 35.2343 70.5714 34.6518C70.6807 35.2327 70.7897 35.8137 70.8983 36.3948C70.9353 36.5925 70.9724 36.7902 71.0096 36.9878C71.063 37.2718 71.1161 37.5558 71.1691 37.8399C71.1858 37.9284 71.2025 38.0168 71.2198 38.1079C71.2827 38.4466 71.3364 38.7631 71.3364 39.1086C69.4925 39.9028 67.6287 40.076 65.6458 40.0642C65.2856 40.0627 64.9257 40.0665 64.5656 40.0707C61.3238 40.0826 58.1552 39.1374 55.8092 36.7701C55.7022 36.6587 55.5956 36.5468 55.4894 36.4345C55.4008 36.341 55.3122 36.2475 55.2209 36.1512C53.0281 33.6259 52.3605 30.1311 52.5386 26.8524C52.7385 23.7123 53.8338 20.8272 56.0359 18.6072C56.1775 18.4612 56.1775 18.4612 56.3219 18.3121C59.9566 14.7385 67.1473 13.6567 71.6643 16.0446Z" fill="currentColor"/>
<path d="M4.99763 15.2646C5.14406 15.4126 5.14406 15.4126 5.31867 15.6267C5.79923 16.2027 6.30064 16.7581 6.80331 17.3139C6.964 17.4921 7.12395 17.6709 7.28375 17.8499C8.25099 18.9305 9.23411 20.0076 10.3298 20.9549C10.5978 21.1934 10.8567 21.4404 11.1159 21.6887C11.8223 22.365 12.545 23.0058 13.3036 23.6212C13.4283 23.7249 13.5528 23.8288 13.6772 23.9328C14.685 24.7712 15.7284 25.5454 16.8009 26.2953C16.869 26.3432 16.9372 26.3911 17.0074 26.4405C19.7706 28.3791 22.7236 29.9919 25.8198 31.3051C26.166 31.4528 26.5106 31.6042 26.8556 31.7549C26.8556 32.9315 26.8556 34.1081 26.8556 35.3203C26.1953 35.253 25.6155 35.1932 24.9806 35.05C24.9098 35.0341 24.839 35.0182 24.766 35.0017C24.5333 34.9488 24.301 34.8945 24.0687 34.8398C23.9869 34.8207 23.905 34.8015 23.8207 34.7818C15.8308 32.8991 8.07501 29.9101 1.06915 25.5434C0.840185 25.3951 0.840185 25.3951 0.562327 25.2713C0.298175 25.0696 0.298175 25.0696 0.225108 24.759C0.223025 24.6331 0.220942 24.5072 0.218796 24.3775C0.215309 24.2347 0.211823 24.0918 0.208231 23.9447C0.207396 23.7885 0.206787 23.6324 0.206388 23.4762C0.204632 23.3159 0.202794 23.1556 0.200877 22.9953C0.197604 22.6592 0.196593 22.3231 0.196916 21.9869C0.196972 21.557 0.189522 21.1275 0.180101 20.6977C0.174009 20.3665 0.172917 20.0354 0.173206 19.7041C0.172563 19.5457 0.170155 19.3873 0.16592 19.229C0.154119 18.7422 0.160851 18.2955 0.298175 17.8273C0.621213 17.4929 0.967612 17.3316 1.39107 17.1588C1.50747 17.0922 1.62386 17.0256 1.74378 16.957C1.84308 16.9026 1.94237 16.8483 2.04467 16.7923C2.15604 16.7311 2.26741 16.6699 2.38215 16.6069C2.49464 16.5454 2.60714 16.4839 2.72304 16.4206C2.95006 16.2962 3.17703 16.1717 3.40396 16.0472C3.5094 15.9894 3.61483 15.9316 3.72345 15.8721C3.97287 15.7332 4.21862 15.5899 4.46356 15.4431C4.77905 15.2646 4.77905 15.2646 4.99763 15.2646Z" fill="currentColor"/>
<path d="M0.298174 26.5181C1.05555 26.9593 1.05555 26.9593 1.82823 27.4095C9.3999 31.7903 17.6403 34.8198 26.182 36.5346C26.7358 36.6467 26.7358 36.6467 26.8556 36.7688C26.8556 37.7616 26.8556 38.7543 26.8556 39.7772C18.0916 39.7772 9.32768 39.7772 0.298174 39.7772C0.298174 35.4017 0.298174 31.0262 0.298174 26.5181Z" fill="currentColor"/>
<path d="M74.8337 15.376C76.637 15.376 78.4403 15.376 80.2982 15.376C80.2982 23.4284 80.2982 31.4808 80.2982 39.7772C78.4949 39.7772 76.6916 39.7772 74.8337 39.7772C74.8337 31.7248 74.8337 23.6724 74.8337 15.376Z" fill="currentColor"/>
<path d="M0.298174 9.47075C0.912047 10.0966 0.912047 10.0966 1.15883 10.4339C1.21393 10.5085 1.26903 10.5831 1.32581 10.6599C1.38341 10.7386 1.44101 10.8173 1.50036 10.8983C2.05836 11.6528 2.63187 12.3912 3.22423 13.118C3.28002 13.1869 3.33581 13.2559 3.39329 13.3269C3.44205 13.3867 3.49082 13.4464 3.54106 13.5079C3.71835 13.7484 3.86561 14.002 4.01402 14.2618C3.24162 14.7425 2.45854 15.1987 1.66429 15.6407C1.50242 15.7318 1.50242 15.7318 1.33728 15.8248C1.23444 15.8821 1.13159 15.9394 1.02563 15.9984C0.933004 16.0502 0.840375 16.102 0.744939 16.1553C0.516754 16.2674 0.516754 16.2674 0.298174 16.2674C0.298174 14.0245 0.298174 11.7816 0.298174 9.47075Z" fill="currentColor"/>
<path d="M31.7874 0.571171C32.1609 0.19039 32.6117 0 33.1397 0C33.6678 0 34.1185 0.19039 34.492 0.571171C34.8655 0.951952 35.0523 1.41152 35.0523 1.94986C35.0523 2.48821 34.8655 2.94777 34.492 3.32855C34.1185 3.70933 33.6678 3.89972 33.1397 3.89972C32.6117 3.89972 32.1609 3.70933 31.7874 3.32855C31.4139 2.94777 31.2271 2.48821 31.2271 1.94986C31.2271 1.41152 31.4139 0.951952 31.7874 0.571171ZM32.045 3.06594C32.3455 3.37232 32.7104 3.52551 33.1397 3.52551C33.569 3.52551 33.9318 3.37232 34.228 3.06594C34.5285 2.75957 34.6788 2.38754 34.6788 1.94986C34.6788 1.51218 34.5285 1.14234 34.228 0.840344C33.9318 0.533969 33.569 0.380781 33.1397 0.380781C32.7104 0.380781 32.3455 0.533969 32.045 0.840344C31.7445 1.14234 31.5942 1.51218 31.5942 1.94986C31.5942 2.38754 31.7445 2.75957 32.045 3.06594ZM33.8738 1.54938C33.8738 1.82512 33.7558 2.00895 33.5196 2.10086L33.9575 2.9609H33.584L33.1655 2.15338H32.8499V2.9609H32.5022V0.945387H33.2299C33.4316 0.945387 33.5883 1.0001 33.7 1.10952C33.8159 1.21456 33.8738 1.36118 33.8738 1.54938ZM33.217 1.25395H32.8499V1.84482H33.217C33.3114 1.84482 33.3866 1.81856 33.4424 1.76604C33.5025 1.71351 33.5325 1.6413 33.5325 1.54938C33.5325 1.45747 33.5025 1.38525 33.4424 1.33273C33.3866 1.28021 33.3114 1.25395 33.217 1.25395Z" fill="currentColor"/>
</g>
</g>
<defs>
<clipPath id="clip0_463_68495">
<rect width="80" height="40" fill="currentColor" transform="translate(0.298828)"/>
</clipPath>
</defs>
</svg>
