<svg width="41" height="40" viewBox="0 0 41 40" fill="none" xmlns="http://www.w3.org/2000/svg">
<path d="M18.7038 3.3335C14.475 3.3335 11.0469 6.76161 11.0469 10.9904C11.0469 15.2192 14.475 18.6473 18.7038 18.6473C22.9326 18.6473 26.3606 15.2192 26.3606 10.9904C26.3606 6.76161 22.9326 3.3335 18.7038 3.3335Z" fill="currentColor"/>
<path d="M18.8136 22.0435C19.1032 21.5416 18.7167 20.8076 18.1372 20.8076H16.544C10.3281 20.8076 5.28906 25.8466 5.28906 32.0624C5.28906 34.6053 7.3504 36.6666 9.89316 36.6666H20.9466C21.5132 36.6666 21.4621 36.1193 20.9544 35.8678C20.2266 35.5071 19.5936 34.9351 19.1571 34.179L18.0989 32.3461C17.3567 31.0608 17.3592 29.5501 17.9724 28.3131C18.1274 28.0005 18.1274 27.6279 17.9724 27.3151C17.3591 26.0781 17.3566 24.5673 18.0986 23.2818L18.8136 22.0435Z" fill="currentColor"/>
<path fill-rule="evenodd" clip-rule="evenodd" d="M27.0082 19.4741C26.0637 19.4741 25.2979 20.24 25.2979 21.1845V21.1988C25.2979 21.5275 25.1022 21.8215 24.8139 21.9795C24.7515 22.0138 24.6899 22.0488 24.6287 22.085C24.3492 22.2501 24.0015 22.27 23.7204 22.1076L23.71 22.1016C22.8919 21.6293 21.8459 21.9096 21.3735 22.7276L20.3154 24.5605C19.843 25.3786 20.1234 26.4246 20.9414 26.897C21.2142 27.0545 21.3654 27.357 21.3589 27.672C21.3579 27.7188 21.3574 27.7658 21.3574 27.813C21.3574 27.8608 21.3579 27.9085 21.3589 27.9561C21.3655 28.271 21.2144 28.5736 20.9415 28.731C20.1235 29.2033 19.8432 30.2495 20.3155 31.0675L21.3737 32.9003C21.846 33.7183 22.8922 33.9986 23.7102 33.5263L23.7222 33.5195C24.0034 33.3571 24.3509 33.377 24.6304 33.542C24.6909 33.5776 24.752 33.6125 24.8139 33.6465C25.1022 33.8045 25.2979 34.0985 25.2979 34.4273V34.4435C25.2979 35.388 26.0637 36.1538 27.0082 36.1538H29.1247C30.0692 36.1538 30.835 35.388 30.835 34.4435V34.3595C30.835 34.0368 31.0237 33.7471 31.3039 33.5868C31.3474 33.5618 31.3907 33.5363 31.4339 33.5105C31.7144 33.3411 32.0655 33.3195 32.3492 33.4833L32.4239 33.5263C33.242 33.9986 34.288 33.7183 34.7604 32.9003L35.8185 31.0675C36.2909 30.2495 36.0105 29.2033 35.1925 28.731L35.088 28.6708C34.8074 28.5086 34.6507 28.1986 34.6537 27.8745C34.6539 27.854 34.6539 27.8335 34.6539 27.813C34.6539 27.7931 34.6539 27.7731 34.6537 27.7533C34.6509 27.4293 34.8075 27.1193 35.088 26.9573L35.1927 26.897C36.0107 26.4246 36.291 25.3786 35.8187 24.5605L34.7605 22.7276C34.2882 21.9096 33.2422 21.6293 32.4242 22.1016L32.351 22.1438C32.0672 22.3076 31.716 22.2858 31.4354 22.1165C31.3919 22.0903 31.348 22.0645 31.3039 22.0391C31.0237 21.8788 30.835 21.5891 30.835 21.2665V21.1845C30.835 20.24 30.0692 19.4741 29.1247 19.4741H27.0082ZM31.5167 27.814C31.5167 29.719 29.9724 31.2635 28.0672 31.2635C26.1622 31.2635 24.6179 29.719 24.6179 27.814C24.6179 25.909 26.1622 24.3645 28.0672 24.3645C29.9724 24.3645 31.5167 25.909 31.5167 27.814Z" fill="currentColor"/>
</svg>
