<svg width="41" height="40" viewBox="0 0 41 40" fill="none" xmlns="http://www.w3.org/2000/svg">
<path d="M13.0166 33H13.2237L13.3702 32.8536L14.4021 31.8216C14.8346 32.118 15.2998 32.3653 15.7895 32.5552L14.0644 34.2802C13.9236 34.421 13.7333 34.5 13.5342 34.5H10.4376H10.0851L9.96668 34.8321C9.51639 36.095 8.32338 37 6.91797 37C5.12624 37 3.66797 35.5417 3.66797 33.75C3.66797 31.9583 5.12624 30.5 6.91797 30.5C8.32338 30.5 9.51639 31.405 9.96668 32.6679L10.0851 33H10.4376H13.0166Z" fill="currentColor" stroke="currentColor"/>
<path d="M35.168 30.2304V30.5829L35.5001 30.7013C36.763 31.1516 37.668 32.3446 37.668 33.75C37.668 35.5418 36.2097 37 34.418 37C32.6262 37 31.168 35.5418 31.168 33.75C31.168 32.3446 32.073 31.1516 33.3359 30.7013L33.668 30.5829V30.2304V28.0176V27.8105L33.5215 27.6641L31.639 25.7816C32.0729 25.5168 32.4713 25.2036 32.8318 24.8534L34.9482 26.9698C35.0889 27.1105 35.168 27.3013 35.168 27.5V30.2304Z" fill="currentColor" stroke="currentColor"/>
<path d="M33.668 9.76959V9.41703L33.3359 9.29863C32.0729 8.84834 31.168 7.6554 31.168 6.25C31.168 4.45827 32.6262 3 34.418 3C36.2097 3 37.668 4.45827 37.668 6.25C37.668 7.65541 36.763 8.84842 35.5001 9.29871L35.168 9.41711V9.76967V13.75C35.168 13.9861 35.0567 14.2082 34.868 14.3494L34.8675 14.3498L33.2304 15.5775C32.894 15.1932 32.5157 14.8491 32.1014 14.5501L33.468 13.525L33.668 13.375V13.125V9.76959Z" fill="currentColor" stroke="currentColor"/>
<path d="M10.4376 7.5H13.0166L14.3516 8.83499C15.0531 8.28613 15.8602 7.88399 16.7255 7.67372L14.418 5.36621C14.1836 5.13184 13.8662 5 13.5342 5H10.4376C9.91998 3.54813 8.54539 2.5 6.91797 2.5C4.8501 2.5 3.16797 4.18213 3.16797 6.25C3.16797 8.31787 4.8501 10 6.91797 10C8.54539 10 9.91998 8.95187 10.4376 7.5Z" fill="currentColor"/>
<path d="M28.168 15H27.7291C27.0241 13.5273 25.5316 12.5 23.793 12.5C23.5266 12.5 23.2684 12.5328 23.0149 12.5787C22.4845 10.3876 20.5203 8.75 18.168 8.75C16.3253 8.75 14.7306 9.7628 13.8634 11.25H13.168C10.6114 11.25 8.52182 13.1851 8.22733 15.6631C6.70778 16.522 5.66797 18.1335 5.66797 20C5.66797 21.8665 6.70778 23.478 8.22733 24.3369C8.52182 26.8149 10.6114 28.75 13.168 28.75H13.8634C14.7306 30.2372 16.3253 31.25 18.168 31.25C20.5203 31.25 22.4845 29.6124 23.0149 27.4213C23.2684 27.4672 23.5266 27.5 23.793 27.5C25.5316 27.5 27.0241 26.4727 27.7291 25H28.168C30.9255 25 33.168 22.757 33.168 20C33.168 17.243 30.9255 15 28.168 15ZM12.543 12.5C12.8884 12.5 13.168 12.7795 13.168 13.125C13.168 13.4705 12.8884 13.75 12.543 13.75C11.509 13.75 10.668 14.5911 10.668 15.625C10.668 15.9705 10.3884 16.25 10.043 16.25C9.69751 16.25 9.41797 15.9705 9.41797 15.625C9.41797 13.902 10.8193 12.5 12.543 12.5ZM11.918 23.125C11.918 24.1589 12.759 25 13.793 25C14.1384 25 14.418 25.2795 14.418 25.625C14.418 25.9705 14.1384 26.25 13.793 26.25C12.0693 26.25 10.668 24.848 10.668 23.125C10.668 23.103 10.6783 23.0844 10.6805 23.063C9.24959 22.7774 8.16797 21.5134 8.16797 20C8.16797 19.6545 8.44751 19.375 8.79297 19.375C9.13843 19.375 9.41797 19.6545 9.41797 20C9.41797 21.0339 10.259 21.875 11.293 21.875C12.3269 21.875 13.168 21.0339 13.168 20C13.168 19.6545 13.4475 19.375 13.793 19.375C14.1384 19.375 14.418 19.6545 14.418 20C14.418 21.5134 13.3363 22.7774 11.9055 23.063C11.9077 23.0844 11.918 23.103 11.918 23.125ZM21.293 14.375C20.259 14.375 19.418 15.2161 19.418 16.25C19.418 16.5955 19.1384 16.875 18.793 16.875C18.4475 16.875 18.168 16.5955 18.168 16.25C18.168 14.7366 19.2496 13.4726 20.6805 13.187C20.6783 13.1656 20.668 13.147 20.668 13.125C20.668 12.0911 19.8269 11.25 18.793 11.25C18.4475 11.25 18.168 10.9705 18.168 10.625C18.168 10.2795 18.4475 10 18.793 10C20.5166 10 21.918 11.402 21.918 13.125C21.918 13.147 21.9077 13.1656 21.9055 13.187C23.3363 13.4726 24.418 14.7366 24.418 16.25C24.418 16.5955 24.1384 16.875 23.793 16.875C23.4475 16.875 23.168 16.5955 23.168 16.25C23.168 15.2161 22.3269 14.375 21.293 14.375ZM26.8606 23.6926C26.5923 25.1447 25.3222 26.25 23.793 26.25C23.4475 26.25 23.168 25.9705 23.168 25.625C23.168 25.2795 23.4475 25 23.793 25C24.6396 25 25.3486 24.4324 25.5807 23.6605C24.2008 23.3363 23.168 22.1021 23.168 20.625C23.168 20.2795 23.4475 20 23.793 20C24.1384 20 24.418 20.2795 24.418 20.625C24.418 21.6589 25.259 22.5 26.293 22.5C27.3269 22.5 28.168 21.6589 28.168 20.625C28.168 20.2795 28.4475 20 28.793 20C29.1384 20 29.418 20.2795 29.418 20.625C29.418 22.1537 28.3132 23.4241 26.8606 23.6926Z" fill="currentColor"/>
</svg>
