<svg width="16" height="16" viewBox="0 0 16 16" fill="none" xmlns="http://www.w3.org/2000/svg">
<g id="vuesax/outline/call-calling">
<g id="call-calling">
<path id="Vector" d="M11.634 15.1666C10.8807 15.1666 10.0873 14.9866 9.26732 14.6399C8.46732 14.2999 7.66065 13.8333 6.87398 13.2666C6.09398 12.6933 5.34065 12.0533 4.62732 11.3533C3.92065 10.6399 3.28065 9.88659 2.71398 9.11325C2.14065 8.31325 1.68065 7.51325 1.35398 6.73992C1.00732 5.91325 0.833984 5.11325 0.833984 4.35992C0.833984 3.83992 0.927318 3.34659 1.10732 2.88659C1.29398 2.41325 1.59398 1.97325 2.00065 1.59325C2.51398 1.08659 3.10065 0.833252 3.72732 0.833252C3.98732 0.833252 4.25398 0.893252 4.48065 0.999919C4.74065 1.11992 4.96065 1.29992 5.12065 1.53992L6.66732 3.71992C6.80732 3.91325 6.91398 4.09992 6.98732 4.28659C7.07398 4.48659 7.12065 4.68659 7.12065 4.87992C7.12065 5.13325 7.04732 5.37992 6.90732 5.61325C6.80732 5.79325 6.65398 5.98659 6.46065 6.17992L6.00732 6.65325C6.01398 6.67325 6.02065 6.68659 6.02732 6.69992C6.10732 6.83992 6.26732 7.07992 6.57398 7.43992C6.90065 7.81325 7.20732 8.15325 7.51398 8.46659C7.90732 8.85325 8.23398 9.15992 8.54065 9.41325C8.92065 9.73325 9.16732 9.89325 9.31398 9.96659L9.30065 9.99992L9.78732 9.51992C9.99399 9.31325 10.194 9.15992 10.3873 9.05992C10.754 8.83325 11.2207 8.79325 11.6873 8.98659C11.8607 9.05992 12.0473 9.15992 12.2473 9.29992L14.4607 10.8733C14.7073 11.0399 14.8873 11.2533 14.994 11.5066C15.094 11.7599 15.1407 11.9933 15.1407 12.2266C15.1407 12.5466 15.0673 12.8666 14.9273 13.1666C14.7873 13.4666 14.614 13.7266 14.394 13.9666C14.014 14.3866 13.6007 14.6866 13.1207 14.8799C12.6607 15.0666 12.1607 15.1666 11.634 15.1666ZM3.72732 1.83325C3.36065 1.83325 3.02065 1.99325 2.69398 2.31325C2.38732 2.59992 2.17398 2.91325 2.04065 3.25325C1.90065 3.59992 1.83398 3.96659 1.83398 4.35992C1.83398 4.97992 1.98065 5.65325 2.27398 6.34659C2.57398 7.05325 2.99398 7.78659 3.52732 8.51992C4.06065 9.25325 4.66732 9.96659 5.33398 10.6399C6.00065 11.2999 6.72065 11.9133 7.46065 12.4533C8.18065 12.9799 8.92065 13.4066 9.65398 13.7133C10.794 14.1999 11.8607 14.3133 12.7407 13.9466C13.0807 13.8066 13.3807 13.5933 13.654 13.2866C13.8073 13.1199 13.9273 12.9399 14.0273 12.7266C14.1073 12.5599 14.1473 12.3866 14.1473 12.2133C14.1473 12.1066 14.1273 11.9999 14.074 11.8799C14.054 11.8399 14.014 11.7666 13.8873 11.6799L11.674 10.1066C11.5407 10.0133 11.4207 9.94659 11.3073 9.89992C11.1607 9.83992 11.1007 9.77992 10.874 9.91992C10.7407 9.98659 10.6207 10.0866 10.4873 10.2199L9.98065 10.7199C9.72065 10.9733 9.32065 11.0333 9.01398 10.9199L8.83398 10.8399C8.56065 10.6933 8.24065 10.4666 7.88732 10.1666C7.56732 9.89325 7.22065 9.57325 6.80065 9.15992C6.47398 8.82659 6.14732 8.47325 5.80732 8.07992C5.49398 7.71325 5.26732 7.39992 5.12732 7.13992L5.04732 6.93992C5.00732 6.78659 4.99398 6.69992 4.99398 6.60659C4.99398 6.36659 5.08065 6.15325 5.24732 5.98659L5.74732 5.46659C5.88065 5.33325 5.98065 5.20659 6.04732 5.09325C6.10065 5.00659 6.12065 4.93325 6.12065 4.86659C6.12065 4.81325 6.10065 4.73325 6.06732 4.65325C6.02065 4.54659 5.94732 4.42659 5.85398 4.29992L4.30732 2.11325C4.24065 2.01992 4.16065 1.95325 4.06065 1.90659C3.95398 1.85992 3.84065 1.83325 3.72732 1.83325ZM9.30065 10.0066L9.19398 10.4599L9.37399 9.99325C9.34065 9.98659 9.31398 9.99325 9.30065 10.0066Z" fill="currentColor" />
<path id="Vector_2" d="M12.3333 6.50008C12.06 6.50008 11.8333 6.27341 11.8333 6.00008C11.8333 5.76008 11.5933 5.26008 11.1933 4.83341C10.8 4.41341 10.3667 4.16675 10 4.16675C9.72667 4.16675 9.5 3.94008 9.5 3.66675C9.5 3.39341 9.72667 3.16675 10 3.16675C10.6467 3.16675 11.3267 3.51341 11.92 4.14675C12.4733 4.74008 12.8333 5.46675 12.8333 6.00008C12.8333 6.27341 12.6067 6.50008 12.3333 6.50008Z" fill="currentColor" />
<path id="Vector_3" d="M14.6667 6.49992C14.3933 6.49992 14.1667 6.27325 14.1667 5.99992C14.1667 3.69992 12.3 1.83325 10 1.83325C9.72667 1.83325 9.5 1.60659 9.5 1.33325C9.5 1.05992 9.72667 0.833252 10 0.833252C12.8467 0.833252 15.1667 3.15325 15.1667 5.99992C15.1667 6.27325 14.94 6.49992 14.6667 6.49992Z" fill="currentColor" />
</g>
</g>
</svg>
