<svg width="20" height="20" viewBox="0 0 20 20" fill="none" xmlns="http://www.w3.org/2000/svg">
<mask id="path-1-inside-1_991_78636" fill="white">
<path d="M9.97591 18.9583C5.04258 18.9583 1.01758 14.9417 1.01758 9.99999C1.01758 5.05832 5.04258 1.04166 9.97591 1.04166C14.9092 1.04166 18.9342 5.05832 18.9342 9.99999C18.9342 14.9417 14.9176 18.9583 9.97591 18.9583ZM9.97591 2.29166C5.72591 2.29166 2.26758 5.74999 2.26758 9.99999C2.26758 14.25 5.72591 17.7083 9.97591 17.7083C14.2259 17.7083 17.6842 14.25 17.6842 9.99999C17.6842 5.74999 14.2259 2.29166 9.97591 2.29166Z"/>
</mask>
<path d="M9.97591 18.9583C5.04258 18.9583 1.01758 14.9417 1.01758 9.99999C1.01758 5.05832 5.04258 1.04166 9.97591 1.04166C14.9092 1.04166 18.9342 5.05832 18.9342 9.99999C18.9342 14.9417 14.9176 18.9583 9.97591 18.9583ZM9.97591 2.29166C5.72591 2.29166 2.26758 5.74999 2.26758 9.99999C2.26758 14.25 5.72591 17.7083 9.97591 17.7083C14.2259 17.7083 17.6842 14.25 17.6842 9.99999C17.6842 5.74999 14.2259 2.29166 9.97591 2.29166Z" fill="white"/>
<path d="M9.97591 17.4583C5.8701 17.4583 2.51758 14.1123 2.51758 9.99999H-0.482422C-0.482422 15.771 4.21506 20.4583 9.97591 20.4583V17.4583ZM2.51758 9.99999C2.51758 5.88766 5.8701 2.54166 9.97591 2.54166V-0.458344C4.21506 -0.458344 -0.482422 4.22899 -0.482422 9.99999H2.51758ZM9.97591 2.54166C14.0817 2.54166 17.4342 5.88766 17.4342 9.99999H20.4342C20.4342 4.22899 15.7368 -0.458344 9.97591 -0.458344V2.54166ZM17.4342 9.99999C17.4342 14.1132 14.0892 17.4583 9.97591 17.4583V20.4583C15.746 20.4583 20.4342 15.7701 20.4342 9.99999H17.4342ZM9.97591 0.791657C4.89748 0.791657 0.767578 4.92156 0.767578 9.99999H3.76758C3.76758 6.57842 6.55434 3.79166 9.97591 3.79166V0.791657ZM0.767578 9.99999C0.767578 15.0784 4.89748 19.2083 9.97591 19.2083V16.2083C6.55434 16.2083 3.76758 13.4216 3.76758 9.99999H0.767578ZM9.97591 19.2083C15.0543 19.2083 19.1842 15.0784 19.1842 9.99999H16.1842C16.1842 13.4216 13.3975 16.2083 9.97591 16.2083V19.2083ZM19.1842 9.99999C19.1842 4.92156 15.0543 0.791657 9.97591 0.791657V3.79166C13.3975 3.79166 16.1842 6.57842 16.1842 9.99999H19.1842Z" fill="white" mask="url(#path-1-inside-1_991_78636)"/>
<path d="M8.79987 14.1583C8.4332 14.1583 8.0832 14.0667 7.77487 13.8917C7.0582 13.475 6.6582 12.6583 6.6582 11.5917V8.79999C6.6582 7.73333 7.04987 6.91666 7.76654 6.49999C8.4832 6.08333 9.39154 6.14999 10.3165 6.68333L12.7332 8.07499C13.6582 8.60833 14.1665 9.35833 14.1665 10.1917C14.1665 11.0167 13.6582 11.775 12.7332 12.3083L10.3165 13.7C9.79987 14.0083 9.27487 14.1583 8.79987 14.1583ZM8.79987 7.47499C8.64987 7.47499 8.5082 7.50833 8.39987 7.57499C8.0832 7.75833 7.9082 8.19999 7.9082 8.79999V11.5917C7.9082 12.1833 8.0832 12.6333 8.39987 12.8083C8.7082 12.9917 9.1832 12.9167 9.69987 12.625L12.1165 11.2333C12.6332 10.9333 12.9249 10.5583 12.9249 10.2C12.9249 9.84166 12.6249 9.46666 12.1165 9.16666L9.69987 7.77499C9.36654 7.57499 9.0582 7.47499 8.79987 7.47499Z" fill="white"/>
</svg>
