<svg width="41" height="40" viewBox="0 0 41 40" fill="none" xmlns="http://www.w3.org/2000/svg">
<path d="M34.0035 6.3558C35.45 6.21221 36.5943 5.06791 36.7379 3.62143C36.8815 5.06791 38.0258 6.21221 39.4723 6.3558C38.0258 6.49939 36.8815 7.64369 36.7379 9.09018C36.5943 7.64369 35.45 6.49939 34.0035 6.3558ZM36.7379 18.6924C36.5943 20.1388 35.45 21.2831 34.0035 21.4267C35.45 21.5703 36.5943 22.7146 36.7379 24.1611C36.8815 22.7146 38.0258 21.5704 39.4723 21.4267C38.0258 21.2831 36.8815 20.1388 36.7379 18.6924ZM8.2568 20.8975C8.40039 19.451 9.54469 18.3067 10.9912 18.1631C9.54469 18.0196 8.40039 16.8753 8.2568 15.4288C8.1132 16.8753 6.96891 18.0196 5.52242 18.1631C6.96891 18.3067 8.1132 19.451 8.2568 20.8975ZM11.3347 6.354C11.4783 4.90752 12.6226 3.76322 14.0691 3.61963C12.6226 3.47604 11.4783 2.33174 11.3347 0.885254C11.1911 2.33174 10.0468 3.47604 8.60031 3.61963C10.0468 3.76322 11.1911 4.90752 11.3347 6.354ZM14.7382 5.54971C15.5409 4.74697 16.4531 4.5476 17.5439 4.73252C18.7173 4.93135 19.8288 4.47088 20.518 3.50064C21.1588 2.59846 21.9444 2.09447 23.0798 2.09447C24.2152 2.09447 25.0009 2.59846 25.6416 3.50064C26.3308 4.47088 27.4423 4.93127 28.6157 4.73252C29.7068 4.54783 30.6185 4.74674 31.4215 5.54979C32.2242 6.35252 32.4236 7.26471 32.2387 8.35549C32.0398 9.52885 32.5003 10.6403 33.4706 11.3295C34.3727 11.9703 34.8767 12.7559 34.8767 13.8913C34.8767 15.0268 34.3727 15.8124 33.4706 16.4532C32.5003 17.1424 32.0399 18.2538 32.2387 19.4272C32.4234 20.5183 32.2245 21.43 31.4214 22.233C30.6187 23.0357 29.7065 23.2351 28.6157 23.0501C27.4423 22.8513 26.3308 23.3117 25.6416 24.282C25.0009 25.1841 24.2152 25.6881 23.0798 25.6881C21.9443 25.6881 21.1587 25.1842 20.518 24.282C19.8288 23.3117 18.7173 22.8513 17.5439 23.0501C16.4528 23.2348 15.5411 23.0359 14.7381 22.2328C13.9354 21.4301 13.736 20.5179 13.9209 19.4271C14.1198 18.2538 13.6593 17.1422 12.6891 16.4531C11.7869 15.8124 11.2829 15.0267 11.2829 13.8913C11.2829 12.7558 11.7869 11.9702 12.6891 11.3294C13.6593 10.6403 14.1197 9.52869 13.9209 8.35541C13.7363 7.26432 13.9352 6.35268 14.7382 5.54971ZM15.5548 13.8913C15.5548 18.0472 18.9239 21.4162 23.0798 21.4162C27.2356 21.4162 30.6047 18.0472 30.6047 13.8913C30.6047 9.73533 27.2357 6.36635 23.0798 6.36635C18.9238 6.36635 15.5548 9.73541 15.5548 13.8913ZM20.0098 17.6828C20.1802 17.9778 20.452 18.1596 20.7899 18.204C21.1277 18.2485 21.4375 18.1433 21.6784 17.9024L27.3048 12.276C27.7604 11.8204 27.7604 11.0748 27.3048 10.6192C26.8491 10.1635 26.1036 10.1635 25.6479 10.6192L21.2033 15.0637L19.9895 12.9612C19.6673 12.4031 18.9471 12.2102 18.389 12.5324C17.8309 12.8546 17.638 13.5748 17.9602 14.1328L20.0097 17.6827L20.0098 17.6828ZM4.37023 30.6679C3.93477 30.2325 3.22227 30.2325 2.7868 30.6679L1.19727 32.2574L8.05422 39.1144L9.64375 37.5249C10.0791 37.0895 10.0792 36.3768 9.64375 35.9414L4.37023 30.6679ZM32.1252 26.6849C29.418 28.2479 25.1403 31.3832 21.5534 31.4949C19.7173 31.5398 17.5625 31.0871 16.6873 30.6315C16.3096 30.4352 16.2467 30.0668 16.3855 29.7999C16.5243 29.5328 16.8998 29.425 17.1669 29.5638C17.9244 29.958 19.8398 30.3486 21.5048 30.3078C22.1422 30.2922 22.7288 30.2174 23.1641 30.0591C24.4589 29.588 24.0775 27.7341 22.5211 27.7929C13.3697 27.7929 12.8534 20.7618 5.17258 29.835C5.17781 29.8401 5.18297 29.8451 5.18813 29.8502L10.4616 35.1237C10.4829 35.1449 10.5034 35.1666 10.5236 35.1884C12.1944 34.4023 14.047 34.3865 16.0309 34.5053C17.5571 34.5965 19.3786 34.8169 21.0496 34.7799C23.3845 34.7283 24.8155 34.0946 26.8659 33.0084C29.2002 31.7719 33.2573 29.309 33.9652 28.3787C34.9781 27.0471 33.6704 25.7929 32.1253 26.6849L32.1252 26.6849Z" fill="currentColor"/>
</svg>
