<svg width="40" height="40" viewBox="0 0 40 40" fill="none" xmlns="http://www.w3.org/2000/svg">
<g clip-path="url(#clip0_1539_46884)">
<path d="M15.3125 40C18.7689 40 21.445 39.6692 23.5916 38.9929C23.5461 38.7488 23.5156 38.4991 23.5156 38.2422C23.5156 37.0941 23.9929 36.0577 24.7559 35.3125C23.9929 34.5673 23.5156 33.5309 23.5156 32.3828C23.5156 31.2347 23.9929 30.1984 24.7559 29.4531C23.9929 28.7079 23.5156 27.6715 23.5156 26.5234C23.5156 25.3754 23.9929 24.339 24.7559 23.5938C23.9929 22.8485 23.5156 21.8121 23.5156 20.6641C23.5156 19.3079 24.1852 18.1125 25.2029 17.3654C24.5059 16.7273 23.7613 16.1554 22.98 15.6522C23.2974 15.2524 23.5156 14.7687 23.5156 14.2188C23.5156 12.9242 22.4664 11.875 21.1719 11.875H9.45312C8.15857 11.875 7.10938 12.9242 7.10938 14.2188C7.10938 14.7675 7.32697 15.2496 7.64252 15.6488C3.09296 18.5797 0 23.887 0 29.4531C0 38.9072 8.77228 40 15.3125 40ZM15.3 28.6246C13.3612 28.6246 11.7844 27.0477 11.7844 25.1089C11.7844 23.5785 12.7731 22.2873 14.1406 21.8054V20.0781C14.1406 19.4305 14.6649 18.9062 15.3125 18.9062C15.9601 18.9062 16.4844 19.4305 16.4844 20.0781V21.8134C17.8391 22.3019 18.8156 23.588 18.8156 25.1089C18.8156 25.7568 18.2913 26.2808 17.6437 26.2808C16.9958 26.2808 16.4719 25.7568 16.4719 25.1089C16.4719 24.4623 15.9464 23.9371 15.3 23.9371C14.6533 23.9371 14.1281 24.4623 14.1281 25.1089C14.1281 25.7556 14.6533 26.2808 15.3 26.2808C17.2385 26.2808 18.8156 27.858 18.8156 29.7964C18.8156 31.3174 17.8391 32.6035 16.4844 33.0923V34.1406C16.4844 34.7882 15.9601 35.3125 15.3125 35.3125C14.6649 35.3125 14.1406 34.7882 14.1406 34.1406V33.1C12.7731 32.6184 11.7844 31.3269 11.7844 29.7964C11.7844 29.1489 12.3083 28.6246 12.9562 28.6246C13.6038 28.6246 14.1281 29.1489 14.1281 29.7964C14.1281 30.4431 14.6533 30.9683 15.3 30.9683C15.9464 30.9683 16.4719 30.4431 16.4719 29.7964C16.4719 29.1498 15.9464 28.6246 15.3 28.6246Z" fill="currentColor"/>
<path d="M38.2422 36.4844H27.6172C26.6464 36.4844 25.8594 37.2714 25.8594 38.2422C25.8594 39.213 26.6464 40 27.6172 40H38.2422C39.213 40 40 39.213 40 38.2422C40 37.2714 39.213 36.4844 38.2422 36.4844Z" fill="currentColor"/>
<path d="M38.2422 30.625H27.6172C26.6464 30.625 25.8594 31.412 25.8594 32.3828C25.8594 33.3536 26.6464 34.1406 27.6172 34.1406H38.2422C39.213 34.1406 40 33.3536 40 32.3828C40 31.412 39.213 30.625 38.2422 30.625Z" fill="currentColor"/>
<path d="M38.2422 24.7656H27.6172C26.6464 24.7656 25.8594 25.5527 25.8594 26.5234C25.8594 27.4942 26.6464 28.2812 27.6172 28.2812H38.2422C39.213 28.2812 40 27.4942 40 26.5234C40 25.5527 39.213 24.7656 38.2422 24.7656Z" fill="currentColor"/>
<path d="M38.2422 18.9062H27.6172C26.6464 18.9062 25.8594 19.6933 25.8594 20.6641C25.8594 21.6348 26.6464 22.4219 27.6172 22.4219H38.2422C39.213 22.4219 40 21.6348 40 20.6641C40 19.6933 39.213 18.9062 38.2422 18.9062Z" fill="currentColor"/>
<path d="M18.6124 2.34375C18.1268 0.982666 16.8384 0 15.3125 0C13.7848 0 12.4814 0.979614 11.9971 2.34375H8.28127C7.90468 2.34375 7.55098 2.52441 7.33034 2.8302C7.11061 3.13568 7.04988 3.52936 7.17012 3.88641L8.99965 9.53125H21.6257L23.4549 3.88641C23.5752 3.52936 23.5144 3.13568 23.2947 2.8302C23.0741 2.52441 22.7204 2.34375 22.3438 2.34375H18.6124Z" fill="currentColor"/>
</g>
<defs>
<clipPath id="clip0_1539_46884">
<rect width="40" height="40" fill="currentColor"/>
</clipPath>
</defs>
</svg>
