<svg width="41" height="40" viewBox="0 0 41 40" fill="none" xmlns="http://www.w3.org/2000/svg">
<path d="M31.5615 6.86673L22.3948 3.4334C21.4448 3.0834 19.8948 3.0834 18.9448 3.4334L9.77812 6.86673C8.01146 7.5334 6.57812 9.60006 6.57812 11.4834V24.9834C6.57812 26.3334 7.46146 28.1167 8.54479 28.9167L17.7115 35.7667C19.3281 36.9834 21.9781 36.9834 23.5948 35.7667L32.7615 28.9167C33.8448 28.1001 34.7281 26.3334 34.7281 24.9834V11.4834C34.7448 9.60006 33.3115 7.5334 31.5615 6.86673ZM26.4615 16.2001L19.2948 23.3667C19.0448 23.6167 18.7281 23.7334 18.4115 23.7334C18.0948 23.7334 17.7781 23.6167 17.5281 23.3667L14.8615 20.6667C14.3781 20.1834 14.3781 19.3834 14.8615 18.9001C15.3448 18.4167 16.1448 18.4167 16.6281 18.9001L18.4281 20.7001L24.7115 14.4167C25.1948 13.9334 25.9948 13.9334 26.4781 14.4167C26.9615 14.9001 26.9615 15.7167 26.4615 16.2001Z" fill="currentColor"/>
</svg>
