<svg width="41" height="40" viewBox="0 0 41 40" fill="none" xmlns="http://www.w3.org/2000/svg">
<path d="M21.0085 34.0833H10.6615C8.40427 34.0833 6.57812 32.2572 6.57812 30V8.33333C6.57812 6.07614 8.40427 4.25 10.6615 4.25H25.6615C27.9186 4.25 29.7448 6.07614 29.7448 8.33333V15.3333H25.6615C25.0021 15.3333 24.3421 15.484 23.7379 15.7861L23.7378 15.7861L23.7343 15.7879L20.4045 17.4861C20.4039 17.4864 20.4034 17.4867 20.4028 17.487C18.9644 18.207 18.0781 19.665 18.0781 21.2833V25.6333C18.0781 28.7614 19.1486 31.7247 21.0085 34.0833ZM28.1452 35.1791L28.1449 35.179C24.2175 33.6947 21.5781 29.8603 21.5781 25.6383V21.275C21.5781 20.9923 21.7365 20.7335 21.9879 20.6058L25.3184 18.9155C25.3188 18.9153 25.3192 18.9151 25.3196 18.9149C25.4282 18.8609 25.5448 18.8333 25.6615 18.8333H32.3281C32.4461 18.8333 32.5637 18.8614 32.669 18.9144C32.6692 18.9145 32.6693 18.9146 32.6695 18.9147L36.0017 20.6058C36.253 20.7335 36.4115 20.9923 36.4115 21.275V25.6383C36.4115 29.86 33.7724 33.6941 29.8507 35.1769C29.571 35.2811 29.2805 35.3333 28.9931 35.3333C28.704 35.3333 28.4174 35.2822 28.1452 35.1791ZM28.4962 25.2945L27.8009 24.5168L27.8004 24.5162C27.1523 23.7936 26.051 23.7361 25.3296 24.376L25.3284 24.3771C24.6068 25.0216 24.547 26.1272 25.188 26.8474L25.1885 26.848L27.1885 29.088L27.1897 29.0894C27.5223 29.4592 27.9955 29.6717 28.4948 29.6717C28.9941 29.6717 29.4673 29.4592 29.7999 29.0894L29.801 29.0881L32.7914 25.7405L32.7934 25.7385L32.8033 25.7274C33.4442 25.0072 33.3844 23.9016 32.6629 23.2571L32.661 23.2554C31.9391 22.6171 30.8341 22.6741 30.1901 23.397C30.19 23.3972 30.1898 23.3974 30.1896 23.3976L28.4962 25.2945ZM22.3281 8.25H10.6615C9.69532 8.25 8.91146 9.03386 8.91146 10C8.91146 10.9661 9.69532 11.75 10.6615 11.75H22.3281C23.2943 11.75 24.0781 10.9661 24.0781 10C24.0781 9.03386 23.2943 8.25 22.3281 8.25ZM10.6615 21.75H15.6615C16.6276 21.75 17.4115 20.9661 17.4115 20C17.4115 19.0339 16.6276 18.25 15.6615 18.25H10.6615C9.69532 18.25 8.91146 19.0339 8.91146 20C8.91146 20.9661 9.69532 21.75 10.6615 21.75ZM10.6615 16.75H17.3281C18.2943 16.75 19.0781 15.9661 19.0781 15C19.0781 14.0339 18.2943 13.25 17.3281 13.25H10.6615C9.69532 13.25 8.91146 14.0339 8.91146 15C8.91146 15.9661 9.69532 16.75 10.6615 16.75Z" fill="currentColor" stroke="currentColor"/>
</svg>
