<svg width="40" height="40" viewBox="0 0 40 40" fill="none" xmlns="http://www.w3.org/2000/svg">
<path d="M36.8215 27.525L36.8215 27.525C37.367 27.8462 37.7823 28.3489 37.9948 28.9453C38.2073 29.5416 38.2035 30.1937 37.984 30.7875L37.9836 30.7887C37.5555 31.9318 36.942 32.9967 36.1679 33.9404L36.1661 33.9427C35.757 34.4317 35.1881 34.7602 34.5601 34.87C33.9327 34.9797 33.2866 34.864 32.7362 34.5435C32.7358 34.5432 32.7353 34.5429 32.7348 34.5426L32.1671 34.2201C31.8687 34.4188 31.5576 34.5978 31.2359 34.756V35.3994V35.4002H30.9359C30.9375 35.9845 30.7273 36.5495 30.3443 36.9908C29.9612 37.432 29.4313 37.7196 28.8526 37.8002L36.8215 27.525ZM36.8215 27.525L36.8175 27.5227M36.8215 27.525L36.8175 27.5227M31.2693 17.9343C31.271 17.2775 31.0347 16.6422 30.6042 16.1462C30.1736 15.6502 29.5779 15.327 28.9273 15.2364L28.9263 15.2362C27.7935 15.0826 26.6451 15.0826 25.5123 15.2362L25.5095 15.2366C24.861 15.3309 24.268 15.6549 23.8385 16.1497C23.4089 16.6446 23.1714 17.2773 23.1693 17.9325V17.9335V18.5792C22.8497 18.7389 22.5398 18.9172 22.2412 19.1132L21.6867 18.7908C21.6867 18.7908 21.6867 18.7908 21.6867 18.7908C21.1375 18.4714 20.4937 18.3547 19.8673 18.4608C19.2409 18.5669 18.6715 18.8892 18.2581 19.3716L18.2581 19.3716L18.2552 19.3751C17.4674 20.3235 16.8376 21.3926 16.3898 22.5412L16.3896 22.5411L16.3868 22.5491C16.1722 23.1493 16.1768 23.8061 16.3998 24.4032C16.6226 24.9996 17.049 25.498 17.6036 25.8105L18.1693 26.1394V26.6668V26.6669V26.6669V26.6669V26.667V26.667V26.6671V26.6672V26.6672V26.6673V26.6674V26.6676V26.6677V26.6678V26.668V26.6681V26.6683V26.6685V26.6687V26.6689V26.6691V26.6693V26.6695V26.6697V26.67V26.6702V26.6705V26.6708V26.671V26.6713V26.6716V26.6719V26.6723V26.6726V26.6729V26.6733V26.6736V26.674V26.6744V26.6748V26.6752V26.6756V26.676V26.6764V26.6768V26.6773V26.6777V26.6782V26.6786V26.6791V26.6796V26.6801V26.6806V26.6811V26.6816V26.6821V26.6827V26.6832V26.6838V26.6843V26.6849V26.6855V26.6861V26.6867V26.6873V26.6879V26.6885V26.6891V26.6898V26.6904V26.6911V26.6917V26.6924V26.6931V26.6938V26.6945V26.6952V26.6959V26.6966V26.6973V26.698V26.6988V26.6995V26.7003V26.7011V26.7018V26.7026V26.7034V26.7042V26.705V26.7058V26.7066V26.7075V26.7083V26.7092V26.71V26.7109V26.7117V26.7126V26.7135V26.7144V26.7153V26.7162V26.7171V26.718V26.7189V26.7199V26.7208V26.7217V26.7227V26.7237V26.7246V26.7256V26.7266V26.7276V26.7286V26.7296V26.7306V26.7316V26.7326V26.7337V26.7347V26.7357V26.7368V26.7378V26.7389V26.74V26.741V26.7421V26.7432V26.7443V26.7454V26.7465V26.7476V26.7488V26.7499V26.751V26.7522V26.7533V26.7545V26.7556V26.7568V26.758V26.7592V26.7603V26.7615V26.7627V26.7639V26.7651V26.7664V26.7676V26.7688V26.77V26.7713V26.7725V26.7738V26.775V26.7763V26.7776V26.7788V26.7801V26.7814V26.7827V26.784V26.7853V26.7866V26.7879V26.7892V26.7905V26.7919V26.7932V26.7945V26.7959V26.7972V26.7986V26.7999V26.8013V26.8027V26.8041V26.8054V26.8068V26.8082V26.8096V26.811V26.8124V26.8138V26.8152V26.8167V26.8181V26.8195V26.821V26.8224V26.8238V26.8253V26.8267V26.8282V26.8297V26.8311V26.8326V26.8341V26.8356V26.837V26.8385V26.84V26.8415V26.843V26.8445V26.8461V26.8476V26.8491V26.8506V26.8521V26.8537V26.8552V26.8568V26.8583V26.8598V26.8614V26.863V26.8645V26.8661V26.8676V26.8692V26.8708V26.8724V26.874V26.8755V26.8771V26.8787V26.8803V26.8819V26.8835V26.8852V26.8868V26.8884V26.89V26.8916V26.8932V26.8949V26.8965V26.8981V26.8998V26.9014V26.9031V26.9047V26.9064V26.908V26.9097V26.9114V26.913V26.9147V26.9164V26.918V26.9197V26.9214V26.9231V26.9248V26.9265V26.9281V26.9298V26.9315V26.9332V26.9349V26.9366V26.9384V26.9401V26.9418V26.9435V26.9452V26.9469V26.9487V26.9504V26.9521V26.9538V26.9556V26.9573V26.959V26.9608V26.9625V26.9643V26.966V26.9678V26.9695V26.9713V26.973V26.9748V26.9765V26.9783V26.9801V26.9818V26.9836V26.9854V26.9871V26.9889V26.9907V26.9924V26.9942V26.996V26.9978V26.9996V27.0013V27.0031V27.0049V27.0067V27.0085V27.0103V27.0121V27.0139V27.0157V27.0175V27.0193V27.0211V27.0229V27.0247V27.0265V27.0283V27.0301V27.0319V27.0337V27.0355V27.0373V27.0391V27.0409V27.0427V27.0445V27.0463V27.0482V27.05V27.0518V27.0536V27.0554V27.0572V27.0591V27.0609V27.0627V27.0645V27.0663V27.0682V27.07V27.0718V27.0736V27.0755V27.0773V27.0791V27.0809V27.0827V27.0846V27.0864V27.0882V27.09V27.0919V27.0937V27.0955V27.0973V27.0992V27.101V27.1028V27.1047V27.1065V27.1083V27.1101V27.1119V27.1138V27.1156V27.1174V27.1192V27.1211V27.1229V27.1247V27.1265V27.1284V27.1302V27.132V27.1338V27.1356V27.1375V27.1393V27.1411V27.1429V27.1447V27.1465V27.1484V27.1502V27.152V27.1538V27.1556V27.1574V27.1592V27.161V27.1628V27.1647V27.1665V27.1683V27.1701V27.1719V27.1737V27.1755V27.1773V27.1791V27.1809V27.1827V27.1844V27.1862V27.188V27.1898V27.1907L17.6064 27.5049L17.604 27.5062C17.0516 27.8212 16.6271 28.3199 16.4046 28.9156C16.1821 29.5113 16.1756 30.1662 16.3862 30.7662L16.3861 30.7663L16.3893 30.7745C16.8293 31.919 17.447 32.987 18.2197 33.9392L18.2196 33.9392L18.2236 33.944C18.6345 34.4295 19.2028 34.7554 19.8293 34.865C20.4558 34.9745 21.101 34.8608 21.6522 34.5435L21.6534 34.5429L22.2079 34.2205L30.9693 17.9335M31.2693 17.9343L30.9693 17.9335M31.2693 17.9343V17.9335H30.9693M31.2693 17.9343V18.5776M30.9693 17.9335V18.7668M31.2693 18.5776C31.2116 18.5493 31.1537 18.5216 31.0953 18.4946L30.9693 18.7668M31.2693 18.5776C31.591 18.7358 31.902 18.9149 32.2005 19.1135M31.2693 18.5776V18.7668H30.9693M30.9693 18.7668L32.2005 19.1135M32.2005 19.1135L32.0377 19.206L32.1859 19.4668L32.3579 19.221C32.3058 19.1846 32.2533 19.1488 32.2005 19.1135ZM32.2005 19.1135L32.7685 18.7908L32.9193 19.0502L32.7711 18.7893L32.7698 18.79L32.2005 19.1135ZM36.8175 27.5227L36.2507 27.2006L36.8175 27.5227ZM16.0136 34.8834L16.6171 34.8949L16.2618 34.4069C15.6033 33.5025 15.0724 32.5118 14.6839 31.4627L14.6837 31.462C14.4233 30.7637 14.3384 30.012 14.4366 29.2732C14.5347 28.5343 14.8129 27.8309 15.2466 27.2247L15.5692 26.7738L15.0153 26.7504C9.9049 26.5347 5.11736 25.3232 2.27576 23.0012L1.78594 22.6009V23.2335V28.3335C1.78594 30.5251 3.68055 32.1252 6.30311 33.1806C8.95171 34.2464 12.474 34.8163 16.0136 34.8834ZM2.27775 13.0028L1.78594 12.5938V13.2335V18.3335C1.78594 20.3338 3.37357 21.8428 5.63714 22.8891C7.91733 23.9432 10.986 24.5814 14.1822 24.7995L14.5847 24.8269L14.4951 24.4336C14.3011 23.5816 14.3662 22.6911 14.6819 21.8764C15.2154 20.5314 15.9639 19.282 16.8983 18.1772L16.8985 18.1773L16.9048 18.1693C17.1685 17.8351 17.4869 17.548 17.8465 17.3203L18.7478 16.7494L17.681 16.7669L16.6668 16.7835C10.9881 16.7831 5.36144 15.5672 2.27775 13.0028ZM36.2507 26.1331C36.2461 26.0681 36.2408 26.0032 36.2346 25.9383L35.9359 25.9668L36.0841 26.2277L36.2507 26.1331ZM16.6693 1.7835C13.0201 1.7835 9.33538 2.32389 6.55149 3.39087C3.79755 4.44637 1.78594 6.07776 1.78594 8.3335C1.78594 10.5892 3.79755 12.2206 6.55149 13.2761C9.33538 14.3431 13.0201 14.8835 16.6693 14.8835C20.3184 14.8835 24.0032 14.3431 26.7871 13.2761C29.541 12.2206 31.5526 10.5892 31.5526 8.3335C31.5526 6.07776 29.541 4.44637 26.7871 3.39087C24.0032 2.32389 20.3184 1.7835 16.6693 1.7835Z" fill="currentColor" stroke="currentColor" stroke-width="0.6"/>
</svg>
