<svg width="40" height="40" viewBox="0 0 40 40" fill="none" xmlns="http://www.w3.org/2000/svg">
<path d="M34.1021 14.6364V13.8242C35.1385 13.5818 35.9203 12.6545 35.9203 11.5454C35.9203 10.2606 34.8658 9.20605 33.5749 9.20605C32.29 9.20605 31.2355 10.2606 31.2355 11.5454C31.2355 12.6121 31.9506 13.503 32.9264 13.7818V14.6364C32.9264 15.2182 32.4476 15.697 31.8658 15.697H25.3203V16.8727H31.8658C33.0961 16.8727 34.1021 15.8667 34.1021 14.6364Z" fill="currentColor"/>
<path d="M29.6355 9.15129V8.33917C30.6718 8.09675 31.4536 7.16947 31.4536 6.06038C31.4536 4.77554 30.3991 3.72705 29.1082 3.72705C27.8233 3.72705 26.7688 4.77554 26.7688 6.06038C26.7688 7.12705 27.4839 8.01796 28.4597 8.29675V9.15129C28.4597 9.73311 27.9809 10.2119 27.3991 10.2119H25.3203V11.3877H27.3991C28.6294 11.3877 29.6355 10.3816 29.6355 9.15129Z" fill="currentColor"/>
<path d="M34.0961 29.3632V28.5511C34.0961 27.3208 33.09 26.3208 31.8658 26.3208H25.3203V27.4966H31.8658C32.4476 27.4966 32.9264 27.9753 32.9264 28.5572V29.4117C31.9506 29.6966 31.2355 30.5875 31.2355 31.6481C31.2355 32.9329 32.29 33.9875 33.5749 33.9875C34.8658 33.9875 35.9203 32.9329 35.9203 31.6481C35.9082 30.5329 35.1264 29.6056 34.0961 29.3632Z" fill="currentColor"/>
<path d="M28.6415 33.2788V32.4666C28.6415 31.2303 27.6415 30.2363 26.4112 30.2363H25.3203V31.4121H26.4112C26.993 31.4121 27.4718 31.8848 27.4718 32.4727V33.3212C26.5021 33.6121 25.787 34.4969 25.787 35.5636C25.787 36.8485 26.8355 37.8969 28.1203 37.8969C29.4112 37.8969 30.4658 36.8485 30.4658 35.5636C30.4536 34.4485 29.6779 33.5212 28.6415 33.2788Z" fill="currentColor"/>
<path d="M33.5021 23.9332C34.793 23.9332 35.8476 22.8786 35.8476 21.5877C35.8476 20.3029 34.793 19.2544 33.5021 19.2544C32.4233 19.2544 31.5082 19.9998 31.2536 21.0059H25.3203V22.1817H31.2536C31.5143 23.1877 32.4173 23.9332 33.5021 23.9332Z" fill="currentColor"/>
<path d="M19.021 2.10889C16.221 2.10889 13.9483 4.38161 13.9483 7.2301C13.9483 7.52101 13.9968 7.81192 14.0453 8.09677C13.5119 7.90283 12.9362 7.80586 12.3059 7.80586C9.50587 7.80586 7.23314 10.0786 7.23314 12.9271C7.23314 13.2301 7.26345 13.521 7.31799 13.8119C7.32405 13.818 7.33617 13.824 7.34223 13.8301C8.20284 14.7392 9.37254 15.2362 10.6331 15.2362C10.9604 15.2362 11.221 15.4968 11.221 15.824C11.221 16.1513 10.9604 16.4119 10.6331 16.4119C9.32405 16.4119 8.09375 15.9756 7.08769 15.1816C5.31799 15.9695 4.09375 17.7392 4.09375 19.7937C4.09375 22.1634 5.73617 24.1877 7.96042 24.721C7.47557 25.4968 7.23314 26.3634 7.23314 27.3271C7.23314 30.0786 9.50587 32.3998 12.3059 32.3998C12.5604 32.3998 12.815 32.3756 13.0695 32.3392C13.6574 30.5574 15.0816 29.1877 16.8937 28.6846C16.1725 27.9937 15.6392 27.1089 15.3665 26.1149C14.8392 26.5513 14.1968 26.8665 13.4695 27.0059C13.4331 27.0119 13.3968 27.018 13.3604 27.018C13.0816 27.018 12.8392 26.824 12.7847 26.5392C12.7241 26.218 12.9301 25.9149 13.2513 25.8483C14.0816 25.6907 14.7604 25.2059 15.1968 24.5574C15.221 24.4665 15.2634 24.3877 15.3301 24.321C15.6513 23.7392 15.7907 23.0483 15.6695 22.3271C15.615 22.0059 15.8331 21.7028 16.1544 21.6483C16.4756 21.5937 16.7786 21.8119 16.8331 22.1331C17.0028 23.1392 16.815 24.1089 16.3604 24.9271C16.5241 27.2725 18.4634 29.0786 20.8634 29.0786C21.1907 29.0786 21.4513 29.3392 21.4513 29.6665C21.4513 29.9937 21.1907 30.2543 20.8634 30.2543C19.9301 30.2543 19.0513 30.0362 18.2756 29.6483C16.1422 29.721 14.4271 31.2543 14.0392 33.2907C14.4634 35.6665 16.5301 37.4725 19.0271 37.4725C21.8271 37.4725 24.1483 35.1998 24.1483 32.3998V19.4543C24.0028 19.4665 23.8574 19.4846 23.718 19.4846C22.9422 19.4846 22.1786 19.2786 21.4877 18.8846C20.6756 18.4119 20.0453 17.7089 19.6634 16.8604C18.9847 17.2543 18.221 17.4604 17.421 17.4604C17.3422 17.4604 17.2634 17.4604 17.1847 17.4543C16.8574 17.4362 16.6089 17.1634 16.6271 16.8362C16.6453 16.5089 16.9241 16.2665 17.2453 16.2786C18.1241 16.321 18.9725 16.024 19.6271 15.4422C20.2877 14.8543 20.6756 14.0362 20.718 13.1453C20.7362 12.818 21.021 12.5695 21.3362 12.5877C21.6574 12.6059 21.9119 12.8786 21.8937 13.2059C21.8392 14.3089 21.3907 15.321 20.6392 16.0968C20.8998 16.8422 21.3968 17.4665 22.0816 17.8604C22.7119 18.224 23.4331 18.3574 24.1544 18.2604V7.2301C24.1422 4.37555 21.821 2.10889 19.021 2.10889Z" fill="currentColor"/>
</svg>
