<svg width="41" height="40" viewBox="0 0 41 40" fill="none" xmlns="http://www.w3.org/2000/svg">
<g clip-path="url(#clip0_1539_55627)">
<path d="M35.8544 26.0747C35.5953 26.0747 35.3417 26.098 35.0945 26.1405C35.1192 25.8809 35.1329 25.6179 35.1329 25.3519C35.1329 20.7934 31.4449 17.0981 26.8953 17.0981C22.5426 17.0981 18.9812 20.4812 18.6806 24.7657C17.9982 24.4517 17.2399 24.2756 16.44 24.2756C13.47 24.2756 11.0625 26.6878 11.0625 29.6636C11.0625 32.6394 13.47 35.0516 16.44 35.0516H35.8544C38.3284 35.0516 40.334 33.0421 40.334 30.5632C40.334 28.0843 38.3284 26.0747 35.8544 26.0747Z" fill="currentColor"/>
<path d="M3.36115 11.2262C5.6637 12.1185 8.74994 12.6098 12.051 12.6098C15.3521 12.6098 18.4384 12.1185 20.7409 11.2262C22.5787 10.5141 23.7661 9.55791 23.7661 8.79011C23.7661 8.02262 22.5787 7.06647 20.7409 6.35433C18.4384 5.46208 15.3521 4.9707 12.051 4.9707C8.74994 4.9707 5.6637 5.46208 3.36115 6.35433C1.52338 7.06647 0.335938 8.02262 0.335938 8.79011C0.335938 9.55791 1.52338 10.5141 3.36115 11.2262Z" fill="currentColor"/>
<path d="M3.36115 20.2527C5.6637 21.145 8.74994 21.6364 12.051 21.6364C13.8467 21.6364 15.5782 21.4905 17.1551 21.2144C17.7258 19.8647 18.5754 18.6364 19.6682 17.6112C20.8511 16.5012 22.2515 15.6918 23.7661 15.2225V12.3237C23.1518 12.7252 22.4233 13.0921 21.5862 13.4166C19.0206 14.4106 15.6344 14.9583 12.051 14.9583C8.46796 14.9583 5.08142 14.4106 2.51581 13.4166C1.67871 13.0921 0.950256 12.7252 0.335938 12.3237V17.8166C0.335938 18.5844 1.52338 19.5406 3.36115 20.2527Z" fill="currentColor"/>
<path d="M11.2094 23.9796C7.94031 23.9007 4.8797 23.3644 2.51581 22.4483C1.67871 22.1239 0.950256 21.7573 0.335938 21.3555V26.8487C0.335938 27.6162 1.52338 28.5723 3.36115 29.2845C4.87726 29.8719 6.73303 30.2856 8.76581 30.4996C8.73621 30.2247 8.72064 29.9459 8.72064 29.663C8.72064 27.4183 9.68011 25.3941 11.2094 23.9796Z" fill="currentColor"/>
</g>
<defs>
<clipPath id="clip0_1539_55627">
<rect width="40" height="40" fill="currentColor" transform="translate(0.335938)"/>
</clipPath>
</defs>
</svg>
