<svg width="30" height="24" viewBox="0 0 30 24" fill="none" xmlns="http://www.w3.org/2000/svg">
<path d="M20.8043 8.1002V0.262695H11.648L10.323 4.05645L12.5543 5.47519L6.9293 11.8564L8.0918 4.95644L5.48555 4.1002L7.28555 0.262695H0.310547V20.7502H11.723C11.7418 20.7127 11.7605 20.6814 11.7793 20.6502L12.123 20.0939L18.7293 9.31894C19.1855 8.55644 19.9605 8.1002 20.8043 8.1002Z" fill="currentColor"/>
<path d="M21.8163 9.96885C21.5663 9.55635 21.185 9.3501 20.8038 9.3501C20.4288 9.3501 20.0413 9.55635 19.7913 9.96885L13.185 20.7501L12.8413 21.3063C12.2225 22.3126 12.8163 23.7376 13.8538 23.7376H27.7538C28.7913 23.7376 29.385 22.3126 28.7725 21.3063L21.8163 9.96885ZM19.9288 13.8001C19.9288 13.3188 20.3225 12.9251 20.8038 12.9251C21.2913 12.9251 21.685 13.3188 21.685 13.8001V17.4063C21.685 17.8938 21.2913 18.2876 20.8038 18.2876C20.3225 18.2876 19.9288 17.8938 19.9288 17.4063V13.8001ZM20.8038 21.9313C20.235 21.9313 19.7725 21.4688 19.7725 20.9001C19.7725 20.3251 20.235 19.8688 20.8038 19.8688C21.3725 19.8688 21.835 20.3251 21.835 20.9001C21.835 21.4688 21.3725 21.9313 20.8038 21.9313Z" fill="currentColor"/>
</svg>
