<svg width="23" height="20" viewBox="0 0 23 20" fill="none" xmlns="http://www.w3.org/2000/svg">
<path fill-rule="evenodd" clip-rule="evenodd" d="M6.15687 8.94969H9.99406C10.3934 8.94969 10.7525 9.12687 10.9911 9.43156H16.3217C16.9681 9.43156 17.4941 9.9575 17.4941 10.6044V11.4566C17.8836 11.5962 18.1634 11.9675 18.1634 12.4044V13.8762C20.5564 13.6456 22.3906 11.6492 22.3906 9.21031C22.3906 6.62516 20.2873 4.52187 17.7022 4.52187C17.4528 4.52187 17.2072 4.54062 16.9662 4.57812C16.9522 4.58141 16.9381 4.58375 16.9241 4.58516C15.9238 4.75016 15.0106 5.23391 14.2972 5.98719C14.1903 6.10016 14.0122 6.10484 13.8997 5.99797C13.7867 5.89109 13.782 5.71297 13.8889 5.60047C14.6066 4.8425 15.5052 4.32828 16.4928 4.09766C15.4494 2.03609 13.3311 0.722656 11.0009 0.722656C7.99859 0.722656 5.44906 2.86672 4.93859 5.81984C4.91609 5.95016 4.80594 6.04719 4.67375 6.05281C2.57 6.14516 0.921875 7.86734 0.921875 9.97391C0.921875 12.1381 2.6825 13.8988 4.84672 13.8988H5.14906V9.95703C5.14906 9.40156 5.60141 8.94969 6.15687 8.94969ZM11.3966 11.3262C11.6103 11.7228 12.0069 11.9595 12.4573 11.9595H17.1556C17.4013 11.9595 17.6009 12.1592 17.6009 12.4044V19.1117C17.6009 19.3573 17.4013 19.5566 17.1556 19.5566H6.15687C5.91125 19.5566 5.71156 19.3569 5.71156 19.1117V9.9575C5.71156 9.71187 5.91125 9.51219 6.15687 9.51219H9.99406C10.2627 9.51219 10.4905 9.64812 10.618 9.88484L11.3966 11.3262ZM13.003 17.2662V13.5809C13.003 13.4258 13.1286 13.2997 13.2842 13.2997C13.4394 13.2997 13.5655 13.4258 13.5655 13.5809V17.2662L14.0834 16.7591C14.1945 16.6503 14.3722 16.6527 14.4809 16.7633C14.5897 16.8744 14.5878 17.0525 14.4767 17.1612L13.4811 18.1362C13.4262 18.1897 13.355 18.2169 13.2842 18.2169C13.213 18.2169 13.1422 18.1902 13.0873 18.1362L12.0912 17.1612C11.9806 17.0525 11.9788 16.8744 12.087 16.7633C12.1958 16.6522 12.3739 16.6503 12.485 16.7591L13.003 17.2662ZM11.2208 14.3553C11.3314 14.4641 11.3333 14.6422 11.225 14.7528C11.1163 14.8639 10.9381 14.8658 10.827 14.757L10.3091 14.2498V17.9352C10.3091 18.0903 10.1834 18.2164 10.0278 18.2164C9.87266 18.2164 9.74656 18.0903 9.74656 17.9352V14.2498L9.22859 14.757C9.17422 14.8105 9.10297 14.8377 9.03219 14.8377C8.95906 14.8377 8.88594 14.8095 8.83109 14.7528C8.72234 14.6422 8.72422 14.4636 8.83531 14.3553L9.83094 13.3803C9.94062 13.273 10.1155 13.273 10.2247 13.3803L11.2208 14.3553ZM11.3159 9.99406H16.3212C16.6578 9.99406 16.9311 10.2678 16.9311 10.6044V11.3966H12.4569C12.2131 11.3966 12.0069 11.2733 11.8911 11.0591L11.3159 9.99406Z" fill="currentColor"/>
</svg>
