<svg width="34" height="32" viewBox="0 0 34 32" fill="none" xmlns="http://www.w3.org/2000/svg">
<path d="M10.65 17.2499H2C1.66848 17.2499 1.35054 17.1182 1.11612 16.8838C0.881696 16.6493 0.75 16.3314 0.75 15.9999C0.75 15.6683 0.881696 15.3504 1.11612 15.116C1.35054 14.8816 1.66848 14.7499 2 14.7499H10.65L9.45 13.5499C9.2292 13.3129 9.10899 12.9995 9.11471 12.6757C9.12042 12.3518 9.25161 12.0429 9.48063 11.8138C9.70965 11.5848 10.0186 11.4536 10.3425 11.4479C10.6663 11.4422 10.9797 11.5624 11.2167 11.7832L14.55 15.1165C14.663 15.2321 14.7534 15.3678 14.8167 15.5165C14.8827 15.6691 14.9168 15.8336 14.9168 15.9999C14.9168 16.1661 14.8827 16.3306 14.8167 16.4832C14.7534 16.632 14.663 16.7676 14.55 16.8832L11.2167 20.2165C10.9823 20.4506 10.6646 20.5821 10.3333 20.5821C10.0021 20.5821 9.68437 20.4506 9.45 20.2165C9.21592 19.9822 9.08443 19.6645 9.08443 19.3332C9.08443 19.002 9.21592 18.6842 9.45 18.4499L10.65 17.2499ZM31.0333 2.79987L21.0333 0.299869C20.6034 0.194353 20.1551 0.187522 19.7222 0.279886C19.2892 0.372251 18.8828 0.561416 18.5333 0.833203C18.3251 1.0026 18.1402 1.19874 17.9833 1.41654H8.66667C7.89447 1.42091 7.15514 1.72961 6.60911 2.27564C6.06307 2.82168 5.75437 3.561 5.75 4.3332V7.66654C5.75 7.99806 5.8817 8.316 6.11612 8.55042C6.35054 8.78484 6.66848 8.91654 7 8.91654C7.33152 8.91654 7.64946 8.78484 7.88388 8.55042C8.1183 8.316 8.25 7.99806 8.25 7.66654V4.3332C8.25 4.2227 8.2939 4.11671 8.37204 4.03857C8.45018 3.96043 8.55616 3.91654 8.66667 3.91654H17.4167V28.0832H8.66667C8.55616 28.0832 8.45018 28.0393 8.37204 27.9612C8.2939 27.883 8.25 27.777 8.25 27.6665V24.3332C8.25 24.0017 8.1183 23.6837 7.88388 23.4493C7.64946 23.2149 7.33152 23.0832 7 23.0832C6.66848 23.0832 6.35054 23.2149 6.11612 23.4493C5.8817 23.6837 5.75 24.0017 5.75 24.3332V27.6665C5.75437 28.4387 6.06307 29.1781 6.60911 29.7241C7.15514 30.2701 7.89447 30.5788 8.66667 30.5832H17.9833C18.1402 30.801 18.3251 30.9971 18.5333 31.1665C19.0499 31.563 19.6821 31.7796 20.3333 31.7832C20.566 31.8078 20.8006 31.8078 21.0333 31.7832L31.0333 29.2832C31.6664 29.1267 32.2287 28.7626 32.6305 28.249C33.0323 27.7354 33.2504 27.102 33.25 26.4499V5.6332C33.2504 4.98111 33.0323 4.34768 32.6305 3.83409C32.2287 3.3205 31.6664 2.95637 31.0333 2.79987Z" fill="currentColor"/>
</svg>
