<svg width="40" height="40" viewBox="0 0 40 40" fill="none" xmlns="http://www.w3.org/2000/svg">
<g clip-path="url(#clip0_1539_50794)">
<path d="M32.3982 20.1924C31.6057 20.1924 30.9609 20.8372 30.9609 21.6298C30.9609 22.4223 31.6057 23.0671 32.3982 23.0671C33.1908 23.0671 33.8356 22.4223 33.8356 21.6298C33.8356 20.8372 33.1907 20.1924 32.3982 20.1924Z" fill="currentColor"/>
<path d="M35.4767 10.3198H4.5233C2.02912 10.3198 0 12.3489 0 14.8431V25.1571C0 27.6513 2.02912 29.6804 4.5233 29.6804H35.4767C37.9709 29.6804 40 27.6513 40 25.1571V14.8431C40 12.3489 37.9709 10.3198 35.4767 10.3198ZM11.8205 24.3593C11.6439 24.4933 11.4364 24.5581 11.2307 24.5581C10.9356 24.5581 10.6439 24.4249 10.4518 24.1717L8.38804 21.4524L6.4316 24.047C6.23959 24.3017 5.947 24.4358 5.6509 24.4358C5.44615 24.4358 5.23968 24.3717 5.06353 24.2388C4.6327 23.914 4.5469 23.3015 4.87168 22.8707L7.16072 19.835L5.13496 17.1658C4.80877 16.736 4.89278 16.1232 5.32252 15.7971C5.75225 15.4708 6.36509 15.5548 6.69121 15.9846L8.38304 18.2139L10.0621 15.9871C10.3868 15.5562 10.9992 15.4703 11.4302 15.7952C11.861 16.12 11.9468 16.7325 11.622 17.1633L9.61035 19.8312L12.008 22.9905C12.3342 23.4204 12.2502 24.0332 11.8205 24.3593ZM14.7895 21.0551H13.2306C12.6911 21.0551 12.2537 20.6177 12.2537 20.0783C12.2537 19.5388 12.6911 19.1014 13.2306 19.1014H14.7895C15.329 19.1014 15.7664 19.5388 15.7664 20.0783C15.7664 20.6177 15.329 21.0551 14.7895 21.0551ZM22.6359 22.0295C22.6359 23.7323 21.2505 25.1177 19.5476 25.1177C18.0155 25.1177 16.7006 23.9747 16.4891 22.459C16.4693 22.3175 16.4593 22.173 16.4593 22.0295C16.4593 21.49 16.8967 21.0526 17.4362 21.0526C17.9756 21.0526 18.413 21.49 18.413 22.0295C18.413 22.083 18.4167 22.1366 18.4241 22.189C18.5016 22.7448 18.9846 23.164 19.5476 23.164C20.1732 23.164 20.6822 22.655 20.6822 22.0295C20.6822 21.4039 20.1732 20.8949 19.5476 20.8949C19.0081 20.8949 18.5707 20.4575 18.5707 19.9181C18.5707 19.3786 19.0081 18.9412 19.5476 18.9412C20.1732 18.9412 20.6822 18.4322 20.6822 17.8067C20.6822 17.1811 20.1732 16.6721 19.5476 16.6721C19.0065 16.6721 18.5383 17.0563 18.4344 17.5857C18.3304 18.115 17.8169 18.4602 17.2876 18.3559C16.7582 18.2519 16.4133 17.7385 16.5172 17.2091C16.8007 15.7658 18.0752 14.7183 19.5475 14.7183C21.2504 14.7183 22.6358 16.1037 22.6358 17.8066C22.6358 18.6226 22.317 19.3652 21.7983 19.918C22.3172 20.4708 22.6359 21.2134 22.6359 22.0295ZM27.3118 24.0437C27.3118 24.5832 26.8744 25.0206 26.3349 25.0206C25.7955 25.0206 25.3581 24.5832 25.3581 24.0437V16.7692H24.5713C24.0318 16.7692 23.5944 16.3318 23.5944 15.7924C23.5944 15.2529 24.0318 14.8155 24.5713 14.8155H26.3349C26.8744 14.8155 27.3118 15.2529 27.3118 15.7924V24.0437ZM32.3963 25.0206C30.5266 25.0206 29.0053 23.4994 29.0053 21.6296C29.0053 20.6049 29.4628 19.6856 30.1836 19.0633C29.8544 18.6115 29.6594 18.0559 29.6594 17.4554C29.6594 15.9463 30.8872 14.7185 32.3963 14.7185C33.9055 14.7185 35.1332 15.9463 35.1332 17.4554C35.1332 18.0559 34.9383 18.6115 34.6091 19.0633C35.3299 19.6856 35.7873 20.6049 35.7873 21.6296C35.7873 23.4994 34.2662 25.0206 32.3963 25.0206Z" fill="currentColor"/>
<path d="M32.3926 18.2387C32.8244 18.2387 33.1758 17.8873 33.1758 17.4556C33.1758 17.0237 32.8244 16.6724 32.3926 16.6724C31.9607 16.6724 31.6094 17.0237 31.6094 17.4556C31.6094 17.8873 31.9606 18.2387 32.3926 18.2387Z" fill="currentColor"/>
</g>
<defs>
<clipPath id="clip0_1539_50794">
<rect width="40" height="40" fill="currentColor"/>
</clipPath>
</defs>
</svg>
