<svg width="19" height="24" viewBox="0 0 19 24" fill="none" xmlns="http://www.w3.org/2000/svg">
<path d="M17.0066 2.19363C17.4068 1.77318 17.0836 1.14043 16.5634 1.14043H9.33882C8.99641 1.14043 8.7188 1.41801 8.71885 1.76049C8.71885 1.76052 8.71885 1.76055 8.71885 1.76058V7.7543C7.61634 7.92526 6.6403 8.55216 6.05148 9.52517L6.30815 9.68049L6.05148 9.52518L1.30822 17.3635C-0.185356 19.8317 1.69689 22.8599 4.5956 22.8599H14.0821C16.9808 22.8599 18.863 19.8317 17.3695 17.3635L17.14 17.5024L17.3695 17.3635L12.6262 9.52518L12.6262 9.52517C12.0374 8.5522 11.0613 7.92527 9.95879 7.7543V6.25569H16.5634H16.8634V6.17877C17.19 5.99744 17.3099 5.53207 17.0192 5.21627L17.0192 5.21625L15.6216 3.69806L17.0028 2.19762C17.0036 2.19681 17.0044 2.196 17.0052 2.19518L17.0052 2.19526L17.0066 2.19363ZM15.4611 3.52374C15.4612 3.52381 15.4612 3.52388 15.4613 3.52394L15.4611 3.52377L15.4611 3.52374ZM16.1355 18.0332L15.8789 18.1885L16.1355 18.0332L11.3923 10.1949C10.4705 8.67143 8.2072 8.67151 7.28537 10.1949L2.54215 18.0332C1.59191 19.6035 2.78584 21.5127 4.59565 21.5127H14.082C15.8919 21.5127 17.0857 19.6035 16.1355 18.0332ZM8.91105 16.3724L8.91105 16.3724L8.35762 13.214C8.34413 13.1369 8.35252 13.0692 8.38331 13.0004C8.44235 12.8687 8.5659 12.7591 8.74797 12.6799C8.92979 12.6008 9.14566 12.5636 9.33882 12.5636C9.62618 12.5636 9.92738 12.6395 10.117 12.7883C10.285 12.9202 10.3464 13.0628 10.3199 13.2139L10.3199 13.2139L9.76649 16.3724C9.75836 16.4188 9.72937 16.4664 9.65489 16.5099C9.57675 16.5555 9.46351 16.5855 9.33822 16.5861C9.21286 16.5866 9.10035 16.5576 9.02304 16.5127C8.95014 16.4704 8.91988 16.4228 8.91105 16.3724ZM7.11225 10.1658L6.85559 10.0104L7.11225 10.1658C8.09663 8.539 10.581 8.53899 11.5654 10.1658L16.3086 18.0041C17.2722 19.5964 16.0781 21.6198 14.0821 21.6198H4.59565C2.59961 21.6198 1.40546 19.5964 2.36903 18.0041L7.11225 10.1658ZM8.89042 19.1003L8.69556 19.2985L8.89041 19.1002C8.50047 18.7169 8.77062 18.0451 9.33882 18.0451C9.68862 18.0451 9.97208 18.3256 9.97208 18.6643C9.97208 19.2024 9.29539 19.4983 8.89042 19.1003Z" fill="currentColor" stroke="currentColor" stroke-width="0.6"/>
</svg>
