<svg width="24" height="24" viewBox="0 0 24 24" fill="none" xmlns="http://www.w3.org/2000/svg">
<path d="M1.81074 19.1269C1.80869 20.8168 3.17692 22.1886 4.86694 22.1909H4.86721H4.87445H4.87485L6.83996 22.1909L6.84494 22.1908C7.03612 22.1889 7.19265 22.3424 7.19456 22.5336L7.69453 22.5286L7.19456 22.5336V22.5405L7.19446 22.5405L2.31074 19.1272M1.81074 19.1269C1.81074 19.1267 1.81074 19.1266 1.81074 19.1265L2.31074 19.1272M1.81074 19.1269V19.1272H2.31074M1.81074 19.1269V17.1787C1.81074 16.9829 1.652 16.8242 1.45617 16.8242C1.26035 16.8242 1.10161 16.9829 1.10161 17.1787V19.127L0.601605 19.1272M2.31074 19.1272V17.1787C2.31074 16.7068 1.92814 16.3242 1.45617 16.3242C0.984209 16.3242 0.601605 16.7068 0.601605 17.1787V19.1272M0.601605 19.1272H1.10161M0.601605 19.1272H1.10161M1.10161 19.1272C1.10245 21.2105 2.79112 22.8992 4.87445 22.9V23.4L4.87463 22.9L1.10161 19.1272ZM1.46115 7.19295L1.46115 7.19305C1.65232 7.19495 1.80885 7.04153 1.81077 6.85035V6.84339L1.81072 6.83846H1.81074V4.87324L1.46115 7.19295ZM1.46115 7.19295L1.45128 7.19305H1.44424C1.25308 7.1911 1.09968 7.03459 1.10158 6.84343L1.10161 6.84343V6.83846V4.87313C1.10161 4.87306 1.10161 4.87301 1.10161 4.87295C1.10245 2.78961 2.79112 1.10094 4.87445 1.1001C4.87451 1.1001 4.87457 1.1001 4.87463 1.1001L6.82287 1.1001C7.01869 1.1001 7.17744 1.25884 7.17744 1.45467C7.17744 1.65049 7.01869 1.80924 6.82287 1.80924H4.87445L4.86694 1.80924L1.46115 7.19295ZM22.542 16.8072L22.542 16.8071C22.3508 16.8052 22.1943 16.9586 22.1924 17.1498V17.1568L22.1924 17.1617L22.1924 19.1265V19.1272H21.6924C21.6943 20.5412 20.5495 21.689 19.1355 21.6909L22.542 16.8072ZM22.542 16.8072L22.5518 16.8071L22.5588 16.8071L22.542 16.8072ZM19.1285 1.1001L17.1632 1.1001C16.9673 1.1001 16.8086 1.25885 16.8086 1.45467C16.8086 1.65049 16.9673 1.80924 17.1632 1.80924H19.1284H19.1287V2.30924L19.1285 1.1001ZM19.1285 1.1001C19.1286 1.1001 19.1286 1.1001 19.1287 1.1001C21.212 1.10094 22.9007 2.78961 22.9015 4.87295L19.1285 1.1001ZM12.0028 10.9332L12.002 10.9332C10.1843 10.9315 8.71122 9.45841 8.70954 7.64071L8.70953 7.63984V7.62299V7.62294C8.71421 5.79941 10.1963 4.32494 12.0198 4.32962C13.8433 4.33431 15.3178 5.81636 15.3131 7.63989C15.3084 9.46342 13.8264 10.9379 12.0028 10.9332ZM6.81352 17.2392V17.2385V16.9649C6.81352 14.9632 8.43618 13.3406 10.4378 13.3406H13.5653C15.5669 13.3406 17.1896 14.9632 17.1896 16.9649V17.2385V17.2389V17.2457C17.1878 18.5867 16.0993 19.6723 14.7583 19.6705H14.7576L9.2455 19.6705L9.24479 19.6705H9.23838H9.23834C7.89736 19.6687 6.81173 18.5802 6.81352 17.2392ZM9.23768 20.1705H9.2455L6.31352 17.2385C6.31136 18.8557 7.62055 20.1683 9.23768 20.1705ZM8.20953 7.62165V7.64118V7.62165Z" fill="currentColor" stroke="currentColor"/>
</svg>
