<svg width="40" height="40" viewBox="0 0 40 40" fill="none" xmlns="http://www.w3.org/2000/svg">
<g clip-path="url(#clip0_1539_27765)">
<path d="M14.8007 7.6667C13.4674 1.90003 4.78403 1.88337 3.45069 7.6667C2.66736 11.05 4.81736 13.9167 6.68403 15.7C8.05069 16.9834 10.2007 16.9834 11.5674 15.7C13.434 13.9167 15.5674 11.05 14.8007 7.6667ZM9.18403 10.3334C8.26736 10.3334 7.51736 9.58337 7.51736 8.6667C7.51736 7.75003 8.25069 7.00003 9.16736 7.00003H9.18403C10.1174 7.00003 10.8507 7.75003 10.8507 8.6667C10.8507 9.58337 10.1174 10.3334 9.18403 10.3334Z" fill="currentColor"/>
<path d="M36.5186 27.6667C35.1853 21.9 26.4686 21.8834 25.1186 27.6667C24.3353 31.05 26.4853 33.9167 28.3686 35.7C29.7353 36.9834 31.9019 36.9834 33.2686 35.7C35.1519 33.9167 37.3019 31.05 36.5186 27.6667ZM30.8853 30.3334C29.9686 30.3334 29.2186 29.5834 29.2186 28.6667C29.2186 27.75 29.9519 27 30.8686 27H30.8853C31.8019 27 32.5519 27.75 32.5519 28.6667C32.5519 29.5834 31.8019 30.3334 30.8853 30.3334Z" fill="currentColor"/>
<path d="M20.001 32.9168H15.5344C13.601 32.9168 11.9177 31.7502 11.251 29.9502C10.5677 28.1502 11.0677 26.1668 12.5177 24.8835L25.8344 13.2335C26.6344 12.5335 26.651 11.5835 26.4177 10.9335C26.1677 10.2835 25.5344 9.5835 24.4677 9.5835H20.001C19.3177 9.5835 18.751 9.01683 18.751 8.3335C18.751 7.65016 19.3177 7.0835 20.001 7.0835H24.4677C26.401 7.0835 28.0844 8.25016 28.751 10.0502C29.4344 11.8502 28.9344 13.8335 27.4844 15.1168L14.1677 26.7668C13.3677 27.4668 13.351 28.4168 13.5844 29.0668C13.8344 29.7168 14.4677 30.4168 15.5344 30.4168H20.001C20.6844 30.4168 21.251 30.9835 21.251 31.6668C21.251 32.3502 20.6844 32.9168 20.001 32.9168Z" fill="currentColor"/>
</g>
<defs>
<clipPath id="clip0_1539_27765">
<rect width="40" height="40" fill="currentColor"/>
</clipPath>
</defs>
</svg>
