<?xml version="1.0" encoding="UTF-8"?>
<svg version="1.1" xmlns="http://www.w3.org/2000/svg" width="1419" height="581">
<path d="M0 0 C26.73 0 53.46 0 81 0 C81.0661015 30.26872514 81.12150735 60.5374079 81.15319599 90.80618434 C81.15694824 94.37738148 81.16083119 97.94857848 81.16479492 101.51977539 C81.16558185 102.23075478 81.16636878 102.94173416 81.16717956 103.67425837 C81.18024361 115.19560561 81.20390293 126.71690807 81.23145839 138.23822872 C81.25948484 150.05478008 81.2761704 161.87130795 81.28226548 173.68789119 C81.28601721 180.32735899 81.29543215 186.96674334 81.31719017 193.60618019 C81.33748636 199.8498693 81.34384773 206.09341445 81.33932304 212.33713341 C81.34015133 214.63377539 81.34615762 216.93042198 81.35761642 219.22703552 C81.37245296 222.35281509 81.3689859 225.47804484 81.36076355 228.60383606 C81.36950207 229.52114323 81.3782406 230.4384504 81.38724393 231.38355476 C81.38127078 232.21857605 81.37529764 233.05359734 81.36914349 233.91392231 C81.37028265 234.63577066 81.37142181 235.35761901 81.37259549 236.10134155 C80.88900093 238.56562499 79.95986851 239.47727799 78 241 C77.34 241 76.68 241 76 241 C75.31225595 242.32258472 74.65288627 243.65986503 74 245 C73.46375 246.0725 72.9275 247.145 72.375 248.25 C70.09979951 254.45509225 70.29837284 259.99304259 72.828125 266.04296875 C75.80887494 271.02082115 80.19318986 274.21157376 85.4375 276.5 C92.55192708 277.49851608 98.22572096 276.7328076 104.20703125 272.578125 C108.86339852 268.47971023 111.71718771 263.29636632 112.1328125 257.07421875 C111.68606974 250.09714802 108.79402498 244.91387561 104 240 C102.515 239.01 102.515 239.01 101 238 C100.63923645 235.13998413 100.63923645 235.13998413 100.65942383 231.43896484 C100.65906222 230.75478296 100.65870062 230.07060108 100.65832806 229.36568642 C100.66057041 227.14714089 100.6834292 224.92934804 100.70703125 222.7109375 C100.71144114 221.34285852 100.71450227 219.9747745 100.71618652 218.60668945 C100.73192637 213.52938253 100.77380995 208.4521839 100.8125 203.375 C100.874375 192.03125 100.93625 180.6875 101 169 C124.1 169 147.2 169 171 169 C171.2165625 185.891875 171.2165625 185.891875 171.4375 203.125 C171.50122803 206.67266113 171.56495605 210.22032227 171.63061523 213.87548828 C171.66223145 218.22827148 171.66223145 218.22827148 171.66810608 220.26998901 C171.67881274 221.68738207 171.7033465 223.10471371 171.73902893 224.521698 C172.02623321 236.53375488 172.02623321 236.53375488 169.46096802 240.19891357 C167.57446289 241.79638672 167.57446289 241.79638672 165.69032288 242.95187378 C161.95152934 245.27020455 161.15903471 249.33939427 160.1875 253.375 C159.83321562 260.22449811 161.52467532 265.70027341 166 271 C171.1272509 275.30177513 176.28112204 277.35483001 183 277 C189.62007415 276.03202277 193.51791903 273.25678326 197.625 268.046875 C200.88299139 263.19691055 201.49646415 258.75898409 201 253 C200.19659919 250.23733787 199.15310293 247.63320519 198 245 C197.690625 244.21625 197.38125 243.4325 197.0625 242.625 C195.68702031 240.52132518 194.30085457 239.93472217 192 239 C191.34 238.67 190.68 238.34 190 238 C190 215.23 190 192.46 190 169 C213.1 169 236.2 169 260 169 C260.12375 180.281875 260.2475 191.56375 260.375 203.1875 C260.45693604 208.52264771 260.45693604 208.52264771 260.54052734 213.96557617 C260.56762695 218.32287598 260.56762695 218.32287598 260.57266235 220.36543274 C260.58185117 221.78616114 260.60290396 223.20684392 260.63345337 224.62727356 C260.87935148 236.66679818 260.87935148 236.66679818 258.6756897 240.0078125 C257.0546875 241.3581543 257.0546875 241.3581543 254 243 C250.12621426 247.90955732 249.34889602 253.18944907 249.62890625 259.32421875 C250.36118657 264.60434526 252.00208517 268.16991001 255.953125 271.7890625 C260.99557446 275.5091913 265.68719314 277.47890259 272 277 C278.15332307 275.75324827 283.42092545 273.5801627 287.1875 268.3515625 C290.46149916 262.78121671 290.90549997 257.33849979 290 251 C288.6188256 246.42195003 287.24354796 243.66838715 282.9453125 241.3581543 C280.44993958 239.27943636 280.02319654 238.13631621 279.46939087 234.88183594 C279.30359182 230.71497947 279.32443086 226.58549459 279.4140625 222.41796875 C279.42289099 221.05295273 279.42900789 219.6879164 279.43237305 218.32287598 C279.46375242 213.27743965 279.54752093 208.23243898 279.625 203.1875 C279.74875 191.905625 279.8725 180.62375 280 169 C305.74 169 331.48 169 358 169 C358.33 227.74 358.66 286.48 359 347 C240.53 347 122.06 347 0 347 C0 232.49 0 117.98 0 0 Z " fill="currentColor" transform="translate(935,14)"/>
<path d="M0 0 C48.84 0 97.68 0 148 0 C148 25.74 148 51.48 148 78 C138.3475 78.103125 128.695 78.20625 118.75 78.3125 C115.70620117 78.35802002 112.66240234 78.40354004 109.52636719 78.45043945 C107.11654768 78.46504107 104.70671587 78.4777825 102.296875 78.48828125 C101.04342285 78.51386108 99.7899707 78.53944092 98.49853516 78.5657959 C97.30115723 78.56640015 96.1037793 78.56700439 94.87011719 78.56762695 C93.83087097 78.57873001 92.79162476 78.58983307 91.72088623 78.60127258 C88.0402451 77.78790943 87.07654741 76.04402393 85 73 C80.79822763 69.669924 76.37809099 68.09272571 71 68 C64.86361973 69.21437998 60.31161031 71.48307492 56 76 C52.96705034 81.25711275 52.09975029 86.05630587 53 92 C54.87561799 98.2185668 58.33237666 101.93606441 64 105 C69.52457118 106.84152373 74.91005661 106.8169855 80.25 104.375 C83.22077181 102.88961409 84.05194409 101.91100582 85.78295898 98.9453125 C87.70817055 96.62672134 88.73114421 96.05226107 91.72970581 95.46939087 C95.29802281 95.30430287 98.82348793 95.32625279 102.39453125 95.4140625 C104.12672913 95.42312622 104.12672913 95.42312622 105.8939209 95.43237305 C110.2004785 95.46372428 114.50652579 95.54749315 118.8125 95.625 C128.444375 95.74875 138.07625 95.8725 148 96 C148 118.44 148 140.88 148 164 C115.47097327 164.36272731 115.47097327 164.36272731 101.82421875 164.43945312 C92.40661438 164.49282714 82.98973546 164.55551995 73.57275391 164.67895508 C66.71383865 164.76881674 59.85551266 164.82676008 52.99602509 164.84679645 C49.36544317 164.85850505 45.73654657 164.88590562 42.10650635 164.95157051 C38.04811713 165.02438468 33.9926344 165.02589976 29.93359375 165.02172852 C28.73740921 165.054086 27.54122467 165.08644348 26.30879211 165.11978149 C18.26826511 165.03042412 18.26826511 165.03042412 14.53860474 162.00019646 C12.39477539 159.56504822 12.39477539 159.56504822 10.61268616 157.13424587 C8.14743262 153.87170334 5.93141057 152.98285264 2 152 C-5.69209095 151.15968754 -12.46069003 151.60153556 -19 156 C-24.23887428 160.53805996 -27.31809509 166.14142749 -28.28125 173.00390625 C-28.61070352 180.0185208 -25.94268421 186.29395932 -22 192 C-19.68629608 193.82359299 -19.68629608 193.82359299 -17.0625 195.25 C-15.78052734 196.00023437 -15.78052734 196.00023437 -14.47265625 196.765625 C-8.56120951 199.71667898 -2.73507502 199.68905013 3.5625 197.8125 C8.55984304 196.00766742 12.45505584 193.4730666 15.33068562 188.86990738 C17 187 17 187 19.41501904 186.50780869 C20.3782927 186.51149586 21.34156637 186.51518303 22.33403015 186.51898193 C23.44040833 186.51348328 24.5467865 186.50798462 25.68669128 186.50231934 C26.9008522 186.51670044 28.11501312 186.53108154 29.3659668 186.54589844 C30.64412262 186.54531433 31.92227844 186.54473022 33.23916626 186.54412842 C36.74529947 186.54297945 40.25088674 186.5665175 43.75689292 186.59442425 C47.42040483 186.61940788 51.08392887 186.62177748 54.74751282 186.62652588 C61.68552179 186.63896466 68.62327902 186.67179826 75.56117707 186.71192384 C84.93596933 186.7649678 94.3108303 186.78657974 103.68573475 186.80993271 C118.4573451 186.84755924 133.22842421 186.92724357 148 187 C148 210.1 148 233.2 148 257 C61.21 257.33 -25.58 257.66 -115 258 C-115 200.58 -115 143.16 -115 84 C-77.05 84 -39.1 84 0 84 C0 56.28 0 28.56 0 0 Z " fill="currentColor" transform="translate(664,104)"/>
<path d="M0 0 C2.625 2.3125 2.625 2.3125 3.91015625 5.85546875 C4.88557319 7.82011982 4.88557319 7.82011982 6.625 9.3125 C10.58871447 10.40501787 14.53326624 10.63885374 18.63110352 10.83584595 C22.14631442 11.00961372 25.65213708 11.30132283 29.16015625 11.58203125 C29.87362213 11.63677109 30.58708801 11.69151093 31.32217407 11.74790955 C92.10790562 16.63159013 153.20284305 44.07227966 193.42431641 90.38427734 C202.16565987 100.87736322 209.22792599 112.2707914 215.625 124.3125 C215.96225098 124.9430127 216.29950195 125.57352539 216.64697266 126.22314453 C225.92566874 143.89385191 231.58336074 163.65302199 234.625 183.3125 C234.73537598 184.00311523 234.84575195 184.69373047 234.95947266 185.40527344 C236.17584451 193.34712812 236.66105032 201.24308377 236.82421875 209.2734375 C236.84004501 209.98209961 236.85587128 210.69076172 236.87217712 211.42089844 C236.94970761 214.99620891 237.00449621 218.56938429 237.02026367 222.14550781 C237.23702368 240.53453349 249.08781457 251.08863722 261.06640625 263.9296875 C274.40221554 278.32985716 288.37455675 294.47676743 287.93359375 315.25390625 C286.95409603 324.96209253 281.79016845 332.07905195 274.39453125 338.140625 C272.49857405 339.57685453 270.58640984 340.96753325 268.625 342.3125 C269.33129165 345.75465702 270.69216497 348.64290095 272.1875 351.8125 C274.81608813 358.07832054 275.7229176 363.57224065 274.625 370.3125 C273.69077655 372.52337143 272.60370469 374.51076384 271.390625 376.578125 C270.34853188 378.48857048 270.34853188 378.48857048 271.25 381.4375 C271.930625 382.860625 271.930625 382.860625 272.625 384.3125 C274.91318416 390.28720307 275.56091889 394.84507747 273.25 400.9375 C271.625 404.3125 271.625 404.3125 270.34765625 406.4609375 C269.23328369 410.85819138 270.87816011 414.16324138 272.4375 418.3125 C277.45832136 432.2128414 279.0442812 447.16101854 273.625 461.3125 C265.76759943 477.85954917 251.672439 487.73049699 234.84521484 493.87402344 C221.02198976 498.67551952 207.44213738 501.11602072 192.87130737 502.16989136 C188.04617393 502.52223897 183.22650334 502.93848072 178.40625 503.3515625 C177.46526962 503.43133835 176.52428925 503.5111142 175.55479431 503.5933075 C153.50598224 505.50153779 131.42944548 508.81149083 111.21484375 518.17578125 C108.625 519.3125 108.625 519.3125 106.625 519.3125 C106.65980469 519.96476563 106.69460938 520.61703125 106.73046875 521.2890625 C106.89953605 526.74752118 106.83432627 530.66451023 103.625 535.3125 C98.44816998 539.98427343 95.23146502 540.6603341 88.390625 540.59765625 C83.5776657 540.1014048 80.90965971 537.77435415 77.8125 534.25 C75.11661449 529.85144996 74.9139441 525.31413183 75.625 520.3125 C77.32801624 516.06229999 79.58760022 513.12217787 83.1875 510.3125 C86.60681974 509.3177888 88.51185344 509.38427541 92 509.625 C98.59890425 509.82100706 102.8844385 507.58622633 108.52490234 504.52661133 C115.0211513 501.0034472 121.61984061 498.63701253 128.625 496.3125 C114.60444055 487.82924321 100.53261612 479.46072149 86.30712891 471.32592773 C81.81804024 468.7546078 77.36062578 466.17369824 73.00390625 463.3828125 C70.00123039 461.13835117 70.00123039 461.13835117 67.625 461.3125 C66.965 462.034375 66.305 462.75625 65.625 463.5 C59.6326209 469.54418641 53.01132041 471.80633433 44.5625 471.875 C34.99187861 471.68627414 28.41812484 468.84811237 21.41796875 462.37890625 C15.79965156 455.90376508 13.32479025 448.26287984 13.39453125 439.82421875 C13.84763254 434.8861827 15.39506779 429.84411046 17.5625 425.3828125 C17.86037749 422.98658165 17.86037749 422.98658165 15.37890625 420.54296875 C14.32762667 419.51567274 13.26311585 418.5017866 12.1875 417.5 C11.67767578 417.00435547 11.16785156 416.50871094 10.64257812 415.99804688 C7.746027 413.20917423 4.75722158 410.53973803 1.72265625 407.90234375 C-3.22945324 403.59788612 -7.99831282 399.10725962 -12.71411133 394.54589844 C-16.13912783 391.25425659 -19.50590227 388.12574836 -23.37890625 385.3671875 C-31.85005566 379.12432425 -34.47466297 373.30378441 -36.33642578 363.00830078 C-36.69828067 361.17435603 -36.69828067 361.17435603 -37.06744576 359.30336189 C-37.58590919 356.66942194 -38.09621932 354.03524938 -38.59455109 351.39756012 C-39.36569051 347.33213232 -40.18324818 343.27702906 -41.01239014 339.2230835 C-42.64262354 331.23946408 -44.2439151 323.25026154 -45.83930731 315.25961447 C-46.63487328 311.27661166 -47.43236333 307.29399396 -48.22952271 303.31130981 C-49.56031607 296.6609395 -50.88952281 290.0102536 -52.21777344 283.359375 C-53.75265922 275.67395185 -55.29037599 267.98909894 -56.82947528 260.30451858 C-58.16008585 253.66052344 -59.48920652 247.01623155 -60.81706631 240.3716861 C-61.60648529 236.42147815 -62.39641954 232.47137517 -63.18770981 228.5215416 C-63.92658051 224.83294267 -64.66358526 221.14397586 -65.39911842 217.45471001 C-65.6693613 216.10084394 -65.94026397 214.74710938 -66.21186256 213.39351463 C-66.5811557 211.55248262 -66.94786377 209.71093262 -67.31442261 207.86935425 C-67.52048567 206.83828489 -67.72654873 205.80721554 -67.93885612 204.74490166 C-68.375 202.3125 -68.375 202.3125 -68.375 200.3125 C-69.40625 200.23 -70.4375 200.1475 -71.5 200.0625 C-77.17866342 198.96340385 -80.21462168 196.84921724 -83.6875 192.25 C-86.56628003 187.23879033 -87.02676095 182.97639449 -86.375 177.3125 C-84.57487248 171.54180551 -81.52540852 167.55534981 -76.375 164.3125 C-70.41088156 162.0975463 -65.35091707 161.81553863 -59.41796875 164.19921875 C-55.0433655 166.58308477 -52.2417033 169.53782182 -50.0625 174 C-49.375 177.3125 -49.375 177.3125 -49.53076172 179.75878906 C-49.63090378 182.95315113 -49.41887008 185.27903809 -48.375 188.3125 C-44.67186278 191.82738769 -40.31121472 194.04024822 -35.8125 196.375 C-34.55486565 197.06614453 -33.29957856 197.76157677 -32.04663086 198.46118164 C-29.58742008 199.83058101 -27.12009853 201.18272637 -24.64355469 202.52050781 C-20.80815416 204.62327446 -17.11089118 206.87945606 -13.4375 209.25 C-6.35069253 213.74296849 0.82263922 218.09136815 8 222.4375 C17.43766087 228.15389263 26.85567184 233.90012136 36.25 239.6875 C37.31863281 240.34371338 38.38726562 240.99992676 39.48828125 241.67602539 C44.38253053 244.6837599 49.26296773 247.70865002 54.109375 250.79296875 C55.35920166 251.58018311 55.35920166 251.58018311 56.63427734 252.38330078 C58.16200001 253.34660166 59.68367445 254.31959345 61.19775391 255.30419922 C64.67945667 257.68037664 64.67945667 257.68037664 68.70556641 258.01928711 C71.0319578 257.16264718 72.66687551 255.81372877 74.625 254.3125 C75.285 254.3125 75.945 254.3125 76.625 254.3125 C74.85590099 248.39531343 73.08467155 242.47876703 71.3125 236.5625 C71.04610718 235.67278503 70.77971436 234.78307007 70.50524902 233.86639404 C67.49184989 223.80570394 64.4628813 213.75024411 61.37890625 203.7109375 C61.12352585 202.87900879 60.86814545 202.04708008 60.60502625 201.18994141 C59.38352857 197.21293792 58.15841016 193.23709476 56.9284668 189.26269531 C56.48869027 187.83400877 56.04898869 186.40529916 55.609375 184.9765625 C55.22491211 183.73342285 54.84044922 182.4902832 54.44433594 181.20947266 C53.625 178.3125 53.625 178.3125 53.625 176.3125 C53.04492188 176.28671875 52.46484375 176.2609375 51.8671875 176.234375 C46.4004816 175.83745246 42.90832383 174.99815074 38.625 171.3125 C33.37686956 164.3622732 33.37686956 164.3622732 33.984375 159.34375 C34.42490146 155.36139079 34.4577455 152.2442188 33.625 148.3125 C30.34280894 144.31344974 26.58828622 141.49090649 22.36474609 138.54443359 C19.84496984 136.76015195 17.49460122 134.79008448 15.125 132.8125 C14.238125 132.090625 13.35125 131.36875 12.4375 130.625 C9.30700088 128.05103406 6.2133659 125.43670534 3.125 122.8125 C-1.6441121 118.76237401 -6.45412432 114.76897887 -11.3046875 110.81640625 C-14.38878845 108.30125522 -17.46780653 105.78015352 -20.54101562 103.25170898 C-22.0129973 102.04279035 -23.48826564 100.83786244 -24.96679688 99.63696289 C-28.38623366 96.84632254 -31.72149723 94.03437875 -34.8984375 90.96875 C-40.54200427 85.40543684 -40.54200427 85.40543684 -47.85546875 82.77734375 C-50.09006786 82.84046802 -52.32414415 82.96530358 -54.55078125 83.1640625 C-57.375 83.3125 -57.375 83.3125 -61 81.75 C-64.33336552 78.32891433 -66.19378068 75.15160276 -66.50390625 70.29296875 C-66.16183236 64.87161596 -64.26731232 62.02788904 -60.375 58.3125 C-56.63699324 55.98887417 -53.50877809 56.15039794 -49.30078125 56.83984375 C-45.45750004 57.78312372 -43.14675521 59.4342958 -40.5625 62.375 C-39.23983545 65.64685441 -39.56714236 66.47077028 -40.125 69.8125 C-40.23504287 72.76605069 -39.97754362 74.56855948 -38.09326172 76.89501953 C-34.42981477 80.51535443 -30.38698636 83.67999492 -26.31103516 86.81982422 C-23.74182594 88.80067481 -21.24842766 90.86843176 -18.75 92.9375 C-17.88117188 93.64132813 -17.01234375 94.34515625 -16.1171875 95.0703125 C-13.00499565 97.61503917 -9.93782516 100.20878508 -6.875 102.8125 C-2.10738619 106.86156332 2.70099103 110.85405547 7.55078125 114.8046875 C10.65465385 117.33669031 13.75111837 119.87736566 16.8425293 122.42456055 C18.31861339 123.63831626 19.79793635 124.84814411 21.28051758 126.05395508 C24.62472552 128.78327351 27.90384401 131.52707214 31.03125 134.50390625 C31.54888916 134.98158447 32.06652832 135.4592627 32.59985352 135.95141602 C33.96022671 137.21732831 35.29197107 138.51381525 36.62109375 139.8125 C41.17304478 142.08551586 44.89281688 140.6859293 49.625 139.3125 C49.68445801 138.52270752 49.74391602 137.73291504 49.80517578 136.91918945 C51.51639243 114.37241314 53.40204917 91.84046546 55.34173584 69.31234741 C55.61491521 66.13885478 55.88617226 62.96520674 56.15582275 59.79141235 C56.47840164 55.99672594 56.80511144 52.20241715 57.13497925 48.40835762 C57.25788595 46.98737029 57.37940165 45.56626191 57.4994812 44.14503288 C57.66525428 42.18652961 57.83662962 40.22850291 58.00830078 38.27050781 C58.15128098 36.61042694 58.15128098 36.61042694 58.29714966 34.91680908 C58.625 32.3125 58.625 32.3125 59.625 30.3125 C55.26986106 29.61403069 50.91397191 28.92049115 46.55737305 28.23120117 C45.0802779 27.99682577 43.60338314 27.7611833 42.12670898 27.52416992 C33.6442691 26.16364294 25.19946002 24.93853009 16.625 24.3125 C15.52285156 24.21066406 14.42070312 24.10882813 13.28515625 24.00390625 C10.6284681 23.8720706 8.24618491 23.83793691 5.625 24.3125 C3.125 26.97916667 3.125 26.97916667 1.625 30.3125 C-3.67752797 35.09770817 -7.71470641 35.62000096 -14.65625 35.51953125 C-20.04638849 35.1090753 -23.07544962 32.84747427 -26.625 29 C-30.78737829 23.80247528 -31.95765878 18.95481005 -31.375 12.3125 C-29.32094677 6.35574563 -26.93222923 1.83595571 -21.4375 -1.4375 C-13.83296686 -4.54139108 -7.28962603 -3.64481301 0 0 Z M66.625 35.3125 C64.99661118 52.62919726 63.37141823 69.94618929 61.75238037 87.26376343 C61.10178701 94.22202341 60.44962903 101.18012906 59.79310608 108.13783264 C59.50505252 111.19764032 59.21985435 114.25770698 58.9359436 117.31790161 C58.75559799 119.2524509 58.57158323 121.18665704 58.38745117 123.12084961 C58.10523443 126.1835204 57.85024607 129.24517847 57.625 132.3125 C57.55925781 133.13041016 57.49351562 133.94832031 57.42578125 134.79101562 C57.26026728 137.16581352 57.26026728 137.16581352 57.625 140.3125 C59.16203294 142.03169159 59.16203294 142.03169159 61.375 142.8125 C65.39610212 144.94048148 66.99897571 146.88826057 68.93359375 150.95703125 C69.93406614 154.36542024 70.20680927 157.78525896 70.625 161.3125 C93.93249335 171.05838396 117.2777892 180.70806865 140.65771484 190.27880859 C148.19699884 193.36518149 155.73468793 196.45544035 163.27197266 199.54669189 C165.721314 200.55074086 168.17115882 201.55355276 170.62109375 202.55615234 C178.24441789 205.6781211 185.8576041 208.82115607 193.44921875 212.01953125 C194.81814269 212.59420398 196.18711906 213.16875186 197.55615234 213.74316406 C200.08229007 214.80309624 202.60398999 215.87274881 205.12353516 216.94824219 C206.22358887 217.41004883 207.32364258 217.87185547 208.45703125 218.34765625 C209.89139526 218.95685913 209.89139526 218.95685913 211.35473633 219.57836914 C213.62391377 220.60500878 213.62391377 220.60500878 215.625 219.3125 C215.12613281 218.7040625 214.62726563 218.095625 214.11328125 217.46875 C211.61483701 214.41858468 209.11935613 211.36600833 206.625 208.3125 C206.12178223 207.69681152 205.61856445 207.08112305 205.10009766 206.44677734 C199.3352637 199.38899638 193.60017216 192.31441021 188 185.125 C184.47280153 180.59904476 180.85532014 176.17246858 177.125 171.8125 C173.27048867 167.3073075 169.534062 162.72788256 165.875 158.0625 C165.4102124 157.47766846 164.9454248 156.89283691 164.46655273 156.2902832 C162.44850324 153.73432849 160.55989364 151.21086715 158.80078125 148.46484375 C155.76823749 143.73725313 155.76823749 143.73725313 150.7421875 141.6875 C148.64286808 141.56370721 146.5402674 141.4859443 144.4375 141.45703125 C140.45452292 141.25235048 138.45895173 140.0737863 135.625 137.3125 C132.2646336 131.78415527 132.34628279 127.42192668 133.625 121.3125 C134.12 119.8275 134.12 119.8275 134.625 118.3125 C133.58410972 116.4668789 133.58410972 116.4668789 131.94140625 114.65234375 C131.3477124 113.94650146 130.75401855 113.24065918 130.14233398 112.51342773 C129.49723877 111.76649658 128.85214355 111.01956543 128.1875 110.25 C126.87714602 108.69830344 125.56724685 107.14622269 124.2578125 105.59375 C123.62391602 104.84867187 122.99001953 104.10359375 122.33691406 103.3359375 C120.36751898 101.00816419 118.45420469 98.64124576 116.5625 96.25 C113.73431916 92.69060147 110.87494664 89.1584191 108.00219727 85.63500977 C102.87083952 79.34110775 97.79474607 73.01128549 92.79638672 66.61132812 C88.68787812 61.36363537 84.4905403 56.19038712 80.27636719 51.02734375 C76.4739697 46.36797087 72.72302353 41.67300064 69.015625 36.9375 C68.55671875 36.40125 68.0978125 35.865 67.625 35.3125 C67.295 35.3125 66.965 35.3125 66.625 35.3125 Z M78.625 35.3125 C81.1515505 39.88310003 84.30873853 43.74504722 87.625 47.75 C91.83001764 52.87268885 95.99279588 58.01915272 100.0625 63.25 C104.74160034 69.25134242 109.56860194 75.12215467 114.42236328 80.98266602 C118.15783548 85.5029056 121.82835487 90.06586935 125.4375 94.6875 C126.32030686 95.81380651 127.20311922 96.9401087 128.0859375 98.06640625 C129.36245319 99.69599036 130.63643192 101.32727241 131.90332031 102.96435547 C133.11383851 104.52508943 134.33789409 106.07529513 135.5625 107.625 C136.25214844 108.50800781 136.94179688 109.39101562 137.65234375 110.30078125 C139.7519501 112.44196396 140.69209147 113.00869274 143.625 113.3125 C144.759375 113.291875 145.89375 113.27125 147.0625 113.25 C150.55850137 113.31133336 152.48095895 113.93731909 155.625 115.3125 C156.21925781 114.76722656 156.81351562 114.22195312 157.42578125 113.66015625 C162.92679137 108.65534922 168.54643199 103.87761498 174.375 99.2578125 C176.80460253 97.33194456 176.80460253 97.33194456 178.625 94.3125 C171.81328092 86.52579598 164.88755462 79.60158357 156.625 73.3125 C156.09487305 72.89677734 155.56474609 72.48105469 155.01855469 72.05273438 C135.40793933 56.68748148 113.40383387 46.16444435 90.0625 37.75 C89.01787598 37.37222412 89.01787598 37.37222412 87.95214844 36.98681641 C84.60910651 35.8276838 82.2152507 35.3125 78.625 35.3125 Z M178.75 105.75 C173.90987436 110.22474203 168.9080481 114.40243352 163.7421875 118.5 C161.54962867 120.13939486 161.54962867 120.13939486 160.625 122.3125 C160.91234219 124.22811457 161.2031011 126.14420475 161.56640625 128.046875 C161.625 130.3125 161.625 130.3125 160.3671875 133.1796875 C159.22348248 136.42164998 159.22348248 136.42164998 161.37890625 139.3984375 C162.29463668 140.51194403 163.23265498 141.60734724 164.1875 142.6875 C164.68765625 143.28691406 165.1878125 143.88632813 165.703125 144.50390625 C166.77612559 145.78885758 167.85732157 147.06700116 168.94580078 148.33886719 C171.73256128 151.61426293 174.42106678 154.96872636 177.125 158.3125 C178.22387416 159.66022489 179.32283216 161.00788142 180.421875 162.35546875 C183.44795354 166.07980308 186.42012379 169.8440518 189.375 173.625 C193.24679644 178.57742599 197.17842072 183.47277412 201.171875 188.328125 C216.39721527 206.85067272 216.39721527 206.85067272 223.625 216.3125 C230.69941602 202.16366796 219.12539634 170.08547707 214.5 155.75 C207.80633084 136.09788179 198.36032091 117.00663816 184.625 101.3125 C182.47987777 101.3125 180.16681463 104.43151953 178.75 105.75 Z M63.875 170.875 C63.1325 171.679375 62.39 172.48375 61.625 173.3125 C61.97784451 178.18636144 63.2045576 182.65002637 64.65039062 187.30175781 C64.9554377 188.29092697 64.9554377 188.29092697 65.26664734 189.30007935 C65.93314265 191.45685961 66.60711071 193.61122305 67.28125 195.765625 C67.74870547 197.27286917 68.21569853 198.78025682 68.68225098 200.28778076 C69.90684244 204.240166 71.13784676 208.19052526 72.37017822 212.14050293 C73.62452647 216.16533086 74.87245346 220.19214844 76.12109375 224.21875 C77.94406641 230.09377066 79.76909498 235.96814469 81.59960938 241.84082031 C81.9674353 243.02105774 82.33526123 244.20129517 82.7142334 245.41729736 C83.33411226 247.38780759 83.97176495 249.35279484 84.625 251.3125 C85.32625 251.33828125 86.0275 251.3640625 86.75 251.390625 C94.04091931 251.82649518 100.05265682 252.74811304 105.37890625 258.0625 C106.85699075 259.77209171 108.24288333 261.52543195 109.625 263.3125 C110.615 264.3025 110.615 264.3025 111.625 265.3125 C112.45596191 265.04656036 113.28692383 264.78062073 114.14306641 264.50662231 C122.13833632 261.94804607 130.13395033 259.39054833 138.12991333 256.83413887 C142.23652605 255.52116508 146.34302363 254.20783395 150.44921875 252.89355469 C154.42299259 251.62169035 158.39707835 250.35080518 162.37139893 249.08065033 C163.95738098 248.57367917 165.54327781 248.06644132 167.12908936 247.55893707 C175.76380268 244.79625796 184.40543667 242.06027837 193.0703125 239.39355469 C194.19573959 239.04619798 194.19573959 239.04619798 195.34390259 238.69182396 C198.89511285 237.59583712 202.44787498 236.505668 206.00439453 235.42703247 C207.24560059 235.04489594 208.48680664 234.6627594 209.765625 234.26904297 C210.85391602 233.93774384 211.94220703 233.6064447 213.06347656 233.2651062 C215.74476195 232.47026187 215.74476195 232.47026187 217.625 230.3125 C197.61851395 221.9358615 177.58158104 213.63785946 157.5010376 205.4402771 C139.968589 198.28224017 122.46199392 191.06272719 104.96395874 183.8210144 C102.32068543 182.72792103 99.67653337 181.63697723 97.03222656 180.54638672 C93.18145072 178.95800158 89.33558087 177.35821738 85.49121094 175.75439453 C83.48118656 174.92073744 81.47109721 174.08723698 79.4609375 173.25390625 C78.52021393 172.85912582 77.57949036 172.4643454 76.61026001 172.05760193 C75.7390451 171.69771683 74.8678302 171.33783173 73.97021484 170.96704102 C73.20188324 170.64687515 72.43355164 170.32670929 71.64193726 169.99684143 C68.33683742 168.87542987 66.91249299 169.14915171 63.875 170.875 Z M-59.375 198.3125 C-59.7486544 200.54459489 -59.7486544 200.54459489 -59.30223083 203.04711914 C-59.1734297 204.0318924 -59.04462856 205.01666565 -58.91192436 206.03128052 C-57.89748415 212.23066581 -56.75665236 218.39671473 -55.53930664 224.55859375 C-55.24638649 226.06263018 -54.95393453 227.56675785 -54.66191101 229.07096863 C-53.87369749 233.12307649 -53.07850267 237.17378361 -52.28159642 241.22418976 C-51.61582951 244.61150806 -50.95355253 247.99950485 -50.29126352 251.38750458 C-48.72986665 259.37472133 -47.1628106 267.360813 -45.59204102 275.34619141 C-43.9718766 283.5831447 -42.36076437 291.82183176 -40.7541247 300.06143284 C-39.37219359 307.14711675 -37.98500312 314.23175662 -36.59349531 321.31556606 C-35.76331294 325.54199351 -34.93507294 329.76877756 -34.11177254 333.99655151 C-33.33892176 337.96390941 -32.55950775 341.92992141 -31.77496529 345.89498329 C-31.48800678 347.35101822 -31.20337309 348.80751351 -30.92121506 350.26448631 C-30.53631945 352.2499798 -30.14225397 354.23368919 -29.74769592 356.21728516 C-29.52960801 357.32850739 -29.3115201 358.43972961 -29.08682346 359.58462524 C-28.48390946 362.50299972 -28.48390946 362.50299972 -26.375 365.3125 C-25.57449219 364.58546875 -25.57449219 364.58546875 -24.7578125 363.84375 C-19.94500473 359.51388834 -15.02906141 355.37652713 -9.953125 351.359375 C-7.36528829 349.30478949 -4.80462127 347.22070727 -2.25 345.125 C2.36423197 341.34080693 6.99190199 337.57356844 11.625 333.8125 C16.13147495 330.15367903 20.63476129 326.49124979 25.125 322.8125 C30.30591861 318.56789198 35.50410571 314.34474674 40.70507812 310.12475586 C43.74761259 307.6550577 46.78798207 305.18315264 49.8125 302.69140625 C54.98891723 298.42805151 60.20967431 294.26925659 65.625 290.3125 C65.13 288.6728125 65.13 288.6728125 64.625 287 C63.02057353 280.61643084 62.76975299 273.66486578 64.625 267.3125 C52.61067095 259.38575283 40.27284089 251.98651122 27.95854187 244.53985596 C22.23642236 241.07934815 16.52334904 237.60407418 10.8125 234.125 C8.93752113 232.98303823 7.06252125 231.84111094 5.1875 230.69921875 C4.2696875 230.14024902 3.351875 229.5812793 2.40625 229.00537109 C-0.394975 227.30034176 -3.19733353 225.59718995 -6 223.89453125 C-16.55866487 217.47804902 -27.10089024 211.03546579 -37.625 204.5625 C-38.19537994 204.21189514 -38.76575989 203.86129028 -39.35342407 203.50006104 C-40.97039229 202.50590134 -42.58677129 201.51078349 -44.203125 200.515625 C-45.1302832 199.94489258 -46.05744141 199.37416016 -47.01269531 198.78613281 C-48.81963825 197.65894104 -50.60298601 196.49384266 -52.375 195.3125 C-55.92453676 195.3125 -56.89205438 195.84608705 -59.375 198.3125 Z M213.75878906 240.14160156 C212.51899292 240.54369843 211.27919678 240.94579529 210.00183105 241.3600769 C208.63142106 241.80773518 207.26101928 242.25541862 205.890625 242.703125 C204.47083841 243.16452662 203.05095537 243.62563154 201.63098145 244.0864563 C198.61135585 245.066907 195.59227016 246.04899551 192.5736084 247.03240967 C184.79090626 249.56759908 177.00476475 252.09219412 169.21875 254.6171875 C168.06925495 254.99011618 168.06925495 254.99011618 166.89653778 255.37057877 C154.07303316 259.53032494 141.23553501 263.64348377 128.375 267.6875 C127.5864563 267.93552368 126.7979126 268.18354736 125.98547363 268.43908691 C121.86645337 269.7338738 117.74639695 271.02529435 113.625 272.3125 C113.50382813 273.25351562 113.38265625 274.19453125 113.2578125 275.1640625 C113.09023438 276.40929687 112.92265625 277.65453125 112.75 278.9375 C112.50636719 280.78214844 112.50636719 280.78214844 112.2578125 282.6640625 C111.67016311 286.05211517 110.80511878 289.08948651 109.625 292.3125 C110.9548662 293.67007174 112.28913071 295.02333496 113.625 296.375 C114.3675 297.12910156 115.11 297.88320313 115.875 298.66015625 C117.968658 300.6794656 120.07548366 302.575863 122.28125 304.46484375 C128.46373417 309.82884473 134.10502888 315.74920074 139.84765625 321.57421875 C144.39669225 326.16298433 148.9679354 330.62401745 153.9074707 334.79223633 C155.625 336.3125 155.625 336.3125 158.19921875 339.23046875 C160.52205138 341.57536866 160.52205138 341.57536866 163.89453125 341.92578125 C167.93310891 341.58292515 170.89614867 340.93507532 174.625 339.3125 C176.30947551 336.89602023 177.38212169 334.99309882 178.515625 332.33984375 C178.84321304 331.63168518 179.17080109 330.92352661 179.50831604 330.19390869 C180.20746793 328.68047427 180.89664128 327.16239644 181.5765686 325.64022827 C182.95070687 322.58936534 184.40358752 319.57932144 185.85722351 316.56573486 C187.77929815 312.57431012 189.66826031 308.56718889 191.5625 304.5625 C192.38535411 302.82475879 193.20827195 301.08704775 194.03125 299.34936523 C195.29723084 296.67598738 196.56295875 294.00249144 197.82785034 291.32859802 C200.31989221 286.06186558 202.82098076 280.79957537 205.33143616 275.54159546 C206.89480603 272.26598412 208.45409261 268.98843865 210.01272583 265.71057129 C210.74619713 264.17041639 211.48140854 262.63108882 212.21847534 261.09265137 C215.79540728 253.62380132 219.27502719 246.27926388 221.625 238.3125 C218.78065579 238.3125 216.46513195 239.26024432 213.75878906 240.14160156 Z M227.625 246.3125 C220.45874028 261.08105701 213.39918213 275.88804438 206.51855469 290.79223633 C202.14662556 300.24075447 197.65824313 309.62791025 193.11328125 318.99414062 C192.1158784 321.05192665 191.12370446 323.11225671 190.13720703 325.17529297 C189.06064082 327.40872466 187.96001394 329.63062666 186.84326172 331.84423828 C186.27494629 333.00036621 185.70663086 334.15649414 185.12109375 335.34765625 C184.59572021 336.39445557 184.07034668 337.44125488 183.52905273 338.51977539 C182.34951331 341.21824805 182.34951331 341.21824805 183.36743164 343.52124023 C183.7824292 344.11235596 184.19742676 344.70347168 184.625 345.3125 C187.91574713 350.62832228 188.38061593 355.20791864 187.625 361.3125 C186.44361851 364.21225456 185.09694952 366.57896441 183.41355515 369.19540882 C182.39814064 371.29571772 182.39814064 371.29571772 183.20103836 373.45733929 C183.78616762 374.62238098 183.78616762 374.62238098 184.38311768 375.81095886 C185.04358345 377.1548896 185.04358345 377.1548896 185.71739197 378.52597046 C186.21702957 379.50119659 186.71666718 380.47642273 187.23144531 381.48120117 C187.74487991 382.51405746 188.25831451 383.54691376 188.78730774 384.61106873 C190.49381781 388.03383482 192.22304904 391.44456152 193.953125 394.85546875 C195.14068744 397.22328984 196.32701247 399.59173192 197.512146 401.96076965 C200.00014025 406.92843467 202.50017808 411.88988176 205.00830078 416.84741211 C207.91038166 422.58380041 210.79723019 428.32763718 213.67516828 434.07617205 C216.44124773 439.60122183 219.21445278 445.12265066 221.99172211 450.64208412 C223.17474587 452.99351233 224.35651309 455.34557313 225.53702545 457.69826317 C227.18548583 460.9793393 228.84192986 464.25624922 230.50097656 467.53198242 C230.99251724 468.51328125 231.48405792 469.49458008 231.99049377 470.50561523 C232.44208359 471.39310959 232.8936734 472.28060394 233.35894775 473.19499207 C233.94633917 474.35833714 233.94633917 474.35833714 234.54559708 475.54518414 C235.51054369 477.47619549 235.51054369 477.47619549 237.625 478.3125 C248.0822261 473.48852924 256.47735872 466.70832242 261.625 456.3125 C266.93559714 441.13936531 262.16027267 424.88008367 255.578125 410.86328125 C254.52704732 408.05035614 254.17785985 406.28381843 254.625 403.3125 C256.19140625 401.28515625 256.19140625 401.28515625 258.1875 399.375 C261.17798159 396.27277642 261.17798159 396.27277642 261.8125 392.0625 C259.9675407 387.78996267 257.4424435 385.85746233 253.625 383.3125 C253.0625 380 253.0625 380 253.625 376.3125 C256.5 373.5625 256.5 373.5625 259.625 371.3125 C261.6667207 368.24991895 262.21622055 366.42303754 262.1484375 362.76953125 C260.8499257 356.67427812 256.73513303 351.02271748 252.94921875 346.16015625 C251.625 344.3125 251.625 344.3125 250.75 341 C251.82631603 336.46409672 252.83504324 336.13862888 256.6875 333.75 C257.69039063 333.17121094 258.69328125 332.59242188 259.7265625 331.99609375 C265.6898789 328.53222668 271.45519558 324.12644722 273.625 317.3125 C275.29723766 307.29361525 272.12490524 299.85942095 266.50439453 291.68212891 C261.0824723 284.09411197 254.94157604 277.16337289 248.625 270.3125 C244.43774352 265.63425991 240.36164623 260.86046591 236.3125 256.0625 C235.47074219 255.06734375 234.62898438 254.0721875 233.76171875 253.046875 C232.02126434 250.81960244 230.73568558 248.88978145 229.625 246.3125 C228.965 246.3125 228.305 246.3125 227.625 246.3125 Z M70.625 296.3125 C62.61183101 302.68836283 54.66479795 309.14420712 46.72167969 315.60693359 C43.35737286 318.34366479 39.99111672 321.0779955 36.625 323.8125 C35.2916567 324.89582107 33.95832338 325.97915442 32.625 327.0625 C8.625 346.5625 8.625 346.5625 6.62207031 348.18969727 C5.29826324 349.26541188 3.97469272 350.34141766 2.65136719 351.41772461 C-0.82576355 354.24514481 -4.30772194 357.06633085 -7.796875 359.87890625 C-8.88355469 360.75675781 -8.88355469 360.75675781 -9.9921875 361.65234375 C-11.37608771 362.7701093 -12.76142158 363.88610304 -14.1484375 365 C-17.39875081 367.62833977 -20.49023217 370.27475206 -23.375 373.3125 C-18.31980283 378.46092827 -13.25325659 383.51236198 -7.76953125 388.203125 C-4.40390239 391.16795304 -1.14522559 394.24319336 2.125 397.3125 C7.20965247 402.0788556 12.31973106 406.79096397 17.625 411.3125 C18.2953125 411.88871094 18.965625 412.46492188 19.65625 413.05859375 C21.31005062 414.47941849 22.96714134 415.8964124 24.625 417.3125 C27.38960993 416.22341124 30.03693439 415.10232939 32.6875 413.75 C36.05814477 412.26531677 39.21030122 411.98360887 42.87109375 411.72265625 C43.94931396 411.64281494 45.02753418 411.56297363 46.13842773 411.48071289 C47.36928101 411.39744751 47.36928101 411.39744751 48.625 411.3125 C48.88507339 410.33040558 49.14514679 409.34831116 49.4131012 408.3364563 C51.89739347 398.95550617 54.38225865 389.57470794 56.86764622 380.19404793 C58.39397242 374.43311315 59.91987288 368.67206584 61.44541359 362.910923 C62.43016394 359.19268142 63.41555515 355.47460976 64.40089035 351.75652313 C65.12588106 349.01923447 65.84970274 346.2816386 66.57339478 343.54400635 C68.65972772 335.65974345 70.7585575 327.78026352 72.93701172 319.92089844 C73.27409653 318.69797089 73.61118134 317.47504333 73.95848083 316.21505737 C74.56700966 314.0163182 75.18243175 311.81946953 75.80628967 309.62503052 C76.06607101 308.68513275 76.32585236 307.74523499 76.59350586 306.77685547 C76.81920761 305.97778778 77.04490936 305.17872009 77.27745056 304.35543823 C77.82261165 302.12057672 77.82261165 302.12057672 76.625 299.3125 C73.62492729 297.60394978 73.62492729 297.60394978 70.625 296.3125 Z M98.5 299.25 C94.12591876 301.25626417 90.40714135 301.9647079 85.625 302.3125 C82.10081655 313.2654655 79.17438258 324.35011219 76.2734375 335.48046875 C75.76844253 337.41095662 75.26328198 339.34140118 74.75796509 341.27180481 C73.70562512 345.29457775 72.65530511 349.31787105 71.60644531 353.34155273 C70.26772112 358.47654028 68.92386786 363.61016914 67.57849693 368.74341869 C66.53662298 372.72103454 65.49750025 376.69936521 64.45918655 380.67791176 C63.96488468 382.57060114 63.46974004 384.46307065 62.97370529 386.35530663 C62.27964332 389.00462442 61.58931498 391.65488901 60.89990234 394.30541992 C60.69831009 395.07190857 60.49671783 395.83839722 60.28901672 396.62811279 C58.85820701 402.15176976 57.69594475 407.70846427 56.625 413.3125 C58.0816677 414.46045006 59.54038937 415.60579419 61 416.75 C61.81210938 417.38808594 62.62421875 418.02617187 63.4609375 418.68359375 C65.51898106 420.33473547 65.51898106 420.33473547 67.625 421.3125 C78.20283622 414.27602912 88.7719567 407.22696177 99.30859375 400.12890625 C100.18686829 399.53741287 101.06514282 398.94591949 101.97003174 398.33650208 C106.5609607 395.24235026 111.14657177 392.14058133 115.72607422 389.02954102 C131.48115876 378.3370569 131.48115876 378.3370569 139.26171875 373.5234375 C140.30465088 372.86400146 141.34758301 372.20456543 142.42211914 371.52514648 C144.22736903 370.39193644 146.05218331 369.28893858 147.90014648 368.22680664 C151.4819693 365.94705479 153.31529452 364.62469629 154.31542969 360.38720703 C154.62550066 357.1919245 154.62550066 357.1919245 154.60302734 354.10180664 C154.625 351.3125 154.625 351.3125 155.43188477 349.28417969 C155.87880912 347.04076536 155.87880912 347.04076536 153.66235352 344.76635742 C152.7058307 343.80383986 151.73520189 342.85521728 150.75390625 341.91796875 C150.23875961 341.40752518 149.72361298 340.8970816 149.19285583 340.37117004 C147.53574224 338.73543212 145.86186876 337.11805105 144.1875 335.5 C143.0933141 334.42232645 142.0002022 333.34356127 140.90820312 332.26367188 C135.93550801 327.36827862 130.88434807 322.6093836 125.5847168 318.06713867 C120.53667947 313.54736238 115.89389544 308.5723309 111.1640625 303.72460938 C110.349375 302.89896484 109.5346875 302.07332031 108.6953125 301.22265625 C107.96070801 300.47121338 107.22610352 299.71977051 106.46923828 298.94555664 C103.42544028 296.25030051 101.83707244 297.61634607 98.5 299.25 Z M150.69921875 374.4375 C144.77755228 378.81371786 138.7367196 382.95825122 132.58203125 387 C131.24309311 387.88042717 131.24309311 387.88042717 129.87710571 388.77864075 C128.01885199 389.99896579 126.15994338 391.21829412 124.30041504 392.43667603 C119.43756736 395.62288523 114.5805262 398.81792765 109.72265625 402.01171875 C108.76789398 402.63906418 107.81313171 403.26640961 106.82943726 403.9127655 C98.65665567 409.28502652 90.50776513 414.69238893 82.375 420.125 C81.80592926 420.50503174 81.23685852 420.88506348 80.65054321 421.27661133 C77.64087781 423.28685634 74.63229054 425.2987041 71.625 427.3125 C71.95113281 428.32054687 72.27726563 429.32859375 72.61328125 430.3671875 C73.67908677 434.10550271 73.85962332 437.53911622 73.8125 441.4375 C73.80605469 442.61570312 73.79960937 443.79390625 73.79296875 445.0078125 C73.64578002 447.90366517 73.22787978 450.48783532 72.625 453.3125 C87.94338114 462.27329079 87.94338114 462.27329079 103.3046875 471.16015625 C104.39031982 471.78615723 105.47595215 472.4121582 106.59448242 473.05712891 C108.79152527 474.31645941 110.99492386 475.56476248 113.2043457 476.80224609 C118.23321718 479.64215876 123.00680821 482.49286324 127.55078125 486.06640625 C136.40800854 492.80537847 142.9912287 495.10627124 154.20629883 493.79443359 C159.21277292 493.11213831 164.18736216 492.2434746 169.15971375 491.34912109 C176.75024552 490.02349026 184.31313144 489.70078289 192 489.375 C203.76748628 488.77615139 214.45515709 487.04011037 225.625 483.3125 C226.615 482.9825 227.605 482.6525 228.625 482.3125 C226.95475053 476.67500932 224.44447669 471.55113619 221.875 466.28393555 C221.15250816 464.79273445 221.15250816 464.79273445 220.41542053 463.27140808 C215.98963277 454.15476268 211.51775432 445.06042888 207.03013611 435.97407818 C203.7170742 429.26433132 200.42951474 422.54331322 197.17391014 415.80549401 C194.60075764 410.48630071 191.98621674 405.18812261 189.35717773 399.89631081 C188.24688908 397.64565243 187.14977806 395.38844372 186.06616211 393.12482262 C184.54914966 389.96250858 182.9862658 386.82727379 181.41015625 383.6940918 C180.97236343 382.75333801 180.53457062 381.81258423 180.08351135 380.84332275 C178.77055806 378.3039827 177.66050337 376.3223357 175.625 374.3125 C172.93840894 373.51180832 170.68755615 373.32091457 167.88987732 373.3540163 C164.84210652 373.29814918 163.10391626 371.98941394 160.625 370.3125 C155.95727491 370.3125 154.21755988 371.74484982 150.69921875 374.4375 Z " fill="#8C46FF" transform="translate(178.375,35.6875)"/>
<path d="M0 0 C26.4 0 52.8 0 80 0 C80 94.05 80 188.1 80 285 C23.57 285 -32.86 285 -91 285 C-91 258.6 -91 232.2 -91 205 C-60.97 205 -30.94 205 0 205 C0 137.35 0 69.7 0 0 Z " fill="currentColor" transform="translate(834,180)"/>
<path d="M0 0 C1.88258011 -0.01913956 1.88258011 -0.01913956 3.80319214 -0.03866577 C5.1606226 -0.04172373 6.51805516 -0.04395133 7.87548828 -0.04541016 C9.28264498 -0.05184581 10.68980037 -0.05857473 12.09695435 -0.06558228 C15.04057922 -0.07752593 17.984087 -0.08126609 20.92773438 -0.08007812 C24.68244569 -0.07987502 28.43639936 -0.10717988 32.19093132 -0.14162254 C35.09591051 -0.16396088 38.00070928 -0.16791358 40.90576553 -0.16685867 C42.2891412 -0.16920411 43.67252265 -0.17796755 45.05581284 -0.19352341 C54.00078958 -0.28470576 60.6750933 -0.02921455 67.62939453 6.10693359 C68.08443359 6.68314453 68.53947266 7.25935547 69.00830078 7.85302734 C69.48138672 8.43181641 69.95447266 9.01060547 70.44189453 9.60693359 C73.16738183 13.67158767 72.64763609 17.6035738 72.57080078 22.29052734 C67.95080078 22.29052734 63.33080078 22.29052734 58.57080078 22.29052734 C57.58080078 19.32052734 57.58080078 19.32052734 56.57080078 16.29052734 C53.93068201 14.97046796 51.93192442 15.14890622 48.9753418 15.12939453 C47.80395157 15.11978699 46.63256134 15.11017944 45.42567444 15.10028076 C44.15485519 15.09603088 42.88403595 15.09178101 41.57470703 15.08740234 C40.2750853 15.08170227 38.97546356 15.0760022 37.63645935 15.07012939 C34.883368 15.05962181 32.13030585 15.05377737 29.37719727 15.05029297 C25.84846446 15.04480442 22.32011678 15.02076828 18.79150486 14.99232101 C15.4275792 14.96922683 12.06370791 14.96724737 8.69970703 14.96240234 C7.43091202 14.95005554 6.162117 14.93770874 4.85487366 14.92498779 C3.68033127 14.92798889 2.50578888 14.93098999 1.2956543 14.93408203 C0.26021988 14.9304364 -0.77521454 14.92679077 -1.84202576 14.92303467 C-4.45840327 15.08348256 -4.45840327 15.08348256 -6.26429749 16.66217041 C-7.89187299 18.93727549 -7.79472287 20.58356132 -7.74169922 23.35302734 C-7.73783203 24.23087891 -7.73396484 25.10873047 -7.72998047 26.01318359 C-7.63819256 28.48715503 -7.63819256 28.48715503 -5.42919922 30.29052734 C-2.77527867 30.60192414 -2.77527867 30.60192414 0.36230469 30.56176758 C1.57761871 30.57195419 2.79293274 30.58214081 4.04507446 30.59263611 C5.02260618 30.59404759 5.02260618 30.59404759 6.01988602 30.59548759 C8.06393956 30.5991508 10.1075076 30.6158792 12.15145874 30.63624573 C17.96351033 30.69163539 23.77563608 30.7222117 29.58789062 30.74682617 C33.14355705 30.76279158 36.69888528 30.79311347 40.25437546 30.83159065 C42.25713474 30.8487759 44.26001489 30.84929479 46.2628479 30.84947205 C53.95076737 30.93255841 60.73539942 31.02747575 66.84814453 36.22802734 C67.39599609 36.90865234 67.94384766 37.58927734 68.50830078 38.29052734 C69.07419922 38.97115234 69.64009766 39.65177734 70.22314453 40.35302734 C73.1565149 44.57027866 72.82378425 49.10462301 72.88330078 54.04052734 C72.92680664 55.22001953 72.92680664 55.22001953 72.97119141 56.42333984 C73.03393421 62.23428904 71.90058868 65.5119469 68.57080078 70.29052734 C63.51818517 74.96419679 59.87414153 76.53646364 53.00146484 76.58105469 C52.35048828 76.58777191 51.69951172 76.59448914 51.02880859 76.60140991 C48.88126948 76.62037273 46.73404337 76.62431365 44.58642578 76.62646484 C43.08672967 76.63289571 41.58703481 76.63962429 40.08734131 76.64663696 C36.94345189 76.65860666 33.79967231 76.66231829 30.65576172 76.66113281 C26.64318131 76.66093003 22.63131244 76.68819006 18.6189003 76.72267723 C15.52004823 76.74501029 12.42136538 76.74896835 9.3224411 76.74791336 C7.84417019 76.75026131 6.36589404 76.75903916 4.88770294 76.77457809 C-3.10024826 76.85066288 -9.58353853 76.82790968 -16.42919922 72.29052734 C-18.26904297 70.47412109 -18.26904297 70.47412109 -19.36669922 68.72802734 C-19.74697266 68.14923828 -20.12724609 67.57044922 -20.51904297 66.97412109 C-22.81257271 62.73158324 -22.42919922 60.5394125 -22.42919922 55.29052734 C-17.80919922 55.29052734 -13.18919922 55.29052734 -8.42919922 55.29052734 C-7.76919922 56.94052734 -7.10919922 58.59052734 -6.42919922 60.29052734 C-5.36825336 61.57563511 -5.36825336 61.57563511 -2.91722107 61.41078186 C-1.80025345 61.40856125 -0.68328583 61.40634064 0.4675293 61.40405273 C2.35937706 61.40393944 2.35937706 61.40393944 4.28944397 61.40382385 C5.67619872 61.39871644 7.06295307 61.39350044 8.44970703 61.38818359 C9.86075287 61.38631936 11.27179935 61.38489548 12.68284607 61.38389587 C16.40320613 61.38007114 20.12352738 61.37024124 23.84387207 61.35919189 C27.63760859 61.34897682 31.43135136 61.34439805 35.22509766 61.33935547 C42.67368309 61.32861892 50.12223651 61.31154304 57.57080078 61.29052734 C57.65158719 59.16614395 57.70989219 57.04089504 57.75830078 54.91552734 C57.79310547 53.73216797 57.82791016 52.54880859 57.86376953 51.32958984 C57.76708984 50.32669922 57.67041016 49.32380859 57.57080078 48.29052734 C54.07872909 45.96247955 52.69923081 46.03992756 48.57397461 46.03515625 C47.33871536 46.02819733 46.10345612 46.0212384 44.83076477 46.0140686 C43.84077704 46.01509016 43.84077704 46.01509016 42.83078957 46.01613235 C40.75725098 46.01709944 38.68422826 46.00413216 36.61076355 45.9871521 C30.71589217 45.94095136 24.82107158 45.91630216 18.92602539 45.90966797 C15.31726803 45.90462795 11.70904528 45.88024802 8.10046959 45.84434128 C6.73110871 45.83459522 5.36167377 45.83218279 3.99228859 45.83751297 C-4.59291838 45.86934444 -11.82464838 45.83642149 -18.26904297 39.47412109 C-18.81238281 38.60980469 -18.81238281 38.60980469 -19.36669922 37.72802734 C-19.74697266 37.14923828 -20.12724609 36.57044922 -20.51904297 35.97412109 C-23.92047985 29.68219278 -23.495603 19.43426774 -21.74560547 12.63427734 C-19.21081639 7.1650229 -15.26715781 3.42292667 -9.63571167 1.1758728 C-6.28025863 0.24940358 -3.47554278 0.02409835 0 0 Z " fill="#27ACE2" transform="translate(963.42919921875,382.70947265625)"/>
<path d="M0 0 C30.69 0 61.38 0 93 0 C93 4.62 93 9.24 93 14 C66.93 14 40.86 14 14 14 C14 19.61 14 25.22 14 31 C37.1 31 60.2 31 84 31 C84 35.62 84 40.24 84 45 C60.9 45 37.8 45 14 45 C14 50.61 14 56.22 14 62 C40.07 62 66.14 62 93 62 C93 66.62 93 71.24 93 76 C62.31 76 31.62 76 0 76 C0 50.92 0 25.84 0 0 Z " fill="#27ACE2" transform="translate(1307,383)"/>
<path d="M0 0 C19.64440351 -0.12032643 19.64440351 -0.12032643 28.046875 -0.14648438 C33.77026764 -0.16438673 39.49351568 -0.18551829 45.21679688 -0.22631836 C49.8333545 -0.2590212 54.44975695 -0.27687602 59.06642151 -0.28463173 C60.82380107 -0.29015567 62.58117258 -0.30094249 64.33848572 -0.31719017 C66.80852313 -0.33911002 69.27792716 -0.34196091 71.74804688 -0.34057617 C72.82699219 -0.35675491 72.82699219 -0.35675491 73.92773438 -0.3732605 C79.95414463 -0.33693277 85.29586501 1.01194257 90.2421875 4.6484375 C90.78101563 5.21820313 91.31984375 5.78796875 91.875 6.375 C92.42929688 6.93960937 92.98359375 7.50421875 93.5546875 8.0859375 C97.75610252 13.64997361 97.39954837 19.64566397 97.4375 26.3125 C97.47037109 27.31990234 97.50324219 28.32730469 97.53710938 29.36523438 C97.58617403 36.21198413 96.57446137 40.7956079 92 46 C90.07544197 47.84672975 88.14709487 49.40216196 86 51 C86.39380859 51.72179443 86.78761719 52.44358887 87.19335938 53.18725586 C88.96439696 56.43616668 90.73223939 59.68680508 92.5 62.9375 C93.43005859 64.64196289 93.43005859 64.64196289 94.37890625 66.38085938 C94.96542969 67.46044922 95.55195312 68.54003906 96.15625 69.65234375 C96.97319336 71.15269165 96.97319336 71.15269165 97.80664062 72.68334961 C99 75 99 75 99 76 C93.72 76 88.44 76 83 76 C80.99491947 72.37772653 78.99574934 68.75240928 77 65.125 C76.42765625 64.09246094 75.8553125 63.05992187 75.265625 61.99609375 C74.72421875 61.00996094 74.1828125 60.02382813 73.625 59.0078125 C73.12226562 58.09660645 72.61953125 57.18540039 72.1015625 56.24658203 C71 54 71 54 71 52 C52.19 52 33.38 52 14 52 C14 59.92 14 67.84 14 76 C9.38 76 4.76 76 0 76 C0 50.92 0 25.84 0 0 Z M14 14 C14 21.92 14 29.84 14 38 C22.40587224 38.09038572 30.81136642 38.16376396 39.21759415 38.20724869 C43.12099518 38.22811969 47.0240464 38.25642757 50.92724609 38.30175781 C54.6944192 38.34523427 58.46125595 38.36914077 62.22866058 38.37950897 C63.66560919 38.38689723 65.10253947 38.40132506 66.53934479 38.42292023 C68.55241425 38.45197203 70.56582253 38.45363405 72.57910156 38.45410156 C74.29785492 38.46742523 74.29785492 38.46742523 76.05133057 38.48101807 C79.66604864 37.89134712 80.83144726 36.90644224 83 34 C83.67204683 30.44573933 83.67204683 30.44573933 83.5625 26.5625 C83.59537109 24.61537109 83.59537109 24.61537109 83.62890625 22.62890625 C82.84250856 18.09124505 81.54753728 16.86031099 78 14 C74.92624923 13.2830001 74.92624923 13.2830001 71.55737305 13.43237305 C70.27642258 13.4327507 68.99547211 13.43312836 67.67570496 13.43351746 C66.28769956 13.45904691 64.8997042 13.48512682 63.51171875 13.51171875 C62.08398173 13.52105119 60.65622864 13.52816527 59.22846985 13.53315735 C55.48142832 13.55219399 51.73536507 13.60126367 47.9887085 13.65667725 C44.16122673 13.70794315 40.33358595 13.7306869 36.50585938 13.75585938 C29.00340988 13.80938805 21.50196697 13.89729394 14 14 Z " fill="#27ACE2" transform="translate(1167,383)"/>
<path d="M0 0 C3.92399638 0.30218276 6.01726866 1.12969017 8.71606445 4.03466797 C10.94312952 7.00349535 12.97550599 10.0796665 15 13.1875 C16.04615158 14.76097881 17.09361512 16.33358581 18.14208984 17.90551758 C21.84982426 23.4825771 25.51988641 29.08400591 29.1875 34.6875 C31.67871093 38.49108278 34.1721933 42.29316074 36.66796875 46.09375 C37.5781929 47.48158691 37.5781929 47.48158691 38.50680542 48.89746094 C43.27278148 56.14101358 48.15301194 63.30168886 53.13139343 70.40100098 C53.64144424 71.13556519 54.15149506 71.87012939 54.67700195 72.62695312 C55.12735306 73.2692688 55.57770416 73.91158447 56.04170227 74.57336426 C57 76.1875 57 76.1875 57 78.1875 C54.34243343 78.54448655 51.73275019 78.79665877 49.0625 79 C48.32708984 79.10892578 47.59167969 79.21785156 46.83398438 79.33007812 C44.08412561 79.48618364 42.50231318 79.39352386 40 78.1875 C38.92336606 76.05881116 37.89948451 73.90323231 36.90625 71.734375 C35.33450493 68.86245601 33.77115369 66.96564719 31 65.1875 C22.25463165 62.86520759 12.83142639 63.35063821 3.84399414 63.54760742 C0.17001046 63.62741459 -3.49281442 63.5949776 -7.16671848 63.52836514 C-10.01334114 63.48868627 -12.85737437 63.50712284 -15.70396233 63.54277229 C-17.70902358 63.55824735 -19.71427246 63.5269023 -21.71913147 63.49449158 C-28.97477431 63.73187446 -28.97477431 63.73187446 -34.62496948 67.93264771 C-36.6385886 70.94374543 -38.36780367 73.95733602 -40 77.1875 C-41 78.1875 -41 78.1875 -44.81640625 78.28515625 C-46.39846682 78.27848089 -47.98051159 78.26651875 -49.5625 78.25 C-50.36880859 78.24548828 -51.17511719 78.24097656 -52.00585938 78.23632812 C-54.00393756 78.22450518 -56.00197783 78.20656914 -58 78.1875 C-54.58420478 71.78554719 -50.81642931 65.73901296 -46.73046875 59.74609375 C-46.13697128 58.86807098 -45.54347382 57.99004822 -44.93199158 57.0854187 C-41.70810136 52.31953534 -38.46536367 47.56660843 -35.22021484 42.81518555 C-33.90785631 40.89026941 -32.59616465 38.96489843 -31.28515625 37.0390625 C-30.3230423 35.6257943 -30.3230423 35.6257943 -29.3414917 34.18397522 C-25.75500748 28.8830558 -22.31229573 23.53443419 -19.05859375 18.0234375 C-8.44281364 0.24658976 -8.44281364 0.24658976 0 0 Z M-1 17.1875 C-2.60701517 19.48760173 -4.15978132 21.80249601 -5.69140625 24.15234375 C-6.15610825 24.86024551 -6.62081024 25.56814728 -7.09959412 26.29750061 C-8.08394013 27.79871795 -9.06656019 29.30106818 -10.04760742 30.80444336 C-11.55535979 33.11406242 -13.069224 35.41958207 -14.58398438 37.72460938 C-15.53682531 39.17944721 -16.48931127 40.63451762 -17.44140625 42.08984375 C-17.89761856 42.7846434 -18.35383087 43.47944305 -18.8238678 44.19529724 C-21.01230241 46.98449643 -21.01230241 46.98449643 -22 50.1875 C-7.81 50.1875 6.38 50.1875 21 50.1875 C19.26579946 45.85199865 17.28927069 42.37547345 14.68359375 38.57421875 C14.26707047 37.95980423 13.85054718 37.34538971 13.42140198 36.71235657 C12.54535743 35.42247862 11.66697213 34.13418766 10.78637695 32.84741211 C9.4326877 30.86796315 8.08793788 28.88265836 6.74414062 26.89648438 C5.8911464 25.64287423 5.03764866 24.38960651 4.18359375 23.13671875 C3.57734413 22.24154793 3.57734413 22.24154793 2.95884705 21.32829285 C1.99853847 19.92983305 1.00292932 18.55571605 0 17.1875 C-0.33 17.1875 -0.66 17.1875 -1 17.1875 Z " fill="#27ACE2" transform="translate(1100,380.8125)"/>
<path d="M0 0 C6.10424036 4.75362752 10.15481068 11.93100202 11.703125 19.4921875 C12.70263822 29.46978436 10.47252902 37.82216816 4.35546875 45.75 C-0.84639995 51.44786084 -6.19635661 54.32983594 -13.890625 55.09375 C-24.03466677 55.54390457 -31.27654566 53.89385434 -39.32421875 47.58984375 C-45.87546601 41.52242114 -48.73064256 33.78259254 -49.32421875 25.02734375 C-49.1314502 15.70435573 -45.58784709 8.30663563 -39.07421875 1.71484375 C-27.67800178 -7.63005416 -12.36051642 -7.65839906 0 0 Z " fill="#3795FF" transform="translate(76.07421875,304.28515625)"/>
<path d="M0 0 C8.25 0 16.5 0 25 0 C25 26.4 25 52.8 25 80 C16.75 80 8.5 80 0 80 C0 53.6 0 27.2 0 0 Z " fill="currentColor" transform="translate(710,385)"/>
<path d="M0 0 C5.94 0 11.88 0 18 0 C18 26.4 18 52.8 18 80 C12.06 80 6.12 80 0 80 C0 53.6 0 27.2 0 0 Z " fill="currentColor" transform="translate(683,385)"/>
<path d="M0 0 C4.96704228 2.94860001 8.72590204 6.47067487 10.5859375 12.05078125 C11.27548463 19.25162343 11.52674577 25.4848917 7.0859375 31.46484375 C3.44801864 35.31118505 -0.58462732 37.81980695 -5.90234375 38.25390625 C-15.74443016 38.41726038 -15.74443016 38.41726038 -20.4140625 35.05078125 C-25.43071443 30.1550125 -28.42556503 25.80340134 -28.7265625 18.67578125 C-28.57269503 12.88651776 -26.84135486 8.7481019 -23.1015625 4.30078125 C-16.44084571 -1.27563281 -8.36716598 -3.29000216 0 0 Z " fill="#1EABFF" transform="translate(120.4140625,466.94921875)"/>
<path d="M0 0 C5.53302446 3.90566433 7.9598743 7.55385981 9.1875 14.25 C9.40523441 20.96347766 7.57864906 26.15764651 3.1875 31.25 C-2.07390908 35.63450757 -6.88196876 35.92863901 -13.6484375 35.6953125 C-19.07764238 34.93120218 -22.66113186 32.84170665 -26.1484375 28.640625 C-29.26765575 23.81800388 -30.48935653 18.5621586 -29.3359375 12.91796875 C-27.5409284 6.97076828 -25.32566158 2.71601092 -19.8125 -0.5 C-13.0829796 -3.30396683 -6.58237357 -3.50397903 0 0 Z " fill="#725EFF" transform="translate(93.8125,130.75)"/>
<path d="M0 0 C4.62 0 9.24 0 14 0 C14 25.08 14 50.16 14 76 C9.38 76 4.76 76 0 76 C0 50.92 0 25.84 0 0 Z " fill="#27ACE2" transform="translate(1278,383)"/>
<path d="M0 0 C2.97 0 5.94 0 9 0 C9 26.4 9 52.8 9 80 C6.03 80 3.06 80 0 80 C0 53.6 0 27.2 0 0 Z " fill="currentColor" transform="translate(665,385)"/>
<path d="M0 0 C4.67508051 1.67597226 7.4760723 3.69997503 10 8 C11.40406462 12.73758579 11.47617014 16.74686553 9.5 21.3125 C7.14820851 25.33382265 4.4546025 27.60247765 0 29 C-4.76903073 29.79760793 -8.02681315 29.48659343 -12.375 27.3125 C-15.8927678 24.21351408 -17.51563882 21.67663484 -18.8125 17.1875 C-19.08778983 12.50757281 -18.82065984 8.05901921 -15.59765625 4.4140625 C-10.38051684 0.00054114 -6.63278982 -0.61518287 0 0 Z " fill="#0FB9FF" transform="translate(38,428)"/>
<path d="M0 0 C5.46440581 3.67778269 9.293264 7.49306899 11 14 C12.04016666 22.34497339 11.02245355 29.12251963 6 36 C1.00738128 40.93456501 -4.7910307 43.03845078 -11.75 43.375 C-18.12186965 43.21186478 -24.01622933 41.60155211 -28.890625 37.3515625 C-33.7612574 31.93712163 -35.85502383 26.32788649 -36 19 C-35.45960549 12.13098532 -32.95965374 6.80738367 -28 2 C-19.2132147 -3.84659176 -9.55583991 -4.6385981 0 0 Z M-28.65234375 10.0625 C-31.80362069 14.59303148 -31.54205773 19.70511729 -31 25 C-29.61934982 30.08290319 -27.35534425 33.08990242 -22.9375 35.9375 C-18.06341714 38.6972974 -13.59677711 39.70959138 -8 39 C-1.15603875 36.79835806 2.85732566 32.87722023 6.3125 26.625 C7.97305254 20.28470849 7.42504744 15.4738128 4.26171875 9.82421875 C0.64984047 4.60209132 -3.76750133 2.24649973 -10 1 C-18.18317208 -0.04912463 -23.66429419 4.06320577 -28.65234375 10.0625 Z " fill="currentColor" transform="translate(1337,513)"/>
<path d="M0 0 C3.795 -0.103125 7.59 -0.20625 11.5 -0.3125 C12.68013672 -0.35802002 13.86027344 -0.40354004 15.07617188 -0.45043945 C21.20776638 -0.53065528 25.38794677 0.03407783 30.49414062 3.52661133 C33.06388951 6.04094896 33.92517587 8.29354365 34.30078125 11.83984375 C34.30658203 13.37318359 34.30658203 13.37318359 34.3125 14.9375 C34.32925781 15.95714844 34.34601563 16.97679687 34.36328125 18.02734375 C33.77824029 22.8146144 31.92723184 25.20214935 28.3125 28.3125 C27.549375 28.869375 26.78625 29.42625 26 30 C26.6496875 30.91523437 27.299375 31.83046875 27.96875 32.7734375 C28.81274508 33.97378605 29.65648173 35.17431634 30.5 36.375 C30.92925781 36.97828125 31.35851563 37.5815625 31.80078125 38.203125 C35 42.7734375 35 42.7734375 35 45 C32.76953125 45.43359375 32.76953125 45.43359375 30 45 C28.39797593 42.7050487 27.05102848 40.48923848 25.6875 38.0625 C22.69372986 33.19321686 22.69372986 33.19321686 17.97802734 30.23876953 C13.17531999 29.37911175 8.97166404 29.74720352 4 30 C4 34.95 4 39.9 4 45 C2.68 45 1.36 45 0 45 C0 30.15 0 15.3 0 0 Z M4 4 C4 11.26 4 18.52 4 26 C6.866875 26.061875 9.73375 26.12375 12.6875 26.1875 C13.58170654 26.21481201 14.47591309 26.24212402 15.3972168 26.27026367 C21.18781723 26.33065684 24.48510021 25.34145842 28.8125 21.3125 C30.57066682 17.88870146 30.77565806 14.70750322 30 11 C28.02321824 7.47814744 25.9012851 5.30042837 22 4 C20.59175107 3.91978001 19.18002769 3.89234023 17.76953125 3.90234375 C16.68442261 3.90609009 16.68442261 3.90609009 15.57739258 3.90991211 C14.20877075 3.92356812 14.20877075 3.92356812 12.8125 3.9375 C9.904375 3.958125 6.99625 3.97875 4 4 Z " fill="currentColor" transform="translate(1374,511)"/>
<path d="M0 0 C3.67125 -0.061875 7.3425 -0.12375 11.125 -0.1875 C12.84420654 -0.22846802 12.84420654 -0.22846802 14.59814453 -0.27026367 C21.48257052 -0.32639655 25.95670415 0.36796035 31.3125 5 C34.53643964 8.8209655 34.27711143 12.79946953 34.21484375 17.56640625 C33.71272575 23.25403374 29.86146633 26.17645314 26 30 C26.6496875 30.91523437 27.299375 31.83046875 27.96875 32.7734375 C28.81274508 33.97378605 29.65648173 35.17431634 30.5 36.375 C30.92925781 36.97828125 31.35851563 37.5815625 31.80078125 38.203125 C35 42.7734375 35 42.7734375 35 45 C32.76953125 45.43359375 32.76953125 45.43359375 30 45 C28.39797593 42.7050487 27.05102848 40.48923848 25.6875 38.0625 C22.69372986 33.19321686 22.69372986 33.19321686 17.97802734 30.23876953 C13.17531999 29.37911175 8.97166404 29.74720352 4 30 C4 34.95 4 39.9 4 45 C2.68 45 1.36 45 0 45 C0 30.15 0 15.3 0 0 Z M4 4 C4 11.26 4 18.52 4 26 C6.84625 26.0825 9.6925 26.165 12.625 26.25 C13.95265381 26.30462402 13.95265381 26.30462402 15.30712891 26.36035156 C20.67714356 26.43528762 23.81539696 25.68245068 28 22 C30.54994747 18.36956632 30.13185016 15.35910588 29.546875 11.125 C28.7792448 8.14220836 27.49076863 6.75818962 25 5 C22.23434618 4.07811539 20.61716298 3.88214778 17.76953125 3.90234375 C16.68442261 3.90609009 16.68442261 3.90609009 15.57739258 3.90991211 C14.20877075 3.92356812 14.20877075 3.92356812 12.8125 3.9375 C9.904375 3.958125 6.99625 3.97875 4 4 Z " fill="currentColor" transform="translate(1137,511)"/>
<path d="M0 0 C1.65 0 3.3 0 5 0 C7.2066766 4.67672826 9.4120281 9.35407831 11.61621094 14.03198242 C12.36455442 15.61971463 13.11324519 17.2072832 13.86230469 18.79467773 C25 42.39916667 25 42.39916667 25 45 C23.35 45 21.7 45 20 45 C19.16209211 43.21046815 18.32980604 41.41830305 17.5 39.625 C17.0359375 38.62726562 16.571875 37.62953125 16.09375 36.6015625 C15 34 15 34 15 32 C6.75 32 -1.5 32 -10 32 C-10.66 33.98 -11.32 35.96 -12 38 C-12.94887818 40.35913748 -13.97560606 42.67183195 -15 45 C-16.65 45 -18.3 45 -20 45 C-17.3859306 36.14397022 -13.3918491 28.00289403 -9.4375 19.6875 C-8.74498784 18.22091782 -8.052927 16.75412245 -7.36132812 15.28710938 C-2.11203579 4.16854326 -2.11203579 4.16854326 0 0 Z M2 6 C0.89058762 8.16411401 -0.21254869 10.33108193 -1.3125 12.5 C-1.7755957 13.40105469 -1.7755957 13.40105469 -2.24804688 14.3203125 C-4.53155632 18.83925751 -6.19899683 23.19732488 -8 28 C-1.07 28 5.86 28 13 28 C11.54719915 24.70578903 10.08806363 21.4146492 8.625 18.125 C8.2125 17.18785156 7.8 16.25070312 7.375 15.28515625 C6.97539063 14.38925781 6.57578125 13.49335937 6.1640625 12.5703125 C5.79748535 11.74289551 5.4309082 10.91547852 5.05322266 10.06298828 C4.05862859 7.85312405 4.05862859 7.85312405 2 6 Z " fill="currentColor" transform="translate(676,511)"/>
<path d="M0 0 C1.2065625 0.0309375 1.2065625 0.0309375 2.4375 0.0625 C4.48303668 4.41797294 6.52767314 8.77386699 8.5715332 13.13012695 C9.26465483 14.60712657 9.95800783 16.08401763 10.65161133 17.56079102 C12.62278219 21.75789056 14.59001855 25.95678335 16.54974365 30.15924072 C17.37885258 31.93676591 18.21009722 33.71329448 19.04150391 35.48974609 C19.49831543 36.47668457 19.95512695 37.46362305 20.42578125 38.48046875 C20.81934814 39.32762451 21.21291504 40.17478027 21.6184082 41.04760742 C22.4375 43.0625 22.4375 43.0625 22.4375 45.0625 C20.7875 45.0625 19.1375 45.0625 17.4375 45.0625 C16.59959211 43.27296815 15.76730604 41.48080305 14.9375 39.6875 C14.4734375 38.68976562 14.009375 37.69203125 13.53125 36.6640625 C12.4375 34.0625 12.4375 34.0625 12.4375 32.0625 C0.0625 32.5575 0.0625 32.5575 -12.5625 33.0625 C-14.2125 37.0225 -15.8625 40.9825 -17.5625 45.0625 C-19.2125 45.0625 -20.8625 45.0625 -22.5625 45.0625 C-20.67081151 39.0355309 -18.45677125 33.2930579 -15.8046875 27.5625 C-15.4561673 26.80074463 -15.10764709 26.03898926 -14.74856567 25.25415039 C-14.01962703 23.66338206 -13.28847575 22.07362587 -12.55517578 20.48486328 C-11.42855617 18.04311583 -10.30947091 15.59801861 -9.19140625 13.15234375 C-8.47960046 11.60136334 -7.76737627 10.05057487 -7.0546875 8.5 C-6.55157547 7.40171875 -6.55157547 7.40171875 -6.03829956 6.28125 C-3.16936413 0.07730156 -3.16936413 0.07730156 0 0 Z M-0.5625 6.0625 C-1.85923602 8.60169006 -3.14997837 11.14364238 -4.4375 13.6875 C-4.80230469 14.40035156 -5.16710937 15.11320313 -5.54296875 15.84765625 C-5.89746094 16.55019531 -6.25195312 17.25273438 -6.6171875 17.9765625 C-6.94187012 18.6154541 -7.26655273 19.2543457 -7.60107422 19.91259766 C-8.78104414 22.55119976 -9.64846772 25.32040316 -10.5625 28.0625 C-3.9625 28.0625 2.6375 28.0625 9.4375 28.0625 C8.69754272 24.36271361 8.14892947 22.09737715 6.58984375 18.85546875 C6.05327148 17.72915039 6.05327148 17.72915039 5.50585938 16.58007812 C4.94608398 15.42668945 4.94608398 15.42668945 4.375 14.25 C3.99794922 13.46173828 3.62089844 12.67347656 3.23242188 11.86132812 C2.30579839 9.92597527 1.37232533 7.99390451 0.4375 6.0625 C0.1075 6.0625 -0.2225 6.0625 -0.5625 6.0625 Z " fill="currentColor" transform="translate(804.5625,510.9375)"/>
<path d="M0 0 C1.65 0 3.3 0 5 0 C16.63992198 23.99713374 16.63992198 23.99713374 21.75 35.4375 C22.08451172 36.18112793 22.41902344 36.92475586 22.76367188 37.69091797 C25 42.7515121 25 42.7515121 25 45 C23.35 45 21.7 45 20 45 C19.16209211 43.21046815 18.32980604 41.41830305 17.5 39.625 C17.0359375 38.62726562 16.571875 37.62953125 16.09375 36.6015625 C15 34 15 34 15 32 C6.75 32 -1.5 32 -10 32 C-10.99 34.97 -11.98 37.94 -13 41 C-13.66 42.32 -14.32 43.64 -15 45 C-16.65 45 -18.3 45 -20 45 C-18.08989532 38.8420126 -15.78107381 33.05317499 -12.98828125 27.24609375 C-12.61519333 26.45977066 -12.24210541 25.67344757 -11.85771179 24.86329651 C-10.68081186 22.38569443 -9.49680093 19.9115715 -8.3125 17.4375 C-7.50668594 15.74436686 -6.70134307 14.05100937 -5.89648438 12.35742188 C-3.9364205 8.23567093 -1.96997768 4.11702129 0 0 Z M2 5 C-1.3 12.59 -4.6 20.18 -8 28 C-1.07 28 5.86 28 13 28 C9.7 20.41 6.4 12.82 3 5 C2.67 5 2.34 5 2 5 Z " fill="currentColor" transform="translate(1210,511)"/>
<path d="M0 0 C9.9 0 19.8 0 30 0 C30 1.32 30 2.64 30 4 C21.42 4 12.84 4 4 4 C4 9.28 4 14.56 4 20 C11.92 20 19.84 20 28 20 C28 21.32 28 22.64 28 24 C20.08 24 12.16 24 4 24 C4 29.61 4 35.22 4 41 C12.91 41 21.82 41 31 41 C31 42.32 31 43.64 31 45 C20.77 45 10.54 45 0 45 C0 30.15 0 15.3 0 0 Z " fill="currentColor" transform="translate(1079,511)"/>
<path d="M0 0 C9.9 0 19.8 0 30 0 C30 1.32 30 2.64 30 4 C21.42 4 12.84 4 4 4 C4 9.28 4 14.56 4 20 C11.92 20 19.84 20 28 20 C28 21.32 28 22.64 28 24 C20.08 24 12.16 24 4 24 C4 29.61 4 35.22 4 41 C12.91 41 21.82 41 31 41 C31 42.32 31 43.64 31 45 C20.77 45 10.54 45 0 45 C0 30.15 0 15.3 0 0 Z " fill="currentColor" transform="translate(969,511)"/>
<path d="M0 0 C2.5625 1.6875 2.5625 1.6875 4 3 C3.67 3.99 3.34 4.98 3 6 C-0.12659152 5.52627401 -2.33971339 4.82681278 -5.1875 3.375 C-9.80306874 1.32923482 -14.17976195 1.82880166 -19 3 C-24.29598727 5.74606747 -28.09054309 9.27162926 -30 15 C-30.62686552 20.78566043 -30.45869851 26.10677884 -27.5234375 31.23828125 C-24.00153978 35.31103989 -19.0506576 37.37322853 -13.8515625 38.44140625 C-9.10061155 38.73247241 -5.78066516 37.18358998 -1.859375 34.77734375 C0.47899626 33.79974736 1.65391581 34.17471817 4 35 C2.61497412 38.43370999 1.36875613 39.73405974 -2 41.25 C-8.97422149 44.06200611 -15.18073126 43.88577748 -22.25 41.4375 C-28.45866835 38.69436194 -32.31021811 34.16998214 -35 28 C-36.66061594 20.99595052 -36.25808347 14.17560354 -32.80859375 7.796875 C-25.03103516 -3.64694417 -12.18359336 -5.22154001 0 0 Z " fill="currentColor" transform="translate(880,513)"/>
<path d="M0 0 C2.82424288 2.19022918 4.41508603 3.83017207 6 7 C6.54399285 11.539219 6.62289461 14.9544269 4.25 18.9375 C1.56581879 21.39799944 -0.49422775 22.89494612 -4.18359375 23.15234375 C-8.49992018 22.74090882 -10.53449925 22.37821936 -14 19.5625 C-16.79648719 15.97950079 -17.39291667 13.70906338 -17.359375 9.10546875 C-16.72418186 5.38406547 -14.66020984 3.59687151 -12 1 C-8.28546768 -0.85726616 -4.04420575 -0.58501089 0 0 Z " fill="#4983FF" transform="translate(30,209)"/>
<path d="M0 0 C2.5625 2.1875 2.5625 2.1875 4 4 C3.34 4.66 2.68 5.32 2 6 C-0.78377487 5.59821806 -3.13834849 4.5186445 -5.6875 3.375 C-11.16873599 1.32080766 -15.78282125 1.77576384 -21.20703125 3.83984375 C-26.41482494 6.55485308 -28.59972258 9.92844676 -30.44140625 15.4453125 C-31.587519 20.686975 -30.72677876 24.95200298 -28.3125 29.75 C-25.48058165 33.72999336 -22.62093866 35.9854431 -18.0625 37.75 C-11.78758083 38.51059626 -7.71800392 37.69717166 -2 35 C-0.67723944 34.62691369 0.65232077 34.26953585 2 34 C2.66 34.99 3.32 35.98 4 37 C2.75443908 37.81928886 1.50333365 38.63015186 0.25 39.4375 C-0.44609375 39.88996094 -1.1421875 40.34242188 -1.859375 40.80859375 C-7.11326121 43.73274575 -13.27866704 43.76102306 -19.08203125 42.57421875 C-25.25805459 40.58863334 -30.76643064 36.66783463 -34.16796875 31.08203125 C-36.81575948 24.85412912 -36.95535144 18.28941694 -34.875 11.875 C-32.52598013 6.34984058 -29.04557064 2.25239019 -23.9375 -0.875 C-15.70703814 -4.02709177 -7.99226519 -3.68755093 0 0 Z " fill="currentColor" transform="translate(940,513)"/>
<path d="M0 0 C11.88 0 23.76 0 36 0 C36 1.32 36 2.64 36 4 C30.72 4 25.44 4 20 4 C20 17.53 20 31.06 20 45 C18.68 45 17.36 45 16 45 C16 31.47 16 17.94 16 4 C10.72 4 5.44 4 0 4 C0 2.68 0 1.36 0 0 Z " fill="currentColor" transform="translate(1248,511)"/>
<path d="M0 0 C1.32 0 2.64 0 4 0 C4 13.53 4 27.06 4 41 C12.25 41 20.5 41 29 41 C29 42.32 29 43.64 29 45 C19.43 45 9.86 45 0 45 C0 30.15 0 15.3 0 0 Z " fill="currentColor" transform="translate(1027,511)"/>
<path d="M0 0 C2.51666056 2.12948202 3.71851452 3.6855159 4.4140625 6.93359375 C4.69682873 10.86999737 4.23298334 12.65052498 2 16 C-2.15562097 18.77041398 -4.06667872 18.70476018 -9 18 C-11.43119623 16.12984906 -12.64069173 14.71861655 -14 12 C-13.984375 9.94140625 -13.984375 9.94140625 -13.75 7.5625 C-13.68296875 6.78003906 -13.6159375 5.99757813 -13.546875 5.19140625 C-12.8956961 2.58203938 -12.10493912 1.63884546 -10 0 C-6.16652698 -1.27782434 -3.91272241 -0.96101954 0 0 Z " fill="#8B47FF" transform="translate(103,66)"/>
<path d="M0 0 C1.65 0 3.3 0 5 0 C5 14.85 5 29.7 5 45 C3.35 45 1.7 45 0 45 C0 30.15 0 15.3 0 0 Z " fill="currentColor" transform="translate(723,511)"/>
</svg>
