<svg width="41" height="40" viewBox="0 0 41 40" fill="none" xmlns="http://www.w3.org/2000/svg">
<g clip-path="url(#clip0_1539_30207)">
<path d="M11.9175 21.855C12.942 21.855 13.7725 21.0245 13.7725 20C13.7725 18.9755 12.942 18.145 11.9175 18.145C10.893 18.145 10.0625 18.9755 10.0625 20C10.0625 21.0245 10.893 21.855 11.9175 21.855Z" fill="currentColor" stroke="currentColor" stroke-width="16"/>
<path d="M21.7127 17.3279L20.6806 17.0698C20.5435 16.6601 20.3779 16.2605 20.1849 15.874L20.7318 14.9615C20.9521 14.595 21.0434 14.1653 20.9912 13.7409C20.939 13.3165 20.7463 12.9218 20.4437 12.6196L19.2937 11.4696C18.9916 11.1675 18.5972 10.9751 18.1731 10.9231C17.7491 10.8711 17.3198 10.9625 16.9537 11.1828L16.0412 11.7296C15.6547 11.5367 15.2551 11.3711 14.8454 11.234L14.5873 10.2031C14.4845 9.78763 14.2453 9.41862 13.9079 9.15517C13.5706 8.89172 13.1546 8.74906 12.7266 8.75H11.1016C10.674 8.74921 10.2584 8.89174 9.92134 9.15483C9.58424 9.41792 9.34504 9.78639 9.24194 10.2014L8.98382 11.2335C8.57416 11.3706 8.1746 11.5362 7.78807 11.7291L6.87557 11.1823C6.5091 10.962 6.0795 10.8707 5.65513 10.9228C5.23077 10.9749 4.83602 11.1674 4.53369 11.4698L3.38369 12.6198C3.08147 12.9218 2.88898 13.3162 2.83688 13.7403C2.78478 14.1644 2.87606 14.5937 3.09619 14.9599L3.64307 15.8724C3.45016 16.2589 3.28455 16.6585 3.14744 17.0681L2.11657 17.3263C1.7011 17.4292 1.33217 17.6686 1.06884 18.006C0.8055 18.3434 0.662974 18.7595 0.664069 19.1875V20.8125C0.663387 21.24 0.80597 21.6554 1.06905 21.9924C1.33213 22.3294 1.70054 22.5686 2.11544 22.6716L3.14757 22.9298C3.28467 23.3394 3.45028 23.739 3.64319 24.1255L3.09632 25.038C2.87594 25.4044 2.78453 25.8341 2.83663 26.2585C2.88873 26.6829 3.08136 27.0776 3.38382 27.3799L4.53382 28.5299C4.83554 28.8326 5.23004 29.0254 5.65426 29.0776C6.07847 29.1297 6.50792 29.0381 6.87394 28.8174L7.78644 28.2705C8.17297 28.4634 8.57253 28.629 8.98219 28.7661L9.24032 29.797C9.34317 30.2126 9.58248 30.5816 9.91994 30.845C10.2574 31.1085 10.6735 31.2511 11.1016 31.25H12.7266C13.1541 31.2507 13.5695 31.1081 13.9065 30.845C14.2435 30.5819 14.4826 30.2135 14.5857 29.7986L14.8438 28.7665C15.2535 28.6294 15.653 28.4638 16.0396 28.2709L16.9521 28.8178C17.3188 29.0374 17.7483 29.1283 18.1725 29.0761C18.5968 29.024 18.9914 28.8316 19.2939 28.5296L20.4439 27.3796C20.7462 27.0776 20.9387 26.6832 20.9908 26.2592C21.0429 25.8351 20.9516 25.4058 20.7314 25.0396L20.1846 24.1265C20.3775 23.74 20.5431 23.3404 20.6802 22.9308L21.7111 22.6726C22.1264 22.5698 22.4953 22.3307 22.7588 21.9935C23.0222 21.6562 23.1649 21.2404 23.1641 20.8125V19.1875C23.1649 18.7599 23.0223 18.3444 22.7592 18.0073C22.4962 17.6702 22.1277 17.431 21.7127 17.3279ZM11.9141 24.3555C11.0526 24.3555 10.2105 24.1001 9.49428 23.6215C8.77802 23.1429 8.21977 22.4626 7.89011 21.6668C7.56045 20.8709 7.4742 19.9952 7.64226 19.1503C7.81032 18.3054 8.22514 17.5293 8.83427 16.9202C9.44339 16.3111 10.2195 15.8963 11.0644 15.7282C11.9092 15.5601 12.785 15.6464 13.5808 15.976C14.3767 16.3057 15.0569 16.864 15.5355 17.5802C16.0141 18.2965 16.2696 19.1386 16.2696 20C16.2683 21.1548 15.809 22.2619 14.9925 23.0784C14.1759 23.895 13.0688 24.3542 11.9141 24.3555Z" fill="currentColor"/>
<path d="M38.1641 0H33.1641C31.7834 0 30.6641 1.11929 30.6641 2.5V7.5C30.6641 8.88071 31.7834 10 33.1641 10H38.1641C39.5448 10 40.6641 8.88071 40.6641 7.5V2.5C40.6641 1.11929 39.5448 0 38.1641 0Z" fill="currentColor"/>
<path d="M38.1641 15H33.1641C31.7834 15 30.6641 16.1193 30.6641 17.5V22.5C30.6641 23.8807 31.7834 25 33.1641 25H38.1641C39.5448 25 40.6641 23.8807 40.6641 22.5V17.5C40.6641 16.1193 39.5448 15 38.1641 15Z" fill="currentColor"/>
<path d="M38.1641 30H33.1641C31.7834 30 30.6641 31.1193 30.6641 32.5V37.5C30.6641 38.8807 31.7834 40 33.1641 40H38.1641C39.5448 40 40.6641 38.8807 40.6641 37.5V32.5C40.6641 31.1193 39.5448 30 38.1641 30Z" fill="currentColor"/>
<path d="M31.9141 21.25H21.9141C21.5825 21.25 21.2646 21.1183 21.0302 20.8839C20.7958 20.6495 20.6641 20.3315 20.6641 20C20.6641 19.6685 20.7958 19.3505 21.0302 19.1161C21.2646 18.8817 21.5825 18.75 21.9141 18.75H31.9141C32.2456 18.75 32.5635 18.8817 32.7979 19.1161C33.0324 19.3505 33.1641 19.6685 33.1641 20C33.1641 20.3315 33.0324 20.6495 32.7979 20.8839C32.5635 21.1183 32.2456 21.25 31.9141 21.25Z" fill="currentColor"/>
<path d="M26.9141 21.25C26.5825 21.25 26.2646 21.1183 26.0302 20.8839C25.7958 20.6495 25.6641 20.3315 25.6641 20V6.25C25.6647 5.58716 25.9283 4.95166 26.397 4.48296C26.8657 4.01427 27.5012 3.75066 28.1641 3.75H31.9141C32.2456 3.75 32.5635 3.8817 32.7979 4.11612C33.0324 4.35054 33.1641 4.66848 33.1641 5C33.1641 5.33152 33.0324 5.64946 32.7979 5.88388C32.5635 6.1183 32.2456 6.25 31.9141 6.25H28.1641V20C28.1641 20.3315 28.0324 20.6495 27.7979 20.8839C27.5635 21.1183 27.2456 21.25 26.9141 21.25Z" fill="currentColor"/>
<path d="M31.9141 36.25H28.1641C27.5012 36.2493 26.8657 35.9857 26.397 35.517C25.9283 35.0483 25.6647 34.4128 25.6641 33.75V20C25.6641 19.6685 25.7958 19.3505 26.0302 19.1161C26.2646 18.8817 26.5825 18.75 26.9141 18.75C27.2456 18.75 27.5635 18.8817 27.7979 19.1161C28.0324 19.3505 28.1641 19.6685 28.1641 20V33.75H31.9141C32.2456 33.75 32.5635 33.8817 32.7979 34.1161C33.0324 34.3505 33.1641 34.6685 33.1641 35C33.1641 35.3315 33.0324 35.6495 32.7979 35.8839C32.5635 36.1183 32.2456 36.25 31.9141 36.25Z" fill="currentColor"/>
</g>
<defs>
<clipPath id="clip0_1539_30207">
<rect width="40" height="40" fill="currentColor" transform="translate(0.664062)"/>
</clipPath>
</defs>
</svg>
