<svg width="40" height="38" viewBox="0 0 40 38" fill="none" xmlns="http://www.w3.org/2000/svg">
<path d="M10.0767 7.06247L13.5454 8.96091C13.9908 9.20309 14.1548 9.75778 13.9126 10.2031C13.8267 10.3593 13.7017 10.4843 13.5454 10.5703L10.0767 12.4609C9.92044 12.5468 9.79544 12.6718 9.7095 12.8281L7.81107 16.2968C7.56888 16.7422 7.01419 16.9062 6.56888 16.664C6.41263 16.5781 6.28763 16.4531 6.20169 16.2968L4.31107 12.8281C4.22513 12.6718 4.10013 12.5468 3.94388 12.4609L0.475129 10.5703C0.0298162 10.3281 -0.134246 9.77341 0.107941 9.32809C0.193879 9.17184 0.318879 9.04684 0.475129 8.96091L3.94388 7.06247C4.10013 6.97653 4.22513 6.85153 4.31107 6.69528L6.2095 3.23434C6.45169 2.78903 7.01419 2.62497 7.4595 2.87497C7.60794 2.96091 7.73294 3.08591 7.81888 3.23434L9.71732 6.69528C9.79544 6.85153 9.92044 6.97653 10.0767 7.06247Z" fill="currentColor"/>
<path d="M35.897 25.5782L39.3658 27.4766C39.8111 27.7188 39.9751 28.2735 39.7329 28.7188C39.647 28.875 39.522 29 39.3658 29.086L35.897 30.9844C35.7408 31.0703 35.6158 31.1953 35.5298 31.3516L33.6314 34.8203C33.3892 35.2657 32.8267 35.4297 32.3814 35.1875C32.2251 35.1016 32.1001 34.9766 32.0142 34.8203L30.1314 31.3438C30.0454 31.1875 29.9204 31.0625 29.7642 30.9766L26.2954 29.0782C25.8501 28.836 25.6861 28.2735 25.9283 27.8282C26.0142 27.6719 26.1392 27.5469 26.2954 27.461L29.7642 25.5625C29.9204 25.4766 30.0454 25.3516 30.1314 25.1953L32.0298 21.7344C32.272 21.2891 32.8345 21.125 33.2798 21.3672C33.4361 21.4532 33.5611 21.5782 33.647 21.7344L35.5454 25.2032C35.6158 25.3672 35.7408 25.4922 35.897 25.5782Z" fill="currentColor"/>
<path d="M20.8799 3.09375L23.1533 4.33594C23.4424 4.5 23.5518 4.86719 23.3955 5.15625C23.3408 5.25782 23.2549 5.33594 23.1533 5.39844L20.8799 6.64063C20.7783 6.69532 20.6924 6.78125 20.6377 6.88282L19.3955 9.15625C19.2314 9.44532 18.8643 9.55469 18.5752 9.39844C18.4736 9.34375 18.3955 9.25782 18.333 9.15625L17.0908 6.88282C17.0361 6.78125 16.9502 6.69532 16.8486 6.64063L14.5752 5.39844C14.2861 5.24219 14.1768 4.875 14.333 4.57813C14.3877 4.47657 14.4736 4.39063 14.5752 4.33594L16.8486 3.09375C16.9502 3.03907 17.0361 2.95313 17.0908 2.85157L18.333 0.578129C18.4971 0.289067 18.8643 0.179692 19.1533 0.335942C19.2549 0.390629 19.333 0.476567 19.3955 0.578129L20.6377 2.85157C20.6924 2.95313 20.7783 3.03907 20.8799 3.09375Z" fill="currentColor"/>
<path d="M39.1084 4.13282L35.8975 0.921885C34.71 -0.265615 32.7803 -0.273428 31.585 0.914072C31.585 0.914072 31.585 0.914072 31.5772 0.921885L2.95215 29.5547C1.76465 30.7422 1.75684 32.6719 2.95215 33.8672L6.16309 37.0781C7.35059 38.2656 9.28028 38.2734 10.4756 37.0781L39.1084 8.44532C40.2959 7.25782 40.2959 5.32814 39.1084 4.13282ZM27.9443 14.9609L25.0693 12.0859L33.5459 3.60157L36.4209 6.47657L27.9443 14.9609Z" fill="currentColor"/>
</svg>
