<svg width="40" height="40" viewBox="0 0 40 40" fill="none" xmlns="http://www.w3.org/2000/svg">
<g clip-path="url(#clip0_1539_37542)">
<path d="M5 22.5C5 20.4321 6.68213 18.75 8.75 18.75C10.8179 18.75 12.5 20.4321 12.5 22.5H15C15 22.5 15 18.4246 15 18.4131C15 17.4792 16.0761 16.8649 16.8817 17.334C17.6938 17.8069 18.75 17.1908 18.75 16.25C18.75 15.3421 17.6796 14.6965 16.8818 15.1659C16.067 15.6454 15 15.028 15 14.0869V7.5H3.75C1.68213 7.5 0 9.18213 0 11.25V22.5H5Z" fill="currentColor"/>
<path d="M15 35C12.9321 35 11.25 33.3179 11.25 31.25C11.25 29.1821 12.9321 27.5 15 27.5V25H10.9125C9.98003 25 9.34847 23.9475 9.83394 23.1177C10.3027 22.3165 9.69625 21.2501 8.75009 21.25C7.84479 21.2499 7.19895 22.3222 7.66596 23.1176C8.146 23.9352 7.53336 25 6.58752 25H0V36.25C0 38.3179 1.68213 40 3.75 40H15V35Z" fill="currentColor"/>
<path d="M27.5 25C27.5 27.0679 25.8179 28.75 23.75 28.75C21.6821 28.75 20 27.0679 20 25H17.5V29.0869C17.5 30.0235 16.4262 30.6375 15.6183 30.166C14.8109 29.6949 13.75 30.308 13.75 31.25C13.75 32.1612 14.8189 32.8045 15.6183 32.334C16.4289 31.8569 17.5 32.4812 17.5 33.4131V40H28.75C30.8179 40 32.5 38.3179 32.5 36.25V25H27.5Z" fill="currentColor"/>
<path d="M36.25 0H23.75C23.0591 0 22.5 0.559087 22.5 1.25V6.58689C22.5 7.53452 23.5654 8.14271 24.3823 7.66604C25.2002 7.18875 26.25 7.81901 26.25 8.74996C26.25 9.66247 25.183 10.3068 24.3824 9.83405C23.5706 9.35469 22.5 9.98123 22.5 10.9131V16.25C22.5 16.9409 23.0591 17.5 23.75 17.5H27.5C27.5 19.5679 29.1821 21.25 31.25 21.25C33.3179 21.25 35 19.5679 35 17.5H38.75C39.4409 17.5 40 16.9409 40 16.25V3.75C40 1.68213 38.3179 0 36.25 0Z" fill="currentColor"/>
</g>
<defs>
<clipPath id="clip0_1539_37542">
<rect width="40" height="40" fill="currentColor"/>
</clipPath>
</defs>
</svg>
