<svg width="41" height="40" viewBox="0 0 41 40" fill="none" xmlns="http://www.w3.org/2000/svg">
<g clip-path="url(#clip0_1539_37445)">
<path d="M24.416 0H5.24935C2.71602 0 0.666016 2.05 0.666016 4.58333V30.4167C0.666016 32.95 2.71602 35 5.24935 35H18.816C17.3493 33 16.4993 30.5667 16.4993 27.9167C16.4993 21.25 21.916 15.8333 28.5827 15.8333C28.716 15.8333 28.866 15.8333 28.9993 15.85V4.58333C28.9993 2.05 26.9494 0 24.416 0ZM7.33268 6.66667H13.9993C14.916 6.66667 15.666 7.41667 15.666 8.33333C15.666 9.25 14.916 10 13.9993 10H7.33268C6.41602 10 5.66602 9.25 5.66602 8.33333C5.66602 7.41667 6.41602 6.66667 7.33268 6.66667ZM15.666 23.3333H7.33268C6.41602 23.3333 5.66602 22.5833 5.66602 21.6667C5.66602 20.75 6.41602 20 7.33268 20H15.666C16.5827 20 17.3327 20.75 17.3327 21.6667C17.3327 22.5833 16.5827 23.3333 15.666 23.3333ZM22.3327 16.6667H7.33268C6.41602 16.6667 5.66602 15.9167 5.66602 15C5.66602 14.0833 6.41602 13.3333 7.33268 13.3333H22.3327C23.2493 13.3333 23.9993 14.0833 23.9993 15C23.9993 15.9167 23.2493 16.6667 22.3327 16.6667Z" fill="currentColor"/>
<path d="M28.582 36.6665C23.757 36.6665 19.832 32.7415 19.832 27.9165C19.832 23.0915 23.757 19.1665 28.582 19.1665C33.407 19.1665 37.332 23.0915 37.332 27.9165C37.332 32.7415 33.407 36.6665 28.582 36.6665ZM28.582 22.4998C25.5954 22.4998 23.1654 24.9298 23.1654 27.9165C23.1654 30.9032 25.5954 33.3332 28.582 33.3332C31.5687 33.3332 33.9987 30.9032 33.9987 27.9165C33.9987 24.9298 31.5687 22.4998 28.582 22.4998Z" fill="currentColor"/>
<path d="M38.9998 39.9999C38.5731 39.9999 38.1464 39.8366 37.8214 39.5116L32.4048 34.0949C31.7531 33.4433 31.7531 32.3899 32.4048 31.7383C33.0564 31.0866 34.1098 31.0866 34.7614 31.7383L40.1781 37.1549C40.8298 37.8066 40.8298 38.8599 40.1781 39.5116C39.8531 39.8366 39.4264 39.9999 38.9998 39.9999Z" fill="currentColor"/>
</g>
<defs>
<clipPath id="clip0_1539_37445">
<rect width="40" height="40" fill="currentColor" transform="translate(0.666016)"/>
</clipPath>
</defs>
</svg>
