<svg xmlns="http://www.w3.org/2000/svg" width="240" height="95" viewBox="0 0 240 95" fill="none">
    <path fill-rule="evenodd" clip-rule="evenodd" d="M42.5685 45.9829C57.9465 61.3609 78.8035 70.0002 100.551 70.0002L239.914 70.0002V66.0002L100.551 66.0002C79.8644 66.0002 60.0248 57.7823 45.397 43.1545L2.82843 0.585938L0 3.41437L42.5685 45.9829Z" fill="url(#paint0_linear_463_65588)" fill-opacity="0.16"/>
    <path d="M158.414 68.5002C158.414 83.1357 146.55 95.0002 131.914 95.0002C117.279 95.0002 105.414 83.1357 105.414 68.5002C105.414 53.8646 117.279 42.0002 131.914 42.0002C146.55 42.0002 158.414 53.8646 158.414 68.5002Z" fill="#0C0C14"/>
    <path fill-rule="evenodd" clip-rule="evenodd" d="M131.914 92.0002C144.893 92.0002 155.414 81.4788 155.414 68.5002C155.414 55.5215 144.893 45.0002 131.914 45.0002C118.936 45.0002 108.414 55.5215 108.414 68.5002C108.414 81.4788 118.936 92.0002 131.914 92.0002ZM131.914 95.0002C146.55 95.0002 158.414 83.1357 158.414 68.5002C158.414 53.8646 146.55 42.0002 131.914 42.0002C117.279 42.0002 105.414 53.8646 105.414 68.5002C105.414 83.1357 117.279 95.0002 131.914 95.0002Z" fill="url(#paint1_linear_463_65588)" fill-opacity="0.16"/>
    <defs>
        <linearGradient id="paint0_linear_463_65588" x1="239.914" y1="48.1914" x2="1.41421" y2="48.1914" gradientUnits="userSpaceOnUse">
            <stop stop-color="white" stop-opacity="0"/>
            <stop offset="1" stop-color="white"/>
        </linearGradient>
        <linearGradient id="paint1_linear_463_65588" x1="158.414" y1="68.5" x2="105.414" y2="68.5" gradientUnits="userSpaceOnUse">
            <stop stop-color="white" stop-opacity="0.3"/>
            <stop offset="1" stop-color="white" stop-opacity="0.8"/>
        </linearGradient>
    </defs>
</svg>