<svg width="40" height="40" viewBox="0 0 40 40" fill="none" xmlns="http://www.w3.org/2000/svg">
<path d="M13.6836 31.165L12.3486 32.5H9.76967C9.25201 31.0481 7.87743 30 6.25 30C4.18213 30 2.5 31.6821 2.5 33.75C2.5 35.8179 4.18213 37.5 6.25 37.5C7.87743 37.5 9.25201 36.4519 9.76967 35H12.8662C13.1982 35 13.5156 34.8682 13.75 34.6338L16.0575 32.3263C15.1923 32.116 14.3851 31.7139 13.6836 31.165Z" fill="currentColor"/>
<path d="M35 30.2304V27.5C35 27.1686 34.8682 26.8506 34.6338 26.6162L32.1562 24.1387C31.5939 24.7707 30.9172 25.2971 30.1427 25.6603L32.5 28.0176V30.2304C31.0481 30.748 30 32.1226 30 33.75C30 35.8179 31.6821 37.5 33.75 37.5C35.8179 37.5 37.5 35.8179 37.5 33.75C37.5 32.1226 36.4519 30.748 35 30.2304Z" fill="currentColor"/>
<path d="M33.75 2.5C31.6821 2.5 30 4.18213 30 6.25C30 7.87743 31.0481 9.25194 32.5 9.76959V13.125L30.558 14.5818C31.3099 15.0081 31.9608 15.5787 32.4778 16.266L34.4995 14.7498C34.8145 14.5142 35 14.1437 35 13.75V9.76967C36.4519 9.25201 37.5 7.87743 37.5 6.25C37.5 4.18213 35.8179 2.5 33.75 2.5Z" fill="currentColor"/>
<path d="M9.76967 7.5H12.3486L13.6836 8.83499C14.3851 8.28613 15.1923 7.88399 16.0575 7.67372L13.75 5.36621C13.5156 5.13184 13.1982 5 12.8662 5H9.76967C9.25201 3.54813 7.87743 2.5 6.25 2.5C4.18213 2.5 2.5 4.18213 2.5 6.25C2.5 8.31787 4.18213 10 6.25 10C7.87743 10 9.25201 8.95187 9.76967 7.5Z" fill="currentColor"/>
<path d="M27.5 15H27.0612C26.3561 13.5273 24.8636 12.5 23.125 12.5C22.8586 12.5 22.6004 12.5328 22.347 12.5787C21.8165 10.3876 19.8523 8.75 17.5 8.75C15.6573 8.75 14.0627 9.7628 13.1954 11.25H12.5C9.94347 11.25 7.85385 13.1851 7.55936 15.6631C6.03981 16.522 5 18.1335 5 20C5 21.8665 6.03981 23.478 7.55936 24.3369C7.85385 26.8149 9.94347 28.75 12.5 28.75H13.1954C14.0627 30.2372 15.6573 31.25 17.5 31.25C19.8523 31.25 21.8165 29.6124 22.347 27.4213C22.6004 27.4672 22.8586 27.5 23.125 27.5C24.8636 27.5 26.3561 26.4727 27.0612 25H27.5C30.2576 25 32.5 22.757 32.5 20C32.5 17.243 30.2576 15 27.5 15ZM11.875 12.5C12.2205 12.5 12.5 12.7795 12.5 13.125C12.5 13.4705 12.2205 13.75 11.875 13.75C10.8411 13.75 10 14.5911 10 15.625C10 15.9705 9.72046 16.25 9.375 16.25C9.02954 16.25 8.75 15.9705 8.75 15.625C8.75 13.902 10.1514 12.5 11.875 12.5ZM11.25 23.125C11.25 24.1589 12.0911 25 13.125 25C13.4705 25 13.75 25.2795 13.75 25.625C13.75 25.9705 13.4705 26.25 13.125 26.25C11.4014 26.25 10 24.848 10 23.125C10 23.103 10.0103 23.0844 10.0125 23.063C8.58162 22.7774 7.5 21.5134 7.5 20C7.5 19.6545 7.77954 19.375 8.125 19.375C8.47046 19.375 8.75 19.6545 8.75 20C8.75 21.0339 9.59106 21.875 10.625 21.875C11.6589 21.875 12.5 21.0339 12.5 20C12.5 19.6545 12.7795 19.375 13.125 19.375C13.4705 19.375 13.75 19.6545 13.75 20C13.75 21.5134 12.6684 22.7774 11.2375 23.063C11.2397 23.0844 11.25 23.103 11.25 23.125ZM20.625 14.375C19.5911 14.375 18.75 15.2161 18.75 16.25C18.75 16.5955 18.4705 16.875 18.125 16.875C17.7795 16.875 17.5 16.5955 17.5 16.25C17.5 14.7366 18.5816 13.4726 20.0125 13.187C20.0103 13.1656 20 13.147 20 13.125C20 12.0911 19.1589 11.25 18.125 11.25C17.7795 11.25 17.5 10.9705 17.5 10.625C17.5 10.2795 17.7795 10 18.125 10C19.8486 10 21.25 11.402 21.25 13.125C21.25 13.147 21.2397 13.1656 21.2375 13.187C22.6684 13.4726 23.75 14.7366 23.75 16.25C23.75 16.5955 23.4705 16.875 23.125 16.875C22.7795 16.875 22.5 16.5955 22.5 16.25C22.5 15.2161 21.6589 14.375 20.625 14.375ZM26.1926 23.6926C25.9243 25.1447 24.6542 26.25 23.125 26.25C22.7795 26.25 22.5 25.9705 22.5 25.625C22.5 25.2795 22.7795 25 23.125 25C23.9716 25 24.6806 24.4324 24.9127 23.6605C23.5328 23.3363 22.5 22.1021 22.5 20.625C22.5 20.2795 22.7795 20 23.125 20C23.4705 20 23.75 20.2795 23.75 20.625C23.75 21.6589 24.5911 22.5 25.625 22.5C26.6589 22.5 27.5 21.6589 27.5 20.625C27.5 20.2795 27.7795 20 28.125 20C28.4705 20 28.75 20.2795 28.75 20.625C28.75 22.1537 27.6453 23.4241 26.1926 23.6926Z" fill="currentColor"/>
</svg>
