<svg width="33" height="36" viewBox="0 0 33 36" fill="none" xmlns="http://www.w3.org/2000/svg">
<path d="M30.4263 12.6364V11.8242C31.4627 11.5818 32.2445 10.6545 32.2445 9.54545C32.2445 8.2606 31.19 7.20605 29.8991 7.20605C28.6142 7.20605 27.5597 8.2606 27.5597 9.54545C27.5597 10.6121 28.2748 11.503 29.2506 11.7818V12.6364C29.2506 13.2182 28.7718 13.697 28.19 13.697H21.6445V14.8727H28.19C29.4203 14.8727 30.4263 13.8667 30.4263 12.6364Z" fill="currentColor"/>
<path d="M25.9597 7.15129V6.33917C26.996 6.09675 27.7779 5.16947 27.7779 4.06038C27.7779 2.77554 26.7233 1.72705 25.4324 1.72705C24.1476 1.72705 23.093 2.77554 23.093 4.06038C23.093 5.12705 23.8082 6.01796 24.7839 6.29675V7.15129C24.7839 7.73311 24.3051 8.2119 23.7233 8.2119H21.6445V9.38766H23.7233C24.9536 9.38766 25.9597 8.3816 25.9597 7.15129Z" fill="currentColor"/>
<path d="M30.4281 27.3632V26.5511C30.4281 25.3208 29.422 24.3208 28.1978 24.3208H21.6523V25.4966H28.1978C28.7796 25.4966 29.2584 25.9753 29.2584 26.5572V27.4117C28.2826 27.6966 27.5675 28.5875 27.5675 29.6481C27.5675 30.9329 28.622 31.9875 29.9069 31.9875C31.1978 31.9875 32.2523 30.9329 32.2523 29.6481C32.2402 28.5329 31.4584 27.6056 30.4281 27.3632Z" fill="currentColor"/>
<path d="M24.9736 31.2788V30.4666C24.9736 29.2303 23.9736 28.2363 22.7433 28.2363H21.6523V29.4121H22.7433C23.3251 29.4121 23.8039 29.8848 23.8039 30.4727V31.3212C22.8342 31.6121 22.119 32.4969 22.119 33.5636C22.119 34.8485 23.1675 35.8969 24.4523 35.8969C25.7433 35.8969 26.7978 34.8485 26.7978 33.5636C26.7857 32.4485 26.0099 31.5212 24.9736 31.2788Z" fill="currentColor"/>
<path d="M29.8342 21.9332C31.1251 21.9332 32.1796 20.8786 32.1796 19.5877C32.1796 18.3029 31.1251 17.2544 29.8342 17.2544C28.7554 17.2544 27.8402 17.9998 27.5857 19.0059H21.6523V20.1817H27.5857C27.8463 21.1877 28.7493 21.9332 29.8342 21.9332Z" fill="currentColor"/>
<path d="M15.3491 0.108887C12.5491 0.108887 10.2764 2.38161 10.2764 5.2301C10.2764 5.52101 10.3249 5.81192 10.3734 6.09677C9.84006 5.90283 9.2643 5.80586 8.634 5.80586C5.834 5.80586 3.56127 8.07858 3.56127 10.9271C3.56127 11.2301 3.59157 11.521 3.64612 11.8119C3.65218 11.818 3.6643 11.824 3.67036 11.8301C4.53097 12.7392 5.70066 13.2362 6.96127 13.2362C7.28854 13.2362 7.54915 13.4968 7.54915 13.824C7.54915 14.1513 7.28854 14.4119 6.96127 14.4119C5.65218 14.4119 4.42187 13.9756 3.41581 13.1816C1.64612 13.9695 0.421875 15.7392 0.421875 17.7937C0.421875 20.1634 2.0643 22.1877 4.28854 22.721C3.80369 23.4968 3.56127 24.3634 3.56127 25.3271C3.56127 28.0786 5.834 30.3998 8.634 30.3998C8.88854 30.3998 9.14309 30.3756 9.39763 30.3392C9.98551 28.5574 11.4098 27.1877 13.2219 26.6846C12.5007 25.9937 11.9673 25.1089 11.6946 24.1149C11.1673 24.5513 10.5249 24.8665 9.79763 25.0059C9.76127 25.0119 9.72491 25.018 9.68854 25.018C9.40975 25.018 9.16733 24.824 9.11278 24.5392C9.05218 24.218 9.25824 23.9149 9.57945 23.8483C10.4098 23.6907 11.0885 23.2059 11.5249 22.5574C11.5491 22.4665 11.5916 22.3877 11.6582 22.321C11.9795 21.7392 12.1188 21.0483 11.9976 20.3271C11.9431 20.0059 12.1613 19.7028 12.4825 19.6483C12.8037 19.5937 13.1067 19.8119 13.1613 20.1331C13.331 21.1392 13.1431 22.1089 12.6885 22.9271C12.8522 25.2725 14.7916 27.0786 17.1916 27.0786C17.5188 27.0786 17.7794 27.3392 17.7794 27.6665C17.7794 27.9937 17.5188 28.2543 17.1916 28.2543C16.2582 28.2543 15.3794 28.0362 14.6037 27.6483C12.4704 27.721 10.7552 29.2543 10.3673 31.2907C10.7916 33.6665 12.8582 35.4725 15.3552 35.4725C18.1552 35.4725 20.4764 33.1998 20.4764 30.3998V17.4543C20.331 17.4665 20.1855 17.4846 20.0461 17.4846C19.2704 17.4846 18.5067 17.2786 17.8158 16.8846C17.0037 16.4119 16.3734 15.7089 15.9916 14.8604C15.3128 15.2543 14.5491 15.4604 13.7491 15.4604C13.6704 15.4604 13.5916 15.4604 13.5128 15.4543C13.1855 15.4362 12.937 15.1634 12.9552 14.8362C12.9734 14.5089 13.2522 14.2665 13.5734 14.2786C14.4522 14.321 15.3007 14.024 15.9552 13.4422C16.6158 12.8543 17.0037 12.0362 17.0461 11.1453C17.0643 10.818 17.3491 10.5695 17.6643 10.5877C17.9855 10.6059 18.2401 10.8786 18.2219 11.2059C18.1673 12.3089 17.7188 13.321 16.9673 14.0968C17.2279 14.8422 17.7249 15.4665 18.4098 15.8604C19.0401 16.224 19.7613 16.3574 20.4825 16.2604V5.2301C20.4704 2.37555 18.1491 0.108887 15.3491 0.108887Z" fill="currentColor"/>
</svg>
