<svg width="19" height="24" viewBox="0 0 19 24" fill="none" xmlns="http://www.w3.org/2000/svg">
<path d="M18.6147 14.0517C18.3398 10.4723 16.6733 8.22932 15.2031 6.24998C13.8418 4.41754 12.666 2.83514 12.666 0.500856C12.666 0.313356 12.561 0.141981 12.3945 0.0560595C12.2275 -0.030378 12.0268 -0.0162217 11.875 0.094122C9.667 1.67409 7.82472 4.33701 7.18117 6.87783C6.73441 8.64675 6.6753 10.6354 6.667 11.9488C4.62794 11.5132 4.16603 8.46318 4.16116 8.42995C4.13819 8.27175 4.04153 8.13408 3.90091 8.05889C3.75883 7.98468 3.59181 7.97929 3.44777 8.05059C3.34084 8.10234 0.823234 9.38156 0.67675 14.4891C0.666484 14.659 0.666016 14.8295 0.666016 14.9999C0.666016 19.9619 4.70359 23.9992 9.66602 23.9992C9.67286 23.9997 9.68017 24.0007 9.68603 23.9992C9.688 23.9992 9.68992 23.9992 9.69236 23.9992C14.6426 23.985 18.666 19.9531 18.666 14.9999C18.666 14.7503 18.6147 14.0517 18.6147 14.0517ZM9.66602 22.9993C8.0117 22.9993 6.66602 21.5658 6.66602 19.8037C6.66602 19.7437 6.66555 19.6831 6.66991 19.6089C6.68992 18.8658 6.83106 18.3585 6.98584 18.0211C7.27591 18.6442 7.79444 19.2169 8.63673 19.2169C8.91311 19.2169 9.13675 18.9932 9.13675 18.7169C9.13675 18.0051 9.15142 17.1838 9.32866 16.4426C9.48639 15.7854 9.86331 15.0862 10.3409 14.5258C10.5533 15.2533 10.9674 15.8421 11.3717 16.4167C11.9503 17.2389 12.5484 18.089 12.6534 19.5386C12.6597 19.6245 12.6661 19.711 12.6661 19.8037C12.666 21.5658 11.3203 22.9993 9.66602 22.9993Z" fill="currentColor"/>
</svg>
