<svg width="41" height="40" viewBox="0 0 41 40" fill="none" xmlns="http://www.w3.org/2000/svg">
<path d="M32.168 26.625V20.875H33.543V26.625H32.168ZM33.543 28.2912V29.75H32.168V28.2912C32.3838 28.1724 32.614 28.0765 32.8555 28.0069C33.0969 28.0765 33.3271 28.1724 33.543 28.2912Z" fill="currentColor" stroke="currentColor" stroke-width="8"/>
<path d="M7.79297 10.25H30.418V11.625H29.5142C25.872 11.625 22.918 14.5821 22.918 18.2219V19.7852C22.1286 19.1579 21.1295 18.7831 20.043 18.7831H18.168C16.0138 18.7831 14.2033 20.2563 13.6892 22.25H7.79297V10.25ZM20.043 20.6014C20.633 20.9963 21.0915 21.5723 21.3391 22.25H20.043H18.168H16.8719C17.1194 21.5723 17.5779 20.9963 18.168 20.6014C18.4528 20.4107 18.7683 20.2623 19.1055 20.165C19.4427 20.2623 19.7581 20.4107 20.043 20.6014Z" fill="currentColor" stroke="currentColor" stroke-width="8"/>
<mask id="path-3-inside-1_1539_24873" fill="currentColor">
<path d="M25.668 32.5H23.168V27.5H15.043V32.5H12.543C12.198 32.5 11.918 32.78 11.918 33.125C11.918 33.47 12.198 33.75 12.543 33.75H15.043H23.168H25.668C26.0136 33.75 26.293 33.47 26.293 33.125C26.293 32.78 26.0136 32.5 25.668 32.5Z"/>
</mask>
<path d="M25.668 32.5H23.168V27.5H15.043V32.5H12.543C12.198 32.5 11.918 32.78 11.918 33.125C11.918 33.47 12.198 33.75 12.543 33.75H15.043H23.168H25.668C26.0136 33.75 26.293 33.47 26.293 33.125C26.293 32.78 26.0136 32.5 25.668 32.5Z" fill="currentColor"/>
<path d="M23.168 32.5H15.168V40.5H23.168V32.5ZM23.168 27.5H31.168V19.5H23.168V27.5ZM15.043 27.5V19.5H7.04297V27.5H15.043ZM15.043 32.5V40.5H23.043V32.5H15.043ZM25.668 24.5H23.168V40.5H25.668V24.5ZM31.168 32.5V27.5H15.168V32.5H31.168ZM23.168 19.5H15.043V35.5H23.168V19.5ZM7.04297 27.5V32.5H23.043V27.5H7.04297ZM15.043 24.5H12.543V40.5H15.043V24.5ZM12.543 24.5C7.77969 24.5 3.91797 28.3617 3.91797 33.125H19.918C19.918 37.1983 16.6162 40.5 12.543 40.5V24.5ZM3.91797 33.125C3.91797 37.8883 7.77969 41.75 12.543 41.75V25.75C16.6162 25.75 19.918 29.0517 19.918 33.125H3.91797ZM12.543 41.75H15.043V25.75H12.543V41.75ZM15.043 41.75H23.168V25.75H15.043V41.75ZM23.168 41.75H25.668V25.75H23.168V41.75ZM25.668 41.75C30.4371 41.75 34.293 37.8831 34.293 33.125H18.293C18.293 29.0569 21.5901 25.75 25.668 25.75V41.75ZM34.293 33.125C34.293 28.3669 30.4371 24.5 25.668 24.5V40.5C21.5901 40.5 18.293 37.1931 18.293 33.125H34.293Z" fill="currentColor" mask="url(#path-3-inside-1_1539_24873)"/>
</svg>
