<svg width="16" height="16" viewBox="0 0 16 16" fill="none" xmlns="http://www.w3.org/2000/svg">
<g id="Group">
<g id="Clip path group">
<mask id="mask0_1126_32240" style="mask-type:luminance" maskUnits="userSpaceOnUse" x="0" y="0" width="16" height="16">
<g id="akarIconsSnapchatFill0">
<path id="Vector" d="M0 0H16V16H0V0Z" fill="white"/>
</g>
</mask>
<g mask="url(#mask0_1126_32240)">
<g id="Group_2">
<path id="Vector_2" d="M3.88585 3.02189C3.48585 3.91789 3.64385 5.52322 3.70785 6.64589C3.27585 6.88522 2.72118 6.46522 2.40718 6.46522C2.08051 6.46522 1.69051 6.67989 1.62918 6.99989C1.58518 7.23055 1.68851 7.56655 2.42985 7.85922C2.71651 7.97255 3.39851 8.10589 3.55651 8.47789C3.77851 9.00055 2.41651 11.4132 0.277847 11.7652C0.197102 11.7786 0.124132 11.8213 0.0729468 11.8851C0.0217611 11.949 -0.00403401 12.0295 0.000513198 12.1112C0.0378465 12.7612 1.49518 13.0159 2.14118 13.1159C2.20718 13.2052 2.26051 13.5826 2.34518 13.8699C2.38318 13.9986 2.48118 14.1526 2.73318 14.1526C3.06185 14.1526 3.60785 13.8992 4.55851 14.0566C5.49051 14.2119 6.36651 15.5332 8.04851 15.5332C9.61185 15.5332 10.5445 14.2059 11.4418 14.0566C11.9612 13.9706 12.4072 13.9979 12.9058 14.0952C13.2492 14.1626 13.5572 14.1999 13.6552 13.8626C13.7412 13.5712 13.7938 13.2012 13.8585 13.1139C14.4985 13.0146 15.9625 12.7606 15.9992 12.1106C16.0037 12.0288 15.9779 11.9483 15.9267 11.8845C15.8756 11.8206 15.8026 11.7779 15.7218 11.7646C13.6192 11.4179 12.2158 9.01255 12.4432 8.47722C12.6005 8.10589 13.2778 7.97389 13.5698 7.85855C14.1125 7.64455 14.3845 7.38122 14.3785 7.07655C14.3712 6.68655 13.9018 6.45389 13.5565 6.45389C13.2052 6.45389 12.7005 6.86989 12.2918 6.64455C12.3558 5.51255 12.5132 3.91455 12.1138 3.01922C11.3572 1.32389 9.67385 0.466553 7.99118 0.466553C6.31918 0.466553 4.64851 1.31189 3.88585 3.02189Z" fill="currentColor"/>
</g>
</g>
</g>
</g>
</svg>
