<svg width="28" height="34" viewBox="0 0 28 34" fill="none" xmlns="http://www.w3.org/2000/svg">
<path d="M9.28545 8.60623C6.8474 11.0443 6.82976 14.9795 9.24607 17.3959C11.6624 19.8122 15.5976 19.7945 18.0357 17.3565C20.4737 14.9184 20.4914 10.9832 18.075 8.5669C15.6588 6.15054 11.7235 6.16823 9.28545 8.60623Z" fill="currentColor"/>
<path d="M12.4189 27.1448C11.3669 27.7359 10.104 27.861 8.95638 27.4876C7.80896 27.1153 6.86192 26.2725 6.35837 25.1771C6.19996 24.8322 5.95555 24.5439 5.67188 24.3047V33.432C5.67188 33.8579 6.14655 34.1119 6.50104 33.8757L9.62318 31.7947C9.9218 31.5958 10.3107 31.5958 10.6091 31.7947L13.7313 33.8757C14.0855 34.1119 14.5604 33.8579 14.5604 33.432V27.0001C13.8619 26.7411 13.0761 26.777 12.4189 27.1448Z" fill="currentColor"/>
<path d="M20.9823 25.176C20.478 26.2722 19.5309 27.1151 18.3827 27.4884C17.9478 27.6299 17.4965 27.6995 17.046 27.6995C16.8069 27.6995 16.5719 27.6481 16.3359 27.6088V30.4896C16.3359 30.7199 16.4733 30.9209 16.6921 30.9927C17.5653 31.2799 19.8245 32.0237 20.975 32.4102C21.3205 32.5262 21.6699 32.2665 21.6697 31.9017L21.6689 24.3047C21.3849 24.5437 21.1408 24.8315 20.9823 25.176Z" fill="currentColor"/>
<path d="M26.3266 11.1014C25.2199 10.0788 24.7183 8.53475 25.0107 7.06618C25.153 6.35105 24.996 5.63998 24.5715 5.05582C24.148 4.47247 23.5194 4.10448 22.8024 4.02033C21.3069 3.84413 19.9918 2.8885 19.3661 1.52571C19.0639 0.868701 18.5189 0.384241 17.8324 0.161121C17.1449 -0.0619487 16.4193 0.00931126 15.7899 0.363401C14.481 1.09676 12.8542 1.09856 11.5453 0.364201C11.1556 0.145431 10.7284 0.0345011 10.298 0.0345011C10.0315 0.0345011 9.76422 0.0762313 9.50202 0.161171C8.81553 0.384291 8.2713 0.868551 7.96998 1.52471C7.34325 2.8883 6.02818 3.84393 4.53792 4.01933C3.8158 4.10448 3.18722 4.47251 2.76377 5.05562C2.33927 5.63897 2.18227 6.35065 2.32288 7.05903C2.61621 8.53555 2.1145 10.0788 1.01561 11.0944C0.47913 11.591 0.1875 12.2576 0.1875 12.9789C0.1875 13.701 0.47918 14.3677 1.00866 14.8573C2.11455 15.8798 2.61621 17.424 2.32453 18.8917C2.18206 19.6079 2.33847 20.3188 2.76277 20.9021C3.18727 21.4862 3.81565 21.8543 4.53262 21.9384C4.61162 21.9478 4.68283 21.9824 4.76064 21.9959C4.76719 21.9959 4.77253 21.9922 4.77908 21.9922C4.92849 21.9922 5.06316 22.0382 5.18659 22.1033C6.39972 22.4459 7.43785 23.2766 7.96899 24.433C8.27111 25.09 8.81534 25.5744 9.50183 25.7976C10.1902 26.0207 10.9149 25.9486 11.5443 25.5953C12.8516 24.8601 14.4782 24.8593 15.7889 25.5945C16.4173 25.9478 17.144 26.0207 17.8322 25.7975C18.5187 25.5744 19.064 25.0901 19.3659 24.4329C19.8903 23.2916 20.9083 22.467 22.0973 22.116C22.2332 22.0318 22.3843 21.9705 22.5558 21.9705C22.5791 21.9705 22.5984 21.9819 22.6213 21.9838C22.6815 21.9739 22.7363 21.9465 22.7971 21.9393C23.5192 21.8542 24.1467 21.4862 24.5712 20.903C24.9786 20.3424 25.1388 19.6654 25.0277 18.9859C24.7812 17.4786 25.11 15.9388 26.2514 14.9242L26.3264 14.8577C26.8558 14.3681 27.1475 13.7015 27.1475 12.9793C27.1477 12.2576 26.8561 11.591 26.3266 11.1014ZM21.3793 15.1518C20.6709 17.8224 18.5111 19.982 15.8407 20.6904C9.76092 22.3031 4.34328 16.8854 5.95618 10.8059C6.66456 8.13538 8.82413 5.97567 11.4948 5.26724C17.5746 3.65435 22.9922 9.07223 21.3793 15.1518Z" fill="currentColor"/>
</svg>
