<svg width="22" height="36" viewBox="0 0 22 36" fill="none" xmlns="http://www.w3.org/2000/svg">
<path d="M20.3006 4.55L17.7693 1.76875C17.4059 1.36905 16.963 1.04971 16.469 0.831219C15.975 0.612729 15.4407 0.49991 14.9006 0.5H7.10055C6.56037 0.49991 6.02613 0.612729 5.5321 0.831219C5.03807 1.04971 4.59517 1.36905 4.2318 1.76875L1.70055 4.55C1.19898 5.10363 0.86743 5.78998 0.745514 6.52701C0.623599 7.26404 0.716478 8.02059 1.01305 8.70625L5.1818 18.2813C5.48227 18.9728 5.97843 19.5614 6.6092 19.9745C7.23997 20.3876 7.97779 20.6072 8.7318 20.6063H13.2693C14.0233 20.6073 14.7612 20.3877 15.3919 19.9746C16.0227 19.5614 16.5189 18.9728 16.8193 18.2813L20.9881 8.70625C21.2846 8.02059 21.3775 7.26404 21.2556 6.52701C21.1337 5.78998 20.8021 5.10363 20.3006 4.55ZM11.0006 4.6375C12.3816 4.63844 13.706 5.18705 14.6831 6.16303C15.6603 7.13901 16.2105 8.46268 16.2131 9.84375C15.9522 16.7495 6.04784 16.7476 5.78801 9.84369C5.79062 8.46262 6.34083 7.13896 7.31799 6.16299C8.29515 5.18703 9.61948 4.63842 11.0006 4.6375Z" fill="currentColor"/>
<path d="M10.9996 13.8061C12.0501 13.8047 13.0572 13.3868 13.8 12.644C14.5428 11.9012 14.9608 10.8941 14.9621 9.84362C14.7735 4.60809 7.22493 4.60942 7.03711 9.84369C7.0385 10.8942 7.45643 11.9013 8.19925 12.6441C8.94207 13.3869 9.94915 13.8048 10.9996 13.8061Z" fill="currentColor"/>
<path d="M14.1889 21.7686C13.7254 21.8707 9.2855 21.86 8.32638 21.8436C9.02019 23.6171 11.5973 25.1593 12.5452 26.7685C12.7571 27.1222 12.8653 27.5282 12.8576 27.9404C12.8498 28.3526 12.7264 28.7544 12.5014 29.0998C11.7051 30.2842 9.97381 30.7542 8.95138 29.3872C8.61929 28.976 8.36895 28.5051 8.21388 27.9998C7.71577 26.8321 6.88278 25.8382 5.82013 25.1436C5.65478 25.0286 5.45688 24.9698 5.2556 24.9759C5.05432 24.9819 4.8603 25.0524 4.7021 25.177C4.54391 25.3016 4.42991 25.4737 4.3769 25.668C4.32389 25.8622 4.33468 26.0684 4.40766 26.2561C4.82525 27.5236 5.02391 28.853 4.99513 30.1873C4.676 32.2636 6.58229 34.2931 8.55768 35.0248C10.3674 35.6979 12.3687 35.635 14.1326 34.8497C20.0747 32.0875 18.1415 26.0821 16.1138 23.9873L14.1889 21.7686Z" fill="currentColor"/>
</svg>
