<svg width="41" height="40" viewBox="0 0 41 40" fill="none" xmlns="http://www.w3.org/2000/svg">
<path d="M31.5 9.16683H31.4167C31.0333 7.26683 29.35 5.8335 27.3333 5.8335H10.6667C8.36667 5.8335 6.5 7.70016 6.5 10.0002V20.0002C6.5 22.3002 8.36667 24.1668 10.6667 24.1668H11.5V26.6668C11.5 27.3335 12.2333 27.7335 12.8 27.3668L16.5 24.9002V30.8502C16.5 32.6835 18 34.1835 19.8333 34.1835H27.3333C27.55 34.1835 27.7667 34.1002 27.9167 33.9335L34.5833 27.2668C34.75 27.1002 34.8333 26.9002 34.8333 26.6835V12.5002C34.8333 10.6668 33.3333 9.16683 31.5 9.16683ZM11.5 17.5002C11.5 17.9668 11.1333 18.3335 10.6667 18.3335C10.2 18.3335 9.83333 17.9668 9.83333 17.5002V12.5002C9.83333 12.0335 10.2 11.6668 10.6667 11.6668C11.1333 11.6668 11.5 12.0335 11.5 12.5002V17.5002ZM14.8333 19.1668C14.8333 19.6335 14.4667 20.0002 14 20.0002C13.5333 20.0002 13.1667 19.6335 13.1667 19.1668V10.8335C13.1667 10.3668 13.5333 10.0002 14 10.0002C14.4667 10.0002 14.8333 10.3668 14.8333 10.8335V19.1668ZM33.1667 25.8335H29.8333C28 25.8335 26.5 27.3335 26.5 29.1668V32.5002H19.8333C18.9167 32.5002 18.1667 31.7502 18.1667 30.8335V12.5002C18.1667 11.5835 18.9167 10.8335 19.8333 10.8335H31.5C32.4167 10.8335 33.1667 11.5835 33.1667 12.5002V25.8335Z" fill="currentColor"/>
<path d="M30.6693 12.5H20.6693C20.2026 12.5 19.8359 12.8667 19.8359 13.3333C19.8359 13.8 20.2026 14.1667 20.6693 14.1667H30.6693C31.1359 14.1667 31.5026 13.8 31.5026 13.3333C31.5026 12.8667 31.1359 12.5 30.6693 12.5Z" fill="currentColor"/>
<path d="M30.6693 15.8335H20.6693C20.2026 15.8335 19.8359 16.2002 19.8359 16.6668C19.8359 17.1335 20.2026 17.5002 20.6693 17.5002H30.6693C31.1359 17.5002 31.5026 17.1335 31.5026 16.6668C31.5026 16.2002 31.1359 15.8335 30.6693 15.8335Z" fill="currentColor"/>
<path d="M30.6693 19.1665H20.6693C20.2026 19.1665 19.8359 19.5332 19.8359 19.9998C19.8359 20.4665 20.2026 20.8332 20.6693 20.8332H30.6693C31.1359 20.8332 31.5026 20.4665 31.5026 19.9998C31.5026 19.5332 31.1359 19.1665 30.6693 19.1665Z" fill="currentColor"/>
<path d="M30.6693 22.5H20.6693C20.2026 22.5 19.8359 22.8667 19.8359 23.3333C19.8359 23.8 20.2026 24.1667 20.6693 24.1667H30.6693C31.1359 24.1667 31.5026 23.8 31.5026 23.3333C31.5026 22.8667 31.1359 22.5 30.6693 22.5Z" fill="currentColor"/>
<path d="M24.8359 25.8335H20.6693C20.2026 25.8335 19.8359 26.2002 19.8359 26.6668C19.8359 27.1335 20.2026 27.5002 20.6693 27.5002H24.8359C25.3026 27.5002 25.6693 27.1335 25.6693 26.6668C25.6693 26.2002 25.3026 25.8335 24.8359 25.8335Z" fill="currentColor"/>
<path d="M24.0026 29.1665H20.6693C20.2026 29.1665 19.8359 29.5332 19.8359 29.9998C19.8359 30.4665 20.2026 30.8332 20.6693 30.8332H24.0026C24.4693 30.8332 24.8359 30.4665 24.8359 29.9998C24.8359 29.5332 24.4693 29.1665 24.0026 29.1665Z" fill="currentColor"/>
</svg>
