<svg width="1440" height="892" viewBox="0 0 1440 892" fill="none" xmlns="http://www.w3.org/2000/svg">
<g opacity="0.3">
<rect width="68.5714" height="68.5714" stroke="white" stroke-opacity="0.06" stroke-width="0.238095"/>
<rect x="68.5688" width="68.5714" height="68.5714" stroke="white" stroke-opacity="0.06" stroke-width="0.238095"/>
<rect x="137.138" width="68.5714" height="68.5714" stroke="white" stroke-opacity="0.06" stroke-width="0.238095"/>
<rect x="205.717" width="68.5714" height="68.5714" stroke="white" stroke-opacity="0.06" stroke-width="0.238095"/>
<rect x="274.286" width="68.5714" height="68.5714" stroke="white" stroke-opacity="0.06" stroke-width="0.238095"/>
<rect x="342.855" width="68.5714" height="68.5714" stroke="white" stroke-opacity="0.06" stroke-width="0.238095"/>
<rect x="411.424" width="68.5714" height="68.5714" stroke="white" stroke-opacity="0.06" stroke-width="0.238095"/>
<rect x="480.004" width="68.5714" height="68.5714" stroke="white" stroke-opacity="0.06" stroke-width="0.238095"/>
<rect x="548.572" width="68.5714" height="68.5714" stroke="white" stroke-opacity="0.06" stroke-width="0.238095"/>
<rect x="617.141" width="68.5714" height="68.5714" stroke="white" stroke-opacity="0.06" stroke-width="0.238095"/>
<rect x="685.71" width="68.5714" height="68.5714" stroke="white" stroke-opacity="0.06" stroke-width="0.238095"/>
<rect x="754.29" width="68.5714" height="68.5714" stroke="white" stroke-opacity="0.06" stroke-width="0.238095"/>
<rect x="822.859" width="68.5714" height="68.5714" stroke="white" stroke-opacity="0.06" stroke-width="0.238095"/>
<rect x="891.428" width="68.5714" height="68.5714" stroke="white" stroke-opacity="0.06" stroke-width="0.238095"/>
<rect x="959.996" width="68.5714" height="68.5714" stroke="white" stroke-opacity="0.06" stroke-width="0.238095"/>
<rect x="1028.58" width="68.5714" height="68.5714" stroke="white" stroke-opacity="0.06" stroke-width="0.238095"/>
<rect x="1097.15" width="68.5714" height="68.5714" stroke="white" stroke-opacity="0.06" stroke-width="0.238095"/>
<rect x="1165.71" width="68.5714" height="68.5714" stroke="white" stroke-opacity="0.06" stroke-width="0.238095"/>
<rect x="1234.28" width="68.5714" height="68.5714" stroke="white" stroke-opacity="0.06" stroke-width="0.238095"/>
<rect x="1302.86" width="68.5714" height="68.5714" stroke="white" stroke-opacity="0.06" stroke-width="0.238095"/>
<rect x="1371.43" width="68.5714" height="68.5714" stroke="white" stroke-opacity="0.06" stroke-width="0.238095"/>
<rect y="68.5718" width="68.5714" height="68.5714" stroke="white" stroke-opacity="0.06" stroke-width="0.238095"/>
<rect x="68.5688" y="68.5718" width="68.5714" height="68.5714" stroke="white" stroke-opacity="0.06" stroke-width="0.238095"/>
<rect opacity="0.3" x="137.138" y="68.5718" width="68.5714" height="68.5714" fill="white" fill-opacity="0.05" stroke="white" stroke-opacity="0.06" stroke-width="0.238095"/>
<rect x="205.717" y="68.5718" width="68.5714" height="68.5714" stroke="white" stroke-opacity="0.06" stroke-width="0.238095"/>
<rect x="274.286" y="68.5718" width="68.5714" height="68.5714" stroke="white" stroke-opacity="0.06" stroke-width="0.238095"/>
<rect x="342.855" y="68.5718" width="68.5714" height="68.5714" stroke="white" stroke-opacity="0.06" stroke-width="0.238095"/>
<rect x="411.424" y="68.5718" width="68.5714" height="68.5714" stroke="white" stroke-opacity="0.06" stroke-width="0.238095"/>
<rect x="480.004" y="68.5718" width="68.5714" height="68.5714" stroke="white" stroke-opacity="0.06" stroke-width="0.238095"/>
<rect x="548.572" y="68.5718" width="68.5714" height="68.5714" stroke="white" stroke-opacity="0.06" stroke-width="0.238095"/>
<rect opacity="0.3" x="617.141" y="68.5718" width="68.5714" height="68.5714" fill="white" fill-opacity="0.05" stroke="white" stroke-opacity="0.06" stroke-width="0.238095"/>
<rect x="685.71" y="68.5718" width="68.5714" height="68.5714" stroke="white" stroke-opacity="0.06" stroke-width="0.238095"/>
<rect x="754.29" y="68.5718" width="68.5714" height="68.5714" stroke="white" stroke-opacity="0.06" stroke-width="0.238095"/>
<rect x="822.859" y="68.5718" width="68.5714" height="68.5714" stroke="white" stroke-opacity="0.06" stroke-width="0.238095"/>
<rect x="891.428" y="68.5718" width="68.5714" height="68.5714" stroke="white" stroke-opacity="0.06" stroke-width="0.238095"/>
<rect x="959.996" y="68.5718" width="68.5714" height="68.5714" stroke="white" stroke-opacity="0.06" stroke-width="0.238095"/>
<rect x="1028.58" y="68.5718" width="68.5714" height="68.5714" stroke="white" stroke-opacity="0.06" stroke-width="0.238095"/>
<rect x="1097.15" y="68.5718" width="68.5714" height="68.5714" stroke="white" stroke-opacity="0.06" stroke-width="0.238095"/>
<rect x="1165.71" y="68.5718" width="68.5714" height="68.5714" stroke="white" stroke-opacity="0.06" stroke-width="0.238095"/>
<rect x="1234.28" y="68.5718" width="68.5714" height="68.5714" stroke="white" stroke-opacity="0.06" stroke-width="0.238095"/>
<rect x="1302.86" y="68.5718" width="68.5714" height="68.5714" stroke="white" stroke-opacity="0.06" stroke-width="0.238095"/>
<rect x="1371.43" y="68.5718" width="68.5714" height="68.5714" stroke="white" stroke-opacity="0.06" stroke-width="0.238095"/>
<rect y="137.143" width="68.5714" height="68.5714" stroke="white" stroke-opacity="0.06" stroke-width="0.238095"/>
<rect x="68.5688" y="137.143" width="68.5714" height="68.5714" stroke="white" stroke-opacity="0.06" stroke-width="0.238095"/>
<rect x="137.138" y="137.143" width="68.5714" height="68.5714" stroke="white" stroke-opacity="0.06" stroke-width="0.238095"/>
<rect x="205.717" y="137.143" width="68.5714" height="68.5714" stroke="white" stroke-opacity="0.06" stroke-width="0.238095"/>
<rect x="274.286" y="137.143" width="68.5714" height="68.5714" stroke="white" stroke-opacity="0.06" stroke-width="0.238095"/>
<rect x="342.855" y="137.143" width="68.5714" height="68.5714" stroke="white" stroke-opacity="0.06" stroke-width="0.238095"/>
<rect x="411.424" y="137.143" width="68.5714" height="68.5714" stroke="white" stroke-opacity="0.06" stroke-width="0.238095"/>
<rect x="480.004" y="137.143" width="68.5714" height="68.5714" stroke="white" stroke-opacity="0.06" stroke-width="0.238095"/>
<rect x="548.572" y="137.143" width="68.5714" height="68.5714" stroke="white" stroke-opacity="0.06" stroke-width="0.238095"/>
<rect x="617.141" y="137.143" width="68.5714" height="68.5714" stroke="white" stroke-opacity="0.06" stroke-width="0.238095"/>
<rect x="685.71" y="137.143" width="68.5714" height="68.5714" stroke="white" stroke-opacity="0.06" stroke-width="0.238095"/>
<rect x="754.29" y="137.143" width="68.5714" height="68.5714" stroke="white" stroke-opacity="0.06" stroke-width="0.238095"/>
<rect x="822.859" y="137.143" width="68.5714" height="68.5714" stroke="white" stroke-opacity="0.06" stroke-width="0.238095"/>
<rect x="891.428" y="137.143" width="68.5714" height="68.5714" stroke="white" stroke-opacity="0.06" stroke-width="0.238095"/>
<rect x="959.996" y="137.143" width="68.5714" height="68.5714" stroke="white" stroke-opacity="0.06" stroke-width="0.238095"/>
<rect x="1028.58" y="137.143" width="68.5714" height="68.5714" stroke="white" stroke-opacity="0.06" stroke-width="0.238095"/>
<rect x="1097.15" y="137.143" width="68.5714" height="68.5714" fill="white" fill-opacity="0.05" stroke="white" stroke-opacity="0.06" stroke-width="0.238095"/>
<rect x="1165.71" y="137.143" width="68.5714" height="68.5714" stroke="white" stroke-opacity="0.06" stroke-width="0.238095"/>
<rect x="1234.28" y="137.143" width="68.5714" height="68.5714" stroke="white" stroke-opacity="0.06" stroke-width="0.238095"/>
<rect x="1302.86" y="137.143" width="68.5714" height="68.5714" stroke="white" stroke-opacity="0.06" stroke-width="0.238095"/>
<rect x="1371.43" y="137.143" width="68.5714" height="68.5714" stroke="white" stroke-opacity="0.06" stroke-width="0.238095"/>
<rect y="205.714" width="68.5714" height="68.5714" stroke="white" stroke-opacity="0.06" stroke-width="0.238095"/>
<rect x="68.5688" y="205.714" width="68.5714" height="68.5714" stroke="white" stroke-opacity="0.06" stroke-width="0.238095"/>
<rect x="137.138" y="205.714" width="68.5714" height="68.5714" stroke="white" stroke-opacity="0.06" stroke-width="0.238095"/>
<rect x="205.717" y="205.714" width="68.5714" height="68.5714" stroke="white" stroke-opacity="0.06" stroke-width="0.238095"/>
<rect x="274.286" y="205.714" width="68.5714" height="68.5714" stroke="white" stroke-opacity="0.06" stroke-width="0.238095"/>
<rect x="342.855" y="205.714" width="68.5714" height="68.5714" stroke="white" stroke-opacity="0.06" stroke-width="0.238095"/>
<rect x="411.424" y="205.714" width="68.5714" height="68.5714" stroke="white" stroke-opacity="0.06" stroke-width="0.238095"/>
<rect x="480.004" y="205.714" width="68.5714" height="68.5714" stroke="white" stroke-opacity="0.06" stroke-width="0.238095"/>
<rect x="548.572" y="205.714" width="68.5714" height="68.5714" stroke="white" stroke-opacity="0.06" stroke-width="0.238095"/>
<rect x="617.141" y="205.714" width="68.5714" height="68.5714" stroke="white" stroke-opacity="0.06" stroke-width="0.238095"/>
<rect x="685.71" y="205.714" width="68.5714" height="68.5714" stroke="white" stroke-opacity="0.06" stroke-width="0.238095"/>
<rect x="754.29" y="205.714" width="68.5714" height="68.5714" stroke="white" stroke-opacity="0.06" stroke-width="0.238095"/>
<rect x="822.859" y="205.714" width="68.5714" height="68.5714" stroke="white" stroke-opacity="0.06" stroke-width="0.238095"/>
<rect x="891.428" y="205.714" width="68.5714" height="68.5714" stroke="white" stroke-opacity="0.06" stroke-width="0.238095"/>
<rect x="959.996" y="205.714" width="68.5714" height="68.5714" stroke="white" stroke-opacity="0.06" stroke-width="0.238095"/>
<rect x="1028.58" y="205.714" width="68.5714" height="68.5714" stroke="white" stroke-opacity="0.06" stroke-width="0.238095"/>
<rect x="1097.15" y="205.714" width="68.5714" height="68.5714" stroke="white" stroke-opacity="0.06" stroke-width="0.238095"/>
<rect x="1165.71" y="205.714" width="68.5714" height="68.5714" stroke="white" stroke-opacity="0.06" stroke-width="0.238095"/>
<rect x="1234.28" y="205.714" width="68.5714" height="68.5714" stroke="white" stroke-opacity="0.06" stroke-width="0.238095"/>
<rect x="1302.86" y="205.714" width="68.5714" height="68.5714" stroke="white" stroke-opacity="0.06" stroke-width="0.238095"/>
<rect x="1371.43" y="205.714" width="68.5714" height="68.5714" stroke="white" stroke-opacity="0.06" stroke-width="0.238095"/>
<rect y="274.286" width="68.5714" height="68.5714" stroke="white" stroke-opacity="0.06" stroke-width="0.238095"/>
<rect x="68.5688" y="274.286" width="68.5714" height="68.5714" stroke="white" stroke-opacity="0.06" stroke-width="0.238095"/>
<rect x="137.138" y="274.286" width="68.5714" height="68.5714" stroke="white" stroke-opacity="0.06" stroke-width="0.238095"/>
<rect x="205.717" y="274.286" width="68.5714" height="68.5714" fill="white" fill-opacity="0.05" stroke="white" stroke-opacity="0.06" stroke-width="0.238095"/>
<rect x="274.286" y="274.286" width="68.5714" height="68.5714" stroke="white" stroke-opacity="0.06" stroke-width="0.238095"/>
<rect x="342.855" y="274.286" width="68.5714" height="68.5714" stroke="white" stroke-opacity="0.06" stroke-width="0.238095"/>
<rect x="411.424" y="274.286" width="68.5714" height="68.5714" stroke="white" stroke-opacity="0.06" stroke-width="0.238095"/>
<rect x="480.004" y="274.286" width="68.5714" height="68.5714" stroke="white" stroke-opacity="0.06" stroke-width="0.238095"/>
<rect x="548.572" y="274.286" width="68.5714" height="68.5714" stroke="white" stroke-opacity="0.06" stroke-width="0.238095"/>
<rect x="617.141" y="274.286" width="68.5714" height="68.5714" stroke="white" stroke-opacity="0.06" stroke-width="0.238095"/>
<rect x="685.71" y="274.286" width="68.5714" height="68.5714" stroke="white" stroke-opacity="0.06" stroke-width="0.238095"/>
<rect x="754.29" y="274.286" width="68.5714" height="68.5714" stroke="white" stroke-opacity="0.06" stroke-width="0.238095"/>
<rect x="822.859" y="274.286" width="68.5714" height="68.5714" fill="white" fill-opacity="0.05" stroke="white" stroke-opacity="0.06" stroke-width="0.238095"/>
<rect x="891.428" y="274.286" width="68.5714" height="68.5714" stroke="white" stroke-opacity="0.06" stroke-width="0.238095"/>
<rect x="959.996" y="274.286" width="68.5714" height="68.5714" stroke="white" stroke-opacity="0.06" stroke-width="0.238095"/>
<rect x="1028.58" y="274.286" width="68.5714" height="68.5714" stroke="white" stroke-opacity="0.06" stroke-width="0.238095"/>
<rect x="1097.15" y="274.286" width="68.5714" height="68.5714" stroke="white" stroke-opacity="0.06" stroke-width="0.238095"/>
<rect x="1165.71" y="274.286" width="68.5714" height="68.5714" stroke="white" stroke-opacity="0.06" stroke-width="0.238095"/>
<rect x="1234.28" y="274.286" width="68.5714" height="68.5714" stroke="white" stroke-opacity="0.06" stroke-width="0.238095"/>
<rect x="1302.86" y="274.286" width="68.5714" height="68.5714" stroke="white" stroke-opacity="0.06" stroke-width="0.238095"/>
<rect x="1371.43" y="274.286" width="68.5714" height="68.5714" stroke="white" stroke-opacity="0.06" stroke-width="0.238095"/>
<rect y="342.857" width="68.5714" height="68.5714" stroke="white" stroke-opacity="0.06" stroke-width="0.238095"/>
<rect x="68.5688" y="342.857" width="68.5714" height="68.5714" stroke="white" stroke-opacity="0.06" stroke-width="0.238095"/>
<rect x="137.138" y="342.857" width="68.5714" height="68.5714" stroke="white" stroke-opacity="0.06" stroke-width="0.238095"/>
<rect x="205.717" y="342.857" width="68.5714" height="68.5714" stroke="white" stroke-opacity="0.06" stroke-width="0.238095"/>
<rect x="274.286" y="342.857" width="68.5714" height="68.5714" stroke="white" stroke-opacity="0.06" stroke-width="0.238095"/>
<rect x="342.855" y="342.857" width="68.5714" height="68.5714" stroke="white" stroke-opacity="0.06" stroke-width="0.238095"/>
<rect x="411.424" y="342.857" width="68.5714" height="68.5714" stroke="white" stroke-opacity="0.06" stroke-width="0.238095"/>
<rect x="480.004" y="342.857" width="68.5714" height="68.5714" stroke="white" stroke-opacity="0.06" stroke-width="0.238095"/>
<rect x="548.572" y="342.857" width="68.5714" height="68.5714" stroke="white" stroke-opacity="0.06" stroke-width="0.238095"/>
<rect x="617.141" y="342.857" width="68.5714" height="68.5714" stroke="white" stroke-opacity="0.06" stroke-width="0.238095"/>
<rect x="685.71" y="342.857" width="68.5714" height="68.5714" stroke="white" stroke-opacity="0.06" stroke-width="0.238095"/>
<rect x="754.29" y="342.857" width="68.5714" height="68.5714" stroke="white" stroke-opacity="0.06" stroke-width="0.238095"/>
<rect x="822.859" y="342.857" width="68.5714" height="68.5714" stroke="white" stroke-opacity="0.06" stroke-width="0.238095"/>
<rect x="891.428" y="342.857" width="68.5714" height="68.5714" stroke="white" stroke-opacity="0.06" stroke-width="0.238095"/>
<rect x="959.996" y="342.857" width="68.5714" height="68.5714" stroke="white" stroke-opacity="0.06" stroke-width="0.238095"/>
<rect x="1028.58" y="342.857" width="68.5714" height="68.5714" stroke="white" stroke-opacity="0.06" stroke-width="0.238095"/>
<rect x="1097.15" y="342.857" width="68.5714" height="68.5714" stroke="white" stroke-opacity="0.06" stroke-width="0.238095"/>
<rect x="1165.71" y="342.857" width="68.5714" height="68.5714" stroke="white" stroke-opacity="0.06" stroke-width="0.238095"/>
<rect x="1234.28" y="342.857" width="68.5714" height="68.5714" fill="white" fill-opacity="0.05" stroke="white" stroke-opacity="0.06" stroke-width="0.238095"/>
<rect x="1302.86" y="342.857" width="68.5714" height="68.5714" stroke="white" stroke-opacity="0.06" stroke-width="0.238095"/>
<rect x="1371.43" y="342.857" width="68.5714" height="68.5714" stroke="white" stroke-opacity="0.06" stroke-width="0.238095"/>
<rect y="411.429" width="68.5714" height="68.5714" stroke="white" stroke-opacity="0.06" stroke-width="0.238095"/>
<rect x="68.5688" y="411.429" width="68.5714" height="68.5714" stroke="white" stroke-opacity="0.06" stroke-width="0.238095"/>
<rect x="137.138" y="411.429" width="68.5714" height="68.5714" stroke="white" stroke-opacity="0.06" stroke-width="0.238095"/>
<rect x="205.717" y="411.429" width="68.5714" height="68.5714" stroke="white" stroke-opacity="0.06" stroke-width="0.238095"/>
<rect x="274.286" y="411.429" width="68.5714" height="68.5714" stroke="white" stroke-opacity="0.06" stroke-width="0.238095"/>
<rect x="342.855" y="411.429" width="68.5714" height="68.5714" stroke="white" stroke-opacity="0.06" stroke-width="0.238095"/>
<rect x="411.424" y="411.429" width="68.5714" height="68.5714" stroke="white" stroke-opacity="0.06" stroke-width="0.238095"/>
<rect x="480.004" y="411.429" width="68.5714" height="68.5714" stroke="white" stroke-opacity="0.06" stroke-width="0.238095"/>
<rect x="548.572" y="411.429" width="68.5714" height="68.5714" stroke="white" stroke-opacity="0.06" stroke-width="0.238095"/>
<rect x="617.141" y="411.429" width="68.5714" height="68.5714" stroke="white" stroke-opacity="0.06" stroke-width="0.238095"/>
<rect x="685.71" y="411.429" width="68.5714" height="68.5714" stroke="white" stroke-opacity="0.06" stroke-width="0.238095"/>
<rect x="754.29" y="411.429" width="68.5714" height="68.5714" stroke="white" stroke-opacity="0.06" stroke-width="0.238095"/>
<rect x="822.859" y="411.429" width="68.5714" height="68.5714" stroke="white" stroke-opacity="0.06" stroke-width="0.238095"/>
<rect x="891.428" y="411.429" width="68.5714" height="68.5714" stroke="white" stroke-opacity="0.06" stroke-width="0.238095"/>
<rect x="959.996" y="411.429" width="68.5714" height="68.5714" stroke="white" stroke-opacity="0.06" stroke-width="0.238095"/>
<rect x="1028.58" y="411.429" width="68.5714" height="68.5714" stroke="white" stroke-opacity="0.06" stroke-width="0.238095"/>
<rect x="1097.15" y="411.429" width="68.5714" height="68.5714" stroke="white" stroke-opacity="0.06" stroke-width="0.238095"/>
<rect x="1165.71" y="411.429" width="68.5714" height="68.5714" stroke="white" stroke-opacity="0.06" stroke-width="0.238095"/>
<rect x="1234.28" y="411.429" width="68.5714" height="68.5714" stroke="white" stroke-opacity="0.06" stroke-width="0.238095"/>
<rect x="1302.86" y="411.429" width="68.5714" height="68.5714" stroke="white" stroke-opacity="0.06" stroke-width="0.238095"/>
<rect x="1371.43" y="411.429" width="68.5714" height="68.5714" stroke="white" stroke-opacity="0.06" stroke-width="0.238095"/>
<rect y="480" width="68.5714" height="68.5714" stroke="white" stroke-opacity="0.06" stroke-width="0.238095"/>
<rect x="68.5688" y="480" width="68.5714" height="68.5714" stroke="white" stroke-opacity="0.06" stroke-width="0.238095"/>
<rect x="137.138" y="480" width="68.5714" height="68.5714" stroke="white" stroke-opacity="0.06" stroke-width="0.238095"/>
<rect x="205.717" y="480" width="68.5714" height="68.5714" stroke="white" stroke-opacity="0.06" stroke-width="0.238095"/>
<rect x="274.286" y="480" width="68.5714" height="68.5714" stroke="white" stroke-opacity="0.06" stroke-width="0.238095"/>
<rect x="342.855" y="480" width="68.5714" height="68.5714" stroke="white" stroke-opacity="0.06" stroke-width="0.238095"/>
<rect x="411.424" y="480" width="68.5714" height="68.5714" stroke="white" stroke-opacity="0.06" stroke-width="0.238095"/>
<rect x="480.004" y="480" width="68.5714" height="68.5714" stroke="white" stroke-opacity="0.06" stroke-width="0.238095"/>
<rect x="548.572" y="480" width="68.5714" height="68.5714" fill="white" fill-opacity="0.05" stroke="white" stroke-opacity="0.06" stroke-width="0.238095"/>
<rect x="617.141" y="480" width="68.5714" height="68.5714" stroke="white" stroke-opacity="0.06" stroke-width="0.238095"/>
<rect x="685.71" y="480" width="68.5714" height="68.5714" stroke="white" stroke-opacity="0.06" stroke-width="0.238095"/>
<rect x="754.29" y="480" width="68.5714" height="68.5714" stroke="white" stroke-opacity="0.06" stroke-width="0.238095"/>
<rect x="822.859" y="480" width="68.5714" height="68.5714" stroke="white" stroke-opacity="0.06" stroke-width="0.238095"/>
<rect x="891.428" y="480" width="68.5714" height="68.5714" stroke="white" stroke-opacity="0.06" stroke-width="0.238095"/>
<rect x="959.996" y="480" width="68.5714" height="68.5714" stroke="white" stroke-opacity="0.06" stroke-width="0.238095"/>
<rect x="1028.58" y="480" width="68.5714" height="68.5714" stroke="white" stroke-opacity="0.06" stroke-width="0.238095"/>
<rect x="1097.15" y="480" width="68.5714" height="68.5714" stroke="white" stroke-opacity="0.06" stroke-width="0.238095"/>
<rect x="1165.71" y="480" width="68.5714" height="68.5714" stroke="white" stroke-opacity="0.06" stroke-width="0.238095"/>
<rect x="1234.28" y="480" width="68.5714" height="68.5714" stroke="white" stroke-opacity="0.06" stroke-width="0.238095"/>
<rect x="1302.86" y="480" width="68.5714" height="68.5714" stroke="white" stroke-opacity="0.06" stroke-width="0.238095"/>
<rect x="1371.43" y="480" width="68.5714" height="68.5714" stroke="white" stroke-opacity="0.06" stroke-width="0.238095"/>
<rect y="548.571" width="68.5714" height="68.5714" stroke="white" stroke-opacity="0.06" stroke-width="0.238095"/>
<rect x="68.5688" y="548.571" width="68.5714" height="68.5714" stroke="white" stroke-opacity="0.06" stroke-width="0.238095"/>
<rect x="137.138" y="548.571" width="68.5714" height="68.5714" stroke="white" stroke-opacity="0.06" stroke-width="0.238095"/>
<rect x="205.717" y="548.571" width="68.5714" height="68.5714" stroke="white" stroke-opacity="0.06" stroke-width="0.238095"/>
<rect x="274.286" y="548.571" width="68.5714" height="68.5714" fill="white" fill-opacity="0.05" stroke="white" stroke-opacity="0.06" stroke-width="0.238095"/>
<rect x="342.855" y="548.571" width="68.5714" height="68.5714" stroke="white" stroke-opacity="0.06" stroke-width="0.238095"/>
<rect x="411.424" y="548.571" width="68.5714" height="68.5714" stroke="white" stroke-opacity="0.06" stroke-width="0.238095"/>
<rect x="480.004" y="548.571" width="68.5714" height="68.5714" stroke="white" stroke-opacity="0.06" stroke-width="0.238095"/>
<rect x="548.572" y="548.571" width="68.5714" height="68.5714" stroke="white" stroke-opacity="0.06" stroke-width="0.238095"/>
<rect x="617.141" y="548.571" width="68.5714" height="68.5714" stroke="white" stroke-opacity="0.06" stroke-width="0.238095"/>
<rect x="685.71" y="548.571" width="68.5714" height="68.5714" stroke="white" stroke-opacity="0.06" stroke-width="0.238095"/>
<rect x="754.29" y="548.571" width="68.5714" height="68.5714" stroke="white" stroke-opacity="0.06" stroke-width="0.238095"/>
<rect x="822.859" y="548.571" width="68.5714" height="68.5714" stroke="white" stroke-opacity="0.06" stroke-width="0.238095"/>
<rect x="891.428" y="548.571" width="68.5714" height="68.5714" stroke="white" stroke-opacity="0.06" stroke-width="0.238095"/>
<rect x="959.996" y="548.571" width="68.5714" height="68.5714" stroke="white" stroke-opacity="0.06" stroke-width="0.238095"/>
<rect x="1028.58" y="548.571" width="68.5714" height="68.5714" stroke="white" stroke-opacity="0.06" stroke-width="0.238095"/>
<rect x="1097.15" y="548.571" width="68.5714" height="68.5714" stroke="white" stroke-opacity="0.06" stroke-width="0.238095"/>
<rect x="1165.71" y="548.571" width="68.5714" height="68.5714" stroke="white" stroke-opacity="0.06" stroke-width="0.238095"/>
<rect x="1234.28" y="548.571" width="68.5714" height="68.5714" stroke="white" stroke-opacity="0.06" stroke-width="0.238095"/>
<rect x="1302.86" y="548.571" width="68.5714" height="68.5714" stroke="white" stroke-opacity="0.06" stroke-width="0.238095"/>
<rect x="1371.43" y="548.571" width="68.5714" height="68.5714" stroke="white" stroke-opacity="0.06" stroke-width="0.238095"/>
<rect y="617.143" width="68.5714" height="68.5714" stroke="white" stroke-opacity="0.06" stroke-width="0.238095"/>
<rect x="68.5688" y="617.143" width="68.5714" height="68.5714" stroke="white" stroke-opacity="0.06" stroke-width="0.238095"/>
<rect x="137.138" y="617.143" width="68.5714" height="68.5714" stroke="white" stroke-opacity="0.06" stroke-width="0.238095"/>
<rect x="205.717" y="617.143" width="68.5714" height="68.5714" stroke="white" stroke-opacity="0.06" stroke-width="0.238095"/>
<rect x="274.286" y="617.143" width="68.5714" height="68.5714" stroke="white" stroke-opacity="0.06" stroke-width="0.238095"/>
<rect x="342.855" y="617.143" width="68.5714" height="68.5714" stroke="white" stroke-opacity="0.06" stroke-width="0.238095"/>
<rect x="411.424" y="617.143" width="68.5714" height="68.5714" stroke="white" stroke-opacity="0.06" stroke-width="0.238095"/>
<rect x="480.004" y="617.143" width="68.5714" height="68.5714" stroke="white" stroke-opacity="0.06" stroke-width="0.238095"/>
<rect x="548.572" y="617.143" width="68.5714" height="68.5714" stroke="white" stroke-opacity="0.06" stroke-width="0.238095"/>
<rect x="617.141" y="617.143" width="68.5714" height="68.5714" stroke="white" stroke-opacity="0.06" stroke-width="0.238095"/>
<rect x="685.71" y="617.143" width="68.5714" height="68.5714" stroke="white" stroke-opacity="0.06" stroke-width="0.238095"/>
<rect x="754.29" y="617.143" width="68.5714" height="68.5714" stroke="white" stroke-opacity="0.06" stroke-width="0.238095"/>
<rect x="822.859" y="617.143" width="68.5714" height="68.5714" stroke="white" stroke-opacity="0.06" stroke-width="0.238095"/>
<rect x="891.428" y="617.143" width="68.5714" height="68.5714" stroke="white" stroke-opacity="0.06" stroke-width="0.238095"/>
<rect x="959.996" y="617.143" width="68.5714" height="68.5714" stroke="white" stroke-opacity="0.06" stroke-width="0.238095"/>
<rect x="1028.58" y="617.143" width="68.5714" height="68.5714" stroke="white" stroke-opacity="0.06" stroke-width="0.238095"/>
<rect x="1097.15" y="617.143" width="68.5714" height="68.5714" stroke="white" stroke-opacity="0.06" stroke-width="0.238095"/>
<rect x="1165.71" y="617.143" width="68.5714" height="68.5714" stroke="white" stroke-opacity="0.06" stroke-width="0.238095"/>
<rect x="1234.28" y="617.143" width="68.5714" height="68.5714" stroke="white" stroke-opacity="0.06" stroke-width="0.238095"/>
<rect x="1302.86" y="617.143" width="68.5714" height="68.5714" stroke="white" stroke-opacity="0.06" stroke-width="0.238095"/>
<rect x="1371.43" y="617.143" width="68.5714" height="68.5714" stroke="white" stroke-opacity="0.06" stroke-width="0.238095"/>
<rect y="685.714" width="68.5714" height="68.5714" stroke="white" stroke-opacity="0.06" stroke-width="0.238095"/>
<rect x="68.5688" y="685.714" width="68.5714" height="68.5714" stroke="white" stroke-opacity="0.06" stroke-width="0.238095"/>
<rect x="137.138" y="685.714" width="68.5714" height="68.5714" stroke="white" stroke-opacity="0.06" stroke-width="0.238095"/>
<rect x="205.717" y="685.714" width="68.5714" height="68.5714" stroke="white" stroke-opacity="0.06" stroke-width="0.238095"/>
<rect x="274.286" y="685.714" width="68.5714" height="68.5714" stroke="white" stroke-opacity="0.06" stroke-width="0.238095"/>
<rect x="342.855" y="685.714" width="68.5714" height="68.5714" stroke="white" stroke-opacity="0.06" stroke-width="0.238095"/>
<rect x="411.424" y="685.714" width="68.5714" height="68.5714" stroke="white" stroke-opacity="0.06" stroke-width="0.238095"/>
<rect x="480.004" y="685.714" width="68.5714" height="68.5714" stroke="white" stroke-opacity="0.06" stroke-width="0.238095"/>
<rect x="548.572" y="685.714" width="68.5714" height="68.5714" stroke="white" stroke-opacity="0.06" stroke-width="0.238095"/>
<rect x="617.141" y="685.714" width="68.5714" height="68.5714" stroke="white" stroke-opacity="0.06" stroke-width="0.238095"/>
<rect x="685.71" y="685.714" width="68.5714" height="68.5714" stroke="white" stroke-opacity="0.06" stroke-width="0.238095"/>
<rect x="754.29" y="685.714" width="68.5714" height="68.5714" stroke="white" stroke-opacity="0.06" stroke-width="0.238095"/>
<rect x="822.859" y="685.714" width="68.5714" height="68.5714" stroke="white" stroke-opacity="0.06" stroke-width="0.238095"/>
<rect x="891.428" y="685.714" width="68.5714" height="68.5714" stroke="white" stroke-opacity="0.06" stroke-width="0.238095"/>
<rect x="959.996" y="685.714" width="68.5714" height="68.5714" stroke="white" stroke-opacity="0.06" stroke-width="0.238095"/>
<rect x="1028.58" y="685.714" width="68.5714" height="68.5714" stroke="white" stroke-opacity="0.06" stroke-width="0.238095"/>
<rect x="1097.15" y="685.714" width="68.5714" height="68.5714" stroke="white" stroke-opacity="0.06" stroke-width="0.238095"/>
<rect x="1165.71" y="685.714" width="68.5714" height="68.5714" stroke="white" stroke-opacity="0.06" stroke-width="0.238095"/>
<rect x="1234.28" y="685.714" width="68.5714" height="68.5714" stroke="white" stroke-opacity="0.06" stroke-width="0.238095"/>
<rect x="1302.86" y="685.714" width="68.5714" height="68.5714" stroke="white" stroke-opacity="0.06" stroke-width="0.238095"/>
<rect x="1371.43" y="685.714" width="68.5714" height="68.5714" stroke="white" stroke-opacity="0.06" stroke-width="0.238095"/>
<rect y="754.286" width="68.5714" height="68.5714" stroke="white" stroke-opacity="0.06" stroke-width="0.238095"/>
<rect x="68.5688" y="754.286" width="68.5714" height="68.5714" stroke="white" stroke-opacity="0.06" stroke-width="0.238095"/>
<rect x="137.138" y="754.286" width="68.5714" height="68.5714" stroke="white" stroke-opacity="0.06" stroke-width="0.238095"/>
<rect x="205.717" y="754.286" width="68.5714" height="68.5714" stroke="white" stroke-opacity="0.06" stroke-width="0.238095"/>
<rect x="274.286" y="754.286" width="68.5714" height="68.5714" stroke="white" stroke-opacity="0.06" stroke-width="0.238095"/>
<rect x="342.855" y="754.286" width="68.5714" height="68.5714" stroke="white" stroke-opacity="0.06" stroke-width="0.238095"/>
<rect x="411.424" y="754.286" width="68.5714" height="68.5714" stroke="white" stroke-opacity="0.06" stroke-width="0.238095"/>
<rect x="480.004" y="754.286" width="68.5714" height="68.5714" stroke="white" stroke-opacity="0.06" stroke-width="0.238095"/>
<rect x="548.572" y="754.286" width="68.5714" height="68.5714" stroke="white" stroke-opacity="0.06" stroke-width="0.238095"/>
<rect x="617.141" y="754.286" width="68.5714" height="68.5714" stroke="white" stroke-opacity="0.06" stroke-width="0.238095"/>
<rect x="685.71" y="754.286" width="68.5714" height="68.5714" stroke="white" stroke-opacity="0.06" stroke-width="0.238095"/>
<rect x="754.29" y="754.286" width="68.5714" height="68.5714" stroke="white" stroke-opacity="0.06" stroke-width="0.238095"/>
<rect x="822.859" y="754.286" width="68.5714" height="68.5714" stroke="white" stroke-opacity="0.06" stroke-width="0.238095"/>
<rect x="891.428" y="754.286" width="68.5714" height="68.5714" stroke="white" stroke-opacity="0.06" stroke-width="0.238095"/>
<rect x="959.996" y="754.286" width="68.5714" height="68.5714" stroke="white" stroke-opacity="0.06" stroke-width="0.238095"/>
<rect x="1028.58" y="754.286" width="68.5714" height="68.5714" stroke="white" stroke-opacity="0.06" stroke-width="0.238095"/>
<rect x="1097.15" y="754.286" width="68.5714" height="68.5714" stroke="white" stroke-opacity="0.06" stroke-width="0.238095"/>
<rect x="1165.71" y="754.286" width="68.5714" height="68.5714" stroke="white" stroke-opacity="0.06" stroke-width="0.238095"/>
<rect x="1234.28" y="754.286" width="68.5714" height="68.5714" stroke="white" stroke-opacity="0.06" stroke-width="0.238095"/>
<rect x="1302.86" y="754.286" width="68.5714" height="68.5714" stroke="white" stroke-opacity="0.06" stroke-width="0.238095"/>
<rect x="1371.43" y="754.286" width="68.5714" height="68.5714" stroke="white" stroke-opacity="0.06" stroke-width="0.238095"/>
<rect y="822.857" width="68.5714" height="68.5714" stroke="white" stroke-opacity="0.06" stroke-width="0.238095"/>
<rect x="68.5688" y="822.857" width="68.5714" height="68.5714" stroke="white" stroke-opacity="0.06" stroke-width="0.238095"/>
<rect x="137.138" y="822.857" width="68.5714" height="68.5714" stroke="white" stroke-opacity="0.06" stroke-width="0.238095"/>
<rect x="205.717" y="822.857" width="68.5714" height="68.5714" stroke="white" stroke-opacity="0.06" stroke-width="0.238095"/>
<rect x="274.286" y="822.857" width="68.5714" height="68.5714" stroke="white" stroke-opacity="0.06" stroke-width="0.238095"/>
<rect x="342.855" y="822.857" width="68.5714" height="68.5714" stroke="white" stroke-opacity="0.06" stroke-width="0.238095"/>
<rect x="411.424" y="822.857" width="68.5714" height="68.5714" stroke="white" stroke-opacity="0.06" stroke-width="0.238095"/>
<rect x="480.004" y="822.857" width="68.5714" height="68.5714" stroke="white" stroke-opacity="0.06" stroke-width="0.238095"/>
<rect x="548.572" y="822.857" width="68.5714" height="68.5714" stroke="white" stroke-opacity="0.06" stroke-width="0.238095"/>
<rect x="617.141" y="822.857" width="68.5714" height="68.5714" stroke="white" stroke-opacity="0.06" stroke-width="0.238095"/>
<rect x="685.71" y="822.857" width="68.5714" height="68.5714" stroke="white" stroke-opacity="0.06" stroke-width="0.238095"/>
<rect x="754.29" y="822.857" width="68.5714" height="68.5714" stroke="white" stroke-opacity="0.06" stroke-width="0.238095"/>
<rect x="822.859" y="822.857" width="68.5714" height="68.5714" stroke="white" stroke-opacity="0.06" stroke-width="0.238095"/>
<rect x="891.428" y="822.857" width="68.5714" height="68.5714" stroke="white" stroke-opacity="0.06" stroke-width="0.238095"/>
<rect x="959.996" y="822.857" width="68.5714" height="68.5714" stroke="white" stroke-opacity="0.06" stroke-width="0.238095"/>
<rect x="1028.58" y="822.857" width="68.5714" height="68.5714" stroke="white" stroke-opacity="0.06" stroke-width="0.238095"/>
<rect x="1097.15" y="822.857" width="68.5714" height="68.5714" stroke="white" stroke-opacity="0.06" stroke-width="0.238095"/>
<rect x="1165.71" y="822.857" width="68.5714" height="68.5714" stroke="white" stroke-opacity="0.06" stroke-width="0.238095"/>
<rect x="1234.28" y="822.857" width="68.5714" height="68.5714" stroke="white" stroke-opacity="0.06" stroke-width="0.238095"/>
<rect x="1302.86" y="822.857" width="68.5714" height="68.5714" stroke="white" stroke-opacity="0.06" stroke-width="0.238095"/>
<rect x="1371.43" y="822.857" width="68.5714" height="68.5714" stroke="white" stroke-opacity="0.06" stroke-width="0.238095"/>
</g>
</svg>
