<svg width="189" height="252" viewBox="0 0 189 252" fill="none" xmlns="http://www.w3.org/2000/svg">
<g opacity="0.5">
<path d="M113.556 191.884C113.647 191.534 113.908 191.355 114.139 191.485C114.371 191.616 114.485 192.006 114.394 192.357C114.304 192.707 114.043 192.886 113.811 192.756C113.58 192.625 113.466 192.235 113.556 191.884Z" fill="white"/>
<path d="M161.212 135.126C161.303 134.775 161.564 134.596 161.795 134.727C162.027 134.857 162.141 135.247 162.051 135.598C161.96 135.949 161.699 136.127 161.468 135.997C161.236 135.866 161.122 135.476 161.212 135.126Z" fill="white"/>
<path d="M133.257 65.341C133.348 64.9903 133.609 64.8116 133.84 64.942C134.072 65.0724 134.186 65.4624 134.096 65.8131C134.005 66.1639 133.744 66.3426 133.513 66.2122C133.281 66.0818 133.167 65.6918 133.257 65.341Z" fill="white"/>
<path opacity="0.11" d="M112.332 203.008C112.422 202.657 112.683 202.478 112.915 202.608C113.146 202.739 113.26 203.129 113.17 203.48C113.079 203.83 112.818 204.009 112.587 203.879C112.355 203.748 112.241 203.358 112.332 203.008Z" fill="white"/>
<path opacity="0.3" d="M166.861 111.386C166.951 111.035 167.212 110.857 167.444 110.987C167.675 111.117 167.79 111.507 167.699 111.858C167.609 112.209 167.348 112.387 167.116 112.257C166.885 112.127 166.77 111.737 166.861 111.386Z" fill="white"/>
<path opacity="0.11" d="M164.798 223.094C164.889 222.744 165.15 222.565 165.381 222.695C165.613 222.826 165.727 223.216 165.637 223.567C165.546 223.917 165.285 224.096 165.054 223.966C164.822 223.835 164.708 223.445 164.798 223.094Z" fill="white"/>
<path opacity="0.11" d="M140.67 90.6159C140.76 90.2652 141.021 90.0865 141.252 90.2169C141.484 90.3473 141.598 90.7373 141.508 91.088C141.417 91.4388 141.156 91.6175 140.925 91.4871C140.693 91.3567 140.579 90.9667 140.67 90.6159Z" fill="white"/>
<path opacity="0.11" d="M128.532 246.339C128.714 245.637 129.236 245.279 129.7 245.54C130.163 245.801 130.392 246.582 130.211 247.284C130.03 247.986 129.507 248.344 129.044 248.083C128.58 247.822 128.351 247.041 128.532 246.339Z" fill="white"/>
<path d="M94.3513 20.7151C94.4872 20.1887 94.8789 19.9206 95.2262 20.1163C95.5736 20.312 95.7451 20.8973 95.6092 21.4237C95.4734 21.9502 95.0817 22.2183 94.7343 22.0227C94.387 21.827 94.2155 21.2416 94.3513 20.7151Z" fill="white"/>
<path d="M61.9197 182.257C62.0555 181.731 62.4472 181.463 62.7946 181.658C63.1419 181.854 63.3134 182.439 63.1776 182.966C63.0418 183.492 62.65 183.76 62.3027 183.565C61.9553 183.369 61.7839 182.784 61.9197 182.257Z" fill="white"/>
<path d="M123.088 13.6161C123.223 13.0897 123.615 12.8216 123.963 13.0172C124.31 13.2129 124.481 13.7983 124.346 14.3247C124.21 14.8511 123.818 15.1192 123.471 14.9235C123.123 14.7279 122.952 14.1425 123.088 13.6161Z" fill="white"/>
<path d="M150.094 11.3632C150.229 10.8367 150.621 10.5686 150.968 10.7643C151.316 10.96 151.487 11.5453 151.351 12.0717C151.216 12.5982 150.824 12.8663 150.477 12.6706C150.129 12.4749 149.958 11.8896 150.094 11.3632Z" fill="white"/>
<path opacity="0.3" d="M156.239 202.265C156.421 201.563 156.943 201.205 157.407 201.466C157.87 201.727 158.099 202.508 157.918 203.21C157.737 203.912 157.214 204.27 156.751 204.009C156.287 203.748 156.058 202.967 156.239 202.265Z" fill="white"/>
<path d="M186.019 219.034C186.2 218.332 186.722 217.974 187.186 218.235C187.649 218.496 187.878 219.277 187.697 219.979C187.516 220.681 186.993 221.039 186.53 220.778C186.066 220.517 185.838 219.736 186.019 219.034Z" fill="white"/>
<path d="M144.592 136.854C144.727 136.327 145.119 136.059 145.466 136.255C145.814 136.451 145.985 137.036 145.849 137.562C145.714 138.089 145.322 138.357 144.975 138.161C144.627 137.966 144.456 137.38 144.592 136.854Z" fill="white"/>
<path opacity="0.3" d="M172.628 142.993C172.809 142.291 173.332 141.933 173.795 142.194C174.259 142.455 174.488 143.236 174.307 143.938C174.125 144.64 173.603 144.998 173.139 144.737C172.676 144.476 172.447 143.695 172.628 142.993Z" fill="white"/>
<path opacity="0.3" d="M126.747 25.4995C126.928 24.7974 127.451 24.4399 127.914 24.701C128.378 24.9621 128.607 25.7429 128.426 26.445C128.245 27.1471 127.722 27.5046 127.258 27.2435C126.795 26.9824 126.566 26.2016 126.747 25.4995Z" fill="white"/>
<path opacity="0.3" d="M135.333 109.453C135.514 108.751 136.037 108.393 136.5 108.654C136.964 108.915 137.193 109.696 137.012 110.398C136.83 111.1 136.308 111.458 135.844 111.197C135.381 110.936 135.152 110.155 135.333 109.453Z" fill="white"/>
<path opacity="0.11" d="M164.939 96.4575C165.12 95.7554 165.642 95.3979 166.106 95.659C166.569 95.9201 166.798 96.7009 166.617 97.403C166.436 98.1051 165.913 98.4627 165.45 98.2016C164.986 97.9405 164.757 97.1596 164.939 96.4575Z" fill="white"/>
<path d="M75.4625 3.29223C75.553 2.94148 75.814 2.76286 76.0454 2.89323C76.2768 3.0236 76.3911 3.4136 76.3006 3.76435C76.2101 4.1151 75.9491 4.29373 75.7177 4.16336C75.4862 4.03299 75.372 3.64298 75.4625 3.29223Z" fill="white"/>
<path d="M29.0035 138.686C29.094 138.335 29.355 138.156 29.5864 138.287C29.8178 138.417 29.9321 138.807 29.8416 139.158C29.7511 139.509 29.4901 139.687 29.2587 139.557C29.0272 139.427 28.913 139.036 29.0035 138.686Z" fill="white"/>
<path opacity="0.11" d="M59.9898 177.287C60.0803 176.936 60.3413 176.757 60.5727 176.888C60.8042 177.018 60.9184 177.408 60.8279 177.759C60.7374 178.11 60.4764 178.288 60.245 178.158C60.0136 178.028 59.8993 177.638 59.9898 177.287Z" fill="white"/>
<path opacity="0.11" d="M32.4957 182.843C32.5862 182.493 32.8472 182.314 33.0786 182.444C33.31 182.575 33.4243 182.965 33.3338 183.316C33.2433 183.666 32.9823 183.845 32.7509 183.715C32.5194 183.584 32.4052 183.194 32.4957 182.843Z" fill="white"/>
<path opacity="0.11" d="M12.7359 147.695C12.8264 147.344 13.0874 147.166 13.3188 147.296C13.5503 147.426 13.6645 147.816 13.574 148.167C13.4835 148.518 13.2225 148.697 12.9911 148.566C12.7597 148.436 12.6454 148.046 12.7359 147.695Z" fill="white"/>
<path opacity="0.11" d="M68.5348 5.94207C68.6253 5.59132 68.8862 5.41269 69.1177 5.54306C69.3491 5.67343 69.4634 6.06344 69.3729 6.41419C69.2824 6.76494 69.0214 6.94363 68.7899 6.81325C68.5585 6.68288 68.4443 6.29282 68.5348 5.94207Z" fill="white"/>
<path opacity="0.3" d="M57.8277 131.676C57.9182 131.326 58.1792 131.147 58.4106 131.277C58.6421 131.408 58.7563 131.798 58.6658 132.149C58.5753 132.499 58.3143 132.678 58.0829 132.548C57.8515 132.417 57.7372 132.027 57.8277 131.676Z" fill="white"/>
<path d="M57.6461 3.43767C57.7366 3.08692 57.9976 2.90829 58.229 3.03867C58.4604 3.16904 58.5747 3.55904 58.4842 3.90979C58.3937 4.26054 58.1327 4.43923 57.9013 4.30886C57.6698 4.17849 57.5556 3.78842 57.6461 3.43767Z" fill="white"/>
<path opacity="0.3" d="M56.9722 64.2517C57.0627 63.901 57.3237 63.7223 57.5551 63.8527C57.7866 63.9831 57.9008 64.3731 57.8103 64.7238C57.7198 65.0746 57.4589 65.2532 57.2274 65.1228C56.996 64.9925 56.8817 64.6025 56.9722 64.2517Z" fill="white"/>
<path opacity="0.11" d="M69.5348 130.992C69.6253 130.642 69.8862 130.463 70.1177 130.593C70.3491 130.724 70.4633 131.114 70.3729 131.465C70.2824 131.815 70.0214 131.994 69.7899 131.864C69.5585 131.733 69.4443 131.343 69.5348 130.992Z" fill="white"/>
<path opacity="0.3" d="M28.4332 62.6706C28.5237 62.3198 28.7847 62.1412 29.0161 62.2716C29.2475 62.4019 29.3618 62.792 29.2713 63.1427C29.1808 63.4935 28.9198 63.6721 28.6884 63.5418C28.4569 63.4114 28.3427 63.0213 28.4332 62.6706Z" fill="white"/>
<path opacity="0.3" d="M62.5797 113.241C62.6702 112.891 62.9311 112.712 63.1626 112.842C63.394 112.973 63.5083 113.363 63.4178 113.714C63.3273 114.064 63.0663 114.243 62.8348 114.113C62.6034 113.982 62.4892 113.592 62.5797 113.241Z" fill="white"/>
<path d="M15.5701 65.9784C15.7059 65.452 16.0976 65.1839 16.445 65.3795C16.7923 65.5752 16.9638 66.1606 16.828 66.687C16.6921 67.2134 16.3005 67.4815 15.9531 67.2859C15.6058 67.0902 15.4343 66.5048 15.5701 65.9784Z" fill="white"/>
<path d="M3.4119 155.905C3.54773 155.378 3.93943 155.11 4.28678 155.306C4.63414 155.501 4.80559 156.087 4.66977 156.613C4.53394 157.14 4.14226 157.408 3.79491 157.212C3.44755 157.016 3.27607 156.431 3.4119 155.905Z" fill="white"/>
<path d="M17.4041 176.163C17.5399 175.637 17.9316 175.369 18.279 175.565C18.6263 175.76 18.7978 176.346 18.662 176.872C18.5261 177.398 18.1344 177.667 17.7871 177.471C17.4397 177.275 17.2683 176.69 17.4041 176.163Z" fill="white"/>
<path opacity="0.3" d="M25.9796 88.9326C26.1608 88.2305 26.6834 87.8729 27.1469 88.134C27.6104 88.3951 27.8393 89.176 27.6581 89.8781C27.4769 90.5802 26.9543 90.9377 26.4908 90.6766C26.0273 90.4155 25.7984 89.6347 25.9796 88.9326Z" fill="white"/>
<path opacity="0.3" d="M35.7706 153.406C35.9518 152.704 36.4744 152.346 36.9379 152.607C37.4014 152.868 37.6303 153.649 37.4491 154.351C37.268 155.053 36.7454 155.411 36.2819 155.15C35.8184 154.889 35.5895 154.108 35.7706 153.406Z" fill="white"/>
<path opacity="0.3" d="M98.6691 108.677C98.8502 107.975 99.3728 107.618 99.8363 107.879C100.3 108.14 100.529 108.921 100.348 109.623C100.166 110.325 99.6438 110.682 99.1803 110.421C98.7168 110.16 98.4879 109.379 98.6691 108.677Z" fill="white"/>
<path opacity="0.11" d="M102.632 130.55C102.813 129.848 103.336 129.49 103.799 129.751C104.263 130.012 104.492 130.793 104.31 131.495C104.129 132.197 103.607 132.555 103.143 132.294C102.68 132.033 102.451 131.252 102.632 130.55Z" fill="white"/>
<path opacity="0.3" d="M60.0773 98.75C60.2584 98.0479 60.781 97.6903 61.2445 97.9514C61.708 98.2125 61.9369 98.9934 61.7558 99.6955C61.5746 100.398 61.052 100.755 60.5885 100.494C60.125 100.233 59.8961 99.4521 60.0773 98.75Z" fill="white"/>
<path d="M70.7459 59.2786C70.8817 58.7522 71.2734 58.4841 71.6208 58.6798C71.9681 58.8754 72.1396 59.4608 72.0038 59.9872C71.8679 60.5136 71.4762 60.7818 71.1289 60.5861C70.7815 60.3905 70.6101 59.8051 70.7459 59.2786Z" fill="white"/>
</g>
</svg>
