<svg width="21" height="20" viewBox="0 0 21 20" fill="none" xmlns="http://www.w3.org/2000/svg">
<path d="M3.91249 13.2578C3.95276 13.1489 4.10668 13.1489 4.14695 13.2578L4.58411 14.4391C4.83733 15.1234 5.37687 15.6629 6.06117 15.9161L7.2426 16.3533C7.35143 16.3935 7.35143 16.5475 7.2426 16.5877L6.06117 17.0249C5.37687 17.2781 4.83733 17.8176 4.58411 18.5019L4.14695 19.6832C4.10668 19.792 3.95276 19.792 3.91249 19.6832L3.47533 18.5019C3.2221 17.8176 2.68256 17.2781 1.99826 17.0249L0.816834 16.5877C0.708004 16.5475 0.708003 16.3935 0.816834 16.3533L1.99826 15.9161C2.68256 15.6629 3.2221 15.1234 3.47533 14.4391L3.91249 13.2578Z" fill="white"/>
<path d="M12.107 0.422391C12.1607 0.277291 12.366 0.277291 12.4197 0.42239L13.4239 3.13627C14.0992 4.96105 15.538 6.39976 17.3628 7.07496L20.0769 8.07922C20.222 8.13291 20.222 8.33815 20.0769 8.39184L17.3628 9.3961C15.538 10.0713 14.0992 11.51 13.4239 13.3348L12.4197 16.0487C12.366 16.1938 12.1607 16.1938 12.107 16.0487L11.1028 13.3348C10.4275 11.51 8.98872 10.0713 7.16392 9.3961L4.44979 8.39184C4.30468 8.33815 4.30468 8.13291 4.44979 8.07922L7.16391 7.07496C8.98872 6.39976 10.4275 4.96105 11.1028 3.13627L12.107 0.422391Z" fill="white"/>
</svg>
