<svg width="40" height="40" viewBox="0 0 40 40" fill="none" xmlns="http://www.w3.org/2000/svg">
<path d="M13.75 26.25C15.1307 26.25 16.25 25.1307 16.25 23.75C16.25 22.3693 15.1307 21.25 13.75 21.25C12.3693 21.25 11.25 22.3693 11.25 23.75C11.25 25.1307 12.3693 26.25 13.75 26.25Z" fill="currentColor"/>
<path d="M25 7.5V3.75C25 2.375 23.875 1.25 22.5 1.25H17.5C16.125 1.25 15 2.375 15 3.75V7.5H13.75V12.5C13.75 13.1875 14.3125 13.75 15 13.75H25C25.6875 13.75 26.25 13.1875 26.25 12.5V7.5H25ZM22.5 8.75H17.5V3.75H22.5V8.75Z" fill="currentColor"/>
<path d="M35 7.5H28.75V12.5C28.75 14.5625 27.0625 16.25 25 16.25H15C12.9375 16.25 11.25 14.5625 11.25 12.5V7.5H5C2.9375 7.5 1.25 9.1875 1.25 11.25V35C1.25 37.0625 2.9375 38.75 5 38.75H35C37.0625 38.75 38.75 37.0625 38.75 35V11.25C38.75 9.1875 37.0625 7.5 35 7.5ZM20.6125 33.5875C20.0308 33.9026 19.248 33.7275 18.9125 33.1125C17.8375 31.1875 15.8625 30 13.75 30C11.6375 30 9.6625 31.1875 8.5875 33.1125C8.2625 33.7125 7.5 33.925 6.8875 33.5875C6.2875 33.2625 6.075 32.5 6.4125 31.8875C7.4625 30.0125 9.15 28.6375 11.0875 27.9625C9.6875 27.075 8.75 25.525 8.75 23.75C8.75 20.9875 10.9875 18.75 13.75 18.75C16.5125 18.75 18.75 20.9875 18.75 23.75C18.75 25.525 17.8125 27.075 16.4125 27.9625C18.35 28.6375 20.0375 30.0125 21.0875 31.8875C21.425 32.5 21.2125 33.2625 20.6125 33.5875ZM32.5 32.5H26.25C25.5625 32.5 25 31.9375 25 31.25C25 30.5625 25.5625 30 26.25 30H32.5C33.1875 30 33.75 30.5625 33.75 31.25C33.75 31.9375 33.1875 32.5 32.5 32.5ZM32.5 27.5H25C24.3125 27.5 23.75 26.9375 23.75 26.25C23.75 25.5625 24.3125 25 25 25H32.5C33.1875 25 33.75 25.5625 33.75 26.25C33.75 26.9375 33.1875 27.5 32.5 27.5ZM32.5 22.5H23.75C23.0625 22.5 22.5 21.9375 22.5 21.25C22.5 20.5625 23.0625 20 23.75 20H32.5C33.1875 20 33.75 20.5625 33.75 21.25C33.75 21.9375 33.1875 22.5 32.5 22.5Z" fill="currentColor"/>
</svg>
