<svg width="41" height="40" viewBox="0 0 41 40" fill="none" xmlns="http://www.w3.org/2000/svg">
<path d="M21.302 10.37V13.56C21.302 15.88 19.422 17.76 17.102 17.76H13.542C12.992 17.76 12.542 18.2 12.542 18.76V19.58C12.542 20.13 12.992 20.58 13.542 20.58H15.802C16.192 20.58 16.512 20.89 16.512 21.29C16.512 21.68 16.192 22 15.802 22H7.86203C7.47203 22 7.15203 21.68 7.15203 21.29C7.15203 20.89 7.47203 20.58 7.86203 20.58H10.122C10.672 20.58 11.122 20.13 11.122 19.58V18.76C11.122 18.2 10.672 17.76 10.122 17.76H6.52203C4.21203 17.76 2.33203 15.88 2.33203 13.56V7.19C2.33203 4.88 4.21203 3 6.52203 3H10.832C11.382 3 11.832 3.45 11.832 4V6.15C11.832 8.08 13.122 9.37 15.042 9.37H20.302C20.852 9.37 21.302 9.82 21.302 10.37Z" fill="currentColor"/>
<path d="M22.322 2.36011L21.192 3.15011V2.73011C21.192 1.78011 20.422 1.02011 19.482 1.02011H15.202C14.172 1.01011 13.332 1.85011 13.332 2.88011V6.16011C13.332 7.02011 13.762 7.87011 15.042 7.87011H19.472C20.422 7.87011 21.182 7.10011 21.182 6.16011V5.73011L22.312 6.52011C22.882 6.91011 23.332 6.67011 23.332 5.99011V2.89011C23.332 2.21011 22.882 1.98011 22.322 2.36011Z" fill="currentColor"/>
</svg>
