<svg xmlns="http://www.w3.org/2000/svg" width="20" height="20" viewBox="0 0 20 20" fill="none">
    <path d="M15.0833 9.99984C15.0833 12.8073 12.8074 15.0832 9.99996 15.0832C7.19251 15.0832 4.91663 12.8073 4.91663 9.99984C4.91663 7.19239 7.19251 4.9165 9.99996 4.9165C12.8074 4.9165 15.0833 7.19239 15.0833 9.99984Z" fill="currentColor" stroke="currentColor" stroke-width="1.5"/>
    <path d="M4.00797 4.12316L3.99852 4.11298L3.9887 4.10317C3.9566 4.07106 3.9566 4.02093 3.9887 3.98883C4.02081 3.95672 4.07094 3.95672 4.10304 3.98883L4.21138 4.09716C4.24348 4.12927 4.24348 4.17939 4.21138 4.2115L4.20458 4.2183L4.19796 4.22527C4.19385 4.22959 4.18821 4.23374 4.18033 4.23702C4.17173 4.2406 4.16352 4.24183 4.15837 4.24183C4.14251 4.24183 4.12111 4.23793 4.09434 4.21617L4.00797 4.12316ZM10 18.3835C9.95847 18.3835 9.93554 18.3687 9.92658 18.3602C9.92205 18.3559 9.92018 18.3526 9.9193 18.3506C9.91868 18.3492 9.91671 18.3445 9.91671 18.3335V18.2668C9.91671 18.2462 9.92445 18.226 9.94183 18.2086C9.95921 18.1912 9.97946 18.1835 10 18.1835C10.0206 18.1835 10.0409 18.1912 10.0583 18.2086C10.0756 18.226 10.0834 18.2462 10.0834 18.2668C10.0834 18.2919 10.0718 18.327 10.0442 18.3561C10.018 18.3838 10.0001 18.3835 10 18.3835ZM15.8947 4.21983L16.425 4.75016L15.8947 4.21983C15.8858 4.2287 15.8777 4.23359 15.8704 4.23656C15.863 4.23962 15.8536 4.24183 15.8417 4.24183C15.8253 4.24183 15.803 4.23767 15.775 4.21399C15.7484 4.18189 15.7501 4.13571 15.7804 4.10549L15.8887 3.99716L15.3584 3.46683L15.8887 3.99716C15.9208 3.96505 15.9709 3.96505 16.003 3.99716C16.0352 4.02927 16.0352 4.07939 16.003 4.1115L15.8947 4.21983ZM15.95 16.0335C15.9329 16.0335 15.9093 16.0289 15.8794 16.0022L15.7804 15.9032C15.7483 15.8711 15.7483 15.8209 15.7804 15.7888C15.8125 15.7567 15.8626 15.7567 15.8947 15.7888L16.003 15.8972C16.0352 15.9293 16.0352 15.9794 16.003 16.0115C15.9942 16.0204 15.986 16.0253 15.9788 16.0282C15.9713 16.0313 15.9619 16.0335 15.95 16.0335ZM4.05004 16.0335C4.03366 16.0335 4.01138 16.0293 3.98338 16.0057C3.95671 15.9736 3.95848 15.9274 3.9887 15.8972L3.45837 15.3668L3.98871 15.8972L4.09704 15.7888C4.12914 15.7567 4.17927 15.7567 4.21138 15.7888C4.24348 15.8209 4.24348 15.8711 4.21138 15.9032L4.10304 16.0115C4.09822 16.0163 4.09 16.0224 4.07818 16.0272C4.06589 16.0322 4.05536 16.0335 4.05004 16.0335ZM18.3334 10.0835H18.2667C18.2461 10.0835 18.2259 10.0758 18.2085 10.0584C18.1911 10.041 18.1834 10.0207 18.1834 10.0002C18.1834 9.97958 18.1911 9.95933 18.2085 9.94195C18.2259 9.92457 18.2461 9.91683 18.2667 9.91683C18.2918 9.91683 18.3269 9.92838 18.356 9.95599C18.3837 9.98221 18.3834 10.0001 18.3834 10.0002C18.3834 10.0417 18.3686 10.0647 18.3601 10.0736C18.3558 10.0782 18.3525 10.08 18.3505 10.0809C18.3491 10.0815 18.3444 10.0835 18.3334 10.0835ZM1.73337 10.0835H1.66671C1.64612 10.0835 1.62587 10.0758 1.6085 10.0584C1.59112 10.041 1.58337 10.0207 1.58337 10.0002C1.58337 9.97958 1.59112 9.95933 1.6085 9.94195C1.62587 9.92457 1.64612 9.91683 1.66671 9.91683C1.69177 9.91683 1.72687 9.92838 1.75601 9.95599C1.78367 9.98221 1.78337 10.0001 1.78337 10.0002C1.78337 10.0417 1.76856 10.0647 1.76009 10.0736C1.75582 10.0782 1.75248 10.08 1.75049 10.0809C1.74907 10.0815 1.74437 10.0835 1.73337 10.0835ZM10 1.7835C9.95847 1.7835 9.93554 1.76868 9.92658 1.76022C9.92205 1.75594 9.92018 1.7526 9.9193 1.75061C9.91868 1.7492 9.91671 1.74449 9.91671 1.7335V1.66683C9.91671 1.64625 9.92445 1.626 9.94183 1.60862C9.95921 1.59124 9.97946 1.5835 10 1.5835C10.0206 1.5835 10.0409 1.59124 10.0583 1.60862C10.0756 1.626 10.0834 1.64625 10.0834 1.66683C10.0834 1.6919 10.0718 1.727 10.0442 1.75613C10.018 1.78379 10.0001 1.7835 10 1.7835Z" fill="currentColor" stroke="currentColor" stroke-width="1.5"/>
</svg>