<svg width="40" height="40" viewBox="0 0 40 40" fill="none" xmlns="http://www.w3.org/2000/svg">
<g clip-path="url(#clip0_1539_25234)">
<path d="M38.2477 16.2555C37.7625 8.08828 30.9648 1.59375 22.6781 1.59375H17.3219C9.03516 1.59375 2.2375 8.08828 1.75234 16.2555C0.722656 16.6992 0 17.725 0 18.9156V24.957C0 26.5539 1.29922 27.8531 2.89609 27.8531H5.23984V16.0195H4.11953C4.71484 9.25859 10.4086 3.9375 17.3219 3.9375H22.6781C29.5914 3.9375 35.2852 9.25859 35.8805 16.0195H34.7602V27.8531H37.1039C38.7008 27.8531 40 26.5539 40 24.957V18.9156C40 17.725 39.2773 16.6992 38.2477 16.2555Z" fill="currentColor"/>
<path d="M29.207 12.3516H10.7898C9.02109 12.3516 7.58203 13.7906 7.58203 15.5594V30.1594C7.58203 31.9281 9.02109 33.3672 10.7898 33.3672H14.8062L18.7125 37.9906C18.9352 38.2539 19.2625 38.4062 19.6078 38.4062C19.9531 38.4062 20.2805 38.2539 20.5031 37.9906L24.4094 33.3672H29.207C30.9758 33.3672 32.4148 31.9281 32.4148 30.1594V15.5594C32.4148 13.7906 30.9758 12.3516 29.207 12.3516ZM24.2812 18.2203C24.9281 18.2203 25.4531 18.7445 25.4531 19.3922C25.4531 20.0391 24.9281 20.5641 24.2812 20.5641C23.6344 20.5641 23.1094 20.0391 23.1094 19.3922C23.1094 18.7445 23.6344 18.2203 24.2812 18.2203ZM15.2195 18.2203C15.8664 18.2203 16.3914 18.7445 16.3914 19.3922C16.3914 20.0391 15.8664 20.5641 15.2195 20.5641C14.5727 20.5641 14.0477 20.0391 14.0477 19.3922C14.0477 18.7445 14.5727 18.2203 15.2195 18.2203ZM25.8398 25.3297C24.0383 26.9273 22.018 27.7266 19.9984 27.7266C17.9781 27.7266 15.9586 26.9281 14.157 25.3297C13.6727 24.9008 13.6281 24.1602 14.0578 23.6758C14.4875 23.1914 15.2281 23.1469 15.7125 23.5766C17.0742 24.7844 18.5359 25.3883 19.9984 25.3883C21.4609 25.3883 22.9234 24.7844 24.2852 23.5766C24.7687 23.1469 25.5094 23.1914 25.9391 23.6758C26.3687 24.1602 26.3242 24.9008 25.8398 25.3297Z" fill="currentColor"/>
</g>
<defs>
<clipPath id="clip0_1539_25234">
<rect width="40" height="40" fill="currentColor"/>
</clipPath>
</defs>
</svg>
