<svg width="40" height="40" viewBox="0 0 40 40" fill="none" xmlns="http://www.w3.org/2000/svg">
<g clip-path="url(#clip0_1539_14692)">
<path d="M12.7516 34.8501C12.7016 34.8501 12.6349 34.8834 12.5849 34.8834C9.35156 33.2834 6.71823 30.6334 5.10156 27.4001C5.10156 27.3501 5.1349 27.2834 5.1349 27.2334C7.16823 27.8334 9.26823 28.2834 11.3516 28.6334C11.7182 30.7334 12.1516 32.8167 12.7516 34.8501Z" fill="currentColor"/>
<path d="M34.8984 27.4167C33.2484 30.7334 30.4984 33.4167 27.1484 35.0334C27.7818 32.9167 28.3151 30.7834 28.6651 28.6334C30.7651 28.2834 32.8318 27.8334 34.8651 27.2334C34.8484 27.3001 34.8984 27.3667 34.8984 27.4167Z" fill="currentColor"/>
<path d="M35.0318 12.8501C32.9318 12.2168 30.8151 11.7001 28.6651 11.3335C28.3151 9.18346 27.7984 7.05013 27.1484 4.9668C30.5984 6.6168 33.3818 9.40013 35.0318 12.8501Z" fill="currentColor"/>
<path d="M12.7482 5.1501C12.1482 7.18343 11.7148 9.2501 11.3648 11.3501C9.21484 11.6834 7.08151 12.2168 4.96484 12.8501C6.58151 9.5001 9.26484 6.7501 12.5815 5.1001C12.6315 5.1001 12.6982 5.1501 12.7482 5.1501Z" fill="currentColor"/>
<path d="M25.8169 10.9835C21.9503 10.5502 18.0503 10.5502 14.1836 10.9835C14.6003 8.70016 15.1336 6.41683 15.8836 4.21683C15.9169 4.0835 15.9003 3.9835 15.9169 3.85016C17.2336 3.5335 18.5836 3.3335 20.0003 3.3335C21.4003 3.3335 22.7669 3.5335 24.0669 3.85016C24.0836 3.9835 24.0836 4.0835 24.1169 4.21683C24.8669 6.4335 25.4003 8.70016 25.8169 10.9835Z" fill="currentColor"/>
<path d="M10.982 25.8164C8.68203 25.3998 6.41536 24.8664 4.21536 24.1164C4.08203 24.0831 3.98203 24.0998 3.8487 24.0831C3.53203 22.7664 3.33203 21.4164 3.33203 19.9998C3.33203 18.5998 3.53203 17.2331 3.8487 15.9331C3.98203 15.9164 4.08203 15.9164 4.21536 15.8831C6.43203 15.1498 8.68203 14.5998 10.982 14.1831C10.5654 18.0498 10.5654 21.9498 10.982 25.8164Z" fill="currentColor"/>
<path d="M36.6656 19.9998C36.6656 21.4164 36.4656 22.7664 36.149 24.0831C36.0156 24.0998 35.9156 24.0831 35.7823 24.1164C33.5656 24.8498 31.299 25.3998 29.0156 25.8164C29.449 21.9498 29.449 18.0498 29.0156 14.1831C31.299 14.5998 33.5823 15.1331 35.7823 15.8831C35.9156 15.9164 36.0156 15.9331 36.149 15.9331C36.4656 17.2498 36.6656 18.5998 36.6656 19.9998Z" fill="currentColor"/>
<path d="M25.8169 29.0166C25.4003 31.3166 24.8669 33.5833 24.1169 35.7833C24.0836 35.9166 24.0836 36.0166 24.0669 36.1499C22.7669 36.4666 21.4003 36.6666 20.0003 36.6666C18.5836 36.6666 17.2336 36.4666 15.9169 36.1499C15.9003 36.0166 15.9169 35.9166 15.8836 35.7833C15.1503 33.5666 14.6003 31.3166 14.1836 29.0166C16.1169 29.2333 18.0503 29.3833 20.0003 29.3833C21.9503 29.3833 23.9003 29.2333 25.8169 29.0166Z" fill="currentColor"/>
<path d="M26.2709 26.2724C22.1024 26.7983 17.895 26.7983 13.7265 26.2724C13.2005 22.1039 13.2005 17.8964 13.7265 13.7279C17.895 13.202 22.1024 13.202 26.2709 13.7279C26.7968 17.8964 26.7968 22.1039 26.2709 26.2724Z" fill="currentColor"/>
</g>
<defs>
<clipPath id="clip0_1539_14692">
<rect width="40" height="40" fill="currentColor"/>
</clipPath>
</defs>
</svg>
