<svg width="35" height="38" viewBox="0 0 35 38" fill="none" xmlns="http://www.w3.org/2000/svg">
<path d="M20.7391 35.375H14.6016C13.9803 35.375 13.4766 35.8787 13.4766 36.5C13.4766 37.1213 13.9803 37.625 14.6016 37.625H20.7391C21.3603 37.625 21.8641 37.1213 21.8641 36.5C21.8641 35.8787 21.3603 35.375 20.7391 35.375Z" fill="currentColor"/>
<path d="M17.6641 4.8275C18.2853 4.8275 18.7891 4.32375 18.7891 3.7025V1.5C18.7891 0.87875 18.2853 0.375 17.6641 0.375C17.0428 0.375 16.5391 0.87875 16.5391 1.5V3.7025C16.5391 4.32375 17.0428 4.8275 17.6641 4.8275Z" fill="currentColor"/>
<path d="M33.6869 15.1362H31.4844C30.8631 15.1362 30.3594 15.64 30.3594 16.2612C30.3594 16.8825 30.8631 17.3862 31.4844 17.3862H33.6869C34.3081 17.3862 34.8119 16.8825 34.8119 16.2612C34.8119 15.64 34.3094 15.1362 33.6869 15.1362Z" fill="currentColor"/>
<path d="M3.84969 15.1362H1.64844C1.02719 15.1362 0.523438 15.64 0.523438 16.2612C0.523438 16.8825 1.02719 17.3862 1.64844 17.3862H3.85094C4.47219 17.3862 4.97594 16.8825 4.97594 16.2612C4.97594 15.64 4.47094 15.1362 3.84969 15.1362Z" fill="currentColor"/>
<path d="M7.98906 8.17602C8.20906 8.39602 8.49656 8.50602 8.78531 8.50602C9.07406 8.50602 9.36156 8.39602 9.58156 8.17602C10.0216 7.73727 10.0216 7.02477 9.58156 6.58602L8.02281 5.02727C7.58281 4.58727 6.87031 4.58727 6.43156 5.02727C5.99156 5.46602 5.99156 6.17852 6.43156 6.61727L7.98906 8.17602Z" fill="currentColor"/>
<path d="M27.3094 5.0273L25.7519 6.5848C25.3119 7.02355 25.3119 7.73605 25.7519 8.1748C25.9719 8.3948 26.2594 8.5048 26.5481 8.5048C26.8369 8.5048 27.1244 8.3948 27.3444 8.1748L28.9019 6.6173C29.3419 6.17855 29.3419 5.46605 28.9019 5.0273C28.4619 4.58855 27.7481 4.58855 27.3094 5.0273Z" fill="currentColor"/>
<path d="M17.6637 8.30226C12.0075 8.29351 7.40625 12.8935 7.40625 18.5598C7.40625 21.2873 8.47625 23.7685 10.2263 25.5998C11.3875 26.816 12.1087 28.3848 12.1087 30.066V31.0248C12.1087 31.7148 12.6687 32.2748 13.3587 32.2748H17.6637H21.9688C22.6587 32.2748 23.2188 31.7148 23.2188 31.0248V30.066C23.2188 28.3848 23.9387 26.816 25.1012 25.5998C26.85 23.7685 27.9212 21.2885 27.9212 18.5598C27.9212 12.8935 23.32 8.29226 17.6637 8.30226ZM16.6575 14.5473C15.19 14.9123 14.01 16.0985 13.65 17.5698C13.5237 18.0835 13.0638 18.4285 12.5588 18.4285C12.47 18.4285 12.3787 18.4173 12.29 18.396C11.6863 18.2485 11.3175 17.6398 11.465 17.036C12.03 14.7273 13.8113 12.9373 16.1138 12.3635C16.7163 12.216 17.3287 12.5798 17.4775 13.1835C17.6275 13.7873 17.26 14.3973 16.6575 14.5473Z" fill="currentColor"/>
</svg>
