<svg width="40" height="40" viewBox="0 0 40 40" fill="none" xmlns="http://www.w3.org/2000/svg">
<path d="M15.6175 11.6062C13.1794 14.0443 13.1618 17.9795 15.5781 20.3959C17.9944 22.8122 21.9297 22.7945 24.3677 20.3565C26.8058 17.9184 26.8234 13.9832 24.4071 11.5669C21.9908 9.15054 18.0555 9.16823 15.6175 11.6062Z" fill="currentColor"/>
<path d="M18.747 30.1448C17.695 30.7359 16.4321 30.861 15.2845 30.4876C14.1371 30.1153 13.19 29.2725 12.6865 28.1771C12.5281 27.8322 12.2837 27.5439 12 27.3047V36.432C12 36.8579 12.4747 37.1119 12.8292 36.8757L15.9513 34.7947C16.2499 34.5958 16.6388 34.5958 16.9372 34.7947L20.0594 36.8757C20.4137 37.1119 20.8885 36.8579 20.8885 36.432V30.0001C20.19 29.7411 19.4043 29.777 18.747 30.1448Z" fill="currentColor"/>
<path d="M27.3144 28.176C26.81 29.2722 25.863 30.1151 24.7148 30.4884C24.2798 30.6299 23.8285 30.6995 23.378 30.6995C23.1389 30.6995 22.904 30.6481 22.668 30.6088V33.4896C22.668 33.7199 22.8053 33.9209 23.0241 33.9927C23.8973 34.2799 26.1565 35.0237 27.307 35.4102C27.6525 35.5262 28.0019 35.2665 28.0017 34.9017L28.0009 27.3047C27.717 27.5437 27.4728 27.8315 27.3144 28.176Z" fill="currentColor"/>
<path d="M32.6586 14.1014C31.5519 13.0788 31.0503 11.5348 31.3428 10.0662C31.485 9.35105 31.328 8.63998 30.9035 8.05582C30.48 7.47247 29.8515 7.10448 29.1345 7.02033C27.6389 6.84413 26.3238 5.8885 25.6981 4.52571C25.396 3.8687 24.851 3.38424 24.1645 3.16112C23.477 2.93805 22.7514 3.00931 22.122 3.3634C20.8131 4.09676 19.1863 4.09856 17.8773 3.3642C17.4876 3.14543 17.0605 3.0345 16.63 3.0345C16.3635 3.0345 16.0963 3.07623 15.8341 3.16117C15.1476 3.38429 14.6033 3.86855 14.302 4.52471C13.6753 5.8883 12.3602 6.84393 10.87 7.01933C10.1478 7.10448 9.51925 7.47251 9.0958 8.05562C8.6713 8.63897 8.5143 9.35065 8.65491 10.059C8.94824 11.5356 8.44653 13.0788 7.34764 14.0944C6.81116 14.591 6.51953 15.2576 6.51953 15.9789C6.51953 16.701 6.81121 17.3677 7.34069 17.8573C8.44658 18.8798 8.94824 20.424 8.65656 21.8917C8.51409 22.6079 8.6705 23.3188 9.0948 23.9021C9.5193 24.4862 10.1477 24.8543 10.8647 24.9384C10.9437 24.9478 11.0149 24.9824 11.0927 24.9959C11.0992 24.9959 11.1046 24.9922 11.1111 24.9922C11.2605 24.9922 11.3952 25.0382 11.5186 25.1033C12.7318 25.4459 13.7699 26.2766 14.301 27.433C14.6031 28.09 15.1474 28.5744 15.8339 28.7976C16.5222 29.0207 17.247 28.9486 17.8764 28.5953C19.1836 27.8601 20.8102 27.8593 22.121 28.5945C22.7494 28.9478 23.476 29.0207 24.1643 28.7975C24.8508 28.5744 25.396 28.0901 25.6979 27.4329C26.2223 26.2916 27.2403 25.467 28.4293 25.116C28.5653 25.0318 28.7163 24.9705 28.8878 24.9705C28.9112 24.9705 28.9304 24.9819 28.9533 24.9838C29.0135 24.9739 29.0684 24.9465 29.1291 24.9393C29.8512 24.8542 30.4788 24.4862 30.9033 23.903C31.3106 23.3424 31.4708 22.6654 31.3597 21.9859C31.1133 20.4786 31.442 18.9388 32.5835 17.9242L32.6584 17.8577C33.1879 17.3681 33.4795 16.7015 33.4795 15.9793C33.4798 15.2576 33.1881 14.591 32.6586 14.1014ZM27.7113 18.1518C27.0029 20.8224 24.8432 22.982 22.1727 23.6904C16.093 25.3031 10.6753 19.8854 12.2882 13.8059C12.9966 11.1354 15.1562 8.97567 17.8268 8.26724C23.9066 6.65435 29.3242 12.0722 27.7113 18.1518Z" fill="currentColor"/>
</svg>
