<svg width="36" height="38" viewBox="0 0 36 38" fill="none" xmlns="http://www.w3.org/2000/svg">
<path d="M21.075 35.375H14.9375C14.3162 35.375 13.8125 35.8787 13.8125 36.5C13.8125 37.1213 14.3162 37.625 14.9375 37.625H21.075C21.6962 37.625 22.2 37.1213 22.2 36.5C22.2 35.8787 21.6962 35.375 21.075 35.375Z" fill="currentColor"/>
<path d="M18 4.8275C18.6213 4.8275 19.125 4.32375 19.125 3.7025V1.5C19.125 0.87875 18.6213 0.375 18 0.375C17.3787 0.375 16.875 0.87875 16.875 1.5V3.7025C16.875 4.32375 17.3787 4.8275 18 4.8275Z" fill="currentColor"/>
<path d="M34.0228 15.1362H31.8203C31.1991 15.1362 30.6953 15.64 30.6953 16.2612C30.6953 16.8825 31.1991 17.3862 31.8203 17.3862H34.0228C34.6441 17.3862 35.1478 16.8825 35.1478 16.2612C35.1478 15.64 34.6453 15.1362 34.0228 15.1362Z" fill="currentColor"/>
<path d="M4.18563 15.1362H1.98437C1.36312 15.1362 0.859375 15.64 0.859375 16.2612C0.859375 16.8825 1.36312 17.3862 1.98437 17.3862H4.18688C4.80813 17.3862 5.31188 16.8825 5.31188 16.2612C5.31188 15.64 4.80688 15.1362 4.18563 15.1362Z" fill="currentColor"/>
<path d="M8.325 8.17602C8.545 8.39602 8.8325 8.50602 9.12125 8.50602C9.41 8.50602 9.6975 8.39602 9.9175 8.17602C10.3575 7.73727 10.3575 7.02477 9.9175 6.58602L8.35875 5.02727C7.91875 4.58727 7.20625 4.58727 6.7675 5.02727C6.3275 5.46602 6.3275 6.17852 6.7675 6.61727L8.325 8.17602Z" fill="currentColor"/>
<path d="M27.6453 5.0273L26.0878 6.5848C25.6478 7.02355 25.6478 7.73605 26.0878 8.1748C26.3078 8.3948 26.5953 8.5048 26.8841 8.5048C27.1728 8.5048 27.4603 8.3948 27.6803 8.1748L29.2378 6.6173C29.6778 6.17855 29.6778 5.46605 29.2378 5.0273C28.7978 4.58855 28.0841 4.58855 27.6453 5.0273Z" fill="currentColor"/>
<path d="M17.9997 8.30226C12.3434 8.29351 7.74219 12.8935 7.74219 18.5598C7.74219 21.2873 8.81219 23.7685 10.5622 25.5998C11.7234 26.816 12.4447 28.3848 12.4447 30.066V31.0248C12.4447 31.7148 13.0047 32.2748 13.6947 32.2748H17.9997H22.3047C22.9947 32.2748 23.5547 31.7148 23.5547 31.0248V30.066C23.5547 28.3848 24.2747 26.816 25.4372 25.5998C27.1859 23.7685 28.2572 21.2885 28.2572 18.5598C28.2572 12.8935 23.6559 8.29226 17.9997 8.30226ZM16.9934 14.5473C15.5259 14.9123 14.3459 16.0985 13.9859 17.5698C13.8597 18.0835 13.3997 18.4285 12.8947 18.4285C12.8059 18.4285 12.7147 18.4173 12.6259 18.396C12.0222 18.2485 11.6534 17.6398 11.8009 17.036C12.3659 14.7273 14.1472 12.9373 16.4497 12.3635C17.0522 12.216 17.6647 12.5798 17.8134 13.1835C17.9634 13.7873 17.5959 14.3973 16.9934 14.5473Z" fill="currentColor"/>
</svg>
