<svg width="40" height="40" viewBox="0 0 40 40" fill="none" xmlns="http://www.w3.org/2000/svg">
<path d="M31.4252 24.5713H8.56808C4.78511 24.5713 1.71094 27.6455 1.71094 31.4284C1.71094 35.2114 4.78511 38.2856 8.56808 38.2856H31.4252C35.2082 38.2856 38.2824 35.2114 38.2824 31.4284C38.2824 27.6455 35.2082 24.5713 31.4252 24.5713ZM26.2824 33.1427C25.3337 33.1427 24.5681 32.3768 24.5681 31.4284C24.5681 30.4797 25.3337 29.7141 26.2824 29.7141C27.2305 29.7141 27.9967 30.4797 27.9967 31.4284C27.9967 32.3768 27.2305 33.1427 26.2824 33.1427ZM31.4252 33.1427C30.4765 33.1427 29.7109 32.3768 29.7109 31.4284C29.7109 30.4797 30.4765 29.7141 31.4252 29.7141C32.3733 29.7141 33.1395 30.4797 33.1395 31.4284C33.1395 32.3768 32.3733 33.1427 31.4252 33.1427Z" fill="currentColor"/>
<path d="M22.8509 1.71436H15.9937C15.045 1.71436 14.2794 2.47996 14.2794 3.42864V10.2858H10.2794C9.58184 10.2858 8.95349 10.7085 8.69075 11.3485C8.42801 11.9885 8.57635 12.72 9.06801 13.2115L18.2109 22.3544C18.5423 22.6857 18.9765 22.8572 19.4223 22.8572C19.8565 22.8572 20.2906 22.6857 20.6338 22.3545L29.7767 13.2116C30.2678 12.72 30.405 11.9886 30.1422 11.3486C29.8793 10.7086 29.251 10.2858 28.5652 10.2858H24.5652V3.42864C24.5652 2.47996 23.7878 1.71436 22.8509 1.71436Z" fill="currentColor"/>
</svg>
