<svg width="40" height="40" viewBox="0 0 40 40" fill="none" xmlns="http://www.w3.org/2000/svg">
<g clip-path="url(#clip0_1539_48443)">
<path d="M6.66667 29.9998C10.3486 29.9998 13.3333 27.0151 13.3333 23.3332C13.3333 19.6513 10.3486 16.6665 6.66667 16.6665C2.98477 16.6665 0 19.6513 0 23.3332C0 27.0151 2.98477 29.9998 6.66667 29.9998Z" fill="currentColor"/>
<path d="M38.3307 18.3335H28.3307C27.4103 18.3335 26.6641 19.0797 26.6641 20.0002V30.0002C26.6641 30.9206 27.4103 31.6668 28.3307 31.6668H38.3307C39.2512 31.6668 39.9974 30.9206 39.9974 30.0002V20.0002C39.9974 19.0797 39.2512 18.3335 38.3307 18.3335Z" fill="currentColor"/>
<path d="M16.0417 11.6667H26.0417C26.3366 11.6667 26.6263 11.5884 26.8811 11.4399C27.1359 11.2913 27.3467 11.0779 27.492 10.8212C27.6374 10.5645 27.712 10.2739 27.7082 9.979C27.7045 9.68408 27.6226 9.39544 27.4709 9.14253L22.4709 0.809193C22.3228 0.562394 22.1133 0.358146 21.8629 0.216339C21.6124 0.0745323 21.3295 0 21.0417 0C20.7539 0 20.471 0.0745323 20.2205 0.216339C19.9701 0.358146 19.7606 0.562394 19.6125 0.809193L14.6125 9.14253C14.4608 9.39544 14.3789 9.68408 14.3751 9.979C14.3714 10.2739 14.446 10.5645 14.5913 10.8212C14.7367 11.0779 14.9475 11.2913 15.2023 11.4399C15.4571 11.5884 15.7467 11.6667 16.0417 11.6667Z" fill="currentColor"/>
<path d="M33.4404 13.3335H31.6679V16.6669H36.6679C37.0177 16.6668 37.3586 16.5568 37.6424 16.3522C37.9261 16.1477 38.1383 15.8591 38.249 15.5273L39.9156 10.5273L36.7535 9.47311L36.1444 11.3006C34.5306 8.3064 32.1154 5.82034 29.1692 4.12061L27.5 7.00581C30.0606 8.48339 32.1273 10.6848 33.4404 13.3335Z" fill="currentColor"/>
<path d="M20.0035 35C18.0279 35.0001 16.0716 34.6108 14.2466 33.8542L16.2947 33.269L15.3781 30.064L9.54475 31.7306C9.13333 31.8482 8.78289 32.1194 8.56598 32.4883C8.34907 32.8571 8.28231 33.2952 8.37954 33.7119L9.83787 39.9619L13.0841 39.2044L12.5075 36.7333C15.1549 37.9175 18.0453 38.4574 20.9417 38.309C23.8381 38.1605 26.6581 37.3278 29.1706 35.8792L27.5014 32.994C25.2215 34.3092 22.6356 35.0011 20.0035 35Z" fill="currentColor"/>
<path d="M2.50781 14.5002L5.68906 15.5002C6.49726 12.9252 7.98747 10.617 10.0016 8.82058V11.6668H13.3349V5.00016C13.3349 4.55814 13.1593 4.13421 12.8467 3.82165C12.5342 3.50909 12.1103 3.3335 11.6682 3.3335H5.00156V6.66683H7.4126C5.13367 8.81469 3.44475 11.512 2.50781 14.5002Z" fill="black"/>
</g>
<defs>
<clipPath id="clip0_1539_48443">
<rect width="40" height="40" fill="currentColor"/>
</clipPath>
</defs>
</svg>
