<svg width="40" height="40" viewBox="0 0 40 40" fill="none" xmlns="http://www.w3.org/2000/svg">
<g clip-path="url(#clip0_1539_26840)">
<path d="M11.2495 21.855C12.274 21.855 13.1045 21.0245 13.1045 20C13.1045 18.9755 12.274 18.145 11.2495 18.145C10.225 18.145 9.39453 18.9755 9.39453 20C9.39453 21.0245 10.225 21.855 11.2495 21.855Z" fill="currentColor"/>
<path d="M21.0486 17.3279L20.0165 17.0698C19.8794 16.6601 19.7138 16.2605 19.5209 15.874L20.0678 14.9615C20.2881 14.595 20.3794 14.1653 20.3272 13.7409C20.2749 13.3165 20.0822 12.9218 19.7796 12.6196L18.6296 11.4696C18.3276 11.1675 17.9331 10.9751 17.509 10.9231C17.085 10.8711 16.6557 10.9625 16.2896 11.1828L15.3771 11.7296C14.9906 11.5367 14.591 11.3711 14.1814 11.234L13.9233 10.2031C13.8204 9.78763 13.5812 9.41862 13.2439 9.15517C12.9065 8.89172 12.4905 8.74906 12.0625 8.75H10.4375C10.0099 8.74921 9.59437 8.89174 9.25727 9.15483C8.92018 9.41792 8.68098 9.78639 8.57788 10.2014L8.31976 11.2335C7.9101 11.3706 7.51054 11.5362 7.12401 11.7291L6.21151 11.1823C5.84503 10.962 5.41544 10.8707 4.99107 10.9228C4.5667 10.9749 4.17195 11.1674 3.86963 11.4698L2.71963 12.6198C2.41741 12.9218 2.22492 13.3162 2.17282 13.7403C2.12072 14.1644 2.212 14.5937 2.43213 14.9599L2.97901 15.8724C2.7861 16.2589 2.62048 16.6585 2.48338 17.0681L1.45251 17.3263C1.03704 17.4292 0.668111 17.6686 0.404774 18.006C0.141437 18.3434 -0.00108879 18.7595 6.26333e-06 19.1875V20.8125C-0.000675063 21.24 0.141908 21.6554 0.404988 21.9924C0.668068 22.3294 1.03647 22.5686 1.45138 22.6716L2.48351 22.9298C2.62061 23.3394 2.78622 23.739 2.97913 24.1255L2.43226 25.038C2.21188 25.4044 2.12047 25.8341 2.17257 26.2585C2.22467 26.6829 2.41729 27.0776 2.71976 27.3799L3.86976 28.5299C4.17147 28.8326 4.56597 29.0254 4.99019 29.0776C5.41441 29.1297 5.84386 29.0381 6.20988 28.8174L7.12238 28.2705C7.50891 28.4634 7.90847 28.629 8.31813 28.7661L8.57626 29.797C8.67911 30.2126 8.91842 30.5816 9.25587 30.845C9.59332 31.1085 10.0094 31.2511 10.4375 31.25H12.0625C12.49 31.2507 12.9054 31.1081 13.2424 30.845C13.5794 30.5819 13.8186 30.2135 13.9216 29.7986L14.1798 28.7665C14.5894 28.6294 14.989 28.4638 15.3755 28.2709L16.288 28.8178C16.6547 29.0374 17.0842 29.1283 17.5085 29.0761C17.9327 29.024 18.3274 28.8316 18.6299 28.5296L19.7799 27.3796C20.0821 27.0776 20.2746 26.6832 20.3267 26.2592C20.3788 25.8351 20.2875 25.4058 20.0674 25.0396L19.5205 24.1265C19.7134 23.74 19.879 23.3404 20.0161 22.9308L21.047 22.6726C21.4624 22.5698 21.8313 22.3307 22.0947 21.9935C22.3581 21.6562 22.5008 21.2404 22.5 20.8125V19.1875C22.5008 18.7599 22.3583 18.3444 22.0952 18.0073C21.8321 17.6702 21.4636 17.431 21.0486 17.3279ZM11.25 24.3555C10.3886 24.3555 9.54648 24.1001 8.83022 23.6215C8.11396 23.1429 7.55571 22.4626 7.22605 21.6668C6.89639 20.8709 6.81014 19.9952 6.9782 19.1503C7.14625 18.3054 7.56108 17.5293 8.1702 16.9202C8.77933 16.3111 9.55541 15.8963 10.4003 15.7282C11.2452 15.5601 12.1209 15.6464 12.9168 15.976C13.7126 16.3057 14.3929 16.864 14.8715 17.5802C15.3501 18.2965 15.6055 19.1386 15.6055 20C15.6042 21.1548 15.145 22.2619 14.3284 23.0784C13.5119 23.895 12.4048 24.3542 11.25 24.3555Z" fill="currentColor"/>
<path d="M37.5 0H32.5C31.1193 0 30 1.11929 30 2.5V7.5C30 8.88071 31.1193 10 32.5 10H37.5C38.8807 10 40 8.88071 40 7.5V2.5C40 1.11929 38.8807 0 37.5 0Z" fill="currentColor"/>
<path d="M37.5 15H32.5C31.1193 15 30 16.1193 30 17.5V22.5C30 23.8807 31.1193 25 32.5 25H37.5C38.8807 25 40 23.8807 40 22.5V17.5C40 16.1193 38.8807 15 37.5 15Z" fill="currentColor"/>
<path d="M37.5 30H32.5C31.1193 30 30 31.1193 30 32.5V37.5C30 38.8807 31.1193 40 32.5 40H37.5C38.8807 40 40 38.8807 40 37.5V32.5C40 31.1193 38.8807 30 37.5 30Z" fill="currentColor"/>
<path d="M31.25 21.25H21.25C20.9185 21.25 20.6005 21.1183 20.3661 20.8839C20.1317 20.6495 20 20.3315 20 20C20 19.6685 20.1317 19.3505 20.3661 19.1161C20.6005 18.8817 20.9185 18.75 21.25 18.75H31.25C31.5815 18.75 31.8995 18.8817 32.1339 19.1161C32.3683 19.3505 32.5 19.6685 32.5 20C32.5 20.3315 32.3683 20.6495 32.1339 20.8839C31.8995 21.1183 31.5815 21.25 31.25 21.25Z" fill="currentColor"/>
<path d="M26.25 21.25C25.9185 21.25 25.6005 21.1183 25.3661 20.8839C25.1317 20.6495 25 20.3315 25 20V6.25C25.0007 5.58716 25.2643 4.95166 25.733 4.48296C26.2017 4.01427 26.8372 3.75066 27.5 3.75H31.25C31.5815 3.75 31.8995 3.8817 32.1339 4.11612C32.3683 4.35054 32.5 4.66848 32.5 5C32.5 5.33152 32.3683 5.64946 32.1339 5.88388C31.8995 6.1183 31.5815 6.25 31.25 6.25H27.5V20C27.5 20.3315 27.3683 20.6495 27.1339 20.8839C26.8995 21.1183 26.5815 21.25 26.25 21.25Z" fill="currentColor"/>
<path d="M31.25 36.25H27.5C26.8372 36.2493 26.2017 35.9857 25.733 35.517C25.2643 35.0483 25.0007 34.4128 25 33.75V20C25 19.6685 25.1317 19.3505 25.3661 19.1161C25.6005 18.8817 25.9185 18.75 26.25 18.75C26.5815 18.75 26.8995 18.8817 27.1339 19.1161C27.3683 19.3505 27.5 19.6685 27.5 20V33.75H31.25C31.5815 33.75 31.8995 33.8817 32.1339 34.1161C32.3683 34.3505 32.5 34.6685 32.5 35C32.5 35.3315 32.3683 35.6495 32.1339 35.8839C31.8995 36.1183 31.5815 36.25 31.25 36.25Z" fill="currentColor"/>
</g>
<defs>
<clipPath id="clip0_1539_26840">
<rect width="40" height="40" fill="currentColor"/>
</clipPath>
</defs>
</svg>
