<svg width="40" height="38" viewBox="0 0 40 38" fill="none" xmlns="http://www.w3.org/2000/svg">
<path d="M38.2477 15.2555C37.7625 7.08828 30.9648 0.59375 22.6781 0.59375H17.3219C9.03516 0.59375 2.2375 7.08828 1.75234 15.2555C0.722656 15.6992 0 16.725 0 17.9156V23.957C0 25.5539 1.29922 26.8531 2.89609 26.8531H5.23984V15.0195H4.11953C4.71484 8.25859 10.4086 2.9375 17.3219 2.9375H22.6781C29.5914 2.9375 35.2852 8.25859 35.8805 15.0195H34.7602V26.8531H37.1039C38.7008 26.8531 40 25.5539 40 23.957V17.9156C40 16.725 39.2773 15.6992 38.2477 15.2555Z" fill="currentColor"/>
<path d="M29.2109 11.3516H10.7938C9.025 11.3516 7.58594 12.7906 7.58594 14.5594V29.1594C7.58594 30.9281 9.025 32.3672 10.7938 32.3672H14.8102L18.7164 36.9906C18.9391 37.2539 19.2664 37.4062 19.6117 37.4062C19.957 37.4062 20.2844 37.2539 20.507 36.9906L24.4133 32.3672H29.2109C30.9797 32.3672 32.4187 30.9281 32.4187 29.1594V14.5594C32.4187 12.7906 30.9797 11.3516 29.2109 11.3516ZM24.2852 17.2203C24.932 17.2203 25.457 17.7445 25.457 18.3922C25.457 19.0391 24.932 19.5641 24.2852 19.5641C23.6383 19.5641 23.1133 19.0391 23.1133 18.3922C23.1133 17.7445 23.6383 17.2203 24.2852 17.2203ZM15.2234 17.2203C15.8703 17.2203 16.3953 17.7445 16.3953 18.3922C16.3953 19.0391 15.8703 19.5641 15.2234 19.5641C14.5766 19.5641 14.0516 19.0391 14.0516 18.3922C14.0516 17.7445 14.5766 17.2203 15.2234 17.2203ZM25.8437 24.3297C24.0422 25.9273 22.0219 26.7266 20.0023 26.7266C17.982 26.7266 15.9625 25.9281 14.1609 24.3297C13.6766 23.9008 13.632 23.1602 14.0617 22.6758C14.4914 22.1914 15.232 22.1469 15.7164 22.5766C17.0781 23.7844 18.5398 24.3883 20.0023 24.3883C21.4648 24.3883 22.9273 23.7844 24.2891 22.5766C24.7727 22.1469 25.5133 22.1914 25.943 22.6758C26.3727 23.1602 26.3281 23.9008 25.8437 24.3297Z" fill="currentColor"/>
</svg>
