<svg width="41" height="40" viewBox="0 0 41 40" fill="none" xmlns="http://www.w3.org/2000/svg">
<path d="M9.58073 30.7502C9.93073 32.6835 11.6307 34.1668 13.6641 34.1668H30.3307C32.6307 34.1668 34.4974 32.3002 34.4974 30.0002V23.3335C34.4974 21.0335 32.6307 19.1668 30.3307 19.1668H29.4974V10.0002C29.4974 7.70016 27.6307 5.8335 25.3307 5.8335H10.3307C8.03073 5.8335 6.16406 7.70016 6.16406 10.0002V26.6668C6.16406 28.7002 7.63073 30.4002 9.58073 30.7502ZM11.9974 10.8335H23.6641C24.1307 10.8335 24.4974 11.2002 24.4974 11.6668C24.4974 12.1335 24.1307 12.5002 23.6641 12.5002H11.9974C11.5307 12.5002 11.1641 12.1335 11.1641 11.6668C11.1641 11.2002 11.5307 10.8335 11.9974 10.8335ZM11.9974 15.0002H21.9974C22.4641 15.0002 22.8307 15.3668 22.8307 15.8335C22.8307 16.3002 22.4641 16.6668 21.9974 16.6668H11.9974C11.5307 16.6668 11.1641 16.3002 11.1641 15.8335C11.1641 15.3668 11.5307 15.0002 11.9974 15.0002ZM11.1641 23.3335C11.1641 21.9502 12.2807 20.8335 13.6641 20.8335H25.3307C25.7974 20.8335 26.1641 20.4668 26.1641 20.0002V18.6835L28.0807 20.6002C28.2474 20.7668 28.4474 20.8502 28.6641 20.8502H30.3307C31.7141 20.8502 32.8307 21.9668 32.8307 23.3502V30.0168C32.8307 31.4002 31.7141 32.5168 30.3307 32.5168H13.6641C12.2807 32.5168 11.1641 31.4002 11.1641 30.0168V23.3502V23.3335Z" fill="currentColor"/>
<path d="M15.3333 29.1665C15.8 29.1665 16.1667 28.7998 16.1667 28.3332V24.9998C16.1667 24.5332 15.8 24.1665 15.3333 24.1665C14.8667 24.1665 14.5 24.5332 14.5 24.9998V28.3332C14.5 28.7998 14.8667 29.1665 15.3333 29.1665Z" fill="currentColor"/>
<path d="M18.6654 30.8333C19.132 30.8333 19.4987 30.4667 19.4987 30V23.3333C19.4987 22.8667 19.132 22.5 18.6654 22.5C18.1987 22.5 17.832 22.8667 17.832 23.3333V30C17.832 30.4667 18.1987 30.8333 18.6654 30.8333Z" fill="currentColor"/>
<path d="M25.3333 30.8333C25.8 30.8333 26.1667 30.4667 26.1667 30V23.3333C26.1667 22.8667 25.8 22.5 25.3333 22.5C24.8667 22.5 24.5 22.8667 24.5 23.3333V30C24.5 30.4667 24.8667 30.8333 25.3333 30.8333Z" fill="currentColor"/>
<path d="M21.9974 29.1665C22.4641 29.1665 22.8307 28.7998 22.8307 28.3332V24.9998C22.8307 24.5332 22.4641 24.1665 21.9974 24.1665C21.5307 24.1665 21.1641 24.5332 21.1641 24.9998V28.3332C21.1641 28.7998 21.5307 29.1665 21.9974 29.1665Z" fill="currentColor"/>
<path d="M28.6654 29.1665C29.132 29.1665 29.4987 28.7998 29.4987 28.3332V24.9998C29.4987 24.5332 29.132 24.1665 28.6654 24.1665C28.1987 24.1665 27.832 24.5332 27.832 24.9998V28.3332C27.832 28.7998 28.1987 29.1665 28.6654 29.1665Z" fill="currentColor"/>
</svg>
