<svg width="41" height="34" viewBox="0 0 41 34" fill="none" xmlns="http://www.w3.org/2000/svg">
<path d="M34.3299 17.8512C36.8541 19.1125 38.3207 20.6736 38.3207 22.2224C38.3207 25.7719 31.1793 28.5604 24.1139 29.1481C23.4688 29.2012 22.9893 29.7674 23.0432 30.4117C23.0938 31.0314 23.6281 31.5317 24.3068 31.4832M34.3299 17.8512H34.8299V17.5454M34.3299 17.8512V15.8183C34.4968 15.8924 34.6636 15.9693 34.8299 16.0489M34.3299 17.8512L34.5534 17.4039C34.6468 17.4506 34.739 17.4978 34.8299 17.5454M34.8299 17.5454C36.0003 18.1586 36.9568 18.848 37.6398 19.5905C38.3756 20.3903 38.8207 21.283 38.8207 22.2224C38.8207 23.289 38.2826 24.2492 37.4457 25.0752C36.6091 25.9008 35.4388 26.63 34.0739 27.251C31.3419 28.4942 27.7316 29.3489 24.1553 29.6464L24.1549 29.6464C23.785 29.6769 23.5106 30.0014 23.5415 30.37L23.5415 30.371C23.5705 30.7256 23.8735 31.0117 24.2688 30.9846M34.8299 17.5454V16.0489M24.2688 30.9846C24.2678 30.9847 24.2668 30.9848 24.2658 30.9849L24.3068 31.4832M24.2688 30.9846C24.2696 30.9845 24.2704 30.9845 24.2711 30.9844L24.3068 31.4832M24.2688 30.9846C27.3073 30.7342 31.3351 29.953 34.5869 28.4944C37.8777 27.0184 40.1637 24.952 40.1637 22.2224C40.1637 20.7348 39.4394 19.4505 38.3025 18.3553C37.3386 17.4267 36.1 16.6573 34.8299 16.0489M24.3068 31.4832C30.457 30.9768 40.6637 28.3229 40.6637 22.2224C40.6637 19.0708 37.7468 16.8495 34.8299 15.4962V16.0489" fill="currentColor" stroke="currentColor"/>
<path d="M13.6188 25.1692C12.9681 24.5071 11.8373 24.8307 11.6387 25.7403L11.1209 28.1111C3.36532 26.0236 -0.358275 21.5339 7.01172 17.8512V15.2725C-2.65906 19.4443 -1.14148 27.2802 10.6203 30.4032L10.1548 32.5348C9.95516 33.4487 10.8609 34.2218 11.7344 33.8724L17.5917 31.5294C18.3666 31.2196 18.5789 30.2179 17.9923 29.6207L13.6188 25.1692Z" fill="currentColor"/>
<path d="M21.1829 0.194287C20.8216 -0.0104785 20.3791 -0.00860344 20.0196 0.198975L10.5234 5.68155C12.1317 6.61007 19.7933 11.0335 20.6673 11.5381L30.8145 5.65218L21.1829 0.194287Z" fill="currentColor"/>
<path d="M9.35164 18.6757C9.35164 19.0943 9.57492 19.4809 9.93734 19.6902L19.4968 25.2094V13.5678L9.35156 7.71045L9.35164 18.6757Z" fill="currentColor"/>
<path d="M31.9889 18.6759V7.68164L21.8438 13.5664V25.2095L31.4032 19.6904C31.7657 19.4811 31.9889 19.0945 31.9889 18.6759Z" fill="currentColor"/>
</svg>
