<svg width="50" height="50" viewBox="0 0 50 50" fill="none" xmlns="http://www.w3.org/2000/svg">
<g id="Time Add">
<g id="Vector">
<path fill-rule="evenodd" clip-rule="evenodd" d="M36.4587 2.604C30.418 2.604 25.5212 7.50089 25.5212 13.5415C25.5212 19.5821 30.418 24.479 36.4587 24.479C42.4993 24.479 47.3962 19.5821 47.3962 13.5415C47.3962 7.50089 42.4993 2.604 36.4587 2.604ZM36.4587 8.85369C37.3216 8.85369 38.0212 9.55324 38.0212 10.4162V12.183H39.7879C40.6509 12.183 41.3504 12.8825 41.3504 13.7455C41.3504 14.6084 40.6509 15.308 39.7879 15.308H38.0212V17.0748C38.0212 17.9377 37.3216 18.6373 36.4587 18.6373C35.5957 18.6373 34.8962 17.9377 34.8962 17.0748V15.308H33.1294C32.2664 15.308 31.5669 14.6084 31.5669 13.7455C31.5669 12.8825 32.2664 12.183 33.1294 12.183H34.8962V10.4162C34.8962 9.55324 35.5957 8.85369 36.4587 8.85369Z" fill="white"/>
<path fill-rule="evenodd" clip-rule="evenodd" d="M22.6209 11.0239C22.4732 11.8408 22.3962 12.6821 22.3962 13.5415C22.3962 21.308 28.6922 27.604 36.4587 27.604C37.318 27.604 38.1594 27.5269 38.9762 27.3793C39.0335 27.9675 39.0628 28.5637 39.0628 29.1665C39.0628 39.2342 30.9014 47.3957 20.8337 47.3957C10.766 47.3957 2.60449 39.2342 2.60449 29.1665C2.60449 19.0988 10.766 10.9373 20.8337 10.9373C21.4365 10.9373 22.0327 10.9666 22.6209 11.0239ZM19.792 20.3123C20.6549 20.3123 21.3545 21.0119 21.3545 21.8748V29.2185L25.1109 33.3194C25.6937 33.9558 25.6504 34.9442 25.014 35.527C24.3777 36.1099 23.3893 36.0666 22.8065 35.4302L18.6398 30.8814C18.3759 30.5932 18.2295 30.2167 18.2295 29.826V21.8748C18.2295 21.0119 18.929 20.3123 19.792 20.3123Z" fill="white"/>
</g>
</g>
</svg>
