<svg width="40" height="40" viewBox="0 0 40 40" fill="none" xmlns="http://www.w3.org/2000/svg">
<path d="M29.2177 12.9502C29.101 12.9335 28.9844 12.9335 28.8677 12.9502C26.2844 12.8668 24.2344 10.7502 24.2344 8.15016C24.2344 5.50016 26.3844 3.3335 29.051 3.3335C31.701 3.3335 33.8677 5.4835 33.8677 8.15016C33.851 10.7502 31.801 12.8668 29.2177 12.9502Z" fill="currentColor"/>
<path d="M34.6513 24.5002C32.7846 25.7502 30.168 26.2169 27.7513 25.9002C28.3846 24.5335 28.718 23.0169 28.7346 21.4169C28.7346 19.7502 28.368 18.1669 27.668 16.7835C30.1346 16.4502 32.7513 16.9169 34.6346 18.1669C37.268 19.9002 37.268 22.7502 34.6513 24.5002Z" fill="currentColor"/>
<path d="M10.7349 12.9502C10.8516 12.9335 10.9682 12.9335 11.0849 12.9502C13.6682 12.8668 15.7182 10.7502 15.7182 8.15016C15.7182 5.4835 13.5682 3.3335 10.9016 3.3335C8.25156 3.3335 6.10156 5.4835 6.10156 8.15016C6.10156 10.7502 8.15156 12.8668 10.7349 12.9502Z" fill="currentColor"/>
<path d="M10.9159 21.4167C10.9159 23.0333 11.2659 24.5667 11.8992 25.95C9.54922 26.2 7.09922 25.7 5.29922 24.5167C2.66589 22.7667 2.66589 19.9167 5.29922 18.1667C7.08255 16.9667 9.59922 16.4833 11.9659 16.75C11.2826 18.15 10.9159 19.7333 10.9159 21.4167Z" fill="currentColor"/>
<path d="M20.2 26.45C20.0667 26.4333 19.9167 26.4333 19.7667 26.45C16.7 26.35 14.25 23.8333 14.25 20.7333C14.2667 17.5667 16.8167 15 20 15C23.1667 15 25.7333 17.5667 25.7333 20.7333C25.7167 23.8333 23.2833 26.35 20.2 26.45Z" fill="currentColor"/>
<path d="M14.782 29.8999C12.2654 31.5832 12.2654 34.3499 14.782 36.0166C17.6487 37.9332 22.3487 37.9332 25.2154 36.0166C27.732 34.3332 27.732 31.5666 25.2154 29.8999C22.3654 27.9832 17.6654 27.9832 14.782 29.8999Z" fill="currentColor"/>
</svg>
