<svg width="41" height="40" viewBox="0 0 41 40" fill="none" xmlns="http://www.w3.org/2000/svg">
<g clip-path="url(#clip0_1539_30331)">
<path d="M34.745 8.13953C34.2697 6.23648 33.2073 4.51063 31.702 3.21789C29.9773 1.73688 27.777 0.921328 25.5063 0.921328C23.8028 0.921328 22.171 1.36062 20.7308 2.19992C19.2055 0.805078 17.2057 0.0214844 15.1043 0.0214844C10.597 0.0214844 6.91313 3.61453 6.76609 8.08656C5.20789 8.52211 3.79703 9.40867 2.71852 10.6453C1.39375 12.1645 0.664062 14.11 0.664062 16.1234C0.664062 20.7236 4.40656 24.4661 9.0068 24.4661H32.3213C36.9216 24.4661 40.6641 20.7236 40.6641 16.1234C40.6641 12.435 38.2178 9.19484 34.745 8.13953Z" fill="currentColor"/>
<path d="M13.2422 26.8103V29.0408H9.09398C8.58242 27.2396 6.92391 25.916 4.96094 25.916C2.59164 25.916 0.664062 27.8436 0.664062 30.2129C0.664062 32.5822 2.59164 34.5098 4.96094 34.5098C6.92406 34.5098 8.58266 33.1859 9.09414 31.3845H14.4141C15.0609 31.3845 15.5859 30.8603 15.5859 30.2127V26.8103H13.2422Z" fill="currentColor"/>
<path d="M21.8359 31.5483V26.8101H19.4922V31.5483C17.6909 32.0597 16.3672 33.7183 16.3672 35.6814C16.3672 38.0507 18.2948 39.9783 20.6641 39.9783C23.0334 39.9783 24.9609 38.0507 24.9609 35.6814C24.9609 33.7183 23.6373 32.0597 21.8359 31.5483Z" fill="currentColor"/>
<path d="M36.3672 25.916C34.4042 25.916 32.7457 27.2396 32.2341 29.0408H28.0859V26.8103H25.7422V30.2127C25.7422 30.8603 26.2672 31.3845 26.9141 31.3845H32.234C32.7455 33.1859 34.4041 34.5098 36.3672 34.5098C38.7365 34.5098 40.6641 32.5822 40.6641 30.2129C40.6641 27.8436 38.7365 25.916 36.3672 25.916Z" fill="currentColor"/>
</g>
<defs>
<clipPath id="clip0_1539_30331">
<rect width="40" height="40" fill="currentColor" transform="translate(0.664062)"/>
</clipPath>
</defs>
</svg>
