<svg width="40" height="40" viewBox="0 0 40 40" fill="none" xmlns="http://www.w3.org/2000/svg">
<path d="M25.9656 32.8334C22.449 33.0834 22.449 38.1834 25.9656 38.4334H34.3156C35.3323 38.4334 36.299 38.0667 37.049 37.3834C39.5156 35.2334 38.199 30.9 34.949 30.5C33.7823 23.4667 23.599 26.1334 26.0156 32.8334" fill="currentColor"/>
<path d="M25.9656 32.8334C22.449 33.0834 22.449 38.1834 25.9656 38.4334H34.3156C35.3323 38.4334 36.299 38.0667 37.049 37.3834C39.5156 35.2334 38.199 30.9 34.949 30.5C33.7823 23.4667 23.599 26.1334 26.0156 32.8334" fill="currentColor"/>
<path d="M36.6654 18.4502V25.5668C36.6654 26.1002 35.8154 26.3335 35.4487 25.9502C34.6654 25.1335 33.682 24.5168 32.5487 24.1668C29.932 23.3502 26.9154 24.1502 25.0154 26.1168C23.8154 27.4002 23.1654 29.0002 23.132 30.7335C23.132 31.0335 22.982 31.3002 22.7487 31.4835C21.5487 32.4335 20.8154 33.9168 20.8154 35.6168V35.6335C20.8154 36.1668 20.432 36.6502 19.8987 36.6502H12.232C7.33203 36.6668 3.33203 32.6668 3.33203 27.7502V10.7002C3.33203 6.6335 6.63203 3.3335 10.6987 3.3335H14.5654C17.282 3.3335 18.132 4.21683 19.2154 5.66683L21.5487 8.76683C22.0654 9.45016 22.132 9.5335 23.0987 9.5335H27.7487C31.7154 9.5335 35.082 12.1335 36.232 15.7335C36.482 16.4835 36.6154 17.2502 36.6487 18.0668C36.6654 18.1835 36.6654 18.3335 36.6654 18.4502Z" fill="currentColor"/>
</svg>
