<svg width="40" height="40" viewBox="0 0 40 40" fill="none" xmlns="http://www.w3.org/2000/svg">
<path d="M15.6214 11.6062C13.1833 14.0443 13.1657 17.9795 15.582 20.3959C17.9983 22.8122 21.9336 22.7945 24.3716 20.3565C26.8097 17.9184 26.8273 13.9832 24.411 11.5669C21.9947 9.15054 18.0594 9.16823 15.6214 11.6062Z" fill="currentColor"/>
<path d="M18.7549 30.1448C17.7028 30.7359 16.4399 30.861 15.2923 30.4876C14.1449 30.1153 13.1979 29.2725 12.6943 28.1771C12.5359 27.8322 12.2915 27.5439 12.0078 27.3047V36.432C12.0078 36.8579 12.4825 37.1119 12.837 36.8757L15.9591 34.7947C16.2577 34.5958 16.6466 34.5958 16.945 34.7947L20.0672 36.8757C20.4215 37.1119 20.8964 36.8579 20.8964 36.432V30.0001C20.1979 29.7411 19.4121 29.777 18.7549 30.1448Z" fill="currentColor"/>
<path d="M27.3183 28.176C26.8139 29.2722 25.8669 30.1151 24.7187 30.4884C24.2837 30.6299 23.8324 30.6995 23.3819 30.6995C23.1428 30.6995 22.9079 30.6481 22.6719 30.6088V33.4896C22.6719 33.7199 22.8092 33.9209 23.028 33.9927C23.9012 34.2799 26.1604 35.0237 27.3109 35.4102C27.6564 35.5262 28.0058 35.2665 28.0056 34.9017L28.0048 27.3047C27.7209 27.5437 27.4767 27.8315 27.3183 28.176Z" fill="currentColor"/>
<path d="M32.6625 14.1014C31.5558 13.0788 31.0542 11.5348 31.3467 10.0662C31.4889 9.35105 31.3319 8.63998 30.9074 8.05582C30.4839 7.47247 29.8554 7.10448 29.1384 7.02033C27.6428 6.84413 26.3277 5.8885 25.702 4.52571C25.3999 3.8687 24.8549 3.38424 24.1684 3.16112C23.4809 2.93805 22.7553 3.00931 22.1259 3.3634C20.817 4.09676 19.1902 4.09856 17.8812 3.3642C17.4915 3.14543 17.0644 3.0345 16.6339 3.0345C16.3674 3.0345 16.1002 3.07623 15.838 3.16117C15.1515 3.38429 14.6072 3.86855 14.3059 4.52471C13.6792 5.8883 12.3641 6.84393 10.8739 7.01933C10.1517 7.10448 9.52316 7.47251 9.09971 8.05562C8.67521 8.63897 8.51821 9.35065 8.65882 10.059C8.95215 11.5356 8.45044 13.0788 7.35155 14.0944C6.81507 14.591 6.52344 15.2576 6.52344 15.9789C6.52344 16.701 6.81512 17.3677 7.3446 17.8573C8.45049 18.8798 8.95215 20.424 8.66047 21.8917C8.518 22.6079 8.67441 23.3188 9.09871 23.9021C9.52321 24.4862 10.1516 24.8543 10.8686 24.9384C10.9476 24.9478 11.0188 24.9824 11.0966 24.9959C11.1031 24.9959 11.1085 24.9922 11.115 24.9922C11.2644 24.9922 11.3991 25.0382 11.5225 25.1033C12.7357 25.4459 13.7738 26.2766 14.3049 27.433C14.607 28.09 15.1513 28.5744 15.8378 28.7976C16.5261 29.0207 17.2509 28.9486 17.8803 28.5953C19.1875 27.8601 20.8141 27.8593 22.1249 28.5945C22.7533 28.9478 23.4799 29.0207 24.1682 28.7975C24.8547 28.5744 25.3999 28.0901 25.7018 27.4329C26.2262 26.2916 27.2442 25.467 28.4332 25.116C28.5692 25.0318 28.7202 24.9705 28.8917 24.9705C28.9151 24.9705 28.9343 24.9819 28.9572 24.9838C29.0174 24.9739 29.0723 24.9465 29.133 24.9393C29.8552 24.8542 30.4827 24.4862 30.9072 23.903C31.3145 23.3424 31.4747 22.6654 31.3636 21.9859C31.1172 20.4786 31.4459 18.9388 32.5874 17.9242L32.6623 17.8577C33.1918 17.3681 33.4835 16.7015 33.4835 15.9793C33.4837 15.2576 33.192 14.591 32.6625 14.1014ZM27.7153 18.1518C27.0068 20.8224 24.8471 22.982 22.1766 23.6904C16.0969 25.3031 10.6792 19.8854 12.2921 13.8059C13.0005 11.1354 15.1601 8.97567 17.8307 8.26724C23.9105 6.65435 29.3282 12.0722 27.7153 18.1518Z" fill="currentColor"/>
</svg>
