<svg width="50" height="51" viewBox="0 0 50 51" fill="none" xmlns="http://www.w3.org/2000/svg">
<g id="User, People">
<g id="Vector">
<path d="M15.1043 15.2279C15.1043 9.76255 19.5348 5.33203 25.0001 5.33203C30.4655 5.33203 34.896 9.76255 34.896 15.2279C34.896 20.6932 30.4655 25.1237 25.0001 25.1237C19.5348 25.1237 15.1043 20.6932 15.1043 15.2279Z" fill="white"/>
<path d="M18.8214 29.4777C20.7803 28.6663 22.8798 28.2487 25.0001 28.2487C27.1204 28.2487 29.22 28.6663 31.1789 29.4777C33.1378 30.2891 34.9177 31.4784 36.4169 32.9777C37.9162 34.477 39.1055 36.2569 39.9169 38.2158C40.4333 39.4625 40.7902 40.7661 40.9815 42.0958C41.3026 44.3281 39.4423 45.957 37.5001 45.957H12.5001C10.558 45.957 8.69766 44.3281 9.01875 42.0958C9.21002 40.7661 9.56692 39.4625 10.0833 38.2158C10.8947 36.2569 12.084 34.477 13.5833 32.9777C15.0826 31.4784 16.8625 30.2891 18.8214 29.4777Z" fill="white"/>
</g>
</g>
</svg>
