<svg width="40" height="40" viewBox="0 0 40 40" fill="none" xmlns="http://www.w3.org/2000/svg">
<g clip-path="url(#clip0_1539_32952)">
<path d="M39.375 20C39.375 18.3919 38.1488 17.0781 36.5844 16.9088C36.1562 14.6056 35.2412 12.3969 33.9125 10.4606C34.36 9.90687 34.6156 9.23125 34.6156 8.50937C34.6156 7.67438 34.2906 6.89 33.7006 6.3C32.5631 5.1625 30.7669 5.10125 29.5406 6.08813C27.6038 4.75875 25.395 3.84313 23.0919 3.415C22.9212 1.85125 21.6081 0.625 20 0.625C18.3919 0.625 17.0788 1.85125 16.9088 3.41563C14.6056 3.84375 12.3969 4.75937 10.46 6.08875C9.23438 5.10125 7.4375 5.1625 6.3 6.3C5.71 6.89 5.385 7.67438 5.385 8.50937C5.385 9.23125 5.64062 9.9075 6.08813 10.4606C4.75938 12.3969 3.84438 14.605 3.41625 16.9088C1.85125 17.0781 0.625 18.3913 0.625 20C0.625 21.6087 1.85125 22.9219 3.41563 23.0912C3.84375 25.3944 4.75875 27.6031 6.0875 29.5394C5.64 30.0931 5.38437 30.7687 5.38437 31.4906C5.38437 32.3256 5.70938 33.11 6.29938 33.7C6.90875 34.3094 7.70875 34.6138 8.50937 34.6138C9.20375 34.6138 9.89 34.3706 10.4594 33.9119C12.3956 35.2406 14.605 36.1562 16.9088 36.5844C17.0781 38.1488 18.3913 39.375 20 39.375C21.6081 39.375 22.9212 38.1488 23.0912 36.5844C25.395 36.1562 27.6038 35.2406 29.5406 33.9119C30.11 34.37 30.7962 34.6138 31.4906 34.6138C32.2906 34.6138 33.0913 34.3094 33.7006 33.7C34.2906 33.11 34.6156 32.3256 34.6156 31.4906C34.6156 30.7687 34.36 30.0925 33.9125 29.5394C35.2412 27.6031 36.1562 25.3944 36.5844 23.0912C38.1488 22.9219 39.375 21.6087 39.375 20ZM29.5331 29.075L26.4794 26.4906C26.7238 26.0456 26.875 25.5425 26.875 25C26.875 24.81 26.8512 24.6262 26.8188 24.4462L33.6431 21.7162C34.0381 22.3144 34.6369 22.7569 35.3356 22.9725C34.9381 25.0287 34.1206 27.0012 32.9444 28.7412C31.8581 28.1688 30.5156 28.2794 29.5331 29.075ZM10.7194 29.2812C10.5594 29.1212 10.3856 28.9856 10.2031 28.8675L12.755 21.2125C12.8775 21.2275 12.9981 21.25 13.125 21.25C13.9975 21.25 14.785 20.8888 15.3525 20.3106L20.8456 23.865C20.7075 24.2181 20.625 24.5987 20.625 25C20.625 25.2269 20.6519 25.4469 20.6981 25.66L11.1631 29.855C11.0369 29.6506 10.8937 29.4556 10.7194 29.2812ZM7.055 28.7419C5.87875 27.0019 5.06125 25.0294 4.66375 22.9731C5.935 22.5806 6.8675 21.4106 6.87313 20.0131L10.245 19.3387C10.5106 19.9669 10.9831 20.4794 11.5681 20.8188L9.035 28.4181C8.36438 28.3038 7.67 28.4175 7.055 28.7419ZM8.50937 11.6325C8.79187 11.6325 9.07125 11.5806 9.34562 11.5044L11.2688 15.625C10.5063 16.1925 10.0056 17.0919 10.0013 18.1119L6.62938 18.7863C6.2725 17.9419 5.54812 17.3 4.66437 17.0269C5.06187 14.97 5.87937 12.9975 7.055 11.2581C7.51 11.4981 8.00688 11.6325 8.50937 11.6325ZM10.7194 10.7188C10.8594 10.5787 10.9825 10.4263 11.0919 10.2663L19.4212 13.295C19.3988 13.445 19.375 13.5944 19.375 13.75C19.375 14.0006 19.4125 14.2413 19.4681 14.475L15.6244 16.2694C15.0544 15.5031 14.1506 15 13.125 15C12.8744 15 12.6337 15.0375 12.4 15.0931L10.4581 10.9319C10.5456 10.8619 10.6381 10.8 10.7194 10.7188ZM29.2806 10.7188C29.89 11.3281 30.69 11.6325 31.4906 11.6325C31.9931 11.6325 32.49 11.4981 32.945 11.2581C34.1206 12.9975 34.9387 14.9706 35.3363 17.0269C34.6844 17.2281 34.1238 17.6287 33.7306 18.1681L25.5413 14.4456C25.5919 14.2213 25.625 13.99 25.625 13.75C25.625 13.4094 25.5569 13.0881 25.4556 12.7806L29.2113 10.6344C29.2362 10.6612 29.2544 10.6931 29.2806 10.7188ZM24.0344 21.9038L23.4575 16.7094C24.0906 16.5038 24.635 16.1094 25.0194 15.5819L33.2094 19.3044C33.1581 19.5287 33.125 19.76 33.125 20C33.125 20.19 33.1488 20.3738 33.1813 20.5544L26.3569 23.2838C25.8475 22.5125 25.0031 21.9931 24.0344 21.9038ZM22.2156 16.8463L22.7925 22.0406C22.3081 22.1981 21.8713 22.4587 21.5231 22.8137L16.0294 19.2587C16.1675 18.9069 16.25 18.5263 16.25 18.125C16.25 17.8744 16.2125 17.6338 16.1569 17.4L20 15.6062C20.5163 16.2987 21.3087 16.7625 22.2156 16.8463ZM22.9725 4.66437C25.0281 5.06187 27 5.87937 28.74 7.05437C28.5037 7.49937 28.365 7.99125 28.365 8.50937C28.365 8.87687 28.4381 9.23125 28.5594 9.5675L24.8356 11.6956C24.2625 11.0444 23.4331 10.625 22.5 10.625C22.4544 10.625 22.4119 10.6362 22.3662 10.6388L21.3462 6.55813C22.1237 6.18313 22.715 5.49937 22.9725 4.66437ZM20 6.875C20.0456 6.875 20.0881 6.86375 20.1338 6.86125L21.1538 10.9419C20.6125 11.2025 20.16 11.6112 19.8463 12.12L11.5756 9.1125C11.6137 8.91562 11.6344 8.71437 11.6344 8.50937C11.6344 7.99125 11.4956 7.49937 11.2594 7.05437C12.9994 5.87875 14.9712 5.06187 17.0269 4.66437C17.4212 5.93937 18.5969 6.875 20 6.875ZM17.0275 35.3356C14.9712 34.9381 12.9994 34.1206 11.26 32.9456C11.4963 32.5006 11.635 32.0087 11.635 31.4906C11.635 31.335 11.6125 31.1844 11.5906 31.0331L21.2062 26.8019C21.4662 27.1675 21.8044 27.4675 22.1937 27.6931L20.3706 33.1619C20.2475 33.1475 20.1269 33.125 20 33.125C18.5969 33.125 17.4212 34.0606 17.0275 35.3356ZM21.5569 33.5562L23.38 28.0875C23.5025 28.1025 23.6231 28.125 23.75 28.125C24.4781 28.125 25.14 27.8644 25.6719 27.4456L28.7381 30.04C28.5037 30.4837 28.3656 30.9744 28.3656 31.4906C28.3656 32.0087 28.5044 32.5013 28.7406 32.9463C27.0013 34.1213 25.0294 34.9387 22.9731 35.3363C22.7388 34.5781 22.2306 33.9475 21.5569 33.5562Z" fill="currentColor"/>
</g>
<defs>
<clipPath id="clip0_1539_32952">
<rect width="40" height="40" fill="currentColor"/>
</clipPath>
</defs>
</svg>
