<svg width="24" height="16" viewBox="0 0 24 16" fill="none" xmlns="http://www.w3.org/2000/svg">
<path d="M23.1691 8.94781C23.0004 7.05359 22.7224 6.68469 22.6174 6.54594C22.376 6.22531 21.9898 6.01578 21.581 5.79594C21.5579 5.78371 21.5379 5.76629 21.5227 5.74503C21.5075 5.72378 21.4974 5.69927 21.4933 5.67345C21.4891 5.64763 21.491 5.62121 21.4989 5.59626C21.5067 5.57131 21.5202 5.54852 21.5384 5.52969C21.614 5.45292 21.6722 5.36067 21.7089 5.25928C21.7455 5.15789 21.7598 5.04977 21.7507 4.94234C21.7331 4.75185 21.6445 4.57494 21.5025 4.44669C21.3606 4.31845 21.1756 4.24825 20.9843 4.25H20.253C20.2217 4.25019 20.1904 4.25222 20.1593 4.25609C20.1379 4.24683 20.1158 4.23946 20.0932 4.23406C19.6601 3.31859 19.0671 2.06516 17.838 1.45344C16.0151 0.546875 12.6569 0.5 12.0007 0.5C11.3444 0.5 7.98632 0.546875 6.1657 1.45203C4.93664 2.06375 4.34367 3.31719 3.91054 4.23266L3.90679 4.24016C3.88519 4.24319 3.86397 4.24854 3.84351 4.25609C3.81241 4.25222 3.7811 4.25019 3.74976 4.25H3.0171C2.8258 4.24825 2.64083 4.31845 2.49887 4.44669C2.35691 4.57494 2.26833 4.75185 2.2507 4.94234C2.24237 5.04952 2.25728 5.15723 2.29442 5.25811C2.33155 5.359 2.39003 5.45067 2.46585 5.52688C2.48399 5.54571 2.49751 5.5685 2.50533 5.59345C2.51316 5.6184 2.51508 5.64482 2.51094 5.67064C2.50681 5.69646 2.49673 5.72096 2.4815 5.74222C2.46627 5.76348 2.44631 5.7809 2.4232 5.79312C2.01445 6.01437 1.62632 6.22391 1.38679 6.54312C1.28179 6.68375 1.00429 7.05078 0.835072 8.945C0.741322 10.0109 0.72726 11.1144 0.800854 11.825C0.955072 13.3016 1.24429 14.1941 1.25648 14.2311C1.30086 14.3659 1.38255 14.4853 1.49208 14.5755C1.6016 14.6656 1.73446 14.7229 1.87523 14.7406V14.75C1.87523 14.9489 1.95425 15.1397 2.0949 15.2803C2.23555 15.421 2.42632 15.5 2.62523 15.5H5.25023C5.44914 15.5 5.63991 15.421 5.78056 15.2803C5.92121 15.1397 6.00023 14.9489 6.00023 14.75C6.40382 14.75 6.6846 14.6778 6.98226 14.6009C7.412 14.4851 7.85126 14.4081 8.29476 14.3708C9.72492 14.2344 11.1471 14.1875 12.0007 14.1875C12.8369 14.1875 14.3219 14.2344 15.7544 14.3708C16.1997 14.4082 16.6407 14.4855 17.0721 14.6019C17.3571 14.675 17.6276 14.7425 18.0021 14.7495C18.0021 14.9484 18.0811 15.1392 18.2218 15.2799C18.3624 15.4205 18.5532 15.4995 18.7521 15.4995H21.3771C21.576 15.4995 21.7668 15.4205 21.9074 15.2799C22.0481 15.1392 22.1271 14.9484 22.1271 14.7495V14.7439C22.2682 14.7265 22.4015 14.6694 22.5113 14.5792C22.6212 14.489 22.7032 14.3694 22.7477 14.2344C22.7599 14.1973 23.0491 13.3048 23.2034 11.8283C23.2769 11.1172 23.2638 10.0156 23.1691 8.94781ZM5.26617 4.87391C5.64117 4.07703 6.07007 3.17516 6.83367 2.795C7.9371 2.24563 10.2241 1.99812 12.0007 1.99812C13.7773 1.99812 16.0643 2.24375 17.1677 2.795C17.9313 3.17516 18.3584 4.0775 18.7352 4.87391L18.7821 4.97562C18.8095 5.03353 18.8216 5.0975 18.8173 5.16142C18.813 5.22534 18.7923 5.28708 18.7574 5.34076C18.7224 5.39445 18.6742 5.43827 18.6175 5.46806C18.5608 5.49785 18.4974 5.51261 18.4334 5.51094C16.8757 5.46875 13.5944 5.33375 12.0007 5.33375C10.4069 5.33375 7.1257 5.47203 5.5657 5.51422C5.50165 5.51589 5.43824 5.50113 5.38152 5.47134C5.3248 5.44155 5.27666 5.39773 5.24169 5.34405C5.20672 5.29037 5.18608 5.22862 5.18175 5.1647C5.17742 5.10078 5.18954 5.03681 5.21695 4.97891C5.23335 4.94422 5.2507 4.90906 5.26617 4.87391ZM5.82538 8.60656C5.01904 8.70361 4.20754 8.75151 3.39538 8.75C2.89851 8.75 2.38617 8.60937 2.29101 8.16687C2.22585 7.86922 2.23288 7.70188 2.26804 7.53359C2.29757 7.39063 2.34445 7.28656 2.57882 7.25C3.1882 7.15625 3.52898 7.27391 4.52648 7.56781C5.18788 7.76234 5.66507 8.02156 5.93695 8.22687C6.07335 8.32812 6.0007 8.5925 5.82538 8.60656ZM16.2026 12.4503C15.5857 12.5206 14.3519 12.4948 12.0148 12.4948C9.67757 12.4948 8.44429 12.5206 7.82742 12.4503C7.19085 12.3795 6.37945 11.7777 6.93351 11.2414C7.30242 10.888 8.16304 10.6236 9.30913 10.475C10.4552 10.3264 10.9404 10.25 12.0101 10.25C13.0798 10.25 13.5157 10.2969 14.711 10.4755C15.9063 10.6541 16.8096 10.9217 17.0866 11.2419C17.5919 11.8156 16.8387 12.3758 16.2026 12.4531V12.4503ZM21.7104 8.16641C21.6166 8.61078 21.101 8.74953 20.606 8.74953C19.7783 8.74972 18.9513 8.70183 18.1291 8.60609C17.9857 8.5925 17.9191 8.34078 18.0644 8.22641C18.3321 8.01594 18.8144 7.76188 19.4749 7.56734C20.4724 7.27344 21.0476 7.15578 21.5416 7.25375C21.6621 7.27766 21.7259 7.40703 21.7334 7.48813C21.7664 7.71392 21.7586 7.94383 21.7104 8.16687V8.16641Z" fill="currentColor"/>
</svg>
