<svg width="40" height="40" viewBox="0 0 40 40" fill="none" xmlns="http://www.w3.org/2000/svg">
<path d="M39.3835 7.89862C38.9151 7.04347 38.2608 6.96097 37.9137 6.98808C36.4623 7.10042 34.8587 9.49737 33.1446 14.1153C29.3659 13.6058 27.5043 12.5953 25.8541 11.6996C24.1913 10.7971 22.7553 10.0176 20.0015 10.0176C17.2479 10.0176 15.8118 10.7971 14.149 11.6996C12.4988 12.5953 10.6372 13.6057 6.8585 14.1153C5.14451 9.49776 3.54068 7.10042 2.08935 6.98808C1.74053 6.96112 1.08787 7.04378 0.61959 7.89862C-0.144551 9.29362 -0.121114 12.2722 0.680839 15.6721C1.61951 19.6516 3.4885 23.6375 5.94373 26.8957C8.78834 30.6707 14.175 33.0159 20.0015 33.0159C25.8282 33.0159 31.2148 30.6707 34.0594 26.8957C36.5146 23.6375 38.3837 19.6515 39.3222 15.6721C40.1242 12.2722 40.1476 9.29362 39.3835 7.89862ZM5.81771 24.5335C4.01826 21.752 2.64771 18.5664 1.89725 15.3851C1.07959 11.9189 1.22998 9.38581 1.71568 8.49909C1.78248 8.37706 1.88264 8.23394 1.98443 8.23394C1.98717 8.23394 1.9899 8.23401 1.99271 8.23425C2.05178 8.23886 3.4606 8.42042 5.81764 14.9074L5.81771 24.5335ZM11.206 25.6686C11.3536 25.3567 11.7261 25.2232 12.0381 25.3707C14.1947 26.3903 17.0229 26.9518 20.0015 26.9518C22.9801 26.9518 25.8082 26.3903 27.9648 25.3707C28.2769 25.2231 28.6494 25.3565 28.7969 25.6686C28.9445 25.9807 28.8112 26.3532 28.499 26.5007C26.1788 27.5977 23.161 28.2017 20.0015 28.2017C16.8419 28.2017 13.8241 27.5977 11.5039 26.5007C11.1918 26.3532 11.0584 25.9807 11.206 25.6686ZM28.3757 22.0875C26.0915 22.6275 23.1175 22.9249 20.0015 22.9249C16.8852 22.9249 13.9112 22.6275 11.6272 22.0875C11.2913 22.008 11.0834 21.6714 11.1629 21.3354C11.2423 20.9995 11.579 20.7917 11.9149 20.871C14.1074 21.3894 16.9793 21.6749 20.0015 21.6749C23.0237 21.6749 25.8955 21.3895 28.0882 20.8711C28.4241 20.7917 28.7608 20.9996 28.8402 21.3355C28.9197 21.6714 28.7115 22.0081 28.3757 22.0875ZM32.9352 16.5736C29.2945 16.058 27.469 15.0672 25.8512 14.188C24.1891 13.2848 22.7537 12.5049 20.0015 12.505C17.2491 12.505 15.8137 13.2849 14.1515 14.188C12.5335 15.0671 10.7082 16.0576 7.06771 16.5735V15.3482C11.0501 14.8039 13.0912 13.696 14.7451 12.7982C16.3207 11.943 17.5651 11.2675 20.0014 11.2675C22.4378 11.2675 23.6822 11.9429 25.2576 12.7982C26.9117 13.696 28.9528 14.8039 32.9351 15.3482V16.5736H32.9352ZM38.1056 15.3851C37.3552 18.5665 35.9847 21.752 34.1851 24.5336V14.9076C36.5422 8.42026 37.951 8.23894 38.0101 8.23433C38.1139 8.22409 38.2185 8.37386 38.2872 8.49917C38.7729 9.38589 38.9233 11.9188 38.1056 15.3851Z" fill="currentColor"/>
</svg>
