<svg width="50" height="51" viewBox="0 0 50 51" fill="none" xmlns="http://www.w3.org/2000/svg">
<g id="Check, Verified">
<path id="Vector" fill-rule="evenodd" clip-rule="evenodd" d="M29.0508 6.86163C26.8134 4.62425 23.1859 4.62425 20.9485 6.86163L19.0745 8.73566C18.5861 9.22404 17.9237 9.4984 17.233 9.4984H14.583C11.4188 9.4984 8.85379 12.0634 8.85379 15.2276V17.8776C8.85379 18.5683 8.57942 19.2307 8.09104 19.7191L6.2171 21.593C3.97972 23.8304 3.97972 27.4579 6.2171 29.6953L8.09104 31.5692C8.57942 32.0576 8.85379 32.72 8.85379 33.4107V36.0609C8.85379 39.225 11.4188 41.7901 14.583 41.7901H17.2332C17.9239 41.7901 18.5863 42.0644 19.0746 42.5528L20.9485 44.4267C23.1859 46.6641 26.8134 46.664 29.0508 44.4267L30.9246 42.5528C31.413 42.0644 32.0754 41.7901 32.766 41.7901H35.4163C38.5804 41.7901 41.1455 39.225 41.1455 36.0609V33.4107C41.1455 32.72 41.4198 32.0576 41.9082 31.5692L43.7821 29.6953C46.0195 27.4579 46.0195 23.8304 43.7821 21.593L41.9082 19.7191C41.4198 19.2307 41.1455 18.5683 41.1455 17.8776V15.2276C41.1455 12.0634 38.5804 9.4984 35.4163 9.4984H32.7662C32.0755 9.4984 31.4132 9.22404 30.9248 8.73566L29.0508 6.86163ZM32.3374 22.5994C32.9569 21.9987 32.9721 21.0095 32.3714 20.39C31.7707 19.7705 30.7815 19.7552 30.1619 20.356L22.6559 27.6345L19.8374 24.9014C19.2179 24.3007 18.2287 24.3159 17.628 24.9354C17.0272 25.5549 17.0424 26.5441 17.6619 27.1449L21.5682 30.9327C22.1743 31.5205 23.1376 31.5205 23.7436 30.9327L32.3374 22.5994Z" fill="white"/>
</g>
</svg>
