<svg width="38" height="38" viewBox="0 0 38 38" fill="none" xmlns="http://www.w3.org/2000/svg">
<path d="M10.1888 23.4245L10.1883 18.2243C10.1903 17.8141 10.3543 17.4212 10.6446 17.1313C10.9349 16.8414 11.328 16.678 11.7382 16.6765H12.6752L15.7709 19.7721H14.2405C13.6195 19.7721 13.4592 20.68 14.1275 20.8541C15.6614 21.333 16.7873 22.2556 16.7619 23.9698C16.7609 24.0415 16.774 24.1126 16.8005 24.1792C16.8271 24.2457 16.8664 24.3064 16.9164 24.3577C16.9664 24.409 17.0261 24.4499 17.0919 24.4782C17.1578 24.5064 17.2285 24.5214 17.3002 24.5222C17.3718 24.5231 17.4429 24.5098 17.5094 24.4831C17.5759 24.4564 17.6365 24.4169 17.6877 24.3668C17.7389 24.3166 17.7797 24.2569 17.8078 24.191C17.8358 24.1251 17.8506 24.0543 17.8513 23.9827C17.8692 22.6336 17.3542 21.6085 16.4701 20.8655H16.8647L24.5005 28.5014V32.0837C22.7147 32.8326 20.7946 33.2088 18.8582 33.1893C16.9218 33.1699 15.0097 32.7552 13.2392 31.9706V27.0754C13.2392 26.9514 13.1972 26.8311 13.1199 26.7342C13.0426 26.6373 12.9346 26.5696 12.8137 26.542C11.2841 26.0227 10.1758 25.1912 10.1888 23.4245ZM23.7401 19.0104C23.6042 19.1215 23.4576 19.2189 23.3026 19.3012L27.7881 23.7868C27.7895 22.6455 27.8037 21.5051 27.8074 20.3641C27.4682 20.6099 27.0753 20.7714 26.6613 20.8352C26.2473 20.899 25.824 20.8633 25.4265 20.731C25.029 20.5987 24.6687 20.3736 24.3755 20.0744C24.0823 19.7752 23.8646 19.4105 23.7404 19.0104H23.7401ZM23.6202 13.0302C23.6202 12.6197 23.4571 12.226 23.1668 11.9357C22.8765 11.6454 22.4828 11.4823 22.0723 11.4823C21.6618 11.4823 21.2681 11.6454 20.9779 11.9357C20.6876 12.226 20.5245 12.6197 20.5245 13.0302V15.8114C20.9694 16.0104 21.3509 16.3281 21.627 16.7298C21.903 17.1314 22.063 17.6014 22.0894 18.088L22.4633 18.462C22.7939 18.3743 23.0864 18.1801 23.2955 17.9094C23.5046 17.6387 23.6187 17.3067 23.6202 16.9647V13.0302ZM26.2618 12.7419C25.8518 12.7434 25.459 12.907 25.169 13.1969C24.8791 13.4869 24.7155 13.8796 24.7139 14.2897V18.2245C24.7168 18.6331 24.8812 19.024 25.1711 19.3119C25.4611 19.5998 25.8531 19.7613 26.2618 19.7613C26.6704 19.7613 27.0624 19.5998 27.3524 19.3119C27.6424 19.024 27.8067 18.6331 27.8096 18.2245V14.2895C27.808 13.8795 27.6445 13.4867 27.3545 13.1968C27.0646 12.9069 26.6718 12.7433 26.2618 12.7417V12.7419ZM37.75 19C37.75 29.3553 29.3553 37.75 19 37.75C8.64469 37.75 0.25 29.3553 0.25 19C0.25 8.64469 8.64469 0.25 19 0.25C29.3553 0.25 37.75 8.64469 37.75 19ZM28.5098 30.9643L7.0357 9.49016C4.88184 12.1914 3.71125 15.5452 3.71641 19C3.71641 27.4409 10.5591 34.2837 19 34.2837C22.4548 34.2888 25.8086 33.1182 28.5098 30.9643ZM34.2837 19C34.2837 10.5591 27.4409 3.71641 19 3.71641C15.5452 3.71117 12.1914 4.88177 9.49016 7.0357L30.9643 28.5098C33.1183 25.8086 34.2889 22.4549 34.2837 19ZM17.8828 10.2228C17.4728 10.2244 17.08 10.3879 16.7901 10.6779C16.5002 10.9678 16.3366 11.3605 16.335 11.7705V12.3339L19.4307 15.4297V11.7705C19.4291 11.3605 19.2655 10.9677 18.9756 10.6778C18.6856 10.3879 18.2928 10.2244 17.8828 10.2228ZM13.6934 8.96336C13.4855 8.96322 13.2797 9.00546 13.0886 9.0875L15.2413 11.2401V10.5111C15.2397 10.1011 15.0761 9.70834 14.7862 9.41843C14.4963 9.12852 14.1034 8.96494 13.6934 8.96336Z" fill="currentColor"/>
</svg>
