<svg width="40" height="40" viewBox="0 0 40 40" fill="none" xmlns="http://www.w3.org/2000/svg">
<path d="M10.8067 31.8241L20 35.8201L29.1933 31.8241C30.0273 31.4617 30.7371 30.8636 31.2358 30.1032C31.7344 29.3428 32 28.4534 32 27.5441V6.81811C28.4133 6.32678 23.4173 5.46678 19.992 4.16211C16.586 5.46678 11.588 6.32744 8 6.81878V27.5441C7.99999 28.4534 8.26562 29.3428 8.76424 30.1032C9.26286 30.8636 9.97274 31.4617 10.8067 31.8241ZM30.6667 26.6668C30.6667 27.1972 30.456 27.7059 30.0809 28.081C29.7058 28.4561 29.1971 28.6668 28.6667 28.6668H27.3333C27.1565 28.6668 26.987 28.5965 26.8619 28.4715C26.7369 28.3465 26.6667 28.1769 26.6667 28.0001C26.6667 27.8233 26.7369 27.6537 26.8619 27.5287C26.987 27.4037 27.1565 27.3334 27.3333 27.3334H28.6667C28.8435 27.3334 29.013 27.2632 29.1381 27.1382C29.2631 27.0132 29.3333 26.8436 29.3333 26.6668V25.3334C29.3333 25.1566 29.4036 24.9871 29.5286 24.862C29.6536 24.737 29.8232 24.6668 30 24.6668C30.1768 24.6668 30.3464 24.737 30.4714 24.862C30.5964 24.9871 30.6667 25.1566 30.6667 25.3334V26.6668ZM27.3333 8.66678H28.6667C29.1971 8.66678 29.7058 8.87749 30.0809 9.25256C30.456 9.62764 30.6667 10.1363 30.6667 10.6668V12.0001C30.6667 12.1769 30.5964 12.3465 30.4714 12.4715C30.3464 12.5965 30.1768 12.6668 30 12.6668C29.8232 12.6668 29.6536 12.5965 29.5286 12.4715C29.4036 12.3465 29.3333 12.1769 29.3333 12.0001V10.6668C29.3333 10.49 29.2631 10.3204 29.1381 10.1954C29.013 10.0703 28.8435 10.0001 28.6667 10.0001H27.3333C27.1565 10.0001 26.987 9.92987 26.8619 9.80485C26.7369 9.67982 26.6667 9.51025 26.6667 9.33344C26.6667 9.15663 26.7369 8.98706 26.8619 8.86204C26.987 8.73701 27.1565 8.66678 27.3333 8.66678ZM14.6773 14.6668C14.8122 14.669 14.9433 14.7122 15.0532 14.7905C15.163 14.8688 15.2465 14.9786 15.2927 15.1054L17.306 20.6388L18.0347 18.4541C18.0764 18.329 18.1542 18.2191 18.2584 18.1383C18.3625 18.0575 18.4883 18.0094 18.6198 18C18.7513 17.9907 18.8827 18.0205 18.9972 18.0858C19.1117 18.1511 19.2044 18.2489 19.2633 18.3668L19.954 19.7481L21.3873 16.4021C21.4377 16.2759 21.5269 16.1689 21.6421 16.0966C21.7573 16.0244 21.8924 15.9906 22.028 16.0001C22.163 16.0059 22.293 16.0525 22.4008 16.1338C22.5087 16.2151 22.5893 16.3273 22.632 16.4554L24.0373 20.6668L25.3753 17.0968C25.4205 16.9749 25.5003 16.8689 25.6049 16.7918C25.7095 16.7147 25.8344 16.6698 25.9641 16.6627C26.0939 16.6557 26.2229 16.6867 26.3353 16.7519C26.4477 16.8172 26.5385 16.9139 26.5967 17.0301L27.0787 18.0001H29.3333C29.5101 18.0001 29.6797 18.0703 29.8047 18.1954C29.9298 18.3204 30 18.49 30 18.6668C30 18.8436 29.9298 19.0132 29.8047 19.1382C29.6797 19.2632 29.5101 19.3334 29.3333 19.3334H26.6667C26.5494 19.3337 26.4342 19.303 26.3326 19.2445C26.231 19.1859 26.1466 19.1016 26.088 19.0001L24.6213 22.9034C24.5734 23.0296 24.4884 23.1382 24.3775 23.215C24.2665 23.2917 24.1349 23.3331 24 23.3334H23.9873C23.8496 23.3307 23.7162 23.2854 23.6053 23.2038C23.4944 23.1221 23.4115 23.0081 23.368 22.8774L21.922 18.5441L20.6127 21.5988C20.5626 21.7157 20.4801 21.8159 20.375 21.8874C20.2699 21.959 20.1465 21.9991 20.0193 22.0028C19.8926 22.0043 19.7679 21.9706 19.6592 21.9056C19.5505 21.8405 19.4619 21.7465 19.4033 21.6341L18.7907 20.4068L17.9653 22.8801C17.9217 23.0113 17.8383 23.1257 17.7267 23.2074C17.6151 23.2891 17.4809 23.3341 17.3427 23.3361C17.2039 23.3402 17.0674 23.2998 16.9531 23.2209C16.8388 23.142 16.7527 23.0287 16.7073 22.8974L14.6367 17.2001L13.9527 18.9121C13.9035 19.0363 13.8182 19.1429 13.7078 19.218C13.5973 19.2931 13.4669 19.3333 13.3333 19.3334H10.6667C10.4899 19.3334 10.3203 19.2632 10.1953 19.1382C10.0702 19.0132 10 18.8436 10 18.6668C10 18.49 10.0702 18.3204 10.1953 18.1954C10.3203 18.0703 10.4899 18.0001 10.6667 18.0001H12.882L14.0473 15.0854C14.0996 14.9615 14.1872 14.8557 14.2993 14.7812C14.4113 14.7067 14.5428 14.6669 14.6773 14.6668ZM9.33333 10.6668C9.33333 10.1363 9.54405 9.62764 9.91912 9.25256C10.2942 8.87749 10.8029 8.66678 11.3333 8.66678H12.6667C12.8435 8.66678 13.013 8.73701 13.1381 8.86204C13.2631 8.98706 13.3333 9.15663 13.3333 9.33344C13.3333 9.51025 13.2631 9.67982 13.1381 9.80485C13.013 9.92987 12.8435 10.0001 12.6667 10.0001H11.3333C11.1565 10.0001 10.987 10.0703 10.8619 10.1954C10.7369 10.3204 10.6667 10.49 10.6667 10.6668V12.0001C10.6667 12.1769 10.5964 12.3465 10.4714 12.4715C10.3464 12.5965 10.1768 12.6668 10 12.6668C9.82319 12.6668 9.65362 12.5965 9.5286 12.4715C9.40357 12.3465 9.33333 12.1769 9.33333 12.0001V10.6668ZM9.33333 25.3334C9.33333 25.1566 9.40357 24.9871 9.5286 24.862C9.65362 24.737 9.82319 24.6668 10 24.6668C10.1768 24.6668 10.3464 24.737 10.4714 24.862C10.5964 24.9871 10.6667 25.1566 10.6667 25.3334V26.6668C10.6667 26.8436 10.7369 27.0132 10.8619 27.1382C10.987 27.2632 11.1565 27.3334 11.3333 27.3334H12.6667C12.8435 27.3334 13.013 27.4037 13.1381 27.5287C13.2631 27.6537 13.3333 27.8233 13.3333 28.0001C13.3333 28.1769 13.2631 28.3465 13.1381 28.4715C13.013 28.5965 12.8435 28.6668 12.6667 28.6668H11.3333C10.8029 28.6668 10.2942 28.4561 9.91912 28.081C9.54405 27.7059 9.33333 27.1972 9.33333 26.6668V25.3334Z" fill="currentColor"/>
<path d="M9.74203 34.2665L19.732 38.6118C19.816 38.649 19.9068 38.6683 19.9987 38.6683C20.0906 38.6683 20.1814 38.649 20.2654 38.6118L30.256 34.2665C31.5658 33.697 32.6808 32.7575 33.4641 31.5633C34.2474 30.369 34.6649 28.972 34.6654 27.5438V5.05982C34.6654 4.89766 34.6063 4.74106 34.4992 4.61933C34.392 4.49759 34.2442 4.41908 34.0834 4.39849C31.1874 4.04782 24.0414 3.05182 20.2407 1.38449C20.1643 1.35118 20.0818 1.33398 19.9984 1.33398C19.915 1.33398 19.8325 1.35118 19.756 1.38449C15.956 3.05115 8.81003 4.04715 5.9147 4.39849C5.75373 4.41893 5.60575 4.49738 5.49848 4.61913C5.39122 4.74087 5.33204 4.89756 5.33203 5.05982V27.5438C5.33258 28.9721 5.7502 30.3691 6.53361 31.5634C7.31703 32.7576 8.43214 33.6971 9.74203 34.2665ZM6.66536 6.81782C6.66555 6.49597 6.78214 6.18505 6.99363 5.94245C7.20512 5.69984 7.49722 5.54191 7.81603 5.49782C11.3367 5.01515 16.2274 4.17582 19.532 2.91582C19.8323 2.79984 20.1651 2.79984 20.4654 2.91582C23.7727 4.17582 28.6654 5.01515 32.1807 5.49782C32.4996 5.54177 32.7919 5.69963 33.0035 5.94225C33.2151 6.18487 33.3318 6.49587 33.332 6.81782V27.5438C33.332 28.7129 32.9904 29.8564 32.3493 30.834C31.7083 31.8116 30.7955 32.5806 29.7234 33.0465L20.532 37.0425C20.3636 37.1125 20.1831 37.1485 20.0007 37.1485C19.8183 37.1485 19.6378 37.1125 19.4694 37.0425L10.274 33.0465C9.20186 32.5806 8.28914 31.8116 7.64805 30.834C7.00695 29.8564 6.6654 28.7129 6.66536 27.5438V6.81782Z" fill="currentColor"/>
</svg>
