<svg width="98" height="25" viewBox="0 0 98 25" fill="none" xmlns="http://www.w3.org/2000/svg">
<g id="Group 278262">
<path id="Path 24869" d="M18.5261 20.0228L15.2812 14.2066L15.2036 14.0675L11.221 6.97759L9.45156 3.83157H6.40609C6.32027 4.01246 6.19273 4.16375 6.03698 4.26943C5.88123 4.37512 5.70307 4.43124 5.52137 4.43187C5.38874 4.43157 5.25746 4.40177 5.13503 4.34416C5.0126 4.28656 4.90143 4.20229 4.80784 4.09615C4.71424 3.99002 4.64006 3.8641 4.58955 3.7256C4.53905 3.58709 4.51319 3.43871 4.51346 3.28891C4.51328 2.98666 4.61931 2.69668 4.80829 2.48267C4.99727 2.26865 5.25375 2.1481 5.52137 2.14749C5.70296 2.14781 5.88109 2.20363 6.03686 2.30905C6.19262 2.41447 6.32021 2.56555 6.40609 2.74626H8.84045L7.29965 0.00146484H0L3.91868 6.97759L5.15862 9.18357H8.32663C8.41256 9.00279 8.54013 8.85159 8.69586 8.74592C8.85159 8.64026 9.02968 8.58406 9.21134 8.58327C9.34397 8.58357 9.47526 8.61338 9.59769 8.67098C9.72012 8.72858 9.83129 8.81285 9.92488 8.91899C10.0185 9.02512 10.0927 9.15103 10.1432 9.28954C10.1937 9.42805 10.2195 9.57643 10.2193 9.72623C10.2199 9.92237 10.1751 10.1153 10.0892 10.2858L14.5353 18.2558C14.7168 18.2414 14.8984 18.283 15.0606 18.3761C15.2228 18.4693 15.3595 18.6105 15.4561 18.7846C15.5992 19.0407 15.6466 19.3504 15.5879 19.6459C15.5293 19.9413 15.3693 20.1985 15.1431 20.361C15.0312 20.4412 14.9065 20.4955 14.776 20.521C14.6454 20.5465 14.5117 20.5427 14.3826 20.5097C14.2534 20.4767 14.1312 20.4152 14.0231 20.3288C13.915 20.2423 13.8231 20.1326 13.7527 20.0059C13.6554 19.8316 13.6015 19.6309 13.5967 19.4249C13.5919 19.2188 13.6364 19.0152 13.7255 18.8353L9.28482 10.8646C9.26228 10.8682 9.23955 10.87 9.21678 10.87C9.03502 10.8692 8.85681 10.813 8.70105 10.7072C8.54529 10.6014 8.4178 10.4499 8.33207 10.2689H5.77043L13.8691 24.6885H16.4048L18.5145 21.1174C18.4356 20.9483 18.3954 20.7596 18.3974 20.5685C18.3995 20.3773 18.4437 20.1898 18.5261 20.0228Z" fill="white"/>
<path id="Path 24870" d="M24.1765 19.3438L21.1657 24.6882H17.5547L19.3078 21.7281C19.5296 21.7537 19.7525 21.6936 19.94 21.5575C20.1659 21.3964 20.326 21.1405 20.3849 20.8462C20.4439 20.5519 20.3969 20.2432 20.2544 19.988C20.1574 19.8142 20.0206 19.6734 19.8585 19.5803C19.6964 19.4872 19.5151 19.4453 19.3337 19.4591L18.078 17.2163L20.528 12.8696L24.1765 19.3438Z" fill="white"/>
<path id="Path 24871" d="M27.9198 8.03516L29.2721 10.4356L27.8164 13.0197L25.1622 8.06898L25.1445 8.03516H27.9198Z" fill="#29ABE2"/>
<path id="Path 24872" d="M21.1019 3.76009L19.5488 6.12825L16.0957 0.00146484H31.3401L30.0689 2.14672C29.8881 2.12701 29.7059 2.16307 29.5419 2.25106C29.3778 2.33904 29.2379 2.47565 29.1372 2.64634C29.1193 2.67574 29.103 2.70628 29.0882 2.7378H22.904C22.8178 2.55749 22.6901 2.40682 22.5344 2.30169C22.3787 2.19657 22.2007 2.1409 22.0192 2.14057C21.7519 2.14057 21.4955 2.26035 21.3063 2.47362C21.1171 2.6869 21.0105 2.97624 21.01 3.27815C21.0086 3.4445 21.04 3.60911 21.1019 3.76009Z" fill="#29ABE2"/>
<path id="Path 24873" d="M23.2867 7.49474C23.2867 7.79664 23.3929 8.08619 23.5819 8.29967C23.7709 8.51315 24.0273 8.63308 24.2946 8.63308C24.3112 8.63449 24.3278 8.63449 24.3443 8.63308L27.2401 14.0404L25.6224 16.9113L21.9725 10.4378L20.0977 7.10888L21.8719 4.40713C21.9189 4.41565 21.9664 4.42002 22.0141 4.4202C22.1956 4.41971 22.3736 4.3639 22.5293 4.25864C22.685 4.15339 22.8127 4.0026 22.8988 3.8222H29.0817C29.1593 3.98578 29.2715 4.12519 29.4083 4.22804C29.6309 4.39592 29.9035 4.45719 30.166 4.3984C30.4286 4.3396 30.6598 4.16555 30.8089 3.91444C30.9101 3.74371 30.9684 3.54512 30.9775 3.3399C30.9866 3.13467 30.9462 2.9305 30.8606 2.74919L32.4878 0.00439453H35.1468L31.2308 6.95592H25.1807C25.0946 6.77547 24.967 6.62464 24.8112 6.51937C24.6555 6.41411 24.4775 6.35833 24.296 6.35792C24.1636 6.35772 24.0325 6.38697 23.9102 6.44399C23.7878 6.50101 23.6766 6.58469 23.5829 6.69025C23.4892 6.79582 23.4148 6.92119 23.364 7.05923C23.3132 7.19726 23.2869 7.34525 23.2867 7.49474Z" fill="#29ABE2"/>
<path id="Path 24874" d="M40.7156 3.89928C40.6298 4.08006 40.5023 4.23116 40.3465 4.33648C40.1907 4.44179 40.0124 4.49737 39.8309 4.49727C39.8023 4.49727 39.7737 4.49727 39.7444 4.49266L38.271 7.02916C38.3575 7.21011 38.3989 7.41412 38.391 7.61955C38.3831 7.82497 38.3261 8.02414 38.2261 8.19594C38.1535 8.32104 38.0599 8.42876 37.9505 8.51296C37.8411 8.59716 37.718 8.65618 37.5884 8.68666C37.4588 8.71714 37.3251 8.71847 37.195 8.69059C37.065 8.66271 36.941 8.60615 36.8303 8.52415C36.6898 8.42092 36.5744 8.27953 36.4948 8.11293H33.4636L30.725 12.9753L27.0752 19.4534L24.125 24.687H27.2943L33.8277 13.0914C33.7387 12.9124 33.6944 12.7094 33.6995 12.5042C33.7047 12.299 33.7591 12.0992 33.8569 11.9261C33.9279 11.7996 34.0203 11.6902 34.1288 11.6041C34.2373 11.5181 34.3598 11.4571 34.4893 11.4247C34.6187 11.3922 34.7526 11.389 34.8831 11.4152C35.0137 11.4414 35.1384 11.4964 35.25 11.5772C35.4753 11.7396 35.6344 11.9963 35.6923 12.2909C35.7502 12.5856 35.7023 12.8942 35.559 13.149C35.4612 13.3224 35.3236 13.4627 35.1609 13.555C34.9982 13.6473 34.8164 13.6881 34.6348 13.6732L28.4295 24.687H31.4239L34.3742 19.4534L41.371 7.033L43.1404 3.89697L40.7156 3.89928Z" fill="white"/>
<path id="Path 24875" d="M45.2917 0.00153642L43.7503 2.73711H40.7177C40.6318 2.55652 40.5042 2.40562 40.3484 2.30045C40.1926 2.19529 40.0145 2.13979 39.833 2.13988C39.5658 2.14008 39.3097 2.25997 39.1207 2.47324C38.9318 2.68652 38.8255 2.97574 38.8251 3.27746C38.8244 3.46697 38.8661 3.65361 38.9462 3.82011L37.4715 6.35661C37.2902 6.33938 37.1082 6.37769 36.9446 6.46752C36.781 6.55734 36.6418 6.69534 36.5418 6.86698C36.5256 6.8943 36.5106 6.92252 36.4969 6.95153H34.0762L37.9928 0L45.2917 0.00153642Z" fill="white"/>
<path id="Path 24860" d="M65.2794 20.0264L64.2034 23.3558L63.1444 20.0264H62.2386L61.1865 23.3558L60.1276 20.0264H59.2129L60.8101 24.9979H61.5792L62.6987 21.4839L63.8264 24.9979H64.5872L66.1933 20.0264H65.2794Z" fill="white"/>
<path id="Path 24861" d="M71.2364 20.0264H68.3304C68.1588 20.0323 67.99 20.0771 67.8341 20.1582C67.6782 20.2393 67.5383 20.3551 67.4228 20.4985C67.3072 20.642 67.2185 20.8102 67.1617 20.9933C67.105 21.1763 67.0815 21.3704 67.0925 21.5639V25.0002H67.9466V21.5639C67.9466 21.2264 68.0827 20.995 68.3311 20.995H71.2371C71.476 20.995 71.6291 21.2256 71.6291 21.5639V22.3549H68.587V23.3197H71.6291V25.0002H72.4845V21.5639C72.4937 21.3699 72.4685 21.1758 72.4104 20.993C72.3523 20.8101 72.2625 20.6422 72.1463 20.499C72.0301 20.3558 71.8898 20.2403 71.7335 20.1591C71.5773 20.078 71.4083 20.0328 71.2364 20.0264Z" fill="white"/>
<path id="Path 24862" d="M76.2607 22.5171L78.4385 20.0264H77.2502L75.0895 22.5171L77.3952 24.9979H78.5828L76.2607 22.5171ZM73.8516 20.0264V24.9979H74.7063V20.0264H73.8516Z" fill="white"/>
<path id="Path 24863" d="M81.1496 22.0259V22.9884H84.1052V22.0259H81.1496ZM84.3482 20.9927V20.0264H79.6523V24.9979H84.3434V24.0316H80.5072V20.9896L84.3482 20.9927Z" fill="white"/>
<path id="Path 24864" d="M90.6749 22.4779C90.822 22.3526 90.9401 22.1889 91.0189 22.0008C91.0977 21.8126 91.135 21.6057 91.1275 21.3978C91.1329 21.2145 91.1047 21.032 91.0446 20.8616C90.9845 20.6913 90.8939 20.5368 90.7783 20.408C90.6628 20.2792 90.525 20.1787 90.3734 20.1131C90.2218 20.0474 90.0599 20.0178 89.8977 20.0263H85.7109V24.9979H89.9739C90.1363 25.0058 90.2985 24.976 90.4503 24.9102C90.6021 24.8445 90.7403 24.7442 90.8564 24.6156C90.9724 24.487 91.0639 24.3328 91.125 24.1627C91.1862 23.9925 91.2158 23.81 91.2119 23.6264C91.2227 23.398 91.1785 23.1706 91.0839 22.9683C90.9893 22.7661 90.848 22.5966 90.6749 22.4779ZM89.9746 24.0315H86.565V20.9896H89.8997C90.1216 20.9896 90.274 21.1718 90.274 21.5192C90.274 21.8667 90.1216 22.0228 89.8997 22.0228H87.2041V22.9883H89.9726C90.2033 22.9883 90.3564 23.1513 90.3564 23.5088C90.3564 23.8663 90.2067 24.0315 89.976 24.0315H89.9746Z" fill="white"/>
<path id="Path 24865" d="M52.7356 18.3246V22.3799H56.3983V18.3246H52.7356ZM62.8759 13.5906C62.6721 13.5908 62.4731 13.5208 62.3056 13.3899C62.1704 13.2859 62.0599 13.1462 61.9835 12.9829C61.9071 12.8196 61.8672 12.6377 61.8673 12.453C61.8672 12.2682 61.9071 12.0861 61.9835 11.9227C62.0599 11.7593 62.1704 11.6194 62.3056 11.5152V7.96338H58.6387V13.0256H50.4571V7.96338H46.793V17.2892H63.3624V13.4499C63.214 13.5422 63.0473 13.5906 62.8779 13.5906H62.8759Z" fill="white"/>
<path id="Path 24866" d="M67.1198 7.84211V5.77295H63.3801V11.4301C63.5418 11.5343 63.6743 11.6877 63.7626 11.8728H78.626C78.7123 11.6927 78.84 11.5422 78.9957 11.4373C79.1515 11.3323 79.3293 11.2767 79.5107 11.2764C79.6431 11.2763 79.7743 11.3056 79.8967 11.3628C80.0191 11.4199 80.1303 11.5038 80.2241 11.6095C80.3178 11.7152 80.3922 11.8407 80.4429 11.9789C80.4937 12.117 80.5198 12.2651 80.5199 12.4147C80.5196 12.7167 80.4131 13.0062 80.2238 13.2195C80.0346 13.4328 79.7781 13.5525 79.5107 13.5523C79.3302 13.5527 79.1529 13.4984 78.9973 13.3952C78.8417 13.2919 78.7135 13.1433 78.626 12.9651H63.7545C63.6623 13.1538 63.5241 13.3088 63.3563 13.4116C63.2079 13.504 63.0413 13.5524 62.8718 13.5523C62.6678 13.5527 62.4685 13.4827 62.3008 13.3517V17.2502H83.888V7.84211H67.1198Z" fill="white"/>
<path id="Path 24867" d="M85.0312 0.0737305V17.2204H88.6967V0.0737305H85.0312Z" fill="white"/>
<path id="Path 24868" d="M97.9913 17.3624V8.06885H89.7246L89.7342 8.15263V17.3117H93.3234V13.7706C93.1636 13.6733 93.0301 13.5292 92.9369 13.3533C92.8437 13.1774 92.7943 12.9763 92.7939 12.7713C92.7939 12.6218 92.82 12.4737 92.8707 12.3355C92.9214 12.1974 92.9957 12.0719 93.0894 11.9661C93.183 11.8604 93.2943 11.7766 93.4166 11.7194C93.539 11.6623 93.6701 11.6329 93.8025 11.633C94.0698 11.633 94.3262 11.7529 94.5152 11.9664C94.7042 12.1799 94.8104 12.4694 94.8104 12.7713C94.8101 12.9763 94.7607 13.1774 94.6675 13.3533C94.5743 13.5292 94.4407 13.6733 94.2809 13.7706V22.3508H98.0002V20.0196L97.9913 17.3624Z" fill="white"/>
</g>
</svg>
