<svg width="107" height="25" viewBox="0 0 107 25" fill="none" xmlns="http://www.w3.org/2000/svg">
<path d="M70.939 19.3135L69.753 22.5615L68.5859 19.3135H67.5859L66.4269 22.5615L65.2599 19.3135H64.252L66.012 24.1635H66.86L68.094 20.7355L69.337 24.1635H70.176L71.946 19.3135H70.939Z" fill="#90218A"/>
<path d="M77.5044 19.3135H74.3044C74.1153 19.3193 73.9294 19.363 73.7576 19.4422C73.5857 19.5213 73.4316 19.6343 73.3043 19.7742C73.177 19.9142 73.0792 20.0783 73.0167 20.2569C72.9542 20.4354 72.9283 20.6247 72.9404 20.8135V24.1665H73.8814V20.8115C73.8814 20.4825 74.0314 20.2565 74.3044 20.2565H77.5044C77.7674 20.2565 77.9365 20.4825 77.9365 20.8115V21.5835H74.5844V22.5245H77.9365V24.1665H78.8794V20.8115C78.8892 20.6224 78.8613 20.4333 78.7972 20.2552C78.7331 20.0771 78.6342 19.9135 78.5062 19.7741C78.3781 19.6346 78.2236 19.5221 78.0516 19.443C77.8796 19.3639 77.6936 19.3199 77.5044 19.3135Z" fill="#90218A"/>
<path d="M83.0417 21.7435L85.4417 19.3135H84.1327L81.7517 21.7435L84.2927 24.1635H85.6007L83.0417 21.7435ZM80.3867 19.3135V24.1665H81.3287V19.3165L80.3867 19.3135Z" fill="#90218A"/>
<path d="M88.4293 21.2664V22.2074H91.6863V21.2664H88.4293ZM91.9512 20.2584V19.3154H86.7812V24.1664H91.9512V23.2234H87.7233V20.2564L91.9512 20.2584Z" fill="#90218A"/>
<path d="M98.929 21.7057C99.0913 21.5836 99.2217 21.4239 99.3088 21.2403C99.3959 21.0567 99.4371 20.8548 99.429 20.6517C99.4344 20.473 99.4028 20.2951 99.3364 20.1292C99.2699 19.9632 99.1699 19.8127 99.0427 19.6871C98.9154 19.5616 98.7636 19.4636 98.5967 19.3993C98.4299 19.3351 98.2516 19.3059 98.073 19.3137H93.459V24.1667H98.159C98.3381 24.1746 98.5168 24.1456 98.6842 24.0815C98.8516 24.0174 99.004 23.9195 99.132 23.7941C99.26 23.6686 99.3608 23.5182 99.4282 23.3521C99.4957 23.1861 99.5283 23.0079 99.524 22.8287C99.536 22.6052 99.487 22.3826 99.3821 22.1847C99.2773 21.9869 99.1207 21.8213 98.929 21.7057ZM98.157 23.2217H94.4V20.2567H98.073C98.318 20.2567 98.486 20.4347 98.486 20.7737C98.486 21.1127 98.318 21.2647 98.073 21.2647H95.106V22.2057H98.157C98.411 22.2057 98.58 22.3647 98.58 22.7137C98.58 23.0627 98.411 23.2217 98.157 23.2217Z" fill="#90218A"/>
<path d="M57.1135 17.653V21.61H61.1525V17.653H57.1135ZM68.2905 13.034C68.0653 13.0333 67.8457 12.9635 67.6614 12.834C67.5125 12.7325 67.3907 12.5962 67.3065 12.4369C67.2223 12.2776 67.1784 12.1002 67.1785 11.92C67.1784 11.7397 67.2223 11.562 67.3065 11.4026C67.3907 11.2431 67.5125 11.1066 67.6614 11.005V7.54297H63.6205V12.481H54.6025V7.54297H50.5645V16.643H68.8245V12.897C68.6604 12.9853 68.4767 13.0307 68.2905 13.029V13.034Z" fill="#11044C"/>
<path d="M72.9681 7.5317V5.5127H68.8471V11.0327C69.0253 11.1345 69.1715 11.2841 69.2691 11.4647H85.6491C85.7444 11.2887 85.8855 11.1417 86.0575 11.0392C86.2295 10.9368 86.4259 10.8827 86.6261 10.8827C86.9208 10.8827 87.2035 10.9997 87.412 11.208C87.6206 11.4164 87.7378 11.6989 87.7381 11.9937C87.738 12.1396 87.7091 12.284 87.6531 12.4188C87.5972 12.5535 87.5152 12.6759 87.412 12.779C87.3087 12.8821 87.1862 12.9638 87.0513 13.0195C86.9165 13.0752 86.772 13.1038 86.6261 13.1037C86.4275 13.1038 86.2326 13.0507 86.0615 12.9499C85.8904 12.8491 85.7494 12.7044 85.6531 12.5307H69.2641C69.1625 12.715 69.0102 12.8664 68.8251 12.9667C68.6616 13.0569 68.4779 13.1041 68.2911 13.1037C68.0659 13.103 67.8464 13.0332 67.6621 12.9037V16.7037H91.4521V7.5317H72.9681Z" fill="#11044C"/>
<path d="M92.707 0.0703125V16.8013H96.746V0.0703125H92.707Z" fill="#11044C"/>
<path d="M106.989 16.7165V7.64551H97.8789L97.89 7.72751V16.6645H101.846V13.2095C101.67 13.1143 101.522 12.9731 101.419 12.8009C101.317 12.6288 101.263 12.432 101.263 12.2315C101.263 12.0855 101.292 11.941 101.348 11.8061C101.403 11.6713 101.485 11.5487 101.589 11.4456C101.692 11.3424 101.815 11.2606 101.949 11.2048C102.084 11.149 102.229 11.1204 102.375 11.1205C102.67 11.1205 102.952 11.2376 103.161 11.4459C103.369 11.6543 103.486 11.9369 103.486 12.2315C103.486 12.4321 103.432 12.6289 103.329 12.8011C103.226 12.9733 103.079 13.1145 102.902 13.2095V21.5815H107.002V19.3065L106.989 16.7165Z" fill="#11044C"/>
<path d="M20.413 19.3528L16.837 13.7308L16.752 13.5968L12.363 6.74379L10.416 3.70279H7.06C6.96434 3.87859 6.82297 4.02529 6.65082 4.12738C6.47867 4.22948 6.28218 4.28317 6.08203 4.28279C5.78903 4.28359 5.50765 4.16831 5.29944 3.96216C5.09123 3.75601 4.97312 3.47578 4.97101 3.18279C4.97312 2.8898 5.09123 2.60957 5.29944 2.40342C5.50765 2.19727 5.78903 2.08199 6.08203 2.08279C6.2821 2.08221 6.4786 2.1357 6.65076 2.23763C6.82291 2.33955 6.96429 2.4861 7.06 2.66179H9.74304L8.04303 0.00878906H-0.00195312L4.31604 6.75179L5.68201 8.88379H9.17303C9.26878 8.70827 9.40999 8.56179 9.58191 8.45973C9.75383 8.35767 9.95009 8.30381 10.15 8.30379C10.2955 8.3034 10.4397 8.33166 10.5743 8.38698C10.7089 8.4423 10.8312 8.52359 10.9344 8.62619C11.0376 8.7288 11.1195 8.85073 11.1755 8.985C11.2316 9.11928 11.2607 9.26329 11.261 9.40879C11.2618 9.59857 11.2125 9.78519 11.118 9.94979L16.018 17.6498C16.2175 17.6356 16.4172 17.6756 16.5959 17.7656C16.7746 17.8555 16.9256 17.9921 17.033 18.1608C17.1111 18.2833 17.1641 18.4201 17.189 18.5632C17.2139 18.7064 17.2102 18.853 17.1782 18.9947C17.1461 19.1364 17.0863 19.2703 17.0021 19.3888C16.918 19.5072 16.8113 19.6078 16.688 19.6848C16.4382 19.8394 16.1374 19.8891 15.8511 19.8232C15.5648 19.7573 15.3161 19.5811 15.159 19.3328C15.0518 19.1646 14.9925 18.9703 14.9872 18.7709C14.9819 18.5715 15.0309 18.3745 15.129 18.2008L10.229 10.4948C10.2042 10.4982 10.1791 10.4999 10.1541 10.4998C9.954 10.4998 9.75764 10.4458 9.58569 10.3436C9.41375 10.2413 9.27253 10.0946 9.177 9.91879H6.35602L15.281 23.8568H18.076L20.398 20.4048C20.3124 20.2421 20.269 20.0606 20.2716 19.8769C20.2742 19.6931 20.3228 19.5129 20.413 19.3528Z" fill="#11044C"/>
<path d="M26.6437 18.6471L23.3257 23.8621H19.3457L21.2777 20.9741C21.5231 20.9999 21.77 20.9414 21.9777 20.8081C22.1011 20.7303 22.208 20.629 22.2923 20.5099C22.3766 20.3908 22.4365 20.2563 22.4688 20.114C22.501 19.9717 22.5048 19.8245 22.4801 19.6807C22.4554 19.5369 22.4026 19.3994 22.3247 19.2761C22.2177 19.1066 22.0669 18.9691 21.8882 18.8783C21.7096 18.7875 21.5097 18.7466 21.3097 18.7601L19.9257 16.5721L22.6257 12.3311L26.6437 18.6471Z" fill="#11044C"/>
<path d="M30.5608 7.83887L32.0508 10.1809L30.4507 12.7029L27.5298 7.87187L27.5098 7.83887H30.5608Z" fill="#29ABE2"/>
<path d="M23.0472 3.667L21.3362 5.978L17.5312 0H34.3312L32.9313 2.093C32.7322 2.07383 32.5317 2.10899 32.351 2.19475C32.1703 2.2805 32.0163 2.41365 31.9053 2.58C31.8856 2.60862 31.8676 2.63833 31.8513 2.669H25.0363C24.9412 2.49271 24.8001 2.34545 24.6281 2.24281C24.4561 2.14017 24.2596 2.08598 24.0593 2.086C23.7647 2.086 23.4822 2.20288 23.2737 2.41099C23.0652 2.6191 22.9478 2.90143 22.9473 3.196C22.9454 3.35846 22.9795 3.51931 23.0472 3.667Z" fill="#29ABE2"/>
<path d="M25.4575 7.31184C25.4575 7.60563 25.5739 7.88746 25.7811 8.09567C25.9884 8.30388 26.2697 8.42151 26.5635 8.42284C26.5818 8.42421 26.6002 8.42421 26.6185 8.42284L29.8094 13.6988L28.0275 16.4988L24.0055 10.1828L21.9395 6.93484L23.8945 4.29884C23.9461 4.30686 23.9982 4.31087 24.0505 4.31084C24.2509 4.31092 24.4476 4.25678 24.6198 4.15414C24.792 4.05151 24.9332 3.9042 25.0285 3.72784H31.8425C31.9275 3.88892 32.0512 4.02636 32.2025 4.12783C32.4477 4.29169 32.748 4.3515 33.0373 4.29412C33.3266 4.23675 33.5813 4.06688 33.7455 3.82183C33.8571 3.65524 33.9213 3.46148 33.9313 3.26123C33.9414 3.06097 33.8968 2.86175 33.8025 2.68484L35.5955 0.00683594H38.5255L34.2095 6.78984H27.5415C27.4463 6.6134 27.3051 6.46604 27.1329 6.36339C26.9607 6.26074 26.7639 6.20664 26.5635 6.20684C26.2707 6.20815 25.9903 6.32496 25.7832 6.53188C25.5761 6.73879 25.459 7.01909 25.4575 7.31184Z" fill="#29ABE2"/>
<path d="M44.5527 3.57715C44.4582 3.75382 44.3175 3.9015 44.1456 4.00436C43.9737 4.10723 43.777 4.16143 43.5767 4.16115C43.5457 4.16115 43.5136 4.16115 43.4766 4.16115L41.8527 6.63815C41.9479 6.81484 41.9935 7.01401 41.9847 7.21454C41.9759 7.41507 41.913 7.60948 41.8027 7.77715C41.6411 8.0235 41.3883 8.1956 41.0999 8.25561C40.8115 8.31562 40.511 8.25862 40.2646 8.09715C40.1097 7.99696 39.9825 7.8594 39.8947 7.69715H36.5546L33.5367 12.4422L29.5146 18.7631L26.2637 23.8702H29.7567L36.9567 12.5561C36.8585 12.3815 36.8097 12.1835 36.8153 11.9832C36.8209 11.783 36.8808 11.588 36.9886 11.4191C37.0669 11.2958 37.1687 11.1891 37.2883 11.1051C37.4078 11.0212 37.5428 10.9617 37.6854 10.93C37.828 10.8983 37.9754 10.8951 38.1193 10.9205C38.2631 10.9459 38.4006 10.9995 38.5237 11.0782C38.7719 11.2365 38.9471 11.4868 39.011 11.7742C39.075 12.0615 39.0223 12.3625 38.8646 12.6111C38.7568 12.7802 38.6052 12.9169 38.426 13.0069C38.2468 13.0968 38.0467 13.1367 37.8467 13.1222L31.0096 23.8692H34.3096L37.5607 18.7621L45.2717 6.64315L47.2186 3.58315L44.5527 3.57715Z" fill="#90218A"/>
<path d="M49.5944 0L47.8945 2.669H44.5524C44.4578 2.49258 44.317 2.34517 44.1451 2.2425C43.9732 2.13982 43.7766 2.08573 43.5764 2.086C43.2819 2.086 42.9995 2.20292 42.7912 2.41105C42.5829 2.61919 42.4657 2.90152 42.4655 3.196C42.4647 3.3807 42.5104 3.56263 42.5984 3.725L40.9734 6.201C40.7734 6.18425 40.5725 6.22188 40.3921 6.30989C40.2117 6.3979 40.0584 6.53304 39.9484 6.701C39.9304 6.7278 39.9137 6.7555 39.8984 6.784H37.2305L41.5474 0.000999451L49.5944 0Z" fill="#90218A"/>
</svg>
