<svg width="24" height="24" viewBox="0 0 24 24" fill="none" xmlns="http://www.w3.org/2000/svg">
<path d="M12 0C5.38316 0 0 5.38316 0 12C0 18.6168 5.38316 23.9999 12 23.9999C18.6168 23.9999 23.9999 18.6168 23.9999 12C23.9999 5.38316 18.6168 0 12 0ZM22.185 12C22.185 14.4819 21.2922 16.759 19.8115 18.5279L13.364 12.0807C13.4817 11.8277 13.576 11.5556 13.6466 11.2645H15.0191C15.444 11.2645 15.7884 10.9201 15.7884 10.4952V10.1338H19.2651C19.69 10.1338 20.0344 9.78941 20.0344 9.36453V8.11047C20.0344 7.70326 19.7178 7.37086 19.3174 7.34386C19.2849 7.09194 19.0701 6.89702 18.8092 6.89702C18.5494 6.89702 18.3352 7.09057 18.3015 7.34126H8.62439L5.47175 4.18869C7.24074 2.7078 9.51792 1.81489 12 1.81489C17.616 1.81497 22.185 6.38393 22.185 12ZM10.3633 11.6467L11.0983 12.3816C10.7066 12.6029 10.2916 12.682 10.0103 12.709L10.3633 11.6467ZM1.81497 12C1.81497 9.51807 2.7078 7.24097 4.18846 5.47205L6.05827 7.34179C5.63829 7.34738 5.29939 7.68918 5.29939 8.11054V10.4952C5.29939 10.7946 5.47083 11.0535 5.7206 11.1806L4.00478 16.3475C3.92683 16.582 3.96638 16.8397 4.11104 17.0402C4.2557 17.2405 4.48773 17.3593 4.73482 17.3593H7.91111C8.24251 17.3593 8.53672 17.147 8.64115 16.8324L9.49933 14.2482C9.5186 14.2511 9.5378 14.2541 9.55754 14.2556C9.57009 14.2566 9.63427 14.2611 9.73854 14.2611C10.1643 14.2611 11.2563 14.1862 12.21 13.4933L18.5282 19.8113C16.7591 21.2921 14.4821 22.185 12 22.185C6.38393 22.185 1.81497 17.616 1.81497 12Z" fill="currentColor"/>
</svg>
